<?xml version="1.0" encoding="UTF-8"?>
<svg version="1.1" xmlns="http://www.w3.org/2000/svg" width="512" height="512">
<path d="M0 0 C96.03 0 192.06 0 291 0 C291 61.38 291 122.76 291 186 C194.97 186 98.94 186 0 186 C0 161.91 0 137.82 0 113 C13.86 113 27.72 113 42 113 C42 119.93 42 126.86 42 134 C77.64 134 113.28 134 150 134 C150 127.07 150 120.14 150 113 C155.28 113 160.56 113 166 113 C166 119.6 166 126.2 166 133 C163.36 133 160.72 133 158 133 C158 143.56 158 154.12 158 165 C173.84 165 189.68 165 206 165 C206 154.44 206 143.88 206 133 C203.36 133 200.72 133 198 133 C198 126.4 198 119.8 198 113 C203.28 113 208.56 113 214 113 C214 119.93 214 126.86 214 134 C230.83 134 247.66 134 265 134 C265 106.94 265 79.88 265 52 C248.17 52 231.34 52 214 52 C214 58.93 214 65.86 214 73 C192.88 73 171.76 73 150 73 C150 66.07 150 59.14 150 52 C114.36 52 78.72 52 42 52 C42 58.93 42 65.86 42 73 C28.14 73 14.28 73 0 73 C0 48.91 0 24.82 0 0 Z M57 22 C54.75413029 24.68873941 54.75413029 24.68873941 55.1875 27.0625 C55.9410421 29.35993538 55.9410421 29.35993538 59 31 C61.9651256 31.42208861 64.9454686 31.32432621 67.9375 31.3125 C69.15469727 31.33666992 69.15469727 31.33666992 70.39648438 31.36132812 C75.21289818 31.37502037 75.21289818 31.37502037 79.56640625 29.48046875 C80.03949219 28.99191406 80.51257813 28.50335938 81 28 C80.62095792 24.70924004 80.62095792 24.70924004 79 22 C75.36173954 21.72101175 71.71019202 21.76822707 68.0625 21.75 C67.03447266 21.729375 66.00644531 21.70875 64.94726562 21.6875 C63.47483398 21.67976563 63.47483398 21.67976563 61.97265625 21.671875 C61.06781494 21.6625293 60.16297363 21.65318359 59.23071289 21.64355469 C58.49457764 21.76118164 57.75844238 21.87880859 57 22 Z M113 22 C112.34 23.65 111.68 25.3 111 27 C112.71584916 29.41365969 114.0911001 30.83327872 117.06298828 31.37841797 C119.57335825 31.50262227 122.04983237 31.49593413 124.5625 31.4375 C125.85704102 31.44813477 125.85704102 31.44813477 127.17773438 31.45898438 C131.78997965 31.58994005 131.78997965 31.58994005 135.78491211 29.63696289 C137.29415516 27.98535742 137.29415516 27.98535742 136.75 25.375 C136.22254355 23.0687593 136.22254355 23.0687593 135 22 C133.36527118 21.91299658 131.72685945 21.89298937 130.08984375 21.90234375 C128.60581055 21.90717773 128.60581055 21.90717773 127.09179688 21.91210938 C125.53041992 21.92467773 125.53041992 21.92467773 123.9375 21.9375 C122.37032227 21.94426758 122.37032227 21.94426758 120.77148438 21.95117188 C118.1809334 21.96300087 115.59049441 21.97948311 113 22 Z M227 24 C226.58333333 26.5 226.58333333 26.5 227 29 C231.17143856 31.78095904 234.59962668 31.33070347 239.5 31.3125 C240.36753906 31.32861328 241.23507812 31.34472656 242.12890625 31.36132812 C243.37994141 31.36229492 243.37994141 31.36229492 244.65625 31.36328125 C245.79803711 31.36775269 245.79803711 31.36775269 246.96289062 31.37231445 C249.54129182 30.90107023 250.4556932 30.08984996 252 28 C251.75794651 24.68181015 251.75794651 24.68181015 250 22 C246.52791193 21.74901076 243.0425938 21.81477904 239.5625 21.8125 C238.58216797 21.80025391 237.60183594 21.78800781 236.59179688 21.77539062 C235.18704102 21.77249023 235.18704102 21.77249023 233.75390625 21.76953125 C232.45948608 21.76336792 232.45948608 21.76336792 231.13891602 21.75708008 C228.78530073 21.799502 228.78530073 21.799502 227 24 Z M55 158 C55.37904208 161.29075996 55.37904208 161.29075996 57 164 C60.63899175 164.25156269 64.29083673 164.18522226 67.9375 164.1875 C68.96552734 164.19974609 69.99355469 164.21199219 71.05273438 164.22460938 C72.03435547 164.22654297 73.01597656 164.22847656 74.02734375 164.23046875 C75.38460571 164.23663208 75.38460571 164.23663208 76.76928711 164.24291992 C79.20418778 164.21341297 79.20418778 164.21341297 81 162 C80.90888062 159.46048456 80.90888062 159.46048456 80 157 C75.94114966 154.29409977 72.8248546 154.66867646 68.0625 154.6875 C66.84530273 154.66333008 66.84530273 154.66333008 65.60351562 154.63867188 C61.17646207 154.63504017 58.25874725 154.63469971 55 158 Z M111 159 C111.66 160.65 112.32 162.3 113 164 C116.62493334 164.05787784 120.24974857 164.0935542 123.875 164.125 C125.42380859 164.15013672 125.42380859 164.15013672 127.00390625 164.17578125 C127.99003906 164.18222656 128.97617187 164.18867188 129.9921875 164.1953125 C130.90339355 164.20578613 131.81459961 164.21625977 132.75341797 164.22705078 C135.20290436 164.21870993 135.20290436 164.21870993 137 162 C136.90888062 159.46048456 136.90888062 159.46048456 136 157 C131.94644682 154.29763122 128.82094744 154.63252324 124.0625 154.625 C122.84530273 154.58826172 122.84530273 154.58826172 121.60351562 154.55078125 C116.68100659 154.52655233 114.08392849 154.7480441 111 159 Z M227 157 C226.66659529 160.04195427 226.66659529 160.04195427 227 163 C229.41816166 165.41816166 235.68777819 164.18547019 238.9375 164.1875 C239.96552734 164.19974609 240.99355469 164.21199219 242.05273438 164.22460938 C243.03435547 164.22654297 244.01597656 164.22847656 245.02734375 164.23046875 C246.38460571 164.23663208 246.38460571 164.23663208 247.76928711 164.24291992 C250.20418778 164.21341297 250.20418778 164.21341297 252 162 C251.67801034 158.90073181 251.67801034 158.90073181 251 156 C246.96103843 154.65367948 243.2287853 154.81582452 239 154.8125 C238.18015625 154.80025391 237.3603125 154.78800781 236.515625 154.77539062 C235.72671875 154.77345703 234.9378125 154.77152344 234.125 154.76953125 C233.40570313 154.76542236 232.68640625 154.76131348 231.9453125 154.75708008 C229.67556749 154.89322092 229.67556749 154.89322092 227 157 Z " fill="#2998A8" transform="translate(185,163)"/>
<path d="M0 0 C33 0 66 0 100 0 C100 24.09 100 48.18 100 73 C91.75 73 83.5 73 75 73 C75 66.07 75 59.14 75 52 C58.5 52 42 52 25 52 C25 79.06 25 106.12 25 134 C41.5 134 58 134 75 134 C75 127.07 75 120.14 75 113 C83.25 113 91.5 113 100 113 C100 137.09 100 161.18 100 186 C67 186 34 186 0 186 C0 124.62 0 63.24 0 0 Z M38 23 C36.9853761 24.8064655 36.9853761 24.8064655 37 27 C38.34931505 29.30941798 38.34931505 29.30941798 41 31 C44.19729507 31.5731072 47.32316647 31.51283334 50.5625 31.4375 C51.85704102 31.44813477 51.85704102 31.44813477 53.17773438 31.45898438 C57.78997965 31.58994005 57.78997965 31.58994005 61.78491211 29.63696289 C63.29415516 27.98535742 63.29415516 27.98535742 62.75 25.375 C62.22254355 23.0687593 62.22254355 23.0687593 61 22 C59.46218409 21.90097893 57.91990556 21.86920433 56.37890625 21.8671875 C55.44369141 21.86589844 54.50847656 21.86460937 53.54492188 21.86328125 C52.06862305 21.86908203 52.06862305 21.86908203 50.5625 21.875 C49.58216797 21.87113281 48.60183594 21.86726563 47.59179688 21.86328125 C46.65529297 21.86457031 45.71878906 21.86585938 44.75390625 21.8671875 C43.89095947 21.86831543 43.0280127 21.86944336 42.13891602 21.87060547 C39.94743577 21.86278731 39.94743577 21.86278731 38 23 Z M37 159 C37.66 160.65 38.32 162.3 39 164 C42.62493334 164.05787784 46.24974857 164.0935542 49.875 164.125 C51.42380859 164.15013672 51.42380859 164.15013672 53.00390625 164.17578125 C53.99003906 164.18222656 54.97617188 164.18867188 55.9921875 164.1953125 C56.90339355 164.20578613 57.81459961 164.21625977 58.75341797 164.22705078 C61.20290436 164.21870993 61.20290436 164.21870993 63 162 C62.90888062 159.46048456 62.90888062 159.46048456 62 157 C57.94644682 154.29763122 54.82094744 154.63252324 50.0625 154.625 C48.84530273 154.58826172 48.84530273 154.58826172 47.60351562 154.55078125 C42.68100659 154.52655233 40.08392849 154.7480441 37 159 Z " fill="#2999A8" transform="translate(36,163)"/>
<path d="M0 0 C29.7 0 59.4 0 90 0 C90 20.79 90 41.58 90 63 C60.3 63 30.6 63 0 63 C0 42.21 0 21.42 0 0 Z " fill="#026673" transform="translate(236,225)"/>
<path d="M0 0 C38.28 0 76.56 0 116 0 C116 7.26 116 14.52 116 22 C77.72 22 39.44 22 0 22 C0 14.74 0 7.48 0 0 Z " fill="#026673" transform="translate(111,245)"/>
<path d="M0 0 C10.89 0 21.78 0 33 0 C33.02094499 8.05916691 33.04098314 16.11823579 33.05175018 24.17740631 C33.05704008 27.93005024 33.06411391 31.68267175 33.07543945 35.43530273 C33.08627141 39.04681687 33.09227749 42.65830921 33.09487724 46.26983833 C33.09673094 47.65060329 33.10035049 49.031367 33.10573006 50.41212273 C33.11294447 52.33975952 33.11340809 54.26741807 33.11352539 56.19506836 C33.115746 57.29427109 33.11796661 58.39347382 33.12025452 59.52598572 C33 62 33 62 32 63 C29.62458949 63.08838648 27.2776642 63.11537523 24.90234375 63.09765625 C23.60546631 63.09515869 22.30858887 63.09266113 20.97241211 63.09008789 C19.31089111 63.08098389 17.64937012 63.07187988 15.9375 63.0625 C10.678125 63.041875 5.41875 63.02125 0 63 C0 42.21 0 21.42 0 0 Z " fill="#026672" transform="translate(408,225)"/>
<path d="M0 0 C10.56 0 21.12 0 32 0 C32 20.79 32 41.58 32 63 C21.44 63 10.88 63 0 63 C0 42.21 0 21.42 0 0 Z " fill="#026673" transform="translate(70,225)"/>
<path d="M0 0 C21.12 0 42.24 0 64 0 C64 7.26 64 14.52 64 22 C42.88 22 21.76 22 0 22 C0 14.74 0 7.48 0 0 Z " fill="#036572" transform="translate(335,245)"/>
<path d="M0 0 C4.62 0 9.24 0 14 0 C14 9.57 14 19.14 14 29 C16.64 29 19.28 29 22 29 C22 33.62 22 38.24 22 43 C12.1 43 2.2 43 -8 43 C-8 38.38 -8 33.76 -8 29 C-5.36 29 -2.72 29 0 29 C0 19.43 0 9.86 0 0 Z " fill="#026672" transform="translate(360,276)"/>
</svg>
