<svg width="26" height="26" viewBox="0 0 26 26" fill="none" xmlns="http://www.w3.org/2000/svg">
<path d="M20.5833 16.8892L19.0558 18.4167L15.1667 14.5275L11.2775 18.4167L9.75 16.8892L13.6392 13L9.75 9.11083L11.2775 7.58333L15.1667 11.4725L19.0558 7.58333L20.5833 9.11083L16.6942 13L20.5833 16.8892ZM23.8333 3.25C24.408 3.25 24.9591 3.47827 25.3654 3.8846C25.7717 4.29093 26 4.84203 26 5.41667V20.5833C26 21.158 25.7717 21.7091 25.3654 22.1154C24.9591 22.5217 24.408 22.75 23.8333 22.75H7.58333C6.83583 22.75 6.25083 22.36 5.86083 21.7858L0 13L5.86083 4.20333C6.25083 3.62917 6.83583 3.25 7.58333 3.25H23.8333ZM23.8333 5.41667H7.58333L2.47 13L7.58333 20.5833H23.8333V5.41667Z" fill="white"/>
</svg>
