<svg width="26" height="26" viewBox="0 0 26 26" fill="none" xmlns="http://www.w3.org/2000/svg">
<path d="M4.33398 22.75C3.43121 22.75 2.66385 22.434 2.0319 21.8021C1.39996 21.1701 1.08398 20.4028 1.08398 19.5C1.08398 18.7958 1.28729 18.1639 1.6939 17.6042C2.10051 17.0444 2.61943 16.6563 3.25065 16.4396V9.56042C2.61871 9.34375 2.09979 8.95556 1.6939 8.39583C1.28801 7.83611 1.08471 7.20417 1.08398 6.5C1.08398 5.59722 1.39996 4.82986 2.0319 4.19792C2.66385 3.56597 3.43121 3.25 4.33398 3.25C5.23676 3.25 6.00412 3.56597 6.63607 4.19792C7.26801 4.82986 7.58398 5.59722 7.58398 6.5C7.58398 7.20417 7.38104 7.83611 6.97515 8.39583C6.56926 8.95556 6.04998 9.34375 5.41732 9.56042V11.9167H11.9173V9.56042C11.2854 9.34375 10.7665 8.95556 10.3606 8.39583C9.95468 7.83611 9.75137 7.20417 9.75065 6.5C9.75065 5.59722 10.0666 4.82986 10.6986 4.19792C11.3305 3.56597 12.0979 3.25 13.0007 3.25C13.9034 3.25 14.6708 3.56597 15.3027 4.19792C15.9347 4.82986 16.2507 5.59722 16.2507 6.5C16.2507 7.20417 16.0477 7.83611 15.6418 8.39583C15.2359 8.95556 14.7167 9.34375 14.084 9.56042V11.9167H19.5007C19.8076 11.9167 20.0651 11.813 20.2731 11.6058C20.4811 11.3985 20.5847 11.141 20.584 10.8333V9.56042C19.952 9.34375 19.4331 8.95556 19.0272 8.39583C18.6213 7.83611 18.418 7.20417 18.4173 6.5C18.4173 5.59722 18.7333 4.82986 19.3652 4.19792C19.9972 3.56597 20.7645 3.25 21.6673 3.25C22.5701 3.25 23.3375 3.56597 23.9694 4.19792C24.6013 4.82986 24.9173 5.59722 24.9173 6.5C24.9173 7.20417 24.7144 7.83611 24.3085 8.39583C23.9026 8.95556 23.3833 9.34375 22.7507 9.56042V10.8333C22.7507 11.7361 22.4347 12.5035 21.8027 13.1354C21.1708 13.7674 20.4034 14.0833 19.5007 14.0833H14.084V16.4396C14.7159 16.6563 15.2352 17.0444 15.6418 17.6042C16.0484 18.1639 16.2514 18.7958 16.2507 19.5C16.2507 20.4028 15.9347 21.1701 15.3027 21.8021C14.6708 22.434 13.9034 22.75 13.0007 22.75C12.0979 22.75 11.3305 22.434 10.6986 21.8021C10.0666 21.1701 9.75065 20.4028 9.75065 19.5C9.75065 18.7958 9.95396 18.1639 10.3606 17.6042C10.7672 17.0444 11.2861 16.6563 11.9173 16.4396V14.0833H5.41732V16.4396C6.04926 16.6563 6.56854 17.0444 6.97515 17.6042C7.38176 18.1639 7.58471 18.7958 7.58398 19.5C7.58398 20.4028 7.26801 21.1701 6.63607 21.8021C6.00412 22.434 5.23676 22.75 4.33398 22.75ZM4.33398 20.5833C4.64093 20.5833 4.8984 20.4793 5.1064 20.2713C5.3144 20.0633 5.41804 19.8062 5.41732 19.5C5.4166 19.1938 5.3126 18.9367 5.10532 18.7287C4.89804 18.5207 4.64093 18.4167 4.33398 18.4167C4.02704 18.4167 3.76993 18.5207 3.56265 18.7287C3.35537 18.9367 3.25137 19.1938 3.25065 19.5C3.24993 19.8062 3.35393 20.0637 3.56265 20.2724C3.77137 20.4811 4.02848 20.5848 4.33398 20.5833ZM4.33398 7.58333C4.64093 7.58333 4.8984 7.47933 5.1064 7.27133C5.3144 7.06333 5.41804 6.80622 5.41732 6.5C5.4166 6.19378 5.3126 5.93667 5.10532 5.72867C4.89804 5.52067 4.64093 5.41667 4.33398 5.41667C4.02704 5.41667 3.76993 5.52067 3.56265 5.72867C3.35537 5.93667 3.25137 6.19378 3.25065 6.5C3.24993 6.80622 3.35393 7.06369 3.56265 7.27242C3.77137 7.48114 4.02848 7.58478 4.33398 7.58333ZM13.0007 20.5833C13.3076 20.5833 13.5651 20.4793 13.7731 20.2713C13.9811 20.0633 14.0847 19.8062 14.084 19.5C14.0833 19.1938 13.9793 18.9367 13.772 18.7287C13.5647 18.5207 13.3076 18.4167 13.0007 18.4167C12.6937 18.4167 12.4366 18.5207 12.2293 18.7287C12.022 18.9367 11.918 19.1938 11.9173 19.5C11.9166 19.8062 12.0206 20.0637 12.2293 20.2724C12.438 20.4811 12.6952 20.5848 13.0007 20.5833ZM13.0007 7.58333C13.3076 7.58333 13.5651 7.47933 13.7731 7.27133C13.9811 7.06333 14.0847 6.80622 14.084 6.5C14.0833 6.19378 13.9793 5.93667 13.772 5.72867C13.5647 5.52067 13.3076 5.41667 13.0007 5.41667C12.6937 5.41667 12.4366 5.52067 12.2293 5.72867C12.022 5.93667 11.918 6.19378 11.9173 6.5C11.9166 6.80622 12.0206 7.06369 12.2293 7.27242C12.438 7.48114 12.6952 7.58478 13.0007 7.58333ZM21.6673 7.58333C21.9743 7.58333 22.2317 7.47933 22.4397 7.27133C22.6477 7.06333 22.7514 6.80622 22.7507 6.5C22.7499 6.19378 22.6459 5.93667 22.4387 5.72867C22.2314 5.52067 21.9743 5.41667 21.6673 5.41667C21.3604 5.41667 21.1033 5.52067 20.896 5.72867C20.6887 5.93667 20.5847 6.19378 20.584 6.5C20.5833 6.80622 20.6873 7.06369 20.896 7.27242C21.1047 7.48114 21.3618 7.58478 21.6673 7.58333Z" fill="white"/>
</svg>
