<svg width="150" height="150" viewBox="0 0 150 150" fill="none" xmlns="http://www.w3.org/2000/svg">
<path d="M112.968 109.375L104.061 118.438C103.436 119.062 103.124 119.792 103.124 120.625C103.124 121.458 103.436 122.188 104.061 122.812C104.686 123.438 105.416 123.75 106.249 123.75C107.082 123.75 107.811 123.438 108.436 122.812L120.624 110.625C121.874 109.375 122.499 107.917 122.499 106.25C122.499 104.583 121.874 103.125 120.624 101.875L108.436 89.6875C107.811 89.0625 107.082 88.75 106.249 88.75C105.416 88.75 104.686 89.0625 104.061 89.6875C103.436 90.3125 103.124 91.0417 103.124 91.875C103.124 92.7083 103.436 93.4375 104.061 94.0625L113.124 103.125H90.6239C89.7906 103.125 89.0614 103.438 88.4364 104.062C87.8114 104.688 87.4989 105.417 87.4989 106.25C87.4989 107.083 87.8114 107.812 88.4364 108.438C89.0614 109.062 89.7906 109.375 90.6239 109.375H112.968ZM106.249 137.5C97.6031 137.5 90.2333 134.453 84.1396 128.359C78.0458 122.266 74.9989 114.896 74.9989 106.25C74.9989 97.6042 78.0458 90.2344 84.1396 84.1406C90.2333 78.0469 97.6031 75 106.249 75C114.895 75 122.265 78.0469 128.358 84.1406C134.452 90.2344 137.499 97.6042 137.499 106.25C137.499 114.896 134.452 122.266 128.358 128.359C122.265 134.453 114.895 137.5 106.249 137.5ZM75.6239 137.5H63.2802C61.7177 137.5 60.3635 136.979 59.2177 135.938C58.0719 134.896 57.3948 133.594 57.1864 132.031L55.3114 117.5C53.9573 116.979 52.6812 116.354 51.4833 115.625C50.2854 114.896 49.1135 114.115 47.9677 113.281L34.3739 118.906C32.9156 119.531 31.4573 119.609 29.9989 119.141C28.5406 118.672 27.3948 117.76 26.5614 116.406L14.9989 96.25C14.1656 94.8958 13.9052 93.4375 14.2177 91.875C14.5302 90.3125 15.3114 89.0625 16.5614 88.125L28.2802 79.2188C28.176 78.4896 28.1239 77.7865 28.1239 77.1094V72.8906C28.1239 72.2135 28.176 71.5104 28.2802 70.7812L16.5614 61.875C15.3114 60.9375 14.5302 59.6875 14.2177 58.125C13.9052 56.5625 14.1656 55.1042 14.9989 53.75L26.5614 33.5938C27.3948 32.2396 28.5406 31.3281 29.9989 30.8594C31.4573 30.3906 32.9156 30.4688 34.3739 31.0938L47.9677 36.7188C49.1135 35.8854 50.2854 35.1042 51.4833 34.375C52.6812 33.6458 53.9573 33.0208 55.3114 32.5L57.1864 17.9688C57.3948 16.4062 58.0719 15.1042 59.2177 14.0625C60.3635 13.0208 61.7177 12.5 63.2802 12.5H86.7177C88.2802 12.5 89.6344 13.0208 90.7802 14.0625C91.926 15.1042 92.6031 16.4062 92.8114 17.9688L94.6864 32.5C96.0406 33.0208 97.3166 33.6458 98.5146 34.375C99.7125 35.1042 100.884 35.8854 102.03 36.7188L115.624 31.0938C117.082 30.4688 118.541 30.3906 119.999 30.8594C121.457 31.3281 122.603 32.2396 123.436 33.5938L134.999 53.75C135.832 55.1042 136.093 56.5625 135.78 58.125C135.468 59.6875 134.686 60.9375 133.436 61.875L126.249 67.3438C123.124 65.7812 119.895 64.5833 116.561 63.75C113.228 62.9167 109.791 62.5 106.249 62.5C104.166 62.5 102.16 62.6823 100.233 63.0469C98.3062 63.4115 96.3531 63.8542 94.3739 64.375C92.3948 60.9375 89.7125 58.2031 86.3271 56.1719C82.9416 54.1406 79.2698 53.125 75.3114 53.125C69.2698 53.125 64.1135 55.2604 59.8427 59.5312C55.5719 63.8021 53.4364 68.9583 53.4364 75C53.4364 78.9583 54.4 82.6042 56.3271 85.9375C58.2541 89.2708 60.8844 91.9271 64.2177 93.9062C63.5927 95.9896 63.15 98.151 62.8896 100.391C62.6291 102.63 62.4989 104.844 62.4989 107.031C62.6031 112.865 63.775 118.411 66.0146 123.672C68.2541 128.932 71.4573 133.542 75.6239 137.5Z" fill="white"/>
</svg>
