<svg width="26" height="26" viewBox="0 0 26 26" fill="none" xmlns="http://www.w3.org/2000/svg">
<path d="M6.49935 10.8225H8.66602V18.4058H6.49935V10.8225ZM15.166 14.0725H17.3327V18.4058H15.166V14.0725ZM10.8327 7.5725H12.9993V18.4058H10.8327V7.5725ZM21.666 7.58333V4.33333H19.4993V7.58333H16.2493V9.75H19.4993V13H21.666V9.75H24.916V7.58333H21.666ZM19.4993 20.5833H4.33268V5.41667H17.3327V3.25H4.33268C3.14102 3.25 2.16602 4.225 2.16602 5.41667V20.5833C2.16602 21.775 3.14102 22.75 4.33268 22.75H19.4993C20.691 22.75 21.666 21.775 21.666 20.5833V15.1667H19.4993V20.5833Z" fill="white"/>
</svg>
