<svg width="120" height="120" viewBox="0 0 120 120" fill="none" xmlns="http://www.w3.org/2000/svg">
<g clip-path="url(#clip0_490_1549)">
<path d="M114.375 19.6504H95.5879V103.538H114.375V19.6504Z" stroke="white" stroke-width="3" stroke-miterlimit="10"/>
<path d="M108.937 28.1621H114.374" stroke="white" stroke-width="3.75" stroke-miterlimit="10"/>
<path d="M105 36.3359H114.375" stroke="white" stroke-width="3.75" stroke-miterlimit="10"/>
<path d="M108.937 44.5098H114.374" stroke="white" stroke-width="3.75" stroke-miterlimit="10"/>
<path d="M105 52.6914H114.375" stroke="white" stroke-width="3.75" stroke-miterlimit="10"/>
<path d="M108.937 60.8633H114.374" stroke="white" stroke-width="3.75" stroke-miterlimit="10"/>
<path d="M105 69.0391H114.375" stroke="white" stroke-width="3.75" stroke-miterlimit="10"/>
<path d="M108.937 77.1758H114.374" stroke="white" stroke-width="3.75" stroke-miterlimit="10"/>
<path d="M105 85.3496H114.375" stroke="white" stroke-width="3.75" stroke-miterlimit="10"/>
<path d="M108.937 93.5234H114.374" stroke="white" stroke-width="3.75" stroke-miterlimit="10"/>
<path d="M14.2489 60.1914C16.8058 60.2966 19.295 61.0447 21.4864 62.3664C22.7361 63.0836 24.1518 63.4609 25.5926 63.4609C27.0335 63.4609 28.4492 63.0836 29.6989 62.3664C31.8332 61.0247 34.3029 60.3129 36.8239 60.3129C39.3448 60.3129 41.8146 61.0247 43.9489 62.3664C45.1823 63.1302 46.6044 63.5348 48.0551 63.5348C49.5059 63.5348 50.9279 63.1302 52.1614 62.3664C54.2572 61.0519 56.6811 60.3546 59.1551 60.3546C61.6291 60.3546 64.053 61.0519 66.1489 62.3664C67.3751 63.1311 68.7913 63.5364 70.2364 63.5364C71.6815 63.5364 73.0976 63.1311 74.3239 62.3664C80.5864 58.6164 86.4739 60.5289 92.3239 63.3039C93.1114 63.6414 93.9739 64.0539 93.5239 65.1414C93.0739 66.2289 92.2114 65.8914 91.4239 65.5164L87.6739 63.8664C85.8922 62.9636 83.9139 62.5183 81.9172 62.5707C79.9205 62.623 77.9683 63.1714 76.2364 64.1664C74.4727 65.3123 72.4146 65.9222 70.3114 65.9222C68.2081 65.9222 66.15 65.3123 64.3864 64.1664C62.8288 63.1375 61.0031 62.5889 59.1364 62.5889C57.2696 62.5889 55.444 63.1375 53.8864 64.1664C52.1161 65.2945 50.0606 65.8938 47.9614 65.8938C45.8622 65.8938 43.8066 65.2945 42.0364 64.1664C40.5171 63.1648 38.7373 62.631 36.9176 62.631C35.0979 62.631 33.3182 63.1648 31.7989 64.1664C29.9902 65.3218 27.8888 65.9357 25.7426 65.9357C23.5964 65.9357 21.495 65.3218 19.6864 64.1664C18.1603 63.183 16.3832 62.66 14.5676 62.66C12.7521 62.66 10.975 63.183 9.44887 64.1664C7.72738 65.2188 5.76501 65.8126 3.74887 65.8914C2.84887 65.8914 1.83637 66.1539 1.76137 64.6539C1.68637 63.1539 2.81137 63.7539 3.74887 63.7539C5.65167 63.3659 7.49332 62.7225 9.22387 61.8414C10.7637 60.9431 12.4762 60.3808 14.2489 60.1914Z" fill="white" stroke="white" stroke-width="2.5" stroke-miterlimit="10"/>
<path d="M14.4378 71.25C16.9559 71.4048 19.3998 72.1637 21.5628 73.4625C22.799 74.1989 24.2113 74.5876 25.6503 74.5876C27.0892 74.5876 28.5015 74.1989 29.7378 73.4625C31.8689 72.1122 34.3399 71.3953 36.8628 71.3953C39.3857 71.3953 41.8566 72.1122 43.9878 73.4625C45.2043 74.2533 46.6242 74.6742 48.0753 74.6742C49.5263 74.6742 50.9462 74.2533 52.1628 73.4625C54.2244 72.1676 56.6095 71.4807 59.044 71.4807C61.4785 71.4807 63.8637 72.1676 65.9253 73.4625C67.2195 74.2868 68.7221 74.7247 70.2565 74.7247C71.791 74.7247 73.2935 74.2868 74.5878 73.4625C80.8503 69.7125 86.7378 71.925 92.5878 74.6625C93.2628 75 93.9378 75.45 93.5253 76.3875C93.1128 77.325 92.3628 77.1375 91.6503 76.8375C90.9378 76.5375 89.5503 76.0125 88.5753 75.525C86.5947 74.3902 84.3517 73.7932 82.069 73.7932C79.7863 73.7932 77.5434 74.3902 75.5628 75.525C73.9778 76.5366 72.1368 77.0741 70.2565 77.0741C68.3763 77.0741 66.5352 76.5366 64.9503 75.525C63.198 74.3856 61.1528 73.7791 59.0628 73.7791C56.9727 73.7791 54.9275 74.3856 53.1753 75.525C51.608 76.4711 49.8121 76.9711 47.9815 76.9711C46.1509 76.9711 44.355 76.4711 42.7878 75.525C41.0355 74.3856 38.9903 73.7791 36.9003 73.7791C34.8102 73.7791 32.765 74.3856 31.0128 75.525C29.4278 76.5366 27.5868 77.0741 25.7065 77.0741C23.8263 77.0741 21.9852 76.5366 20.4003 75.525C18.644 74.3778 16.5917 73.7669 14.494 73.7669C12.3963 73.7669 10.344 74.3778 8.58776 75.525C7.10869 76.366 5.45021 76.8417 3.75026 76.9125C2.81276 76.9125 2.10026 76.9125 2.06276 75.6375C2.02526 74.3625 2.85026 74.625 3.56276 74.5875C5.40352 74.3384 7.18297 73.7537 8.81276 72.8625C10.5637 71.9609 12.4751 71.413 14.4378 71.25Z" fill="white" stroke="white" stroke-width="2.5" stroke-miterlimit="10"/>
<path d="M14.476 37.9902C16.6815 38.2232 18.8142 38.9129 20.7385 40.0152C22.2216 40.908 23.92 41.3798 25.651 41.3798C27.3821 41.3798 29.0804 40.908 30.5635 40.0152C32.4481 38.8218 34.6329 38.1881 36.8635 38.1881C39.0942 38.1881 41.279 38.8218 43.1635 40.0152C44.6337 40.925 46.3284 41.4069 48.0573 41.4069C49.7862 41.4069 51.4808 40.925 52.951 40.0152C54.7597 38.8599 56.8611 38.246 59.0073 38.246C61.1535 38.246 63.2549 38.8599 65.0635 40.0152C66.6418 41.0073 68.4681 41.5337 70.3323 41.5337C72.1965 41.5337 74.0228 41.0073 75.601 40.0152C81.7135 36.4527 87.1885 39.3402 92.7385 41.6652C92.8962 41.7079 93.0435 41.7823 93.1714 41.884C93.2993 41.9856 93.4052 42.1122 93.4824 42.2562C93.5596 42.4001 93.6067 42.5583 93.6206 42.7211C93.6346 42.8838 93.6152 43.0477 93.5635 43.2027C93.226 44.1777 92.401 43.9902 91.6885 43.7277C90.9971 43.4662 90.321 43.1657 89.6635 42.8277C87.4329 41.5865 84.9225 40.935 82.3698 40.935C79.8171 40.935 77.3066 41.5865 75.076 42.8277C73.6343 43.7015 71.9806 44.1635 70.2948 44.1635C68.6089 44.1635 66.9553 43.7015 65.5135 42.8277C63.629 41.6343 61.4442 41.0006 59.2135 41.0006C56.9829 41.0006 54.7981 41.6343 52.9135 42.8277C51.4304 43.7205 49.7321 44.1923 48.001 44.1923C46.27 44.1923 44.5716 43.7205 43.0885 42.8277C41.232 41.6709 39.0884 41.0577 36.901 41.0577C34.7136 41.0577 32.57 41.6709 30.7135 42.8277C29.199 43.7482 27.4608 44.235 25.6885 44.235C23.9162 44.235 22.178 43.7482 20.6635 42.8277C18.8101 41.6625 16.6653 41.0443 14.476 41.0443C12.2867 41.0443 10.1419 41.6625 8.28853 42.8277C6.75218 43.7225 5.00391 44.1887 3.22603 44.1777C2.58853 44.1777 1.87603 44.1777 1.91353 43.1277C1.95103 42.0777 1.91353 41.8152 2.55103 41.8152C6.52603 41.8152 9.63853 39.2277 13.351 38.4777L14.476 37.9902Z" fill="white" stroke="white" stroke-width="2.5" stroke-miterlimit="10"/>
<path d="M14.6269 49.123C17.0166 49.3654 19.3289 50.1064 21.4144 51.298C22.671 52.0149 24.0927 52.3919 25.5394 52.3919C26.9861 52.3919 28.4078 52.0149 29.6644 51.298C31.836 49.9452 34.3433 49.228 36.9019 49.228C39.4604 49.228 41.9678 49.9452 44.1394 51.298C45.3059 51.9989 46.6411 52.3691 48.0019 52.3691C49.3627 52.3691 50.6979 51.9989 51.8644 51.298C54.0744 49.918 56.6276 49.1864 59.2331 49.1864C61.8387 49.1864 64.3918 49.918 66.6019 51.298C67.7253 52.0038 69.0252 52.3781 70.3519 52.3781C71.6786 52.3781 72.9784 52.0038 74.1019 51.298C80.2894 47.548 86.1769 49.2355 92.1019 51.973C92.8894 52.348 94.0894 52.6855 93.6394 53.8855C93.1894 55.0855 91.9894 54.523 91.0519 54.148L86.2519 52.498C84.7556 51.8459 83.1262 51.5569 81.4969 51.6547C79.8676 51.7525 78.2845 52.2342 76.8769 53.0605C74.9572 54.29 72.7253 54.9434 70.4456 54.9434C68.166 54.9434 65.9341 54.29 64.0144 53.0605C62.6026 52.1423 60.9547 51.6535 59.2706 51.6535C57.5865 51.6535 55.9386 52.1423 54.5269 53.0605C52.6105 54.2989 50.3773 54.9576 48.0956 54.9576C45.814 54.9576 43.5808 54.2989 41.6644 53.0605C40.2493 52.1512 38.6027 51.6678 36.9206 51.6678C35.2386 51.6678 33.592 52.1512 32.1769 53.0605C30.2882 54.2616 28.0964 54.8995 25.8581 54.8995C23.6199 54.8995 21.428 54.2616 19.5394 53.0605C18.0705 52.1663 16.384 51.6934 14.6644 51.6934C12.9447 51.6934 11.2582 52.1663 9.78938 53.0605C7.99674 54.2291 5.92652 54.902 3.78938 55.0105C2.96438 55.0105 2.06438 55.0105 2.02688 53.848C1.98938 52.6855 2.66438 52.498 3.52688 52.498C5.54551 52.2103 7.49925 51.576 9.30188 50.623C10.9501 49.7504 12.7655 49.239 14.6269 49.123Z" fill="white" stroke="white" stroke-width="2.5" stroke-miterlimit="10"/>
<path d="M13.2768 17.2109H10.2393V79.5359H13.2768V17.2109Z" fill="white" stroke="white" stroke-width="0.9375" stroke-miterlimit="10"/>
<path d="M15 81H8V102H15V81Z" stroke="white" stroke-width="1.94" stroke-miterlimit="10"/>
</g>
<defs>
<clipPath id="clip0_490_1549">
<rect width="120" height="120" fill="white"/>
</clipPath>
</defs>
</svg>
