<svg width="120" height="120" viewBox="0 0 120 120" fill="none" xmlns="http://www.w3.org/2000/svg">
<g clip-path="url(#clip0_490_1500)">
<path opacity="0.927" fill-rule="evenodd" clip-rule="evenodd" d="M54.4922 -0.117188C58.0859 -0.117188 61.6798 -0.117188 65.2734 -0.117188C88.9151 2.8938 105.673 15.2376 115.547 36.9141C117.773 42.6138 119.218 48.4732 119.883 54.4922C119.883 58.0859 119.883 61.6798 119.883 65.2734C117.428 86.1171 107.194 101.859 89.1797 112.5C81.6717 116.553 73.703 119.014 65.2734 119.883C61.6798 119.883 58.0859 119.883 54.4922 119.883C33.7155 117.33 17.9735 107.096 7.26562 89.1797C3.21272 81.6715 0.751779 73.7027 -0.117188 65.2734C-0.117188 61.6798 -0.117188 58.0859 -0.117188 54.4922C2.33738 33.6488 12.5718 17.9065 30.5859 7.26562C38.0941 3.21272 46.0629 0.751779 54.4922 -0.117188ZM59.6484 3.39844C82.9887 4.37848 100.059 15.1597 110.859 35.7422C116.384 47.8859 117.634 60.4638 114.609 73.4766C109.372 92.3077 97.6927 105.394 79.5703 112.734C60.5611 119.137 42.8269 116.637 26.3672 105.234C7.41537 89.9466 0.345049 70.2982 5.15625 46.2891C10.3933 27.458 22.073 14.372 40.1953 7.03125C46.5246 4.80401 53.0091 3.59306 59.6484 3.39844ZM40.8984 85.6641C53.5547 85.6641 66.2109 85.6641 78.8672 85.6641C78.9176 87.9459 77.8238 89.3133 75.5859 89.7656C65.1171 89.922 54.6485 89.922 44.1797 89.7656C41.9419 89.3133 40.848 87.9459 40.8984 85.6641Z" fill="white"/>
<path opacity="0.935" fill-rule="evenodd" clip-rule="evenodd" d="M56.3666 10.1955C68.758 9.56104 79.93 12.8814 89.8822 20.1564C91.2287 21.0644 91.5023 22.1973 90.7026 23.5548C85.8979 28.3595 81.0932 33.1642 76.2885 37.9689C77.9774 39.7354 79.5791 41.5715 81.0932 43.4767C86.0542 38.5157 91.015 33.5549 95.976 28.5939C96.8354 28.1252 97.6947 28.1252 98.5541 28.5939C108.975 42.1841 111.983 57.3013 107.578 73.9455C102.975 88.5482 93.7173 99.0559 79.8041 105.469C65.2963 111.332 50.9994 110.863 36.9135 104.063C34.131 102.529 31.4748 100.81 28.9447 98.9064C28.1706 98.017 28.0534 97.0403 28.5932 95.9767C31.4057 93.1642 34.2182 90.3517 37.0307 87.5392C37.187 84.1016 37.187 80.6643 37.0307 77.2267C32.5384 81.719 28.0464 86.211 23.5541 90.7033C22.8187 91.341 22.0375 91.4191 21.2104 90.9377C14.7016 83.0298 11.0688 73.9281 10.3119 63.633C9.62336 43.0921 17.9437 27.4281 35.2729 16.6408C41.8794 12.9925 48.9107 10.844 56.3666 10.1955ZM56.601 13.9455C52.2112 14.3634 47.9144 15.3399 43.7104 16.8752C29.6598 22.6443 20.3239 32.7616 15.7026 47.2267C11.9359 61.3581 14.2015 74.4048 22.4994 86.3673C27.3433 81.5235 32.1869 76.6799 37.0307 71.8361C37.1087 63.7893 37.187 55.7423 37.2651 47.6955C37.5683 45.9252 38.1934 44.2846 39.1401 42.7736C40.7851 41.0116 42.3866 39.2146 43.9447 37.383C43.6159 36.8601 43.3424 36.3133 43.1244 35.7423C42.9681 33.4766 42.9681 31.2112 43.1244 28.9455C43.7744 27.4361 44.9071 26.5375 46.5229 26.2502C55.4291 26.0938 64.3354 26.0938 73.2416 26.2502C76.1296 27.059 77.3406 28.9731 76.8744 31.9923C80.0385 28.8283 83.2026 25.6642 86.3666 22.5002C77.4751 16.194 67.5533 13.3425 56.601 13.9455ZM96.9135 32.9298C92.117 37.8435 87.2732 42.7265 82.3822 47.5783C82.6546 55.413 82.6937 63.2645 82.4994 71.133C82.3904 71.4684 82.195 71.7416 81.9135 71.9533C80.6666 72.5866 79.69 72.313 78.9838 71.133C78.9383 63.1588 78.8212 55.1901 78.6322 47.2267C70.649 47.339 62.6802 47.2218 54.726 46.8752C53.4941 45.8106 53.4941 44.717 54.726 43.5939C61.8353 43.5159 68.9448 43.4376 76.0541 43.3595C74.6554 41.7262 73.1711 40.1636 71.601 38.672C63.7886 38.5157 55.9759 38.5157 48.1635 38.672C46.5934 40.1636 45.1091 41.7262 43.7104 43.3595C45.2729 43.4376 46.8353 43.5159 48.3979 43.5939C49.7833 45.1045 49.5489 46.2763 47.6947 47.1095C45.5087 47.2267 43.3211 47.2656 41.1322 47.2267C40.9023 58.8618 40.824 70.5025 40.8979 82.1486C53.5541 82.1486 66.2104 82.1486 78.8666 82.1486C78.7783 80.5649 78.8955 79.0023 79.2182 77.4611C80.2422 76.552 81.2577 76.552 82.2651 77.4611C82.6478 80.8766 82.7258 84.3142 82.4994 87.7736C81.7743 90.6081 80.0165 92.444 77.226 93.2814C66.1398 93.6651 55.0459 93.7431 43.9447 93.5158C41.9054 93.4101 40.2259 92.5898 38.9057 91.0548C36.9135 93.047 34.9213 95.0392 32.9291 97.0314C47.1749 106.769 62.3312 108.409 78.3979 101.953C92.2527 95.3634 101.042 84.6213 104.765 69.7267C107.488 56.2661 104.871 44.0003 96.9135 32.9298Z" fill="white"/>
<path opacity="0.931" fill-rule="evenodd" clip-rule="evenodd" d="M58.9453 49.8047C65.3775 49.83 68.2683 53.0332 67.6172 59.4141C68.0803 60.514 68.7443 60.592 69.6094 59.6484C69.8355 58.0627 70.1482 56.5001 70.5469 54.9609C71.5718 54.0274 72.5873 54.0274 73.5938 54.9609C73.9024 57.2585 73.668 59.5242 72.8906 61.7578C72.0626 62.8167 71.0079 63.559 69.7266 63.9844C69.9389 64.3826 70.017 64.8124 69.9609 65.2734C70.9305 65.1905 71.868 65.3077 72.7734 65.625C73.7702 66.7179 73.6922 67.7337 72.5391 68.6719C71.7727 68.9051 70.9915 69.1003 70.1953 69.2578C70.039 69.8046 69.8829 70.3516 69.7266 70.8984C71.1033 71.3782 72.158 72.2374 72.8906 73.4766C73.3141 74.7862 73.6657 76.1145 73.9453 77.4609C73.7325 78.9748 72.8733 79.5607 71.3672 79.2187C71.0318 79.1098 70.7585 78.9143 70.5469 78.6328C70.162 77.283 69.6544 75.994 69.0234 74.7656C68.6327 74.6093 68.2423 74.6093 67.8516 74.7656C64.4445 78.7127 60.382 79.572 55.6641 77.3437C54.3769 76.4714 53.205 75.4948 52.1484 74.4141C51.4861 74.49 50.9002 74.7244 50.3906 75.1172C50.0419 76.122 49.7292 77.1375 49.4531 78.1641C48.5409 79.5138 47.4471 79.6702 46.1719 78.6328C45.9555 78.2733 45.8384 77.8826 45.8203 77.4609C46.0999 76.1145 46.4515 74.7862 46.875 73.4766C47.7802 71.9086 49.1475 71.01 50.9766 70.7812C50.7295 70.223 50.5732 69.637 50.5078 69.0234C49.567 69.0623 48.6295 69.0232 47.6953 68.9062C46.1597 68.0773 45.9253 66.9834 46.9922 65.625C48.1373 65.3381 49.3092 65.1818 50.5078 65.1562C50.8202 64.7655 50.8202 64.3751 50.5078 63.9844C49.0013 63.6823 47.7902 62.94 46.875 61.7578C46.2314 59.6932 45.9188 57.5838 45.9375 55.4297C46.777 54.1758 47.8317 53.9803 49.1016 54.8437C49.6036 56.3981 49.9552 57.9998 50.1562 59.6484C50.7886 60.0947 51.4917 60.4071 52.2656 60.5859C52.6261 60.3035 52.8996 59.952 53.0859 59.5312C52.2035 54.533 54.1568 51.2906 58.9453 49.8047ZM59.4141 53.5547C57.7547 54.1575 56.8563 55.3294 56.7188 57.0703C59.1359 55.8497 61.5577 55.8497 63.9844 57.0703C63.5747 54.5334 62.0513 53.3616 59.4141 53.5547ZM59.6484 59.8828C58.863 60.157 58.0816 60.5086 57.3047 60.9375C54.4652 63.4416 53.5669 66.5276 54.6094 70.1953C55.5565 72.9527 57.4706 74.5151 60.3516 74.8828C64.3519 74.0055 66.3832 71.5055 66.4453 67.3828C66.292 62.9339 64.0263 60.4338 59.6484 59.8828Z" fill="white"/>
</g>
<defs>
<clipPath id="clip0_490_1500">
<rect width="120" height="120" fill="white"/>
</clipPath>
</defs>
</svg>
