<svg width="120" height="120" viewBox="0 0 120 120" fill="none" xmlns="http://www.w3.org/2000/svg">
<g clip-path="url(#clip0_490_1554)">
<path d="M78.7501 24.2969H75.0001C74.7136 24.3361 74.4221 24.3136 74.1451 24.2307C73.868 24.1479 73.6119 24.0067 73.3941 23.8166C73.1762 23.6266 73.0015 23.392 72.8818 23.1288C72.7621 22.8656 72.7002 22.5798 72.7002 22.2906C72.7002 22.0015 72.7621 21.7157 72.8818 21.4525C73.0015 21.1892 73.1762 20.9547 73.3941 20.7646C73.6119 20.5745 73.868 20.4333 74.1451 20.3505C74.4221 20.2677 74.7136 20.2451 75.0001 20.2844H78.7501C79.0366 20.2451 79.3282 20.2677 79.6052 20.3505C79.8822 20.4333 80.1383 20.5745 80.3562 20.7646C80.5741 20.9547 80.7488 21.1892 80.8684 21.4525C80.9881 21.7157 81.05 22.0015 81.05 22.2906C81.05 22.5798 80.9881 22.8656 80.8684 23.1288C80.7488 23.392 80.5741 23.6266 80.3562 23.8166C80.1383 24.0067 79.8822 24.1479 79.6052 24.2307C79.3282 24.3136 79.0366 24.3361 78.7501 24.2969ZM78.7501 31.7969H75.0001C74.7136 31.8361 74.4221 31.8136 74.1451 31.7307C73.868 31.6479 73.6119 31.5067 73.3941 31.3166C73.1762 31.1266 73.0015 30.892 72.8818 30.6288C72.7621 30.3656 72.7002 30.0798 72.7002 29.7906C72.7002 29.5015 72.7621 29.2157 72.8818 28.9525C73.0015 28.6892 73.1762 28.4547 73.3941 28.2646C73.6119 28.0745 73.868 27.9333 74.1451 27.8505C74.4221 27.7677 74.7136 27.7451 75.0001 27.7844H78.7501C79.0366 27.7451 79.3282 27.7677 79.6052 27.8505C79.8822 27.9333 80.1383 28.0745 80.3562 28.2646C80.5741 28.4547 80.7488 28.6892 80.8684 28.9525C80.9881 29.2157 81.05 29.5015 81.05 29.7906C81.05 30.0798 80.9881 30.3656 80.8684 30.6288C80.7488 30.892 80.5741 31.1266 80.3562 31.3166C80.1383 31.5067 79.8822 31.6479 79.6052 31.7307C79.3282 31.8136 79.0366 31.8361 78.7501 31.7969ZM78.7501 39.2969H75.0001C74.5261 39.2645 74.0785 39.0665 73.7357 38.7374C73.393 38.4083 73.1768 37.9692 73.1251 37.4969C73.0994 37.2278 73.1279 36.9563 73.2088 36.6984C73.2897 36.4406 73.4214 36.2015 73.5961 35.9953C73.7708 35.7891 73.9851 35.6199 74.2262 35.4979C74.4674 35.3758 74.7305 35.3032 75.0001 35.2844H78.7501C79.2872 35.2844 79.8023 35.4977 80.182 35.8775C80.5618 36.2572 80.7751 36.7723 80.7751 37.3094C80.7653 37.8399 80.5476 38.3454 80.1689 38.7171C79.7902 39.0888 79.2808 39.297 78.7501 39.2969Z" fill="white"/>
<path d="M69.5981 60.5208V17.0208C69.6797 15.7222 69.4943 14.4207 69.0535 13.1964C68.6127 11.9722 67.9257 10.8513 67.035 9.90286C66.1442 8.95439 65.0686 8.19848 63.8745 7.68175C62.6803 7.16502 61.393 6.89844 60.0918 6.89844C58.7906 6.89844 57.5033 7.16502 56.3091 7.68175C55.115 8.19848 54.0394 8.95439 53.1486 9.90286C52.2579 10.8513 51.5709 11.9722 51.1301 13.1964C50.6893 14.4207 50.504 15.7222 50.5856 17.0208V60.5208C46.7061 62.6337 43.6412 65.9788 41.8748 70.0278C40.1084 74.0768 39.7414 78.5989 40.8315 82.8798C41.9217 87.1606 44.407 90.9563 47.8948 93.6673C51.3827 96.3782 55.6743 97.8499 60.0918 97.8499C64.5093 97.8499 68.8009 96.3782 72.2888 93.6673C75.7766 90.9563 78.2619 87.1606 79.3521 82.8798C80.4423 78.5989 80.0752 74.0768 78.3088 70.0278C76.5424 65.9788 73.4775 62.6337 69.5981 60.5208ZM59.9981 93.7458C56.7129 93.7434 53.5112 92.7114 50.843 90.7949C48.1749 88.8784 46.1745 86.1738 45.1233 83.0614C44.072 79.949 44.0227 76.5854 44.9824 73.4436C45.942 70.3017 47.8622 67.5397 50.4731 65.5458C51.7438 64.5879 53.1457 63.8175 54.6356 63.2583V17.0208C54.5736 16.2814 54.6657 15.5372 54.9061 14.8353C55.1465 14.1333 55.53 13.4889 56.0322 12.9428C56.5345 12.3966 57.1446 11.9607 57.824 11.6624C58.5034 11.3642 59.2373 11.2103 59.9793 11.2103C60.7213 11.2103 61.4552 11.3642 62.1346 11.6624C62.814 11.9607 63.4241 12.3966 63.9264 12.9428C64.4287 13.4889 64.8121 14.1333 65.0525 14.8353C65.2929 15.5372 65.385 16.2814 65.3231 17.0208V63.1833C66.8168 63.7341 68.2198 64.5051 69.4856 65.4708C72.1248 67.4535 74.0726 70.217 75.0525 73.3692C76.0323 76.5214 75.9945 79.9022 74.9444 83.0317C73.8944 86.1613 71.8853 88.8806 69.2024 90.8038C66.5195 92.727 63.299 93.7563 59.9981 93.7458Z" fill="white" stroke="white"/>
<path d="M70.6138 78.4849C70.1583 78.3975 69.6865 78.4787 69.2864 78.7132C68.8863 78.9478 68.5851 79.3197 68.4388 79.7599C68.1747 81.3425 67.4649 82.8171 66.3925 84.0107C65.3202 85.2042 63.9297 86.0673 62.3842 86.4986C60.8387 86.9298 59.2023 86.9115 57.6668 86.4457C56.1314 85.9799 54.7606 85.0859 53.7152 83.8687C52.6698 82.6514 51.9932 81.1613 51.7647 79.5731C51.5363 77.9849 51.7654 76.3644 52.4252 74.9018C53.085 73.4392 54.1482 72.1951 55.4901 71.3154C56.832 70.4356 58.3969 69.9567 60.0013 69.9348C60.6716 69.9458 61.3385 70.0339 61.9888 70.1973V21.8598C61.9017 21.4267 61.6674 21.0371 61.3256 20.7571C60.9837 20.4772 60.5556 20.3242 60.1138 20.3242C59.672 20.3242 59.2438 20.4772 58.902 20.7571C58.5602 21.0371 58.3258 21.4267 58.2388 21.8598V66.3724H57.9388C55.5307 66.7978 53.3102 67.9488 51.5743 69.6712C49.8386 71.3936 48.6704 73.6052 48.2263 76.0099C47.6099 79.1825 48.279 82.47 50.0864 85.1493C51.8937 87.8287 54.6913 89.6804 57.8638 90.2973C58.6171 90.4465 59.3833 90.5219 60.1513 90.5224C62.9799 90.5221 65.7204 89.5379 67.9029 87.7385C70.0855 85.9391 71.5741 83.4366 72.1138 80.6599C72.2013 80.1628 72.0887 79.6513 71.8007 79.2369C71.5127 78.8225 71.0726 78.5387 70.5763 78.4474L70.6138 78.4849ZM104.364 104.997C100.119 105.096 95.962 103.776 92.5513 101.247C89.6531 99.1038 86.1435 97.9469 82.5388 97.9469C78.934 97.9469 75.4244 99.1038 72.5263 101.247C69.0856 103.793 64.9187 105.167 60.6388 105.167C56.3588 105.167 52.1919 103.793 48.7513 101.247C45.8778 99.0566 42.3517 97.8945 38.7388 97.9473C35.1619 97.9052 31.6749 99.0675 28.8388 101.247C25.4112 103.772 21.2445 105.09 16.9888 104.997C16.5556 104.91 16.166 104.676 15.886 104.334C15.6061 103.992 15.4531 103.564 15.4531 103.122C15.4531 102.681 15.6061 102.252 15.886 101.911C16.166 101.569 16.5556 101.334 16.9888 101.247C20.6112 101.323 24.1484 100.144 27.0013 97.9099C30.4288 95.3857 34.5955 94.0671 38.8513 94.1599C43.0946 94.0726 47.2477 95.391 50.6638 97.9099C53.5166 100.144 57.0538 101.323 60.6763 101.247C64.2964 101.307 67.8286 100.13 70.6888 97.9099C74.1156 95.3993 78.2532 94.0458 82.5013 94.0458C86.7493 94.0458 90.8869 95.3993 94.3138 97.9099C97.1666 100.144 100.704 101.323 104.326 101.247C104.759 101.334 105.149 101.569 105.429 101.911C105.709 102.252 105.862 102.681 105.862 103.122C105.862 103.564 105.709 103.992 105.429 104.334C105.149 104.676 104.759 104.91 104.326 104.997H104.364ZM105.414 89.2848C101.794 89.3448 98.2614 88.1674 95.4013 85.9473C91.9905 83.4183 87.8338 82.0987 83.5888 82.1973C82.3305 82.1806 81.0738 82.2937 79.8388 82.5349C79.5124 83.9884 79.0478 85.4073 78.4513 86.7724C80.0901 86.2672 81.7991 86.0266 83.5138 86.0599C87.192 85.9081 90.8093 87.0344 93.7513 89.2474C97.1499 91.8001 101.315 93.1224 105.564 92.9974C105.997 92.9103 106.387 92.676 106.666 92.3342C106.946 91.9923 107.099 91.5642 107.099 91.1224C107.099 90.6805 106.946 90.2524 106.666 89.9106C106.387 89.5687 105.997 89.3344 105.564 89.2474L105.414 89.2848ZM39.9013 82.2349C39.1138 82.2349 38.2513 82.2349 37.3138 82.2349C33.0704 82.1476 28.9173 83.466 25.5013 85.9849C22.6484 88.2185 19.1112 89.3976 15.4888 89.3224C15.0556 89.4094 14.666 89.6438 14.386 89.9856C14.1061 90.3274 13.9531 90.7555 13.9531 91.1974C13.9531 91.6392 14.1061 92.0673 14.386 92.4091C14.666 92.7509 15.0556 92.9853 15.4888 93.0724C19.7338 93.171 23.8905 91.8514 27.3013 89.3224C30.2126 87.059 33.8145 85.8672 37.5013 85.9473C38.7605 85.9493 40.0165 86.0749 41.2513 86.3224C40.7032 85.0013 40.2765 83.6332 39.9763 82.2349H39.9013Z" fill="white" stroke="white"/>
</g>
<defs>
<clipPath id="clip0_490_1554">
<rect width="120" height="120" fill="white"/>
</clipPath>
</defs>
</svg>
