<svg width="120" height="120" viewBox="0 0 120 120" fill="none" xmlns="http://www.w3.org/2000/svg">
<g clip-path="url(#clip0_490_1568)">
<path fill-rule="evenodd" clip-rule="evenodd" d="M119.884 55.4297C119.884 58.3985 119.884 61.3671 119.884 64.336C118.024 79.2722 110.836 90.8738 98.3214 99.1406C96.1066 100.855 93.7628 101.089 91.2902 99.8438C89.2113 97.8764 88.8986 95.6499 90.3527 93.1641C92.8073 91.4515 95.2293 89.6937 97.6183 87.8906C109.615 76.5846 113.17 63.03 108.282 47.2266C105.101 38.7942 99.5934 32.3489 91.7589 27.8906C89.3066 25.864 88.8768 23.4811 90.4699 20.7422C92.1009 19.1151 94.015 18.6854 96.212 19.4531C109.966 27.5508 117.857 39.5431 119.884 55.4297Z" fill="white"/>
<path fill-rule="evenodd" clip-rule="evenodd" d="M-0.117188 61.2903C-0.117188 60.3528 -0.117188 59.4153 -0.117188 58.4778C0.96997 56.1331 2.84496 54.9612 5.50781 54.9622C8.31738 45.3647 11.0908 35.7554 13.8281 26.134C15.5794 22.7951 18.1185 22.0529 21.4453 23.9075C22.2499 24.635 22.7577 25.5333 22.9688 26.6028C24.769 38.4197 26.644 50.2168 28.5938 61.9934C31.3765 49.8772 34.189 37.7679 37.0312 25.6653C38.7945 22.8649 41.1773 22.2008 44.1797 23.6731C45.0244 24.3078 45.6103 25.1281 45.9375 26.134C48.6748 35.7554 51.4481 45.3647 54.2578 54.9622C58.0859 55.2746 61.9141 55.2746 65.7422 54.9622C68.2748 51.3697 71.7124 50.0026 76.0547 50.8606C80.3897 52.2987 82.7334 55.3065 83.0859 59.884C82.4152 66.0631 78.9776 69.1491 72.7734 69.1418C69.7148 68.825 67.3711 67.3796 65.7422 64.8059C60.2752 64.6107 54.8063 64.4935 49.3359 64.4543C48.2395 64.0615 47.3412 63.3975 46.6406 62.4622C44.9695 57.2626 43.407 52.0283 41.9531 46.759C38.6123 60.8068 35.3311 74.8693 32.1094 88.9465C31.3416 91.0803 29.8181 92.1741 27.5391 92.2278C25.0636 92.1347 23.5402 90.8848 22.9688 88.4778C20.9877 75.6542 18.9565 62.8418 16.875 50.0403C15.7448 53.8578 14.6511 57.6861 13.5938 61.5247C12.868 63.1104 11.6571 64.0868 9.96094 64.4543C7.77345 64.6107 5.58593 64.6107 3.39844 64.4543C1.73031 63.9176 0.558438 62.8629 -0.117188 61.2903Z" fill="white"/>
<path fill-rule="evenodd" clip-rule="evenodd" d="M84.2578 35.0391C85.3076 35.0475 86.3231 35.2427 87.3047 35.625C96.4261 41.0876 101.192 49.1735 101.602 59.8828C101.193 70.8258 96.2707 78.9898 86.8359 84.375C83.3541 85.0943 81.1664 83.7272 80.2734 80.2734C80.3583 79.0952 80.7098 78.0014 81.3281 76.9922C82.9088 75.7528 84.5102 74.5418 86.1328 73.3594C92.7391 66.4395 93.7938 58.7442 89.2969 50.2734C88.2525 48.8379 87.1198 47.4708 85.8984 46.1719C84.3122 45.1247 82.7887 43.992 81.3281 42.7734C79.5134 39.1141 80.49 36.536 84.2578 35.0391Z" fill="white"/>
</g>
<defs>
<clipPath id="clip0_490_1568">
<rect width="120" height="120" fill="white"/>
</clipPath>
</defs>
</svg>
