<svg width="120" height="120" viewBox="0 0 120 120" fill="none" xmlns="http://www.w3.org/2000/svg">
<path opacity="0.937" fill-rule="evenodd" clip-rule="evenodd" d="M38.4791 14.3851C38.7526 15.0895 39.1425 15.7133 39.6487 16.2564C40.3816 17.9093 40.9273 19.6248 41.2861 21.4026C43.1591 21.4415 45.0305 21.4025 46.9002 21.2856C46.5884 16.6853 46.5884 12.0849 46.9002 7.48448C52.5916 7.36752 58.2836 7.32855 63.9762 7.36752C63.9762 12.0459 63.9762 16.7242 63.9762 21.4026C65.8475 21.4026 67.7189 21.4026 69.5902 21.4026C69.6934 20.2736 69.9661 19.182 70.409 18.1278C70.9046 17.2149 71.3334 16.2793 71.6955 15.3207C72.1743 14.8413 72.5643 14.2955 72.8651 13.6833C74.2829 12.2644 75.7643 10.9388 77.3095 9.7067C85.438 5.64357 92.7675 6.73519 99.2978 12.9816C103.408 18.1541 104.461 23.924 102.456 30.2915C101.519 32.6365 100.233 34.7418 98.5961 36.6073C97.3465 37.5437 96.099 38.4793 94.8534 39.4143C88.5121 42.4695 82.3523 42.1577 76.3739 38.4786C76.1956 38.0665 75.8836 37.8325 75.4382 37.7769C74.1748 36.5149 73.0052 35.1893 71.9294 33.8003C70.6934 31.8723 69.9137 29.7671 69.5902 27.4845C67.7189 27.4845 65.8475 27.4845 63.9762 27.4845C63.9371 34.7364 63.9762 41.9879 64.0932 49.2389C67.7442 55.6856 71.4478 62.0793 75.2043 68.4202C75.2043 80.0382 75.2043 91.6559 75.2043 103.274C61.9488 103.274 48.6936 103.274 35.4382 103.274C35.3991 91.7338 35.4382 80.1937 35.5551 68.6541C35.954 68.1682 36.227 67.6225 36.3739 67.0166C36.8623 66.5872 37.1741 66.0414 37.3095 65.3792C37.798 64.9497 38.1098 64.404 38.2452 63.7418C38.7336 63.3123 39.0454 62.7666 39.1809 62.1044C39.9222 61.0908 40.546 59.9991 41.0522 58.8295C43.0249 55.5497 44.9741 52.2358 46.9002 48.888C46.5884 41.7925 46.5884 34.6969 46.9002 27.6014C45.0239 27.4068 43.1526 27.4459 41.2861 27.7184C40.7467 29.9624 39.889 32.0676 38.713 34.0342C32.1842 41.972 24.3091 43.6094 15.0873 38.9465C13.138 37.4651 11.4226 35.7495 9.94111 33.8003C7.02638 28.6342 6.59751 23.254 8.65456 17.6599C9.41969 16.2052 10.2384 14.8016 11.1107 13.4494C11.9684 12.7476 12.7481 11.9679 13.4499 11.1102C18.8998 7.07208 24.8258 6.25337 31.2277 8.65407C34.0307 10.0943 36.4478 12.0046 38.4791 14.3851ZM33.5668 30.5254C32.943 31.9289 31.9294 32.9425 30.5259 33.5663C29.3755 34.4852 28.0501 35.07 26.5493 35.3207C21.8615 35.9947 18.0798 34.4742 15.2043 30.7593C14.8642 30.1579 14.5913 29.5341 14.3856 28.888C12.4084 23.9663 13.344 19.6389 17.1926 15.9055C22.6468 12.1283 27.8319 12.4792 32.7481 16.9582C35.2606 20.0701 36.0405 23.579 35.0873 27.4845C34.8199 28.6431 34.313 29.6566 33.5668 30.5254ZM52.7481 13.2155C54.5432 13.1765 56.3367 13.2155 58.1283 13.3324C57.8967 20.8262 57.8188 28.2725 57.8943 35.6716C56.2108 35.3628 54.5346 35.3628 52.8651 35.6716C52.7481 28.1867 52.7091 20.7013 52.7481 13.2155ZM92.5142 15.3207C95.7893 17.4235 97.4267 20.4645 97.4265 24.4435C97.438 28.3984 95.8005 31.4393 92.5142 33.5663C89.9912 35.3263 87.1842 35.9111 84.0932 35.3207C82.4015 34.9427 80.9201 34.2019 79.6487 33.0985C78.466 32.4616 77.6082 31.5259 77.0756 30.2915C74.6251 26.3783 74.586 22.4017 76.9587 18.3617C80.4337 13.8246 84.9173 12.3821 90.409 14.0342C91.2038 14.3516 91.9056 14.7805 92.5142 15.3207ZM52.7481 41.5196C54.5432 41.4807 56.3367 41.5196 58.1283 41.6365C57.8164 43.3518 57.8164 45.0674 58.1283 46.7827C56.3736 46.5998 54.6192 46.6389 52.8651 46.8997C52.7481 45.1081 52.7093 43.3147 52.7481 41.5196ZM60.7013 55.5546C61.8136 57.0761 62.7493 58.7135 63.5084 60.4669C63.9968 60.8964 64.3086 61.4421 64.444 62.1044C65.1853 63.1179 65.8092 64.2096 66.3154 65.3792C66.5729 65.6945 66.8068 66.0454 67.0171 66.4318C59.2199 66.5879 51.4225 66.5879 43.6253 66.4318C46.2452 61.9785 48.8183 57.4952 51.3446 52.9816C53.9923 52.7088 56.6433 52.67 59.2978 52.8646C59.8015 53.7554 60.2693 54.6522 60.7013 55.5546ZM41.5201 72.3968C50.7823 72.5902 60.0609 72.7072 69.3563 72.7476C69.0445 77.1921 69.0445 81.6365 69.3563 86.081C60.078 86.1979 50.7991 86.237 41.5201 86.1979C41.5201 81.5975 41.5201 76.9972 41.5201 72.3968ZM41.5201 92.2798C50.7991 92.2407 60.078 92.2798 69.3563 92.3968C69.0445 94.0342 69.0445 95.6716 69.3563 97.309C60.078 97.426 50.7991 97.4651 41.5201 97.426C41.5201 95.7107 41.5201 93.9951 41.5201 92.2798Z" fill="white"/>
<path opacity="0.01" fill-rule="evenodd" clip-rule="evenodd" d="M16.7236 8.53711C17.0355 8.69306 17.0355 8.69306 16.7236 8.53711V8.53711Z" fill="white"/>
<path opacity="0.01" fill-rule="evenodd" clip-rule="evenodd" d="M31.9287 8.53711C32.2405 8.69306 32.2405 8.69306 31.9287 8.53711V8.53711Z" fill="white"/>
<path opacity="0.01" fill-rule="evenodd" clip-rule="evenodd" d="M78.7109 8.53711C79.0228 8.69306 79.0228 8.69306 78.7109 8.53711V8.53711Z" fill="white"/>
<path opacity="0.01" fill-rule="evenodd" clip-rule="evenodd" d="M15.083 9.47266C15.3949 9.62861 15.3949 9.62861 15.083 9.47266V9.47266Z" fill="white"/>
<path opacity="0.01" fill-rule="evenodd" clip-rule="evenodd" d="M33.5693 9.47266C33.8811 9.62861 33.8811 9.62861 33.5693 9.47266V9.47266Z" fill="white"/>
<path opacity="0.01" fill-rule="evenodd" clip-rule="evenodd" d="M77.3094 9.70657C77.1534 9.39469 77.1534 9.39469 77.3094 9.70657V9.70657Z" fill="white"/>
<path opacity="0.01" fill-rule="evenodd" clip-rule="evenodd" d="M95.5518 9.47266C95.8636 9.62861 95.8636 9.62861 95.5518 9.47266V9.47266Z" fill="white"/>
<path opacity="0.01" fill-rule="evenodd" clip-rule="evenodd" d="M76.6064 9.70703C76.9183 9.86298 76.9183 9.86298 76.6064 9.70703V9.70703Z" fill="white"/>
<path opacity="0.01" fill-rule="evenodd" clip-rule="evenodd" d="M96.4891 10.1753C96.3331 9.86344 96.3331 9.86344 96.4891 10.1753V10.1753Z" fill="white"/>
<path opacity="0.01" fill-rule="evenodd" clip-rule="evenodd" d="M75.9033 10.1758C76.2151 10.3317 76.2151 10.3317 75.9033 10.1758V10.1758Z" fill="white"/>
<path opacity="0.01" fill-rule="evenodd" clip-rule="evenodd" d="M96.4893 10.1758C96.8011 10.3317 96.8011 10.3317 96.4893 10.1758V10.1758Z" fill="white"/>
<path opacity="0.01" fill-rule="evenodd" clip-rule="evenodd" d="M13.6865 10.4102C13.9984 10.5661 13.9984 10.5661 13.6865 10.4102V10.4102Z" fill="white"/>
<path opacity="0.01" fill-rule="evenodd" clip-rule="evenodd" d="M35.2 10.6441C35.044 10.3322 35.044 10.3322 35.2 10.6441V10.6441Z" fill="white"/>
<path opacity="0.01" fill-rule="evenodd" clip-rule="evenodd" d="M75.9032 10.4102C75.7471 10.5661 75.7471 10.5661 75.9032 10.4102V10.4102Z" fill="white"/>
<path opacity="0.01" fill-rule="evenodd" clip-rule="evenodd" d="M97.1922 10.6441C97.0362 10.3322 97.0362 10.3322 97.1922 10.6441V10.6441Z" fill="white"/>
<path opacity="0.01" fill-rule="evenodd" clip-rule="evenodd" d="M13.6863 10.6445C13.5303 10.8005 13.5303 10.8005 13.6863 10.6445V10.6445Z" fill="white"/>
<path opacity="0.01" fill-rule="evenodd" clip-rule="evenodd" d="M35.2002 10.6445C35.3562 10.6445 35.4341 10.7225 35.4341 10.8784C35.3562 10.8005 35.2781 10.7225 35.2002 10.6445Z" fill="white"/>
<path opacity="0.01" fill-rule="evenodd" clip-rule="evenodd" d="M97.1924 10.6445C97.3484 10.6445 97.4263 10.7225 97.4263 10.8784C97.3484 10.8005 97.2703 10.7225 97.1924 10.6445Z" fill="white"/>
<path opacity="0.01" fill-rule="evenodd" clip-rule="evenodd" d="M13.4525 10.877C13.4525 10.9549 13.4525 11.0329 13.4525 11.1109C13.2958 10.9983 13.2958 10.9203 13.4525 10.877Z" fill="white"/>
<path opacity="0.01" fill-rule="evenodd" clip-rule="evenodd" d="M35.4346 10.877C35.7464 11.0329 35.7464 11.0329 35.4346 10.877V10.877Z" fill="white"/>
<path opacity="0.01" fill-rule="evenodd" clip-rule="evenodd" d="M97.4268 10.877C97.5828 10.877 97.6607 10.9549 97.6607 11.1109C97.5828 11.0329 97.5047 10.9549 97.4268 10.877Z" fill="white"/>
<path opacity="0.01" fill-rule="evenodd" clip-rule="evenodd" d="M97.6611 11.1113C97.9729 11.2673 97.9729 11.2673 97.6611 11.1113V11.1113Z" fill="white"/>
<path opacity="0.01" fill-rule="evenodd" clip-rule="evenodd" d="M12.5146 11.3457C12.8265 11.5017 12.8265 11.5017 12.5146 11.3457V11.3457Z" fill="white"/>
<path opacity="0.01" fill-rule="evenodd" clip-rule="evenodd" d="M36.3719 11.5796C36.2159 11.2677 36.2159 11.2677 36.3719 11.5796V11.5796Z" fill="white"/>
<path opacity="0.01" fill-rule="evenodd" clip-rule="evenodd" d="M74.5068 11.3457C74.8186 11.5017 74.8186 11.5017 74.5068 11.3457V11.3457Z" fill="white"/>
<path opacity="0.01" fill-rule="evenodd" clip-rule="evenodd" d="M12.5144 11.5801C12.3585 11.736 12.3585 11.736 12.5144 11.5801V11.5801Z" fill="white"/>
<path opacity="0.01" fill-rule="evenodd" clip-rule="evenodd" d="M36.3721 11.5801C36.6839 11.736 36.6839 11.736 36.3721 11.5801V11.5801Z" fill="white"/>
<path opacity="0.01" fill-rule="evenodd" clip-rule="evenodd" d="M74.5067 11.5801C74.3506 11.736 74.3506 11.736 74.5067 11.5801V11.5801Z" fill="white"/>
<path opacity="0.01" fill-rule="evenodd" clip-rule="evenodd" d="M12.2801 11.8145C12.1241 11.9704 12.1241 11.9704 12.2801 11.8145V11.8145Z" fill="white"/>
<path opacity="0.01" fill-rule="evenodd" clip-rule="evenodd" d="M74.2723 11.8145C74.1163 11.9704 74.1163 11.9704 74.2723 11.8145V11.8145Z" fill="white"/>
<path opacity="0.01" fill-rule="evenodd" clip-rule="evenodd" d="M11.582 12.2832C11.8939 12.4392 11.8939 12.4392 11.582 12.2832V12.2832Z" fill="white"/>
<path opacity="0.01" fill-rule="evenodd" clip-rule="evenodd" d="M37.3094 12.5171C37.1534 12.2052 37.1534 12.2052 37.3094 12.5171V12.5171Z" fill="white"/>
<path opacity="0.01" fill-rule="evenodd" clip-rule="evenodd" d="M73.5693 12.2832C73.8811 12.4392 73.8811 12.4392 73.5693 12.2832V12.2832Z" fill="white"/>
<path opacity="0.01" fill-rule="evenodd" clip-rule="evenodd" d="M11.5818 12.5117C11.4259 12.6677 11.4259 12.6677 11.5818 12.5117V12.5117Z" fill="white"/>
<path opacity="0.01" fill-rule="evenodd" clip-rule="evenodd" d="M37.3096 12.5117C37.6214 12.6677 37.6214 12.6677 37.3096 12.5117V12.5117Z" fill="white"/>
<path opacity="0.01" fill-rule="evenodd" clip-rule="evenodd" d="M73.5692 12.5117C73.4131 12.6677 73.4131 12.6677 73.5692 12.5117V12.5117Z" fill="white"/>
<path opacity="0.01" fill-rule="evenodd" clip-rule="evenodd" d="M73.3348 12.7461C73.1788 12.902 73.1788 12.902 73.3348 12.7461V12.7461Z" fill="white"/>
<path opacity="0.01" fill-rule="evenodd" clip-rule="evenodd" d="M99.5311 12.98C99.3751 12.6681 99.3751 12.6681 99.5311 12.98V12.98Z" fill="white"/>
<path opacity="0.01" fill-rule="evenodd" clip-rule="evenodd" d="M99.5312 12.9805C99.6873 12.9805 99.7652 13.0584 99.7652 13.2144C99.6873 13.1364 99.6091 13.0584 99.5312 12.9805Z" fill="white"/>
<path opacity="0.01" fill-rule="evenodd" clip-rule="evenodd" d="M11.1131 13.4488C10.9571 13.1369 10.9571 13.1369 11.1131 13.4488V13.4488Z" fill="white"/>
<path opacity="0.01" fill-rule="evenodd" clip-rule="evenodd" d="M38.0125 13.4488C37.8565 13.1369 37.8565 13.1369 38.0125 13.4488V13.4488Z" fill="white"/>
<path opacity="0.01" fill-rule="evenodd" clip-rule="evenodd" d="M99.7656 13.2148C99.9216 13.2148 99.9995 13.2928 99.9995 13.4488C99.9216 13.3708 99.8435 13.2928 99.7656 13.2148Z" fill="white"/>
<path opacity="0.01" fill-rule="evenodd" clip-rule="evenodd" d="M10.8787 13.4492C10.7227 13.6052 10.7227 13.6052 10.8787 13.4492V13.4492Z" fill="white"/>
<path opacity="0.01" fill-rule="evenodd" clip-rule="evenodd" d="M38.0127 13.4492C38.1687 13.4492 38.2466 13.5272 38.2466 13.6831C38.1687 13.6052 38.0906 13.5272 38.0127 13.4492Z" fill="white"/>
<path opacity="0.01" fill-rule="evenodd" clip-rule="evenodd" d="M72.866 13.6831C72.71 13.3712 72.71 13.3712 72.866 13.6831V13.6831Z" fill="white"/>
<path opacity="0.01" fill-rule="evenodd" clip-rule="evenodd" d="M100 13.4492C100.312 13.6052 100.312 13.6052 100 13.4492V13.4492Z" fill="white"/>
<path opacity="0.01" fill-rule="evenodd" clip-rule="evenodd" d="M10.6443 13.6836C10.4884 13.8395 10.4884 13.8395 10.6443 13.6836V13.6836Z" fill="white"/>
<path opacity="0.01" fill-rule="evenodd" clip-rule="evenodd" d="M38.2471 13.6836C38.5589 13.8395 38.5589 13.8395 38.2471 13.6836V13.6836Z" fill="white"/>
<path opacity="0.01" fill-rule="evenodd" clip-rule="evenodd" d="M72.6317 13.6836C72.4756 13.8395 72.4756 13.8395 72.6317 13.6836V13.6836Z" fill="white"/>
<path opacity="0.01" fill-rule="evenodd" clip-rule="evenodd" d="M72.3973 13.918C72.2413 14.0739 72.2413 14.0739 72.3973 13.918V13.918Z" fill="white"/>
<path opacity="0.01" fill-rule="evenodd" clip-rule="evenodd" d="M38.7108 14.3863C38.5547 14.0744 38.5547 14.0744 38.7108 14.3863V14.3863Z" fill="white"/>
<path opacity="0.01" fill-rule="evenodd" clip-rule="evenodd" d="M100.703 14.3863C100.547 14.0744 100.547 14.0744 100.703 14.3863V14.3863Z" fill="white"/>
<path opacity="0.01" fill-rule="evenodd" clip-rule="evenodd" d="M38.7109 14.3848C39.0228 14.5407 39.0228 14.5407 38.7109 14.3848V14.3848Z" fill="white"/>
<path opacity="0.01" fill-rule="evenodd" clip-rule="evenodd" d="M100.703 14.3848C101.015 14.5407 101.015 14.5407 100.703 14.3848V14.3848Z" fill="white"/>
<path opacity="0.01" fill-rule="evenodd" clip-rule="evenodd" d="M9.47266 15.0879C9.78454 15.2438 9.78454 15.2438 9.47266 15.0879V15.0879Z" fill="white"/>
<path opacity="0.01" fill-rule="evenodd" clip-rule="evenodd" d="M39.1797 15.0879C39.4915 15.2438 39.4915 15.2438 39.1797 15.0879V15.0879Z" fill="white"/>
<path opacity="0.01" fill-rule="evenodd" clip-rule="evenodd" d="M71.699 15.3218C71.543 15.0099 71.543 15.0099 71.699 15.3218V15.3218Z" fill="white"/>
<path opacity="0.01" fill-rule="evenodd" clip-rule="evenodd" d="M9.47243 15.3223C9.31648 15.4782 9.31648 15.4782 9.47243 15.3223V15.3223Z" fill="white"/>
<path opacity="0.01" fill-rule="evenodd" clip-rule="evenodd" d="M71.4647 15.3223C71.3087 15.4782 71.3087 15.4782 71.4647 15.3223V15.3223Z" fill="white"/>
<path opacity="0.01" fill-rule="evenodd" clip-rule="evenodd" d="M39.6484 16.0234C39.9603 16.1794 39.9603 16.1794 39.6484 16.0234V16.0234Z" fill="white"/>
<path opacity="0.01" fill-rule="evenodd" clip-rule="evenodd" d="M101.641 16.0234C101.952 16.1794 101.952 16.1794 101.641 16.0234V16.0234Z" fill="white"/>
<path opacity="0.01" fill-rule="evenodd" clip-rule="evenodd" d="M8.76953 16.2578C9.08141 16.4138 9.08141 16.4138 8.76953 16.2578V16.2578Z" fill="white"/>
<path opacity="0.01" fill-rule="evenodd" clip-rule="evenodd" d="M8.53516 16.7266C8.84704 16.8825 8.84704 16.8825 8.53516 16.7266V16.7266Z" fill="white"/>
<path opacity="0.01" fill-rule="evenodd" clip-rule="evenodd" d="M40.1172 16.7266C40.429 16.8825 40.429 16.8825 40.1172 16.7266V16.7266Z" fill="white"/>
<path opacity="0.01" fill-rule="evenodd" clip-rule="evenodd" d="M70.5273 16.7266C70.8392 16.8825 70.8392 16.8825 70.5273 16.7266V16.7266Z" fill="white"/>
<path opacity="0.01" fill-rule="evenodd" clip-rule="evenodd" d="M8.30566 17.1953C8.61755 17.3513 8.61755 17.3513 8.30566 17.1953V17.1953Z" fill="white"/>
<path opacity="0.01" fill-rule="evenodd" clip-rule="evenodd" d="M70.293 17.1953C70.6048 17.3513 70.6048 17.3513 70.293 17.1953V17.1953Z" fill="white"/>
<path opacity="0.01" fill-rule="evenodd" clip-rule="evenodd" d="M40.8203 18.5957C41.1321 18.7517 41.1321 18.7517 40.8203 18.5957V18.5957Z" fill="white"/>
<path opacity="0.01" fill-rule="evenodd" clip-rule="evenodd" d="M7.83691 30.0586C8.1488 30.2146 8.1488 30.2146 7.83691 30.0586V30.0586Z" fill="white"/>
<path opacity="0.01" fill-rule="evenodd" clip-rule="evenodd" d="M40.8203 30.0586C41.1321 30.2146 41.1321 30.2146 40.8203 30.0586V30.0586Z" fill="white"/>
<path opacity="0.01" fill-rule="evenodd" clip-rule="evenodd" d="M102.573 30.5273C102.885 30.6834 102.885 30.6834 102.573 30.5273V30.5273Z" fill="white"/>
<path opacity="0.01" fill-rule="evenodd" clip-rule="evenodd" d="M102.339 30.9941C102.651 31.1502 102.651 31.1502 102.339 30.9941V30.9941Z" fill="white"/>
<path opacity="0.01" fill-rule="evenodd" clip-rule="evenodd" d="M70.293 31.4629C70.6048 31.6189 70.6048 31.6189 70.293 31.4629V31.4629Z" fill="white"/>
<path opacity="0.01" fill-rule="evenodd" clip-rule="evenodd" d="M8.53516 31.9316C8.84704 32.0877 8.84704 32.0877 8.53516 31.9316V31.9316Z" fill="white"/>
<path opacity="0.01" fill-rule="evenodd" clip-rule="evenodd" d="M39.6484 32.6289C39.9603 32.7849 39.9603 32.7849 39.6484 32.6289V32.6289Z" fill="white"/>
<path opacity="0.01" fill-rule="evenodd" clip-rule="evenodd" d="M101.641 32.6289C101.952 32.7849 101.952 32.7849 101.641 32.6289V32.6289Z" fill="white"/>
<path opacity="0.01" fill-rule="evenodd" clip-rule="evenodd" d="M9.47243 33.5659C9.31648 33.2541 9.31648 33.2541 9.47243 33.5659V33.5659Z" fill="white"/>
<path opacity="0.01" fill-rule="evenodd" clip-rule="evenodd" d="M71.4647 33.5659C71.3087 33.2541 71.3087 33.2541 71.4647 33.5659V33.5659Z" fill="white"/>
<path opacity="0.01" fill-rule="evenodd" clip-rule="evenodd" d="M9.47266 33.5664C9.62861 33.5664 9.70657 33.6443 9.70657 33.8003C9.62861 33.7224 9.55062 33.6443 9.47266 33.5664Z" fill="white"/>
<path opacity="0.01" fill-rule="evenodd" clip-rule="evenodd" d="M71.4648 33.5664C71.6209 33.5664 71.6988 33.6443 71.6988 33.8003C71.6209 33.7224 71.5427 33.6443 71.4648 33.5664Z" fill="white"/>
<path opacity="0.01" fill-rule="evenodd" clip-rule="evenodd" d="M9.70703 33.8008C9.785 33.8008 9.86298 33.8008 9.94095 33.8008C9.8976 33.9575 9.81962 33.9575 9.70703 33.8008Z" fill="white"/>
<path opacity="0.01" fill-rule="evenodd" clip-rule="evenodd" d="M38.9453 33.8008C39.2571 33.9568 39.2571 33.9568 38.9453 33.8008V33.8008Z" fill="white"/>
<path opacity="0.01" fill-rule="evenodd" clip-rule="evenodd" d="M71.6943 33.8008C71.7722 33.8008 71.8504 33.8008 71.9283 33.8008C71.885 33.9575 71.8069 33.9575 71.6943 33.8008Z" fill="white"/>
<path opacity="0.01" fill-rule="evenodd" clip-rule="evenodd" d="M100.938 33.8008C101.249 33.9568 101.249 33.9568 100.938 33.8008V33.8008Z" fill="white"/>
<path opacity="0.01" fill-rule="evenodd" clip-rule="evenodd" d="M38.7109 34.0352C38.7888 34.0352 38.867 34.0352 38.9449 34.0352C38.9016 34.1919 38.8235 34.1919 38.7109 34.0352Z" fill="white"/>
<path opacity="0.01" fill-rule="evenodd" clip-rule="evenodd" d="M9.94141 34.2676C10.2533 34.4236 10.2533 34.4236 9.94141 34.2676V34.2676Z" fill="white"/>
<path opacity="0.01" fill-rule="evenodd" clip-rule="evenodd" d="M10.6443 35.2046C10.4884 34.8927 10.4884 34.8927 10.6443 35.2046V35.2046Z" fill="white"/>
<path opacity="0.01" fill-rule="evenodd" clip-rule="evenodd" d="M72.6317 35.2046C72.4756 34.8927 72.4756 34.8927 72.6317 35.2046V35.2046Z" fill="white"/>
<path opacity="0.01" fill-rule="evenodd" clip-rule="evenodd" d="M10.6445 35.2051C10.8005 35.2051 10.8784 35.283 10.8784 35.439C10.8005 35.3611 10.7225 35.283 10.6445 35.2051Z" fill="white"/>
<path opacity="0.01" fill-rule="evenodd" clip-rule="evenodd" d="M38.0127 35.2051C38.3245 35.3611 38.3245 35.3611 38.0127 35.2051V35.2051Z" fill="white"/>
<path opacity="0.01" fill-rule="evenodd" clip-rule="evenodd" d="M72.6318 35.2051C72.9436 35.3611 72.9436 35.3611 72.6318 35.2051V35.2051Z" fill="white"/>
<path opacity="0.01" fill-rule="evenodd" clip-rule="evenodd" d="M10.8789 35.4395C11.1908 35.5955 11.1908 35.5955 10.8789 35.4395V35.4395Z" fill="white"/>
<path opacity="0.01" fill-rule="evenodd" clip-rule="evenodd" d="M38.0125 35.4395C37.8565 35.5955 37.8565 35.5955 38.0125 35.4395V35.4395Z" fill="white"/>
<path opacity="0.01" fill-rule="evenodd" clip-rule="evenodd" d="M99.7656 35.4395C100.077 35.5955 100.077 35.5955 99.7656 35.4395V35.4395Z" fill="white"/>
<path opacity="0.01" fill-rule="evenodd" clip-rule="evenodd" d="M73.3348 36.1401C73.1788 35.8283 73.1788 35.8283 73.3348 36.1401V36.1401Z" fill="white"/>
<path opacity="0.01" fill-rule="evenodd" clip-rule="evenodd" d="M11.3477 36.1406C11.6595 36.2966 11.6595 36.2966 11.3477 36.1406V36.1406Z" fill="white"/>
<path opacity="0.01" fill-rule="evenodd" clip-rule="evenodd" d="M73.335 36.1406C73.491 36.1406 73.5689 36.2185 73.5689 36.3745C73.491 36.2966 73.4129 36.2185 73.335 36.1406Z" fill="white"/>
<path opacity="0.01" fill-rule="evenodd" clip-rule="evenodd" d="M73.5693 36.375C73.7254 36.375 73.8033 36.4529 73.8033 36.6089C73.7254 36.531 73.6472 36.4529 73.5693 36.375Z" fill="white"/>
<path opacity="0.01" fill-rule="evenodd" clip-rule="evenodd" d="M73.8037 36.6094C73.9597 36.6094 74.0376 36.6873 74.0376 36.8433C73.9597 36.7654 73.8816 36.6873 73.8037 36.6094Z" fill="white"/>
<path opacity="0.01" fill-rule="evenodd" clip-rule="evenodd" d="M98.5938 36.6094C98.9056 36.7654 98.9056 36.7654 98.5938 36.6094V36.6094Z" fill="white"/>
<path opacity="0.01" fill-rule="evenodd" clip-rule="evenodd" d="M12.2801 37.0776C12.1241 36.7658 12.1241 36.7658 12.2801 37.0776V37.0776Z" fill="white"/>
<path opacity="0.01" fill-rule="evenodd" clip-rule="evenodd" d="M74.0381 36.8438C74.1941 36.8438 74.272 36.9216 74.272 37.0777C74.1941 36.9998 74.116 36.9216 74.0381 36.8438Z" fill="white"/>
<path opacity="0.01" fill-rule="evenodd" clip-rule="evenodd" d="M12.2803 37.0781C12.5922 37.2341 12.5922 37.2341 12.2803 37.0781V37.0781Z" fill="white"/>
<path opacity="0.01" fill-rule="evenodd" clip-rule="evenodd" d="M74.2725 37.0781C74.5843 37.2341 74.5843 37.2341 74.2725 37.0781V37.0781Z" fill="white"/>
<path opacity="0.01" fill-rule="evenodd" clip-rule="evenodd" d="M97.8955 37.3125C98.2073 37.4685 98.2073 37.4685 97.8955 37.3125V37.3125Z" fill="white"/>
<path opacity="0.01" fill-rule="evenodd" clip-rule="evenodd" d="M13.4519 38.0093C13.296 37.6974 13.296 37.6974 13.4519 38.0093V38.0093Z" fill="white"/>
<path opacity="0.01" fill-rule="evenodd" clip-rule="evenodd" d="M35.4346 37.7754C35.7464 37.9314 35.7464 37.9314 35.4346 37.7754V37.7754Z" fill="white"/>
<path opacity="0.01" fill-rule="evenodd" clip-rule="evenodd" d="M75.4349 37.7754C75.4349 37.8533 75.4349 37.9314 75.4349 38.0093C75.2782 37.8968 75.2782 37.8187 75.4349 37.7754Z" fill="white"/>
<path opacity="0.01" fill-rule="evenodd" clip-rule="evenodd" d="M13.4521 38.0098C13.764 38.1658 13.764 38.1658 13.4521 38.0098V38.0098Z" fill="white"/>
<path opacity="0.01" fill-rule="evenodd" clip-rule="evenodd" d="M35.4344 38.0098C35.2784 38.1658 35.2784 38.1658 35.4344 38.0098V38.0098Z" fill="white"/>
<path opacity="0.01" fill-rule="evenodd" clip-rule="evenodd" d="M75.4346 38.0098C75.5906 38.0098 75.6685 38.0877 75.6685 38.2437C75.5906 38.1658 75.5125 38.0877 75.4346 38.0098Z" fill="white"/>
<path opacity="0.01" fill-rule="evenodd" clip-rule="evenodd" d="M75.6689 38.2441C75.9808 38.4002 75.9808 38.4002 75.6689 38.2441V38.2441Z" fill="white"/>
<path opacity="0.01" fill-rule="evenodd" clip-rule="evenodd" d="M14.3894 38.7124C14.2335 38.4006 14.2335 38.4006 14.3894 38.7124V38.7124Z" fill="white"/>
<path opacity="0.01" fill-rule="evenodd" clip-rule="evenodd" d="M76.3719 38.4785C76.2159 38.6345 76.2159 38.6345 76.3719 38.4785V38.4785Z" fill="white"/>
<path opacity="0.01" fill-rule="evenodd" clip-rule="evenodd" d="M14.3896 38.7129C14.7015 38.8689 14.7015 38.8689 14.3896 38.7129V38.7129Z" fill="white"/>
<path opacity="0.01" fill-rule="evenodd" clip-rule="evenodd" d="M34.2725 38.7129C34.5843 38.8689 34.5843 38.8689 34.2725 38.7129V38.7129Z" fill="white"/>
<path opacity="0.01" fill-rule="evenodd" clip-rule="evenodd" d="M15.0926 38.9473C14.9366 39.1033 14.9366 39.1033 15.0926 38.9473V38.9473Z" fill="white"/>
<path opacity="0.01" fill-rule="evenodd" clip-rule="evenodd" d="M33.8037 38.9473C34.1155 39.1033 34.1155 39.1033 33.8037 38.9473V38.9473Z" fill="white"/>
<path opacity="0.01" fill-rule="evenodd" clip-rule="evenodd" d="M76.6064 38.9473C76.9183 39.1033 76.9183 39.1033 76.6064 38.9473V38.9473Z" fill="white"/>
<path opacity="0.01" fill-rule="evenodd" clip-rule="evenodd" d="M95.7861 38.9473C96.0979 39.1033 96.0979 39.1033 95.7861 38.9473V38.9473Z" fill="white"/>
<path opacity="0.01" fill-rule="evenodd" clip-rule="evenodd" d="M94.8584 39.4141C95.1702 39.5701 95.1702 39.5701 94.8584 39.4141V39.4141Z" fill="white"/>
<path opacity="0.01" fill-rule="evenodd" clip-rule="evenodd" d="M32.1631 39.8828C32.4749 40.0388 32.4749 40.0388 32.1631 39.8828V39.8828Z" fill="white"/>
<path opacity="0.01" fill-rule="evenodd" clip-rule="evenodd" d="M94.1553 39.8828C94.4671 40.0388 94.4671 40.0388 94.1553 39.8828V39.8828Z" fill="white"/>
<path opacity="0.01" fill-rule="evenodd" clip-rule="evenodd" d="M18.5938 40.8203C18.9056 40.9763 18.9056 40.9763 18.5938 40.8203V40.8203Z" fill="white"/>
<path opacity="0.01" fill-rule="evenodd" clip-rule="evenodd" d="M64.4481 49.0053C64.292 48.6935 64.292 48.6935 64.4481 49.0053V49.0053Z" fill="white"/>
<path opacity="0.01" fill-rule="evenodd" clip-rule="evenodd" d="M46.1963 49.0059C46.5081 49.1619 46.5081 49.1619 46.1963 49.0059V49.0059Z" fill="white"/>
<path opacity="0.01" fill-rule="evenodd" clip-rule="evenodd" d="M64.4482 49.0059C64.7601 49.1619 64.7601 49.1619 64.4482 49.0059V49.0059Z" fill="white"/>
<path opacity="0.01" fill-rule="evenodd" clip-rule="evenodd" d="M45.7275 49.707C46.0394 49.8631 46.0394 49.8631 45.7275 49.707V49.707Z" fill="white"/>
<path opacity="0.01" fill-rule="evenodd" clip-rule="evenodd" d="M64.917 49.9414C65.2288 50.0974 65.2288 50.0974 64.917 49.9414V49.9414Z" fill="white"/>
<path opacity="0.01" fill-rule="evenodd" clip-rule="evenodd" d="M65.3758 50.644C65.2198 50.3322 65.2198 50.3322 65.3758 50.644V50.644Z" fill="white"/>
<path opacity="0.01" fill-rule="evenodd" clip-rule="evenodd" d="M45.2588 50.6445C45.5706 50.8006 45.5706 50.8006 45.2588 50.6445V50.6445Z" fill="white"/>
<path opacity="0.01" fill-rule="evenodd" clip-rule="evenodd" d="M65.376 50.6445C65.6878 50.8006 65.6878 50.8006 65.376 50.6445V50.6445Z" fill="white"/>
<path opacity="0.01" fill-rule="evenodd" clip-rule="evenodd" d="M65.8447 51.5801C66.1565 51.7361 66.1565 51.7361 65.8447 51.5801V51.5801Z" fill="white"/>
<path opacity="0.01" fill-rule="evenodd" clip-rule="evenodd" d="M66.0791 52.0488C66.3909 52.2049 66.3909 52.2049 66.0791 52.0488V52.0488Z" fill="white"/>
<path opacity="0.01" fill-rule="evenodd" clip-rule="evenodd" d="M44.3311 52.2832C44.6429 52.4392 44.6429 52.4392 44.3311 52.2832V52.2832Z" fill="white"/>
<path opacity="0.01" fill-rule="evenodd" clip-rule="evenodd" d="M43.8623 52.9805C44.1741 53.1365 44.1741 53.1365 43.8623 52.9805V52.9805Z" fill="white"/>
<path opacity="0.01" fill-rule="evenodd" clip-rule="evenodd" d="M67.2508 53.9175C67.0948 53.6056 67.0948 53.6056 67.2508 53.9175V53.9175Z" fill="white"/>
<path opacity="0.01" fill-rule="evenodd" clip-rule="evenodd" d="M43.3936 53.918C43.7054 54.074 43.7054 54.074 43.3936 53.918V53.918Z" fill="white"/>
<path opacity="0.01" fill-rule="evenodd" clip-rule="evenodd" d="M67.251 53.918C67.5628 54.074 67.5628 54.074 67.251 53.918V53.918Z" fill="white"/>
<path opacity="0.01" fill-rule="evenodd" clip-rule="evenodd" d="M42.9248 54.6191C43.2366 54.7752 43.2366 54.7752 42.9248 54.6191V54.6191Z" fill="white"/>
<path opacity="0.01" fill-rule="evenodd" clip-rule="evenodd" d="M68.1883 55.5561C68.0323 55.2443 68.0323 55.2443 68.1883 55.5561V55.5561Z" fill="white"/>
<path opacity="0.01" fill-rule="evenodd" clip-rule="evenodd" d="M42.4561 55.5566C42.7679 55.7127 42.7679 55.7127 42.4561 55.5566V55.5566Z" fill="white"/>
<path opacity="0.01" fill-rule="evenodd" clip-rule="evenodd" d="M68.1885 55.5566C68.5003 55.7127 68.5003 55.7127 68.1885 55.5566V55.5566Z" fill="white"/>
<path opacity="0.01" fill-rule="evenodd" clip-rule="evenodd" d="M68.6523 56.4922C68.9642 56.6482 68.9642 56.6482 68.6523 56.4922V56.4922Z" fill="white"/>
<path opacity="0.01" fill-rule="evenodd" clip-rule="evenodd" d="M69.1209 57.1948C68.9649 56.883 68.9649 56.883 69.1209 57.1948V57.1948Z" fill="white"/>
<path opacity="0.01" fill-rule="evenodd" clip-rule="evenodd" d="M41.5234 57.1953C41.8353 57.3513 41.8353 57.3513 41.5234 57.1953V57.1953Z" fill="white"/>
<path opacity="0.01" fill-rule="evenodd" clip-rule="evenodd" d="M69.1211 57.1953C69.4329 57.3513 69.4329 57.3513 69.1211 57.1953V57.1953Z" fill="white"/>
<path opacity="0.01" fill-rule="evenodd" clip-rule="evenodd" d="M69.5898 58.127C69.9017 58.283 69.9017 58.283 69.5898 58.127V58.127Z" fill="white"/>
<path opacity="0.01" fill-rule="evenodd" clip-rule="evenodd" d="M41.0545 58.8296C40.8985 58.5177 40.8985 58.5177 41.0545 58.8296V58.8296Z" fill="white"/>
<path opacity="0.01" fill-rule="evenodd" clip-rule="evenodd" d="M69.8242 58.5957C70.136 58.7517 70.136 58.7517 69.8242 58.5957V58.5957Z" fill="white"/>
<path opacity="0.01" fill-rule="evenodd" clip-rule="evenodd" d="M40.8201 58.8301C40.6641 58.9861 40.6641 58.9861 40.8201 58.8301V58.8301Z" fill="white"/>
<path opacity="0.01" fill-rule="evenodd" clip-rule="evenodd" d="M40.3516 59.2969C40.6634 59.4529 40.6634 59.4529 40.3516 59.2969V59.2969Z" fill="white"/>
<path opacity="0.01" fill-rule="evenodd" clip-rule="evenodd" d="M70.7617 60.2344C71.0735 60.3904 71.0735 60.3904 70.7617 60.2344V60.2344Z" fill="white"/>
<path opacity="0.01" fill-rule="evenodd" clip-rule="evenodd" d="M39.4141 60.9355C39.7259 61.0916 39.7259 61.0916 39.4141 60.9355V60.9355Z" fill="white"/>
<path opacity="0.01" fill-rule="evenodd" clip-rule="evenodd" d="M39.1795 62.1069C39.0235 61.7951 39.0235 61.7951 39.1795 62.1069V62.1069Z" fill="white"/>
<path opacity="0.01" fill-rule="evenodd" clip-rule="evenodd" d="M71.6943 61.873C72.0061 62.0291 72.0061 62.0291 71.6943 61.873V61.873Z" fill="white"/>
<path opacity="0.01" fill-rule="evenodd" clip-rule="evenodd" d="M38.9451 62.1074C38.7891 62.2634 38.7891 62.2634 38.9451 62.1074V62.1074Z" fill="white"/>
<path opacity="0.01" fill-rule="evenodd" clip-rule="evenodd" d="M38.4766 62.5703C38.7884 62.7263 38.7884 62.7263 38.4766 62.5703V62.5703Z" fill="white"/>
<path opacity="0.01" fill-rule="evenodd" clip-rule="evenodd" d="M38.2469 63.7417C38.0909 63.4299 38.0909 63.4299 38.2469 63.7417V63.7417Z" fill="white"/>
<path opacity="0.01" fill-rule="evenodd" clip-rule="evenodd" d="M72.6318 63.5078C72.9436 63.6638 72.9436 63.6638 72.6318 63.5078V63.5078Z" fill="white"/>
<path opacity="0.01" fill-rule="evenodd" clip-rule="evenodd" d="M38.0125 63.7422C37.8565 63.8982 37.8565 63.8982 38.0125 63.7422V63.7422Z" fill="white"/>
<path opacity="0.01" fill-rule="evenodd" clip-rule="evenodd" d="M37.5439 64.209C37.8558 64.365 37.8558 64.365 37.5439 64.209V64.209Z" fill="white"/>
<path opacity="0.01" fill-rule="evenodd" clip-rule="evenodd" d="M37.3094 65.3803C37.1534 65.0685 37.1534 65.0685 37.3094 65.3803V65.3803Z" fill="white"/>
<path opacity="0.01" fill-rule="evenodd" clip-rule="evenodd" d="M73.5693 65.1465C73.8811 65.3025 73.8811 65.3025 73.5693 65.1465V65.1465Z" fill="white"/>
<path opacity="0.01" fill-rule="evenodd" clip-rule="evenodd" d="M36.6064 65.8477C36.9183 66.0037 36.9183 66.0037 36.6064 65.8477V65.8477Z" fill="white"/>
<path opacity="0.01" fill-rule="evenodd" clip-rule="evenodd" d="M36.3719 67.019C36.2159 66.7072 36.2159 66.7072 36.3719 67.019V67.019Z" fill="white"/>
<path opacity="0.01" fill-rule="evenodd" clip-rule="evenodd" d="M74.5068 66.7852C74.8186 66.9412 74.8186 66.9412 74.5068 66.7852V66.7852Z" fill="white"/>
<path opacity="0.01" fill-rule="evenodd" clip-rule="evenodd" d="M35.6689 67.4883C35.9808 67.6443 35.9808 67.6443 35.6689 67.4883V67.4883Z" fill="white"/>
<path opacity="0.01" fill-rule="evenodd" clip-rule="evenodd" d="M75.2002 68.1855C75.512 68.3416 75.512 68.3416 75.2002 68.1855V68.1855Z" fill="white"/>
</svg>
