<svg width="120" height="120" viewBox="0 0 120 120" fill="none" xmlns="http://www.w3.org/2000/svg">
<g opacity="0.945">
<path fill-rule="evenodd" clip-rule="evenodd" d="M57.7731 4.80547C70.2587 4.5793 79.0478 10.1262 84.1403 21.4461C87.8172 32.754 85.3562 42.4806 76.7575 50.6258C73.6347 53.3199 70.041 55.0777 65.9762 55.8992C65.9762 58.7117 65.9762 61.5242 65.9762 64.3367C69.8052 64.2976 73.6332 64.3367 77.4606 64.4539C77.7421 64.6656 77.9375 64.9388 78.0465 65.2742C78.1637 68.1638 78.2029 71.0544 78.1637 73.9461C84.4918 73.9461 90.82 73.9461 97.1481 73.9461C96.6222 71.5208 97.4816 69.841 99.7262 68.907C103.945 68.7507 108.164 68.7507 112.382 68.907C113.529 69.3022 114.35 70.0445 114.843 71.1336C114.883 78.0085 114.921 84.8837 114.961 91.7586C114.997 98.882 114.88 105.991 114.609 113.087C113.979 113.953 113.159 114.538 112.148 114.845C108.086 115.001 104.023 115.001 99.9606 114.845C97.5575 114.014 96.62 112.334 97.1481 109.805C72.3043 109.805 47.4606 109.805 22.6168 109.805C23.145 112.334 22.2075 114.014 19.8043 114.845C15.7418 115.001 11.6793 115.001 7.61684 114.845C6.60591 114.538 5.78559 113.953 5.1559 113.087C4.88508 105.991 4.76789 98.882 4.80434 91.7586C4.84341 84.8837 4.88245 78.0085 4.92152 71.1336C5.41507 70.0445 6.23538 69.3022 7.38246 68.907C11.6012 68.7507 15.82 68.7507 20.0387 68.907C22.2834 69.841 23.1428 71.5208 22.6168 73.9461C28.945 73.9461 35.2731 73.9461 41.6012 73.9461C41.5621 71.0544 41.6012 68.1638 41.7184 65.2742C41.8274 64.9388 42.0229 64.6656 42.3043 64.4539C46.1317 64.3367 49.9597 64.2976 53.7887 64.3367C53.7887 61.5242 53.7887 58.7117 53.7887 55.8992C42.9423 52.9037 36.4189 45.8724 34.2184 34.8055C32.9837 23.4873 37.0853 14.6983 46.5231 8.43829C50.0678 6.48817 53.8178 5.27722 57.7731 4.80547ZM58.0075 7.85235C70.138 7.8377 78.1457 13.5408 82.0309 24.9617C84.2523 36.8846 80.0727 45.7517 69.4918 51.5633C58.9738 55.6817 49.8723 53.6113 42.1871 45.3523C35.9659 36.9348 35.3408 28.1068 40.3121 18.868C44.5 12.4544 50.3985 8.78256 58.0075 7.85235ZM56.6012 56.6023C58.7886 56.9148 60.9763 56.9148 63.1637 56.6023C63.1637 59.1805 63.1637 61.7586 63.1637 64.3367C60.9763 64.3367 58.7886 64.3367 56.6012 64.3367C56.6012 61.7586 56.6012 59.1805 56.6012 56.6023ZM44.6481 67.3836C46.1324 67.3836 47.6169 67.3836 49.1012 67.3836C49.1012 69.571 49.1012 71.7587 49.1012 73.9461C47.6169 73.9461 46.1324 73.9461 44.6481 73.9461C44.6481 71.7587 44.6481 69.571 44.6481 67.3836ZM52.1481 67.3836C54.2575 67.3836 56.3668 67.3836 58.4762 67.3836C58.4762 69.571 58.4762 71.7587 58.4762 73.9461C56.3668 73.9461 54.2575 73.9461 52.1481 73.9461C52.1481 71.7587 52.1481 69.571 52.1481 67.3836ZM61.5231 67.3836C63.5544 67.3836 65.5855 67.3836 67.6168 67.3836C67.6168 69.571 67.6168 71.7587 67.6168 73.9461C65.5855 73.9461 63.5544 73.9461 61.5231 73.9461C61.5231 71.7587 61.5231 69.571 61.5231 67.3836ZM70.6637 67.3836C72.148 67.3836 73.6325 67.3836 75.1168 67.3836C75.1168 69.571 75.1168 71.7587 75.1168 73.9461C73.6325 73.9461 72.148 73.9461 70.6637 73.9461C70.6637 71.7587 70.6637 69.571 70.6637 67.3836ZM8.08559 71.8367C11.8364 71.7976 15.5864 71.8367 19.3356 71.9539C19.4974 72.204 19.6146 72.4775 19.6871 72.7742C19.8043 75.9765 19.8434 79.1795 19.8043 82.3836C15.7418 82.3836 11.6793 82.3836 7.61684 82.3836C7.57779 79.1795 7.61686 75.9765 7.73402 72.7742C7.83014 72.4459 7.94733 72.1334 8.08559 71.8367ZM100.429 71.8367C104.18 71.7976 107.93 71.8367 111.679 71.9539C111.841 72.204 111.958 72.4775 112.031 72.7742C112.148 75.9765 112.187 79.1795 112.148 82.3836C108.086 82.3836 104.023 82.3836 99.9606 82.3836C99.9214 79.1795 99.9606 75.9765 100.078 72.7742C100.174 72.4459 100.291 72.1334 100.429 71.8367ZM22.6168 76.993C25.82 76.993 29.023 76.993 32.2262 76.993C32.2262 86.9148 32.2262 96.8368 32.2262 106.759C29.023 106.759 25.82 106.759 22.6168 106.759C22.6168 96.8368 22.6168 86.9148 22.6168 76.993ZM35.0387 76.993C51.6013 76.993 68.1636 76.993 84.7262 76.993C84.7262 86.9148 84.7262 96.8368 84.7262 106.759C68.1636 106.759 51.6013 106.759 35.0387 106.759C35.0387 96.8368 35.0387 86.9148 35.0387 76.993ZM87.5387 76.993C90.7419 76.993 93.9449 76.993 97.1481 76.993C97.1481 86.9148 97.1481 96.8368 97.1481 106.759C93.9449 106.759 90.7419 106.759 87.5387 106.759C87.5387 96.8368 87.5387 86.9148 87.5387 76.993ZM7.61684 85.4305C11.6793 85.4305 15.7418 85.4305 19.8043 85.4305C19.8043 89.7273 19.8043 94.0243 19.8043 98.3211C15.7418 98.3211 11.6793 98.3211 7.61684 98.3211C7.61684 94.0243 7.61684 89.7273 7.61684 85.4305ZM99.9606 85.4305C104.023 85.4305 108.086 85.4305 112.148 85.4305C112.148 89.7273 112.148 94.0243 112.148 98.3211C108.086 98.3211 104.023 98.3211 99.9606 98.3211C99.9606 94.0243 99.9606 89.7273 99.9606 85.4305ZM7.61684 101.368C11.6793 101.368 15.7418 101.368 19.8043 101.368C19.8765 104.697 19.7984 108.017 19.57 111.329C19.4749 111.55 19.3187 111.707 19.1012 111.798C15.5075 111.954 11.9137 111.954 8.31996 111.798C8.10246 111.707 7.94623 111.55 7.85121 111.329C7.62277 108.017 7.54465 104.697 7.61684 101.368ZM99.9606 101.368C104.023 101.368 108.086 101.368 112.148 101.368C112.22 104.697 112.142 108.017 111.914 111.329C111.819 111.55 111.662 111.707 111.445 111.798C107.851 111.954 104.257 111.954 100.664 111.798C100.446 111.707 100.29 111.55 100.195 111.329C99.9664 108.017 99.8884 104.697 99.9606 101.368Z" fill="white"/>
<path d="M73.2418 19.8055C72.335 20.8032 71.3195 20.9594 70.195 20.2742C69.7403 19.1557 69.9747 18.2182 70.8981 17.4617C68.1486 15.0857 64.9457 13.7575 61.2887 13.4773C61.6475 14.8408 61.1788 15.7002 59.8825 16.0555C58.5861 15.7002 58.1174 14.8408 58.4762 13.4773C58.0075 13.4773 57.5387 13.4773 57.07 13.4773C54.0057 14.111 51.2713 15.4391 48.8668 17.4617C49.7272 18.1243 50.0007 18.9837 49.6871 20.0398C48.5914 20.9859 47.5368 20.9077 46.5231 19.8055C44.1969 22.4813 42.8689 25.6063 42.5387 29.1805C43.1996 29.1214 43.8245 29.2386 44.4137 29.532C45.3512 30.3915 45.3512 31.2507 44.4137 32.1102C43.7936 32.2266 43.1685 32.2658 42.5387 32.2273C42.9034 35.8454 44.2316 39.0484 46.5231 41.8367C47.3286 40.9105 48.3053 40.6761 49.4528 41.1336C50.015 42.2914 49.8196 43.307 48.8668 44.1805C50.36 45.3962 52.0007 46.3728 53.7887 47.1102C60.0386 49.1675 65.7418 48.1911 70.8981 44.1805C69.9454 43.307 69.7499 42.2914 70.3122 41.1336C71.4597 40.6761 72.4363 40.9105 73.2418 41.8367C75.5333 39.0484 76.8615 35.8454 77.2262 32.2273C76.5964 32.2658 75.9714 32.2266 75.3512 32.1102C74.8604 31.816 74.6261 31.3864 74.6481 30.8211M61.1715 34.8055C60.5211 35.5447 59.7789 35.6619 58.945 35.157M57.7731 4.80547C70.2587 4.5793 79.0478 10.1262 84.1403 21.4461C87.8172 32.754 85.3562 42.4806 76.7575 50.6258C73.6347 53.3199 70.041 55.0777 65.9762 55.8992C65.9762 58.7117 65.9762 61.5242 65.9762 64.3367C69.8052 64.2976 73.6332 64.3367 77.4606 64.4539C77.7421 64.6656 77.9375 64.9388 78.0465 65.2742C78.1637 68.1638 78.2029 71.0544 78.1637 73.9461C84.4918 73.9461 90.82 73.9461 97.1481 73.9461C96.6222 71.5208 97.4816 69.841 99.7262 68.907C103.945 68.7507 108.164 68.7507 112.382 68.907C113.529 69.3022 114.35 70.0445 114.843 71.1336C114.883 78.0085 114.921 84.8837 114.961 91.7586C114.997 98.882 114.88 105.991 114.609 113.087C113.979 113.953 113.159 114.538 112.148 114.845C108.086 115.001 104.023 115.001 99.9606 114.845C97.5575 114.014 96.62 112.334 97.1481 109.805C72.3043 109.805 47.4606 109.805 22.6168 109.805C23.145 112.334 22.2075 114.014 19.8043 114.845C15.7418 115.001 11.6793 115.001 7.61684 114.845C6.60591 114.538 5.78559 113.953 5.1559 113.087C4.88508 105.991 4.76789 98.882 4.80434 91.7586C4.84341 84.8837 4.88245 78.0085 4.92152 71.1336C5.41507 70.0445 6.23538 69.3022 7.38246 68.907C11.6012 68.7507 15.82 68.7507 20.0387 68.907C22.2834 69.841 23.1428 71.5208 22.6168 73.9461C28.945 73.9461 35.2731 73.9461 41.6012 73.9461C41.5621 71.0544 41.6012 68.1638 41.7184 65.2742C41.8274 64.9388 42.0229 64.6656 42.3043 64.4539C46.1317 64.3367 49.9597 64.2976 53.7887 64.3367C53.7887 61.5242 53.7887 58.7117 53.7887 55.8992C42.9423 52.9037 36.4189 45.8724 34.2184 34.8055C32.9837 23.4873 37.0853 14.6983 46.5231 8.43829C50.0678 6.48817 53.8178 5.27722 57.7731 4.80547ZM58.0075 7.85235C70.138 7.8377 78.1457 13.5408 82.0309 24.9617C84.2523 36.8846 80.0727 45.7517 69.4918 51.5633C58.9738 55.6817 49.8723 53.6113 42.1871 45.3523C35.9659 36.9348 35.3408 28.1068 40.3121 18.868C44.5 12.4544 50.3985 8.78256 58.0075 7.85235ZM56.6012 56.6023C58.7886 56.9148 60.9763 56.9148 63.1637 56.6023C63.1637 59.1805 63.1637 61.7586 63.1637 64.3367C60.9763 64.3367 58.7886 64.3367 56.6012 64.3367C56.6012 61.7586 56.6012 59.1805 56.6012 56.6023ZM44.6481 67.3836C46.1324 67.3836 47.6169 67.3836 49.1012 67.3836C49.1012 69.571 49.1012 71.7587 49.1012 73.9461C47.6169 73.9461 46.1324 73.9461 44.6481 73.9461C44.6481 71.7587 44.6481 69.571 44.6481 67.3836ZM52.1481 67.3836C54.2575 67.3836 56.3668 67.3836 58.4762 67.3836C58.4762 69.571 58.4762 71.7587 58.4762 73.9461C56.3668 73.9461 54.2575 73.9461 52.1481 73.9461C52.1481 71.7587 52.1481 69.571 52.1481 67.3836ZM61.5231 67.3836C63.5544 67.3836 65.5855 67.3836 67.6168 67.3836C67.6168 69.571 67.6168 71.7587 67.6168 73.9461C65.5855 73.9461 63.5544 73.9461 61.5231 73.9461C61.5231 71.7587 61.5231 69.571 61.5231 67.3836ZM70.6637 67.3836C72.148 67.3836 73.6325 67.3836 75.1168 67.3836C75.1168 69.571 75.1168 71.7587 75.1168 73.9461C73.6325 73.9461 72.148 73.9461 70.6637 73.9461C70.6637 71.7587 70.6637 69.571 70.6637 67.3836ZM8.08559 71.8367C11.8364 71.7976 15.5864 71.8367 19.3356 71.9539C19.4974 72.204 19.6146 72.4775 19.6871 72.7742C19.8043 75.9765 19.8434 79.1795 19.8043 82.3836C15.7418 82.3836 11.6793 82.3836 7.61684 82.3836C7.57779 79.1795 7.61686 75.9765 7.73402 72.7742C7.83014 72.4459 7.94733 72.1334 8.08559 71.8367ZM100.429 71.8367C104.18 71.7976 107.93 71.8367 111.679 71.9539C111.841 72.204 111.958 72.4775 112.031 72.7742C112.148 75.9765 112.187 79.1795 112.148 82.3836C108.086 82.3836 104.023 82.3836 99.9606 82.3836C99.9214 79.1795 99.9606 75.9765 100.078 72.7742C100.174 72.4459 100.291 72.1334 100.429 71.8367ZM22.6168 76.993C25.82 76.993 29.023 76.993 32.2262 76.993C32.2262 86.9148 32.2262 96.8368 32.2262 106.759C29.023 106.759 25.82 106.759 22.6168 106.759C22.6168 96.8368 22.6168 86.9148 22.6168 76.993ZM35.0387 76.993C51.6013 76.993 68.1636 76.993 84.7262 76.993C84.7262 86.9148 84.7262 96.8368 84.7262 106.759C68.1636 106.759 51.6013 106.759 35.0387 106.759C35.0387 96.8368 35.0387 86.9148 35.0387 76.993ZM87.5387 76.993C90.7419 76.993 93.9449 76.993 97.1481 76.993C97.1481 86.9148 97.1481 96.8368 97.1481 106.759C93.9449 106.759 90.7419 106.759 87.5387 106.759C87.5387 96.8368 87.5387 86.9148 87.5387 76.993ZM7.61684 85.4305C11.6793 85.4305 15.7418 85.4305 19.8043 85.4305C19.8043 89.7273 19.8043 94.0243 19.8043 98.3211C15.7418 98.3211 11.6793 98.3211 7.61684 98.3211C7.61684 94.0243 7.61684 89.7273 7.61684 85.4305ZM99.9606 85.4305C104.023 85.4305 108.086 85.4305 112.148 85.4305C112.148 89.7273 112.148 94.0243 112.148 98.3211C108.086 98.3211 104.023 98.3211 99.9606 98.3211C99.9606 94.0243 99.9606 89.7273 99.9606 85.4305ZM7.61684 101.368C11.6793 101.368 15.7418 101.368 19.8043 101.368C19.8765 104.697 19.7984 108.017 19.57 111.329C19.4749 111.55 19.3187 111.707 19.1012 111.798C15.5075 111.954 11.9137 111.954 8.31996 111.798C8.10246 111.707 7.94623 111.55 7.85121 111.329C7.62277 108.017 7.54465 104.697 7.61684 101.368ZM99.9606 101.368C104.023 101.368 108.086 101.368 112.148 101.368C112.22 104.697 112.142 108.017 111.914 111.329C111.819 111.55 111.662 111.707 111.445 111.798C107.851 111.954 104.257 111.954 100.664 111.798C100.446 111.707 100.29 111.55 100.195 111.329C99.9664 108.017 99.8884 104.697 99.9606 101.368Z" stroke="white"/>
</g>
<path opacity="0.914" fill-rule="evenodd" clip-rule="evenodd" d="M56.8357 10.4293C67.9282 9.66272 75.4674 14.4283 79.4529 24.7261C81.8034 34.5879 78.8738 42.4395 70.6638 48.2808C62.8144 52.4483 55.1581 52.1356 47.6951 47.3433C39.6621 40.4855 37.5136 32.0869 41.2498 22.148C44.546 15.6843 49.7414 11.7781 56.8357 10.4293ZM57.0701 13.4761C54.0059 14.1098 51.2714 15.4379 48.867 17.4605C49.7274 18.1231 50.0009 18.9825 49.6873 20.0386C48.5916 20.9847 47.5369 20.9065 46.5232 19.8043C44.197 22.4801 42.8691 25.6051 42.5388 29.1793C43.1998 29.1202 43.8246 29.2374 44.4138 29.5308C45.3513 30.3903 45.3513 31.2495 44.4138 32.109C43.7937 32.2254 43.1686 32.2646 42.5388 32.2261C42.9035 35.8442 44.2317 39.0472 46.5232 41.8355C47.3288 40.9093 48.3054 40.6749 49.4529 41.1324C50.0152 42.2902 49.8197 43.3058 48.867 44.1793C50.3602 45.395 52.0008 46.3716 53.7888 47.109C60.0387 49.1663 65.742 48.1899 70.8982 44.1793C69.9455 43.3058 69.75 42.2902 70.3123 41.1324C71.4598 40.6749 72.4364 40.9093 73.242 41.8355C75.5334 39.0472 76.8616 35.8442 77.2263 32.2261C76.5966 32.2646 75.9715 32.2254 75.3513 32.109C74.8606 31.8148 74.6262 31.3852 74.6482 30.8199C74.9848 29.5158 75.844 28.969 77.2263 29.1793C76.8961 25.6051 75.5681 22.4801 73.242 19.8043C72.3352 20.802 71.3196 20.9582 70.1951 20.273C69.7404 19.1545 69.9748 18.217 70.8982 17.4605C68.1488 15.0845 64.9458 13.7563 61.2888 13.4761C61.6477 14.8396 61.1789 15.699 59.8826 16.0543C58.5863 15.699 58.1175 14.8396 58.4763 13.4761C58.0076 13.4761 57.5388 13.4761 57.0701 13.4761Z" fill="white"/>
<path opacity="0.931" fill-rule="evenodd" clip-rule="evenodd" d="M59.6491 21.9141C60.2329 21.9911 60.7406 22.2255 61.1725 22.6172C61.2506 24.9609 61.3289 27.3047 61.4069 29.6484C64.4629 31.3645 65.166 33.7863 63.5163 36.9141C61.446 38.8514 59.2195 39.0469 56.8366 37.5C55.2958 35.7002 55.0223 33.708 56.0163 31.5234C56.6622 30.7202 57.4436 30.0954 58.36 29.6484C58.4381 27.3047 58.5164 24.9609 58.5944 22.6172C58.9246 22.3169 59.2762 22.0826 59.6491 21.9141ZM59.6491 32.4609C58.4296 33.0963 58.1953 33.9947 58.946 35.1562C59.7799 35.6611 60.5221 35.5439 61.1725 34.8047C61.5475 33.4446 61.0396 32.6632 59.6491 32.4609Z" fill="white"/>
<path opacity="0.877" fill-rule="evenodd" clip-rule="evenodd" d="M41.6017 99.7275C43.2442 99.6886 44.8848 99.7275 46.5236 99.8447C47.1913 100.444 47.3868 101.187 47.1095 102.071C46.8979 102.353 46.6246 102.548 46.2892 102.657C44.8049 102.813 43.3204 102.813 41.8361 102.657C40.6933 101.774 40.615 100.797 41.6017 99.7275Z" fill="white"/>
<path opacity="0.908" fill-rule="evenodd" clip-rule="evenodd" d="M50.0392 99.7276C55.5086 99.6884 60.9773 99.7276 66.4455 99.8448C67.4191 100.876 67.341 101.813 66.2111 102.657C60.8985 102.814 55.5862 102.814 50.2736 102.657C48.7907 101.769 48.7127 100.792 50.0392 99.7276Z" fill="white"/>
</svg>
