<svg width="120" height="120" viewBox="0 0 120 120" fill="none" xmlns="http://www.w3.org/2000/svg">
<g clip-path="url(#clip0_490_1491)">
<path d="M95.2764 66.5937C94.5952 66.5937 93.7323 66.8662 93.2327 66.5937C92.7331 66.3212 93.2327 65.3674 93.2327 64.7316C93.2122 64.5657 93.2122 64.3979 93.2327 64.232C93.0617 63.1256 92.557 62.0979 91.7859 61.2862C91.0148 60.4746 90.0143 59.9178 88.9181 59.6904C87.8077 59.4887 86.6623 59.6282 85.6327 60.0903C84.6031 60.5524 83.7376 61.3155 83.1502 62.2791C82.5347 63.4513 82.2668 64.7749 82.3781 66.0941C82.3781 66.6391 82.3781 66.9116 81.6514 66.9116H76.2923C76.0871 66.9118 75.885 66.8623 75.7031 66.7674C75.5212 66.6725 75.3649 66.535 75.2477 66.3666C74.2162 65.1813 73.0415 64.1287 71.7506 63.2328C71.5802 63.1402 71.4389 63.0019 71.3426 62.8334C71.2464 62.6649 71.1989 62.473 71.2056 62.2791V54.422C71.2056 53.9224 71.2056 53.7862 71.796 53.7862H74.8844C75.6388 53.8553 76.3994 53.7663 77.1175 53.525C77.8356 53.2836 78.4956 52.8952 79.0552 52.3845C79.6148 51.8738 80.0618 51.2521 80.3676 50.5589C80.6734 49.8658 80.8314 49.1165 80.8314 48.3589C80.8314 47.6013 80.6734 46.852 80.3676 46.1589C80.0618 45.4658 79.6148 44.844 79.0552 44.3333C78.4956 43.8226 77.8356 43.4342 77.1175 43.1928C76.3994 42.9515 75.6388 42.8625 74.8844 42.9316H70.3427C69.4344 42.9316 68.2081 43.3404 67.6631 42.9316C67.1181 42.5229 67.6631 41.115 67.6631 40.1612C67.6631 39.6616 67.6631 39.5254 68.2535 39.5254H70.9331C72.4319 39.5254 73.1131 38.8441 73.1585 37.3C73.2039 35.7558 73.1585 34.6658 73.1585 33.3487C73.1585 32.0316 73.1585 32.2133 74.2485 32.2587H83.8314C84.824 32.3081 85.8111 32.0851 86.6861 31.6139C87.5611 31.1427 88.2906 30.4413 88.7957 29.5854C89.3008 28.7296 89.5622 27.7519 89.5518 26.7582C89.5413 25.7645 89.2594 24.7925 88.7364 23.9475C88.1722 23.0576 87.3733 22.3407 86.4277 21.8759C85.4821 21.4111 84.4265 21.2164 83.3773 21.3133H36.0077C34.9776 21.385 33.9931 21.7658 33.1828 22.4059C32.3726 23.046 31.7743 23.9157 31.4661 24.9012C31.1629 25.7524 31.0761 26.6656 31.2135 27.5586C31.3509 28.4517 31.7082 29.2966 32.2532 30.0172C32.7982 30.7379 33.5138 31.3118 34.3357 31.6872C35.1576 32.0626 36.0599 32.2278 36.9615 32.1679H46.6806C47.589 32.1679 47.816 32.4404 47.7706 33.2579C47.7252 34.0754 47.7706 35.5287 47.7706 36.6641C47.7706 38.935 48.3156 39.4345 50.541 39.48C51.404 39.48 52.5848 39.0712 53.0844 39.48C53.584 39.8887 53.0844 41.2512 53.0844 42.1595C53.0844 43.0679 53.0844 42.977 52.2669 42.977H45.7269C44.2851 42.9889 42.9058 43.5669 41.8863 44.5864C40.8668 45.6059 40.2888 46.9853 40.2769 48.427C40.2769 49.1406 40.4181 49.8471 40.6926 50.5058C40.967 51.1645 41.3692 51.7623 41.8759 52.2648C42.3826 52.7673 42.9837 53.1644 43.6447 53.4333C44.3057 53.7022 45.0133 53.8376 45.7269 53.8316H48.679C49.2694 53.8316 49.4056 53.8316 49.4056 54.5583C49.3146 56.3284 49.3146 58.1019 49.4056 59.872C49.4056 61.6887 49.4056 63.142 47.4981 64.0049C45.5906 64.8678 45.8177 66.3212 44.3644 66.5937C42.9882 66.6845 41.6076 66.6845 40.2315 66.5937C38.5056 66.5937 38.5056 66.5937 38.4148 64.9133C38.379 64.1976 38.2026 63.4959 37.8957 62.8484C37.5887 62.2009 37.1572 61.6201 36.6259 61.1393C36.0945 60.6586 35.4736 60.2872 34.7987 60.0463C34.1238 59.8055 33.408 59.7 32.6923 59.7358C31.9766 59.7716 31.275 59.948 30.6274 60.2549C29.9799 60.5619 29.3992 60.9933 28.9184 61.5247C28.4376 62.0561 28.0662 62.677 27.8254 63.3519C27.5846 64.0268 27.479 64.7426 27.5148 65.4583C27.5148 66.412 27.2423 66.5937 26.334 66.5937H5.80566V92.1178C6.25187 92.3979 6.78295 92.5105 7.30441 92.4357H25.9706C26.7881 92.4357 27.1969 92.6628 27.1515 93.5257C27.1648 94.1587 27.272 94.7863 27.4694 95.3878C27.7016 96.3536 28.1831 97.2416 28.8659 97.963C29.5487 98.6845 30.4088 99.2141 31.3603 99.4991C32.3118 99.7841 33.3215 99.8145 34.2885 99.5872C35.2554 99.3598 36.1458 98.8828 36.8706 98.2037C38.0908 97.0036 38.7919 95.3731 38.8236 93.662C38.8236 92.9353 39.1415 92.6174 39.8681 92.6628H43.8194C44.1037 92.6604 44.3852 92.7201 44.6441 92.8378C44.9029 92.9555 45.133 93.1283 45.3181 93.3441C47.224 95.4199 49.5404 97.0771 52.1203 98.2108C54.7003 99.3445 57.4876 99.9299 60.3056 99.9299C63.1237 99.9299 65.911 99.3445 68.4909 98.2108C71.0709 97.0771 73.3872 95.4199 75.2931 93.3441C75.4783 93.1283 75.7083 92.9555 75.9672 92.8378C76.2261 92.7201 76.5075 92.6604 76.7919 92.6628H79.8802C81.606 92.6628 81.606 92.6628 81.8331 94.2978V95.1153C81.9546 96.1695 82.3864 97.1638 83.0736 97.9724C83.7609 98.7809 84.6727 99.3672 85.6935 99.657C86.7122 100.017 87.8138 100.071 88.8628 99.8125C89.9118 99.5543 90.8624 98.9951 91.5977 98.2037C92.6055 97.0893 93.1989 95.662 93.2781 94.1616C93.2781 92.7537 93.2781 92.6628 95.0039 92.6628H113.171C113.466 92.6853 113.762 92.6486 114.043 92.555C114.324 92.4614 114.583 92.3128 114.806 92.1178V66.5937H95.2764ZM27.5602 87.5762C27.5602 88.1666 27.5602 88.3483 26.7881 88.3483H10.0294C9.39358 88.3483 9.30274 88.0758 9.30274 87.5307C9.30274 81.9899 9.30274 76.4491 9.30274 70.9083C9.30274 70.3178 9.30274 70.1362 10.0748 70.1362H26.6973C27.3331 70.1362 27.5602 70.1362 27.5602 70.9537C27.4997 76.5248 27.4997 82.0656 27.5602 87.5762ZM34.6906 94.2978C34.6139 94.6905 34.3959 95.0414 34.0779 95.2841C33.7598 95.5269 33.3638 95.6446 32.9648 95.6149C32.5691 95.622 32.1836 95.4893 31.8762 95.24C31.5688 94.9908 31.3592 94.641 31.2844 94.2524C31.2376 93.7994 31.2376 93.3429 31.2844 92.8899V65.6399C31.2376 65.187 31.2376 64.7304 31.2844 64.2774C31.3669 63.9049 31.5737 63.5715 31.8709 63.3321C32.168 63.0928 32.5378 62.9616 32.9194 62.9604C33.3115 62.9249 33.7036 63.0282 34.0274 63.2523C34.3511 63.4764 34.5858 63.8071 34.6906 64.1866C34.7577 64.6078 34.7577 65.037 34.6906 65.4583V93.2078C34.7568 93.5834 34.7568 93.9677 34.6906 94.3432V94.2978ZM37.5973 28.5345C37.1457 28.6031 36.6864 28.6031 36.2348 28.5345C35.8446 28.4444 35.4964 28.2247 35.2471 27.9113C34.9978 27.5979 34.8621 27.2092 34.8621 26.8087C34.8621 26.4082 34.9978 26.0196 35.2471 25.7061C35.4964 25.3927 35.8446 25.173 36.2348 25.0829H84.1948C84.6012 25.1154 84.9819 25.2946 85.266 25.5871C85.5501 25.8795 85.7182 26.2653 85.7389 26.6725C85.8042 27.0999 85.6975 27.5359 85.4422 27.8848C85.1868 28.2338 84.8036 28.4674 84.3764 28.5345C83.9237 28.5859 83.4667 28.5859 83.0139 28.5345H37.5973ZM52.0852 35.8466C51.4494 35.8466 51.2677 35.8466 51.2677 35.0291C51.2677 32.1679 51.2677 32.1679 54.0381 32.1679H68.526C69.2981 32.1679 69.616 32.1679 69.5252 33.167C69.4344 34.1662 69.7977 35.12 69.5252 35.6195C69.2527 36.1191 67.8448 35.6195 66.9819 35.6195H51.9944L52.0852 35.8466ZM64.0298 42.75C64.0298 43.2041 63.6665 43.0679 63.4394 43.0679H57.2627C56.854 43.0679 56.6723 43.0679 56.6723 42.4775C56.6723 39.3891 56.6723 39.4345 59.4427 39.4345H61.4865C62.2585 39.4345 63.5756 39.0712 63.7573 39.4345C63.9992 40.4607 64.0607 41.5211 63.9389 42.5683L64.0298 42.75ZM46.1356 50.3345C44.5461 50.3345 43.5469 49.0174 44.2281 47.7458C44.4251 47.3871 44.7251 47.0957 45.0895 46.9095C45.4539 46.7233 45.8658 46.6507 46.2719 46.7012H74.521C75.9289 46.7012 76.8373 47.4279 76.7919 48.5633C76.7637 48.8204 76.6848 49.0694 76.5596 49.2958C76.4344 49.5222 76.2655 49.7214 76.0627 49.882C75.8599 50.0426 75.6272 50.1612 75.3781 50.2311C75.1291 50.301 74.8686 50.3207 74.6119 50.2891H46.0448L46.1356 50.3345ZM81.2881 88.5753C79.4714 88.5753 77.6094 88.5753 75.7473 88.5753C75.2378 88.5351 74.7263 88.6219 74.2586 88.828C73.791 89.0341 73.3818 89.353 73.0677 89.7562C71.3942 91.9185 69.1869 93.6083 66.6627 94.6594C64.1385 95.7104 61.3843 96.0867 58.6706 95.7512C56.7155 95.6093 54.8085 95.0782 53.0615 94.1891C51.3144 93.3 49.7627 92.0708 48.4973 90.5737C47.982 89.8689 47.2926 89.31 46.4965 88.9518C45.7003 88.5935 44.8248 88.4482 43.9556 88.5299C42.4115 88.5299 40.8219 88.5299 39.414 88.5299C38.9144 88.5299 38.7327 88.5299 38.7327 87.8941C38.7327 82.2624 38.7327 76.6308 38.7327 71.0445C38.7327 70.4541 38.7327 70.3178 39.4594 70.3178H45.3181C45.7958 70.3489 46.2737 70.2615 46.7095 70.0634C47.1453 69.8654 47.5254 69.5627 47.816 69.1824C48.9768 67.6861 50.4099 66.4225 52.0398 65.4583C52.4622 65.2352 52.8086 64.8915 53.0351 64.471C53.2615 64.0504 53.3577 63.572 53.3115 63.0966C53.3115 60.3262 53.3115 57.5558 53.3115 54.7854C53.3115 54.1041 53.3115 53.877 54.1744 53.877H66.6639C67.4814 53.877 67.6177 54.1495 67.5723 54.8308C67.5723 57.5558 67.5723 60.3262 67.5723 63.0512C67.5244 63.5277 67.6145 64.008 67.8319 64.4348C68.0494 64.8616 68.3849 65.2168 68.7985 65.4583C70.4474 66.451 71.908 67.7272 73.1131 69.2278C73.3705 69.5847 73.7131 69.8715 74.1098 70.0619C74.5065 70.2523 74.9445 70.3403 75.3839 70.3178H81.2427C81.9239 70.3178 82.151 70.3178 82.151 71.1808C82.151 73.9512 82.151 76.7216 82.151 79.492C82.151 82.2624 82.151 84.8966 82.151 87.6216C82.151 88.2574 81.9239 88.4391 81.1973 88.3937L81.2881 88.5753ZM89.5085 93.117C89.5554 93.5396 89.5554 93.9661 89.5085 94.3887C89.4231 94.7768 89.2028 95.1222 88.8868 95.3633C88.5709 95.6044 88.1796 95.7258 87.7827 95.7057C87.3847 95.7223 86.9943 95.593 86.6849 95.3422C86.3755 95.0913 86.1683 94.7361 86.1023 94.3432C86.0338 93.8917 86.0338 93.4323 86.1023 92.9808V65.7308C86.0338 65.2792 86.0338 64.8198 86.1023 64.3683C86.179 63.9756 86.397 63.6247 86.715 63.382C87.0331 63.1392 87.4291 63.0215 87.8281 63.0512C88.2174 63.042 88.5979 63.1683 88.9044 63.4086C89.2109 63.6488 89.4244 63.988 89.5085 64.3683C89.5536 64.791 89.5536 65.2172 89.5085 65.6399V93.117ZM111.354 79.492C111.354 82.2624 111.354 84.9874 111.354 87.7124C111.354 88.3483 111.354 88.6208 110.491 88.6208H93.9139C93.2327 88.6208 93.051 88.6208 93.051 87.7578C93.051 82.2624 93.051 76.8124 93.051 71.317C93.051 70.6812 93.051 70.4087 93.9139 70.4087H110.264C110.945 70.4087 111.127 70.4087 111.127 71.317C111.263 73.9512 111.263 76.5399 111.263 79.2649L111.354 79.492Z" fill="white" stroke="white" stroke-width="2"/>
</g>
<defs>
<clipPath id="clip0_490_1491">
<rect width="120" height="120" fill="white"/>
</clipPath>
</defs>
</svg>
