<svg width="120" height="120" viewBox="0 0 120 120" fill="none" xmlns="http://www.w3.org/2000/svg">
<g clip-path="url(#clip0_490_1483)">
<path d="M59 109C86.062 109 108 87.062 108 60C108 32.9381 86.062 11 59 11C31.938 11 10 32.9381 10 60C10 87.062 31.938 109 59 109Z" stroke="white" stroke-width="5.75" stroke-miterlimit="10"/>
<path d="M89.8787 34C90.1479 35.6182 89.9672 37.2792 89.3563 38.8015C88.7455 40.3237 87.728 41.6485 86.4153 42.6308C80.2505 48.4194 74.3974 54.4853 68.475 60.5165C67.8712 61.1855 67.5164 62.0424 67.4706 62.9428C67.4706 69.4362 67.4706 75.918 67.4706 82.3882C67.5055 82.9072 67.3901 83.4252 67.1383 83.8801C66.8864 84.3351 66.5088 84.7077 66.0506 84.9532C61.5829 87.8648 57.1844 90.8458 52.4742 94V91.7123C52.4742 82.1109 52.4742 72.5442 52.4742 62.9775C52.4431 62.0738 52.0864 61.212 51.4698 60.5511C44.9586 53.9307 38.4475 47.3449 31.8324 40.8631C31.1881 40.3544 30.6845 39.6893 30.3693 38.931C30.0541 38.1727 29.9378 37.3463 30.0315 36.5303C30.1007 35.6999 30.1007 34.8651 30.0315 34.0347L89.8787 34ZM37.2353 39.0607C37.2353 39.3033 37.2353 39.4419 37.4085 39.5113C42.846 44.9879 48.3181 50.4645 53.7903 55.8717C54.2721 56.2843 54.888 56.5062 55.5219 56.4957C58.3619 56.4957 61.2365 56.4957 64.0765 56.4957C64.9798 56.4374 65.8357 56.0703 66.5009 55.4558C69.6872 52.4055 72.7349 49.2513 75.8866 46.1664C78.1724 43.9133 80.5622 41.695 82.8134 39.4766L82.5017 39.0607H37.2353ZM62.4833 61.591H57.5653V84.5373C58.8474 83.7899 60.0848 82.9681 61.2712 82.0763C61.892 81.5305 62.2973 80.7806 62.4141 79.9619C62.4141 76.8423 62.4141 73.688 62.4141 70.5338L62.4833 61.591Z" fill="white"/>
</g>
<defs>
<clipPath id="clip0_490_1483">
<rect width="120" height="120" fill="white"/>
</clipPath>
</defs>
</svg>
