<svg width="120" height="120" viewBox="0 0 120 120" fill="none" xmlns="http://www.w3.org/2000/svg">
<g clip-path="url(#clip0_490_1479)">
<path d="M14.9313 103.114H9.66023C8.20126 103.114 7.44824 102.408 7.44824 101.326C7.44824 100.243 8.24832 99.5371 9.66023 99.5371H20.2966C21.6614 99.5371 22.5556 100.243 22.5556 101.326C22.5556 102.408 21.7085 103.067 20.2966 103.114H14.9313Z" fill="white"/>
<path d="M78.7966 66.1699H87.8799C89.2918 66.1699 90.0448 66.8288 89.9978 67.9583C89.9507 69.0879 89.2447 69.6526 87.8799 69.6526H69.7604C68.3956 69.6526 67.6426 68.9937 67.6426 67.9113C67.6426 66.8288 68.3956 66.1699 69.7134 66.1699H78.7966Z" fill="white"/>
<path d="M78.9375 59.0119H87.8796C89.2915 59.0119 89.9974 59.5767 89.9974 60.7062C89.9974 61.8357 89.2444 62.4946 87.8796 62.4946H69.713C69.2734 62.5569 68.826 62.4577 68.4539 62.2154C68.0818 61.9731 67.8101 61.6041 67.6893 61.1768C67.5869 60.824 67.6054 60.4471 67.7418 60.106C67.8783 59.7649 68.1248 59.4792 68.4423 59.2943C68.8669 59.0418 69.3652 58.9422 69.8542 59.0119H78.9375Z" fill="white"/>
<path d="M78.7025 76.8048H69.7134C68.3956 76.8048 67.6426 76.1929 67.6426 75.0634C67.6426 73.9339 68.3956 73.3691 69.7604 73.3691H87.8799C89.2447 73.3691 89.9978 73.981 89.9978 75.0164C89.9978 76.0518 89.2918 76.8048 87.8799 76.8048H78.7025Z" fill="white"/>
<path d="M58.1819 69.6508H55.0758C54.837 69.6634 54.5981 69.6281 54.3733 69.5468C54.1484 69.4656 53.9422 69.3401 53.7667 69.1777C53.5912 69.0154 53.45 68.8195 53.3515 68.6017C53.253 68.3838 53.1992 68.1484 53.1932 67.9094C53.1857 67.6706 53.2289 67.4329 53.3197 67.2119C53.4106 66.991 53.5472 66.7917 53.7206 66.6273C53.8939 66.4628 54.1001 66.3369 54.3255 66.2577C54.551 66.1786 54.7906 66.148 55.0287 66.1681H61.4293C61.8926 66.1667 62.3393 66.3406 62.6797 66.6548C63.0202 66.9691 63.2292 67.4004 63.2648 67.8624C63.2656 68.1034 63.2163 68.342 63.1201 68.5631C63.0239 68.7841 62.8829 68.9827 62.7059 69.1464C62.529 69.3101 62.3199 69.4353 62.0921 69.514C61.8642 69.5927 61.6225 69.6233 61.3823 69.6037L58.1819 69.6508Z" fill="white"/>
<path d="M58.4635 59.0195H61.7109C62.1693 59.0189 62.6105 59.1943 62.9433 59.5096C63.2761 59.8249 63.4752 60.256 63.4993 60.7138C63.4874 61.1844 63.2951 61.6324 62.9623 61.9652C62.6294 62.2981 62.1814 62.4903 61.7109 62.5022H54.9337C54.4719 62.5022 54.029 62.3188 53.7024 61.9922C53.3758 61.6656 53.1924 61.2227 53.1924 60.7609C53.1924 60.299 53.3758 59.8561 53.7024 59.5296C54.029 59.203 54.4719 59.0195 54.9337 59.0195H58.4635Z" fill="white"/>
<path d="M58.1818 76.8088C57.0993 76.8088 56.0169 76.8088 54.9815 76.8088C54.7512 76.8216 54.5207 76.7873 54.3042 76.7079C54.0876 76.6285 53.8895 76.5057 53.7221 76.3471C53.5547 76.1885 53.4214 75.9973 53.3304 75.7854C53.2394 75.5734 53.1927 75.3451 53.1931 75.1145C53.1866 74.884 53.2272 74.6547 53.3124 74.4405C53.3976 74.2263 53.5256 74.0317 53.6886 73.8687C53.8516 73.7057 54.0462 73.5777 54.2604 73.4925C54.4746 73.4072 54.704 73.3666 54.9344 73.3731C57.0993 73.3731 59.2642 73.3731 61.4762 73.3731C61.7256 73.3317 61.9811 73.3451 62.2248 73.4124C62.4685 73.4796 62.6946 73.5991 62.8875 73.7626C63.0803 73.9261 63.2353 74.1296 63.3416 74.359C63.4478 74.5884 63.5029 74.8381 63.5029 75.091C63.5029 75.3438 63.4478 75.5936 63.3416 75.823C63.2353 76.0524 63.0803 76.2559 62.8875 76.4193C62.6946 76.5828 62.4685 76.7023 62.2248 76.7696C61.9811 76.8368 61.7256 76.8502 61.4762 76.8088H58.1818Z" fill="white"/>
<path d="M26.8487 64.3145C26.4728 64.3318 26.1163 64.4865 25.8468 64.7491C25.5772 65.0117 25.4134 65.3641 25.3862 65.7395C25.3812 65.9365 25.4151 66.1325 25.4859 66.3164C25.5567 66.5003 25.6631 66.6684 25.7989 66.8112C25.9347 66.954 26.0973 67.0686 26.2775 67.1485C26.4576 67.2285 26.6517 67.2721 26.8487 67.277C27.2302 67.2771 27.5966 67.1282 27.8698 66.8619C28.143 66.5957 28.3014 66.2333 28.3112 65.852C28.3162 65.655 28.2823 65.4589 28.2115 65.275C28.1407 65.0911 28.0344 64.923 27.8985 64.7802C27.7627 64.6374 27.6001 64.5228 27.42 64.4429C27.2398 64.363 27.0457 64.3193 26.8487 64.3145Z" fill="white"/>
<path d="M26.9239 60.0031C27.1126 60.0034 27.2993 59.9652 27.4727 59.8908C27.6462 59.8164 27.8026 59.7075 27.9325 59.5706C28.0623 59.4337 28.1629 59.2717 28.2281 59.0947C28.2932 58.9176 28.3216 58.729 28.3114 58.5406C28.3114 58.1527 28.1573 57.7808 27.883 57.5065C27.6087 57.2322 27.2367 57.0781 26.8489 57.0781C26.461 57.0781 26.089 57.2322 25.8147 57.5065C25.5404 57.7808 25.3864 58.1527 25.3864 58.5406C25.3805 58.7407 25.4168 58.9399 25.493 59.125C25.5692 59.3101 25.6836 59.4771 25.8286 59.6151C25.9737 59.7531 26.1462 59.859 26.3349 59.9258C26.5236 59.9927 26.7243 60.019 26.9239 60.0031Z" fill="white"/>
<path d="M112.588 51.7241C111.976 51.7241 112.07 51.3005 112.07 50.9711V45.4176C112.132 44.2003 111.936 42.9837 111.496 41.8474C111.055 40.711 110.38 39.6804 109.513 38.823C108.647 37.9656 107.61 37.3008 106.469 36.8719C105.328 36.4431 104.109 36.2599 102.893 36.3343H86.9382C85.4322 36.3343 84.8204 35.7225 84.7733 34.2635V32.3339C84.7943 31.5766 84.6574 30.8232 84.3714 30.1217C84.0854 29.4201 83.6565 28.7858 83.112 28.259C82.5676 27.7322 81.9194 27.3245 81.2088 27.0619C80.4982 26.7992 79.7407 26.6873 78.9845 26.7333H74.2781C73.7134 26.7333 73.478 26.7333 73.5251 25.9803C73.5251 24.0507 73.5251 22.1211 73.5251 20.2386C73.5251 19.5797 73.5251 19.4856 74.3252 19.4856H76.8195C77.0522 19.4918 77.2837 19.4515 77.5004 19.3668C77.7171 19.2821 77.9147 19.1548 78.0814 18.9925C78.2481 18.8301 78.3806 18.636 78.4711 18.4216C78.5615 18.2072 78.6081 17.9769 78.608 17.7442C78.6217 17.512 78.586 17.2794 78.5033 17.062C78.4207 16.8445 78.2929 16.647 78.1284 16.4825C77.9639 16.3179 77.7663 16.1901 77.5489 16.1075C77.3314 16.0248 77.0989 15.9892 76.8666 16.0029H66.5126C66.2839 15.9966 66.0562 16.0355 65.8426 16.1172C65.6289 16.199 65.4334 16.3221 65.2673 16.4794C65.1013 16.6368 64.9678 16.8253 64.8746 17.0342C64.7814 17.2432 64.7303 17.4684 64.7242 17.6971C64.7239 17.9401 64.7731 18.1807 64.8688 18.404C64.9645 18.6274 65.1047 18.8289 65.2809 18.9962C65.457 19.1636 65.6655 19.2933 65.8934 19.3774C66.1214 19.4616 66.3641 19.4983 66.6068 19.4856H69.1011C69.713 19.4856 69.9012 19.4856 69.9012 20.2856C69.9012 22.1211 69.9012 23.9566 69.9012 25.7921C69.9012 26.6392 69.5718 26.7333 68.9129 26.7333H64.2065C62.8696 26.6192 61.5385 27.0102 60.4756 27.8291C59.4128 28.648 58.6953 29.8355 58.4648 31.1573C58.3704 32.0962 58.3704 33.0422 58.4648 33.9811C58.4648 35.7225 57.8529 36.3343 56.1116 36.3343H39.9217C38.7625 36.3217 37.6124 36.5407 36.5389 36.9786C35.4655 37.4164 34.4903 38.0642 33.6705 38.8839C32.8507 39.7037 32.2029 40.6789 31.7651 41.7524C31.3273 42.8258 31.1083 43.9759 31.1209 45.1352V51.0181C31.1209 51.5358 31.1209 51.7711 30.462 51.7241H27.0263C26.3674 51.7241 26.2263 51.4888 26.2733 50.924C26.2968 50.6264 26.2968 50.3274 26.2733 50.0298C26.4416 47.9259 25.8643 45.8299 24.6424 44.1089C23.4205 42.388 21.632 41.1518 19.5903 40.6171C18.9785 40.6171 18.8373 40.1465 18.8373 39.5346C18.8373 37.6991 18.8373 35.8166 18.8373 33.9811C18.8373 32.1456 18.1313 31.7691 17.0489 31.7691C15.9664 31.7691 15.3075 32.6633 15.3075 34.0282V39.6288C15.3075 40.2876 15.3075 40.6642 14.4604 40.7583C13.3262 40.9715 12.2605 41.4559 11.3542 42.1702C9.99405 43.1046 8.91258 44.3901 8.22475 45.89C7.53692 47.39 7.26846 49.0483 7.4479 50.6887C7.4479 51.4417 7.44791 51.7711 6.50663 51.7241C5.77733 51.7302 5.05638 51.88 4.38495 52.1648C3.71353 52.4496 3.10477 52.8638 2.59345 53.3839C2.08212 53.9039 1.67824 54.5196 1.40487 55.1958C1.1315 55.872 0.993994 56.5953 1.0002 57.3246V64.1959C1.04527 65.5009 1.53744 66.7508 2.39425 67.7361C3.25107 68.7214 4.42047 69.3824 5.70655 69.6082C6.31838 69.6082 7.16552 69.3259 7.49497 69.9377C7.61444 70.5595 7.61444 71.1984 7.49497 71.8202C7.51514 74.1384 8.41636 76.362 10.0158 78.0401C11.6152 79.7182 13.7931 80.7251 16.1076 80.8564C18.5112 81.0873 20.9117 80.3857 22.8125 78.8965C24.7134 77.4074 25.9692 75.2446 26.3204 72.8556C26.3204 71.8202 25.8027 70.3142 26.6498 69.7965C27.497 69.2788 28.9089 69.7965 30.0384 69.7965H30.2267C30.9326 69.7965 31.0738 70.0318 31.0738 70.6436C31.0738 72.7144 31.0738 74.8323 31.0738 76.9501C31.1234 79.0315 31.9378 81.0218 33.3615 82.5409C34.7852 84.0601 36.7184 85.0018 38.7922 85.1863C42.369 85.1863 45.9459 85.1863 49.4756 85.1863H54.182C54.5114 85.1863 54.9821 85.1863 54.8879 85.751C54.8246 87.5751 54.3069 89.3546 53.3819 90.928C53.2319 91.1898 53.0108 91.4038 52.7444 91.5454C52.4779 91.687 52.1768 91.7503 51.8759 91.7281C50.7946 91.6575 49.7098 91.6575 48.6285 91.7281C47.7672 91.7281 46.9412 92.0702 46.3322 92.6792C45.7232 93.2882 45.3811 94.1142 45.3811 94.9755C45.3106 96.1196 45.3106 97.267 45.3811 98.4111C45.3811 99.3053 45.3811 99.5877 44.2516 99.5877H29.3325C27.9205 99.5877 27.0734 100.294 27.0734 101.329C27.0734 102.364 27.8735 103.117 29.2854 103.165H109.293C109.747 103.211 110.204 103.211 110.658 103.165C110.929 103.092 111.177 102.953 111.381 102.761C111.585 102.569 111.738 102.33 111.827 102.064C111.916 101.798 111.937 101.514 111.889 101.238C111.841 100.962 111.725 100.702 111.552 100.482C111.331 100.216 111.048 100.008 110.728 99.8772C110.408 99.7459 110.061 99.695 109.717 99.7289H98.8453C98.0923 99.7289 97.8569 99.4936 97.904 98.7406C97.9511 97.9875 97.904 96.5286 97.904 95.4461C97.9245 94.9669 97.8444 94.4887 97.6688 94.0424C97.4933 93.596 97.2263 93.1913 96.8849 92.8544C96.5436 92.5175 96.1354 92.2557 95.6868 92.0861C95.2382 91.9164 94.759 91.8426 94.2801 91.8693C93.2773 91.7987 92.2708 91.7987 91.2681 91.8693C90.9723 91.9005 90.6741 91.8406 90.4133 91.6976C90.1526 91.5546 89.9417 91.3354 89.8091 91.0692C88.9095 89.642 88.3314 88.036 88.1148 86.3628C88.1148 85.4216 88.1148 85.1392 89.1502 85.1863C93.8566 85.1863 98.5629 85.1863 103.269 85.1863C105.314 85.2691 107.321 84.617 108.927 83.3479C110.533 82.0788 111.631 80.2767 112.023 78.2679C112.213 76.0914 112.213 73.9026 112.023 71.7261C112.023 69.8906 112.023 69.8906 113.811 69.6553H114.376C115.39 69.38 116.315 68.8443 117.058 68.1012C117.801 67.3582 118.337 66.4337 118.612 65.4196V56.0069C118.265 54.7027 117.472 53.5609 116.372 52.7789C115.272 51.9968 113.934 51.6237 112.588 51.7241ZM7.4479 60.6662C7.4479 62.2663 7.4479 63.8665 7.4479 65.3725C7.4479 66.0314 7.44791 66.0785 6.69489 66.0785C6.10823 66.0785 5.54561 65.8454 5.13078 65.4306C4.71595 65.0158 4.4829 64.4531 4.4829 63.8665C4.4829 61.6388 4.4829 59.4268 4.4829 57.2305C4.47537 56.8653 4.56242 56.5044 4.7356 56.1828C4.90878 55.8611 5.16219 55.5898 5.47124 55.395C5.71748 55.2116 6.00224 55.0866 6.30393 55.0296C6.60563 54.9725 6.91636 54.9848 7.21259 55.0656C7.73029 55.3009 7.21259 55.9598 7.21259 56.4304C7.49497 57.9835 7.4479 59.3013 7.4479 60.6662ZM22.8377 71.632C22.8648 72.9772 22.4026 74.2865 21.5369 75.3166C20.6713 76.3467 19.4611 77.0275 18.1313 77.2325C16.7675 77.532 15.3417 77.3366 14.1087 76.6813C12.8758 76.026 11.9161 74.9536 11.4012 73.6557C11.162 72.9261 11.0351 72.1644 11.0247 71.3966C11.0247 64.2901 11.0247 57.2776 11.0247 50.0298C10.9491 49.2214 11.0487 48.4063 11.3166 47.6399C11.5846 46.8735 12.0146 46.1739 12.5774 45.5887C13.1402 45.0036 13.8226 44.5466 14.578 44.2491C15.3334 43.9515 16.144 43.8203 16.9547 43.8645C17.7487 43.8295 18.5411 43.9626 19.2802 44.2549C20.0192 44.5472 20.6883 44.9922 21.2435 45.5608C21.7988 46.1294 22.2278 46.8088 22.5025 47.5546C22.7772 48.3003 22.8914 49.0957 22.8377 49.8886V60.572C22.8377 64.3371 22.8847 68.0081 22.8377 71.632ZM30.509 66.2197C29.3481 66.2197 28.1716 66.2197 26.9793 66.2197C26.3674 66.2197 26.2733 66.2197 26.2733 65.4666C26.2733 63.8665 26.2733 62.2193 26.2733 60.7603C26.2733 59.3013 26.2733 57.607 26.2733 56.0539C26.2733 55.5362 26.2733 55.3009 26.9793 55.348H30.509C31.0267 55.348 31.1209 55.348 31.1209 56.0069V65.749C31.1209 66.0314 31.0267 66.2197 30.509 66.2197ZM42.8397 81.5153C41.9618 81.4687 41.082 81.4687 40.2041 81.5153C39.4585 81.5708 38.7096 81.4656 38.0081 81.2068C37.3066 80.948 36.6689 80.5417 36.1379 80.0152C35.607 79.4887 35.1953 78.8544 34.9306 78.1551C34.6659 77.4558 34.5543 76.7079 34.6036 75.9618V45.6058C34.5209 44.8274 34.6142 44.0404 34.8766 43.303C35.139 42.5655 35.5638 41.8965 36.1196 41.3452C36.6753 40.794 37.3478 40.3747 38.0874 40.1183C38.827 39.862 39.6147 39.7751 40.3924 39.8641C41.3017 39.9111 42.2128 39.9111 43.1221 39.8641C43.9692 39.8641 44.1575 39.8641 44.1575 40.8995C44.1575 47.5354 44.1575 54.1714 44.1575 60.7603C44.1575 67.3492 44.1575 73.8439 44.1575 80.3858C44.3457 81.5153 43.828 81.5153 42.8397 81.5153ZM93.2918 95.1637C94.186 95.1637 94.4684 95.399 94.3742 96.2932C94.3272 97.1711 94.3272 98.0509 94.3742 98.9288C94.3742 99.3994 94.3742 99.6348 93.7154 99.5406H49.9463C49.005 99.5406 48.6756 99.3053 48.8167 98.364C48.9579 97.4228 48.3461 95.8697 49.0521 95.2579C49.758 94.646 50.9817 95.2579 52.0171 95.2579H93.2918V95.1637ZM57.0529 91.681C57.8749 89.7884 58.353 87.7644 58.4648 85.704C58.4648 84.9509 58.9825 85.1392 59.359 85.1392H83.3614C83.785 85.1392 84.3497 85.1392 84.3968 85.704C84.5338 87.7818 85.0775 89.8126 85.9969 91.681H57.0529ZM108.823 76.5266C108.811 77.2105 108.662 77.8851 108.383 78.5099C108.105 79.1347 107.703 79.6969 107.202 80.1627C106.701 80.6285 106.111 80.9884 105.468 81.2208C104.824 81.4532 104.141 81.5534 103.458 81.5153C102.328 81.5153 101.151 81.5153 100.022 81.5153C98.8923 81.5153 99.1277 81.0917 99.1277 80.4328V54.5008C99.1277 53.0889 98.657 52.3359 97.7158 52.1947C97.4823 52.1318 97.2379 52.121 96.9998 52.1631C96.7617 52.2053 96.5359 52.2993 96.3382 52.4386C96.1406 52.5778 95.976 52.7589 95.8562 52.9689C95.7364 53.1789 95.6643 53.4127 95.645 53.6537C95.6215 54.0769 95.6215 54.5012 95.645 54.9244C95.645 63.3958 95.645 71.8673 95.645 80.2916C95.645 81.327 95.645 81.6565 94.3742 81.6565H48.7226C47.8755 81.6565 47.6402 81.4212 47.6402 80.527V40.9936C47.6402 40.0523 47.8755 39.7699 48.8167 39.817C51.2641 39.817 53.5231 39.817 56.1587 39.817C56.9345 39.8971 57.7184 39.804 58.454 39.5445C59.1895 39.285 59.8582 38.8654 60.412 38.3162C60.9657 37.7669 61.3907 37.1016 61.6562 36.3682C61.9218 35.6349 62.0212 34.8517 61.9475 34.0753C61.9475 30.4043 61.9475 30.2631 65.7126 30.2631H78.7021C80.6788 30.2631 81.2435 30.8279 81.2435 32.7575C81.1032 33.7408 81.1032 34.7391 81.2435 35.7225C81.4631 36.8259 82.0459 37.824 82.8989 38.5576C83.7519 39.2912 84.826 39.718 85.9499 39.7699C88.7737 39.7699 91.6446 39.7699 94.4684 39.7699C95.2685 39.7699 95.5038 39.7699 95.5038 40.8053C95.5038 41.8407 95.5038 43.6292 95.5038 45.0411C95.5038 46.453 96.1627 47.1589 97.2451 47.1589C98.3276 47.1589 98.9865 46.3588 99.0335 45.0411C99.0806 43.7233 99.0335 42.1702 99.0335 40.7112C99.0335 40.0053 99.0335 39.7229 99.9277 39.7699C100.822 39.817 102.752 39.7699 104.163 39.7699C105.374 39.9297 106.485 40.5236 107.29 41.4413C108.095 42.359 108.539 43.5379 108.54 44.7587L108.823 76.5266ZM115.459 63.9135C115.479 64.3343 115.374 64.7516 115.156 65.1121C114.938 65.4726 114.617 65.7599 114.235 65.9373C112.917 66.5962 112.305 66.2667 112.305 64.8078V55.8657C112.305 55.3009 112.305 55.1597 113.011 55.1597C113.328 55.1332 113.646 55.1735 113.945 55.2781C114.245 55.3827 114.519 55.5492 114.75 55.7668C114.98 55.9843 115.163 56.248 115.285 56.5408C115.407 56.8335 115.466 57.1487 115.459 57.4658C115.27 59.6308 115.223 61.7486 115.223 63.9135H115.459Z" fill="white" stroke="white" stroke-width="2"/>
<path d="M26.8107 52.5035C27.2086 52.5035 27.5901 52.3455 27.8714 52.0642C28.1527 51.7829 28.3107 51.4013 28.3107 51.0035C28.3107 50.6156 28.1567 50.2436 27.8824 49.9694C27.6081 49.6951 27.2361 49.541 26.8482 49.541C26.4604 49.541 26.0884 49.6951 25.8141 49.9694C25.5398 50.2436 25.3857 50.6156 25.3857 51.0035C25.3853 51.3887 25.533 51.7593 25.7982 52.0385C26.0635 52.3178 26.4261 52.4843 26.8107 52.5035Z" fill="white"/>
<path d="M71.6878 34.4473C69.6553 34.4475 67.6683 35.0486 65.9765 36.175C64.2848 37.3014 62.9638 38.9028 62.1797 40.778C61.3956 42.6531 61.1834 44.7182 61.5698 46.7136C61.9562 48.709 62.9239 50.5456 64.3513 51.9925C65.7786 53.4394 67.6019 54.432 69.5919 54.8455C71.5818 55.259 73.6496 55.075 75.5352 54.3165C77.4209 53.558 79.0401 52.2589 80.1895 50.5826C81.3388 48.9063 81.9669 46.9276 81.9947 44.8954C82.0073 42.1449 80.9299 39.5015 78.9983 37.5434C77.0667 35.5854 74.4381 34.4721 71.6878 34.4473ZM71.6878 51.5784C70.7978 51.5661 69.9189 51.3786 69.1014 51.0267C68.2838 50.6747 67.5436 50.1651 66.923 49.527C66.3024 48.889 65.8136 48.1349 65.4845 47.3079C65.1553 46.4809 64.9923 45.5971 65.0048 44.7071C64.9919 43.8158 65.1588 42.931 65.4954 42.1055C65.8321 41.2801 66.3315 40.531 66.9641 39.9028C67.5966 39.2747 68.3492 38.7804 69.177 38.4495C70.0047 38.1187 70.8907 37.958 71.7819 37.977C73.5755 37.9894 75.2922 38.7073 76.5605 39.9756C77.8288 41.2439 78.5467 42.9606 78.5591 44.7542C78.5592 45.6707 78.3771 46.5781 78.0236 47.4236C77.67 48.2692 77.152 49.0361 76.4996 49.6798C75.8471 50.3234 75.0733 50.8311 74.223 51.1732C73.3728 51.5152 72.463 51.685 71.5466 51.6725L71.6878 51.5784Z" fill="white"/>
<path d="M71.5944 39.9102C71.1531 39.91 70.7291 40.082 70.4127 40.3896C70.0963 40.6973 69.9123 41.1162 69.9001 41.5574C69.9001 42.1221 69.9001 42.6398 69.9001 43.1575C69.9001 43.7223 69.9001 44.3341 69.9001 44.8989C69.8938 45.1191 69.9317 45.3384 70.0117 45.5437C70.0917 45.749 70.212 45.9362 70.3656 46.0942C70.5192 46.2522 70.7029 46.3777 70.9059 46.4634C71.1089 46.5492 71.327 46.5933 71.5473 46.5932C71.7737 46.6059 72.0003 46.573 72.2137 46.4965C72.4272 46.4199 72.6231 46.3014 72.7899 46.1478C72.9566 45.9942 73.0909 45.8086 73.1846 45.6022C73.2784 45.3958 73.3298 45.1726 73.3357 44.946C73.4063 43.8332 73.4063 42.7172 73.3357 41.6044C73.3122 41.1547 73.1197 40.7303 72.7969 40.4162C72.4741 40.1021 72.0446 39.9214 71.5944 39.9102Z" fill="white"/>
</g>
<defs>
<clipPath id="clip0_490_1479">
<rect width="120" height="120" fill="white"/>
</clipPath>
</defs>
</svg>
