<svg width="120" height="120" viewBox="0 0 120 120" fill="none" xmlns="http://www.w3.org/2000/svg">
<g clip-path="url(#clip0_490_1474)">
<path d="M91.3082 59.3466C91.0343 59.8558 90.5724 60.238 90.021 60.4118C87.4586 61.5558 84.7024 62.2035 81.8986 62.3204C80.2269 62.3304 78.5641 62.0757 76.9719 61.5658C75.1965 61.0332 73.5099 60.2343 71.7789 59.5242C70.1629 58.871 68.4286 58.5613 66.6864 58.6147C64.9441 58.6682 63.2321 59.0838 61.6592 59.8348C59.2597 60.9904 56.7018 61.7832 54.0694 62.1872C51.7875 62.4712 49.4711 62.2592 47.2786 61.5658C45.5032 60.9888 43.7722 60.2343 42.0412 59.5242C40.4251 58.871 38.6908 58.5613 36.9486 58.6147C35.2064 58.6682 33.4944 59.0838 31.9215 59.8348L31.0781 60.1899C30.7715 60.3268 30.4235 60.3385 30.1084 60.2224C29.7933 60.1063 29.536 59.8717 29.3915 59.5685C29.2575 59.2564 29.2523 58.904 29.377 58.5881C29.5017 58.2722 29.7462 58.0183 30.0573 57.8819C31.6946 57.0642 33.445 56.4958 35.2503 56.1953C38.1571 55.7286 41.1369 56.13 43.8166 57.3493C45.2812 57.9707 46.7459 58.5921 48.255 59.0803C51.2803 59.9434 54.5037 59.8032 57.4426 58.6808C59.0849 58.0595 60.6383 57.3937 62.2806 56.8167C65.8658 55.5665 69.7964 55.7575 73.2436 57.3493C74.7527 57.9707 76.2174 58.5921 77.6821 59.0803C80.764 59.9701 84.0522 59.8298 87.0472 58.6808L88.867 57.9707C90.021 57.5268 90.4205 57.6156 91.0862 58.5921L91.3082 59.3466Z" fill="white" stroke="white" stroke-width="1.5"/>
<path d="M91.2209 70.0895V70.7108C91.1976 70.9222 91.1141 71.1223 90.9804 71.2876C90.8466 71.4528 90.6682 71.5762 90.4663 71.6429C87.4614 73.0725 84.1613 73.772 80.8349 73.6846C78.3564 73.4596 75.9373 72.7984 73.6889 71.7317C72.1119 70.9666 70.4403 70.4144 68.7178 70.0895C66.6452 69.8258 64.5395 70.0852 62.5927 70.844C60.9949 71.4654 59.4858 72.2199 57.8436 72.7525C53.6132 74.1764 49.0018 73.9545 44.9276 72.1311C43.616 71.5147 42.267 70.9811 40.8886 70.5333C38.33 69.7326 35.5751 69.8265 33.0769 70.7996L31.3015 71.5098C30.4139 71.8648 29.7037 71.5098 29.393 70.9328C29.3299 70.761 29.3017 70.5783 29.31 70.3954C29.3184 70.2126 29.3631 70.0332 29.4417 69.8679C29.5202 69.7026 29.6309 69.5546 29.7674 69.4326C29.9038 69.3105 30.0633 69.217 30.2363 69.1574C32.1474 68.2732 34.1834 67.6893 36.2726 67.4264C38.8771 67.2565 41.4833 67.729 43.8624 68.8023C45.2827 69.3793 46.6586 70.0007 48.3009 70.4889C51.1891 71.4043 54.2896 71.4043 57.1778 70.4889C58.6905 70.0183 60.1728 69.455 61.6163 68.8023C63.5781 67.9245 65.7031 67.4707 67.8523 67.4707C70.0016 67.4707 72.1266 67.9245 74.0884 68.8023C75.537 69.4426 77.0186 70.0056 78.5269 70.4889C81.6408 71.3879 84.9647 71.2318 87.9808 70.0451L90.0225 69.2905C90.2805 69.2828 90.5345 69.3555 90.7492 69.4987C90.964 69.6419 91.1288 69.8483 91.2209 70.0895Z" fill="white" stroke="white" stroke-width="1.5"/>
<path d="M91.2202 81.097V81.7628C91.171 81.9773 91.0677 82.1756 90.92 82.3388C90.7724 82.502 90.5854 82.6246 90.3769 82.6949C87.6865 83.9409 84.7737 84.6351 81.8106 84.7366C79.5403 84.7296 77.2934 84.2772 75.1973 83.4051C73.777 82.8281 72.4011 82.2067 70.7588 81.7184C68.1615 80.8712 65.3487 80.9655 62.814 81.9847C61.083 82.6061 59.3964 83.405 57.621 83.982C53.5444 85.295 49.1306 85.0901 45.1933 83.4051C43.8173 82.7837 42.397 82.2067 40.7548 81.7184C38.171 80.9039 35.3883 80.982 32.8543 81.9404L30.9014 82.7393C30.7445 82.8245 30.5715 82.8761 30.3936 82.8909C30.2156 82.9056 30.0365 82.8832 29.8677 82.825C29.6989 82.7668 29.544 82.6741 29.4129 82.5529C29.2819 82.4316 29.1775 82.2844 29.1064 82.1205C29.0353 81.9567 28.9991 81.7799 29 81.6014C29.001 81.4228 29.039 81.2464 29.1119 81.0833C29.1847 80.9203 29.2906 80.7741 29.4229 80.6542C29.5553 80.5344 29.7111 80.4433 29.8805 80.3869C32.1675 79.226 34.6845 78.5892 37.2484 78.5227C39.3889 78.5774 41.4988 79.0446 43.4623 79.8987C44.9713 80.52 46.436 81.1414 47.9007 81.6297C51.0497 82.5417 54.4155 82.3538 57.4434 81.097C59.0857 80.52 60.6391 79.8099 62.2814 79.2329C65.8785 77.9612 69.8312 78.1524 73.2888 79.7655C74.7534 80.3869 76.2625 81.0083 77.7272 81.4965C80.8092 82.3863 84.0974 82.246 87.0924 81.097L89.2672 80.2537C89.4373 80.115 89.6422 80.0256 89.8595 79.9954C90.0769 79.9651 90.2984 79.9951 90.4999 80.0821C90.7014 80.1691 90.8751 80.3098 91.0021 80.4887C91.1291 80.6677 91.2046 80.8781 91.2202 81.097Z" fill="white" stroke="white" stroke-width="1.5"/>
<path d="M105.8 65V92.7848C105.789 93.7329 105.59 94.6693 105.215 95.5402C104.84 96.411 104.297 97.1992 103.616 97.8592C102.935 98.5193 102.131 99.0382 101.249 99.3861C100.367 99.734 99.4248 99.904 98.4768 99.8864H21.6469C20.699 99.904 19.7569 99.734 18.8749 99.3861C17.9929 99.0382 17.1884 98.5193 16.5077 97.8592C15.8271 97.1992 15.2837 96.411 14.9088 95.5402C14.5339 94.6693 14.335 93.7329 14.3235 92.7848V65H7V98.1997C7.00573 99.3264 7.23481 100.441 7.674 101.478C8.11319 102.516 8.75376 103.456 9.55865 104.244C10.3635 105.033 11.3168 105.654 12.3632 106.071C13.4096 106.489 14.5285 106.695 15.655 106.677H104.646C105.774 106.701 106.896 106.499 107.945 106.084C108.994 105.668 109.95 105.047 110.756 104.258C111.562 103.468 112.202 102.526 112.639 101.485C113.077 100.445 113.302 99.3281 113.301 98.1997V65H105.8Z" stroke="white" stroke-width="4.43847" stroke-miterlimit="10"/>
<path d="M29.2827 38.4161C29.409 37.2256 29.7873 36.0757 30.3924 35.0428L36.9613 23.636C37.3164 23.0146 37.8934 23.0146 38.2041 23.636C40.4677 27.5862 42.6425 31.4921 45.0393 35.4867C45.5858 36.5137 45.9116 37.6437 45.9956 38.804C46.0796 39.9644 45.9201 41.1295 45.5272 42.2246C45.1343 43.3196 44.5168 44.3204 43.7143 45.1627C42.9117 46.005 41.9419 46.6701 40.8671 47.1155C40.4233 47.1155 40.0682 47.1155 39.8907 46.8492C39.8477 46.766 39.8241 46.6742 39.8215 46.5807C39.819 46.4871 39.8376 46.3942 39.876 46.3088C39.9144 46.2235 39.9716 46.1479 40.0433 46.0878C40.115 46.0276 40.1994 45.9844 40.2901 45.9615C41.072 45.6248 41.7921 45.1598 42.4206 44.5855C43.5883 43.5364 44.3648 42.1217 44.6229 40.5733C44.881 39.0249 44.6052 37.4348 43.8409 36.0637C42.1543 32.9124 40.3345 29.8498 38.5591 26.7873L37.849 25.145C35.8517 28.5627 33.8544 31.9803 31.9014 35.4423C31.0399 36.8343 30.6925 38.4839 30.9195 40.1052C31.1464 41.7265 31.9335 43.2173 33.1442 44.3192C33.7498 44.9225 34.4757 45.3913 35.2747 45.6952C35.4356 45.7372 35.575 45.838 35.6653 45.9776C35.7557 46.1173 35.7905 46.2857 35.7629 46.4497C35.7629 46.8935 35.2747 47.0711 34.7864 46.8935C33.3809 46.3483 32.1631 45.408 31.2801 44.1861C30.3716 42.9827 29.8043 41.5568 29.6378 40.0583C29.6378 40.0583 29.6378 40.0583 29.6378 39.7476V38.7711C29.6378 38.7711 29.2384 38.5492 29.2827 38.4161Z" fill="white" stroke="white"/>
<path d="M37.4042 47.6456C37.2735 47.587 37.1693 47.4818 37.1119 47.3505C37.0544 47.2192 37.0479 47.0713 37.0935 46.9355C37.1314 46.7984 37.2121 46.6771 37.3239 46.5892C37.4358 46.5014 37.5728 46.4516 37.7149 46.4473C37.8552 46.4579 37.9891 46.51 38.0998 46.597C38.2104 46.6839 38.2927 46.8017 38.3363 46.9355C38.3726 47.0716 38.3617 47.2159 38.3052 47.345C38.2488 47.474 38.1502 47.58 38.0256 47.6456H37.4042Z" fill="white"/>
<path d="M37.7637 49.1973C37.79 49.2429 37.8039 49.2946 37.8039 49.3473C37.8039 49.3999 37.79 49.4517 37.7637 49.4973V49.2348V49.1973Z" fill="#646565"/>
<path d="M37.7236 50.4336C37.7511 50.4718 37.7659 50.5177 37.7659 50.5648C37.7659 50.6119 37.7511 50.6578 37.7236 50.6961V50.4336Z" fill="#7B7B7B"/>
<path d="M42.285 38.9923C42.3341 39.6043 42.2557 40.2199 42.0548 40.8C41.8538 41.3802 41.5347 41.9124 41.1175 42.3629C40.7004 42.8134 40.1943 43.1725 39.6313 43.4174C39.0682 43.6623 38.4605 43.7878 37.8465 43.7858C37.3583 43.7858 37.0476 43.5639 37.0032 43.1644C36.9588 42.765 37.2695 42.543 37.8021 42.4987C38.313 42.4682 38.8092 42.3156 39.2488 42.0535C39.6884 41.7914 40.0586 41.4275 40.3283 40.9926C40.598 40.5576 40.7592 40.0642 40.7985 39.5539C40.8378 39.0436 40.7539 38.5313 40.554 38.0602V37.8383C40.4886 37.6779 40.4841 37.4991 40.5413 37.3356C40.5985 37.1721 40.7135 37.0352 40.8647 36.9506C41.0135 36.884 41.1815 36.8744 41.3369 36.9235C41.4924 36.9726 41.6244 37.077 41.708 37.2169C42.032 37.7575 42.2292 38.3645 42.285 38.9923Z" fill="white"/>
<path d="M89.8246 32.4223V32.1116C89.7327 31.2166 89.4448 30.3528 88.9813 29.5817L84.0546 21.0154C83.9974 20.8929 83.9065 20.7893 83.7925 20.7167C83.6785 20.644 83.5461 20.6055 83.411 20.6055C83.2758 20.6055 83.1435 20.644 83.0295 20.7167C82.9155 20.7893 82.8246 20.8929 82.7674 21.0154L77.7963 29.5817C76.9988 30.9148 76.7296 32.4983 77.0418 34.0201C77.3047 35.4564 78.0514 36.7593 79.1577 37.7122C80.264 38.665 81.6632 39.2104 83.1225 39.2575C84.6105 39.3109 86.0715 38.8502 87.2598 37.953C88.448 37.0557 89.291 35.7766 89.647 34.3308C89.6064 34.0958 89.6064 33.8556 89.647 33.6207V32.7774C89.6582 32.6405 89.7218 32.5133 89.8246 32.4223ZM84.7647 37.8816C83.797 38.1935 82.7551 38.1896 81.7897 37.8705C80.8243 37.5513 79.9854 36.9335 79.3942 36.1062C78.7306 35.3385 78.3228 34.3831 78.2273 33.3729C78.1319 32.3626 78.3535 31.3478 78.8616 30.4694C80.2375 27.9838 81.7022 25.5427 83.3 23.1015L83.5663 22.6133C84.0102 23.279 84.3653 23.9448 84.7203 24.6106C85.83 26.4747 86.9396 28.3833 88.0048 30.2918C88.417 30.9828 88.6601 31.7614 88.7141 32.5642C88.7682 33.3669 88.6317 34.1711 88.3158 34.9111C87.9999 35.651 87.5136 36.3059 86.8964 36.8221C86.2793 37.3383 85.5489 37.7014 84.7647 37.8816Z" fill="white" stroke="white"/>
<path d="M66.3436 20.1251L63.1479 14.5326C63.0205 14.3256 62.8548 14.1448 62.6597 14H62.2602C62.0979 14.0808 61.96 14.2033 61.8607 14.3551C60.7067 16.3524 59.5527 18.3053 58.4431 20.3026C58.0388 21.0649 57.8655 21.9285 57.9443 22.7877C58.0232 23.6469 58.3507 24.4646 58.887 25.1406C59.3965 25.8051 60.0837 26.312 60.8691 26.6026C61.6545 26.8932 62.506 26.9557 63.3254 26.7828C64.0333 26.6557 64.6997 26.3584 65.2673 25.9167C65.8348 25.4749 66.2865 24.9018 66.5834 24.2468C66.8804 23.5917 67.0137 22.8743 66.9719 22.1563C66.9301 21.4384 66.7145 20.7413 66.3436 20.1251ZM65.6778 22.5662C65.6362 23.3575 65.3061 24.106 64.75 24.6703C64.1938 25.2346 63.4502 25.5756 62.6597 25.6288C61.8648 25.6942 61.0746 25.4557 60.4486 24.9615C59.8226 24.4673 59.4073 23.7541 59.2864 22.9657C59.1248 22.319 59.2202 21.6349 59.5527 21.0572L62.4377 15.9529L65.0121 20.3914C65.4489 21.0156 65.6816 21.7599 65.6778 22.5219V22.5662Z" fill="white" stroke="white"/>
<path d="M86.0066 32.6471C86.0221 33.3221 85.7849 33.9784 85.3415 34.4875C84.8981 34.9966 84.2805 35.3217 83.6099 35.399C83.4674 35.4382 83.316 35.429 83.1794 35.3728C83.0428 35.3165 82.9288 35.2164 82.8553 35.0883C82.8022 34.9877 82.7758 34.8752 82.7785 34.7615C82.7812 34.6478 82.813 34.5367 82.8709 34.4388C82.9288 34.3409 83.0107 34.2594 83.109 34.2022C83.2073 34.1449 83.3186 34.1138 83.4323 34.1118C83.6053 34.1063 83.7754 34.0659 83.9325 33.9931C84.0895 33.9203 84.2302 33.8165 84.3462 33.6881C84.4623 33.5596 84.5512 33.4091 84.6077 33.2455C84.6642 33.0819 84.6871 32.9086 84.6751 32.7359C84.715 32.5606 84.715 32.3786 84.6751 32.2033C84.6751 31.8038 84.6751 31.4487 84.9414 31.3156C85.1003 31.2393 85.2831 31.2291 85.4495 31.2874C85.6159 31.3456 85.7524 31.4675 85.8291 31.6263C85.9442 31.9544 86.0042 32.2994 86.0066 32.6471Z" fill="white"/>
</g>
<defs>
<clipPath id="clip0_490_1474">
<rect width="120" height="120" fill="white"/>
</clipPath>
</defs>
</svg>
