<svg width="120" height="121" viewBox="0 0 120 121" fill="none" xmlns="http://www.w3.org/2000/svg">
<path d="M83.9173 104H35.9505C27.1555 104 20 96.8445 20 88.0493V33.9505C20 25.1553 27.1555 18 35.9505 18H83.9173C92.7123 18 99.8678 25.1553 99.8678 33.9503V88.0493C99.8678 96.8445 92.7123 104 83.9173 104ZM35.9505 25.4679C31.2732 25.4679 27.4679 29.2731 27.4679 33.9503V88.0493C27.4679 92.7268 31.2732 96.5321 35.9505 96.5321H83.9173C88.5946 96.5321 92.3999 92.7268 92.3999 88.0493V33.9505C92.3999 29.2731 88.5946 25.4679 83.9173 25.4679H35.9505ZM78.7917 29.4231C73.4302 29.4231 69.0835 33.7696 69.0835 39.1313C69.0819 40.6161 69.4223 42.0813 70.0784 43.4133L63.1456 50.3462C62.2485 49.9909 61.2921 49.8086 60.3271 49.8091C59.285 49.8081 58.2537 50.0203 57.2966 50.4326L50.2036 43.3396C50.8169 42.0664 51.1607 40.6392 51.1607 39.1313C51.1607 33.7697 46.8142 29.4231 41.4525 29.4231C36.0909 29.4231 31.7442 33.7696 31.7442 39.1313C31.7442 44.4929 36.0907 48.8396 41.4525 48.8396C43.1741 48.8417 44.865 48.3835 46.3501 47.5126L53.2833 54.4457C52.8711 55.4028 52.659 56.4342 52.66 57.4764C52.66 60.7648 54.7306 63.5686 57.6388 64.6579V73.5723C53.5089 74.6888 50.4699 78.4598 50.4699 82.9428C50.4699 88.3043 54.8162 92.651 60.178 92.651C65.5397 92.651 69.8862 88.3045 69.8862 82.9428C69.8862 78.679 67.1364 75.06 63.3144 73.7554V64.5399C66.0648 63.3752 67.9946 60.6513 67.9946 57.4764C67.9954 56.3582 67.7508 55.2535 67.2782 54.2401L73.965 47.5533C75.4333 48.3979 77.0979 48.8415 78.7917 48.8396C84.1535 48.8396 88.5 44.493 88.5 39.1313C88.5 33.7697 84.1535 29.4231 78.7917 29.4231ZM41.4382 42.7159C39.4585 42.7159 37.8537 41.111 37.8537 39.1315C37.8537 37.1516 39.4585 35.5467 41.4382 35.5467C43.4179 35.5467 45.0228 37.1516 45.0228 39.1313C45.0228 41.111 43.4179 42.7158 41.4384 42.7158M63.7065 83.1405C63.7065 85.1201 62.1017 86.7249 60.122 86.7249C58.1423 86.7249 56.5374 85.1201 56.5374 83.1405C56.5374 81.1606 58.1422 79.5558 60.1219 79.5558C62.1015 79.5558 63.7065 81.1608 63.7065 83.1405ZM78.7773 42.7158C76.7976 42.7158 75.1929 41.1108 75.1929 39.1313C75.1929 37.1515 76.7976 35.5465 78.7773 35.5465C80.757 35.5465 82.3619 37.1515 82.3619 39.1311C82.3619 41.1108 80.757 42.7156 78.7775 42.7156" fill="white"/>
</svg>
