<svg width="121" height="120" viewBox="0 0 121 120" fill="none" xmlns="http://www.w3.org/2000/svg">
<path d="M70.9654 25.5366C72.1115 27.239 73.364 28.8672 74.7154 30.4116C76.9764 33.0299 78.4689 36.2227 79.0279 39.6366C79.0593 40.0795 79.2278 40.5016 79.51 40.8444C79.7923 41.1871 80.1742 41.4334 80.6029 41.5491C87.2262 44.0616 93.2725 47.8884 98.3779 52.7991C98.5434 52.9834 98.7186 53.1586 98.9029 53.3241C99.7654 54.2616 99.9154 55.0866 99.1654 55.6866C98.4154 56.2866 97.5904 56.0616 96.8779 55.3866C93.4646 51.9467 89.5441 49.0506 85.2529 46.7991C83.6779 45.9366 81.9904 45.2241 80.3404 44.4741C79.7029 44.1741 79.3654 44.2116 79.2904 45.0366C78.9238 49.015 77.3689 52.7911 74.8279 55.8741C74.0779 56.8116 75.0904 56.8116 75.5029 56.9616C79.7695 58.7525 83.6812 61.2925 87.0529 64.4616L87.7279 65.1741C87.9235 65.4486 88.0155 65.7836 87.9876 66.1195C87.9596 66.4554 87.8134 66.7705 87.5751 67.0089C87.3367 67.2472 87.0216 67.3934 86.6857 67.4213C86.3498 67.4493 86.0149 67.3573 85.7404 67.1616C84.8029 66.3741 83.9779 65.5491 83.0404 64.7616C80.0616 62.322 76.7051 60.3841 73.1029 59.0241C72.7716 58.8771 72.4054 58.8273 72.0469 58.8804C71.6883 58.9335 71.3523 59.0874 71.0779 59.3241C67.8016 61.7855 63.8435 63.1719 59.7475 63.2927C55.6515 63.4136 51.6185 62.263 48.2029 59.9991C47.8509 59.7715 47.4408 59.6504 47.0216 59.6504C46.6025 59.6504 46.1923 59.7715 45.8404 59.9991C41.6609 61.7857 37.847 64.3283 34.5904 67.4991C34.2699 67.8765 33.8357 68.1396 33.3529 68.2491C33.0857 68.2892 32.8128 68.2459 32.5711 68.1251C32.3295 68.0043 32.1311 67.8119 32.0029 67.5741C31.8144 67.2954 31.7369 66.9563 31.7855 66.6233C31.834 66.2903 32.0052 65.9875 32.2654 65.7741C33.6444 64.4151 35.1236 63.1616 36.6904 62.0241C38.8664 60.3811 41.2183 58.985 43.7029 57.8616C44.4904 57.4866 44.4904 57.2616 43.9279 56.6241C41.452 53.8688 39.8243 50.4571 39.2404 46.7991C39.2404 45.6741 38.7904 45.5616 37.7779 46.0117C32.5467 48.5043 27.7585 51.8357 23.6029 55.8741L23.0029 56.2491C22.7211 56.4361 22.3821 56.5168 22.0463 56.4767C21.7106 56.4367 21.4 56.2786 21.1701 56.0307C20.9402 55.7827 20.8059 55.4611 20.7913 55.1233C20.7767 54.7855 20.8827 54.4535 21.0904 54.1867C22.4028 52.8419 23.8062 51.589 25.2904 50.4367C29.0624 47.3765 33.2394 44.8525 37.7029 42.9367C38.1822 42.7703 38.6 42.4628 38.9012 42.0545C39.2024 41.6462 39.373 41.1562 39.3904 40.6491C39.79 36.7217 41.3722 33.008 43.9279 29.9991C44.7529 29.0241 45.5404 28.0116 46.2904 26.9616C46.4779 26.7367 46.8529 26.4366 46.6279 26.1366C46.4029 25.8366 45.9904 26.1366 45.6904 26.1366C32.9423 28.9605 21.2464 35.3153 11.9404 44.4742C10.8904 45.4867 10.0279 45.6366 9.42787 44.8866C8.82787 44.1366 9.20287 43.1241 9.91537 42.4116C20.0557 32.4328 32.9198 25.6746 46.8904 22.9866C47.5736 22.9329 48.2178 22.6469 48.7158 22.1761C49.2139 21.7053 49.5358 21.0783 49.6279 20.3991C50.3029 17.5492 50.5279 14.6241 51.0529 11.7366C51.2623 10.3829 51.7503 9.08735 52.4862 7.93193C53.222 6.77651 54.1897 5.78637 55.3279 5.02415C55.7674 4.60465 56.3516 4.37058 56.9591 4.37058C57.5667 4.37058 58.1509 4.60465 58.5904 5.02415C58.7675 5.17721 58.9938 5.26144 59.2279 5.26144C59.462 5.26144 59.6882 5.17721 59.8654 5.02415C60.2427 4.68939 60.7297 4.50452 61.2341 4.50452C61.7386 4.50452 62.2255 4.68938 62.6029 5.02415C63.752 5.76857 64.7349 6.74243 65.4899 7.88463C66.2449 9.02683 66.7557 10.3127 66.9904 11.6616C67.5529 14.6616 67.7404 17.6991 68.4904 20.6991C68.5678 21.177 68.8079 21.6134 69.17 21.9346C69.5322 22.2557 69.9942 22.4419 70.4779 22.4616C85.3083 24.3113 99.1448 30.9008 109.928 41.2491C111.203 42.4866 111.428 43.2366 110.753 43.9491C110.078 44.6616 109.253 44.5866 107.94 43.3116C98.1538 33.7216 85.6237 27.4173 72.0904 25.2741C71.8956 25.2231 71.6914 25.2203 71.4954 25.2661C71.2993 25.3118 71.1174 25.4047 70.9654 25.5366ZM59.1904 19.8366C57.4279 19.8366 55.6654 19.8366 53.8654 19.8366C53.7146 19.8101 53.5601 19.8145 53.4111 19.8497C53.2622 19.885 53.122 19.9502 52.9991 20.0415C52.8763 20.1327 52.7733 20.2481 52.6966 20.3805C52.6198 20.513 52.5709 20.6597 52.5529 20.8116C51.469 24.8627 49.3645 28.5682 46.4404 31.5741C44.1715 34.0398 42.6699 37.1129 42.1189 40.418C41.568 43.7231 41.9915 47.1171 43.3378 50.1855C44.6841 53.2538 46.8949 55.8636 49.7 57.6962C52.5052 59.5287 55.7834 60.5045 59.1341 60.5045C62.4848 60.5045 65.763 59.5287 68.5682 57.6961C71.3734 55.8636 73.5842 53.2538 74.9305 50.1855C76.2768 47.1171 76.7003 43.7231 76.1493 40.418C75.5983 37.1129 74.0967 34.0398 71.8279 31.5741C68.9177 28.6079 66.8248 24.9389 65.7529 20.9241C65.7353 20.7683 65.6854 20.6179 65.6063 20.4825C65.5272 20.3471 65.4207 20.2297 65.2936 20.1379C65.1665 20.0461 65.0216 19.9819 64.8682 19.9494C64.7148 19.9169 64.5563 19.9168 64.4029 19.9491C62.6779 19.8741 60.9529 19.8366 59.1904 19.8366ZM59.1904 12.6367L56.7529 12.6367C53.7904 12.6367 53.8279 12.6366 53.4529 15.5241C53.4529 16.5741 53.4529 17.0617 54.7279 17.0242C57.0154 17.0242 59.3404 17.0242 61.6654 17.0242C65.1154 17.0242 65.0779 17.0241 64.4779 13.6491C64.4741 13.5057 64.44 13.3648 64.3777 13.2355C64.3153 13.1063 64.2263 12.9918 64.1164 12.8997C64.0064 12.8075 63.8782 12.7397 63.7401 12.7008C63.602 12.6619 63.4572 12.6528 63.3154 12.6741L59.1904 12.6367ZM59.1904 9.63665L62.5279 9.63665C62.8279 9.63665 63.2404 9.63665 63.0904 9.11165C62.9322 8.70029 62.6368 8.35619 62.2541 8.13753C61.8715 7.91887 61.4251 7.83908 60.9904 7.91165C60.009 8.26685 58.9342 8.26685 57.9529 7.91165C56.6779 7.31165 56.1904 8.13664 55.5904 8.92415C54.9904 9.71164 55.4029 9.63665 55.9654 9.63665L59.1904 9.63665Z" fill="white" stroke="white" stroke-width="1.64384"/>
<path d="M59.9034 81.9738C64.4501 81.9067 68.9831 82.4876 73.3659 83.6988C75.2508 84.2071 76.9049 85.3452 78.0534 86.9238C81.8034 91.5363 84.2034 96.7113 87.2784 101.624C87.6825 102.29 88.147 102.918 88.6659 103.499C89.0944 103.892 89.4365 104.37 89.6705 104.903C89.9046 105.435 90.0254 106.011 90.0254 106.593C90.0254 107.174 89.9046 107.75 89.6705 108.282C89.4365 108.815 89.0944 109.293 88.6659 109.686C86.5394 111.574 83.9523 112.868 81.1659 113.436C75.7476 115.033 70.1581 115.977 64.5159 116.249C57.1304 116.696 49.7181 116.179 42.4659 114.711C38.9105 114.146 35.5053 112.871 32.4534 110.961C31.6404 110.385 30.9727 109.628 30.5034 108.749C29.9519 108.078 29.6504 107.236 29.6504 106.368C29.6504 105.499 29.9519 104.657 30.5034 103.986C32.2224 101.721 33.7645 99.3261 35.1159 96.8238C37.1025 93.282 39.3197 89.8746 41.7534 86.6238C42.6962 85.343 44.003 84.3759 45.5034 83.8488C50.1808 82.4983 55.0362 81.8661 59.9034 81.9738ZM59.9034 113.286C62.8325 113.342 65.7623 113.23 68.6784 112.949C73.4566 112.621 78.1651 111.624 82.6659 109.986C84.0559 109.535 85.3342 108.794 86.4159 107.811C86.6248 107.671 86.7958 107.481 86.9141 107.258C87.0324 107.036 87.0942 106.788 87.0942 106.536C87.0942 106.285 87.0324 106.037 86.9141 105.814C86.7958 105.592 86.6248 105.402 86.4159 105.261C85.6625 104.547 84.7859 103.975 83.8284 103.574C80.4994 102.109 76.975 101.136 73.3659 100.686C66.5047 99.643 59.5451 99.4039 52.6284 99.9738C47.6537 100.235 42.7357 101.155 38.0034 102.711C36.5914 103.183 35.2531 103.852 34.0284 104.699C32.3034 106.049 32.3409 107.136 34.0284 108.449C35.3659 109.352 36.8326 110.048 38.3784 110.511C45.3484 112.57 52.6016 113.507 59.8659 113.286L59.9034 113.286ZM36.8034 99.8988C51.9019 95.7747 67.83 95.7747 82.9284 99.8988C82.295 98.9595 81.7189 97.9827 81.2034 96.9738C80.7941 96.0272 80.1478 95.2021 79.3267 94.5781C78.5056 93.9541 77.5376 93.5522 76.5159 93.4113C69.173 91.5358 61.5659 90.9146 54.0159 91.5738C49.6517 91.9545 45.3401 92.7967 41.1534 94.0863C40.6284 94.0863 40.1409 94.3863 39.8409 94.9488L36.8034 99.8988ZM42.7284 90.5238C45.3512 89.8982 48.0048 89.4101 50.6784 89.0613C54.0247 88.5134 57.4129 88.2624 60.8034 88.3113C65.8551 88.4977 70.8776 89.1632 75.8034 90.2988C76.0659 90.2988 76.3284 90.2988 76.5159 90.2988C76.7034 90.2988 76.5159 89.8488 76.3284 89.6613C75.8575 88.8143 75.2133 88.0759 74.438 87.4944C73.6626 86.9129 72.7735 86.5013 71.8284 86.2863C64.0407 84.462 55.9441 84.398 48.1284 86.0988C46.9374 86.3553 45.8238 86.8899 44.8788 87.659C43.9338 88.428 43.1841 89.4097 42.6909 90.5238L42.7284 90.5238Z" fill="white" stroke="white" stroke-width="1.64384"/>
<path d="M60.0554 70.1227C65.7975 70.2184 71.301 72.4358 75.5054 76.3477C75.9929 76.8352 76.4429 77.2852 76.2929 78.0727C76.1429 78.8602 74.7554 79.5352 73.7804 78.6352C72.6119 77.5713 71.3576 76.6055 70.0304 75.7477C66.3288 73.6362 62.058 72.7393 57.8196 73.1833C53.5813 73.6273 49.5891 75.3899 46.4054 78.2227L46.2179 78.4102C44.9804 79.5727 44.1554 79.7227 43.4804 78.9727C42.8054 78.2227 43.0679 77.4352 44.3054 76.2727C48.6356 72.38 54.2332 70.1943 60.0554 70.1227Z" fill="white" stroke="white" stroke-width="1.64384"/>
<path d="M59.5676 58.05C58.738 58.0957 57.9059 58.0327 57.0926 57.8625C56.1926 57.6375 55.4801 57.1875 55.6676 56.175C55.8551 55.1625 56.6801 54.9 57.6926 55.05C59.7825 55.4239 61.9344 55.2294 63.9234 54.487C65.9124 53.7445 67.6654 52.4813 68.9992 50.8295C70.3329 49.1777 71.1983 47.1979 71.505 45.0971C71.8117 42.9963 71.5484 40.8517 70.7426 38.8875L70.7426 38.625C70.0676 37.0875 70.1801 36.2625 71.1551 35.8875C72.1301 35.5125 72.8051 35.8875 73.4426 37.575C74.421 39.8381 74.8129 42.3114 74.5821 44.7662C74.3512 47.2209 73.5051 49.5778 72.122 51.6188C70.7389 53.6599 68.8634 55.3192 66.669 56.4433C64.4746 57.5674 62.0322 58.12 59.5676 58.05Z" fill="white"/>
</svg>
