<svg width="120" height="120" viewBox="0 0 120 120" fill="none" xmlns="http://www.w3.org/2000/svg">
<path d="M6 112.209H100.173" stroke="white" stroke-width="5" stroke-miterlimit="10" stroke-linecap="round"/>
<path d="M88.3625 84.4235V102.095H84.4171V81.5741H88.0748L88.3625 84.4235ZM97.7463 88.8209V89.1086C97.7463 90.1862 97.6185 91.1863 97.3628 92.1087C97.1162 93.0311 96.7509 93.8348 96.2668 94.5197C95.7828 95.1955 95.18 95.7252 94.4585 96.1088C93.7462 96.4832 92.9243 96.6705 91.9927 96.6705C91.0886 96.6705 90.3032 96.4878 89.6365 96.1225C88.9698 95.7572 88.4081 95.2458 87.9515 94.5882C87.504 93.9215 87.1432 93.1498 86.8692 92.2731C86.5953 91.3963 86.3852 90.4556 86.2391 89.451V88.6976C86.3852 87.6199 86.5953 86.6336 86.8692 85.7386C87.1432 84.8344 87.504 84.0536 87.9515 83.396C88.4081 82.7294 88.9652 82.2134 89.6228 81.848C90.2895 81.4827 91.0703 81.3001 91.9653 81.3001C92.906 81.3001 93.7325 81.4782 94.4449 81.8343C95.1663 82.1905 95.7691 82.702 96.2531 83.3686C96.7463 84.0353 97.1162 84.8299 97.3628 85.7523C97.6185 86.6747 97.7463 87.6976 97.7463 88.8209ZM93.7873 89.1086V88.8209C93.7873 88.1907 93.7325 87.6108 93.6229 87.0811C93.5224 86.5423 93.3581 86.0719 93.1297 85.6701C92.9106 85.2683 92.6183 84.9577 92.253 84.7386C91.8968 84.5102 91.463 84.3961 90.9516 84.3961C90.4127 84.3961 89.9515 84.4828 89.568 84.6564C89.1935 84.8299 88.8876 85.081 88.6501 85.4098C88.4127 85.7386 88.2346 86.1313 88.1159 86.5879C87.9971 87.0446 87.9241 87.5606 87.8967 88.1359V90.0401C87.9423 90.7159 88.0702 91.3233 88.2803 91.8621C88.4903 92.3918 88.8145 92.8119 89.2529 93.1224C89.6913 93.4329 90.2666 93.5882 90.979 93.5882C91.4995 93.5882 91.9379 93.474 92.2941 93.2457C92.6503 93.0082 92.9379 92.684 93.1571 92.2731C93.3855 91.8621 93.5453 91.3872 93.6366 90.8484C93.7371 90.3095 93.7873 89.7296 93.7873 89.1086ZM104.048 75.3547V96.3965H100.103V75.3547H104.048ZM103.486 88.4647H102.404C102.413 87.4327 102.55 86.4829 102.815 85.6153C103.08 84.7386 103.459 83.9805 103.952 83.3412C104.445 82.6928 105.034 82.1905 105.719 81.8343C106.413 81.4782 107.18 81.3001 108.021 81.3001C108.751 81.3001 109.413 81.4051 110.007 81.6152C110.61 81.8161 111.126 82.1449 111.555 82.6015C111.993 83.049 112.331 83.6381 112.569 84.3687C112.806 85.0993 112.925 85.9852 112.925 87.0263V96.3965H108.952V86.9989C108.952 86.3413 108.856 85.8253 108.665 85.4509C108.482 85.0673 108.212 84.7979 107.856 84.6427C107.509 84.4783 107.08 84.3961 106.569 84.3961C106.002 84.3961 105.518 84.5011 105.116 84.7112C104.724 84.9212 104.409 85.2135 104.171 85.5879C103.934 85.9532 103.76 86.3824 103.651 86.8756C103.541 87.3688 103.486 87.8985 103.486 88.4647Z" fill="white"/>
<path d="M7.34863 66.5469C5.96792 66.5469 4.84863 67.6662 4.84863 69.0469C4.84863 70.4276 5.96792 71.5469 7.34863 71.5469V66.5469ZM7.34863 71.5469H35.6742V66.5469H7.34863V71.5469Z" fill="white"/>
<path d="M33.5273 67.6992L33.5273 103.749" stroke="white" stroke-width="5" stroke-miterlimit="10"/>
<path d="M73.6436 67.0234V103.748" stroke="white" stroke-width="5" stroke-miterlimit="10"/>
<path d="M49.1636 28.5813C47.8556 21.3876 49.1623 10.9239 57.0114 7" stroke="white" stroke-width="3.92388" stroke-linecap="round"/>
<path d="M57.4527 30.5423C56.1447 23.3485 57.4514 12.8848 65.3004 8.96094" stroke="white" stroke-width="3.92388" stroke-linecap="round"/>
<path d="M99.8238 71.5469C101.205 71.5469 102.324 70.4276 102.324 69.0469C102.324 67.6662 101.205 66.5469 99.8238 66.5469L99.8238 71.5469ZM71.7441 71.5469L99.8238 71.5469L99.8238 66.5469L71.7441 66.5469L71.7441 71.5469Z" fill="white"/>
<path d="M50.5804 83.5137L55.6284 83.5137C56.4016 83.5137 57.0283 83.0604 57.0283 82.5013L57.0283 41.3633C57.0283 40.8042 56.4016 40.351 55.6284 40.351L50.5804 40.351C49.8073 40.351 49.1806 40.8042 49.1806 41.3633L49.1806 82.5013C49.1806 83.0604 49.8073 83.5137 50.5804 83.5137Z" stroke="white" stroke-width="3.92388" stroke-miterlimit="10"/>
<path d="M52.9705 107.057C49.8796 107.057 46.9152 106.191 44.7296 104.65C42.544 103.109 41.3161 101.019 41.3161 98.84L41.3161 83.5153L64.858 83.5153L64.858 98.7167C64.8818 99.8201 64.5902 100.916 64.0004 101.938C63.4107 102.96 62.535 103.888 61.4256 104.666C60.3162 105.445 58.9958 106.057 57.5431 106.468C56.0904 106.879 54.5353 107.079 52.9705 107.057Z" stroke="white" stroke-width="3.92388" stroke-miterlimit="10"/>
<path d="M53.8226 101.417C52.2288 101.417 50.7002 100.971 49.5732 100.176C48.4462 99.3815 47.813 98.3038 47.813 97.18L47.813 89.2779L59.9524 89.2779L59.9524 97.1165C59.9647 97.6854 59.8143 98.2503 59.5102 98.7774C59.2061 99.3044 58.7546 99.7829 58.1825 100.184C57.6104 100.586 56.9295 100.902 56.1805 101.113C55.4314 101.325 54.6295 101.429 53.8226 101.417Z" stroke="white" stroke-width="2.02335" stroke-miterlimit="10"/>
<rect x="40.334" y="30.542" width="27.0993" height="9.56446" stroke="white" stroke-width="3.92388"/>
</svg>
