<svg width="120" height="120" viewBox="0 0 120 120" fill="none" xmlns="http://www.w3.org/2000/svg">
<path fill-rule="evenodd" clip-rule="evenodd" d="M32.0989 28.253C32.024 27.3803 31.992 26.5056 32.0017 25.6289C32.3623 21.5917 34.4353 18.8543 38.2217 17.4166C39.5308 17.0909 40.8584 16.9937 42.2064 17.125C43.4057 17.4115 44.5719 17.784 45.7051 18.2427C46.3747 13.6749 48.9667 10.9375 53.4801 10.0303C57.4259 9.75985 60.4232 11.2986 62.4699 14.6467C63.2795 16.2987 63.6683 18.0481 63.6362 19.8948C66.5917 18.3183 69.4266 18.4964 72.1401 20.4294C72.7145 20.9385 73.2169 21.5054 73.6465 22.1302C74.043 22.9515 74.4483 23.7613 74.8613 24.5598C75.2034 24.3075 75.5271 24.0322 75.8332 23.7337C77.5418 23.0381 79.2581 23.0381 80.9841 23.7337C84.6345 26.1268 85.4606 29.2854 83.4624 33.2095C82.856 34.0722 82.0299 34.6067 80.9841 34.8131C67.0212 34.8779 53.0593 34.8779 39.0964 34.8131C35.3819 34.062 33.0494 31.8753 32.0989 28.253Z" fill="white"/>
<path fill-rule="evenodd" clip-rule="evenodd" d="M62.478 24.6289C62.4683 25.5056 62.5004 26.3803 62.5752 27.253C62.446 26.8531 62.3818 26.4158 62.3809 25.9409C62.3809 25.4861 62.4129 25.0488 62.478 24.6289Z" fill="white"/>
<path fill-rule="evenodd" clip-rule="evenodd" d="M40.9433 39.7225C41.1086 39.707 41.2709 39.7231 41.4293 39.7711C43.1252 41.3317 43.9192 43.2594 43.8104 45.5538C43.4858 46.5195 42.822 47.1189 41.818 47.3517C39.2912 47.513 38.2056 46.3305 38.5623 43.8044C39.0326 42.2473 39.8267 40.8867 40.9433 39.7225Z" fill="white"/>
<path fill-rule="evenodd" clip-rule="evenodd" d="M52.3126 39.7225C52.4779 39.707 52.6402 39.7231 52.7986 39.7711C54.4663 41.3069 55.2594 43.202 55.1797 45.4566C54.5965 47.0041 53.4789 47.6358 51.8267 47.3517C50.1658 46.7348 49.534 45.5524 49.9315 43.8044C50.4019 42.2463 51.196 40.8857 52.3126 39.7225Z" fill="white"/>
<path fill-rule="evenodd" clip-rule="evenodd" d="M63.6851 39.7223C63.8182 39.7071 63.9485 39.7233 64.0738 39.7709C65.483 41.1311 66.3247 42.7833 66.6007 44.7275C66.5093 46.5327 65.554 47.4559 63.7337 47.4973C62.0688 47.3225 61.2097 46.3992 61.1582 44.7275C61.4459 42.7746 62.2885 41.1062 63.6851 39.7223Z" fill="white"/>
<path fill-rule="evenodd" clip-rule="evenodd" d="M75.0567 39.7188C75.3784 39.7909 75.6534 39.9529 75.8828 40.2047C77.0111 41.5063 77.6759 43.0127 77.8751 44.7239C77.8042 46.4791 76.8809 47.4024 75.1053 47.4937C72.8399 47.0801 72.0303 45.7519 72.6756 43.5091C73.1295 42.016 73.9225 40.7525 75.0567 39.7188Z" fill="white"/>
<path fill-rule="evenodd" clip-rule="evenodd" d="M57.7554 49.9281C58.044 49.9093 58.287 50.0065 58.4843 50.2196C59.739 51.563 60.4679 53.1504 60.671 54.9818C60.5845 56.6721 59.6933 57.5791 57.9984 57.703C56.2985 57.5582 55.3753 56.635 55.2285 54.9332C55.5687 53.005 56.4113 51.3367 57.7554 49.9281Z" fill="white"/>
<path fill-rule="evenodd" clip-rule="evenodd" d="M46.3853 49.9237C46.6506 49.9008 46.8771 49.9817 47.0656 50.1667C48.0861 51.349 48.815 52.6935 49.2523 54.2C49.4836 56.6577 48.366 57.8079 45.8994 57.6501C44.0849 56.9075 43.4852 55.5955 44.1014 53.714C44.5669 52.2637 45.3279 51.0003 46.3853 49.9237Z" fill="white"/>
<path fill-rule="evenodd" clip-rule="evenodd" d="M69.1301 49.9277C69.4547 49.9429 69.7297 50.0724 69.9562 50.3165C70.8056 51.3667 71.4529 52.5329 71.8999 53.8152C72.4199 56.469 71.3353 57.7486 68.6442 57.6541C66.9482 57.0006 66.3165 55.7858 66.749 54.0096C67.2213 52.4483 68.0144 51.0877 69.1301 49.9277Z" fill="white"/>
<path fill-rule="evenodd" clip-rule="evenodd" d="M52.3146 60.2269C52.5565 60.2073 52.783 60.2559 52.9949 60.3727C54.2787 61.7258 55.0241 63.3294 55.2302 65.1835C55.1495 66.8681 54.2583 67.7751 52.5575 67.9047C50.4194 67.6437 49.5447 66.445 49.9335 64.3088C50.3951 62.7355 51.1882 61.3749 52.3146 60.2269Z" fill="white"/>
<path fill-rule="evenodd" clip-rule="evenodd" d="M63.6857 60.1309C64.1085 60.2105 64.4487 60.4372 64.7062 60.8112C65.749 62.0712 66.3807 63.5128 66.6014 65.136C66.5178 66.92 65.5789 67.8433 63.7829 67.9059C61.7993 67.6338 60.9412 66.4999 61.2075 64.5043C61.6341 62.8078 62.4602 61.35 63.6857 60.1309Z" fill="white"/>
<path fill-rule="evenodd" clip-rule="evenodd" d="M49.5122 84.6441C50.5092 83.8199 51.6223 83.2005 52.8519 82.7856C56.8278 81.5174 60.8296 81.4293 64.8579 82.5207C66.0956 82.8775 67.2627 83.3946 68.3586 84.073C68.6166 84.2485 68.8534 84.449 69.0689 84.6746C69.2538 85.0424 69.1873 85.361 68.87 85.6297C68.6589 85.7399 68.4402 85.7581 68.214 85.6841C67.0499 84.8292 65.771 84.2166 64.3768 83.8468C60.9336 82.9434 57.4927 82.9505 54.054 83.868C52.74 84.2678 51.5142 84.8559 50.3763 85.6328C49.6997 85.6382 49.4118 85.3084 49.5122 84.6441Z" fill="white"/>
<path fill-rule="evenodd" clip-rule="evenodd" d="M53.6123 94.2814C54.7945 92.5134 56.438 91.5837 58.5434 91.4915C59.3 91.5794 60.0586 91.644 60.8191 91.6853C63.1589 92.0021 64.8703 93.2159 65.953 95.3271C67.1669 97.622 68.3992 99.9067 69.6497 102.182C70.7102 104.071 70.9442 106.056 70.3519 108.138C69.6207 110.082 68.2679 111.376 66.2935 112.02C65.8339 112.162 65.369 112.282 64.8979 112.379C64.0974 112.422 63.3052 112.51 62.5214 112.645C59.6211 112.608 56.7214 112.57 53.8212 112.532C51.929 112.18 50.4899 111.176 49.5042 109.518C48.2516 107.126 48.2258 104.718 49.4269 102.293C50.8311 99.6189 52.2263 96.9482 53.6123 94.2814Z" fill="white"/>
<path fill-rule="evenodd" clip-rule="evenodd" d="M51.6711 87.6305C52.0186 87.3194 52.4095 87.0726 52.8439 86.8902C54.2792 86.319 55.7666 85.9525 57.3067 85.7903C59.8307 85.5467 62.3076 85.7934 64.7377 86.5302C65.4396 86.7477 66.0967 87.0584 66.7095 87.4619C67.0833 87.8491 67.074 88.2264 66.6817 88.594C66.5217 88.6767 66.3507 88.7143 66.1695 88.7059C65.1114 88.1154 63.9877 87.6985 62.7982 87.4558C60.2724 87.0026 57.749 87.0381 55.2286 87.5616C54.2479 87.8263 53.3049 88.1943 52.4 88.6651C51.7962 88.5653 51.5534 88.2203 51.6711 87.6305Z" fill="white"/>
<path fill-rule="evenodd" clip-rule="evenodd" d="M61.8823 93.3867C62.1867 93.3485 62.4548 93.4363 62.6864 93.6503C63.1993 94.0167 63.6413 94.4552 64.0121 94.9657C65.5095 97.7068 66.9889 100.458 68.4505 103.219C69.2238 104.723 69.3525 106.277 68.8368 107.88C68.156 109.39 67.0211 110.376 65.4319 110.839C67.3598 108.897 67.8682 106.642 66.9569 104.073C65.6954 101.385 64.4077 98.7113 63.0938 96.05C62.6757 95.1655 62.2719 94.2778 61.8823 93.3867Z" fill="white"/>
<path fill-rule="evenodd" clip-rule="evenodd" d="M57.5239 99.5197C58.0378 98.9148 58.5637 98.9004 59.102 99.4758C59.3933 100.054 59.2569 100.506 58.6928 100.831C58.1025 100.973 57.6914 100.763 57.4589 100.203C57.4161 99.9645 57.4377 99.7369 57.5239 99.5197Z" fill="white"/>
<path fill-rule="evenodd" clip-rule="evenodd" d="M53.6669 107.106C53.8088 106.926 53.963 106.757 54.1289 106.599C54.9719 106.158 55.8648 105.887 56.8078 105.786C58.4443 105.615 60.0544 105.748 61.6382 106.185C62.1508 106.329 62.5899 106.594 62.9555 106.979C63.1229 107.175 63.1642 107.391 63.079 107.63C62.8983 107.916 62.6623 108.144 62.3709 108.314C61.7395 108.598 61.0832 108.791 60.4027 108.894C58.9888 109.086 57.5846 109.063 56.1908 108.826C55.5121 108.699 54.8677 108.474 54.2577 108.152C53.9672 107.987 53.7619 107.748 53.6423 107.438C53.6443 107.324 53.6528 107.213 53.6669 107.106Z" fill="white"/>
<path fill-rule="evenodd" clip-rule="evenodd" d="M57.5535 102.822C58.1453 102.17 58.6981 102.199 59.2121 102.911C59.391 103.45 59.2276 103.857 58.7224 104.133C57.9579 104.287 57.5377 103.974 57.4627 103.195C57.4944 103.066 57.5244 102.941 57.5535 102.822Z" fill="white"/>
</svg>
