<svg width="120" height="121" viewBox="0 0 120 121" fill="none" xmlns="http://www.w3.org/2000/svg">
<g clip-path="url(#clip0_490_1475)">
<path d="M45.3427 37.6826C47.7544 41.0932 49.2612 45.06 49.7221 49.2117C50.1146 53.4327 50.2398 57.6743 50.0969 61.9111V63.5019C50.0969 68.9876 50.0969 73.7876 50.1518 75.4973C51.2672 75.5613 54.1564 75.5613 59.7061 75.5613H69.3883L69.498 55.1271H58.1975L57.4112 54.3043C57.1918 54.1074 57.0138 53.8689 56.8875 53.6026C56.7612 53.3363 56.6892 53.0476 56.6755 52.7532C56.6619 52.4588 56.707 52.1646 56.8082 51.8878C56.9094 51.611 57.0647 51.3571 57.2649 51.1408L57.9872 50.2905L69.7449 50.2357L69.9095 49.1111C70.3418 44.8114 71.9206 40.7067 74.4809 37.2254C76.3197 35.0682 77.6702 32.5387 78.4397 29.8106C78.6683 28.4026 78.6317 28.1649 77.1049 26.6472C73.9877 23.622 70.0299 21.6081 65.7495 20.8689C61.7111 20.377 57.6279 20.377 53.5895 20.8689C50.5003 21.4521 47.5574 22.6423 44.9313 24.3706C43.4381 25.3859 42.1223 26.64 41.0364 28.0826C40.9124 29.3104 41.1012 30.5496 41.585 31.6849C42.5979 33.8246 43.8591 35.8377 45.3427 37.6826ZM70.3849 29.454C71.4729 30.7066 70.5312 32.7272 69.0226 32.3797C68.7126 32.2137 68.4515 31.9693 68.2654 31.671C68.0793 31.3726 67.9747 31.0306 67.962 30.6792C67.962 29.2803 69.5712 28.5306 70.3849 29.4997V29.454ZM58.7826 29.5363C59.8432 28.2838 61.6901 29.5363 61.2055 31.246C61.1105 31.6042 60.88 31.9113 60.5626 32.1024C60.2452 32.2935 59.8659 32.3537 59.5049 32.27H59.2855C59.0569 32.1435 58.8591 31.968 58.7063 31.7561C58.5534 31.5443 58.4492 31.3012 58.4012 31.0444C58.3531 30.7876 58.3624 30.5234 58.4283 30.2706C58.4943 30.0178 58.6153 29.7826 58.7826 29.582V29.5363ZM49.1644 29.5363C49.2746 29.3799 49.419 29.2505 49.5867 29.1581C49.7543 29.0657 49.9407 29.0127 50.1319 29.003C50.323 28.9933 50.5139 29.0272 50.69 29.1022C50.8661 29.1772 51.0229 29.2912 51.1484 29.4357C51.3605 29.6676 51.5058 29.9526 51.5687 30.2605C51.6316 30.5684 51.6098 30.8876 51.5057 31.1841C51.4015 31.4806 51.2189 31.7432 50.9773 31.9441C50.7356 32.145 50.444 32.2766 50.1335 32.3249C49.9324 32.3519 49.7279 32.3174 49.5468 32.226C49.3657 32.1346 49.2164 31.9906 49.1187 31.8129C48.8631 31.4949 48.7276 31.097 48.736 30.6892C48.7443 30.2813 48.896 29.8893 49.1644 29.582V29.5363ZM71.2717 87.1087H80.9814V78.5693C79.3174 78.4779 73.7677 78.4779 59.7243 78.4779C45.681 78.4779 40.1495 78.4779 38.4947 78.5785C38.4307 79.6116 38.4307 82.2356 38.4307 87.1179V94.9899H81.0454V92.8321H59.6329L58.7186 91.7533C58.4308 91.466 58.2185 91.1119 58.1004 90.7228C57.9824 90.3336 57.9623 89.9212 58.0421 89.5224C58.1483 88.9321 58.4139 88.382 58.8101 87.9316C59.6512 87.1087 59.6512 87.1087 71.2717 87.1087ZM53.2878 91.7807L52.4924 92.695H44.9313L44.081 91.6984C43.6621 91.2352 43.4139 90.6429 43.3773 90.0195C43.3408 89.3961 43.518 88.7789 43.8798 88.2699L44.6295 87.1819H52.6112L53.3884 88.0962C53.8527 88.6034 54.1018 89.2713 54.083 89.9588C54.0643 90.6462 53.7791 91.2995 53.2878 91.7807ZM151.765 98.7658L151.674 98.5464C151.63 98.3822 151.541 98.2334 151.418 98.1167L151.336 97.9887H151.016C150.897 97.9887 150.805 97.8516 150.677 97.8516H136.414V85.5362L137.265 84.6219C140.421 81.0385 144.073 77.923 148.108 75.3693C150.12 74.1168 150.558 73.6596 150.385 72.8916C148.992 70.7329 147.16 68.8917 145.009 67.4882C143.754 66.6261 142.27 66.161 140.748 66.1534C139.564 66.3934 138.471 66.9638 137.598 67.7987C136.724 68.6336 136.105 69.6988 135.811 70.8711C135.629 71.316 135.482 71.7745 135.372 72.2425C135.372 72.3796 135.299 72.5808 135.226 72.5808C135.153 72.5808 135.08 72.4071 135.08 72.2973C134.647 70.7448 133.962 69.2743 133.05 67.9454C132.226 66.9505 131.088 66.2666 129.822 66.0071C128.073 66.2097 126.387 66.7815 124.876 67.6847C123.364 68.5878 122.062 69.8017 121.054 71.2459C120.213 72.2151 119.994 72.5533 119.994 72.9556C119.994 73.7236 120.36 74.0893 122.17 75.1408C126.076 77.5679 129.616 80.5387 132.684 83.9636L134.019 85.4173V91.6161L133.964 97.7967H100.474V85.655L101.681 84.3202C104.737 80.9792 108.224 78.0585 112.049 75.6345C114.252 74.2996 114.371 74.2173 114.371 73.3579C114.371 72.7911 114.252 72.5899 113.356 71.5933C112.404 70.2158 111.185 69.0433 109.772 68.145C108.358 67.2468 106.779 66.641 105.128 66.3637C104.357 66.2745 103.581 66.4766 102.952 66.9305C101.397 67.7808 100.428 69.2071 99.2945 72.3339L99.1574 72.7636L99.0294 72.3339C98.8434 71.735 98.6267 71.146 98.3802 70.5694C98.0803 69.5562 97.5197 68.6396 96.7543 67.9112C95.989 67.1827 95.0458 66.668 94.0191 66.4185C91.6694 65.9339 88.3963 67.7534 85.0591 71.4562C83.4317 73.2848 83.5323 73.9339 85.6351 75.1133C89.728 77.6192 93.4411 80.698 96.6614 84.2562L97.914 85.6825V97.7784H83.3951V97.7236H35.7427L28.6204 97.7784H21.3062V85.3442L22.6136 83.9453C25.735 80.4769 29.341 77.4776 33.3198 75.0402C35.1484 73.9888 35.377 73.7053 35.377 72.8459C35.377 71.8219 31.793 68.2745 29.3701 66.9579C28.3086 66.1458 26.9691 65.7862 25.6436 65.9575C24.318 66.1288 23.1139 66.817 22.2936 67.8722C21.4102 69.1442 20.7343 70.5483 20.2913 72.0322C20.2913 72.5991 20.0445 72.2059 19.7062 71.1819C19.4414 70.1509 18.9725 69.1834 18.327 68.3369C17.6815 67.4904 16.8727 66.7821 15.9485 66.2539C14.6822 65.861 13.3208 65.9029 12.0811 66.3728C9.80561 67.4698 7.78214 69.0263 6.13821 70.9442C4.37365 72.7728 4.47422 73.4493 6.72335 74.8116C10.9552 77.4391 14.7884 80.6596 18.1062 84.375L18.9565 85.2893V97.6961H2.16108L-14.6526 97.6413V91.7442C-14.7354 89.6286 -14.6958 87.51 -14.5337 85.399C-11.1568 81.2207 -7.08311 77.6574 -2.49262 74.8665C-0.773766 73.8425 -0.664053 73.6779 -0.664053 72.8185C-0.664053 72.2242 -0.792053 72.0505 -1.51434 71.2002C-5.93947 66.3179 -9.57222 64.7941 -12.4126 66.6288C-13.6909 67.6282 -14.6452 68.9833 -15.1554 70.5236L-15.832 72.2333L-16.2709 70.9534C-16.7315 69.5914 -17.4553 68.3333 -18.4011 67.2505C-21.208 64.5077 -25.3314 65.8882 -30.1223 71.2368C-30.872 72.0596 -30.9725 72.2333 -30.9725 72.8551C-30.9725 73.7693 -30.8263 73.8516 -29.0343 74.9945C-24.8673 77.615 -21.0854 80.8029 -17.7977 84.4665L-17.0663 85.2345V97.7601H-29.8205C-29.9766 97.7613 -30.1309 97.7933 -30.2747 97.8541C-30.4184 97.9149 -30.5488 98.0035 -30.6583 98.1147C-30.7678 98.2259 -30.8544 98.3576 -30.913 98.5023C-30.9716 98.647 -31.0012 98.8018 -31 98.9578V99.6253C-30.9976 99.9373 -30.8725 100.236 -30.6519 100.457C-30.4312 100.677 -30.1326 100.802 -29.8205 100.805H150.677C150.989 100.802 151.288 100.677 151.509 100.457C151.729 100.236 151.854 99.9373 151.857 99.6253V98.9578C151.857 98.8664 151.784 98.8116 151.765 98.7658ZM127.171 49.0014C128.451 50.5923 128.817 50.8757 129.182 50.8757C129.442 50.8989 129.702 50.8289 129.915 50.6781C130.127 50.5273 130.279 50.3056 130.344 50.0528C130.462 49.7406 130.462 49.396 130.344 49.0837C129.459 47.6333 128.355 46.3287 127.07 45.2163C126.348 45.0426 125.617 45.7557 125.617 46.6334C125.617 47.0357 125.891 47.4928 127.171 49.0288V49.0014ZM134.65 61.4631C134.872 61.5777 135.125 61.6193 135.372 61.5819C135.647 61.4661 135.886 61.2816 136.069 61.0462C136.252 60.8109 136.37 60.5325 136.414 60.238C136.149 59.1152 135.707 58.0415 135.107 57.0562C134.43 56.398 133.141 57.1111 133.141 58.1077C133.394 59.3176 133.916 60.4551 134.668 61.4357L134.65 61.4631ZM97.3745 46.1214C97.3745 45.5271 97.0271 45.0974 95.6282 43.8723C93.9277 42.3637 93.4431 42.1443 92.8854 42.4551C92.6104 42.6349 92.3994 42.8972 92.2828 43.2044C92.1661 43.5116 92.1498 43.8478 92.2363 44.1648C93.2856 45.3746 94.4696 46.4605 95.7654 47.4014C96.3322 47.7488 97.3745 46.926 97.3745 46.1214ZM117.598 40.5443C118.218 41.0089 118.894 41.3929 119.61 41.6871C119.887 41.6319 120.14 41.4924 120.335 41.2879C120.529 41.0833 120.656 40.8236 120.698 40.5443C120.844 39.63 120.506 39.2094 118.659 37.9569C117.99 37.4701 117.258 37.0764 116.483 36.7866C115.569 36.7866 115.002 38.2129 115.614 39.0083C116.227 39.5798 116.892 40.094 117.598 40.5443ZM102.915 57.3397C103.056 57.6639 103.234 57.9707 103.445 58.254C103.552 58.3599 103.679 58.4428 103.818 58.4977C103.958 58.5526 104.107 58.5783 104.257 58.5732C104.407 58.568 104.555 58.5322 104.69 58.4678C104.826 58.4035 104.947 58.312 105.045 58.1991C105.246 57.8348 105.344 57.4226 105.328 57.007C105.312 56.5913 105.182 56.1879 104.954 55.8402C104.413 54.6317 103.729 53.4928 102.915 52.4483C102.69 52.3408 102.436 52.3131 102.193 52.3696C101.951 52.4261 101.734 52.5635 101.58 52.7591C101.032 53.39 101.096 54.0117 101.946 55.502C102.287 56.0932 102.61 56.7058 102.915 57.3397ZM106.408 34.4003V34.4552C107.138 34.8125 107.913 35.0708 108.712 35.2232C108.977 35.0843 109.204 34.8825 109.373 34.6354C109.542 34.3883 109.648 34.1035 109.681 33.806C109.657 33.4995 109.556 33.2039 109.388 32.9466C108.062 32.0793 106.618 31.408 105.1 30.9535C104.851 31.0015 104.622 31.1224 104.442 31.3009C104.301 31.4284 104.192 31.5879 104.125 31.7661C104.058 31.9443 104.035 32.1359 104.058 32.3249C104.069 32.6384 104.134 32.9476 104.25 33.2392C104.914 33.7213 105.64 34.1118 106.408 34.4003ZM94.5402 30.3043L94.778 30.0483C96.7162 30.5603 96.9814 30.5877 97.4385 30.158C97.7066 29.8846 97.8567 29.5169 97.8567 29.134C97.8567 28.7511 97.7066 28.3835 97.4385 28.11C96.1736 27.4732 94.805 27.0676 93.3974 26.9123C92.7483 26.83 92.602 26.8575 92.2637 27.2872C92.0645 27.4956 91.9361 27.7615 91.8968 28.0471C91.8574 28.3327 91.909 28.6235 92.0443 28.878C92.2363 29.4449 92.5745 29.7283 94.5402 30.3043ZM-14.36 59.9271C-13.5372 57.9888 -13.8023 56.8002 -15.0183 56.8002C-15.6674 56.8002 -15.6949 56.8551 -16.4171 58.3911C-17.1394 59.9271 -17.1486 61.0059 -16.2983 61.4357C-15.448 61.8654 -15.0366 61.5454 -14.36 59.9271ZM24.6616 43.0769C23.8048 43.7453 23.0092 44.4888 22.2845 45.2986C22.101 45.6453 22.0444 46.0452 22.1245 46.4292C22.2047 46.8131 22.4165 47.157 22.7233 47.4014C23.281 47.6574 23.6376 47.5203 25.3107 46.094C27.3222 44.3843 27.6147 43.8174 26.9564 42.7934C26.4719 42.0803 25.7496 42.1991 24.6616 43.0769ZM-9.88003 50.9031C-9.42288 50.9031 -9.20345 50.702 -7.79546 49.0745C-6.38746 47.4471 -6.25032 47.246 -6.25032 46.6608C-6.25032 45.8288 -6.70746 45.262 -7.38403 45.262C-7.82289 45.262 -8.08803 45.4631 -8.88346 46.3408C-11.0412 48.7363 -11.3795 49.4768 -10.712 50.4368C-10.6389 50.5913 -10.5196 50.7193 -10.3705 50.8028C-10.2214 50.8864 -10.05 50.9214 -9.88003 50.9031ZM14.321 58.1351C14.423 58.2644 14.5539 58.3679 14.7032 58.4373C14.8525 58.5067 15.016 58.5401 15.1806 58.5348C15.3452 58.5294 15.5062 58.4855 15.6507 58.4066C15.7952 58.3276 15.9191 58.2158 16.0125 58.0802C16.9116 56.6878 17.6682 55.2083 18.2707 53.6643C18.2193 53.3638 18.0936 53.0809 17.905 52.8414C17.0548 51.6711 16.2136 52.302 14.7599 55.1454C13.7999 56.8825 13.7999 57.4768 14.321 58.1351ZM21.9736 30.3317C22.1605 30.5488 22.4148 30.6969 22.6959 30.7523C24.2125 30.5232 25.6897 30.0831 27.0844 29.4449C27.2875 29.1642 27.3967 28.8267 27.3967 28.4803C27.3967 28.1339 27.2875 27.7964 27.0844 27.5158C26.6456 26.9672 26.1153 26.9672 23.9302 27.6255C22.6227 27.9638 22.1016 28.1923 21.9005 28.4758C21.7202 28.751 21.6319 29.0763 21.6484 29.4049C21.6648 29.7335 21.7851 30.0484 21.9919 30.3043L21.9736 30.3317ZM-1.03891 41.2574C-0.851757 41.4755 -0.591911 41.6185 -0.307484 41.6597C1.00604 41.0644 2.23562 40.299 3.34965 39.3832C3.54131 39.265 3.69547 39.0949 3.7942 38.8926C3.89294 38.6903 3.93218 38.4641 3.90736 38.2403C3.90736 37.6734 3.83422 37.4723 3.46851 37.1889C3.25003 36.9931 2.9806 36.8631 2.69136 36.814C1.30596 37.4674 0.0317688 38.3344 -1.08462 39.3832C-1.29755 39.6491 -1.41356 39.9796 -1.41356 40.3203C-1.41356 40.661 -1.29755 40.9915 -1.08462 41.2574H-1.03891ZM34.6364 27.6803C34.8204 27.7706 35.0182 27.8293 35.2216 27.854C35.8841 27.71 36.5564 27.6152 37.233 27.5706C37.9526 27.5227 38.6613 27.3687 39.3358 27.1135C39.492 26.9599 39.6132 26.7746 39.6914 26.5701C39.7696 26.3656 39.8029 26.1466 39.7891 25.928C39.7752 25.7095 39.7145 25.4965 39.611 25.3035C39.5076 25.1105 39.3638 24.942 39.1895 24.8095C38.8513 24.5809 38.5404 24.5809 36.8398 24.8095C34.7096 25.0655 34.225 25.2666 33.9873 26.0895C33.9071 26.4026 33.9266 26.7329 34.043 27.0344C34.1593 27.3359 34.3667 27.5936 34.6364 27.7718V27.6803ZM80.0031 27.1409C80.7221 27.3284 81.4519 27.4719 82.1883 27.5706V27.6255C82.8933 27.7432 83.6046 27.8196 84.3186 27.854C84.4182 27.8179 84.5234 27.7993 84.6294 27.7992C84.9494 27.7992 85.3608 27.086 85.3608 26.5192C85.3608 25.4586 85.0408 25.1752 83.3037 24.8918C81.5666 24.6083 80.4146 24.5809 80.0763 24.8918C79.8305 25.093 79.6522 25.3648 79.5656 25.6705C79.4789 25.9762 79.4881 26.3011 79.5917 26.6015C79.6283 26.8575 79.8569 27.1409 80.0031 27.1409ZM81.2649 37.902C81.8444 38.4001 82.4984 38.8042 83.2031 39.0997C85.0866 40.014 85.7723 40.0963 86.2568 39.5843C86.4445 39.3182 86.549 39.0024 86.5571 38.6769C86.5653 38.3514 86.4767 38.0309 86.3026 37.7557C85.1187 36.926 83.8307 36.2558 82.4717 35.7626C82.2087 35.7242 81.9402 35.7662 81.7015 35.8833C81.4629 36.0004 81.2653 36.1869 81.1347 36.4185C81.0041 36.65 80.9466 36.9156 80.9698 37.1804C80.9931 37.4452 81.0959 37.6968 81.2649 37.902ZM33.5484 39.95V39.7214C33.9141 39.8677 34.353 39.7214 36.3827 38.8072C37.9553 38.1306 38.3941 37.6734 38.3941 36.9786C38.3941 36.2837 38.2296 35.8997 37.745 35.726C37.2604 35.5523 36.4833 35.726 34.4718 36.8689C33.1187 37.5729 32.7804 37.9477 32.7804 38.6974C32.8027 38.9514 32.8836 39.1968 33.0169 39.4142C33.1502 39.6316 33.3321 39.815 33.5484 39.95ZM10.9291 35.2506L12.8856 34.4003C15.3268 33.3763 15.7199 32.9192 15.2353 31.7215C15.1418 31.5124 14.9975 31.3301 14.8154 31.1911C14.6333 31.0522 14.4194 30.961 14.193 30.926C12.7669 31.404 11.3893 32.0163 10.0788 32.7546C9.94362 32.9252 9.84581 33.1223 9.79166 33.3331C9.73751 33.5439 9.72823 33.7637 9.76443 33.9783C9.80063 34.1929 9.8815 34.3975 10.0018 34.5789C10.1221 34.7603 10.2791 34.9143 10.4628 35.0312L10.9291 35.2506Z" fill="white"/>
</g>
<defs>
<clipPath id="clip0_490_1475">
<rect width="120" height="120" fill="white" transform="translate(0 0.5)"/>
</clipPath>
</defs>
</svg>
