<svg width="120" height="120" viewBox="0 0 120 120" fill="none" xmlns="http://www.w3.org/2000/svg">
<circle cx="59.5" cy="61.5" r="43.8919" stroke="white" stroke-width="6.78375"/>
<path fill-rule="evenodd" clip-rule="evenodd" d="M63.5567 32.9677C65.3331 32.9349 66.3187 33.7798 66.5138 35.5024C66.0187 42.5326 65.7369 49.5735 65.6689 56.6249C68.6295 56.5547 71.5866 56.6251 74.5404 56.8362C75.9662 57.2711 76.4592 58.1864 76.019 59.5821C69.1191 71.4107 62.2188 83.2393 55.3189 95.0679C53.1507 96.5271 51.8129 95.9639 51.3056 93.3781C52.4648 86.2167 53.4505 79.0351 54.2628 71.8331C50.4581 71.9033 46.6561 71.8331 42.8566 71.6219C42.4034 71.0672 42.1218 70.4336 42.0117 69.7209C48.8845 57.2358 56.0662 44.9848 63.5567 32.9677Z" fill="white"/>
</svg>
