<svg width="120" height="120" viewBox="0 0 120 120" fill="none" xmlns="http://www.w3.org/2000/svg">
<g clip-path="url(#clip0_490_1498)">
<g clip-path="url(#clip1_490_1498)">
<path fill-rule="evenodd" clip-rule="evenodd" d="M60.4585 114.232C60.163 114.232 59.8675 114.232 59.572 114.232C58.976 114.013 58.5985 113.586 58.4392 112.952C58.3735 111.803 58.3735 110.654 58.4392 109.504C58.5123 109.046 58.7257 108.669 59.0795 108.372C60.3356 107.777 61.1401 108.154 61.4927 109.504C61.5584 110.686 61.5584 111.868 61.4927 113.05C61.302 113.585 60.9573 113.979 60.4585 114.232Z" fill="white"/>
<path fill-rule="evenodd" clip-rule="evenodd" d="M80.749 95.4186C81.8427 94.8321 82.6963 95.062 83.31 96.1081C83.726 96.9066 84.1693 97.6946 84.6398 98.4721C85.1013 99.5177 84.8222 100.289 83.8025 100.787C83.0377 100.938 82.4302 100.692 81.9803 100.048C81.4221 99.0631 80.864 98.0781 80.3058 97.0931C80.203 96.466 80.3508 95.9079 80.749 95.4186Z" fill="white"/>
<path fill-rule="evenodd" clip-rule="evenodd" d="M36.9162 100.836C35.6475 100.832 35.04 100.208 35.094 98.9644C35.6751 97.8249 36.2989 96.7086 36.9655 95.6154C37.6098 95.0613 38.3157 94.9791 39.0833 95.3692C39.5607 95.8495 39.7413 96.424 39.625 97.0929C39.0274 98.0526 38.4692 99.0376 37.9505 100.048C37.6663 100.417 37.3216 100.68 36.9162 100.836Z" fill="white"/>
<path fill-rule="evenodd" clip-rule="evenodd" d="M60.4574 98.6667C59.5333 98.7549 58.8603 98.3938 58.4381 97.5832C58.3724 96.3027 58.3724 95.0222 58.4381 93.7417C58.9472 92.5185 59.7844 92.223 60.9499 92.8552C61.1468 93.0515 61.2945 93.2814 61.3931 93.5447C61.4588 94.9237 61.4588 96.3027 61.3931 97.6817C61.1939 98.1269 60.882 98.4552 60.4574 98.6667Z" fill="white"/>
<path fill-rule="evenodd" clip-rule="evenodd" d="M83.3105 96.1055C82.6968 95.0594 81.8432 94.8295 80.7495 95.416C80.8658 95.2668 80.9643 95.1026 81.045 94.9235C81.0778 94.9892 81.1107 95.0548 81.1435 95.1205C81.5321 95.0448 81.9261 94.9956 82.3255 94.9727C82.2077 94.9083 82.2077 94.859 82.3255 94.825C82.6245 94.9649 82.8707 95.1619 83.0643 95.416C83.0971 95.3832 83.13 95.3503 83.1628 95.3175C83.2554 95.5709 83.3046 95.8335 83.3105 96.1055Z" fill="white"/>
<path fill-rule="evenodd" clip-rule="evenodd" d="M100.942 90.8885C100.644 90.9047 100.349 90.8883 100.055 90.8392C99.0044 90.2482 97.9538 89.6572 96.9031 89.0662C95.9065 88.0533 96.005 87.1668 97.1986 86.4067C97.5175 86.272 97.8459 86.2392 98.1836 86.3082C99.2343 86.8992 100.285 87.4902 101.336 88.0812C101.98 88.7311 102.095 89.4699 101.68 90.2975C101.436 90.5082 101.19 90.7052 100.942 90.8885Z" fill="white"/>
<path fill-rule="evenodd" clip-rule="evenodd" d="M19.9747 90.8867C18.231 90.879 17.6565 90.0582 18.2509 88.4242C19.3269 87.7089 20.4268 87.0359 21.5507 86.405C22.568 86.1094 23.274 86.4541 23.6684 87.4392C23.745 88.0962 23.5315 88.638 23.0282 89.0645C21.9715 89.6248 20.9537 90.2323 19.9747 90.8867Z" fill="white"/>
<path fill-rule="evenodd" clip-rule="evenodd" d="M73.5578 85.374C73.565 85.2235 73.4993 85.125 73.3608 85.0784C73.0565 84.5683 72.7774 84.0429 72.5236 83.5024C72.4435 82.0725 73.1166 81.4651 74.5428 81.6802C74.7484 81.7582 74.929 81.8732 75.0846 82.0249C75.783 83.0602 76.4069 84.1437 76.9561 85.2755C77.1734 86.6996 76.566 87.3727 75.1338 87.2947C74.3646 86.8573 73.8393 86.217 73.5578 85.374Z" fill="white"/>
<path fill-rule="evenodd" clip-rule="evenodd" d="M44.8951 87.3429C43.5254 87.4336 42.8524 86.8097 42.8759 85.4714C43.4603 84.3299 44.0841 83.2136 44.7474 82.1224C45.2664 81.655 45.8738 81.5073 46.5697 81.6792C47.306 82.1141 47.5851 82.7543 47.4069 83.5999C46.8407 84.6339 46.2497 85.6517 45.6339 86.6534C45.3979 86.9063 45.1516 87.1361 44.8951 87.3429Z" fill="white"/>
<path fill-rule="evenodd" clip-rule="evenodd" d="M73.559 85.3691C73.4205 85.3226 73.3548 85.224 73.362 85.0736C73.5005 85.1202 73.5662 85.2187 73.559 85.3691Z" fill="white"/>
<path fill-rule="evenodd" clip-rule="evenodd" d="M87.3494 83.1027C86.9311 83.1345 86.5371 83.0524 86.1674 82.8565C85.1986 82.257 84.2136 81.6825 83.2124 81.1327C82.4093 80.0404 82.6063 79.1703 83.8034 78.5225C84.1317 78.4568 84.4601 78.4568 84.7884 78.5225C85.8224 79.0887 86.8402 79.6797 87.8419 80.2955C88.5887 81.0888 88.6215 81.9096 87.9404 82.758C87.7211 82.8507 87.5241 82.9656 87.3494 83.1027Z" fill="white"/>
<path fill-rule="evenodd" clip-rule="evenodd" d="M33.6653 83.0075C32.0253 83.2495 31.3194 82.56 31.5475 80.939C31.6911 80.6967 31.8717 80.4833 32.0893 80.2988C33.0608 79.7641 34.013 79.2059 34.9458 78.6243C35.9752 78.2409 36.7139 78.5529 37.162 79.56C37.3229 80.2727 37.1095 80.8473 36.5218 81.2838C35.5307 81.8113 34.5785 82.386 33.6653 83.0075Z" fill="white"/>
<path fill-rule="evenodd" clip-rule="evenodd" d="M64.6948 69.2178C64.7839 69.1479 64.8167 69.0494 64.7933 68.9223C61.5756 68.9223 58.358 68.9223 55.1403 68.9223C55.1403 69.3163 55.1403 69.7103 55.1403 70.1043C55.1403 70.17 55.1403 70.2356 55.1403 70.3013C54.549 71.2239 53.9909 72.1761 53.4658 73.1578C52.4869 74.1272 51.584 74.0615 50.757 72.9608C50.6914 72.5996 50.6914 72.2385 50.757 71.8773C50.9527 71.3547 51.1989 70.8622 51.4958 70.3998C51.6343 70.3532 51.7 70.2547 51.6928 70.1043C51.8887 69.7786 52.0857 69.4503 52.2838 69.1193C51.1361 69.0372 49.9869 68.988 48.8363 68.9715C48.2831 68.845 47.8728 68.533 47.605 68.0358C47.5559 67.4457 47.5394 66.8547 47.5558 66.2628C55.5671 66.2628 63.5785 66.2628 71.5898 66.2628C71.5898 66.7881 71.5898 67.3135 71.5898 67.8388C71.5898 67.9045 71.5898 67.9701 71.5898 68.0358C71.4088 68.4976 71.0805 68.7931 70.6048 68.9223C69.6198 68.9223 68.6348 68.9223 67.6498 68.9223C67.6265 69.0494 67.6593 69.1479 67.7483 69.2178C68.2941 70.1127 68.7866 71.032 69.2258 71.9758C69.2414 72.3109 69.2085 72.6393 69.1273 72.9608C68.2971 74.1095 67.3942 74.1423 66.4186 73.0593C65.8604 72.0743 65.3023 71.0893 64.7441 70.1043C64.695 69.8106 64.6786 69.5151 64.6948 69.2178Z" fill="white"/>
<path fill-rule="evenodd" clip-rule="evenodd" d="M69.1272 72.957C69.2084 72.6355 69.2413 72.3071 69.2257 71.972C69.3378 72.2482 69.3543 72.5437 69.275 72.8585C69.2372 72.9133 69.188 72.9461 69.1272 72.957Z" fill="white"/>
<path fill-rule="evenodd" clip-rule="evenodd" d="M51.4949 70.3965C51.4877 70.2461 51.5534 70.1476 51.6919 70.101C51.699 70.2514 51.6333 70.3499 51.4949 70.3965Z" fill="white"/>
<path fill-rule="evenodd" clip-rule="evenodd" d="M55.1398 70.298C55.1398 70.2323 55.1398 70.1667 55.1398 70.101C55.2365 69.76 55.2693 69.3988 55.2383 69.0175C58.4072 68.9848 61.5592 69.0177 64.6943 69.116C64.5712 69.1236 64.4892 69.1893 64.4481 69.313C63.0088 69.1825 61.5476 69.1168 60.0648 69.116C58.6201 69.1324 57.1755 69.1488 55.7308 69.1652C55.6816 69.2145 55.6323 69.2637 55.5831 69.313C55.5878 69.7091 55.4893 70.0702 55.2876 70.3965C55.2498 70.3417 55.2006 70.3089 55.1398 70.298Z" fill="white"/>
<path fill-rule="evenodd" clip-rule="evenodd" d="M67.746 69.2168C67.657 69.147 67.6242 69.0485 67.6475 68.9213C68.6325 68.9213 69.6175 68.9213 70.6025 68.9213C69.6298 68.9551 68.6775 69.0536 67.746 69.2168Z" fill="white"/>
<path fill-rule="evenodd" clip-rule="evenodd" d="M55.1395 70.1035C55.1395 69.7095 55.1395 69.3155 55.1395 68.9215C58.3572 68.9215 61.5748 68.9215 64.7925 68.9215C64.8159 69.0487 64.7831 69.1472 64.694 69.217C64.694 69.1842 64.694 69.1513 64.694 69.1185C61.5589 69.0202 58.4069 68.9873 55.238 69.02C55.269 69.4013 55.2362 69.7625 55.1395 70.1035Z" fill="white"/>
<path fill-rule="evenodd" clip-rule="evenodd" d="M103.01 64.5857C104.351 64.4906 105.697 64.4578 107.048 64.4872C107.632 64.6443 108.026 65.0055 108.23 65.5707C108.23 65.8334 108.23 66.096 108.23 66.3587C108.019 66.915 107.625 67.2925 107.048 67.4914C105.728 67.5844 104.415 67.5516 103.108 67.3929C102.773 67.255 102.494 67.0416 102.271 66.7527C101.922 65.8141 102.168 65.0917 103.01 64.5857Z" fill="white"/>
<path fill-rule="evenodd" clip-rule="evenodd" d="M91.7823 67.4431C90.2649 67.4877 88.7546 67.4384 87.2513 67.2954C86.5978 66.8112 86.3843 66.1709 86.6111 65.3746C86.83 64.9917 87.1418 64.7126 87.5468 64.5374C88.9258 64.4717 90.3048 64.4717 91.6838 64.5374C92.3199 64.8394 92.6482 65.3482 92.6688 66.0641C92.6722 66.353 92.5901 66.6157 92.4226 66.8521C92.1926 67.0393 91.9791 67.2363 91.7823 67.4431Z" fill="white"/>
<path fill-rule="evenodd" clip-rule="evenodd" d="M11.6992 66.3618C11.6992 66.0991 11.6992 65.8365 11.6992 65.5738C11.9761 64.9898 12.4357 64.6122 13.0782 64.441C14.2602 64.3753 15.4422 64.3753 16.6242 64.441C16.9959 64.5693 17.3079 64.7827 17.5599 65.0813C18.0592 66.0625 17.8458 66.8342 16.9197 67.396C15.5407 67.4617 14.1617 67.4617 12.7827 67.396C12.2393 67.2302 11.8782 66.8854 11.6992 66.3618Z" fill="white"/>
<path fill-rule="evenodd" clip-rule="evenodd" d="M32.2872 67.5427C31.0719 67.5591 29.8571 67.5427 28.6427 67.4934C27.5221 67.1949 27.1118 66.4889 27.4114 65.3757C27.6512 64.8406 28.0615 64.5286 28.6427 64.4399C29.8247 64.3742 31.0067 64.3742 32.1887 64.4399C33.2529 64.8115 33.6305 65.5503 33.3214 66.6562C33.0747 67.0808 32.7299 67.3763 32.2872 67.5427Z" fill="white"/>
<path fill-rule="evenodd" clip-rule="evenodd" d="M71.589 67.834C71.589 67.3087 71.589 66.7833 71.589 66.258C63.5777 66.258 55.5663 66.258 47.555 66.258C47.555 66.2252 47.555 66.1923 47.555 66.1595C55.5992 66.1595 63.6433 66.1595 71.6875 66.1595C71.7192 66.7365 71.6864 67.2947 71.589 67.834Z" fill="white"/>
<path fill-rule="evenodd" clip-rule="evenodd" d="M71.5894 68.0352C71.5894 67.9695 71.5894 67.9039 71.5894 67.8382C71.6868 67.2989 71.7196 66.7407 71.6879 66.1637C63.6437 66.1637 55.5996 66.1637 47.5553 66.1637C55.6158 66.0652 63.6928 66.0324 71.7864 66.0652C71.7371 66.6097 71.8028 67.1351 71.9834 67.6412C71.8939 67.8258 71.7625 67.9571 71.5894 68.0352Z" fill="white"/>
<path fill-rule="evenodd" clip-rule="evenodd" d="M103.01 64.5859C103.021 64.5252 103.054 64.4759 103.109 64.4382C104.439 64.3567 105.753 64.3732 107.049 64.4874C105.698 64.4581 104.352 64.4909 103.01 64.5859Z" fill="white"/>
<path fill-rule="evenodd" clip-rule="evenodd" d="M43.024 62.2245C42.9216 61.803 42.9052 61.3762 42.9748 60.944C43.1656 60.5188 43.3461 60.092 43.5165 59.6635C45.4637 55.8781 47.3844 52.0695 49.2788 48.2375C49.4593 47.9913 49.6728 47.7778 49.919 47.5973C56.48 47.4341 63.0467 47.4012 69.6191 47.4988C69.9842 47.591 70.2962 47.7715 70.5548 48.0405C72.7501 52.3983 74.9171 56.7651 77.0558 61.141C77.1437 61.934 76.8317 62.5085 76.1201 62.8648C65.3836 62.9305 54.647 62.9305 43.9105 62.8648C43.5717 62.7058 43.2762 62.4925 43.024 62.2245Z" fill="white"/>
<path fill-rule="evenodd" clip-rule="evenodd" d="M43.5176 59.6619C43.3472 60.0904 43.1666 60.5172 42.9758 60.9424C42.9063 61.3745 42.9226 61.8013 43.0251 62.2229C42.954 62.2641 42.9047 62.3297 42.8773 62.4199C42.8445 62.3542 42.8116 62.2886 42.7788 62.2229C42.703 61.7179 42.6537 61.2254 42.6311 60.7454C42.7313 60.6122 42.8627 60.5137 43.0251 60.4499C42.9594 60.4171 42.8938 60.3842 42.8281 60.3514C42.9238 60.1736 43.0388 60.0094 43.1728 59.8589C43.2056 59.9246 43.2385 59.9902 43.2713 60.0559C43.291 59.8766 43.3732 59.7453 43.5176 59.6619Z" fill="white"/>
<path fill-rule="evenodd" clip-rule="evenodd" d="M70.6044 44.3942C70.8006 41.7039 70.8662 38.9787 70.8014 36.2187C70.8997 38.9598 70.9325 41.7178 70.8999 44.4927C70.7728 44.5161 70.6743 44.4833 70.6044 44.3942Z" fill="white"/>
<path fill-rule="evenodd" clip-rule="evenodd" d="M70.604 44.3945C70.3828 44.3246 70.1529 44.2753 69.9145 44.2468C63.3478 44.1811 56.7812 44.1811 50.2145 44.2468C49.9517 44.3026 49.6891 44.3519 49.4265 44.3945C49.328 44.3945 49.2295 44.3945 49.131 44.3945C49.131 41.6693 49.131 38.9442 49.131 36.219C49.3215 35.5203 49.7811 35.1098 50.51 34.9878C56.9125 34.9221 63.315 34.9221 69.7175 34.9878C70.2958 35.2094 70.6569 35.6198 70.801 36.219C70.8659 38.979 70.8003 41.7042 70.604 44.3945Z" fill="white"/>
<path fill-rule="evenodd" clip-rule="evenodd" d="M49.4248 44.3927C49.3196 44.4847 49.1883 44.5176 49.0308 44.4912C48.9982 41.7162 49.031 38.9582 49.1293 36.2172C49.1293 38.9424 49.1293 41.6675 49.1293 44.3927C49.2278 44.3927 49.3263 44.3927 49.4248 44.3927Z" fill="white"/>
<path fill-rule="evenodd" clip-rule="evenodd" d="M55.1365 16.3662C48.858 16.3897 42.5796 16.3662 36.3013 16.2958C36.1044 16.2246 35.9092 16.1542 35.7158 16.0845C35.4582 15.8297 35.2467 15.5011 35.0814 15.0986C34.8361 13.6961 35.1452 12.6631 36.0086 12C52.0461 12 68.0837 12 84.1212 12C84.7167 12.4976 85.0095 13.2487 84.9995 14.2535C85.0129 15.107 84.7526 15.7175 84.2188 16.0845C84.1216 16.0966 84.0403 16.0496 83.9748 15.9437C77.6195 16.1779 71.2598 16.3187 64.8957 16.3662C64.7983 21.5535 64.7657 26.7648 64.7981 32C61.61 32 58.4221 32 55.2341 32C55.2665 26.7648 55.2339 21.5535 55.1365 16.3662Z" fill="white"/>
<path fill-rule="evenodd" clip-rule="evenodd" d="M64.8906 31.7852C61.6073 31.7852 58.3239 31.7852 55.0406 31.7852C55.0406 31.6867 55.0406 31.5882 55.0406 31.4897C55.0406 27.9108 55.0406 24.3319 55.0406 20.7531C55.1389 24.3809 55.1718 28.0254 55.1391 31.6867C58.3568 31.6867 61.5744 31.6867 64.7921 31.6867C64.7594 28.0254 64.7923 24.3809 64.8906 20.7531C64.8906 24.4304 64.8906 28.1078 64.8906 31.7852Z" fill="white"/>
</g>
</g>
<defs>
<clipPath id="clip0_490_1498">
<rect width="120" height="120" fill="white"/>
</clipPath>
<clipPath id="clip1_490_1498">
<rect width="138" height="138" fill="white" transform="translate(129 135) rotate(-180)"/>
</clipPath>
</defs>
</svg>
