<svg width="120" height="120" viewBox="0 0 120 120" fill="none" xmlns="http://www.w3.org/2000/svg">
<g clip-path="url(#clip0_490_1551)">
<path d="M103.314 90.6603V93.4746H93.993V90.6603H103.314ZM95.1717 75.9631V93.4746H91.5635V75.9631H95.1717ZM102.099 83.0952V85.8374H93.993V83.0952H102.099ZM103.302 75.9631V78.7895H93.993V75.9631H103.302ZM115.57 87.6655H119.166C119.094 88.8442 118.769 89.8905 118.192 90.8046C117.622 91.7186 116.825 92.4323 115.798 92.9454C114.78 93.4586 113.553 93.7152 112.118 93.7152C110.995 93.7152 109.989 93.5227 109.099 93.1378C108.209 92.745 107.447 92.1837 106.814 91.4541C106.189 90.7244 105.711 89.8424 105.383 88.8081C105.054 87.7737 104.89 86.6151 104.89 85.3322V84.1175C104.89 82.8346 105.058 81.676 105.395 80.6417C105.74 79.5993 106.229 78.7133 106.862 77.9837C107.503 77.254 108.269 76.6927 109.159 76.2999C110.049 75.907 111.043 75.7105 112.142 75.7105C113.601 75.7105 114.832 75.9751 115.834 76.5043C116.845 77.0335 117.626 77.7632 118.18 78.6933C118.741 79.6234 119.078 80.6817 119.19 81.8684H115.582C115.542 81.1628 115.401 80.5655 115.161 80.0764C114.92 79.5793 114.555 79.2064 114.066 78.9579C113.585 78.7013 112.944 78.573 112.142 78.573C111.541 78.573 111.015 78.6852 110.566 78.9097C110.117 79.1343 109.741 79.475 109.436 79.9321C109.131 80.3891 108.903 80.9664 108.75 81.664C108.606 82.3535 108.534 83.1633 108.534 84.0934V85.3322C108.534 86.2383 108.602 87.0361 108.738 87.7256C108.875 88.4072 109.083 88.9845 109.364 89.4575C109.652 89.9226 110.021 90.2754 110.47 90.5159C110.927 90.7485 111.476 90.8647 112.118 90.8647C112.872 90.8647 113.493 90.7444 113.982 90.5039C114.471 90.2634 114.844 89.9066 115.101 89.4335C115.365 88.9604 115.522 88.3711 115.57 87.6655Z" fill="white"/>
<path d="M6 63.5C4.61929 63.5 3.5 64.6193 3.5 66C3.5 67.3807 4.61929 68.5 6 68.5V63.5ZM6 68.5H31.5V63.5H6V68.5Z" fill="white"/>
<path d="M28.9053 66.5977L28.9053 102.124" stroke="white" stroke-width="5" stroke-miterlimit="10"/>
<path d="M79.6406 65.4121V100.938" stroke="white" stroke-width="5" stroke-miterlimit="10"/>
<path d="M103 67.5C104.381 67.5 105.5 66.3807 105.5 65C105.5 63.6193 104.381 62.5 103 62.5L103 67.5ZM77 67.5L103 67.5L103 62.5L77 62.5L77 67.5Z" fill="white"/>
<path d="M0 106H105.395" stroke="white" stroke-width="5" stroke-miterlimit="10" stroke-linecap="round"/>
<path d="M48.2448 39.0664C46.8468 31.3776 48.2435 20.1939 56.6325 16" stroke="white" stroke-width="3.55263" stroke-linecap="round"/>
<path d="M57.1042 39.9804C55.7062 32.2916 57.1028 21.1079 65.4919 16.9141" stroke="white" stroke-width="3.55263" stroke-linecap="round"/>
<rect x="38.4873" y="40.8427" width="29.6053" height="10.8638" stroke="white" stroke-width="3.55263"/>
<rect x="35.1582" y="86.6836" width="13.7632" height="9.9016" stroke="white" stroke-width="4"/>
<rect x="58.8418" y="86.6836" width="13.7632" height="9.9016" stroke="white" stroke-width="4"/>
<path d="M59.2109 85.2767V52.7109" stroke="white" stroke-width="5"/>
<path d="M48.5527 85.2767V52.7109" stroke="white" stroke-width="5"/>
</g>
<defs>
<clipPath id="clip0_490_1551">
<rect width="120" height="120" fill="white"/>
</clipPath>
</defs>
</svg>
