<svg xmlns="http://www.w3.org/2000/svg" width="256" height="256"><path fill="#FFF" d="M167.285 59.605c7.493 2.813 14.503 6.559 21.523 10.379 9.221 5.003 18 7.885 28.192 10.016v13h-7v110h7v12h-86c-.202-37.625-.202-37.625-.244-53.383-.03-10.883-.065-21.767-.133-32.65q-.076-11.889-.093-23.778c-.007-4.197-.022-8.393-.059-12.59q-.05-5.926-.037-11.854a353 353 0 0 0-.03-4.346c-.155-12.311-.155-12.311 3.006-16.245 8.287-6.892 24.28-3.446 33.875-.549M143 69v134h13q.035-25.79.052-51.58.007-11.974.023-23.948.015-10.432.02-20.866 0-5.528.01-11.054c.009-4.107.009-8.214.009-12.321l.01-3.73-.004-3.37.003-2.946c.122-2.162.122-2.162-1.123-3.185zm19 3v131h10V76zm16 8v123h10V85zm16 8v115h10V91zM109.563 56.438l2.272-.082c4.017.028 6.462.492 9.63 3.054 3.66 3.739 3.66 5.44 3.655 10.563l.004 3.858-.01 4.257v4.464q-.001 6.072-.013 12.142-.007 6.34-.008 12.68-.005 12.011-.021 24.023-.018 16.227-.024 32.454c-.01 17.05-.03 34.1-.048 51.149H39v-12h7L45 93h-6V80l2.938-.594C52.566 77.096 61.474 73.161 71 68c12.52-6.769 24.273-11.25 38.563-11.562m-3.063 13c-1 .08-2 .162-3.031.246-2.41.053-2.41.053-3.469 1.316a90 90 0 0 0-.12 5.131l-.004 3.37.01 3.73v3.902q.001 5.31.013 10.623.007 5.546.008 11.09.005 10.509.021 21.017.015 11.96.022 23.92.016 24.608.05 49.217h13V69c-2.17 0-4.34.257-6.5.438M84 76v127h10V72c-3.59 0-6.72 2.542-10 4m-16 9v118h10V80c-3.727 0-6.742 3.19-10 5m-16 6v112h10V88c-3.48 0-6.698 1.9-10 3M232.5 65.469l3.188-.016L239 65.5l3.313-.047 3.187.016 2.906.013c3.416.682 4.447 1.799 6.594 4.518.492 2.913.492 2.913.481 6.365l.017 3.97-.044 4.348q-.001 2.29.002 4.583c.001 4.146-.023 8.292-.05 12.439-.025 4.333-.028 8.667-.033 13-.012 8.206-.045 16.412-.085 24.617-.045 9.342-.067 18.685-.087 28.027-.042 19.217-.115 38.434-.201 57.651h-32c-.09-20.14-.164-40.28-.207-60.421q-.028-14.028-.095-28.054-.06-12.224-.074-24.449c-.006-4.316-.018-8.632-.047-12.948q-.039-6.091-.03-12.183 0-2.237-.024-4.475a437 437 0 0 1-.004-6.105l-.011-3.452c.986-5.838 4.458-7.418 9.992-7.444M10.5 65.469l3.188-.016L17 65.5l3.313-.047 6.093.03C29.822 66.163 30.853 67.28 33 70c.492 2.913.492 2.913.481 6.365l.017 3.97-.044 4.348q-.001 2.29.002 4.583c.001 4.146-.023 8.292-.05 12.439-.025 4.333-.028 8.667-.033 13-.012 8.206-.045 16.412-.085 24.617-.045 9.342-.067 18.685-.087 28.027-.042 19.217-.115 38.434-.201 57.651H1c-.09-20.14-.164-40.28-.207-60.421Q.765 150.55.698 136.525.638 124.3.624 112.076c-.006-4.316-.018-8.632-.047-12.948q-.039-6.091-.03-12.183 0-2.237-.024-4.475a437 437 0 0 1-.004-6.105l-.011-3.452c.986-5.838 4.458-7.418 9.992-7.444M1 231h254v12H1zM245 13c4.885 2.268 7.732 5.115 10 10 .754 5.6.773 10.335-1.625 15.5-4.574 4.814-7.684 6.752-14.375 7-6.691-.248-9.801-2.186-14.375-7-2.398-5.165-2.379-9.9-1.625-15.5 4.478-9.645 12.147-11.326 22-10M23 13c4.885 2.268 7.732 5.115 10 10 .754 5.6.773 10.335-1.625 15.5-4.574 4.814-7.684 6.752-14.375 7-6.691-.248-9.801-2.186-14.375-7C.227 33.335.246 28.6 1 23c4.478-9.645 12.147-11.326 22-10M231 49h16v11h-16zM9 49h16v11H9z"/></svg>