<svg width="120" height="121" viewBox="0 0 120 121" fill="none" xmlns="http://www.w3.org/2000/svg">
<path d="M90 8V15.5H105V23H97.5V30.5H105V38H97.5V45.5H105V53H97.5V60.5H105V68H97.5V75.5H105V83H97.5V90.5H105V98H90V105.5H112.5V8H90ZM30 15.5C30 33.5151 26.6259 39.9614 22.8516 48.0781C19.3183 55.6765 15.5587 64.7219 15.0879 83H0L18.75 101.75L37.5 83H22.6758C23.1231 66.075 26.1944 58.6701 29.6484 51.2422C33.3741 43.2302 37.5 34.5274 37.5 15.5H30ZM75 15.5C75 33.5151 71.6259 39.9614 67.8516 48.0781C64.3183 55.6765 60.5587 64.7219 60.0879 83H45L63.75 101.75L82.5 83H67.6758C68.1231 66.075 71.1944 58.6701 74.6484 51.2422C78.3741 43.2302 82.5 34.5274 82.5 15.5H75Z" fill="white"/>
</svg>
