<svg width="120" height="120" viewBox="0 0 120 120" fill="none" xmlns="http://www.w3.org/2000/svg">
<path d="M79.3857 12.0781H41.3232V46.0531H79.3857V12.0781Z" stroke="white" stroke-width="3.8" stroke-miterlimit="10"/>
<path d="M73.2742 86.8516H46.7617V109.277H73.2742V86.8516Z" stroke="white" stroke-width="3.8" stroke-miterlimit="10"/>
<path d="M35.1752 85.5039H22.9502V110.629H35.1752V85.5039Z" stroke="white" stroke-width="3.8" stroke-miterlimit="10"/>
<path d="M46.7609 89.5527H35.2109V107.215H46.7609V89.5527Z" stroke="white" stroke-width="3.8" stroke-miterlimit="10"/>
<path d="M84.8248 110.625H97.0498V85.5H84.8248V110.625Z" stroke="white" stroke-width="3.8" stroke-miterlimit="10"/>
<path d="M73.2752 107.248H84.8252V89.5855H73.2752V107.248Z" stroke="white" stroke-width="3.8" stroke-miterlimit="10"/>
<path d="M70.5377 59.6641H50.1377V72.5641H70.5377V59.6641Z" stroke="white" stroke-width="3.8" stroke-miterlimit="10"/>
<path d="M71.8871 79.3516H48.7871V86.1391H71.8871V79.3516Z" stroke="white" stroke-width="3.8" stroke-miterlimit="10"/>
<path d="M68.5117 72.5605H52.1992V79.348H68.5117V72.5605Z" stroke="white" stroke-width="3.8" stroke-miterlimit="10"/>
<path d="M68.5117 54.9023H52.1992V59.6648H68.5117V54.9023Z" stroke="white" stroke-width="3.8" stroke-miterlimit="10"/>
<path d="M65.1012 48.7871H55.5762V54.8996H65.1012V48.7871Z" stroke="white" stroke-width="3.8" stroke-miterlimit="10"/>
<path d="M64.3875 46.084H56.25V48.784H64.3875V46.084Z" stroke="white" stroke-width="3.5" stroke-miterlimit="10"/>
<path d="M53.5492 24.3379H46.7617V42.0004H53.5492V24.3379Z" stroke="white" stroke-width="2.8" stroke-miterlimit="10"/>
<path d="M69.8637 14.1367H63.0762V31.7992H69.8637V14.1367Z" stroke="white" stroke-width="2.8" stroke-miterlimit="10"/>
<path d="M54.5762 27.041H59.3387" stroke="white" stroke-width="3" stroke-miterlimit="10"/>
<path d="M54.5762 31.8008H57.9887" stroke="white" stroke-width="3" stroke-miterlimit="10"/>
<path d="M54.5762 36.5625H57.3137" stroke="white" stroke-width="3" stroke-miterlimit="10"/>
<path d="M70.8867 18.2227H75.6492" stroke="white" stroke-width="3" stroke-miterlimit="10"/>
<path d="M70.8867 22.9473H74.2992" stroke="white" stroke-width="3" stroke-miterlimit="10"/>
<path d="M70.8867 27.7148H73.6242" stroke="white" stroke-width="3" stroke-miterlimit="10"/>
<path d="M52.877 9.375H47.4395V12.075H52.877V9.375Z" stroke="white" stroke-width="3.8" stroke-miterlimit="10"/>
<path d="M69.1875 9.375H63.75V12.075H69.1875V9.375Z" stroke="white" stroke-width="3.8" stroke-miterlimit="10"/>
</svg>
