<svg width="120" height="121" viewBox="0 0 120 121" fill="none" xmlns="http://www.w3.org/2000/svg">
<g clip-path="url(#clip0_467_539)">
<path d="M95.2764 67.0937C94.5952 67.0937 93.7323 67.3662 93.2327 67.0937C92.7331 66.8212 93.2327 65.8674 93.2327 65.2316C93.2122 65.0657 93.2122 64.8979 93.2327 64.732C93.0617 63.6256 92.557 62.5979 91.7859 61.7862C91.0148 60.9746 90.0143 60.4178 88.9181 60.1904C87.8077 59.9887 86.6623 60.1282 85.6327 60.5903C84.6031 61.0524 83.7376 61.8155 83.1502 62.7791C82.5347 63.9513 82.2668 65.2749 82.3781 66.5941C82.3781 67.1391 82.3781 67.4116 81.6514 67.4116H76.2923C76.0871 67.4118 75.885 67.3623 75.7031 67.2674C75.5212 67.1725 75.3649 67.035 75.2477 66.8666C74.2162 65.6813 73.0415 64.6287 71.7506 63.7328C71.5802 63.6402 71.4389 63.5019 71.3426 63.3334C71.2464 63.1649 71.1989 62.973 71.2056 62.7791V54.922C71.2056 54.4224 71.2056 54.2862 71.796 54.2862H74.8844C75.6388 54.3553 76.3994 54.2663 77.1175 54.025C77.8356 53.7836 78.4956 53.3952 79.0552 52.8845C79.6148 52.3738 80.0618 51.7521 80.3676 51.0589C80.6734 50.3658 80.8314 49.6165 80.8314 48.8589C80.8314 48.1013 80.6734 47.352 80.3676 46.6589C80.0618 45.9658 79.6148 45.344 79.0552 44.8333C78.4956 44.3226 77.8356 43.9342 77.1175 43.6928C76.3994 43.4515 75.6388 43.3625 74.8844 43.4316H70.3427C69.4344 43.4316 68.2081 43.8404 67.6631 43.4316C67.1181 43.0229 67.6631 41.615 67.6631 40.6612C67.6631 40.1616 67.6631 40.0254 68.2535 40.0254H70.9331C72.4319 40.0254 73.1131 39.3441 73.1585 37.8C73.2039 36.2558 73.1585 35.1658 73.1585 33.8487C73.1585 32.5316 73.1585 32.7133 74.2485 32.7587H83.8314C84.824 32.8081 85.8111 32.5851 86.6861 32.1139C87.5611 31.6427 88.2906 30.9413 88.7957 30.0854C89.3008 29.2296 89.5622 28.2519 89.5518 27.2582C89.5413 26.2645 89.2594 25.2925 88.7364 24.4475C88.1722 23.5576 87.3733 22.8407 86.4277 22.3759C85.4821 21.9111 84.4265 21.7164 83.3773 21.8133H36.0077C34.9776 21.885 33.9931 22.2658 33.1828 22.9059C32.3726 23.546 31.7743 24.4157 31.4661 25.4012C31.1629 26.2524 31.0761 27.1656 31.2135 28.0586C31.3509 28.9517 31.7082 29.7966 32.2532 30.5172C32.7982 31.2379 33.5138 31.8118 34.3357 32.1872C35.1576 32.5626 36.0599 32.7278 36.9615 32.6679H46.6806C47.589 32.6679 47.816 32.9404 47.7706 33.7579C47.7252 34.5754 47.7706 36.0287 47.7706 37.1641C47.7706 39.435 48.3156 39.9345 50.541 39.98C51.404 39.98 52.5848 39.5712 53.0844 39.98C53.584 40.3887 53.0844 41.7512 53.0844 42.6595C53.0844 43.5679 53.0844 43.477 52.2669 43.477H45.7269C44.2851 43.4889 42.9058 44.0669 41.8863 45.0864C40.8668 46.1059 40.2888 47.4853 40.2769 48.927C40.2769 49.6406 40.4181 50.3471 40.6926 51.0058C40.967 51.6645 41.3692 52.2623 41.8759 52.7648C42.3826 53.2673 42.9837 53.6644 43.6447 53.9333C44.3057 54.2022 45.0133 54.3376 45.7269 54.3316H48.679C49.2694 54.3316 49.4056 54.3316 49.4056 55.0583C49.3146 56.8284 49.3146 58.6019 49.4056 60.372C49.4056 62.1887 49.4056 63.642 47.4981 64.5049C45.5906 65.3678 45.8177 66.8212 44.3644 67.0937C42.9882 67.1845 41.6076 67.1845 40.2315 67.0937C38.5056 67.0937 38.5056 67.0937 38.4148 65.4133C38.379 64.6976 38.2026 63.9959 37.8957 63.3484C37.5887 62.7009 37.1572 62.1201 36.6259 61.6393C36.0945 61.1586 35.4736 60.7872 34.7987 60.5463C34.1238 60.3055 33.408 60.2 32.6923 60.2358C31.9766 60.2716 31.275 60.448 30.6274 60.7549C29.9799 61.0619 29.3992 61.4933 28.9184 62.0247C28.4376 62.5561 28.0662 63.177 27.8254 63.8519C27.5846 64.5268 27.479 65.2426 27.5148 65.9583C27.5148 66.912 27.2423 67.0937 26.334 67.0937H5.80566V92.6178C6.25187 92.8979 6.78295 93.0105 7.30441 92.9357H25.9706C26.7881 92.9357 27.1969 93.1628 27.1515 94.0257C27.1648 94.6587 27.272 95.2863 27.4694 95.8878C27.7016 96.8536 28.1831 97.7416 28.8659 98.463C29.5487 99.1845 30.4088 99.7141 31.3603 99.9991C32.3118 100.284 33.3215 100.314 34.2885 100.087C35.2554 99.8598 36.1458 99.3828 36.8706 98.7037C38.0908 97.5036 38.7919 95.8731 38.8236 94.162C38.8236 93.4353 39.1415 93.1174 39.8681 93.1628H43.8194C44.1037 93.1604 44.3852 93.2201 44.6441 93.3378C44.9029 93.4555 45.133 93.6283 45.3181 93.8441C47.224 95.9199 49.5404 97.5771 52.1203 98.7108C54.7003 99.8445 57.4876 100.43 60.3056 100.43C63.1237 100.43 65.911 99.8445 68.4909 98.7108C71.0709 97.5771 73.3872 95.9199 75.2931 93.8441C75.4783 93.6283 75.7083 93.4555 75.9672 93.3378C76.2261 93.2201 76.5075 93.1604 76.7919 93.1628H79.8802C81.606 93.1628 81.606 93.1628 81.8331 94.7978V95.6153C81.9546 96.6695 82.3864 97.6638 83.0736 98.4724C83.7609 99.2809 84.6727 99.8672 85.6935 100.157C86.7122 100.517 87.8138 100.571 88.8628 100.313C89.9118 100.054 90.8624 99.4951 91.5977 98.7037C92.6055 97.5893 93.1989 96.162 93.2781 94.6616C93.2781 93.2537 93.2781 93.1628 95.0039 93.1628H113.171C113.466 93.1853 113.762 93.1486 114.043 93.055C114.324 92.9614 114.583 92.8128 114.806 92.6178V67.0937H95.2764ZM27.5602 88.0762C27.5602 88.6666 27.5602 88.8483 26.7881 88.8483H10.0294C9.39358 88.8483 9.30274 88.5758 9.30274 88.0307C9.30274 82.4899 9.30274 76.9491 9.30274 71.4083C9.30274 70.8178 9.30274 70.6362 10.0748 70.6362H26.6973C27.3331 70.6362 27.5602 70.6362 27.5602 71.4537C27.4997 77.0248 27.4997 82.5656 27.5602 88.0762ZM34.6906 94.7978C34.6139 95.1905 34.3959 95.5414 34.0779 95.7841C33.7598 96.0269 33.3638 96.1446 32.9648 96.1149C32.5691 96.122 32.1836 95.9893 31.8762 95.74C31.5688 95.4908 31.3592 95.141 31.2844 94.7524C31.2376 94.2994 31.2376 93.8429 31.2844 93.3899V66.1399C31.2376 65.687 31.2376 65.2304 31.2844 64.7774C31.3669 64.4049 31.5737 64.0715 31.8709 63.8321C32.168 63.5928 32.5378 63.4616 32.9194 63.4604C33.3115 63.4249 33.7036 63.5282 34.0274 63.7523C34.3511 63.9764 34.5858 64.3071 34.6906 64.6866C34.7577 65.1078 34.7577 65.537 34.6906 65.9583V93.7078C34.7568 94.0834 34.7568 94.4677 34.6906 94.8432V94.7978ZM37.5973 29.0345C37.1457 29.1031 36.6864 29.1031 36.2348 29.0345C35.8446 28.9444 35.4964 28.7247 35.2471 28.4113C34.9978 28.0979 34.8621 27.7092 34.8621 27.3087C34.8621 26.9082 34.9978 26.5196 35.2471 26.2061C35.4964 25.8927 35.8446 25.673 36.2348 25.5829H84.1948C84.6012 25.6154 84.9819 25.7946 85.266 26.0871C85.5501 26.3795 85.7182 26.7653 85.7389 27.1725C85.8042 27.5999 85.6975 28.0359 85.4422 28.3848C85.1868 28.7338 84.8036 28.9674 84.3764 29.0345C83.9237 29.0859 83.4667 29.0859 83.0139 29.0345H37.5973ZM52.0852 36.3466C51.4494 36.3466 51.2677 36.3466 51.2677 35.5291C51.2677 32.6679 51.2677 32.6679 54.0381 32.6679H68.526C69.2981 32.6679 69.616 32.6679 69.5252 33.667C69.4344 34.6662 69.7977 35.62 69.5252 36.1195C69.2527 36.6191 67.8448 36.1195 66.9819 36.1195H51.9944L52.0852 36.3466ZM64.0298 43.25C64.0298 43.7041 63.6665 43.5679 63.4394 43.5679H57.2627C56.854 43.5679 56.6723 43.5679 56.6723 42.9775C56.6723 39.8891 56.6723 39.9345 59.4427 39.9345H61.4865C62.2585 39.9345 63.5756 39.5712 63.7573 39.9345C63.9992 40.9607 64.0607 42.0211 63.9389 43.0683L64.0298 43.25ZM46.1356 50.8345C44.5461 50.8345 43.5469 49.5174 44.2281 48.2458C44.4251 47.8871 44.7251 47.5957 45.0895 47.4095C45.4539 47.2233 45.8658 47.1507 46.2719 47.2012H74.521C75.9289 47.2012 76.8373 47.9279 76.7919 49.0633C76.7637 49.3204 76.6848 49.5694 76.5596 49.7958C76.4344 50.0222 76.2655 50.2214 76.0627 50.382C75.8599 50.5426 75.6272 50.6612 75.3781 50.7311C75.1291 50.801 74.8686 50.8207 74.6119 50.7891H46.0448L46.1356 50.8345ZM81.2881 89.0753C79.4714 89.0753 77.6094 89.0753 75.7473 89.0753C75.2378 89.0351 74.7263 89.1219 74.2586 89.328C73.791 89.5341 73.3818 89.853 73.0677 90.2562C71.3942 92.4185 69.1869 94.1083 66.6627 95.1594C64.1385 96.2104 61.3843 96.5867 58.6706 96.2512C56.7155 96.1093 54.8085 95.5782 53.0615 94.6891C51.3144 93.8 49.7627 92.5708 48.4973 91.0737C47.982 90.3689 47.2926 89.81 46.4965 89.4518C45.7003 89.0935 44.8248 88.9482 43.9556 89.0299C42.4115 89.0299 40.8219 89.0299 39.414 89.0299C38.9144 89.0299 38.7327 89.0299 38.7327 88.3941C38.7327 82.7624 38.7327 77.1308 38.7327 71.5445C38.7327 70.9541 38.7327 70.8178 39.4594 70.8178H45.3181C45.7958 70.8489 46.2737 70.7615 46.7095 70.5634C47.1453 70.3654 47.5254 70.0627 47.816 69.6824C48.9768 68.1861 50.4099 66.9225 52.0398 65.9583C52.4622 65.7352 52.8086 65.3915 53.0351 64.971C53.2615 64.5504 53.3577 64.072 53.3115 63.5966C53.3115 60.8262 53.3115 58.0558 53.3115 55.2854C53.3115 54.6041 53.3115 54.377 54.1744 54.377H66.6639C67.4814 54.377 67.6177 54.6495 67.5723 55.3308C67.5723 58.0558 67.5723 60.8262 67.5723 63.5512C67.5244 64.0277 67.6145 64.508 67.8319 64.9348C68.0494 65.3616 68.3849 65.7168 68.7985 65.9583C70.4474 66.951 71.908 68.2272 73.1131 69.7278C73.3705 70.0847 73.7131 70.3715 74.1098 70.5619C74.5065 70.7523 74.9445 70.8403 75.3839 70.8178H81.2427C81.9239 70.8178 82.151 70.8178 82.151 71.6808C82.151 74.4512 82.151 77.2216 82.151 79.992C82.151 82.7624 82.151 85.3966 82.151 88.1216C82.151 88.7574 81.9239 88.9391 81.1973 88.8937L81.2881 89.0753ZM89.5085 93.617C89.5554 94.0396 89.5554 94.4661 89.5085 94.8887C89.4231 95.2768 89.2028 95.6222 88.8868 95.8633C88.5709 96.1044 88.1796 96.2258 87.7827 96.2057C87.3847 96.2223 86.9943 96.093 86.6849 95.8422C86.3755 95.5913 86.1683 95.2361 86.1023 94.8432C86.0338 94.3917 86.0338 93.9323 86.1023 93.4808V66.2308C86.0338 65.7792 86.0338 65.3198 86.1023 64.8683C86.179 64.4756 86.397 64.1247 86.715 63.882C87.0331 63.6392 87.4291 63.5215 87.8281 63.5512C88.2174 63.542 88.5979 63.6683 88.9044 63.9086C89.2109 64.1488 89.4244 64.488 89.5085 64.8683C89.5536 65.291 89.5536 65.7172 89.5085 66.1399V93.617ZM111.354 79.992C111.354 82.7624 111.354 85.4874 111.354 88.2124C111.354 88.8483 111.354 89.1208 110.491 89.1208H93.9139C93.2327 89.1208 93.051 89.1208 93.051 88.2578C93.051 82.7624 93.051 77.3124 93.051 71.817C93.051 71.1812 93.051 70.9087 93.9139 70.9087H110.264C110.945 70.9087 111.127 70.9087 111.127 71.817C111.263 74.4512 111.263 77.0399 111.263 79.7649L111.354 79.992Z" fill="white" stroke="white" stroke-width="2"/>
<path d="M56.1296 74.2654H58.213L60.9136 82.2978L63.6065 74.2654H65.6898L61.7546 85.5H60.0648L56.1296 74.2654ZM54.9259 74.2654H57.0478L57.4414 82.591V85.5H54.9259V74.2654ZM64.7716 74.2654H66.9012V85.5H64.3781V82.591L64.7716 74.2654Z" fill="white"/>
</g>
<defs>
<clipPath id="clip0_467_539">
<rect width="120" height="120" fill="white" transform="translate(0 0.5)"/>
</clipPath>
</defs>
</svg>
