<svg xmlns="http://www.w3.org/2000/svg" width="256" height="256"><path fill="#FFF" d="m117.055 72.7 2.607-.014q2.72-.008 5.441-.002c2.756.003 5.512-.02 8.268-.045q2.655-.004 5.309-.002l2.469-.028c6.343.05 11.782 1.196 17.058 4.97.53.55 1.06 1.103 1.606 1.671l1.644 1.64c4.788 6.547 4.981 12.532 4.947 20.398l.02 3.382c.02 3.677.015 7.353.01 11.03l.015 7.675q.013 8.034-.003 16.067c-.011 6.188.003 12.375.03 18.563.024 5.962.027 11.925.02 17.887q0 3.801.019 7.602c.014 3.535.004 7.07-.013 10.606l.029 3.182c-.071 6.965-.071 6.965-2.148 10.367-3.16 1.791-5.384 1.859-9.016 1.869l-1.992.02a453 453 0 0 1-6.5-.007q-2.265.005-4.528.012-4.74.008-9.482-.022c-4.049-.022-8.097-.01-12.145.015-3.116.014-6.232.01-9.348 0q-2.239-.005-4.478.01c-2.088.01-4.174-.006-6.261-.028l-3.597-.01C94 209 94 209 91.618 207.648c-2.62-4.287-2.174-8.606-2.136-13.532l-.02-3.362c-.018-3.673-.007-7.346.007-11.02q-.005-3.83-.012-7.66-.008-8.035.022-16.07c.021-6.178.014-12.355-.008-18.533-.02-5.956-.018-11.911-.006-17.867q.004-3.792-.01-7.583c-.01-3.54.005-7.08.027-10.62l-.024-3.152c.086-7.431 1.58-12.808 6.472-18.491l1.945-1.633 1.93-1.68c5.465-3.598 10.933-3.753 17.25-3.746M119 108c-1.9 3.055-2 4.885-2 8.5 1.296 4.537 3.093 5.946 7 8.5 3.476 1.39 4.612 1.155 8.125-.25 4.8-2.908 4.8-2.908 6.75-8.062.145-4.278-.477-6.171-2.875-9.688-2.71-2.198-4.49-2.924-7.937-3.437-3.956.565-6.017 1.875-9.063 4.437M222 137c2.438 1.5 2.438 1.5 4 4 .61 2.808.66 5.199 0 8-2.574 3.028-4.152 3.862-8.062 4.5-3.678-.626-4.787-1.473-6.938-4.5-1.176-3.685-1.335-5.283.313-8.812 3.024-3.921 5.921-3.599 10.687-3.188M222 107c2.438 1.5 2.438 1.5 4 4 .61 2.809.654 5.196 0 8-2.062 2.563-2.062 2.563-5 4-3.497-.06-5.898-.302-8.875-2.187-1.648-2.655-2-4.696-2.125-7.813 2.816-6.034 5.489-6.561 12-6M41 107c2.375 1.063 2.375 1.063 4 3 .873 3.429 1.33 5.893.313 9.313-1.684 2.164-2.665 2.9-5.313 3.687-3.352-.176-5.974-.437-8.937-2.062-1.757-3.203-1.683-6.435-1.063-9.938 2.85-4.56 5.878-4.64 11-4M41 137c3.043 2.082 3.843 3.462 4.875 7 .132 3.158-.059 4.457-1.875 7-3.513 2.342-4.865 2.496-9 2-2.875-1.5-2.875-1.5-5-4-.66-2.801-.61-5.192 0-8 2.837-4.54 5.891-4.73 11-4M192 107c2.438 1.563 2.438 1.563 4 4 .725 4.429.495 6.28-2.062 10-2.938 2-2.938 2-6.563 2-4.834-1.432-4.834-1.432-6.375-4-1-3.375-1-3.375-1-7 3.336-4.9 6.19-5.95 12-5M71 107c3 2.063 3 2.063 5 5 0 3.521-.306 5.843-2.125 8.875C70.843 122.695 68.521 123 65 123c-2.937-2-2.937-2-5-5-.63-3.99-.63-6.017 1.563-9.437C64.983 106.37 67.01 106.37 71 107M222 77c2.438 1.5 2.438 1.5 4 4 .62 3.503.694 6.735-1.062 9.938-3.05 1.672-5.47 2.002-8.938 2.062-3.51-1.907-4.711-3.151-6-6.937 0-3.635.8-5.212 3-8.063 3.092-1.546 5.594-1.294 9-1M41 77c2.375 1.063 2.375 1.063 4 3 1 3.375 1 3.375 1 7-1.907 3.51-3.151 4.711-6.937 6-3.62 0-5.192-.867-8.063-3-1-1-1-1-1.312-4.812.054-3.019.226-4.05 1.875-6.688 3.36-2.069 5.557-1.985 9.437-1.5M252 77c2.438 1.5 2.438 1.5 4 4 .61 2.809.654 5.196 0 8-2.062 2.563-2.062 2.563-5 4-3.524-.06-5.916-.277-8.875-2.25-1.49-2.319-1.928-3.995-2.125-6.75 1.847-6.62 5.432-7.691 12-7M254.938 169.063c1.756 3.202 1.682 6.434 1.062 9.937-1.562 2.5-1.562 2.5-4 4-3.985.57-6.055.671-9.375-1.687-1.833-2.61-2.47-4.132-2.625-7.313.743-2.906 1.352-4.472 3.688-6.375 3.968-1.072 7.649-.537 11.25 1.438M12 168c2.354 1.569 2.876 2.673 3.875 5.313.168 3.615-1.005 5.64-2.875 8.687-3.092 1.546-5.594 1.294-9 1-2.437-1.5-2.437-1.5-4-4-.61-2.809-.654-5.196 0-8 3.634-4.515 6.595-4.501 12-3M252 137c2.438 1.5 2.438 1.5 4 4 .61 2.809.654 5.196 0 8-2.062 2.563-2.062 2.563-5 4-3.524-.06-5.916-.277-8.875-2.25-1.524-2.37-1.993-3.916-2.125-6.75 2.714-6.72 4.8-7.62 12-7M11 137c2.722 1.934 3.75 3.306 4.875 6.438.152 3.122-.334 4.846-1.875 7.562-2.66 2.167-4.088 1.995-7.562 1.813C3 152 3 152 1.063 150.938-.694 147.735-.62 144.503 0 141c2.837-4.54 5.891-4.73 11-4M252 107c2.438 1.5 2.438 1.5 4 4 .61 2.809.654 5.196 0 8-2.062 2.563-2.062 2.563-5 4-3.524-.06-5.916-.277-8.875-2.25-1.524-2.37-1.993-3.916-2.125-6.75 2.714-6.72 4.8-7.62 12-7M11 107c2.716 1.93 3.747 3.342 4.938 6.438.082 3.38-.918 4.893-2.938 7.562-3 2-3 2-6.5 1.813C3 122 3 122 1.063 120.937-.694 117.736-.62 114.504 0 111c2.837-4.54 5.891-4.73 11-4M11 77c2.716 1.93 3.747 3.342 4.938 6.438C16.02 86.818 15.02 88.33 13 91c-3 2-3 2-6.5 1.813C3 92 3 92 1.063 90.937-.694 87.736-.62 84.504 0 81c2.837-4.54 5.891-4.73 11-4M247.875 46.688c2.548.092 4.211.344 6.625 1.25 2.12 2.916 1.94 5.374 1.934 8.906-.532 2.644-1.317 3.525-3.434 5.156-3.499 1.065-5.318 1.264-8.75-.062-2.882-2.482-3.58-4.211-4.25-7.938 1.353-4.96 2.57-6.885 7.875-7.312M12 47c2.495 1.53 2.87 2.621 3.813 5.375.23 3.22-.196 4.832-1.813 7.625-2.903 2.42-4.327 3.027-8.125 2.875C2.861 61.958 1.896 61.429 0 59c-.614-3.052-.497-5.933 0-9 2.988-4.109 7.362-3.442 12-3"/></svg>