<svg width="120" height="120" viewBox="0 0 120 120" fill="none" xmlns="http://www.w3.org/2000/svg">
<path d="M18.1 15.55C13.05 15.55 9 19.7 9 24.85V62C9 67.1 13.1 71.3 18.1 71.3H54.5C59.55 71.3 63.6 67.15 63.6 62V24.8C63.6 19.7 59.5 15.5 54.5 15.5H18.1V15.55ZM36.3 22.5C47.6 22.5 56.8 31.85 56.8 43.4C56.8 54.95 47.6 64.3 36.3 64.3C25 64.3 15.8 54.95 15.8 43.4C15.8 31.85 25 22.5 36.3 22.5ZM36.3 26.55C28.4 26.55 21.7 31.95 20.55 39.25C20.5 39.6 20.65 39.95 20.95 40.15C21.25 40.35 21.6 40.4 21.95 40.25C26.55 38.5 31.45 37.6 36.45 37.65C41.35 37.6 46.2 38.45 50.7 40.2C51.05 40.35 51.4 40.3 51.7 40.1C52 39.9 52.15 39.55 52.1 39.2C50.9 31.95 44.2 26.55 36.3 26.55ZM84.5 78.85V47.1C84.5 45.7 83.4 44.6 82 44.6C80.6 44.6 79.5 45.7 79.5 47.1V78.85C76.42 79.5058 73.6911 81.2769 71.8378 83.8229C69.9846 86.369 69.1379 89.5101 69.4605 92.6426C69.783 95.7751 71.2521 98.6779 73.5852 100.793C75.9184 102.908 78.951 104.086 82.1 104.1C85.2685 104.098 88.3223 102.915 90.6655 100.782C93.0088 98.6491 94.4732 95.7197 94.773 92.5655C95.0728 89.4113 94.1865 86.2585 92.287 83.7225C90.3876 81.1865 87.6113 79.4493 84.5 78.85ZM82.1 99.1C77.8 99.1 74.35 95.6 74.35 91.35C74.35 87.1 77.85 83.6 82.1 83.6C86.35 83.6 89.85 87.1 89.85 91.35C89.85 95.6 86.4 99.1 82.1 99.1ZM107.9 42.4C109.3 42.4 110.4 41.3 110.4 39.9C110.4 38.5 109.3 37.4 107.9 37.4H95.7V35.05H100.15C101.55 35.05 102.65 33.95 102.65 32.55C102.65 31.15 101.55 30.05 100.15 30.05H95.7V27.75H108.05C109.45 27.75 110.55 26.65 110.55 25.25C110.55 23.85 109.45 22.75 108.05 22.75H94.75C93.771 20.1851 92.0387 17.9766 89.7808 16.4149C87.523 14.8531 84.8453 14.0113 82.1 14C74.6 14 68.5 20.1 68.5 27.6V73.3C65.6446 75.3596 63.3239 78.0731 61.732 81.2133C60.1401 84.3536 59.3234 87.8294 59.35 91.35C59.35 103.9 69.55 114.1 82.1 114.1C94.65 114.1 104.85 103.9 104.85 91.35C104.85 84 101.5 77.5 95.7 73.25V71.8H107.9C109.3 71.8 110.4 70.7 110.4 69.3C110.4 67.9 109.3 66.8 107.9 66.8H95.7V64.45H100.1C101.5 64.45 102.6 63.35 102.6 61.95C102.6 60.55 101.5 59.45 100.1 59.45H95.7V57.1H107.9C109.3 57.1 110.4 56 110.4 54.6C110.4 53.2 109.3 52.1 107.9 52.1H95.7V49.75H100.15C101.55 49.75 102.65 48.65 102.65 47.25C102.65 45.85 101.55 44.75 100.15 44.75H95.7V42.4H107.9ZM99.85 91.35C99.85 96.0576 97.9799 100.572 94.6512 103.901C91.3224 107.23 86.8076 109.1 82.1 109.1C77.3924 109.1 72.8776 107.23 69.5489 103.901C66.2201 100.572 64.35 96.0576 64.35 91.35C64.35 85.3 67.25 79.95 72.35 76.65L72.5 76.5C72.65 76.4 72.75 76.25 72.9 76.15C73 76.05 73.1 75.9 73.15 75.8C73.25 75.65 73.3 75.5 73.35 75.35C73.4 75.2 73.45 75 73.45 74.85C73.45 74.75 73.5 74.7 73.5 74.6V27.6C73.5 25.3191 74.4061 23.1317 76.0189 21.5189C77.6317 19.9061 79.8191 19 82.1 19C84.3809 19 86.5683 19.9061 88.1811 21.5189C89.7939 23.1317 90.7 25.3191 90.7 27.6V74.5C90.7 74.6 90.75 74.65 90.75 74.75C90.75 74.95 90.8 75.1 90.85 75.25C90.9 75.4 90.95 75.55 91.05 75.65C91.15 75.8 91.2 75.9 91.3 76.05C91.4 76.2 91.5 76.3 91.65 76.4C91.7 76.45 91.75 76.55 91.85 76.6C96.9 79.85 99.85 85.2 99.85 91.35Z" fill="white"/>
</svg>
