<svg width="120" height="120" viewBox="0 0 120 120" fill="none" xmlns="http://www.w3.org/2000/svg">
<path d="M89.8707 78.7743C85.4612 78.7743 81.8867 70.8652 81.8867 61.1089C81.8867 51.3525 85.4612 43.4434 89.8707 43.4434C94.2801 43.4434 97.8547 51.3525 97.8547 61.1089C97.8547 70.8652 94.2801 78.7743 89.8707 78.7743Z" fill="#004265" stroke="white" stroke-width="1.6383" stroke-miterlimit="10"/>
<path d="M89.3397 78.8099C84.9808 78.8099 81.4473 70.8732 81.4473 61.0827C81.4473 51.2922 84.9808 43.3555 89.3397 43.3555C93.6986 43.3555 97.2322 51.2922 97.2322 61.0827C97.2322 70.8732 93.6986 78.8099 89.3397 78.8099Z" fill="#004265" stroke="white" stroke-width="1.6383" stroke-miterlimit="10"/>
<path d="M88.823 78.8553C84.5203 78.8553 81.0322 70.8909 81.0322 61.0663C81.0322 51.2417 84.5203 43.2773 88.823 43.2773C93.1257 43.2773 96.6137 51.2417 96.6137 61.0663C96.6137 70.8909 93.1257 78.8553 88.823 78.8553Z" fill="#004265" stroke="white" stroke-width="1.6383" stroke-miterlimit="10"/>
<path d="M88.3024 78.8969C84.0558 78.8969 80.6133 70.9048 80.6133 61.0461C80.6133 51.1874 84.0558 43.1953 88.3024 43.1953C92.5489 43.1953 95.9914 51.1874 95.9914 61.0461C95.9914 70.9048 92.5489 78.8969 88.3024 78.8969Z" fill="#004265" stroke="white" stroke-width="1.6383" stroke-miterlimit="10"/>
<path d="M87.7749 78.9363C83.5846 78.9363 80.1875 70.9167 80.1875 61.0239C80.1875 51.131 83.5846 43.1113 87.7749 43.1113C91.9653 43.1113 95.3623 51.131 95.3623 61.0239C95.3623 70.9167 91.9653 78.9363 87.7749 78.9363Z" fill="#004265" stroke="white" stroke-width="1.6383" stroke-miterlimit="10"/>
<path d="M87.2566 78.9727C83.1167 78.9727 79.7607 70.9309 79.7607 61.0108C79.7607 51.0906 83.1167 43.0488 87.2566 43.0488C91.3964 43.0488 94.7524 51.0906 94.7524 61.0108C94.7524 70.9309 91.3964 78.9727 87.2566 78.9727Z" fill="#004265" stroke="white" stroke-width="1.6383" stroke-miterlimit="10"/>
<path d="M86.7369 79.0064C82.6532 79.0064 79.3428 70.9368 79.3428 60.9827C79.3428 51.0285 82.6532 42.959 86.7369 42.959C90.8205 42.959 94.131 51.0285 94.131 60.9827C94.131 70.9368 90.8205 79.0064 86.7369 79.0064Z" fill="#004265" stroke="white" stroke-width="1.6383" stroke-miterlimit="10"/>
<path d="M86.2085 79.0577C82.181 79.0577 78.916 70.9605 78.916 60.9722C78.916 50.9839 82.181 42.8867 86.2085 42.8867C90.236 42.8867 93.5009 50.9839 93.5009 60.9722C93.5009 70.9605 90.236 79.0577 86.2085 79.0577Z" fill="#004265" stroke="white" stroke-width="1.6383" stroke-miterlimit="10"/>
<path d="M85.6897 79.0914C81.7184 79.0914 78.499 70.9666 78.499 60.9442C78.499 50.9217 81.7184 42.7969 85.6897 42.7969C89.6609 42.7969 92.8804 50.9217 92.8804 60.9442C92.8804 70.9666 89.6609 79.0914 85.6897 79.0914Z" fill="#004265" stroke="white" stroke-width="1.6383" stroke-miterlimit="10"/>
<path d="M85.1613 79.1309C81.2461 79.1309 78.0723 70.9785 78.0723 60.9219C78.0723 50.8653 81.2461 42.7129 85.1613 42.7129C89.0765 42.7129 92.2503 50.8653 92.2503 60.9219C92.2503 70.9785 89.0765 79.1309 85.1613 79.1309Z" fill="#004265" stroke="white" stroke-width="1.6383" stroke-miterlimit="10"/>
<path d="M84.6411 79.1803C80.7765 79.1803 77.6436 71.0001 77.6436 60.9094C77.6436 50.8188 80.7765 42.6387 84.6411 42.6387C88.5057 42.6387 91.6386 50.8188 91.6386 60.9094C91.6386 71.0001 88.5057 79.1803 84.6411 79.1803Z" fill="#004265" stroke="white" stroke-width="1.6383" stroke-miterlimit="10"/>
<path d="M84.1242 79.2218C80.3158 79.2218 77.2285 71.014 77.2285 60.8892C77.2285 50.7645 80.3158 42.5566 84.1242 42.5566C87.9326 42.5566 91.0199 50.7645 91.0199 60.8892C91.0199 71.014 87.9326 79.2218 84.1242 79.2218Z" fill="#004265" stroke="white" stroke-width="1.6383" stroke-miterlimit="10"/>
<path d="M83.5959 79.2535C79.8435 79.2535 76.8018 71.0181 76.8018 60.8591C76.8018 50.7002 79.8435 42.4648 83.5959 42.4648C87.3481 42.4648 90.3899 50.7002 90.3899 60.8591C90.3899 71.0181 87.3481 79.2535 83.5959 79.2535Z" fill="#004265" stroke="white" stroke-width="1.6383" stroke-miterlimit="10"/>
<path d="M83.0761 79.2879C79.38 79.2879 76.3838 71.0304 76.3838 60.8441C76.3838 50.6579 79.38 42.4004 83.0761 42.4004C86.7722 42.4004 89.7685 50.6579 89.7685 60.8441C89.7685 71.0304 86.7722 79.2879 83.0761 79.2879Z" fill="#004265" stroke="white" stroke-width="1.6383" stroke-miterlimit="10"/>
<path d="M82.5558 79.3293C78.9104 79.3293 75.9551 71.0441 75.9551 60.8238C75.9551 50.6036 78.9104 42.3184 82.5558 42.3184C86.2013 42.3184 89.1566 50.6036 89.1566 60.8238C89.1566 71.0441 86.2013 79.3293 82.5558 79.3293Z" fill="#004265" stroke="white" stroke-width="1.6383" stroke-miterlimit="10"/>
<path d="M82.0275 79.3767C78.4381 79.3767 75.5283 71.0639 75.5283 60.8095C75.5283 50.5551 78.4381 42.2422 82.0275 42.2422C85.6169 42.2422 88.5266 50.5551 88.5266 60.8095C88.5266 71.0639 85.6169 79.3767 82.0275 79.3767Z" fill="#004265" stroke="white" stroke-width="1.6383" stroke-miterlimit="10"/>
<path d="M81.5097 79.4163C77.9765 79.4163 75.1123 71.0757 75.1123 60.7872C75.1123 50.4987 77.9765 42.1582 81.5097 42.1582C85.0429 42.1582 87.9071 50.4987 87.9071 60.7872C87.9071 71.0757 85.0429 79.4163 81.5097 79.4163Z" fill="#004265" stroke="white" stroke-width="1.6383" stroke-miterlimit="10"/>
<path d="M60.8438 94.1913C59.0969 94.1913 57.6807 91.3154 57.6807 87.7675C57.6807 84.2198 59.0969 81.3438 60.8438 81.3438C62.5908 81.3438 64.0069 84.2198 64.0069 87.7675C64.0069 91.3154 62.5908 94.1913 60.8438 94.1913Z" fill="#004265" stroke="white" stroke-width="1.6383" stroke-miterlimit="10"/>
<path d="M59.8252 94.1913C58.0783 94.1913 56.6621 91.3154 56.6621 87.7675C56.6621 84.2198 58.0783 81.3438 59.8252 81.3438C61.5721 81.3438 62.9883 84.2198 62.9883 87.7675C62.9883 91.3154 61.5721 94.1913 59.8252 94.1913Z" fill="#004265" stroke="white" stroke-width="1.6383" stroke-miterlimit="10"/>
<path d="M58.7979 94.1913C57.051 94.1913 55.6348 91.3154 55.6348 87.7675C55.6348 84.2198 57.051 81.3438 58.7979 81.3438C60.5449 81.3438 61.961 84.2198 61.961 87.7675C61.961 91.3154 60.5449 94.1913 58.7979 94.1913Z" fill="#004265" stroke="white" stroke-width="1.6383" stroke-miterlimit="10"/>
<path d="M57.7715 94.1913C56.0246 94.1913 54.6084 91.3154 54.6084 87.7675C54.6084 84.2198 56.0246 81.3438 57.7715 81.3438C59.5184 81.3438 60.9346 84.2198 60.9346 87.7675C60.9346 91.3154 59.5184 94.1913 57.7715 94.1913Z" fill="#004265" stroke="white" stroke-width="1.6383" stroke-miterlimit="10"/>
<path d="M56.7442 94.1913C54.9972 94.1913 53.5811 91.3154 53.5811 87.7675C53.5811 84.2198 54.9972 81.3438 56.7442 81.3438C58.4911 81.3438 59.9073 84.2198 59.9073 87.7675C59.9073 91.3154 58.4911 94.1913 56.7442 94.1913Z" fill="#004265" stroke="white" stroke-width="1.6383" stroke-miterlimit="10"/>
<path d="M55.7158 94.1913C53.9689 94.1913 52.5527 91.3154 52.5527 87.7675C52.5527 84.2198 53.9689 81.3438 55.7158 81.3438C57.4627 81.3438 58.8789 84.2198 58.8789 87.7675C58.8789 91.3154 57.4627 94.1913 55.7158 94.1913Z" fill="#004265" stroke="white" stroke-width="1.6383" stroke-miterlimit="10"/>
<path d="M54.6885 94.1913C52.9416 94.1913 51.5254 91.3154 51.5254 87.7675C51.5254 84.2198 52.9416 81.3438 54.6885 81.3438C56.4354 81.3438 57.8516 84.2198 57.8516 87.7675C57.8516 91.3154 56.4354 94.1913 54.6885 94.1913Z" fill="#004265" stroke="white" stroke-width="1.6383" stroke-miterlimit="10"/>
<path d="M53.6621 94.1913C51.9151 94.1913 50.499 91.3154 50.499 87.7675C50.499 84.2198 51.9151 81.3438 53.6621 81.3438C55.409 81.3438 56.8252 84.2198 56.8252 87.7675C56.8252 91.3154 55.409 94.1913 53.6621 94.1913Z" fill="#004265" stroke="white" stroke-width="1.6383" stroke-miterlimit="10"/>
<path d="M52.6348 94.1913C50.8879 94.1913 49.4717 91.3154 49.4717 87.7675C49.4717 84.2198 50.8879 81.3438 52.6348 81.3438C54.3817 81.3438 55.7979 84.2198 55.7979 87.7675C55.7979 91.3154 54.3817 94.1913 52.6348 94.1913Z" fill="#004265" stroke="white" stroke-width="1.6383" stroke-miterlimit="10"/>
<path d="M51.6055 94.1913C49.8584 94.1913 48.4424 91.3154 48.4424 87.7675C48.4424 84.2198 49.8584 81.3438 51.6055 81.3438C53.3524 81.3438 54.7686 84.2198 54.7686 87.7675C54.7686 91.3154 53.3524 94.1913 51.6055 94.1913Z" fill="#004265" stroke="white" stroke-width="1.6383" stroke-miterlimit="10"/>
<path d="M50.5811 94.1913C48.8342 94.1913 47.418 91.3154 47.418 87.7675C47.418 84.2198 48.8342 81.3438 50.5811 81.3438C52.328 81.3438 53.7442 84.2198 53.7442 87.7675C53.7442 91.3154 52.328 94.1913 50.5811 94.1913Z" fill="#004265" stroke="white" stroke-width="1.6383" stroke-miterlimit="10"/>
<path d="M49.5527 94.1913C47.8057 94.1913 46.3896 91.3154 46.3896 87.7675C46.3896 84.2198 47.8057 81.3438 49.5527 81.3438C51.2997 81.3438 52.7158 84.2198 52.7158 87.7675C52.7158 91.3154 51.2997 94.1913 49.5527 94.1913Z" fill="#004265" stroke="white" stroke-width="1.6383" stroke-miterlimit="10"/>
<path d="M48.5254 94.1913C46.7785 94.1913 45.3623 91.3154 45.3623 87.7675C45.3623 84.2198 46.7785 81.3438 48.5254 81.3438C50.2723 81.3438 51.6885 84.2198 51.6885 87.7675C51.6885 91.3154 50.2723 94.1913 48.5254 94.1913Z" fill="#004265" stroke="white" stroke-width="1.6383" stroke-miterlimit="10"/>
<path d="M47.499 94.1913C45.7521 94.1913 44.3359 91.3154 44.3359 87.7675C44.3359 84.2198 45.7521 81.3438 47.499 81.3438C49.2461 81.3438 50.6621 84.2198 50.6621 87.7675C50.6621 91.3154 49.2461 94.1913 47.499 94.1913Z" fill="#004265" stroke="white" stroke-width="1.6383" stroke-miterlimit="10"/>
<path d="M46.4717 94.1913C44.7248 94.1913 43.3086 91.3154 43.3086 87.7675C43.3086 84.2198 44.7248 81.3438 46.4717 81.3438C48.2186 81.3438 49.6348 84.2198 49.6348 87.7675C49.6348 91.3154 48.2186 94.1913 46.4717 94.1913Z" fill="#004265" stroke="white" stroke-width="1.6383" stroke-miterlimit="10"/>
<path d="M45.4424 94.1913C43.6955 94.1913 42.2793 91.3154 42.2793 87.7675C42.2793 84.2198 43.6955 81.3438 45.4424 81.3438C47.1894 81.3438 48.6055 84.2198 48.6055 87.7675C48.6055 91.3154 47.1894 94.1913 45.4424 94.1913Z" fill="#004265" stroke="white" stroke-width="1.6383" stroke-miterlimit="10"/>
<path d="M44.4268 94.1913C42.6799 94.1913 41.2637 91.3154 41.2637 87.7675C41.2637 84.2198 42.6799 81.3438 44.4268 81.3438C46.1737 81.3438 47.5899 84.2198 47.5899 87.7675C47.5899 91.3154 46.1737 94.1913 44.4268 94.1913Z" fill="#004265" stroke="white" stroke-width="1.6383" stroke-miterlimit="10"/>
<path d="M42.188 35.0898C40.2165 35.0898 38.6182 32.2138 38.6182 28.666C38.6182 25.1182 40.2165 22.2422 42.188 22.2422C44.1596 22.2422 45.758 25.1182 45.758 28.666C45.758 32.2138 44.1596 35.0898 42.188 35.0898Z" fill="#004265" stroke="white" stroke-width="1.6383" stroke-miterlimit="10"/>
<path d="M42.7887 35.0898C40.8171 35.0898 39.2188 32.2138 39.2188 28.666C39.2188 25.1182 40.8171 22.2422 42.7887 22.2422C44.7603 22.2422 46.3585 25.1182 46.3585 28.666C46.3585 32.2138 44.7603 35.0898 42.7887 35.0898Z" fill="#004265" stroke="white" stroke-width="1.6383" stroke-miterlimit="10"/>
<path d="M43.3784 35.0898C41.4068 35.0898 39.8086 32.2138 39.8086 28.666C39.8086 25.1182 41.4068 22.2422 43.3784 22.2422C45.3501 22.2422 46.9484 25.1182 46.9484 28.666C46.9484 32.2138 45.3501 35.0898 43.3784 35.0898Z" fill="#004265" stroke="white" stroke-width="1.6383" stroke-miterlimit="10"/>
<path d="M43.979 35.0898C42.0075 35.0898 40.4092 32.2138 40.4092 28.666C40.4092 25.1182 42.0075 22.2422 43.979 22.2422C45.9506 22.2422 47.549 25.1182 47.549 28.666C47.549 32.2138 45.9506 35.0898 43.979 35.0898Z" fill="#004265" stroke="white" stroke-width="1.6383" stroke-miterlimit="10"/>
<path d="M44.5708 35.0898C42.5993 35.0898 41.001 32.2138 41.001 28.666C41.001 25.1182 42.5993 22.2422 44.5708 22.2422C46.5424 22.2422 48.1408 25.1182 48.1408 28.666C48.1408 32.2138 46.5424 35.0898 44.5708 35.0898Z" fill="#004265" stroke="white" stroke-width="1.6383" stroke-miterlimit="10"/>
<path d="M45.1607 35.0898C43.1892 35.0898 41.5908 32.2138 41.5908 28.666C41.5908 25.1182 43.1892 22.2422 45.1607 22.2422C47.1323 22.2422 48.7306 25.1182 48.7306 28.666C48.7306 32.2138 47.1323 35.0898 45.1607 35.0898Z" fill="#004265" stroke="white" stroke-width="1.6383" stroke-miterlimit="10"/>
<path d="M45.7583 35.0898C43.7868 35.0898 42.1885 32.2138 42.1885 28.666C42.1885 25.1182 43.7868 22.2422 45.7583 22.2422C47.7299 22.2422 49.3283 25.1182 49.3283 28.666C49.3283 32.2138 47.7299 35.0898 45.7583 35.0898Z" fill="#004265" stroke="white" stroke-width="1.6383" stroke-miterlimit="10"/>
<path d="M46.3482 35.0898C44.3765 35.0898 42.7783 32.2138 42.7783 28.666C42.7783 25.1182 44.3765 22.2422 46.3482 22.2422C48.3198 22.2422 49.9181 25.1182 49.9181 28.666C49.9181 32.2138 48.3198 35.0898 46.3482 35.0898Z" fill="#004265" stroke="white" stroke-width="1.6383" stroke-miterlimit="10"/>
<path d="M46.9489 35.0898C44.9772 35.0898 43.3789 32.2138 43.3789 28.666C43.3789 25.1182 44.9772 22.2422 46.9489 22.2422C48.9205 22.2422 50.5187 25.1182 50.5187 28.666C50.5187 32.2138 48.9205 35.0898 46.9489 35.0898Z" fill="#004265" stroke="white" stroke-width="1.6383" stroke-miterlimit="10"/>
<path d="M47.5386 35.0898C45.567 35.0898 43.9688 32.2138 43.9688 28.666C43.9688 25.1182 45.567 22.2422 47.5386 22.2422C49.5102 22.2422 51.1085 25.1182 51.1085 28.666C51.1085 32.2138 49.5102 35.0898 47.5386 35.0898Z" fill="#004265" stroke="white" stroke-width="1.6383" stroke-miterlimit="10"/>
<path d="M48.1392 35.0898C46.1675 35.0898 44.5693 32.2138 44.5693 28.666C44.5693 25.1182 46.1675 22.2422 48.1392 22.2422C50.1108 22.2422 51.7091 25.1182 51.7091 28.666C51.7091 32.2138 50.1108 35.0898 48.1392 35.0898Z" fill="#004265" stroke="white" stroke-width="1.6383" stroke-miterlimit="10"/>
<path d="M48.728 35.0898C46.7565 35.0898 45.1582 32.2138 45.1582 28.666C45.1582 25.1182 46.7565 22.2422 48.728 22.2422C50.6997 22.2422 52.298 25.1182 52.298 28.666C52.298 32.2138 50.6997 35.0898 48.728 35.0898Z" fill="#004265" stroke="white" stroke-width="1.6383" stroke-miterlimit="10"/>
<path d="M49.3189 35.0898C47.3474 35.0898 45.749 32.2138 45.749 28.666C45.749 25.1182 47.3474 22.2422 49.3189 22.2422C51.2905 22.2422 52.8888 25.1182 52.8888 28.666C52.8888 32.2138 51.2905 35.0898 49.3189 35.0898Z" fill="#004265" stroke="white" stroke-width="1.6383" stroke-miterlimit="10"/>
<path d="M49.9194 35.0898C47.9479 35.0898 46.3496 32.2138 46.3496 28.666C46.3496 25.1182 47.9479 22.2422 49.9194 22.2422C51.8911 22.2422 53.4894 25.1182 53.4894 28.666C53.4894 32.2138 51.8911 35.0898 49.9194 35.0898Z" fill="#004265" stroke="white" stroke-width="1.6383" stroke-miterlimit="10"/>
<path d="M50.5084 35.0898C48.5368 35.0898 46.9385 32.2138 46.9385 28.666C46.9385 25.1182 48.5368 22.2422 50.5084 22.2422C52.4801 22.2422 54.0784 25.1182 54.0784 28.666C54.0784 32.2138 52.4801 35.0898 50.5084 35.0898Z" fill="#004265" stroke="white" stroke-width="1.6383" stroke-miterlimit="10"/>
<path d="M51.109 35.0898C49.1374 35.0898 47.5391 32.2138 47.5391 28.666C47.5391 25.1182 49.1374 22.2422 51.109 22.2422C53.0805 22.2422 54.6789 25.1182 54.6789 28.666C54.6789 32.2138 53.0805 35.0898 51.109 35.0898Z" fill="#004265" stroke="white" stroke-width="1.6383" stroke-miterlimit="10"/>
<path d="M51.6987 35.0898C49.7271 35.0898 48.1289 32.2138 48.1289 28.666C48.1289 25.1182 49.7271 22.2422 51.6987 22.2422C53.6704 22.2422 55.2687 25.1182 55.2687 28.666C55.2687 32.2138 53.6704 35.0898 51.6987 35.0898Z" fill="#004265" stroke="white" stroke-width="1.6383" stroke-miterlimit="10"/>
<path d="M52.2993 35.0898C50.3278 35.0898 48.7295 32.2138 48.7295 28.666C48.7295 25.1182 50.3278 22.2422 52.2993 22.2422C54.271 22.2422 55.8693 25.1182 55.8693 28.666C55.8693 32.2138 54.271 35.0898 52.2993 35.0898Z" fill="#004265" stroke="white" stroke-width="1.6383" stroke-miterlimit="10"/>
<path d="M52.8883 35.0898C50.9167 35.0898 49.3184 32.2138 49.3184 28.666C49.3184 25.1182 50.9167 22.2422 52.8883 22.2422C54.8598 22.2422 56.4582 25.1182 56.4582 28.666C56.4582 32.2138 54.8598 35.0898 52.8883 35.0898Z" fill="#004265" stroke="white" stroke-width="1.6383" stroke-miterlimit="10"/>
<path d="M53.479 35.0898C51.5075 35.0898 49.9092 32.2138 49.9092 28.666C49.9092 25.1182 51.5075 22.2422 53.479 22.2422C55.4506 22.2422 57.049 25.1182 57.049 28.666C57.049 32.2138 55.4506 35.0898 53.479 35.0898Z" fill="#004265" stroke="white" stroke-width="1.6383" stroke-miterlimit="10"/>
<path d="M54.0797 35.0898C52.1081 35.0898 50.5098 32.2138 50.5098 28.666C50.5098 25.1182 52.1081 22.2422 54.0797 22.2422C56.0512 22.2422 57.6496 25.1182 57.6496 28.666C57.6496 32.2138 56.0512 35.0898 54.0797 35.0898Z" fill="#004265" stroke="white" stroke-width="1.6383" stroke-miterlimit="10"/>
<path d="M54.6685 35.0898C52.6968 35.0898 51.0986 32.2138 51.0986 28.666C51.0986 25.1182 52.6968 22.2422 54.6685 22.2422C56.6401 22.2422 58.2384 25.1182 58.2384 28.666C58.2384 32.2138 56.6401 35.0898 54.6685 35.0898Z" fill="#004265" stroke="white" stroke-width="1.6383" stroke-miterlimit="10"/>
<path d="M55.27 35.0898C53.2985 35.0898 51.7002 32.2138 51.7002 28.666C51.7002 25.1182 53.2985 22.2422 55.27 22.2422C57.2417 22.2422 58.84 25.1182 58.84 28.666C58.84 32.2138 57.2417 35.0898 55.27 35.0898Z" fill="#004265" stroke="white" stroke-width="1.6383" stroke-miterlimit="10"/>
<path d="M55.8589 35.0898C53.8874 35.0898 52.2891 32.2138 52.2891 28.666C52.2891 25.1182 53.8874 22.2422 55.8589 22.2422C57.8305 22.2422 59.4289 25.1182 59.4289 28.666C59.4289 32.2138 57.8305 35.0898 55.8589 35.0898Z" fill="#004265" stroke="white" stroke-width="1.6383" stroke-miterlimit="10"/>
<path d="M56.4595 35.0898C54.488 35.0898 52.8896 32.2138 52.8896 28.666C52.8896 25.1182 54.488 22.2422 56.4595 22.2422C58.4311 22.2422 60.0294 25.1182 60.0294 28.666C60.0294 32.2138 58.4311 35.0898 56.4595 35.0898Z" fill="#004265" stroke="white" stroke-width="1.6383" stroke-miterlimit="10"/>
<path d="M57.0493 35.0898C55.0778 35.0898 53.4795 32.2138 53.4795 28.666C53.4795 25.1182 55.0778 22.2422 57.0493 22.2422C59.021 22.2422 60.6193 25.1182 60.6193 28.666C60.6193 32.2138 59.021 35.0898 57.0493 35.0898Z" fill="#004265" stroke="white" stroke-width="1.6383" stroke-miterlimit="10"/>
<path d="M57.6393 35.0898C55.6677 35.0898 54.0693 32.2138 54.0693 28.666C54.0693 25.1182 55.6677 22.2422 57.6393 22.2422C59.6108 22.2422 61.2091 25.1182 61.2091 28.666C61.2091 32.2138 59.6108 35.0898 57.6393 35.0898Z" fill="#004265" stroke="white" stroke-width="1.6383" stroke-miterlimit="10"/>
<path d="M58.2379 35.0898C56.2663 35.0898 54.668 32.2138 54.668 28.666C54.668 25.1182 56.2663 22.2422 58.2379 22.2422C60.2094 22.2422 61.8078 25.1182 61.8078 28.666C61.8078 32.2138 60.2094 35.0898 58.2379 35.0898Z" fill="#004265" stroke="white" stroke-width="1.6383" stroke-miterlimit="10"/>
<path d="M58.8276 35.0898C56.8561 35.0898 55.2578 32.2138 55.2578 28.666C55.2578 25.1182 56.8561 22.2422 58.8276 22.2422C60.7993 22.2422 62.3976 25.1182 62.3976 28.666C62.3976 32.2138 60.7993 35.0898 58.8276 35.0898Z" fill="#004265" stroke="white" stroke-width="1.6383" stroke-miterlimit="10"/>
<path d="M59.4273 35.0898C57.4556 35.0898 55.8574 32.2138 55.8574 28.666C55.8574 25.1182 57.4556 22.2422 59.4273 22.2422C61.3989 22.2422 62.9972 25.1182 62.9972 28.666C62.9972 32.2138 61.3989 35.0898 59.4273 35.0898Z" fill="#004265" stroke="white" stroke-width="1.6383" stroke-miterlimit="10"/>
<path d="M60.0181 35.0898C58.0464 35.0898 56.4482 32.2138 56.4482 28.666C56.4482 25.1182 58.0464 22.2422 60.0181 22.2422C61.9897 22.2422 63.588 25.1182 63.588 28.666C63.588 32.2138 61.9897 35.0898 60.0181 35.0898Z" fill="#004265" stroke="white" stroke-width="1.6383" stroke-miterlimit="10"/>
<path d="M60.6196 35.0898C58.648 35.0898 57.0498 32.2138 57.0498 28.666C57.0498 25.1182 58.648 22.2422 60.6196 22.2422C62.5913 22.2422 64.1896 25.1182 64.1896 28.666C64.1896 32.2138 62.5913 35.0898 60.6196 35.0898Z" fill="#004265" stroke="white" stroke-width="1.6383" stroke-miterlimit="10"/>
<path d="M61.2075 35.0898C59.2359 35.0898 57.6377 32.2138 57.6377 28.666C57.6377 25.1182 59.2359 22.2422 61.2075 22.2422C63.1792 22.2422 64.7775 25.1182 64.7775 28.666C64.7775 32.2138 63.1792 35.0898 61.2075 35.0898Z" fill="#004265" stroke="white" stroke-width="1.6383" stroke-miterlimit="10"/>
<path d="M61.7974 35.0898C59.8259 35.0898 58.2275 32.2138 58.2275 28.666C58.2275 25.1182 59.8259 22.2422 61.7974 22.2422C63.769 22.2422 65.3673 25.1182 65.3673 28.666C65.3673 32.2138 63.769 35.0898 61.7974 35.0898Z" fill="#004265" stroke="white" stroke-width="1.6383" stroke-miterlimit="10"/>
<path d="M62.3999 35.0898C60.4283 35.0898 58.8301 32.2138 58.8301 28.666C58.8301 25.1182 60.4283 22.2422 62.3999 22.2422C64.3715 22.2422 65.9699 25.1182 65.9699 28.666C65.9699 32.2138 64.3715 35.0898 62.3999 35.0898Z" fill="#004265" stroke="white" stroke-width="1.6383" stroke-miterlimit="10"/>
<path d="M62.9879 35.0898C61.0163 35.0898 59.418 32.2138 59.418 28.666C59.418 25.1182 61.0163 22.2422 62.9879 22.2422C64.9596 22.2422 66.5579 25.1182 66.5579 28.666C66.5579 32.2138 64.9596 35.0898 62.9879 35.0898Z" fill="#004265" stroke="white" stroke-width="1.6383" stroke-miterlimit="10"/>
<path d="M63.5874 35.0898C61.6158 35.0898 60.0176 32.2138 60.0176 28.666C60.0176 25.1182 61.6158 22.2422 63.5874 22.2422C65.559 22.2422 67.1574 25.1182 67.1574 28.666C67.1574 32.2138 65.559 35.0898 63.5874 35.0898Z" fill="#004265" stroke="white" stroke-width="1.6383" stroke-miterlimit="10"/>
<path d="M64.1782 35.0898C62.2066 35.0898 60.6084 32.2138 60.6084 28.666C60.6084 25.1182 62.2066 22.2422 64.1782 22.2422C66.1499 22.2422 67.7482 25.1182 67.7482 28.666C67.7482 32.2138 66.1499 35.0898 64.1782 35.0898Z" fill="#004265" stroke="white" stroke-width="1.6383" stroke-miterlimit="10"/>
<path d="M64.778 35.0898C62.8063 35.0898 61.208 32.2138 61.208 28.666C61.208 25.1182 62.8063 22.2422 64.778 22.2422C66.7495 22.2422 68.3478 25.1182 68.3478 28.666C68.3478 32.2138 66.7495 35.0898 64.778 35.0898Z" fill="#004265" stroke="white" stroke-width="1.6383" stroke-miterlimit="10"/>
<path d="M65.3677 35.0898C63.3962 35.0898 61.7979 32.2138 61.7979 28.666C61.7979 25.1182 63.3962 22.2422 65.3677 22.2422C67.3393 22.2422 68.9376 25.1182 68.9376 28.666C68.9376 32.2138 67.3393 35.0898 65.3677 35.0898Z" fill="#004265" stroke="white" stroke-width="1.6383" stroke-miterlimit="10"/>
<path d="M65.9575 35.0898C63.9859 35.0898 62.3877 32.2138 62.3877 28.666C62.3877 25.1182 63.9859 22.2422 65.9575 22.2422C67.9292 22.2422 69.5275 25.1182 69.5275 28.666C69.5275 32.2138 67.9292 35.0898 65.9575 35.0898Z" fill="#004265" stroke="white" stroke-width="1.6383" stroke-miterlimit="10"/>
<path d="M66.5581 35.0898C64.5866 35.0898 62.9883 32.2138 62.9883 28.666C62.9883 25.1182 64.5866 22.2422 66.5581 22.2422C68.5297 22.2422 70.1281 25.1182 70.1281 28.666C70.1281 32.2138 68.5297 35.0898 66.5581 35.0898Z" fill="#004265" stroke="white" stroke-width="1.6383" stroke-miterlimit="10"/>
<path d="M67.148 35.0898C65.1763 35.0898 63.5781 32.2138 63.5781 28.666C63.5781 25.1182 65.1763 22.2422 67.148 22.2422C69.1196 22.2422 70.7179 25.1182 70.7179 28.666C70.7179 32.2138 69.1196 35.0898 67.148 35.0898Z" fill="#004265" stroke="white" stroke-width="1.6383" stroke-miterlimit="10"/>
<path d="M67.7485 35.0898C65.7769 35.0898 64.1787 32.2138 64.1787 28.666C64.1787 25.1182 65.7769 22.2422 67.7485 22.2422C69.7202 22.2422 71.3185 25.1182 71.3185 28.666C71.3185 32.2138 69.7202 35.0898 67.7485 35.0898Z" fill="#004265" stroke="white" stroke-width="1.6383" stroke-miterlimit="10"/>
<path d="M68.3384 35.0898C66.3668 35.0898 64.7686 32.2138 64.7686 28.666C64.7686 25.1182 66.3668 22.2422 68.3384 22.2422C70.31 22.2422 71.9084 25.1182 71.9084 28.666C71.9084 32.2138 70.31 35.0898 68.3384 35.0898Z" fill="#004265" stroke="white" stroke-width="1.6383" stroke-miterlimit="10"/>
<path d="M68.938 35.0898C66.9665 35.0898 65.3682 32.2138 65.3682 28.666C65.3682 25.1182 66.9665 22.2422 68.938 22.2422C70.9096 22.2422 72.508 25.1182 72.508 28.666C72.508 32.2138 70.9096 35.0898 68.938 35.0898Z" fill="#004265" stroke="white" stroke-width="1.6383" stroke-miterlimit="10"/>
<path d="M69.5278 35.0898C67.5563 35.0898 65.958 32.2138 65.958 28.666C65.958 25.1182 67.5563 22.2422 69.5278 22.2422C71.4995 22.2422 73.0978 25.1182 73.0978 28.666C73.0978 32.2138 71.4995 35.0898 69.5278 35.0898Z" fill="#004265" stroke="white" stroke-width="1.6383" stroke-miterlimit="10"/>
<path d="M70.1187 35.0898C68.147 35.0898 66.5488 32.2138 66.5488 28.666C66.5488 25.1182 68.147 22.2422 70.1187 22.2422C72.0903 22.2422 73.6886 25.1182 73.6886 28.666C73.6886 32.2138 72.0903 35.0898 70.1187 35.0898Z" fill="#004265" stroke="white" stroke-width="1.6383" stroke-miterlimit="10"/>
<path d="M70.7183 35.0898C68.7466 35.0898 67.1484 32.2138 67.1484 28.666C67.1484 25.1182 68.7466 22.2422 70.7183 22.2422C72.6899 22.2422 74.2882 25.1182 74.2882 28.666C74.2882 32.2138 72.6899 35.0898 70.7183 35.0898Z" fill="#004265" stroke="white" stroke-width="1.6383" stroke-miterlimit="10"/>
<path d="M71.3082 35.0898C69.3366 35.0898 67.7383 32.2138 67.7383 28.666C67.7383 25.1182 69.3366 22.2422 71.3082 22.2422C73.2799 22.2422 74.8782 25.1182 74.8782 28.666C74.8782 32.2138 73.2799 35.0898 71.3082 35.0898Z" fill="#004265" stroke="white" stroke-width="1.6383" stroke-miterlimit="10"/>
<path d="M71.9087 35.0898C69.9371 35.0898 68.3389 32.2138 68.3389 28.666C68.3389 25.1182 69.9371 22.2422 71.9087 22.2422C73.8803 22.2422 75.4787 25.1182 75.4787 28.666C75.4787 32.2138 73.8803 35.0898 71.9087 35.0898Z" fill="#004265" stroke="white" stroke-width="1.6383" stroke-miterlimit="10"/>
<path d="M72.4985 35.0898C70.5269 35.0898 68.9287 32.2138 68.9287 28.666C68.9287 25.1182 70.5269 22.2422 72.4985 22.2422C74.4702 22.2422 76.0685 25.1182 76.0685 28.666C76.0685 32.2138 74.4702 35.0898 72.4985 35.0898Z" fill="#004265" stroke="white" stroke-width="1.6383" stroke-miterlimit="10"/>
<path d="M73.0982 35.0898C71.1265 35.0898 69.5283 32.2138 69.5283 28.666C69.5283 25.1182 71.1265 22.2422 73.0982 22.2422C75.0698 22.2422 76.6681 25.1182 76.6681 28.666C76.6681 32.2138 75.0698 35.0898 73.0982 35.0898Z" fill="#004265" stroke="white" stroke-width="1.6383" stroke-miterlimit="10"/>
<path d="M73.689 35.0898C71.7173 35.0898 70.1191 32.2138 70.1191 28.666C70.1191 25.1182 71.7173 22.2422 73.689 22.2422C75.6606 22.2422 77.2589 25.1182 77.2589 28.666C77.2589 32.2138 75.6606 35.0898 73.689 35.0898Z" fill="#004265" stroke="white" stroke-width="1.6383" stroke-miterlimit="10"/>
<path d="M74.2886 35.0898C72.317 35.0898 70.7188 32.2138 70.7188 28.666C70.7188 25.1182 72.317 22.2422 74.2886 22.2422C76.2602 22.2422 77.8586 25.1182 77.8586 28.666C77.8586 32.2138 76.2602 35.0898 74.2886 35.0898Z" fill="#004265" stroke="white" stroke-width="1.6383" stroke-miterlimit="10"/>
<path d="M74.8784 35.0898C72.9069 35.0898 71.3086 32.2138 71.3086 28.666C71.3086 25.1182 72.9069 22.2422 74.8784 22.2422C76.8501 22.2422 78.4484 25.1182 78.4484 28.666C78.4484 32.2138 76.8501 35.0898 74.8784 35.0898Z" fill="#004265" stroke="white" stroke-width="1.6383" stroke-miterlimit="10"/>
<path d="M75.4683 35.0898C73.4966 35.0898 71.8984 32.2138 71.8984 28.666C71.8984 25.1182 73.4966 22.2422 75.4683 22.2422C77.4399 22.2422 79.0382 25.1182 79.0382 28.666C79.0382 32.2138 77.4399 35.0898 75.4683 35.0898Z" fill="#004265" stroke="white" stroke-width="1.6383" stroke-miterlimit="10"/>
<path d="M76.0669 35.0898C74.0953 35.0898 72.4971 32.2138 72.4971 28.666C72.4971 25.1182 74.0953 22.2422 76.0669 22.2422C78.0385 22.2422 79.6369 25.1182 79.6369 28.666C79.6369 32.2138 78.0385 35.0898 76.0669 35.0898Z" fill="#004265" stroke="white" stroke-width="1.6383" stroke-miterlimit="10"/>
<path d="M76.6587 35.0898C74.6871 35.0898 73.0889 32.2138 73.0889 28.666C73.0889 25.1182 74.6871 22.2422 76.6587 22.2422C78.6303 22.2422 80.2287 25.1182 80.2287 28.666C80.2287 32.2138 78.6303 35.0898 76.6587 35.0898Z" fill="#004265" stroke="white" stroke-width="1.6383" stroke-miterlimit="10"/>
<path d="M77.2573 35.0898C75.2857 35.0898 73.6875 32.2138 73.6875 28.666C73.6875 25.1182 75.2857 22.2422 77.2573 22.2422C79.229 22.2422 80.8273 25.1182 80.8273 28.666C80.8273 32.2138 79.229 35.0898 77.2573 35.0898Z" fill="#004265" stroke="white" stroke-width="1.6383" stroke-miterlimit="10"/>
<path d="M77.8491 35.0898C75.8775 35.0898 74.2793 32.2138 74.2793 28.666C74.2793 25.1182 75.8775 22.2422 77.8491 22.2422C79.8208 22.2422 81.4191 25.1182 81.4191 28.666C81.4191 32.2138 79.8208 35.0898 77.8491 35.0898Z" fill="#004265" stroke="white" stroke-width="1.6383" stroke-miterlimit="10"/>
<path d="M78.4478 35.0898C76.4763 35.0898 74.8779 32.2138 74.8779 28.666C74.8779 25.1182 76.4763 22.2422 78.4478 22.2422C80.4194 22.2422 82.0177 25.1182 82.0177 28.666C82.0177 32.2138 80.4194 35.0898 78.4478 35.0898Z" fill="#004265" stroke="white" stroke-width="1.6383" stroke-miterlimit="10"/>
<path d="M79.0366 35.0898C77.0651 35.0898 75.4668 32.2138 75.4668 28.666C75.4668 25.1182 77.0651 22.2422 79.0366 22.2422C81.0083 22.2422 82.6066 25.1182 82.6066 28.666C82.6066 32.2138 81.0083 35.0898 79.0366 35.0898Z" fill="#004265" stroke="white" stroke-width="1.6383" stroke-miterlimit="10"/>
<path d="M79.6266 35.0898C77.655 35.0898 76.0566 32.2138 76.0566 28.666C76.0566 25.1182 77.655 22.2422 79.6266 22.2422C81.5982 22.2422 83.1966 25.1182 83.1966 28.666C83.1966 32.2138 81.5982 35.0898 79.6266 35.0898Z" fill="#004265" stroke="white" stroke-width="1.6383" stroke-miterlimit="10"/>
<path d="M80.2271 35.0898C78.2554 35.0898 76.6572 32.2138 76.6572 28.666C76.6572 25.1182 78.2554 22.2422 80.2271 22.2422C82.1987 22.2422 83.797 25.1182 83.797 28.666C83.797 32.2138 82.1987 35.0898 80.2271 35.0898Z" fill="#004265" stroke="white" stroke-width="1.6383" stroke-miterlimit="10"/>
<path d="M80.8169 35.0898C78.8453 35.0898 77.2471 32.2138 77.2471 28.666C77.2471 25.1182 78.8453 22.2422 80.8169 22.2422C82.7885 22.2422 84.3869 25.1182 84.3869 28.666C84.3869 32.2138 82.7885 35.0898 80.8169 35.0898Z" fill="#004265" stroke="white" stroke-width="1.6383" stroke-miterlimit="10"/>
<path d="M81.4175 35.0898C79.4459 35.0898 77.8477 32.2138 77.8477 28.666C77.8477 25.1182 79.4459 22.2422 81.4175 22.2422C83.3891 22.2422 84.9875 25.1182 84.9875 28.666C84.9875 32.2138 83.3891 35.0898 81.4175 35.0898Z" fill="#004265" stroke="white" stroke-width="1.6383" stroke-miterlimit="10"/>
<path d="M82.0064 35.0898C80.0349 35.0898 78.4365 32.2138 78.4365 28.666C78.4365 25.1182 80.0349 22.2422 82.0064 22.2422C83.978 22.2422 85.5763 25.1182 85.5763 28.666C85.5763 32.2138 83.978 35.0898 82.0064 35.0898Z" fill="#004265" stroke="white" stroke-width="1.6383" stroke-miterlimit="10"/>
<path d="M82.6079 35.0898C80.6363 35.0898 79.0381 32.2138 79.0381 28.666C79.0381 25.1182 80.6363 22.2422 82.6079 22.2422C84.5796 22.2422 86.1779 25.1182 86.1779 28.666C86.1779 32.2138 84.5796 35.0898 82.6079 35.0898Z" fill="#004265" stroke="white" stroke-width="1.6383" stroke-miterlimit="10"/>
<path d="M83.1978 35.0898C81.2263 35.0898 79.6279 32.2138 79.6279 28.666C79.6279 25.1182 81.2263 22.2422 83.1978 22.2422C85.1694 22.2422 86.7677 25.1182 86.7677 28.666C86.7677 32.2138 85.1694 35.0898 83.1978 35.0898Z" fill="#004265" stroke="white" stroke-width="1.6383" stroke-miterlimit="10"/>
<path d="M83.7866 35.0898C81.815 35.0898 80.2168 32.2138 80.2168 28.666C80.2168 25.1182 81.815 22.2422 83.7866 22.2422C85.7583 22.2422 87.3566 25.1182 87.3566 28.666C87.3566 32.2138 85.7583 35.0898 83.7866 35.0898Z" fill="#004265" stroke="white" stroke-width="1.6383" stroke-miterlimit="10"/>
<path d="M84.3873 35.0898C82.4157 35.0898 80.8174 32.2138 80.8174 28.666C80.8174 25.1182 82.4157 22.2422 84.3873 22.2422C86.359 22.2422 87.9573 25.1182 87.9573 28.666C87.9573 32.2138 86.359 35.0898 84.3873 35.0898Z" fill="#004265" stroke="white" stroke-width="1.6383" stroke-miterlimit="10"/>
<path d="M84.9771 35.0898C83.0054 35.0898 81.4072 32.2138 81.4072 28.666C81.4072 25.1182 83.0054 22.2422 84.9771 22.2422C86.9487 22.2422 88.547 25.1182 88.547 28.666C88.547 32.2138 86.9487 35.0898 84.9771 35.0898Z" fill="#004265" stroke="white" stroke-width="1.6383" stroke-miterlimit="10"/>
<path d="M85.5778 35.0898C83.6061 35.0898 82.0078 32.2138 82.0078 28.666C82.0078 25.1182 83.6061 22.2422 85.5778 22.2422C87.5494 22.2422 89.1477 25.1182 89.1477 28.666C89.1477 32.2138 87.5494 35.0898 85.5778 35.0898Z" fill="#004265" stroke="white" stroke-width="1.6383" stroke-miterlimit="10"/>
<path d="M86.1675 35.0898C84.1959 35.0898 82.5977 32.2138 82.5977 28.666C82.5977 25.1182 84.1959 22.2422 86.1675 22.2422C88.1391 22.2422 89.7375 25.1182 89.7375 28.666C89.7375 32.2138 88.1391 35.0898 86.1675 35.0898Z" fill="#004265" stroke="white" stroke-width="1.6383" stroke-miterlimit="10"/>
<path d="M86.7681 35.0898C84.7966 35.0898 83.1982 32.2138 83.1982 28.666C83.1982 25.1182 84.7966 22.2422 86.7681 22.2422C88.7397 22.2422 90.338 25.1182 90.338 28.666C90.338 32.2138 88.7397 35.0898 86.7681 35.0898Z" fill="#004265" stroke="white" stroke-width="1.6383" stroke-miterlimit="10"/>
<path d="M87.3579 35.0898C85.3864 35.0898 83.7881 32.2138 83.7881 28.666C83.7881 25.1182 85.3864 22.2422 87.3579 22.2422C89.3296 22.2422 90.9279 25.1182 90.9279 28.666C90.9279 32.2138 89.3296 35.0898 87.3579 35.0898Z" fill="#004265" stroke="white" stroke-width="1.6383" stroke-miterlimit="10"/>
<path d="M87.9469 35.0898C85.9753 35.0898 84.377 32.2138 84.377 28.666C84.377 25.1182 85.9753 22.2422 87.9469 22.2422C89.9185 22.2422 91.5169 25.1182 91.5169 28.666C91.5169 32.2138 89.9185 35.0898 87.9469 35.0898Z" fill="#004265" stroke="white" stroke-width="1.6383" stroke-miterlimit="10"/>
<path d="M88.5485 35.0898C86.5769 35.0898 84.9785 32.2138 84.9785 28.666C84.9785 25.1182 86.5769 22.2422 88.5485 22.2422C90.5201 22.2422 92.1184 25.1182 92.1184 28.666C92.1184 32.2138 90.5201 35.0898 88.5485 35.0898Z" fill="#004265" stroke="white" stroke-width="1.6383" stroke-miterlimit="10"/>
<path d="M89.1373 35.0898C87.1657 35.0898 85.5674 32.2138 85.5674 28.666C85.5674 25.1182 87.1657 22.2422 89.1373 22.2422C91.109 22.2422 92.7073 25.1182 92.7073 28.666C92.7073 32.2138 91.109 35.0898 89.1373 35.0898Z" fill="#004265" stroke="white" stroke-width="1.6383" stroke-miterlimit="10"/>
<path d="M89.7378 35.0898C87.7662 35.0898 86.168 32.2138 86.168 28.666C86.168 25.1182 87.7662 22.2422 89.7378 22.2422C91.7094 22.2422 93.3078 25.1182 93.3078 28.666C93.3078 32.2138 91.7094 35.0898 89.7378 35.0898Z" fill="#004265" stroke="white" stroke-width="1.6383" stroke-miterlimit="10"/>
<path d="M90.3276 35.0898C88.356 35.0898 86.7578 32.2138 86.7578 28.666C86.7578 25.1182 88.356 22.2422 90.3276 22.2422C92.2993 22.2422 93.8976 25.1182 93.8976 28.666C93.8976 32.2138 92.2993 35.0898 90.3276 35.0898Z" fill="#004265" stroke="white" stroke-width="1.6383" stroke-miterlimit="10"/>
<path d="M90.9263 35.0898C88.9548 35.0898 87.3564 32.2138 87.3564 28.666C87.3564 25.1182 88.9548 22.2422 90.9263 22.2422C92.8979 22.2422 94.4962 25.1182 94.4962 28.666C94.4962 32.2138 92.8979 35.0898 90.9263 35.0898Z" fill="#004265" stroke="white" stroke-width="1.6383" stroke-miterlimit="10"/>
<path d="M91.5162 35.0898C89.5446 35.0898 87.9463 32.2138 87.9463 28.666C87.9463 25.1182 89.5446 22.2422 91.5162 22.2422C93.4879 22.2422 95.0862 25.1182 95.0862 28.666C95.0862 32.2138 93.4879 35.0898 91.5162 35.0898Z" fill="#004265" stroke="white" stroke-width="1.6383" stroke-miterlimit="10"/>
<path d="M92.1071 35.0898C90.1354 35.0898 88.5371 32.2138 88.5371 28.666C88.5371 25.1182 90.1354 22.2422 92.1071 22.2422C94.0787 22.2422 95.677 25.1182 95.677 28.666C95.677 32.2138 94.0787 35.0898 92.1071 35.0898Z" fill="#004265" stroke="white" stroke-width="1.6383" stroke-miterlimit="10"/>
<path d="M92.7056 35.0898C90.734 35.0898 89.1357 32.2138 89.1357 28.666C89.1357 25.1182 90.734 22.2422 92.7056 22.2422C94.6772 22.2422 96.2755 25.1182 96.2755 28.666C96.2755 32.2138 94.6772 35.0898 92.7056 35.0898Z" fill="#004265" stroke="white" stroke-width="1.6383" stroke-miterlimit="10"/>
<path d="M93.2965 35.0898C91.3249 35.0898 89.7266 32.2138 89.7266 28.666C89.7266 25.1182 91.3249 22.2422 93.2965 22.2422C95.2682 22.2422 96.8665 25.1182 96.8665 28.666C96.8665 32.2138 95.2682 35.0898 93.2965 35.0898Z" fill="#004265" stroke="white" stroke-width="1.6383" stroke-miterlimit="10"/>
<path d="M93.8981 35.0898C91.9265 35.0898 90.3281 32.2138 90.3281 28.666C90.3281 25.1182 91.9265 22.2422 93.8981 22.2422C95.8697 22.2422 97.468 25.1182 97.468 28.666C97.468 32.2138 95.8697 35.0898 93.8981 35.0898Z" fill="#004265" stroke="white" stroke-width="1.6383" stroke-miterlimit="10"/>
<path d="M94.4889 35.0898C92.5173 35.0898 90.9189 32.2138 90.9189 28.666C90.9189 25.1182 92.5173 22.2422 94.4889 22.2422C96.4605 22.2422 98.0589 25.1182 98.0589 28.666C98.0589 32.2138 96.4605 35.0898 94.4889 35.0898Z" fill="#004265" stroke="white" stroke-width="1.6383" stroke-miterlimit="10"/>
<path d="M95.0885 35.0898C93.1169 35.0898 91.5186 32.2138 91.5186 28.666C91.5186 25.1182 93.1169 22.2422 95.0885 22.2422C97.0601 22.2422 98.6585 25.1182 98.6585 28.666C98.6585 32.2138 97.0601 35.0898 95.0885 35.0898Z" fill="#004265" stroke="white" stroke-width="1.6383" stroke-miterlimit="10"/>
<path d="M95.6764 35.0898C93.7048 35.0898 92.1064 32.2138 92.1064 28.666C92.1064 25.1182 93.7048 22.2422 95.6764 22.2422C97.648 22.2422 99.2464 25.1182 99.2464 28.666C99.2464 32.2138 97.648 35.0898 95.6764 35.0898Z" fill="#004265" stroke="white" stroke-width="1.6383" stroke-miterlimit="10"/>
<path d="M96.2681 35.0898C94.2964 35.0898 92.6982 32.2138 92.6982 28.666C92.6982 25.1182 94.2964 22.2422 96.2681 22.2422C98.2397 22.2422 99.838 25.1182 99.838 28.666C99.838 32.2138 98.2397 35.0898 96.2681 35.0898Z" fill="#004265" stroke="white" stroke-width="1.6383" stroke-miterlimit="10"/>
<path d="M96.8659 35.0898C94.8942 35.0898 93.2959 32.2138 93.2959 28.666C93.2959 25.1182 94.8942 22.2422 96.8659 22.2422C98.8375 22.2422 100.436 25.1182 100.436 28.666C100.436 32.2138 98.8375 35.0898 96.8659 35.0898Z" fill="#004265" stroke="white" stroke-width="1.6383" stroke-miterlimit="10"/>
<path d="M97.4567 35.0898C95.4851 35.0898 93.8867 32.2138 93.8867 28.666C93.8867 25.1182 95.4851 22.2422 97.4567 22.2422C99.4283 22.2422 101.027 25.1182 101.027 28.666C101.027 32.2138 99.4283 35.0898 97.4567 35.0898Z" fill="#004265" stroke="white" stroke-width="1.6383" stroke-miterlimit="10"/>
<path d="M98.0562 35.0898C96.0845 35.0898 94.4863 32.2138 94.4863 28.666C94.4863 25.1182 96.0845 22.2422 98.0562 22.2422C100.028 22.2422 101.626 25.1182 101.626 28.666C101.626 32.2138 100.028 35.0898 98.0562 35.0898Z" fill="#004265" stroke="white" stroke-width="1.6383" stroke-miterlimit="10"/>
<path d="M98.6461 35.0898C96.6745 35.0898 95.0762 32.2138 95.0762 28.666C95.0762 25.1182 96.6745 22.2422 98.6461 22.2422C100.618 22.2422 102.216 25.1182 102.216 28.666C102.216 32.2138 100.618 35.0898 98.6461 35.0898Z" fill="#004265" stroke="white" stroke-width="1.6383" stroke-miterlimit="10"/>
<path d="M99.2466 35.0898C97.275 35.0898 95.6768 32.2138 95.6768 28.666C95.6768 25.1182 97.275 22.2422 99.2466 22.2422C101.218 22.2422 102.817 25.1182 102.817 28.666C102.817 32.2138 101.218 35.0898 99.2466 35.0898Z" fill="#004265" stroke="white" stroke-width="1.6383" stroke-miterlimit="10"/>
<path d="M99.8366 35.0898C97.8649 35.0898 96.2666 32.2138 96.2666 28.666C96.2666 25.1182 97.8649 22.2422 99.8366 22.2422C101.808 22.2422 103.407 25.1182 103.407 28.666C103.407 32.2138 101.808 35.0898 99.8366 35.0898Z" fill="#004265" stroke="white" stroke-width="1.6383" stroke-miterlimit="10"/>
<path d="M100.428 35.0898C98.4567 35.0898 96.8584 32.2138 96.8584 28.666C96.8584 25.1182 98.4567 22.2422 100.428 22.2422C102.4 22.2422 103.998 25.1182 103.998 28.666C103.998 32.2138 102.4 35.0898 100.428 35.0898Z" fill="#004265" stroke="white" stroke-width="1.6383" stroke-miterlimit="10"/>
<path d="M101.027 35.0898C99.0554 35.0898 97.457 32.2138 97.457 28.666C97.457 25.1182 99.0554 22.2422 101.027 22.2422C102.999 22.2422 104.597 25.1182 104.597 28.666C104.597 32.2138 102.999 35.0898 101.027 35.0898Z" fill="#004265" stroke="white" stroke-width="1.6383" stroke-miterlimit="10"/>
<path d="M101.617 35.0898C99.6452 35.0898 98.0469 32.2138 98.0469 28.666C98.0469 25.1182 99.6452 22.2422 101.617 22.2422C103.588 22.2422 105.187 25.1182 105.187 28.666C105.187 32.2138 103.588 35.0898 101.617 35.0898Z" fill="#004265" stroke="white" stroke-width="1.6383" stroke-miterlimit="10"/>
<path d="M102.216 35.0898C100.245 35.0898 98.6465 32.2138 98.6465 28.666C98.6465 25.1182 100.245 22.2422 102.216 22.2422C104.188 22.2422 105.786 25.1182 105.786 28.666C105.786 32.2138 104.188 35.0898 102.216 35.0898Z" fill="#004265" stroke="white" stroke-width="1.6383" stroke-miterlimit="10"/>
<path d="M84.5614 38.9172C85.0582 38.8339 85.5089 38.5193 85.8182 38.0398C86.1276 37.5603 86.2714 36.9535 86.2192 36.3477H49.7266V38.9172H84.5614Z" fill="#004265" stroke="white" stroke-width="1.6383" stroke-miterlimit="10"/>
<path d="M79.0081 41.5149C79.7811 41.5149 80.4015 40.366 80.4015 38.9453H49.7266V41.5149H79.0081Z" fill="#004265" stroke="white" stroke-width="1.6383" stroke-miterlimit="10"/>
<path d="M51.8418 79.4121H84.1136C86.3859 73.1993 87.4674 66.441 87.2767 59.6466C87.3014 53.3965 86.2227 47.2127 84.1136 41.5117H51.8418V79.4121Z" stroke="white" stroke-width="1.6383" stroke-miterlimit="10"/>
<path d="M86.41 47.3438H53.8232" stroke="white" stroke-width="1.6383" stroke-miterlimit="10"/>
<path d="M87.2677 55.7598H53.5947" stroke="white" stroke-width="1.6383" stroke-miterlimit="10"/>
<path d="M88.3539 63.3633H53.5947" stroke="white" stroke-width="1.6383" stroke-miterlimit="10"/>
<path d="M85.1593 77.4902H50.7822" stroke="white" stroke-width="1.6383" stroke-miterlimit="10"/>
<path d="M85.3243 44.0859H51.6514" stroke="white" stroke-width="1.6383" stroke-miterlimit="10"/>
<path d="M86.181 52.5H51.4219" stroke="white" stroke-width="1.6383" stroke-miterlimit="10"/>
<path d="M87.2673 60.1055H51.4219" stroke="white" stroke-width="1.6383" stroke-miterlimit="10"/>
<path d="M86.2178 69.2598H52.8984" stroke="white" stroke-width="1.6383" stroke-miterlimit="10"/>
<path d="M86.2178 72.0898H52.8984" stroke="white" stroke-width="1.6383" stroke-miterlimit="10"/>
<path d="M86.2189 74.918H51.8418" stroke="white" stroke-width="1.6383" stroke-miterlimit="10"/>
<path d="M68.7655 85.1991C67.305 85.1991 66.1211 82.3232 66.1211 78.7754C66.1211 75.2276 67.305 72.3516 68.7655 72.3516C70.2259 72.3516 71.4098 75.2276 71.4098 78.7754C71.4098 82.3232 70.2259 85.1991 68.7655 85.1991Z" fill="#004265" stroke="white" stroke-width="1.6383" stroke-miterlimit="10"/>
<path d="M67.9003 85.1991C66.4398 85.1991 65.2559 82.3232 65.2559 78.7754C65.2559 75.2276 66.4398 72.3516 67.9003 72.3516C69.3607 72.3516 70.5446 75.2276 70.5446 78.7754C70.5446 82.3232 69.3607 85.1991 67.9003 85.1991Z" fill="#004265" stroke="white" stroke-width="1.6383" stroke-miterlimit="10"/>
<path d="M67.0458 85.1991C65.5853 85.1991 64.4014 82.3232 64.4014 78.7754C64.4014 75.2276 65.5853 72.3516 67.0458 72.3516C68.5063 72.3516 69.6902 75.2276 69.6902 78.7754C69.6902 82.3232 68.5063 85.1991 67.0458 85.1991Z" fill="#004265" stroke="white" stroke-width="1.6383" stroke-miterlimit="10"/>
<path d="M66.1825 85.1991C64.722 85.1991 63.5381 82.3232 63.5381 78.7754C63.5381 75.2276 64.722 72.3516 66.1825 72.3516C67.6429 72.3516 68.8268 75.2276 68.8268 78.7754C68.8268 82.3232 67.6429 85.1991 66.1825 85.1991Z" fill="#004265" stroke="white" stroke-width="1.6383" stroke-miterlimit="10"/>
<path d="M65.327 85.1991C63.8666 85.1991 62.6826 82.3232 62.6826 78.7754C62.6826 75.2276 63.8666 72.3516 65.327 72.3516C66.7875 72.3516 67.9715 75.2276 67.9715 78.7754C67.9715 82.3232 66.7875 85.1991 65.327 85.1991Z" fill="#004265" stroke="white" stroke-width="1.6383" stroke-miterlimit="10"/>
<path d="M64.4638 85.1991C63.0033 85.1991 61.8193 82.3232 61.8193 78.7754C61.8193 75.2276 63.0033 72.3516 64.4638 72.3516C65.9241 72.3516 67.1081 75.2276 67.1081 78.7754C67.1081 82.3232 65.9241 85.1991 64.4638 85.1991Z" fill="#004265" stroke="white" stroke-width="1.6383" stroke-miterlimit="10"/>
<path d="M63.6093 85.1991C62.1488 85.1991 60.9648 82.3232 60.9648 78.7754C60.9648 75.2276 62.1488 72.3516 63.6093 72.3516C65.0696 72.3516 66.2536 75.2276 66.2536 78.7754C66.2536 82.3232 65.0696 85.1991 63.6093 85.1991Z" fill="white" stroke="white" stroke-width="1.6383" stroke-miterlimit="10"/>
<path d="M62.7431 85.1991C61.2826 85.1991 60.0986 82.3232 60.0986 78.7754C60.0986 75.2276 61.2826 72.3516 62.7431 72.3516C64.2036 72.3516 65.3874 75.2276 65.3874 78.7754C65.3874 82.3232 64.2036 85.1991 62.7431 85.1991Z" fill="white" stroke="white" stroke-width="1.6383" stroke-miterlimit="10"/>
<path d="M61.8895 85.1991C60.4291 85.1991 59.2451 82.3232 59.2451 78.7754C59.2451 75.2276 60.4291 72.3516 61.8895 72.3516C63.3499 72.3516 64.5339 75.2276 64.5339 78.7754C64.5339 82.3232 63.3499 85.1991 61.8895 85.1991Z" fill="white" stroke="white" stroke-width="1.6383" stroke-miterlimit="10"/>
<path d="M61.0243 85.1991C59.5638 85.1991 58.3799 82.3232 58.3799 78.7754C58.3799 75.2276 59.5638 72.3516 61.0243 72.3516C62.4847 72.3516 63.6686 75.2276 63.6686 78.7754C63.6686 82.3232 62.4847 85.1991 61.0243 85.1991Z" fill="white" stroke="white" stroke-width="1.6383" stroke-miterlimit="10"/>
<path d="M60.1718 85.1991C58.7113 85.1991 57.5273 82.3232 57.5273 78.7754C57.5273 75.2276 58.7113 72.3516 60.1718 72.3516C61.6321 72.3516 62.8161 75.2276 62.8161 78.7754C62.8161 82.3232 61.6321 85.1991 60.1718 85.1991Z" fill="white" stroke="white" stroke-width="1.6383" stroke-miterlimit="10"/>
<path d="M59.3065 85.1991C57.8461 85.1991 56.6621 82.3232 56.6621 78.7754C56.6621 75.2276 57.8461 72.3516 59.3065 72.3516C60.7669 72.3516 61.9508 75.2276 61.9508 78.7754C61.9508 82.3232 60.7669 85.1991 59.3065 85.1991Z" fill="white" stroke="white" stroke-width="1.6383" stroke-miterlimit="10"/>
<path d="M58.453 85.1991C56.9925 85.1991 55.8086 82.3232 55.8086 78.7754C55.8086 75.2276 56.9925 72.3516 58.453 72.3516C59.9134 72.3516 61.0973 75.2276 61.0973 78.7754C61.0973 82.3232 59.9134 85.1991 58.453 85.1991Z" fill="white" stroke="white" stroke-width="1.6383" stroke-miterlimit="10"/>
<path d="M57.5878 85.1991C56.1273 85.1991 54.9434 82.3232 54.9434 78.7754C54.9434 75.2276 56.1273 72.3516 57.5878 72.3516C59.0482 72.3516 60.2321 75.2276 60.2321 78.7754C60.2321 82.3232 59.0482 85.1991 57.5878 85.1991Z" fill="white" stroke="white" stroke-width="1.6383" stroke-miterlimit="10"/>
<path d="M56.7333 85.1991C55.2728 85.1991 54.0889 82.3232 54.0889 78.7754C54.0889 75.2276 55.2728 72.3516 56.7333 72.3516C58.1937 72.3516 59.3776 75.2276 59.3776 78.7754C59.3776 82.3232 58.1937 85.1991 56.7333 85.1991Z" fill="white" stroke="white" stroke-width="1.6383" stroke-miterlimit="10"/>
<path d="M55.869 85.1991C54.4086 85.1991 53.2246 82.3232 53.2246 78.7754C53.2246 75.2276 54.4086 72.3516 55.869 72.3516C57.3294 72.3516 58.5133 75.2276 58.5133 78.7754C58.5133 82.3232 57.3294 85.1991 55.869 85.1991Z" fill="white" stroke="white" stroke-width="1.6383" stroke-miterlimit="10"/>
<path d="M55.0145 85.1991C53.5541 85.1991 52.3701 82.3232 52.3701 78.7754C52.3701 75.2276 53.5541 72.3516 55.0145 72.3516C56.4749 72.3516 57.6589 75.2276 57.6589 78.7754C57.6589 82.3232 56.4749 85.1991 55.0145 85.1991Z" fill="#004265" stroke="white" stroke-width="1.6383" stroke-miterlimit="10"/>
<path d="M40.2064 96.7583C32.9041 96.7583 26.9844 80.0773 26.9844 59.5003C26.9844 38.9232 32.9041 22.2422 40.2064 22.2422C47.5087 22.2422 53.4283 38.9232 53.4283 59.5003C53.4283 80.0773 47.5087 96.7583 40.2064 96.7583Z" fill="#004265" stroke="white" stroke-width="1.6383" stroke-miterlimit="10"/>
<path d="M39.3421 96.7583C32.0398 96.7583 26.1201 80.0773 26.1201 59.5003C26.1201 38.9232 32.0398 22.2422 39.3421 22.2422C46.6445 22.2422 52.564 38.9232 52.564 59.5003C52.564 80.0773 46.6445 96.7583 39.3421 96.7583Z" fill="#004265" stroke="white" stroke-width="1.6383" stroke-miterlimit="10"/>
<path d="M38.4867 96.7583C31.1843 96.7583 25.2646 80.0773 25.2646 59.5003C25.2646 38.9232 31.1843 22.2422 38.4867 22.2422C45.7889 22.2422 51.7086 38.9232 51.7086 59.5003C51.7086 80.0773 45.7889 96.7583 38.4867 96.7583Z" fill="#004265" stroke="white" stroke-width="1.6383" stroke-miterlimit="10"/>
<path d="M37.6214 96.7583C30.3191 96.7583 24.3994 80.0773 24.3994 59.5003C24.3994 38.9232 30.3191 22.2422 37.6214 22.2422C44.9236 22.2422 50.8433 38.9232 50.8433 59.5003C50.8433 80.0773 44.9236 96.7583 37.6214 96.7583Z" fill="#004265" stroke="white" stroke-width="1.6383" stroke-miterlimit="10"/>
<path d="M36.7689 96.7583C29.4665 96.7583 23.5469 80.0773 23.5469 59.5003C23.5469 38.9232 29.4665 22.2422 36.7689 22.2422C44.0711 22.2422 49.9908 38.9232 49.9908 59.5003C49.9908 80.0773 44.0711 96.7583 36.7689 96.7583Z" fill="#004265" stroke="white" stroke-width="1.6383" stroke-miterlimit="10"/>
<path d="M35.9036 96.7583C28.6013 96.7583 22.6816 80.0773 22.6816 59.5003C22.6816 38.9232 28.6013 22.2422 35.9036 22.2422C43.2058 22.2422 49.1255 38.9232 49.1255 59.5003C49.1255 80.0773 43.2058 96.7583 35.9036 96.7583Z" fill="#004265" stroke="white" stroke-width="1.6383" stroke-miterlimit="10"/>
<path d="M35.0501 96.7583C27.7478 96.7583 21.8281 80.0773 21.8281 59.5003C21.8281 38.9232 27.7478 22.2422 35.0501 22.2422C42.3523 22.2422 48.272 38.9232 48.272 59.5003C48.272 80.0773 42.3523 96.7583 35.0501 96.7583Z" fill="#004265" stroke="white" stroke-width="1.6383" stroke-miterlimit="10"/>
<path d="M34.1849 96.7583C26.8826 96.7583 20.9629 80.0773 20.9629 59.5003C20.9629 38.9232 26.8826 22.2422 34.1849 22.2422C41.4871 22.2422 47.4068 38.9232 47.4068 59.5003C47.4068 80.0773 41.4871 96.7583 34.1849 96.7583Z" fill="#004265" stroke="white" stroke-width="1.6383" stroke-miterlimit="10"/>
<path d="M33.3304 96.7583C26.0281 96.7583 20.1084 80.0773 20.1084 59.5003C20.1084 38.9232 26.0281 22.2422 33.3304 22.2422C40.6327 22.2422 46.5523 38.9232 46.5523 59.5003C46.5523 80.0773 40.6327 96.7583 33.3304 96.7583Z" fill="#004265" stroke="white" stroke-width="1.6383" stroke-miterlimit="10"/>
<path d="M32.4661 96.7583C25.1638 96.7583 19.2441 80.0773 19.2441 59.5003C19.2441 38.9232 25.1638 22.2422 32.4661 22.2422C39.7683 22.2422 45.688 38.9232 45.688 59.5003C45.688 80.0773 39.7683 96.7583 32.4661 96.7583Z" fill="#004265" stroke="white" stroke-width="1.6383" stroke-miterlimit="10"/>
<path d="M31.6116 96.7583C24.3093 96.7583 18.3896 80.0773 18.3896 59.5003C18.3896 38.9232 24.3093 22.2422 31.6116 22.2422C38.9138 22.2422 44.8335 38.9232 44.8335 59.5003C44.8335 80.0773 38.9138 96.7583 31.6116 96.7583Z" fill="#004265" stroke="white" stroke-width="1.6383" stroke-miterlimit="10"/>
<path d="M30.7484 96.7583C23.446 96.7583 17.5264 80.0773 17.5264 59.5003C17.5264 38.9232 23.446 22.2422 30.7484 22.2422C38.0506 22.2422 43.9703 38.9232 43.9703 59.5003C43.9703 80.0773 38.0506 96.7583 30.7484 96.7583Z" fill="#004265" stroke="white" stroke-width="1.6383" stroke-miterlimit="10"/>
<path d="M29.8929 96.7583C22.5906 96.7583 16.6709 80.0773 16.6709 59.5003C16.6709 38.9232 22.5906 22.2422 29.8929 22.2422C37.1951 22.2422 43.1148 38.9232 43.1148 59.5003C43.1148 80.0773 37.1951 96.7583 29.8929 96.7583Z" fill="#004265" stroke="white" stroke-width="1.6383" stroke-miterlimit="10"/>
<path d="M29.0277 96.7583C21.7253 96.7583 15.8057 80.0773 15.8057 59.5003C15.8057 38.9232 21.7253 22.2422 29.0277 22.2422C36.3299 22.2422 42.2496 38.9232 42.2496 59.5003C42.2496 80.0773 36.3299 96.7583 29.0277 96.7583Z" fill="#004265" stroke="white" stroke-width="1.6383" stroke-miterlimit="10"/>
<path d="M28.1741 96.7583C20.8718 96.7583 14.9521 80.0773 14.9521 59.5003C14.9521 38.9232 20.8718 22.2422 28.1741 22.2422C35.4763 22.2422 41.396 38.9232 41.396 59.5003C41.396 80.0773 35.4763 96.7583 28.1741 96.7583Z" fill="#004265" stroke="white" stroke-width="1.6383" stroke-miterlimit="10"/>
<path d="M27.3089 96.7583C20.0066 96.7583 14.0869 80.0773 14.0869 59.5003C14.0869 38.9232 20.0066 22.2422 27.3089 22.2422C34.6111 22.2422 40.5308 38.9232 40.5308 59.5003C40.5308 80.0773 34.6111 96.7583 27.3089 96.7583Z" fill="#004265" stroke="white" stroke-width="1.6383" stroke-miterlimit="10"/>
<path d="M26.4564 96.7583C19.154 96.7583 13.2344 80.0773 13.2344 59.5003C13.2344 38.9232 19.154 22.2422 26.4564 22.2422C33.7586 22.2422 39.6783 38.9232 39.6783 59.5003C39.6783 80.0773 33.7586 96.7583 26.4564 96.7583Z" stroke="white" stroke-width="1.6383" stroke-miterlimit="10"/>
<path d="M26.1898 90.9751C21.6624 90.9751 17.9922 77.1701 17.9922 60.1409C17.9922 43.1116 21.6624 29.3066 26.1898 29.3066C30.7172 29.3066 34.3874 43.1116 34.3874 60.1409C34.3874 77.1701 30.7172 90.9751 26.1898 90.9751Z" stroke="white" stroke-width="1.6383" stroke-miterlimit="10"/>
<path d="M25.7842 65.9266C24.5372 65.9266 23.5264 63.0726 23.5264 59.5522C23.5264 56.0317 24.5372 53.1777 25.7842 53.1777C27.0312 53.1777 28.0421 56.0317 28.0421 59.5522C28.0421 63.0726 27.0312 65.9266 25.7842 65.9266Z" fill="#004265" stroke="white" stroke-width="1.6383" stroke-miterlimit="10"/>
<path d="M25.6329 65.9266C24.3859 65.9266 23.375 63.0726 23.375 59.5522C23.375 56.0317 24.3859 53.1777 25.6329 53.1777C26.8799 53.1777 27.8909 56.0317 27.8909 59.5522C27.8909 63.0726 26.8799 65.9266 25.6329 65.9266Z" fill="#004265" stroke="white" stroke-width="1.6383" stroke-miterlimit="10"/>
<path d="M25.4884 65.9266C24.2414 65.9266 23.2305 63.0726 23.2305 59.5522C23.2305 56.0317 24.2414 53.1777 25.4884 53.1777C26.7354 53.1777 27.7463 56.0317 27.7463 59.5522C27.7463 63.0726 26.7354 65.9266 25.4884 65.9266Z" fill="#004265" stroke="white" stroke-width="1.6383" stroke-miterlimit="10"/>
<path d="M25.336 65.9266C24.089 65.9266 23.0781 63.0726 23.0781 59.5522C23.0781 56.0317 24.089 53.1777 25.336 53.1777C26.583 53.1777 27.5939 56.0317 27.5939 59.5522C27.5939 63.0726 26.583 65.9266 25.336 65.9266Z" fill="#004265" stroke="white" stroke-width="1.6383" stroke-miterlimit="10"/>
<path d="M25.1934 65.9266C23.9465 65.9266 22.9355 63.0726 22.9355 59.5522C22.9355 56.0317 23.9465 53.1777 25.1934 53.1777C26.4404 53.1777 27.4514 56.0317 27.4514 59.5522C27.4514 63.0726 26.4404 65.9266 25.1934 65.9266Z" fill="#004265" stroke="white" stroke-width="1.6383" stroke-miterlimit="10"/>
<path d="M25.0411 65.9266C23.7941 65.9266 22.7832 63.0726 22.7832 59.5522C22.7832 56.0317 23.7941 53.1777 25.0411 53.1777C26.2881 53.1777 27.299 56.0317 27.299 59.5522C27.299 63.0726 26.2881 65.9266 25.0411 65.9266Z" fill="#004265" stroke="white" stroke-width="1.6383" stroke-miterlimit="10"/>
<path d="M24.8995 65.9266C23.6525 65.9266 22.6416 63.0726 22.6416 59.5522C22.6416 56.0317 23.6525 53.1777 24.8995 53.1777C26.1465 53.1777 27.1574 56.0317 27.1574 59.5522C27.1574 63.0726 26.1465 65.9266 24.8995 65.9266Z" fill="#004265" stroke="white" stroke-width="1.6383" stroke-miterlimit="10"/>
<path d="M24.7461 65.9266C23.4992 65.9266 22.4883 63.0726 22.4883 59.5522C22.4883 56.0317 23.4992 53.1777 24.7461 53.1777C25.9931 53.1777 27.0041 56.0317 27.0041 59.5522C27.0041 63.0726 25.9931 65.9266 24.7461 65.9266Z" fill="#004265" stroke="white" stroke-width="1.6383" stroke-miterlimit="10"/>
<path d="M24.6036 65.9266C23.3566 65.9266 22.3457 63.0726 22.3457 59.5522C22.3457 56.0317 23.3566 53.1777 24.6036 53.1777C25.8506 53.1777 26.8615 56.0317 26.8615 59.5522C26.8615 63.0726 25.8506 65.9266 24.6036 65.9266Z" fill="#004265" stroke="white" stroke-width="1.6383" stroke-miterlimit="10"/>
<path d="M24.461 65.9266C23.214 65.9266 22.2031 63.0726 22.2031 59.5522C22.2031 56.0317 23.214 53.1777 24.461 53.1777C25.708 53.1777 26.7189 56.0317 26.7189 59.5522C26.7189 63.0726 25.708 65.9266 24.461 65.9266Z" fill="#004265" stroke="white" stroke-width="1.6383" stroke-miterlimit="10"/>
<path d="M24.3087 65.9266C23.0617 65.9266 22.0508 63.0726 22.0508 59.5522C22.0508 56.0317 23.0617 53.1777 24.3087 53.1777C25.5557 53.1777 26.5666 56.0317 26.5666 59.5522C26.5666 63.0726 25.5557 65.9266 24.3087 65.9266Z" fill="#004265" stroke="white" stroke-width="1.6383" stroke-miterlimit="10"/>
<path d="M24.1671 65.9266C22.9201 65.9266 21.9092 63.0726 21.9092 59.5522C21.9092 56.0317 22.9201 53.1777 24.1671 53.1777C25.4141 53.1777 26.4249 56.0317 26.4249 59.5522C26.4249 63.0726 25.4141 65.9266 24.1671 65.9266Z" fill="#004265" stroke="white" stroke-width="1.6383" stroke-miterlimit="10"/>
<path d="M24.0147 65.9266C22.7677 65.9266 21.7568 63.0726 21.7568 59.5522C21.7568 56.0317 22.7677 53.1777 24.0147 53.1777C25.2618 53.1777 26.2726 56.0317 26.2726 59.5522C26.2726 63.0726 25.2618 65.9266 24.0147 65.9266Z" fill="#004265" stroke="white" stroke-width="1.6383" stroke-miterlimit="10"/>
<path d="M23.8722 65.9266C22.6252 65.9266 21.6143 63.0726 21.6143 59.5522C21.6143 56.0317 22.6252 53.1777 23.8722 53.1777C25.1192 53.1777 26.1301 56.0317 26.1301 59.5522C26.1301 63.0726 25.1192 65.9266 23.8722 65.9266Z" fill="#004265" stroke="white" stroke-width="1.6383" stroke-miterlimit="10"/>
<path d="M23.7188 65.9266C22.4718 65.9266 21.4609 63.0726 21.4609 59.5522C21.4609 56.0317 22.4718 53.1777 23.7188 53.1777C24.9659 53.1777 25.9768 56.0317 25.9768 59.5522C25.9768 63.0726 24.9659 65.9266 23.7188 65.9266Z" fill="#004265" stroke="white" stroke-width="1.6383" stroke-miterlimit="10"/>
<path d="M23.5773 65.9266C22.3302 65.9266 21.3193 63.0726 21.3193 59.5522C21.3193 56.0317 22.3302 53.1777 23.5773 53.1777C24.8243 53.1777 25.8351 56.0317 25.8351 59.5522C25.8351 63.0726 24.8243 65.9266 23.5773 65.9266Z" fill="#004265" stroke="white" stroke-width="1.6383" stroke-miterlimit="10"/>
<path d="M23.4249 65.9266C22.1779 65.9266 21.167 63.0726 21.167 59.5522C21.167 56.0317 22.1779 53.1777 23.4249 53.1777C24.6718 53.1777 25.6828 56.0317 25.6828 59.5522C25.6828 63.0726 24.6718 65.9266 23.4249 65.9266Z" fill="#004265" stroke="white" stroke-width="1.6383" stroke-miterlimit="10"/>
</svg>
