<svg width="120" height="121" viewBox="0 0 120 121" fill="none" xmlns="http://www.w3.org/2000/svg">
<path d="M50 41C60 26 40 26 50 11M72.5 41C82.5 26 62.5 26 72.5 11M45 81V61M65 81V61M85 81V61" stroke="white" stroke-width="8" stroke-linecap="round" stroke-linejoin="round"/>
<path d="M100 30.5C102.652 30.5 105.196 31.5536 107.071 33.4289C108.946 35.3043 110 37.8478 110 40.5V90.5C110 93.1522 108.946 95.6957 107.071 97.5711C105.196 99.4464 102.652 100.5 100 100.5H20C17.3478 100.5 14.8043 99.4464 12.9289 97.5711C11.0536 95.6957 10 93.1522 10 90.5V40.5C10 37.8478 11.0536 35.3043 12.9289 33.4289C14.8043 31.5536 17.3478 30.5 20 30.5H35M25 100.5V110.5M95 100.5V110.5" stroke="white" stroke-width="8" stroke-linecap="round" stroke-linejoin="round"/>
</svg>
