<svg width="120" height="120" viewBox="0 0 120 120" fill="none" xmlns="http://www.w3.org/2000/svg">
<g clip-path="url(#clip0_490_1477)">
<path d="M94.8767 7.5C95.8824 7.85011 96.7458 8.5199 97.335 9.407C97.9241 10.2941 98.2066 11.3497 98.1392 12.4125C98.1392 12.9 98.1392 13.3125 98.6267 13.575C99.302 13.996 99.8439 14.6002 100.189 15.3172C100.534 16.0342 100.669 16.8345 100.577 17.625C100.577 18.5625 100.877 18.975 101.814 19.275C103.65 19.8126 105.257 20.943 106.383 22.4897C107.509 24.0365 108.091 25.9125 108.039 27.825C108.039 29.1375 108.039 30.4875 108.039 31.8C108.075 32.0298 108.06 32.2645 107.996 32.488C107.932 32.7116 107.821 32.9187 107.669 33.0951C107.518 33.2716 107.33 33.4132 107.119 33.5103C106.908 33.6074 106.678 33.6577 106.445 33.6577C106.213 33.6577 105.983 33.6074 105.772 33.5103C105.561 33.4132 105.373 33.2716 105.222 33.0951C105.07 32.9187 104.959 32.7116 104.895 32.488C104.831 32.2645 104.816 32.0298 104.852 31.8C104.945 30.1638 104.945 28.5237 104.852 26.8875C104.672 25.5881 104.032 24.3965 103.048 23.5293C102.064 22.6621 100.801 22.1771 99.4892 22.1625C95.7392 22.1625 91.9892 22.1625 88.2392 22.1625C87.4673 22.1295 86.6971 22.2591 85.9785 22.5429C85.2599 22.8267 84.609 23.2585 84.068 23.8101C83.527 24.3617 83.108 25.0208 82.8382 25.7448C82.5683 26.4688 82.4537 27.2414 82.5017 28.0125C82.5017 32.5875 82.5017 37.1625 82.5017 41.7375C82.5017 42.525 82.8767 42.6 83.5142 42.6H94.5017C95.1037 42.5348 95.7126 42.6054 96.2836 42.8066C96.8547 43.0078 97.3734 43.3345 97.8015 43.7627C98.2297 44.1908 98.5564 44.7095 98.7576 45.2806C98.9588 45.8516 99.0294 46.4605 98.9642 47.0625C98.9642 55.9625 98.9642 64.875 98.9642 73.8C99.0244 74.4025 98.9487 75.0108 98.7427 75.5802C98.5367 76.1496 98.2056 76.6656 97.7739 77.0901C97.3421 77.5147 96.8207 77.837 96.2479 78.0334C95.6751 78.2298 95.0656 78.2953 94.4642 78.225C90.7142 78.225 87.2267 78.225 83.5892 78.225C82.7267 78.225 82.3892 78.45 82.3892 79.3875C82.3892 83.55 82.3892 87.7125 82.3892 91.9125C82.3332 92.7329 82.4542 93.5557 82.744 94.3253C83.0337 95.0948 83.4856 95.7931 84.0688 96.3727C84.652 96.9524 85.353 97.3999 86.1243 97.685C86.8956 97.9701 87.7192 98.086 88.5392 98.025H98.5142C99.3798 98.1376 100.26 98.0525 101.088 97.7761C101.916 97.4997 102.67 97.0392 103.295 96.4293C103.919 95.8193 104.397 95.0757 104.693 94.2544C104.988 93.4331 105.094 92.5555 105.002 91.6875V39.375C105.002 37.725 105.564 36.9 106.652 36.9375C107.739 36.975 108.227 37.7625 108.227 39.375C108.227 56.875 108.227 74.375 108.227 91.875C108.33 93.8902 107.738 95.8796 106.55 97.5108C105.362 99.1421 103.651 100.316 101.702 100.837C101.027 101.062 100.764 101.362 100.802 102.075C100.913 102.927 100.777 103.793 100.412 104.57C100.046 105.348 99.4659 106.004 98.7392 106.462C98.3267 106.725 98.3642 107.138 98.3267 107.55C98.3587 108.583 98.1126 109.607 97.6142 110.512C97.1225 111.285 96.4067 111.89 95.5624 112.245C94.718 112.6 93.7855 112.689 92.8892 112.5C91.9929 112.317 91.177 111.856 90.5576 111.183C89.9383 110.51 89.5469 109.658 89.4392 108.75C89.3839 108.415 89.3839 108.073 89.4392 107.737C89.4713 107.383 89.4041 107.027 89.2451 106.71C89.0861 106.392 88.8417 106.124 88.5392 105.938C87.9663 105.509 87.5183 104.936 87.2413 104.277C86.9644 103.618 86.8688 102.896 86.9642 102.188C86.9962 102 86.9904 101.808 86.947 101.623C86.9037 101.438 86.8238 101.263 86.712 101.11C86.6001 100.956 86.4587 100.826 86.2959 100.728C86.1331 100.629 85.9524 100.565 85.7642 100.537C84.1428 100.154 82.6672 99.3084 81.5159 98.1039C80.3646 96.8994 79.5869 95.3871 79.2767 93.75C79.2767 92.9625 78.9017 92.6625 78.1142 92.7C77.3267 92.7375 75.5267 92.7 74.3642 92.7C74.2096 92.6729 74.0511 92.6796 73.8993 92.7196C73.7476 92.7596 73.6063 92.8319 73.4852 92.9317C73.364 93.0315 73.2659 93.1562 73.1976 93.2975C73.1292 93.4387 73.0923 93.5931 73.0892 93.75C72.8594 95.4425 72.1301 97.028 70.9945 98.3039C69.8589 99.5797 68.3686 100.488 66.7142 100.912C65.9267 101.175 65.6642 101.513 65.7392 102.3C65.8614 103.137 65.7303 103.992 65.3627 104.753C64.9951 105.515 64.4079 106.15 63.6767 106.575C63.0767 106.95 63.3017 107.55 63.2642 108.075C63.2883 108.71 63.1766 109.343 62.9365 109.931C62.6964 110.519 62.3334 111.049 61.8719 111.486C61.4104 111.923 60.861 112.256 60.2603 112.463C59.6597 112.67 59.0218 112.747 58.3892 112.688C57.7694 112.654 57.1658 112.478 56.6257 112.172C56.0856 111.866 55.6239 111.439 55.2767 110.925C55.0851 110.652 54.8243 110.436 54.5211 110.297C54.2179 110.159 53.8833 110.104 53.5517 110.138H34.1267C32.6234 110.231 31.1431 109.733 30.0017 108.75C29.5251 108.311 29.1455 107.778 28.8872 107.183C28.6289 106.589 28.4976 105.948 28.5017 105.3V96.525C28.5403 96.2287 28.4895 95.9277 28.3559 95.6604C28.2223 95.3932 28.0119 95.1719 27.7517 95.025C27.3163 94.7505 26.953 94.3758 26.692 93.9321C26.4311 93.4885 26.2801 92.9889 26.2517 92.475C26.1018 91.0414 26.1018 89.5961 26.2517 88.1625C26.2756 87.6336 26.4325 87.1193 26.7078 86.667C26.983 86.2148 27.3679 85.8392 27.8267 85.575C28.0613 85.4407 28.2528 85.2425 28.379 85.0034C28.5051 84.7644 28.5607 84.4944 28.5392 84.225C28.6571 82.7361 28.2886 81.2491 27.4892 79.9875C26.7156 78.8732 26.3295 77.5356 26.3905 76.1805C26.4515 74.8253 26.9561 73.5278 27.8267 72.4875C28.3506 71.8164 28.6047 70.9738 28.5392 70.125C28.5008 69.6883 28.5008 69.2492 28.5392 68.8125C28.6012 68.3947 28.5424 67.9679 28.3696 67.5825C28.1969 67.1971 27.9174 66.8692 27.5642 66.6375C26.5637 65.358 26.0202 63.7805 26.0202 62.1563C26.0202 60.532 26.5637 58.9545 27.5642 57.675C27.9365 57.4238 28.2295 57.0717 28.4088 56.6599C28.5882 56.2481 28.6464 55.7937 28.5767 55.35C28.5767 54.225 28.5767 53.1 28.5767 51.975C28.5664 51.5834 28.7098 51.2033 28.976 50.916C29.2423 50.6287 29.6104 50.457 30.0017 50.4375C30.2247 50.4189 30.4491 50.4504 30.6584 50.5297C30.8676 50.609 31.0565 50.7342 31.2111 50.896C31.3657 51.0578 31.4822 51.2522 31.5519 51.4648C31.6217 51.6775 31.643 51.903 31.6142 52.125C31.6142 53.3625 31.6142 54.6375 31.6142 55.875C31.6142 56.5125 31.8392 56.8125 32.4767 56.775C35.4767 56.775 34.9142 57.0375 34.9517 54.45C34.9517 48.525 34.9517 42.5625 34.9517 36.6375C34.9517 35.7 34.6517 35.4 33.7517 35.475C32.8517 35.55 33.0017 35.7 33.0017 36.225C33.0179 37.4394 32.6063 38.6209 31.8392 39.5625C31.6338 39.8713 31.5533 40.2466 31.6142 40.6125V45.15C31.6142 46.3875 31.0142 47.0625 29.9642 47.025C28.9142 46.9875 28.3892 46.35 28.3892 45.15C28.3892 43.95 28.3892 42.975 28.3892 41.8875C28.3892 40.8 28.1642 40.9875 27.5642 40.9875C26.9523 41.0259 26.3386 41.0259 25.7267 40.9875C24.6795 40.8749 23.7127 40.373 23.0181 39.5812C22.3236 38.7894 21.9519 37.7655 21.9767 36.7125V35.7375C21.9767 35.1375 21.7142 34.95 21.1892 34.95H17.4392C16.8142 35.0349 16.1784 34.9863 15.5736 34.8075C14.9688 34.6287 14.4087 34.3238 13.9303 33.9127C13.452 33.5017 13.0662 32.9939 12.7984 32.4229C12.5306 31.8519 12.3869 31.2306 12.3767 30.6C12.3464 29.9917 12.4389 29.3836 12.6487 28.8118C12.8584 28.2401 13.1811 27.7164 13.5975 27.272C14.0139 26.8275 14.5155 26.4715 15.0725 26.2251C15.6294 25.9786 16.2303 25.8468 16.8392 25.8375H20.3267C21.7892 25.8375 21.8267 25.8375 21.7892 24.375C21.7576 23.6298 21.9251 22.8896 22.2744 22.2305C22.6237 21.5714 23.1423 21.0173 23.7767 20.625C24.9118 20.0797 26.1549 19.7966 27.4142 19.7966C28.6735 19.7966 29.9166 20.0797 31.0517 20.625C31.66 21.0364 32.1521 21.5975 32.4805 22.2544C32.8089 22.9112 32.9626 23.6415 32.9267 24.375C32.9267 25.125 33.2267 25.3875 33.9767 25.3875C37.2017 25.3875 40.4642 25.3875 43.7267 25.3875C44.0199 25.4306 44.3182 25.3564 44.5569 25.1808C44.7956 25.0053 44.9555 24.7427 45.0017 24.45C45.5195 23.1627 46.3376 22.0178 47.3879 21.1111C48.4382 20.2043 49.6901 19.5619 51.0392 19.2375C51.7517 19.2375 51.9017 18.675 51.8267 18.0375C51.6756 17.1733 51.7965 16.2835 52.1726 15.4909C52.5488 14.6982 53.1617 14.0419 53.9267 13.6125C54.0767 13.5218 54.194 13.3857 54.2614 13.2238C54.3288 13.062 54.3429 12.8829 54.3017 12.7125C54.1426 11.6281 54.3565 10.5217 54.9084 9.57474C55.4602 8.62775 56.3173 7.89623 57.3392 7.5H60.0017C61.0465 7.8169 61.9479 8.48858 62.5504 9.39913C63.1529 10.3097 63.4186 11.402 63.3017 12.4875C63.3017 12.825 63.3017 13.2375 63.6392 13.4625C64.4122 13.9238 65.0291 14.6063 65.4102 15.4219C65.7912 16.2375 65.9189 17.1486 65.7767 18.0375C65.7767 18.7125 66.0392 19.0125 66.6767 19.1625C67.4481 19.335 68.184 19.6395 68.8517 20.0625C70.0649 20.7469 71.0943 21.715 71.8519 22.884C72.6094 24.053 73.0726 25.388 73.2017 26.775C73.2017 27.7125 73.6517 28.05 74.6267 28.0125C75.8756 27.9388 77.1278 27.9388 78.3767 28.0125C79.0142 28.0125 79.3517 28.0125 79.3892 27.1125C79.4928 25.3436 80.1387 23.6495 81.2391 22.2606C82.3394 20.8717 83.8409 19.8554 85.5392 19.35C85.7424 19.3183 85.9372 19.2462 86.1121 19.1379C86.287 19.0296 86.4383 18.8874 86.5572 18.7195C86.6761 18.5517 86.7601 18.3617 86.8042 18.1608C86.8484 17.9599 86.8518 17.7522 86.8142 17.55C86.7709 16.8114 86.9253 16.0745 87.2615 15.4154C87.5976 14.7563 88.1034 14.1987 88.7267 13.8C88.9149 13.6847 89.0651 13.5165 89.1584 13.3165C89.2518 13.1164 89.2842 12.8933 89.2517 12.675C89.116 11.5835 89.3534 10.4783 89.9252 9.53878C90.4971 8.59929 91.3699 7.88078 92.4017 7.5H94.8767ZM69.7892 60V28.125C69.8263 27.3452 69.7007 26.5662 69.4203 25.8376C69.1399 25.109 68.711 24.4468 68.1607 23.893C67.6105 23.3392 66.951 22.906 66.2242 22.621C65.4974 22.336 64.7192 22.2054 63.9392 22.2375H53.2517C52.4879 22.211 51.7269 22.3426 51.0163 22.6239C50.3057 22.9053 49.6609 23.3304 49.1223 23.8725C48.5837 24.4147 48.1628 25.0623 47.8861 25.7746C47.6094 26.487 47.4828 27.2489 47.5142 28.0125C47.5142 32.475 47.5142 36.9375 47.5142 41.4375C47.5142 42.4125 47.8892 42.6375 48.7892 42.6375C52.5392 42.6375 55.9517 42.6375 59.5517 42.6375C60.1502 42.5648 60.7575 42.6293 61.3274 42.826C61.8973 43.0227 62.4151 43.3465 62.8414 43.7728C63.2677 44.1991 63.5915 44.7169 63.7882 45.2868C63.9849 45.8567 64.0494 46.464 63.9767 47.0625V61.5C64.0336 61.8603 64.0336 62.2272 63.9767 62.5875C63.9217 62.9517 63.7346 63.283 63.451 63.5181C63.1675 63.7533 62.8073 63.8758 62.4392 63.8625C62.074 63.8964 61.7095 63.7918 61.4177 63.5696C61.126 63.3473 60.9285 63.0236 60.8642 62.6625C60.8069 62.1892 60.8069 61.7108 60.8642 61.2375V47.2125C60.8642 46.0125 60.6767 45.825 59.4767 45.825H48.7517C47.9267 45.825 47.7017 46.125 47.7017 46.875V73.7625C47.7017 74.5875 47.9642 74.8875 48.8267 74.8875H59.4767C60.4142 74.8875 60.8267 74.5875 60.7892 73.575C60.7517 72.5625 60.7892 70.575 60.7892 69.075C60.7892 67.575 61.5017 67.1625 62.4767 67.2C63.4517 67.2375 64.0892 67.95 64.0892 69.15C64.0892 70.35 64.0892 72.3 64.0892 73.875C64.1408 74.4592 64.0637 75.0476 63.8634 75.5988C63.663 76.15 63.3442 76.6506 62.9295 77.0653C62.5148 77.48 62.0142 77.7988 61.463 77.9992C60.9118 78.1995 60.3234 78.2766 59.7392 78.225C55.9892 78.225 52.5017 78.225 48.8642 78.225C47.9267 78.225 47.6267 78.525 47.6642 79.4625C47.6642 83.6625 47.6642 87.8625 47.6642 92.0625C47.6023 92.8613 47.714 93.664 47.9917 94.4155C48.2695 95.1671 48.7066 95.8495 49.2731 96.4161C49.8397 96.9826 50.5221 97.4197 51.2737 97.6975C52.0252 97.9752 52.8279 98.0869 53.6267 98.025H63.5642C64.4205 98.1327 65.2902 98.0446 66.1075 97.7673C66.9248 97.4899 67.6685 97.0306 68.2824 96.4239C68.8963 95.8172 69.3644 95.079 69.6514 94.2651C69.9384 93.4511 70.0368 92.5826 69.9392 91.725L69.7892 60ZM82.4267 60V73.425C82.4267 74.2125 82.4267 74.5875 83.4767 74.5875H94.4642C95.3267 74.5875 95.6642 74.25 95.6267 73.3875V47.1375C95.6267 46.1625 95.2892 45.825 94.3142 45.825H83.5517C82.6142 45.825 82.3892 46.125 82.4267 46.9875C82.5017 51.4125 82.5017 55.875 82.5017 60.3L82.4267 60ZM48.6767 99.9375C47.1639 98.8595 45.9642 97.3994 45.2 95.7063C44.4358 94.0132 44.1345 92.1476 44.3267 90.3C44.3267 75.1125 44.3267 59.925 44.3267 44.7C44.3267 41.925 44.3267 39.1125 44.3267 36.3C44.3267 35.5125 44.1017 35.175 43.2767 35.2125C42.4517 35.25 40.8017 35.2125 39.5267 35.2125C38.2517 35.2125 38.1767 35.5125 38.1767 36.525C38.1767 42.675 38.1767 48.825 38.1767 54.975C38.1167 55.4728 38.1892 55.9777 38.3867 56.4386C38.5842 56.8995 38.8998 57.3001 39.3017 57.6C40.2146 58.8738 40.7055 60.4016 40.7055 61.9688C40.7055 63.5359 40.2146 65.0637 39.3017 66.3375C38.8941 66.6217 38.5756 67.0157 38.3831 67.4737C38.1906 67.9317 38.132 68.435 38.2142 68.925C38.2142 69.525 38.2142 70.0875 38.2142 70.6875C38.1734 71.0924 38.2948 71.4969 38.5517 71.8125C39.6031 73.0471 40.1805 74.6158 40.1805 76.2375C40.1805 77.8592 39.6031 79.4279 38.5517 80.6625C37.6517 81.9375 38.1392 83.3625 38.2142 84.75C38.2142 84.75 38.4017 85.0125 38.5517 85.0875C39.1715 85.4338 39.6802 85.9489 40.0188 86.5729C40.3573 87.1969 40.5118 87.9042 40.4642 88.6125C40.4642 89.7375 40.4642 90.8625 40.4642 91.9875C40.4186 92.5503 40.2466 93.0955 39.9609 93.5825C39.6752 94.0695 39.2832 94.4857 38.8142 94.8C38.5985 94.9043 38.4189 95.0707 38.2986 95.2779C38.1783 95.485 38.1228 95.7235 38.1392 95.9625C38.1392 97.0125 38.1392 98.0625 38.1392 99.1125C38.1392 100.162 38.3642 99.975 38.9642 99.975L48.6767 99.9375ZM79.3892 60.1125C79.3892 55.1625 79.3892 50.2125 79.3892 45.1125C79.3892 44.1375 79.0517 43.875 78.1517 43.9125C77.2517 43.95 75.5642 43.9125 74.4017 43.9125C73.6892 43.9125 73.4267 44.175 73.4267 44.8875C73.4267 54.8875 73.4267 64.8875 73.4267 74.8875C73.4267 75.675 73.7267 75.9 74.4767 75.9C75.2267 75.9 77.0642 75.9 78.2267 75.9C79.3892 75.9 79.3892 75.6375 79.3892 74.7375C79.2017 70.35 79.2017 65.4 79.2017 60.4125L79.3892 60.1125ZM54.2642 106.5C53.2763 106.014 52.5115 105.169 52.1267 104.138C52.1267 103.463 51.5267 103.275 50.8517 103.275H37.0517C35.4767 103.275 34.9142 102.713 34.9142 101.175V97.6875C34.9142 95.1 34.9142 95.1 32.2892 95.3625C31.7642 95.3625 31.5767 95.625 31.5767 96.1125C31.5767 99 31.5767 101.85 31.5767 104.738C31.565 104.979 31.6051 105.219 31.6944 105.443C31.7836 105.668 31.9199 105.87 32.0941 106.037C32.2682 106.204 32.4762 106.332 32.7039 106.412C32.9317 106.492 33.1739 106.522 33.4142 106.5H54.2642ZM79.3892 84.3V80.5875C79.3892 79.95 79.3892 79.65 78.5267 79.65C77.1017 79.65 75.6767 79.65 74.2517 79.65C73.5767 79.65 73.3142 79.9125 73.3142 80.55C73.3142 83.2125 73.3142 85.8375 73.3142 88.4625C73.3142 89.1 73.5392 89.4 74.2142 89.4C75.6392 89.4 77.0642 89.4 78.5267 89.4C79.2017 89.4 79.4267 89.1375 79.3892 88.4625V84.3ZM79.3892 35.925C79.3892 34.65 79.3892 33.4125 79.3892 32.175C79.3892 30.9375 79.1267 31.1625 78.3767 31.1625H74.1017C73.3892 31.1625 73.1267 31.425 73.1267 32.1375C73.1267 34.6875 73.1267 37.275 73.1267 39.6375C73.1267 40.35 73.4267 40.6125 74.1392 40.575H78.3392C78.9767 40.575 79.2392 40.3125 79.2017 39.675L79.3892 35.925ZM29.5892 30.375V24.6375C29.6469 24.3403 29.6469 24.0347 29.5892 23.7375C29.4959 23.4886 29.3147 23.2825 29.0797 23.1581C28.8448 23.0338 28.5725 22.9998 28.3142 23.0625C27.3392 23.0625 26.1392 22.575 25.3517 23.5875C25.164 24.0388 25.1209 24.5373 25.2283 25.0142C25.3358 25.491 25.5885 25.9228 25.9517 26.25C26.9595 27.3198 27.5452 28.7188 27.6004 30.1875C27.6555 31.6562 27.1764 33.0951 26.2517 34.2375V34.425C25.8426 34.6915 25.535 35.088 25.3786 35.5505C25.2221 36.0131 25.2259 36.5148 25.3892 36.975C25.6892 37.9125 26.5142 37.65 27.2267 37.6875H28.3517C29.4767 37.6875 29.7767 37.3875 29.7767 36.225C29.6267 34.275 29.5892 32.325 29.5892 30.375ZM38.4767 32.175H41.6642C44.5892 32.175 44.1017 32.6625 44.1767 29.625C44.1767 28.8 43.8767 28.5375 43.0892 28.575H35.5892C32.6267 28.575 33.0767 28.0125 33.0392 31.3125C33.0392 31.9875 33.3392 32.175 33.9767 32.175H38.4767ZM36.7892 76.6125C36.8267 75.864 36.639 75.1214 36.2504 74.4805C35.8618 73.8397 35.29 73.33 34.609 73.0172C33.9279 72.7044 33.1687 72.6029 32.4294 72.7257C31.69 72.8485 31.0044 73.1901 30.4611 73.7063C29.9177 74.2225 29.5415 74.8896 29.3809 75.6217C29.2204 76.3538 29.2829 77.1171 29.5604 77.8134C29.8378 78.5096 30.3176 79.1067 30.9377 79.5276C31.5577 79.9486 32.2897 80.1741 33.0392 80.175C33.5239 80.206 34.0097 80.1366 34.4663 79.971C34.9228 79.8055 35.3402 79.5473 35.6923 79.2128C36.0444 78.8783 36.3236 78.4747 36.5124 78.0272C36.7011 77.5798 36.7954 77.0981 36.7892 76.6125ZM33.3017 60.1875H32.4017C28.6517 60.1875 29.3642 59.475 29.2892 63.4125C29.2892 63.4125 29.5142 64.2375 30.0767 64.2375H36.3392C36.9767 64.2375 37.2017 63.9375 37.1642 63.3375V61.125C37.1642 60.375 36.8642 60.15 36.1892 60.1875H33.3017ZM33.3017 92.325H34.3142C37.8017 92.325 37.1642 92.925 37.2392 89.25C37.2392 88.575 37.0142 88.2375 36.3017 88.2375H30.3017C29.5142 88.2375 29.2517 88.575 29.2892 89.2875C29.3268 89.8994 29.3268 90.5131 29.2892 91.125C29.2892 92.025 29.5517 92.4 30.4517 92.325C31.3517 92.25 32.2892 92.325 33.2267 92.325H33.3017ZM20.1392 29.2125H17.2517C16.2392 29.2125 15.6017 29.7 15.6767 30.4875C15.7517 31.275 16.4267 31.725 17.2517 31.725H23.1767C24.1517 31.725 24.1142 31.125 24.0767 30.4875C24.0392 29.85 24.3017 29.1375 23.2142 29.1375L20.1392 29.2125ZM58.5392 18.75H61.3892C62.1017 18.75 62.2892 18.375 62.2142 17.775C62.1392 17.175 62.4392 16.3875 61.5017 16.35C59.5892 16.35 57.7517 16.35 55.7642 16.35C54.7892 16.35 55.0142 17.2875 54.9392 17.9625C54.8642 18.6375 55.3142 18.75 55.8767 18.75H58.5392ZM58.5392 101.25C57.6767 101.25 56.7767 101.25 55.8767 101.25C54.9767 101.25 54.9017 101.438 54.9392 102.15C54.9767 102.862 54.9392 103.65 55.8392 103.65C57.7142 103.65 59.5892 103.65 61.4642 103.65C62.4392 103.65 62.1767 102.863 62.2142 102.263C62.2517 101.662 62.2142 101.25 61.4267 101.25H58.5392ZM93.7517 18.75H96.4142C97.0142 18.75 97.4267 18.75 97.3892 17.8875C97.3517 17.025 97.3892 16.3875 96.5267 16.35C94.6517 16.35 92.7767 16.35 90.9017 16.35C89.9642 16.35 90.1517 17.2125 90.1142 17.85C90.0767 18.4875 90.3392 18.75 91.0142 18.75H93.7517ZM93.7517 101.25C92.8142 101.25 91.9142 101.25 90.9767 101.25C90.0392 101.25 90.0767 101.55 90.1142 102.188C90.1517 102.825 90.1142 103.612 90.9392 103.65C92.8142 103.65 94.6892 103.65 96.5642 103.65C97.5017 103.65 97.3517 102.825 97.3892 102.188C97.4267 101.55 97.2017 101.25 96.5267 101.25C95.8517 101.25 94.5392 101.25 93.7517 101.25ZM33.1892 69.7125C33.4889 69.6937 33.7895 69.6937 34.0892 69.7125C34.5392 69.7125 34.9892 69.7125 34.8767 69.1875C34.7642 68.6625 35.3267 67.7625 34.3142 67.6125C33.5903 67.5564 32.8631 67.5564 32.1392 67.6125C31.9142 67.6125 31.6142 67.6125 31.6142 67.9875C31.4973 68.5186 31.4973 69.0689 31.6142 69.6C31.8017 70.0875 32.3642 69.6 32.7392 69.6L33.1892 69.7125ZM33.1892 84.9C33.4889 84.8812 33.7895 84.8812 34.0892 84.9C34.7267 84.9 34.8767 84.6 34.8767 84C34.8767 83.4 34.4642 83.325 33.9767 83.4375C33.4456 83.5544 32.8953 83.5544 32.3642 83.4375C31.9142 83.4375 31.5392 83.4375 31.5392 83.9625C31.5392 84.4875 31.5392 84.9 32.2517 84.9C32.5764 84.8797 32.902 84.8797 33.2267 84.9H33.1892ZM57.4142 12.375C57.4142 13.05 57.7892 13.1625 58.3517 13.125C58.9142 13.0875 59.8142 13.3875 59.7767 12.225C59.7392 11.0625 59.4767 10.9125 58.6517 10.8375C57.8267 10.7625 57.4517 11.475 57.4142 12.375ZM93.7517 13.125C94.3517 13.125 94.9517 13.125 94.8767 12.1875C94.8017 11.25 94.3142 10.725 93.6767 10.8375C93.0392 10.95 92.5517 11.475 92.5142 12.3C92.4767 13.125 93.0392 13.125 93.7517 13.125ZM60.0017 107.963C60.0017 107.175 59.5892 107.062 58.9142 107.137C58.2392 107.213 57.6767 106.838 57.6392 107.85C57.6041 108.21 57.7034 108.57 57.9181 108.861C58.1328 109.152 58.4475 109.353 58.8017 109.425C59.2517 109.463 59.7392 108.75 59.7767 107.963H60.0017ZM93.7517 107.137C93.1892 107.137 92.5517 107.137 92.6267 108.037C92.7017 108.938 93.2267 109.5 93.8642 109.387C94.0341 109.374 94.1995 109.326 94.3498 109.245C94.5001 109.165 94.6323 109.054 94.7379 108.921C94.8435 108.787 94.9203 108.633 94.9636 108.468C95.0068 108.303 95.0156 108.131 94.9892 107.963C94.8392 107.025 94.2392 107.137 93.7517 107.137Z" fill="white" stroke="white"/>
</g>
<defs>
<clipPath id="clip0_490_1477">
<rect width="120" height="120" fill="white"/>
</clipPath>
</defs>
</svg>
