<svg width="120" height="120" viewBox="0 0 120 120" fill="none" xmlns="http://www.w3.org/2000/svg">
<g clip-path="url(#clip0_467_1679)">
<path d="M41.4395 97.4998C41.4395 101.25 41.4395 105.225 41.4395 109.05C41.4395 110.362 41.4395 111.525 39.602 111.562C37.7645 111.6 37.502 110.212 37.502 108.75C37.502 100.387 37.502 91.9873 37.502 83.5873C37.5435 82.7706 37.388 81.9559 37.0486 81.2119C36.7092 80.4679 36.1959 79.8164 35.552 79.3123C22.727 68.0623 18.0395 54.0748 22.7645 37.7623C24.7217 30.0991 29.0289 23.2409 35.0817 18.1498C41.1345 13.0587 48.6292 9.99024 56.5145 9.37484C61.9734 8.78577 67.4951 9.33942 72.7284 11.0006C77.9617 12.6617 82.7919 15.394 86.9117 19.0235C91.0316 22.6531 94.3508 27.1004 96.6582 32.0826C98.9657 37.0648 100.211 42.4727 100.314 47.9623C100.493 54.0175 99.2578 60.031 96.706 65.5251C94.1542 71.0192 90.3565 75.8427 85.6145 79.6123C85.0377 80.0386 84.5845 80.6105 84.3012 81.2693C84.0179 81.9282 83.9146 82.6505 84.002 83.3623C84.002 91.7623 84.002 100.162 84.002 108.562C84.002 109.537 84.3395 110.737 83.102 111.337C81.8645 111.937 80.102 111.337 80.102 108.9C80.102 102.075 80.102 95.2498 80.102 88.4248C80.1583 87.8136 80.1583 87.1985 80.102 86.5873C79.9145 85.7623 80.7395 84.3373 79.277 84.2623C77.8145 84.1873 77.627 85.5373 77.627 86.7748C77.627 93.9373 77.627 101.137 77.627 108.3C77.8087 109.253 77.6353 110.24 77.1395 111.075C76.5395 111.75 75.677 111.562 74.8895 111.45C74.102 111.337 73.802 110.25 73.802 109.387C73.802 102.75 73.802 96.0748 73.802 89.4373C73.802 87.3373 73.802 86.4373 71.102 87.1873C64.4316 89.1553 57.3349 89.1553 50.6645 87.1873C48.002 86.3998 47.8145 87.1873 47.852 89.5498C47.852 95.9248 47.852 102.3 47.852 108.675C47.852 109.95 48.152 111.412 46.052 111.487C43.952 111.562 43.9895 110.062 43.9895 108.637C43.9895 101.85 43.9895 95.0248 43.9895 88.1998C44.0457 87.4133 44.0457 86.6238 43.9895 85.8373C43.9897 85.6142 43.9447 85.3933 43.8571 85.1881C43.7695 84.9828 43.6412 84.7975 43.48 84.6433C43.3187 84.489 43.1279 84.3691 42.919 84.2907C42.71 84.2124 42.4874 84.1772 42.2645 84.1873C41.252 84.1873 41.5895 85.2748 41.5895 85.8748C41.5895 89.6248 41.5895 93.5998 41.5895 97.4248L41.4395 97.4998ZM60.7145 84.6373C65.4021 84.6922 70.0536 83.8125 74.3975 82.0497C78.7413 80.2868 82.6904 77.676 86.0139 74.3699C89.3375 71.0638 91.969 67.1285 93.7548 62.794C95.5405 58.4595 96.4447 53.8127 96.4145 49.1248C96.6355 44.309 95.8778 39.4983 94.1872 34.9835C92.4966 30.4688 89.9081 26.3437 86.5783 22.8575C83.2484 19.3713 79.2463 16.5964 74.8138 14.7006C70.3813 12.8048 65.6104 11.8273 60.7895 11.8273C55.9685 11.8273 51.1977 12.8048 46.7652 14.7006C42.3326 16.5964 38.3305 19.3713 35.0007 22.8575C31.6708 26.3437 29.0824 30.4688 27.3918 34.9835C25.7011 39.4983 24.9434 44.309 25.1645 49.1248C25.1544 53.7856 26.0687 58.4021 27.8545 62.7072C29.6402 67.0122 32.262 70.9205 35.5681 74.2056C38.8742 77.4908 42.799 80.0877 47.1153 81.8461C51.4317 83.6045 56.0539 84.4895 60.7145 84.4498V84.6373Z" fill="white" stroke="white" stroke-width="1.26316"/>
<path d="M60.7062 81.9395C51.9326 81.8706 43.5389 78.3496 37.3419 72.1385C31.1448 65.9273 27.6428 57.5257 27.5938 48.752C27.6714 40 31.1723 31.6262 37.3471 25.4234C43.5219 19.2206 51.8797 15.6817 60.6312 15.5645C69.3928 15.6718 77.7642 19.2052 83.953 25.408C90.1418 31.6108 93.6562 39.9902 93.7437 48.752C93.6853 57.5099 90.1905 65.8947 84.0116 72.1017C77.8328 78.3086 69.4638 81.8414 60.7062 81.9395ZM61.5312 33.752H69.9312C73.6812 33.752 75.6312 35.552 75.6687 38.7395C75.7062 41.927 73.4937 43.9895 69.8562 44.0645H51.4812C50.6187 44.0645 49.9062 44.4395 49.9437 45.452C49.9812 46.4645 50.5812 46.652 51.3312 46.7645C52.0307 46.8019 52.7317 46.8019 53.4312 46.7645H69.4437C73.5687 46.7645 75.6312 48.452 75.6687 51.827C75.7062 55.202 73.4187 57.0394 69.2937 57.077H51.4437C50.6937 57.077 50.0187 57.4144 49.9437 58.2394C49.8687 59.0644 50.5062 59.6644 51.3687 59.7769C52.0682 59.8144 52.7692 59.8144 53.4687 59.7769C59.0562 59.7769 64.7187 59.7769 70.2687 59.7769C70.969 59.6939 71.6789 59.765 72.3488 59.9852C73.0187 60.2054 73.6323 60.5694 74.1467 61.0517C74.6612 61.534 75.0639 62.1229 75.3268 62.7772C75.5898 63.4315 75.7064 64.1353 75.6687 64.8395C75.6803 65.5415 75.5467 66.2383 75.2765 66.8864C75.0062 67.5344 74.6051 68.1197 74.0982 68.6055C73.5912 69.0913 72.9894 69.4672 72.3305 69.7096C71.6716 69.9521 70.9697 70.0558 70.2687 70.0145C68.5437 70.0145 66.7812 70.0145 65.0187 70.0145C64.1187 70.0145 63.1812 70.0145 62.9937 71.2895C62.7312 73.1645 62.1687 75.3395 63.2562 76.8769C64.3438 78.4145 66.0687 77.0644 67.4562 76.8769C73.7083 75.4026 79.2969 71.901 83.3507 66.918C87.4044 61.9351 89.6955 55.7509 89.8667 49.3296C90.038 42.9083 88.0797 36.6107 84.2973 31.4188C80.5149 26.2269 75.1209 22.4324 68.9562 20.627C63.4062 18.977 63.2187 19.0895 62.7687 24.677C62.7687 24.9395 62.7687 25.202 62.7687 25.4645C62.7614 26.2151 62.5987 26.9562 62.2909 27.6409C61.9831 28.3256 61.5369 28.9391 60.9803 29.4429C60.4237 29.9466 59.7688 30.3297 59.0569 30.5679C58.345 30.8061 57.5914 30.8943 56.8437 30.827H52.4937C51.4812 30.827 50.1312 30.827 50.1687 32.2145C50.2062 33.602 51.2937 33.752 52.4937 33.752H61.5312ZM60.3312 40.127H69.5187C70.3812 40.127 71.4312 40.127 71.5062 38.927C71.5812 37.727 70.4937 37.6895 69.6312 37.652H66.2187C61.3062 37.652 56.3937 37.652 51.5187 37.652C50.7721 37.7284 50.0177 37.6427 49.3072 37.4008C48.5967 37.1588 47.9469 36.7663 47.4021 36.25C46.8573 35.7337 46.4305 35.1058 46.1507 34.4093C45.871 33.7128 45.7449 32.9641 45.7812 32.2145C45.813 31.4875 45.9933 30.7748 46.3112 30.1203C46.6291 29.4658 47.0777 28.8834 47.6294 28.409C48.1811 27.9346 48.8241 27.5784 49.5189 27.3621C50.2136 27.1459 50.9453 27.0744 51.6687 27.152C52.9812 27.152 54.2937 27.152 55.6062 27.152C58.5687 27.152 59.0562 26.2145 58.6812 22.0145C58.4187 19.202 56.5062 19.952 54.9312 20.252C48.4709 21.5218 42.6311 24.9422 38.3634 29.9558C34.0957 34.9694 31.6519 41.2805 31.4301 47.8608C31.2083 54.441 33.2216 60.9024 37.142 66.192C41.0623 71.4815 46.6586 75.2874 53.0187 76.9895C58.3062 78.4145 58.3063 78.4145 58.6438 72.9395C58.9062 68.402 60.8187 66.602 65.4687 66.527H69.9312C70.6812 66.527 71.3937 66.2645 71.4312 65.402C71.4687 64.5395 70.6437 64.1645 69.8562 64.127C69.0687 64.0895 68.2812 64.127 67.4937 64.127C62.2437 64.127 56.9937 64.127 51.7437 64.127C47.9937 64.127 45.5937 61.8769 45.7062 58.652C45.8187 55.4269 48.0687 53.6269 51.8187 53.5894C55.5687 53.5519 59.8812 53.5894 63.8937 53.5894C65.3937 53.5894 66.8937 53.5894 68.3562 53.5894C69.8187 53.5894 71.2812 54.1144 71.3562 52.3895C71.4312 50.6645 69.5937 51.3019 68.5062 51.1144C67.8943 51.0769 67.2807 51.0769 66.6687 51.1144C61.6812 51.1144 56.6937 51.1144 51.6687 51.1144C47.9187 51.1144 45.5562 48.8645 45.6687 45.6395C45.7812 42.4145 48.0312 40.652 51.8187 40.577C54.7437 40.202 57.5187 40.2394 60.3312 40.2394V40.127Z" fill="white" stroke="white" stroke-width="1.26316"/>
<path d="M87.1502 48.7479C87.1907 50.1143 86.6889 51.4412 85.7545 52.4389C84.82 53.4366 83.5288 54.024 82.1627 54.0729C81.4683 54.068 80.7817 53.9264 80.1421 53.6561C79.5024 53.3859 78.9223 52.9923 78.4348 52.4978C77.9473 52.0033 77.5619 51.4177 77.3008 50.7743C77.0396 50.1308 76.9077 49.4423 76.9127 48.7479C76.8926 47.3818 77.4135 46.0631 78.3619 45.0796C79.3103 44.0961 80.6092 43.5275 81.9752 43.4979C82.6684 43.4709 83.3597 43.5887 84.0048 43.844C84.65 44.0993 85.2347 44.4863 85.7218 44.9804C86.2088 45.4745 86.5874 46.0648 86.8334 46.7135C87.0793 47.3622 87.1872 48.0551 87.1502 48.7479Z" fill="white"/>
<path d="M34.3468 48.748C34.3164 48.0695 34.4239 47.3918 34.6628 46.7559C34.9017 46.12 35.267 45.5392 35.7367 45.0485C36.2063 44.5578 36.7706 44.1674 37.3954 43.9009C38.0202 43.6344 38.6926 43.4974 39.3718 43.498C40.6731 43.6087 41.8854 44.2038 42.7689 45.1656C43.6524 46.1274 44.1426 47.3858 44.1426 48.6918C44.1426 49.9978 43.6524 51.2562 42.7689 52.218C41.8854 53.1798 40.6731 53.7749 39.3718 53.8855C38.0289 53.8561 36.7509 53.3019 35.8116 52.3416C34.8723 51.3813 34.3465 50.0913 34.3468 48.748Z" fill="white"/>
</g>
<defs>
<clipPath id="clip0_467_1679">
<rect width="120" height="120" fill="white"/>
</clipPath>
</defs>
</svg>
