<svg width="120" height="121" viewBox="0 0 120 121" fill="none" xmlns="http://www.w3.org/2000/svg">
<g clip-path="url(#clip0_467_1697)">
<path d="M13.3102 116.747H11.6602C11.9122 116.605 12.1963 116.531 12.4852 116.531C12.7741 116.531 13.0581 116.605 13.3102 116.747Z" fill="white"/>
<path d="M35.2148 116.749C35.4758 116.594 35.7738 116.512 36.0773 116.512C36.3809 116.512 36.6789 116.594 36.9398 116.749H35.2148Z" fill="white"/>
<path d="M36.9378 116.747H35.2128C33.3378 115.509 31.4628 114.047 29.8128 112.734C29.1848 112.287 28.6802 111.688 28.3459 110.993C28.0115 110.298 27.8582 109.529 27.9003 108.759V69.9094C27.9066 69.8208 27.8931 69.7319 27.8609 69.6491C27.8286 69.5663 27.7784 69.4918 27.7138 69.4308C27.6492 69.3698 27.5719 69.3239 27.4874 69.2964C27.403 69.2689 27.3134 69.2606 27.2253 69.2719C25.2753 69.2719 23.4753 69.2719 21.3753 69.2719C21.2836 69.2668 21.1918 69.2805 21.1055 69.3121C21.0192 69.3437 20.9403 69.3926 20.8736 69.4558C20.8069 69.519 20.7538 69.5952 20.7175 69.6796C20.6813 69.764 20.6627 69.855 20.6628 69.9469V96.1969C20.7283 96.6309 20.6455 97.0743 20.4277 97.4554C20.21 97.8365 19.87 98.133 19.4628 98.2969C19.2514 98.3724 19.0268 98.4039 18.8027 98.3896C18.5787 98.3753 18.3599 98.3154 18.1598 98.2136C17.9597 98.1118 17.7825 97.9702 17.639 97.7975C17.4955 97.6249 17.3888 97.4247 17.3253 97.2094C17.2704 96.7862 17.2704 96.3576 17.3253 95.9344V69.1219C17.3181 68.5364 17.4067 67.9537 17.5878 67.3969C17.7697 66.9987 18.0456 66.6507 18.3918 66.3828C18.7381 66.115 19.1442 65.9353 19.5753 65.8594C20.0852 65.7049 20.6184 65.6414 21.1503 65.6719C23.0849 65.8223 25.0282 65.8223 26.9628 65.6719C27.6868 65.6173 28.4139 65.6173 29.1378 65.6719C29.7242 65.7141 30.2764 65.9637 30.6956 66.376C31.1147 66.7883 31.3734 67.3363 31.4253 67.9219C31.4626 68.5213 31.4626 69.1225 31.4253 69.7219V108.309C31.3694 108.729 31.4437 109.155 31.6382 109.531C31.8327 109.906 32.1381 110.213 32.5128 110.409C33.0928 110.766 33.6444 111.168 34.1628 111.609C34.6503 112.059 35.1753 112.397 35.6253 112.809C35.6921 112.882 35.7732 112.94 35.8636 112.98C35.954 113.02 36.0516 113.04 36.1503 113.04C36.2491 113.04 36.3467 113.02 36.4371 112.98C36.5275 112.94 36.6086 112.882 36.6753 112.809C37.8378 111.909 39.0003 111.009 40.2003 110.147C40.4315 109.965 40.6164 109.73 40.7402 109.463C40.864 109.196 40.9231 108.904 40.9128 108.609V104.859C40.9312 104.622 40.9312 104.384 40.9128 104.147C40.9082 104.035 40.8809 103.925 40.8326 103.825C40.7843 103.724 40.716 103.634 40.6318 103.56C40.5476 103.486 40.4493 103.431 40.3429 103.396C40.2365 103.362 40.1242 103.349 40.0128 103.359C39.4503 103.359 38.8878 103.359 38.3253 103.359C37.8971 103.378 37.4719 103.279 37.0954 103.074C36.7189 102.87 36.4051 102.566 36.1878 102.197C36.0751 101.754 36.0751 101.29 36.1878 100.847C36.339 100.499 36.592 100.206 36.9133 100.005C37.2346 99.8043 37.6093 99.7056 37.9878 99.7219C38.7753 99.7219 39.5253 99.7219 40.3128 99.7219C41.1003 99.7219 40.9878 99.5344 40.9878 99.0469C40.9878 97.5844 40.9878 96.0844 40.9878 94.6219C40.9878 94.0594 40.9878 93.9469 40.2753 93.9094H38.1753C37.792 93.9145 37.4134 93.8247 37.0732 93.648C36.733 93.4714 36.4417 93.2133 36.2253 92.8969C36.1128 92.4032 36.1128 91.8905 36.2253 91.3969C36.3961 91.0405 36.6693 90.743 37.01 90.5426C37.3506 90.3423 37.7433 90.248 38.1378 90.2719C38.8242 90.2157 39.514 90.2157 40.2003 90.2719C40.8003 90.2719 40.9878 90.2719 40.9878 89.5219C40.9878 88.1344 40.9878 86.7094 40.9878 85.3219C40.9878 84.6844 40.9878 84.5719 40.2378 84.5344C39.4878 84.4969 39.0378 84.5344 38.4378 84.5344C38.0021 84.5622 37.5669 84.4725 37.1777 84.2746C36.7884 84.0767 36.4595 83.7779 36.2253 83.4094C36.1128 82.9157 36.1128 82.403 36.2253 81.9094C36.4185 81.5709 36.7052 81.2953 37.0511 81.1157C37.397 80.9361 37.7873 80.8601 38.1753 80.8969H40.2378C40.8378 80.8969 40.9878 80.8969 40.9878 80.1469C40.9878 78.7719 40.9878 77.3844 40.9878 75.9844C40.9878 75.3469 40.7628 75.1219 40.0878 75.1219C39.4128 75.1219 38.8128 75.1219 38.1378 75.1219C37.7441 75.1408 37.3535 75.0445 37.0138 74.8446C36.6741 74.6448 36.4 74.3502 36.2253 73.9969C36.0763 73.4952 36.0763 72.9611 36.2253 72.4594C36.4376 72.1504 36.7238 71.8994 37.0578 71.7291C37.3918 71.5588 37.7631 71.4747 38.1378 71.4844H40.2378C40.8378 71.4844 40.9503 71.4844 40.9503 70.7719C40.9503 67.0219 40.9503 63.2719 40.9503 59.7094C40.9503 59.0344 40.7253 58.8469 40.0503 58.8094H9.11283C7.80033 58.8094 7.68783 58.8094 7.68783 60.2344V70.0219C7.68783 71.1469 8.02533 71.4094 9.15033 71.4844C9.54946 71.4471 9.95119 71.4471 10.3503 71.4844C10.7395 71.5506 11.0951 71.7455 11.3603 72.0378C11.6255 72.3302 11.7848 72.7032 11.8128 73.0969C11.839 73.4924 11.7311 73.8851 11.5065 74.2117C11.282 74.5383 10.9539 74.7797 10.5753 74.8969C9.98331 75.0902 9.35669 75.1541 8.73783 75.0844C7.76283 75.0844 7.68783 75.0844 7.68783 76.0969V79.4719C7.68783 80.4469 7.91283 80.6344 8.85033 80.7844H9.97533C10.4226 80.7716 10.8586 80.9258 11.1983 81.217C11.538 81.5082 11.7571 81.9154 11.8128 82.3594C11.8444 82.5862 11.8304 82.817 11.7719 83.0384C11.7133 83.2598 11.6112 83.4673 11.4716 83.6488C11.3319 83.8303 11.1576 83.9822 10.9586 84.0956C10.7597 84.209 10.5401 84.2817 10.3128 84.3094C9.66618 84.4027 9.00947 84.4027 8.36283 84.3094C7.91283 84.3094 7.68783 84.3094 7.68783 84.9094C7.68783 86.2969 7.68783 87.6469 7.68783 89.0344C7.68783 89.7094 7.98783 89.9344 8.62533 90.0094C9.17465 89.9709 9.726 89.9709 10.2753 90.0094C10.7129 90.0657 11.1123 90.2876 11.3913 90.6294C11.6703 90.9712 11.8077 91.4069 11.7753 91.8469C11.7487 92.2857 11.5623 92.6996 11.2514 93.0105C10.9406 93.3214 10.5267 93.5077 10.0878 93.5344C9.55098 93.5718 9.01217 93.5718 8.47533 93.5344C7.80033 93.5344 7.68783 93.5344 7.65033 94.3219V98.0719C7.65033 99.0469 7.95033 99.3094 8.92533 99.3469H9.90033C10.361 99.3436 10.8067 99.5099 11.1525 99.8142C11.4984 100.119 11.7201 100.54 11.7753 100.997C11.8085 101.451 11.6683 101.901 11.383 102.256C11.0977 102.611 10.6885 102.844 10.2378 102.909C9.68918 102.964 9.13647 102.964 8.58783 102.909C7.76283 102.909 7.65033 102.909 7.65033 103.772C7.65033 105.234 7.65033 106.697 7.65033 108.159C7.63838 108.437 7.7018 108.712 7.83385 108.957C7.96591 109.201 8.16166 109.405 8.40033 109.547C9.11283 109.997 9.75033 110.522 10.4253 111.047L11.8128 112.172C12.2628 112.584 12.5253 112.584 13.0128 112.172C14.1753 111.234 15.3753 110.334 16.5753 109.434C16.7657 109.307 16.9206 109.134 17.0255 108.931C17.1305 108.727 17.182 108.501 17.1753 108.272C17.1753 107.072 17.1753 105.872 17.1753 104.522C17.1204 104.124 17.1204 103.72 17.1753 103.322C17.2725 102.929 17.5077 102.584 17.8382 102.35C18.1686 102.115 18.5722 102.008 18.9753 102.047C19.4746 102.147 19.915 102.438 20.2023 102.859C20.4897 103.279 20.6011 103.795 20.5128 104.297V109.247C20.5394 109.842 20.424 110.434 20.1762 110.975C19.9284 111.516 19.5553 111.991 19.0878 112.359C17.1378 113.859 15.3378 115.434 13.1628 116.784H11.6253C9.37751 115.324 7.23476 113.707 5.21283 111.947C4.88165 111.629 4.62308 111.243 4.4548 110.816C4.28652 110.389 4.21251 109.93 4.23783 109.472C4.23783 108.422 4.23783 107.409 4.23783 106.359V59.4844C4.1603 58.8926 4.22514 58.2909 4.42696 57.7292C4.62878 57.1675 4.96175 56.6621 5.39818 56.2551C5.83462 55.848 6.36192 55.5509 6.93626 55.3886C7.51059 55.2263 8.11537 55.2034 8.70033 55.3219H9.37533C10.3128 55.3219 10.6878 55.1344 10.6128 54.1969C10.6128 51.8719 10.6128 49.5844 10.6128 47.2594C10.6128 45.7594 10.6128 44.2219 10.6128 42.7219C10.6226 41.8795 10.9615 41.0744 11.5572 40.4787C12.1529 39.8831 12.958 39.5441 13.8003 39.5344C16.3128 39.5344 18.8253 39.5344 21.3003 39.5344H21.9003C22.2753 39.5344 22.5003 39.3469 22.5378 38.9344C22.5942 38.1854 22.5942 37.4333 22.5378 36.6844C22.3866 34.4375 23.1125 32.2196 24.5628 30.4969C25.2644 29.6434 26.1458 28.9554 27.1441 28.4822C28.1425 28.009 29.233 27.7622 30.3378 27.7594H61.3128C62.0628 27.7594 62.3253 27.4969 62.3253 26.7094C62.1989 25.4728 62.5029 24.2305 63.1861 23.1921C63.8692 22.1537 64.8897 21.3827 66.0753 21.0094L67.7628 20.2969C68.2104 20.1202 68.5787 19.7873 68.7994 19.3597C69.02 18.9321 69.0781 18.439 68.9628 17.9719C68.7175 16.2664 68.8672 14.5274 69.4003 12.8889C69.9335 11.2505 70.8358 9.75638 72.0378 8.52188C73.0693 7.36814 74.3276 6.43962 75.7343 5.79438C77.1409 5.14913 78.6655 4.80104 80.2128 4.77187C81.6003 4.77187 83.0253 4.77187 84.4503 4.77187C84.6845 4.72848 84.9253 4.73628 85.1561 4.79476C85.387 4.85324 85.6025 4.961 85.7878 5.11064C85.973 5.26029 86.1237 5.44826 86.2295 5.66166C86.3352 5.87506 86.3935 6.10882 86.4003 6.34687C86.4604 6.66463 86.4162 6.99329 86.2743 7.28388C86.1324 7.57446 85.9004 7.8114 85.6128 7.95938C85.1646 8.16443 84.6804 8.27912 84.1878 8.29687H80.6253C79.5585 8.28698 78.5002 8.48796 77.5112 8.88824C76.5223 9.28853 75.6221 9.88025 74.8625 10.6294C74.1029 11.3786 73.4987 12.2704 73.0848 13.2538C72.6708 14.2371 72.4552 15.2925 72.4503 16.3594C72.2253 24.9094 72.4503 33.4594 72.4503 42.0469C72.4193 43.188 72.6212 44.3234 73.0437 45.3838C73.4662 46.4443 74.1004 47.4075 74.9075 48.2147C75.7147 49.0218 76.6779 49.656 77.7384 50.0785C78.7988 50.501 79.9342 50.7029 81.0753 50.6719C87.5628 50.6719 94.0878 50.6719 100.613 50.6719C101.85 50.6719 103.088 50.6719 104.363 50.6719C105.895 50.6738 107.399 50.2642 108.718 49.4857C110.038 48.7073 111.124 47.5887 111.863 46.2469C112.511 45.1039 112.847 43.8107 112.838 42.4969C112.838 33.7969 112.838 25.0469 112.838 16.2469C112.823 15.1831 112.599 14.1327 112.178 13.1556C111.758 12.1784 111.149 11.2938 110.386 10.552C109.623 9.8103 108.722 9.22607 107.734 8.83269C106.745 8.43931 105.689 8.2445 104.625 8.25937H93.1128C92.5997 8.28221 92.0877 8.19262 91.6128 7.99688C91.2845 7.86582 91.0098 7.62813 90.833 7.32204C90.6561 7.01595 90.5874 6.65926 90.6378 6.30937C90.9003 5.14687 91.3503 4.73438 92.5503 4.73438C96.9003 4.73438 101.213 4.73438 105.563 4.73438C108.123 4.89843 110.558 5.90226 112.49 7.59036C114.423 9.27845 115.744 11.5566 116.25 14.0719C116.4 15.0271 116.475 15.9925 116.475 16.9594C116.475 25.4719 116.475 33.9844 116.475 42.5344C116.456 44.96 115.654 47.3145 114.188 49.2469C113.172 50.7436 111.801 51.9653 110.198 52.8029C108.595 53.6405 106.809 54.0679 105 54.0469C100.088 54.0469 95.1753 54.2719 90.2628 54.2344C86.7003 54.2344 83.1003 54.2344 79.5378 54.0094C77.1542 53.857 74.8809 52.95 73.0471 51.4196C71.2133 49.8892 69.9142 47.8148 69.3378 45.4969C68.8787 43.9664 68.7508 42.3556 68.9628 40.7719C69.0853 40.2752 69.0188 39.7506 68.7763 39.3002C68.5337 38.8498 68.1324 38.5055 67.6503 38.3344C66.819 38.0299 66.0052 37.6793 65.2128 37.2844C64.2534 36.8055 63.4608 36.0482 62.9389 35.1115C62.417 34.1747 62.1901 33.1022 62.2878 32.0344C62.2878 31.1719 62.1003 30.9094 61.2378 30.9094C56.9628 30.9094 52.6878 30.9094 48.4128 30.9094H38.2128C35.7378 30.9094 33.2628 30.9094 30.7128 30.9094C30.0734 30.887 29.4364 30.999 28.843 31.2381C28.2496 31.4772 27.7129 31.8381 27.2676 32.2975C26.8224 32.7569 26.4784 33.3046 26.2579 33.9052C26.0375 34.5058 25.9455 35.146 25.9878 35.7844C25.9878 36.7594 25.9878 37.7719 25.9878 38.7844C25.9878 39.2344 25.9878 39.4969 26.6253 39.5344H27.6753C30.0378 39.5344 32.4378 39.5344 34.8003 39.5344C35.227 39.5343 35.6495 39.619 36.0432 39.7834C36.4369 39.9478 36.7941 40.1887 37.0941 40.4922C37.3941 40.7956 37.6308 41.1556 37.7907 41.5512C37.9505 41.9468 38.0303 42.3702 38.0253 42.7969C38.0253 46.1719 38.0253 49.5469 38.0253 52.9219V54.4594C38.0253 55.1344 38.2503 55.3219 38.9253 55.2844C39.7451 55.1526 40.5806 55.1526 41.4003 55.2844C42.2601 55.4597 43.0312 55.931 43.5793 56.6162C44.1275 57.3014 44.418 58.1571 44.4003 59.0344V59.4844C44.4003 75.9844 44.4003 92.4719 44.4003 108.947C44.4282 109.631 44.285 110.312 43.9839 110.928C43.6827 111.543 43.233 112.074 42.6753 112.472C40.7253 114.009 38.9628 115.584 36.9378 116.747Z" fill="white"/>
<path d="M29.6658 55.2863H14.6658C13.9158 55.2863 13.8408 55.2863 13.8408 54.4988V43.6238C13.8408 43.1363 13.8408 42.7988 14.4783 42.7988H29.4783C29.5703 43.0054 29.6179 43.229 29.6179 43.4551C29.6179 43.6812 29.5703 43.9048 29.4783 44.1113C29.4783 45.0113 29.4783 45.8363 29.4783 46.6988C29.5166 47.1326 29.3818 47.564 29.1033 47.8988C29.0381 47.9267 28.968 47.941 28.8971 47.941C28.8262 47.941 28.756 47.9267 28.6908 47.8988C27.9719 47.5398 27.1644 47.3965 26.3658 47.4863H21.4158C20.9548 47.4627 20.4942 47.5395 20.0658 47.7113C19.7934 47.8228 19.5576 48.0083 19.3853 48.2469C19.213 48.4855 19.111 48.7677 19.0908 49.0613C19.12 49.3694 19.2438 49.661 19.4452 49.8959C19.6466 50.1309 19.9158 50.2978 20.2158 50.3738C20.5147 50.41 20.8169 50.41 21.1158 50.3738H25.7283C26.2026 50.3374 26.679 50.3374 27.1533 50.3738C27.7452 50.4431 28.3445 50.3389 28.8783 50.0738C29.0554 49.9222 29.2827 49.8419 29.5158 49.8488C29.6297 49.9275 29.7209 50.0347 29.7802 50.1598C29.8394 50.2849 29.8646 50.4234 29.8533 50.5613V54.5363C29.8976 54.6661 29.9034 54.8059 29.8701 54.939C29.8369 55.072 29.7659 55.1926 29.6658 55.2863Z" fill="white"/>
<path d="M29.6625 55.2895V50.902C29.7574 50.648 29.7574 50.3684 29.6625 50.1145C29.7003 49.415 29.7003 48.7139 29.6625 48.0145C29.8876 47.2558 29.8876 46.4481 29.6625 45.6895C29.6625 44.977 29.85 44.2645 29.6625 43.552C29.6437 43.3273 29.6437 43.1016 29.6625 42.877H33.8625C34.5375 42.877 34.725 43.0645 34.725 43.7395V54.6145C34.725 55.252 34.725 55.402 33.9 55.402L29.6625 55.2895Z" fill="white"/>
<path d="M68.8894 23.2988V34.7738C68.8894 35.3738 68.8894 35.4488 68.2144 35.2238C66.1144 34.3613 65.5894 33.9863 65.6269 31.7738C65.6644 29.5613 65.6269 28.0238 65.6269 26.3363C65.6077 25.8657 65.7343 25.4006 65.9894 25.0046C66.2444 24.6086 66.6155 24.301 67.0519 24.1238C67.6816 23.889 68.2954 23.6134 68.8894 23.2988Z" fill="white"/>
<path d="M29.4391 48.0139C29.5956 48.3418 29.6768 48.7006 29.6768 49.0639C29.6768 49.4273 29.5956 49.786 29.4391 50.1139C29.1563 50.3679 28.823 50.5593 28.4611 50.6757C28.0993 50.792 27.7169 50.8306 27.3391 50.7889C25.2766 50.7889 23.1766 50.7889 21.0766 50.7889H20.8141C19.6891 50.7889 18.9391 50.1514 18.9391 49.2139C18.9328 48.9809 18.976 48.7492 19.0658 48.534C19.1556 48.3189 19.2899 48.1252 19.46 47.9658C19.63 47.8064 19.832 47.6848 20.0524 47.609C20.2729 47.5333 20.5069 47.5051 20.7391 47.5264H27.4516C28.1509 47.4477 28.8555 47.6205 29.4391 48.0139Z" fill="white"/>
<path d="M101.437 18.2746C102.075 18.7495 102.578 19.3842 102.894 20.1148C103.21 20.8454 103.328 21.6463 103.237 22.4371C103.124 24.2854 103.124 26.1388 103.237 27.9871C103.342 28.7824 103.239 29.5916 102.937 30.3348C102.634 31.0779 102.143 31.7293 101.512 32.2246C100.509 32.56 99.4552 32.7124 98.3991 32.6746H86.2491C85.7623 32.7115 85.2734 32.7115 84.7866 32.6746C83.9512 32.5621 83.1905 32.1343 82.6606 31.4788C82.1306 30.8234 81.8716 29.99 81.9366 29.1496C81.9366 26.6371 81.9366 24.1246 81.9366 21.6496C81.9153 21.181 81.9918 20.7131 82.1614 20.2758C82.331 19.8385 82.5899 19.4413 82.9216 19.1096C83.2533 18.7779 83.6505 18.519 84.0878 18.3494C84.5251 18.1798 84.993 18.1032 85.4616 18.1246C88.4991 18.1246 91.5741 18.1246 94.6116 18.1246H99.5241C100.166 18.0704 100.811 18.121 101.437 18.2746Z" fill="white"/>
<path d="M92.6646 21.1641H99.0021C99.7896 21.1641 99.9396 21.1641 99.9396 22.1016V28.3641C99.9396 29.1891 99.9396 29.3766 98.9271 29.3766H91.4271H86.2522C85.3897 29.3766 85.2021 29.3766 85.2021 28.2891V22.2516C85.2021 21.3141 85.3897 21.1641 86.3647 21.1641H92.6646Z" fill="white"/>
</g>
<defs>
<clipPath id="clip0_467_1697">
<rect width="120" height="120" fill="white" transform="translate(0 0.5)"/>
</clipPath>
</defs>
</svg>
