<svg width="120" height="120" viewBox="0 0 120 120" fill="none" xmlns="http://www.w3.org/2000/svg">
<path opacity="0.943" fill-rule="evenodd" clip-rule="evenodd" d="M73.7719 104.789C67.4773 104.789 61.1827 104.789 54.8882 104.789C52.1396 104.168 49.949 102.687 48.3159 100.346C44.0106 92.0439 39.7525 83.7129 35.5416 75.3529C34.1542 71.3096 35.3576 68.3165 39.1517 66.3739C42.3044 65.4864 44.8653 66.3195 46.8348 68.8732C46.8965 60.1103 46.9583 51.3471 47.0199 42.5841C48.1472 38.621 50.77 36.8622 54.8882 37.3078C57.2133 37.8432 58.7869 39.2317 59.6091 41.4733C59.64 46.3498 59.7326 51.2249 59.8868 56.0989C63.9233 54.6006 66.8854 55.7733 68.7732 59.6165C72.1534 58.0767 75.0847 58.6938 77.5671 61.4678C78.1109 62.1851 78.4504 62.9872 78.5854 63.8746C82.1972 62.4448 85.1902 63.247 87.5644 66.2813C88.0209 67.1574 88.3295 68.0831 88.4901 69.0584C88.6135 72.0822 88.6135 75.1061 88.4901 78.1299C88.0291 79.3629 87.196 79.7023 85.9907 79.1482C85.6229 78.904 85.4068 78.5646 85.3428 78.1299C85.2811 75.1061 85.2193 72.0822 85.1576 69.0584C84.2442 66.7044 82.6089 65.9947 80.2516 66.9293C79.7086 67.3485 79.3074 67.8731 79.0482 68.503C79.0375 70.8608 78.914 73.2059 78.6779 75.5381C77.7523 76.5254 76.8266 76.5254 75.9009 75.5381C75.6586 71.9753 75.5351 68.3961 75.5306 64.8003C74.8284 62.7053 73.3781 61.8105 71.18 62.1158C70.0247 62.469 69.3151 63.2405 69.0509 64.43C68.9893 66.59 68.9275 68.7497 68.8658 70.9097C68.3954 71.7556 67.6856 72.0333 66.7368 71.7428C66.3356 71.5886 66.0579 71.3109 65.9037 70.9097C65.842 67.7008 65.7802 64.4916 65.7185 61.2827C65.1974 59.3449 63.9322 58.5118 61.9233 58.7834C60.7314 59.2964 60.0217 60.1912 59.7942 61.4678C59.7326 63.0106 59.6707 64.5535 59.6091 66.0962C58.9967 66.8047 58.2254 67.0208 57.2949 66.7442C57.0081 66.5194 56.7923 66.2417 56.6469 65.9111C56.5853 58.0738 56.5234 50.2363 56.4618 42.399C55.1718 40.2946 53.4748 39.8936 51.3706 41.1956C50.6549 41.7977 50.2537 42.5691 50.1672 43.5098C50.1056 54.3711 50.0437 65.2322 49.9821 76.0935C49.0201 77.3068 48.0328 77.3068 47.0199 76.0935C46.003 74.0588 44.8922 72.084 43.6875 70.1692C41.3197 68.5931 39.53 69.0869 38.3186 71.6502C38.1766 72.4082 38.2383 73.1487 38.5038 73.8718C42.6384 82.0178 46.7732 90.1637 50.9078 98.3096C51.884 99.8929 53.2725 100.911 55.0733 101.364C60.9271 101.667 66.7897 101.729 72.6611 101.549C78.5306 100.616 82.511 97.376 84.6022 91.8299C85.0303 90.0461 85.3696 88.2564 85.6205 86.461C87.3278 85.3791 88.3153 85.8419 88.5826 87.8495C87.7386 97.1084 82.8018 102.755 73.7719 104.789Z" fill="white" stroke="white" stroke-width="2"/>
<path opacity="0.932" fill-rule="evenodd" clip-rule="evenodd" d="M63.9888 25.3195C62.2292 28.8304 59.4258 30.947 55.5783 31.6695C55.7338 32.9771 55.1836 33.7995 53.9278 34.1362C53.3857 33.9634 52.9057 33.684 52.4879 33.2978C52.293 32.7019 52.1792 32.1 52.1466 31.4923C46.0389 29.6964 43.255 25.6473 43.7947 19.3454C45.1497 13.8887 48.6145 10.9431 54.1888 10.5085C60.0164 10.9804 63.5392 14.0671 64.7573 19.7685C64.9423 21.6966 64.686 23.5469 63.9888 25.3195ZM61.2021 23.4827C59.2984 27.4869 56.2011 29.0041 51.9106 28.0344C47.2316 25.7746 45.8673 22.2308 47.8177 17.4032C50.4991 13.8971 53.8745 13.0061 57.9435 14.7299C61.0066 16.9379 62.0928 19.8555 61.2021 23.4827Z" fill="white" stroke="white" stroke-width="1.5"/>
</svg>
