<svg width="120" height="121" viewBox="0 0 120 121" fill="none" xmlns="http://www.w3.org/2000/svg">
<path d="M19.9971 65.502L4.99707 65.502L4.99707 55.502L19.9971 55.502L19.9971 65.502ZM114.997 65.502L99.9971 65.502L99.9971 55.502L114.997 55.502L114.997 65.502ZM54.9971 115.502L54.9971 100.502L64.9971 100.502L64.9971 115.502L54.9971 115.502ZM95.3971 103.002L84.7471 92.302L91.8471 85.252L102.497 95.852L95.3971 103.002ZM35.2471 92.352L24.6471 103.002L17.4971 95.852L28.1471 85.252L35.2471 92.352ZM59.9971 90.502C52.0406 90.502 44.41 87.3413 38.7839 81.7152C33.1578 76.0891 29.9971 68.4585 29.9971 60.502C29.9971 49.402 36.0471 39.702 44.9971 34.502L44.9971 25.502C44.9971 24.1759 45.5239 22.9041 46.4615 21.9664C47.3992 21.0287 48.671 20.502 49.9971 20.502L69.9971 20.502C71.3231 20.502 72.5949 21.0287 73.5326 21.9664C74.4703 22.9041 74.9971 24.1759 74.9971 25.502L74.9971 34.502C83.9471 39.702 89.9971 49.402 89.9971 60.502C89.9971 68.4585 86.8364 76.0891 81.2103 81.7152C75.5842 87.3413 67.9536 90.502 59.9971 90.502ZM49.9971 15.502L49.9971 10.502C49.9971 9.17589 50.5239 7.90411 51.4615 6.96643C52.3992 6.02875 53.671 5.50197 54.9971 5.50197L64.9971 5.50197C66.3231 5.50197 67.5949 6.02875 68.5326 6.96643C69.4703 7.90411 69.9971 9.17588 69.9971 10.502L69.9971 15.502L49.9971 15.502ZM64.9971 30.502L54.9971 30.502L54.9971 41.152C46.3471 43.352 39.9971 51.202 39.9971 60.502C39.9971 65.8063 42.1042 70.8934 45.8549 74.6441C49.6057 78.3948 54.6927 80.502 59.9971 80.502C65.3014 80.502 70.3885 78.3948 74.1392 74.6441C77.8899 70.8934 79.9971 65.8063 79.9971 60.502C79.9971 51.202 73.6471 43.352 64.9971 41.152L64.9971 30.502Z" fill="white"/>
</svg>
