<svg width="121" height="120" viewBox="0 0 121 120" fill="none" xmlns="http://www.w3.org/2000/svg">
<g clip-path="url(#clip0_490_1557)">
<path d="M103.696 26.25V45.375C103.753 46.311 103.457 47.2345 102.867 47.9634C102.277 48.6922 101.435 49.1736 100.508 49.3125H80.6705C80.183 49.3125 80.183 49.3125 80.183 49.7625C80.2585 50.5231 80.2585 51.2894 80.183 52.05C79.9388 53.41 79.2691 54.6575 78.2705 55.6125C76.8407 56.9747 75.1765 58.0673 73.358 58.8375C70.7162 59.9165 67.9414 60.6354 65.108 60.975C62.9933 61.2308 60.8616 61.3186 58.733 61.2375C54.9622 61.1661 51.2322 60.443 47.708 59.1C45.9432 58.4124 44.2979 57.4506 42.833 56.25C41.6303 55.2877 40.7531 53.9783 40.3205 52.5C40.1633 52.0676 40.0871 51.61 40.0955 51.15V49.425C40.0955 49.2 40.0955 49.125 39.833 49.125H20.5205C19.5259 49.125 18.5721 48.7299 17.8689 48.0267C17.1656 47.3234 16.7705 46.3696 16.7705 45.375C16.7705 39.075 16.7705 32.8125 16.7705 26.625C16.7705 26.625 16.7705 26.4 16.7705 26.325L103.696 26.25ZM70.9955 36.4875C71.0439 35.9887 71.0439 35.4863 70.9955 34.9875C70.8497 33.9185 70.4269 32.9062 69.7691 32.0511C69.1113 31.1959 68.2413 30.5276 67.2455 30.1125C65.9887 29.547 64.593 29.3644 63.233 29.5875C62.1228 29.6915 61.0618 30.0954 60.1635 30.7559C59.2651 31.4165 58.5633 32.3088 58.133 33.3375C57.3258 35.347 57.3258 37.5905 58.133 39.6C58.413 40.4792 58.8997 41.2785 59.5521 41.9309C60.2045 42.5834 61.0038 43.07 61.883 43.35C63.0086 43.7111 64.2036 43.8011 65.3705 43.6125C66.3361 43.5121 67.2643 43.1845 68.079 42.6566C68.8937 42.1287 69.5719 41.4153 70.058 40.575C70.708 39.3126 71.0304 37.907 70.9955 36.4875ZM54.008 33.975H55.208C55.433 33.975 55.508 33.975 55.4705 33.675C55.3423 32.9514 55.0533 32.2659 54.625 31.6688C54.1967 31.0717 53.6398 30.5783 52.9955 30.225C51.6944 29.5857 50.2278 29.3631 48.7955 29.5875C47.8022 29.6747 46.8485 30.0175 46.027 30.5827C45.2056 31.1478 44.5445 31.916 44.108 32.8125C43.509 33.9634 43.1714 35.2325 43.1196 36.529C43.0677 37.8254 43.3028 39.1174 43.808 40.3125C44.0957 41.1149 44.568 41.8385 45.1869 42.4247C45.8057 43.011 46.5537 43.4436 47.3705 43.6875C48.4982 44.0379 49.6906 44.1276 50.858 43.95C51.9707 43.8601 53.0277 43.4252 53.8814 42.7059C54.7351 41.9866 55.3431 41.0188 55.6205 39.9375C55.6205 39.6 55.6205 39.6 55.358 39.6H52.9955C52.8766 39.5762 52.753 39.5976 52.649 39.66C52.545 39.7224 52.468 39.8213 52.433 39.9375C52.3248 40.2836 52.1408 40.6013 51.8942 40.8673C51.6477 41.1332 51.345 41.3409 51.008 41.475C50.6007 41.6583 50.1605 41.7571 49.7139 41.7652C49.2673 41.7734 48.8238 41.6909 48.4101 41.5226C47.9963 41.3543 47.6211 41.1038 47.307 40.7862C46.993 40.4686 46.7467 40.0906 46.583 39.675C46.1424 38.4773 45.9882 37.193 46.133 35.925C46.1648 35.1684 46.3565 34.4272 46.6955 33.75C46.9482 33.1873 47.3682 32.7162 47.8983 32.4008C48.4285 32.0854 49.0429 31.9411 49.658 31.9875C50.2738 31.9424 50.8867 32.1068 51.3973 32.454C51.9079 32.8012 52.2861 33.3108 52.4705 33.9C52.4961 33.9759 52.5479 34.0402 52.6166 34.0815C52.6853 34.1227 52.7665 34.1381 52.8455 34.125L54.008 33.975ZM73.3205 46.8H74.8205C75.7955 46.8 75.608 46.8 75.7955 45.975C75.7955 45.675 75.7955 45.6375 75.4955 45.6375H72.9455C72.683 45.6375 72.6455 45.6375 72.9455 45.375C73.1592 45.0678 73.4258 44.8011 73.733 44.5875C74.2805 44.2508 74.7844 43.8478 75.233 43.3875C75.4568 43.1451 75.6154 42.8499 75.6941 42.5294C75.7727 42.209 75.7687 41.8739 75.6825 41.5554C75.5964 41.2369 75.4308 40.9455 75.2013 40.7085C74.9719 40.4714 74.686 40.2965 74.3705 40.2C73.8336 40.0303 73.2574 40.0303 72.7205 40.2C72.3302 40.2796 71.9737 40.4768 71.6988 40.765C71.4239 41.0533 71.2439 41.4189 71.183 41.8125C71.183 42.0375 71.258 42.15 71.408 42.15H71.7455C71.8147 42.1728 71.8881 42.1798 71.9603 42.1705C72.0326 42.1612 72.1018 42.1359 72.163 42.0963C72.2241 42.0567 72.2756 42.004 72.3137 41.9419C72.3518 41.8798 72.3755 41.8099 72.383 41.7375C72.4678 41.5126 72.6356 41.3288 72.852 41.2242C73.0683 41.1195 73.3166 41.1019 73.5455 41.175C73.7441 41.2199 73.9191 41.3367 74.0368 41.5028C74.1544 41.669 74.2065 41.8728 74.183 42.075C74.1777 42.2449 74.1385 42.4121 74.0677 42.5667C73.9968 42.7212 73.8958 42.8601 73.7705 42.975C73.358 43.35 72.908 43.65 72.458 43.9875C72.0565 44.2801 71.7171 44.6496 71.4596 45.0745C71.2021 45.4993 71.0316 45.9712 70.958 46.4625C70.958 46.8 70.958 46.8375 71.2955 46.8375L73.3205 46.8Z" fill="white"/>
<path d="M4.25 71.0263C4.33467 70.6452 4.501 70.287 4.7375 69.9763C4.83959 69.8575 4.96617 69.7621 5.10856 69.6967C5.25096 69.6312 5.4058 69.5974 5.5625 69.5974C5.7192 69.5974 5.87404 69.6312 6.01644 69.6967C6.15883 69.7621 6.28541 69.8575 6.3875 69.9763C9.26966 72.3491 12.3146 74.5169 15.5 76.4638C21.5996 80.4234 28.1132 83.7053 34.925 86.2513C39.2685 87.8535 43.7326 89.1074 48.275 90.0013C50.7125 90.4513 53.15 90.7888 55.775 91.0138C57.6125 91.2013 59.525 91.2763 61.325 91.3513C63.125 91.4263 64.025 91.3513 65.375 91.3513C67.6721 91.2834 69.9634 91.0831 72.2375 90.7513C76.5964 90.1518 80.8899 89.1475 85.0625 87.7513C89.8811 86.107 94.5281 83.997 98.9375 81.4513C103.085 79.0426 107.035 76.3091 110.75 73.2763C112.1 72.1888 113.45 71.0263 114.762 69.8638C114.881 69.7201 115.035 69.6094 115.208 69.5421C115.382 69.4748 115.57 69.4533 115.755 69.4797C115.939 69.506 116.114 69.5793 116.262 69.6926C116.41 69.8058 116.526 69.9552 116.6 70.1263C116.6 70.3513 116.825 70.6138 116.975 70.8763V72.1888C116.837 72.5902 116.62 72.9599 116.337 73.2763C114.5 74.9263 112.588 76.5388 110.638 78.0763C105.965 81.7406 100.941 84.9313 95.6375 87.6013C91.8334 89.5117 87.8834 91.1167 83.825 92.4013C78.3512 94.0779 72.7005 95.1099 66.9875 95.4763C66.5383 95.4389 66.0867 95.4389 65.6375 95.4763H59.375C57.55 95.4763 55.7125 95.3263 53.8625 95.0263C50.2873 94.6013 46.7427 93.95 43.25 93.0763C36.8945 91.4395 30.7244 89.1524 24.8375 86.2513C22.0625 84.8638 19.325 83.3638 16.6625 81.7138C12.8251 79.397 9.15376 76.8157 5.675 73.9888C4.99988 73.5787 4.49426 72.9401 4.25 72.1888V71.0263Z" fill="white"/>
<path d="M62.9021 85.3852C56.7941 85.4288 50.714 84.5566 44.8646 82.7977C40.1008 81.405 35.4996 79.5067 31.1396 77.1352C27.1654 74.989 23.3993 72.4782 19.8896 69.6352L18.1271 68.2102C17.6732 67.7357 17.4199 67.1044 17.4199 66.4477C17.4199 65.7911 17.6732 65.1598 18.1271 64.6852C18.2253 64.5796 18.3443 64.4954 18.4766 64.4378C18.6088 64.3802 18.7516 64.3505 18.8958 64.3505C19.0401 64.3505 19.1828 64.3802 19.3151 64.4378C19.4473 64.4954 19.5663 64.5796 19.6646 64.6852C21.0061 65.846 22.408 66.935 23.8646 67.9477C26.455 69.7933 29.1605 71.4717 31.9646 72.9727C35.3237 74.7969 38.8221 76.3518 42.4271 77.6227C46.0767 78.9322 49.8442 79.8867 53.6771 80.4727C55.639 80.7858 57.6172 80.9862 59.6021 81.0727C63.0586 81.2414 66.5233 81.0908 69.9521 80.6227C75.4954 79.805 80.8821 78.1485 85.9271 75.7102C89.7703 73.8769 93.4145 71.6527 96.8021 69.0727C98.6396 67.7227 100.552 66.2602 102.09 64.7227C102.188 64.5979 102.313 64.497 102.456 64.4277C102.599 64.3583 102.756 64.3223 102.915 64.3223C103.073 64.3223 103.23 64.3583 103.373 64.4277C103.516 64.497 103.641 64.5979 103.74 64.7227C104.121 65.2202 104.312 65.8378 104.277 66.4637C104.243 67.0896 103.986 67.6825 103.552 68.1352C101.458 70.0228 99.2679 71.8002 96.9896 73.4602C93.7666 75.7996 90.3404 77.8452 86.7521 79.5727C82.65 81.5668 78.3349 83.0891 73.8896 84.1102C71.6613 84.5882 69.4077 84.9387 67.1396 85.1602C65.4896 85.3102 63.8021 85.3852 62.9021 85.3852Z" fill="white"/>
<path d="M61.9651 75.3022C57.5689 75.2784 53.1991 74.6217 48.9901 73.3522C43.6544 71.6909 38.5982 69.2386 33.9901 66.0772C32.6776 65.1772 31.4026 64.2022 30.2401 63.1897C29.784 62.7387 29.5034 62.1401 29.4484 61.5011C29.3934 60.8621 29.5678 60.2244 29.9401 59.7022C30.0279 59.5707 30.1433 59.46 30.2783 59.3777C30.4133 59.2954 30.5646 59.2436 30.7216 59.2257C30.8787 59.2079 31.0378 59.2245 31.1878 59.2744C31.3377 59.3243 31.4751 59.4063 31.5901 59.5147C33.5921 61.2323 35.7375 62.7754 38.0026 64.1272C42.2745 66.7316 46.9139 68.6784 51.7651 69.9022C54.0765 70.4957 56.4356 70.8847 58.8151 71.0647C60.6193 71.2771 62.438 71.3398 64.2526 71.2522C68.4137 70.991 72.4985 70.0142 76.3276 68.3647C80.6354 66.4807 84.6312 63.9517 88.1776 60.8647C88.6276 60.4522 89.0776 60.0397 89.5651 59.6647C89.6705 59.5319 89.8044 59.4247 89.957 59.351C90.1096 59.2773 90.2769 59.239 90.4464 59.239C90.6158 59.239 90.7831 59.2773 90.9357 59.351C91.0883 59.4247 91.2223 59.5319 91.3276 59.6647C91.6608 60.1735 91.8125 60.7799 91.758 61.3856C91.7036 61.9913 91.4462 62.561 91.0276 63.0022C89.0946 64.7036 87.0663 66.2936 84.9526 67.7647C81.3722 70.1958 77.4559 72.0908 73.3276 73.3897C70.813 74.1763 68.2245 74.704 65.6026 74.9647C64.2526 75.2272 62.9776 75.2272 61.9651 75.3022Z" fill="white"/>
<path d="M68.0035 36.5653C68.031 37.4584 67.8911 38.3487 67.591 39.1903C67.3939 39.8238 67.0083 40.3821 66.4857 40.7908C65.9631 41.1995 65.3283 41.4392 64.666 41.4778C63.954 41.6016 63.2211 41.4798 62.5874 41.1323C61.9537 40.7848 61.4569 40.2323 61.1785 39.5653C60.7796 38.688 60.5732 37.7354 60.5732 36.7716C60.5732 35.8078 60.7796 34.8552 61.1785 33.9778C61.3754 33.4167 61.7326 32.9258 62.2059 32.5658C62.6792 32.2058 63.2477 31.9927 63.841 31.9528C64.6127 31.8126 65.4092 31.9455 66.0935 32.3287C66.7779 32.712 67.3074 33.3216 67.591 34.0528C67.8028 34.5686 67.9416 35.1113 68.0035 35.6653C68.0035 36.0403 68.0035 36.3778 68.0035 36.5653Z" fill="white"/>
</g>
<defs>
<clipPath id="clip0_490_1557">
<rect width="120" height="120" fill="white" transform="translate(0.5)"/>
</clipPath>
</defs>
</svg>
