<svg width="120" height="120" viewBox="0 0 120 120" fill="none" xmlns="http://www.w3.org/2000/svg">
<g clip-path="url(#clip0_490_1555)">
<path opacity="0.956" fill-rule="evenodd" clip-rule="evenodd" d="M44.8829 -0.117188C45.7424 -0.117188 46.6016 -0.117188 47.4611 -0.117188C69.133 5.22246 90.8518 10.4959 112.617 15.7031C115.658 16.4778 117.494 18.3919 118.125 21.4453C118.281 27.9298 118.281 34.414 118.125 40.8984C117.456 43.4512 115.932 45.2871 113.555 46.4062C91.0729 51.9096 68.5729 57.3391 46.0548 62.6953C45.0449 62.5612 44.2246 62.0925 43.5939 61.2891C39.2188 54.8829 34.844 48.4765 30.4689 42.0703C29.6195 43.8187 28.2524 44.9123 26.3673 45.3516C26.0549 62.6173 26.0549 79.8827 26.3673 97.1484C28.3276 97.976 29.695 99.3823 30.4689 101.367C31.7129 105.796 32.8457 110.25 33.8673 114.727C41.0551 114.687 48.2427 114.727 55.4298 114.844C57.3934 115.793 57.823 117.238 56.7189 119.18C56.4505 119.446 56.177 119.68 55.8986 119.883C38.2424 119.883 20.5861 119.883 2.92981 119.883C1.17417 118.373 1.09604 116.771 2.69544 115.078C6.09549 114.815 9.49393 114.619 12.8908 114.492C14.0626 110.117 15.2345 105.742 16.4064 101.367C17.1804 99.3823 18.5476 97.976 20.5079 97.1484C20.7814 79.8834 20.8204 62.6177 20.6251 45.3516C18.5766 44.943 17.1703 43.7712 16.4064 41.8359C16.2501 34.7266 16.2501 27.6171 16.4064 20.5078C17.1522 18.4711 18.5975 17.3774 20.7423 17.2266C20.7033 13.7101 20.7423 10.1944 20.8595 6.67969C21.1613 5.31539 22.0207 4.61227 23.4376 4.57031C24.8924 4.70972 25.7518 5.49096 26.0158 6.91406C26.1329 10.3507 26.1721 13.7882 26.1329 17.2266C28.2777 17.3774 29.7231 18.4711 30.4689 20.5078C34.5894 14.5327 38.6518 8.51707 42.6564 2.46094C43.2943 1.48774 44.0364 0.628371 44.8829 -0.117188ZM48.6329 5.74219C52.678 6.75345 56.7404 7.69095 60.8204 8.55469C60.8204 23.6327 60.8204 38.711 60.8204 53.7891C56.7744 54.8006 52.712 55.7381 48.6329 56.6016C48.6329 39.6485 48.6329 22.6953 48.6329 5.74219ZM65.9767 9.96094C70.0391 10.8984 74.1018 11.8359 78.1642 12.7734C78.2422 25.0402 78.1642 37.3057 77.9298 49.5703C73.9689 50.6191 69.9845 51.5566 65.9767 52.3828C65.9767 38.2423 65.9767 24.1015 65.9767 9.96094ZM43.2423 10.8984C43.5154 24.3748 43.5545 37.8902 43.3595 51.4453C39.2188 45.4296 35.0783 39.4141 30.9376 33.3984C30.5697 32.097 30.4916 30.769 30.7033 29.4141C35.0036 23.3098 39.1834 17.1379 43.2423 10.8984ZM83.5548 14.1797C87.6177 15.1173 91.6801 16.0548 95.7423 16.9922C95.8204 26.4466 95.7423 35.8997 95.5079 45.3516C91.5435 46.3134 87.5983 47.329 83.672 48.3984C83.5548 36.9923 83.5157 25.5863 83.5548 14.1797ZM100.899 18.3984C104.428 19.1434 107.943 19.9638 111.445 20.8594C111.943 21.1223 112.373 21.4738 112.734 21.9141C113.002 25.0235 113.119 28.1487 113.086 31.2891C113.047 34.1796 113.008 37.0704 112.969 39.9609C112.785 40.6835 112.355 41.1912 111.68 41.4844C108.102 42.3244 104.548 43.223 101.016 44.1797C100.899 35.5863 100.859 26.9925 100.899 18.3984ZM21.4454 22.3828C22.7736 22.3828 24.1016 22.3828 25.4298 22.3828C25.4298 28.3202 25.4298 34.2579 25.4298 40.1953C24.1016 40.1953 22.7736 40.1953 21.4454 40.1953C21.4454 34.2579 21.4454 28.3202 21.4454 22.3828ZM22.8517 101.836C24.1382 101.757 25.0368 102.304 25.547 103.477C26.5002 107.156 27.4768 110.828 28.4767 114.492C25.1209 114.726 21.7616 114.805 18.3986 114.727C19.3375 110.893 20.314 107.065 21.3283 103.242C21.6783 102.583 22.1861 102.114 22.8517 101.836Z" fill="white"/>
<path opacity="0.956" fill-rule="evenodd" clip-rule="evenodd" d="M72.5397 63.6313C77.2274 63.0643 80.6259 64.8611 82.735 69.0219C84.2643 73.8067 82.9752 77.5956 78.8678 80.3891C77.9624 80.795 77.0249 81.1077 76.0553 81.3266C65.7428 81.4829 55.4303 81.4829 45.1178 81.3266C43.7521 80.5923 43.2445 79.4596 43.5944 77.9282C43.9459 77.2642 44.4538 76.7563 45.1178 76.4047C55.0396 76.3267 64.9617 76.2484 74.8834 76.1704C77.8319 75.2343 78.7302 73.3201 77.5788 70.4282C75.8467 68.4955 73.9326 68.3003 71.8366 69.8422C71.3702 70.5425 70.8234 71.1676 70.1959 71.7172C67.3842 72.2643 66.1731 71.1315 66.5631 68.3188C67.9101 65.9153 69.9023 64.3527 72.5397 63.6313Z" fill="white"/>
<path opacity="0.96" fill-rule="evenodd" clip-rule="evenodd" d="M75.5865 84.4932C85.1961 84.4541 94.8055 84.4932 104.415 84.6104C106.602 86.251 106.602 87.8916 104.415 89.5323C94.8052 89.6886 85.1959 89.6886 75.5865 89.5323C73.966 88.6487 73.5364 87.3596 74.2974 85.6651C74.7029 85.2193 75.1325 84.8286 75.5865 84.4932Z" fill="white"/>
<path opacity="0.935" fill-rule="evenodd" clip-rule="evenodd" d="M59.6484 92.9292C70.1264 92.8181 80.595 92.9353 91.0547 93.2808C96.3347 95.2842 98.4049 99.0734 97.2656 104.648C95.9937 108.263 93.4547 110.333 89.6484 110.859C85.1672 111.175 82.1203 109.261 80.5078 105.117C81.0795 102.838 82.4857 102.096 84.7266 102.89C85.4412 103.995 86.3787 104.855 87.5391 105.468C90.3558 105.932 91.9964 104.76 92.4609 101.953C92.3266 100.255 91.4672 99.083 89.8828 98.437C79.961 98.359 70.039 98.2807 60.1172 98.2027C58.6038 98.0173 57.8227 97.1578 57.7734 95.6245C57.8555 94.3219 58.4803 93.4235 59.6484 92.9292Z" fill="white"/>
</g>
<defs>
<clipPath id="clip0_490_1555">
<rect width="120" height="120" fill="white"/>
</clipPath>
</defs>
</svg>
