<svg width="120" height="120" viewBox="0 0 120 120" fill="none" xmlns="http://www.w3.org/2000/svg">
<g clip-path="url(#clip0_490_2470)">
<path d="M73.1546 65.1827C73.1546 66.6441 72.6522 67.3747 71.5562 67.3747C70.4602 67.3747 69.7295 66.5527 69.7295 65.274V64.9543C69.7295 63.3103 70.2775 62.4883 71.4192 62.4883C72.5609 62.4883 73.0632 63.356 73.1546 64.863V65.1827Z" fill="white"/>
<path d="M76.7155 56.55C75.2998 56.55 75.1171 55.3169 74.5691 54.4036C74.3744 54.0872 74.2893 53.7154 74.3271 53.3458C74.365 52.9763 74.5235 52.6294 74.7783 52.359C75.0331 52.0886 75.3699 51.9098 75.7366 51.8501C76.1033 51.7904 76.4795 51.8532 76.8068 52.0288C77.2836 52.4279 77.6601 52.9333 77.906 53.5044C78.1519 54.0755 78.2603 54.6963 78.2226 55.3169C78.1422 55.6598 77.951 55.9665 77.6785 56.1894C77.406 56.4124 77.0674 56.5391 76.7155 56.55Z" fill="white"/>
<path d="M80.4611 60.8903C80.4611 61.8493 80.0044 62.4887 79.0911 62.6257C78.6983 62.712 78.2875 62.6471 77.9405 62.444C77.5934 62.2408 77.3357 61.9144 77.2187 61.5296C77.0489 61.0402 76.9266 60.5355 76.8534 60.0226C76.781 59.8187 76.7497 59.6026 76.7611 59.3865C76.7724 59.1705 76.8263 58.9589 76.9197 58.7637C77.013 58.5685 77.144 58.3937 77.305 58.2493C77.466 58.1048 77.654 57.9936 77.8581 57.9219C78.3122 57.7921 78.7989 57.8433 79.2162 58.0647C79.6334 58.286 79.9487 58.6604 80.0958 59.1092C80.2569 59.6942 80.3789 60.2892 80.4611 60.8903Z" fill="white"/>
<path d="M59.0432 49.2001C59.8621 49.2943 60.6624 49.5098 61.4179 49.8395C61.7595 50.0077 62.0247 50.2991 62.1603 50.6549C62.2958 51.0107 62.2917 51.4047 62.1486 51.7575C62.0514 52.1286 61.8204 52.4505 61.5 52.6613C61.1795 52.8721 60.7924 52.9569 60.4132 52.8992C59.7886 52.7956 59.1764 52.6272 58.5865 52.3969C58.18 52.2421 57.8465 51.9403 57.652 51.5512C57.4574 51.1622 57.4161 50.7142 57.5362 50.2962C57.6205 49.9666 57.8172 49.6769 58.0923 49.4768C58.3674 49.2767 58.7037 49.1789 59.0432 49.2001Z" fill="white"/>
<path d="M66.5333 55.9597C65.9036 55.8767 65.2981 55.6633 64.7555 55.333C64.2129 55.0028 63.7452 54.5629 63.3822 54.0417C63.2686 53.7331 63.2426 53.3992 63.307 53.0767C63.3715 52.7543 63.524 52.456 63.7476 52.215C63.9607 51.9911 64.2412 51.8431 64.5463 51.7936C64.8514 51.7442 65.1644 51.7959 65.4373 51.941C66.1107 52.3138 66.7522 52.7415 67.3553 53.2197C67.5943 53.4419 67.7546 53.7357 67.8122 54.0569C67.8699 54.378 67.8217 54.7092 67.675 55.0007C67.6089 55.2599 67.4632 55.4918 67.2584 55.6638C67.0536 55.8359 66.8 55.9394 66.5333 55.9597Z" fill="white"/>
<path d="M71.877 59.2454C71.9044 59.5786 71.8267 59.9121 71.6546 60.1988C71.4826 60.4856 71.225 60.7111 70.918 60.8437C70.5916 61.0062 70.2174 61.0448 69.8647 60.9524C69.512 60.86 69.2048 60.643 68.9999 60.3414C68.5949 59.7901 68.2576 59.1921 67.9953 58.5603C67.9034 58.3879 67.8483 58.1984 67.8333 58.0036C67.8183 57.8088 67.8438 57.6131 67.9081 57.4286C67.9724 57.2442 68.0743 57.075 68.2072 56.9318C68.34 56.7887 68.5011 56.6745 68.6803 56.5966C68.8464 56.4775 69.0351 56.3935 69.2347 56.3496C69.4344 56.3057 69.6409 56.3029 69.8417 56.3413C70.0425 56.3798 70.2333 56.4587 70.4027 56.5732C70.572 56.6878 70.7163 56.8356 70.8267 57.0076C71.3132 57.6816 71.6694 58.4405 71.877 59.2454Z" fill="white"/>
<path d="M80.7369 66.8312C80.7369 68.4753 80.2802 69.206 79.1386 69.206C77.9969 69.206 77.4488 68.3383 77.4945 66.7399C77.4706 66.4512 77.4706 66.1609 77.4945 65.8722C77.4945 64.7305 78.2252 64.2738 79.1842 64.3195C79.6123 64.3546 80.0097 64.5558 80.2914 64.8801C80.573 65.2044 80.7166 65.6261 80.6913 66.0549L80.7369 66.8312Z" fill="white"/>
<path d="M66.3968 43.3105C67.4429 43.5911 68.4113 44.1065 69.2282 44.8176C69.7306 45.3656 69.5479 46.0506 69.2282 46.69C69.0507 46.9592 68.784 47.1571 68.4749 47.249C68.1658 47.3409 67.8343 47.3208 67.5385 47.1923L65.5291 46.416C65.2087 46.2495 64.9587 45.9736 64.8246 45.6383C64.6905 45.303 64.6812 44.9308 64.7985 44.5893C64.9811 43.7216 65.5748 43.4476 66.3968 43.3105Z" fill="white"/>
<path d="M60.3664 41.8535H61.8734C62.3215 41.9215 62.7268 42.1577 63.0068 42.5141C63.2868 42.8705 63.4204 43.3202 63.3804 43.7716C63.313 44.2011 63.078 44.5865 62.7271 44.8432C62.3762 45.1 61.9379 45.2073 61.5081 45.1416H60.138C59.6899 45.0737 59.2846 44.8375 59.0046 44.4811C58.7246 44.1247 58.591 43.675 58.631 43.2236C58.6981 42.8203 58.9131 42.4566 59.234 42.2033C59.5548 41.95 59.9585 41.8253 60.3664 41.8535Z" fill="white"/>
<path d="M73.426 50.9869C72.7201 50.8561 72.0629 50.5365 71.5241 50.0621C70.9854 49.5876 70.5852 48.9761 70.3662 48.2925C70.3454 48.0129 70.4081 47.7335 70.5463 47.4896C70.6845 47.2457 70.892 47.0483 71.1426 46.9224C71.3797 46.7446 71.6681 46.6484 71.9646 46.6484C72.261 46.6484 72.5495 46.7446 72.7866 46.9224C73.4098 47.4543 73.9901 48.0346 74.522 48.6578C74.6693 48.8815 74.7478 49.1435 74.7478 49.4113C74.7478 49.6792 74.6693 49.9412 74.522 50.1649C74.4068 50.3708 74.2498 50.5504 74.061 50.6919C73.8723 50.8335 73.6559 50.934 73.426 50.9869Z" fill="white"/>
<path d="M59.4548 56.4597C58.993 56.265 58.5203 56.0972 58.0391 55.9574C53.5044 54.3299 49.3314 51.8323 45.7544 48.6049C46.3856 48.1889 46.9037 47.6227 47.2622 46.9572C47.6207 46.2917 47.8083 45.5475 47.8083 44.7916C47.8083 44.0356 47.6207 43.2915 47.2622 42.626C46.9037 41.9604 46.3856 41.3943 45.7544 40.9783C43.8282 39.869 42.0743 38.4843 40.5483 36.8682C39.3399 35.8919 38.4888 34.543 38.1279 33.0321C37.8057 31.1957 36.9477 29.4956 35.6618 28.1456C33.9802 26.3471 32.041 24.8081 29.9076 23.5788L31.0037 22.5741C32.2367 21.3411 32.191 20.6561 31.0037 19.4231L26.4369 14.8563C25.2952 13.7146 24.5645 13.7146 23.4228 14.8563L17.76 19.9254L5.79498 31.9361C4.83596 32.8494 4.74462 33.6258 5.52097 34.4478C7.34769 36.3659 9.22008 38.1926 11.1381 40.065C11.279 40.2142 11.4489 40.3332 11.6373 40.4144C11.8258 40.4957 12.0289 40.5376 12.2342 40.5376C12.4394 40.5376 12.6425 40.4957 12.831 40.4144C13.0194 40.3332 13.1893 40.2142 13.3302 40.065C13.6105 39.8454 13.8704 39.6008 14.1065 39.3343C14.6089 38.6493 14.9286 38.6036 15.3852 39.3343C16.9379 42.3027 18.582 45.2254 20.226 48.1482C22.4735 52.4772 26.3253 55.7553 30.958 57.2818C39.4522 60.0218 47.9921 62.6249 56.532 65.2736C57.1077 65.4493 57.7125 65.5095 58.3115 65.4507C58.9105 65.3918 59.492 65.2152 60.0225 64.9308C60.553 64.6465 61.0221 64.26 61.4027 63.7938C61.7834 63.3275 62.0681 62.7906 62.2405 62.2139C62.6215 61.081 62.5432 59.8439 62.0224 58.7681C61.5016 57.6923 60.5797 56.8635 59.4548 56.4597ZM12.6908 36.3202L12.2342 36.7312L11.7775 36.2745C10.9555 35.4982 10.2248 34.6761 9.40275 33.9455C8.58072 33.2148 9.0374 33.3518 9.40275 33.0321L24.3818 18.0074C24.7928 17.642 24.9755 17.6877 25.2952 18.0074C25.6149 18.327 26.8936 19.6514 27.7156 20.4278C28.5376 21.2041 28.0809 20.9301 27.7156 21.2954C22.9204 26.2732 17.7143 31.2967 12.6908 36.3202ZM57.1714 62.0769L48.8141 59.3825C43.745 57.7841 38.6759 56.0487 33.5611 54.5417C29.3612 53.323 25.7742 50.5676 23.5141 46.8238C21.4134 43.4444 19.9064 39.6996 17.7143 36.3659C17.486 36.0005 17.7143 35.7722 17.7143 35.5438L27.4872 26.0449C27.5471 25.9689 27.6234 25.9075 27.7104 25.8652C27.7974 25.823 27.8929 25.8011 27.9896 25.8011C28.0863 25.8011 28.1818 25.823 28.2688 25.8652C28.3558 25.9075 28.4321 25.9689 28.4919 26.0449C30.1144 27.0119 31.6433 28.128 33.0587 29.3787C33.7439 29.9422 34.3106 30.6359 34.726 31.4198C35.1415 32.2036 35.3974 33.0621 35.4791 33.9455C35.7664 35.4633 36.4975 36.8619 37.5798 37.9642C39.3591 40.0193 41.4013 41.8312 43.6537 43.353C44.0215 43.5701 44.3726 43.8144 44.704 44.0837C44.8308 44.1549 44.9422 44.2505 45.0316 44.3651C45.1211 44.4797 45.1869 44.6109 45.2251 44.7512C45.2634 44.8914 45.2733 45.0379 45.2544 45.182C45.2355 45.3262 45.1882 45.4651 45.115 45.5908C44.7954 46.1845 44.2474 46.0018 43.7907 45.8648C43.0895 45.5901 42.4289 45.2214 41.827 44.7688C39.2254 42.8797 36.7397 40.8362 34.3831 38.6493C34.1619 38.3398 33.8318 38.1254 33.4591 38.0492C33.0864 37.973 32.6987 38.0405 32.3737 38.2382C32.0624 38.3841 31.8084 38.6291 31.6513 38.9349C31.4943 39.2407 31.4432 39.59 31.506 39.928C31.6014 40.4216 31.8784 40.8616 32.2824 41.161C34.7711 43.4138 37.3779 45.5328 40.0916 47.5088L41.1419 48.4222C45.5558 53.5286 51.2678 57.3471 57.6737 59.4738L58.8611 59.9305C59.0898 60.0344 59.2842 60.2012 59.4217 60.4115C59.5591 60.6217 59.634 60.8667 59.6374 61.1179C59.4548 61.8485 58.3131 62.3966 57.1714 62.0769Z" fill="white" stroke="white" stroke-width="1.5"/>
<path d="M113.846 78.0208C113.742 76.8858 113.574 75.7575 113.343 74.6414C113.304 74.3752 113.198 74.1232 113.035 73.909C112.872 73.6947 112.658 73.525 112.412 73.4157C112.166 73.3064 111.896 73.261 111.628 73.2836C111.36 73.3063 111.101 73.3963 110.877 73.5454C109.14 74.6162 107.194 75.3015 105.169 75.5548C103.149 75.9123 101.069 75.4701 99.369 74.3217C98.6727 73.8786 97.9392 73.4966 97.177 73.18C97.0088 73.1288 96.8571 73.0344 96.7369 72.9061C96.6167 72.7779 96.5322 72.6204 96.4919 72.4493C95.656 69.5598 95.3618 66.5406 95.6243 63.5441C96.3749 60.5525 96.8186 57.4921 96.9486 54.4105C97.6014 54.6861 98.2729 54.915 98.958 55.0955C99.6507 55.2467 100.352 55.3534 101.059 55.4152C102.109 55.4152 103.159 55.4152 104.164 55.4152C105.369 55.274 106.585 55.5696 107.59 56.2483C108.596 56.9271 109.325 57.944 109.644 59.1143L109.918 59.7993C110.088 60.1216 110.358 60.3803 110.688 60.5366C111.017 60.693 111.388 60.7387 111.745 60.667C112.092 60.6438 112.418 60.4893 112.655 60.2348C112.893 59.9804 113.024 59.6451 113.024 59.297C113.527 55.7542 113.388 52.1497 112.613 48.6564C112.253 46.5573 111.11 44.673 109.415 43.3844C107.719 42.0959 105.598 41.4991 103.479 41.7148C101.079 41.7941 98.7185 42.3531 96.5376 43.3589C95.9439 43.5872 95.7156 43.5872 95.5786 42.8565C95.3658 41.2797 94.644 39.8154 93.523 38.6861C92.402 37.5569 90.943 36.8244 89.3677 36.6C87.8504 36.4265 86.3183 36.4265 84.801 36.6C83.6633 36.7422 82.511 36.4944 81.5322 35.8972C80.5535 35.3 79.8061 34.3887 79.4121 33.3119C79.4121 33.0379 79.4121 32.7639 79.0925 32.4899C79.072 32.1288 78.9223 31.7871 78.6708 31.5272C78.4193 31.2673 78.0827 31.1065 77.7224 31.0742C77.3671 31.0977 77.0349 31.2587 76.7962 31.5229C76.5575 31.7872 76.4311 32.134 76.4437 32.4899C76.1785 34.4418 76.0716 36.412 76.124 38.3811C76.1516 40.4902 76.5537 42.5777 77.3114 44.5463C77.8568 46.1292 78.8777 47.5051 80.2346 48.486C81.5915 49.4669 83.2181 50.0049 84.8923 50.0264C87.5411 50.1198 90.1733 49.5715 92.5645 48.428C93.3865 48.1083 93.5235 48.428 93.6149 49.0674C93.9802 52.0093 93.9802 54.9851 93.6149 57.927C93.6149 58.7033 93.2038 58.749 92.5645 58.5663C90.1167 57.9173 87.8306 56.7665 85.8513 55.1869C85.5669 54.957 85.2123 54.8316 84.8466 54.8316C84.4809 54.8316 84.1263 54.957 83.8419 55.1869C83.5215 55.3533 83.2715 55.6293 83.1374 55.9645C83.0033 56.2998 82.994 56.6721 83.1112 57.0136C83.9133 59.6532 85.1816 62.1279 86.856 64.3205C87.4247 65.1239 88.1776 65.7794 89.0515 66.2323C89.9255 66.6851 90.8952 66.9222 91.8795 66.9235C92.2448 66.9235 92.4732 66.9235 92.5188 67.4259C92.6202 68.811 92.834 70.1855 93.1582 71.536C93.1582 72.0383 93.1582 72.1297 92.6102 72.1297C87.9399 71.9553 83.2819 72.7161 78.9098 74.3674C75.5392 75.7032 71.8369 75.9585 68.3148 75.0981C66.6041 74.6051 64.8415 74.3139 63.063 74.2304C60.1557 74.2176 57.2726 74.7601 54.5688 75.8288C52.2375 76.9331 49.6337 77.33 47.0793 76.9705C45.6179 76.5595 44.1108 76.2398 42.5125 75.7374C38.2189 74.276 33.5624 74.276 29.2688 75.7374C27.9329 76.1242 26.6339 76.6286 25.387 77.2445C23.9862 77.9629 22.4528 78.3863 20.8818 78.4884C19.3108 78.5905 17.7355 78.3692 16.2534 77.8382C14.6616 77.3226 12.9663 77.2127 11.3213 77.5185C9.53408 77.8966 7.94044 78.9001 6.82704 80.3484C5.71363 81.7966 5.15352 83.5947 5.24746 85.419C5.56931 88.0767 6.16619 90.6938 7.02851 93.2282C7.90305 96.7549 10.0296 99.8434 13.0122 101.919C15.9947 103.994 19.6299 104.914 23.2406 104.508C27.5492 104.165 31.834 103.57 36.0733 102.727C40.7106 101.609 45.5474 101.609 50.1847 102.727C53.3814 103.549 56.4868 104.463 59.6836 105.33C63.6513 106.726 67.9459 106.901 72.0139 105.833C74.0233 105.193 75.987 104.326 78.0878 103.823C84.3367 102.11 90.9736 102.479 96.9943 104.874C97.812 105.244 98.6995 105.436 99.5974 105.436C100.495 105.436 101.383 105.244 102.2 104.874C104.167 103.989 105.879 102.622 107.178 100.9C112.267 94.4184 114.655 86.2217 113.846 78.0208ZM96.3549 46.8296C96.3396 46.7096 96.3681 46.5881 96.4353 46.4874C96.5024 46.3867 96.6036 46.3137 96.7203 46.2816C98.9473 45.0577 101.441 44.3991 103.981 44.3636C104.955 44.386 105.902 44.6858 106.711 45.2278C107.52 45.7698 108.157 46.5315 108.548 47.4233C109.403 49.2487 109.795 51.2562 109.69 53.2688C108.62 52.4803 107.397 51.9229 106.1 51.632C104.803 51.3411 103.459 51.3231 102.155 51.5791C101.338 51.7162 100.505 51.7162 99.6887 51.5791C98.6687 51.2964 97.7786 50.6682 97.1705 49.8019C96.5624 48.9356 96.2742 47.885 96.3549 46.8296ZM92.7015 44.3179C92.6859 44.4383 92.6337 44.551 92.5521 44.6408C92.4704 44.7306 92.3632 44.7933 92.2448 44.8203C90.1585 45.8328 87.8925 46.4225 85.5773 46.5556C84.2325 46.7301 82.872 46.3822 81.776 45.5836C80.68 44.785 79.9321 43.5964 79.6861 42.2629C79.2483 40.7826 79.0781 39.2361 79.1838 37.6961C81.0106 39.0767 83.307 39.6836 85.5773 39.3858C86.657 39.3173 87.74 39.3173 88.8197 39.3858C89.9745 39.5561 91.0203 40.1621 91.7422 41.0793C92.4641 41.9966 92.8074 43.1554 92.7015 44.3179ZM92.4275 63.0418C92.4275 63.4528 92.4275 63.4984 91.8795 63.4984C91.5608 63.5374 91.2374 63.5088 90.9305 63.4144C90.6236 63.3199 90.3401 63.1619 90.0984 62.9504C89.2787 62.2385 88.6109 61.3687 88.1347 60.393C89.5961 60.804 90.8748 61.3977 92.2448 61.6717C92.7928 61.8087 92.3362 62.5851 92.4275 63.0418ZM110.695 78.7058C110.695 79.5279 110.695 80.3499 110.695 81.1719C110.812 87.0542 109.07 92.8236 105.717 97.658C104.543 99.3598 102.976 100.754 101.15 101.722C100.62 102.047 100.021 102.24 99.402 102.288C98.7828 102.336 98.1611 102.236 97.588 101.996C92.5929 99.8742 87.1032 99.1939 81.7412 100.033C78.2957 100.394 74.9155 101.224 71.6943 102.499C68.1373 103.686 64.2909 103.686 60.734 102.499C57.3089 101.585 53.8838 100.535 50.413 99.7131C45.5879 98.6177 40.5787 98.6177 35.7536 99.7131C31.7417 100.549 27.6861 101.158 23.606 101.54C20.5859 102.072 17.4768 101.42 14.9252 99.7189C12.3735 98.0178 10.5758 95.3988 9.90559 92.4062C9.16151 90.0243 8.64168 87.578 8.35288 85.0994C8.12454 83.09 10.2709 80.9892 12.6913 80.5326C13.5235 80.4405 14.3657 80.5341 15.1574 80.8066C18.9387 82.0983 23.0782 81.8355 26.6657 80.0759C30.2145 78.2191 34.2444 77.4863 38.2197 77.9752C39.9292 78.2919 41.6095 78.7501 43.2432 79.3452C46.947 80.6984 51.0255 80.6005 54.6601 79.0712C58.7812 77.3113 63.3925 77.0686 67.6755 78.3862C71.8278 79.3974 76.1941 79.0615 80.1428 77.4272C84.1353 75.9307 88.4022 75.3078 92.6558 75.6004C94.2722 75.685 95.8419 76.1716 97.2226 77.0161C99.0222 78.2358 101.103 78.9765 103.269 79.1683C105.434 79.3601 107.613 78.9966 109.599 78.1122C110.512 77.6098 110.74 77.7468 110.695 78.7058Z" fill="white" stroke="white" stroke-width="1.5"/>
<path d="M58.1277 81.8523C56.8684 81.3756 55.4825 81.3518 54.2077 81.7851C52.9328 82.2183 51.8484 83.0817 51.1405 84.2271C50.9636 84.6385 50.9401 85.0997 51.0741 85.527C51.2082 85.9543 51.491 86.3195 51.8712 86.5561C52.0398 86.6585 52.228 86.7246 52.4236 86.75C52.6192 86.7754 52.818 86.7597 53.0072 86.7038C53.1964 86.6479 53.3718 86.5531 53.5222 86.4254C53.6726 86.2977 53.7947 86.14 53.8806 85.9624C54.1524 85.5176 54.5657 85.1768 55.0542 84.9946C55.5427 84.8125 56.0782 84.7995 56.575 84.9578H57.4427C57.8033 84.9528 58.1509 84.8225 58.4259 84.5891C58.7009 84.3558 58.8861 84.034 58.9497 83.679C59.0331 83.3265 58.9977 82.9564 58.849 82.626C58.7004 82.2957 58.4468 82.0237 58.1277 81.8523Z" fill="white"/>
<path d="M46.9877 90.0774C45.7326 89.6053 44.3533 89.579 43.0811 90.0031C41.809 90.4272 40.7213 91.2757 40.0005 92.4065C39.8136 92.8164 39.7848 93.281 39.9197 93.711C40.0546 94.1409 40.3436 94.5058 40.7312 94.7355C40.8948 94.8468 41.0807 94.9214 41.2759 94.954C41.4712 94.9866 41.6711 94.9765 41.8621 94.9244C42.0531 94.8723 42.2305 94.7795 42.3821 94.6523C42.5338 94.5251 42.6561 94.3665 42.7406 94.1875C43.0168 93.7457 43.4282 93.4049 43.9137 93.2157C44.3991 93.0264 44.9326 92.9989 45.435 93.1371H46.394C46.7551 93.1167 47.0968 92.967 47.3567 92.7155C47.6166 92.464 47.7774 92.1273 47.8097 91.7671C47.8762 91.4343 47.8318 91.0889 47.6833 90.7838C47.5349 90.4786 47.2905 90.2305 46.9877 90.0774Z" fill="white"/>
<path d="M22.9186 88.8897H21.7313C20.723 88.7904 19.7069 88.9726 18.7959 89.416C17.8849 89.8594 17.1147 90.5466 16.5708 91.4014C16.4432 91.5928 16.3549 91.8076 16.3111 92.0334C16.2673 92.2592 16.2688 92.4915 16.3155 92.7167C16.3623 92.9419 16.4533 93.1556 16.5834 93.3453C16.7134 93.535 16.8799 93.697 17.0731 93.8218C17.8038 94.3241 18.5802 94.1415 19.2195 93.2281C19.5393 92.797 19.9867 92.4775 20.4982 92.3148C21.0841 92.1784 21.6934 92.1784 22.2793 92.3148C22.4988 92.3607 22.7254 92.3613 22.9452 92.3165C23.1649 92.2716 23.3732 92.1823 23.5571 92.054C23.7411 91.9256 23.8968 91.761 24.0147 91.5703C24.1327 91.3795 24.2104 91.1666 24.243 90.9447C24.3036 90.7223 24.3167 90.4896 24.2815 90.2617C24.2463 90.0338 24.1635 89.8159 24.0387 89.6221C23.9138 89.4283 23.7495 89.263 23.5565 89.1368C23.3636 89.0106 23.1462 88.9264 22.9186 88.8897Z" fill="white"/>
<path d="M103.798 89.2981C102.616 88.9167 101.343 88.9189 100.162 89.3044C98.981 89.6899 97.952 90.439 97.2222 91.4445C96.9566 91.8057 96.8332 92.2519 96.8753 92.6982C96.9174 93.1445 97.1221 93.5598 97.4505 93.8649C97.8098 94.1195 98.2543 94.2237 98.6893 94.1555C99.1243 94.0873 99.5155 93.8519 99.7796 93.4995C100.079 93.0822 100.492 92.7607 100.971 92.5742C101.449 92.3877 101.971 92.3443 102.474 92.4492H103.342C103.724 92.431 104.087 92.2803 104.37 92.023C104.653 91.7657 104.837 91.418 104.891 91.0395C104.945 90.6611 104.866 90.2756 104.666 89.9495C104.467 89.6233 104.16 89.3768 103.798 89.2524V89.2981Z" fill="white"/>
<path d="M36.6206 83.4481H35.3419C34.3584 83.3937 33.3778 83.5968 32.4968 84.0373C31.6158 84.4778 30.865 85.1404 30.3184 85.9598C30.1691 86.1007 30.0502 86.2706 29.9689 86.459C29.8876 86.6475 29.8457 86.8506 29.8457 87.0558C29.8457 87.2611 29.8876 87.4642 29.9689 87.6527C30.0502 87.8411 30.1691 88.011 30.3184 88.1519C30.4711 88.3051 30.6526 88.4268 30.8525 88.5097C31.0523 88.5927 31.2665 88.6354 31.4829 88.6354C31.6993 88.6354 31.9136 88.5927 32.1134 88.5097C32.3132 88.4268 32.4947 88.3051 32.6475 88.1519C33.0012 87.6606 33.4987 87.2913 34.0714 87.095C34.644 86.8987 35.2635 86.885 35.8442 87.0558C36.0763 87.1354 36.323 87.1635 36.5671 87.1381C36.8112 87.1127 37.0468 87.0345 37.2576 86.9088C37.4684 86.7831 37.6492 86.613 37.7876 86.4104C37.926 86.2077 38.0186 85.9773 38.0589 85.7353C38.0993 85.4932 38.0864 85.2452 38.0212 85.0087C37.9561 84.7721 37.8401 84.5525 37.6815 84.3653C37.5229 84.178 37.3254 84.0276 37.1027 83.9244C36.8801 83.8212 36.6376 83.7678 36.3922 83.7678L36.6206 83.4481Z" fill="white"/>
<path d="M65.3918 89.9356C64.2264 89.5704 62.9764 89.5764 61.8147 89.9527C60.6529 90.3291 59.6368 91.0572 58.9069 92.0363C58.602 92.3655 58.4326 92.7977 58.4326 93.2465C58.4326 93.6952 58.602 94.1274 58.9069 94.4567C59.284 94.7306 59.7535 94.8457 60.2145 94.7774C60.6756 94.7091 61.0915 94.4628 61.373 94.0913C61.6448 93.7054 62.0216 93.4056 62.4588 93.2275C62.8959 93.0494 63.375 93.0005 63.8391 93.0866C64.1889 93.1075 64.5396 93.1075 64.8894 93.0866C65.2665 93.0882 65.6304 92.9484 65.9094 92.6947C66.1884 92.4411 66.3622 92.0921 66.3965 91.7166C66.4731 91.3484 66.4135 90.9649 66.2287 90.6373C66.0439 90.3098 65.7465 90.0604 65.3918 89.9356Z" fill="white"/>
<path d="M80.2787 85.2804C80.4863 85.3125 80.6983 85.3021 80.9018 85.2499C81.1052 85.1977 81.296 85.1047 81.4625 84.9766C81.629 84.8486 81.7678 84.688 81.8705 84.5048C81.9731 84.3215 82.0375 84.1193 82.0598 83.9104C82.1424 83.5053 82.0649 83.084 81.8435 82.7349C81.6221 82.3857 81.2741 82.136 80.8724 82.038C80.4466 82.012 80.0196 82.012 79.5937 82.038C78.5612 81.9382 77.5211 82.1239 76.5869 82.5749C75.6527 83.0259 74.8603 83.7248 74.2962 84.5954C74.0645 84.9224 73.9641 85.3245 74.0148 85.722C74.0656 86.1196 74.2638 86.4835 74.5702 86.7418C74.869 87.0347 75.2707 87.1987 75.6891 87.1987C76.1075 87.1987 76.5092 87.0347 76.808 86.7418C77.1672 86.1721 77.6927 85.7264 78.3134 85.465C78.9342 85.2037 79.6202 85.1392 80.2787 85.2804Z" fill="white"/>
<path d="M97.9534 82.444C98.0381 82.0571 97.9718 81.6526 97.7681 81.313C97.5643 80.9734 97.2386 80.7245 96.8574 80.6172C95.6441 80.2251 94.3359 80.2405 93.1321 80.661C91.9284 81.0815 90.8951 81.884 90.1899 82.9463C89.95 83.2621 89.8442 83.6597 89.8955 84.0529C89.9468 84.4462 90.151 84.8034 90.4639 85.047C90.7627 85.3399 91.1644 85.5039 91.5827 85.5039C92.0011 85.5039 92.4028 85.3399 92.7016 85.047C93.0497 84.5237 93.5596 84.1287 94.1534 83.9226C94.7472 83.7164 95.3922 83.7103 95.9897 83.9053C96.2153 83.9441 96.4464 83.9367 96.6691 83.8834C96.8917 83.8302 97.1012 83.7323 97.2848 83.5956C97.4685 83.4589 97.6224 83.2864 97.7374 83.0884C97.8523 82.8905 97.9258 82.6712 97.9534 82.444Z" fill="white"/>
<path d="M83.933 90.8967H82.7C81.6977 90.8889 80.7092 91.1312 79.8241 91.6017C78.939 92.0722 78.1852 92.7559 77.6309 93.5911C77.3835 93.9487 77.2878 94.3897 77.3649 94.8176C77.4419 95.2456 77.6853 95.6256 78.0419 95.8745C78.2128 95.987 78.4055 96.0623 78.6075 96.0956C78.8094 96.1289 79.0161 96.1194 79.2141 96.0678C79.4122 96.0161 79.5972 95.9234 79.7571 95.7957C79.917 95.668 80.0484 95.5081 80.1426 95.3264C80.3919 94.9355 80.7482 94.6244 81.1692 94.4301C81.5902 94.2358 82.0581 94.1665 82.5173 94.2304H83.4764C83.6804 94.2492 83.8862 94.2275 84.0818 94.1664C84.2774 94.1053 84.459 94.0061 84.616 93.8744C84.7731 93.7428 84.9026 93.5814 84.997 93.3996C85.0914 93.2177 85.1488 93.0189 85.1661 92.8147C85.2272 92.6072 85.243 92.389 85.2123 92.1748C85.1816 91.9607 85.1052 91.7557 84.9882 91.5737C84.8712 91.3917 84.7164 91.2371 84.5344 91.1203C84.3523 91.0034 84.1472 90.9272 83.933 90.8967Z" fill="white"/>
</g>
<defs>
<clipPath id="clip0_490_2470">
<rect width="120" height="120" fill="white"/>
</clipPath>
</defs>
</svg>
