<svg width="120" height="120" viewBox="0 0 120 120" fill="none" xmlns="http://www.w3.org/2000/svg">
<g clip-path="url(#clip0_490_1480)">
<path d="M48.6445 41.9018C48.6445 40.8019 48.6445 39.7938 48.6445 38.7856C48.6445 38.7856 48.6445 38.4648 48.2779 38.3731L46.5365 37.5941C45.8973 37.3237 45.3521 36.8708 44.969 36.2921C44.5859 35.7133 44.3819 35.0345 44.3827 34.3404C44.2669 33.014 44.2669 31.68 44.3827 30.3535C44.4791 29.5702 44.8494 28.8462 45.428 28.3095C46.0066 27.7728 46.7564 27.458 47.5447 27.4207H49.2403H64.5463C65.3238 27.353 66.1058 27.353 66.8834 27.4207C67.5583 27.5066 68.1856 27.8143 68.6666 28.2954C69.1477 28.7764 69.4554 29.4037 69.5413 30.0786C69.7317 31.46 69.8083 32.8548 69.7705 34.2488C69.7472 34.8196 69.574 35.3743 69.2683 35.857C68.9626 36.3396 68.5352 36.7333 68.0291 36.9984C67.6377 37.2782 67.2047 37.4948 66.7459 37.6399C64.8671 38.3273 65.2795 38.0065 65.2337 39.8396V41.4435H77.7443C78.1357 38.9191 79.0403 36.5017 80.4022 34.3404C81.2345 32.6964 81.6291 30.8655 81.5478 29.0246V28.1081H78.2025C77.4003 28.0716 76.6162 27.857 75.9073 27.4797C75.1983 27.1024 74.5824 26.572 74.104 25.9269C73.6257 25.2818 73.2971 24.5383 73.142 23.7504C72.9869 22.9624 73.0093 22.1498 73.2075 21.3716C73.5362 20.1851 74.2444 19.1389 75.2238 18.3929C76.2115 17.577 76.9171 16.4706 77.2402 15.2309C77.4431 13.9842 78.1068 12.8591 79.0997 12.0783C80.0926 11.2976 81.3424 10.918 82.6018 11.0148H91.0797C92.2726 10.9313 93.4558 11.2784 94.4145 11.9932C95.3731 12.708 96.0435 13.743 96.3039 14.9101C96.7477 16.3292 97.5532 17.6084 98.6411 18.622C99.5167 19.2983 100.157 20.233 100.472 21.2937C100.787 22.3544 100.76 23.4872 100.395 24.5316C100.029 25.576 99.345 26.479 98.4381 27.1127C97.5312 27.7464 96.4478 28.0786 95.3416 28.0622C94.2417 28.0622 93.0961 28.0622 91.9046 28.0622C91.7163 30.0818 92.0973 32.1138 93.0044 33.928C94.6337 36.8548 95.4709 40.1562 95.4332 43.5057C95.4332 46.1636 95.4332 48.8674 95.4332 51.5711V52.671H98.7327V51.2962C98.6227 49.7238 98.9062 48.1488 99.5576 46.7135C100.218 45.402 101.3 44.3502 102.629 43.727C103.959 43.1038 105.459 42.9451 106.89 43.2766C108.357 43.5739 109.676 44.3716 110.621 45.5335C111.565 46.6953 112.077 48.1491 112.068 49.6464C112.068 55.6038 112.068 61.5613 112.068 67.5187C112.068 71.4597 112.068 75.4466 112.068 79.4335C111.944 81.0386 111.242 82.5441 110.091 83.6702C108.941 84.7963 107.42 85.4664 105.813 85.556C104.206 85.6456 102.62 85.1486 101.352 84.1574C100.083 83.1662 99.2177 81.7481 98.916 80.1667C98.8464 78.961 98.8464 77.7522 98.916 76.5465V76.0424H95.6624C95.6624 76.4548 95.6624 76.8214 95.6624 77.188C95.6624 79.3877 95.6624 81.7707 95.6624 83.787C95.7313 84.902 95.5101 86.0159 95.0201 87.0199C94.5302 88.0238 93.7883 88.8836 92.8669 89.5153C92.0548 90.0828 91.483 90.9323 91.263 91.8983C90.9881 92.8148 90.7131 93.6855 90.4381 94.6937C90.8503 94.6707 91.2633 94.6707 91.6755 94.6937C93.5977 94.5557 95.5273 94.5557 97.4496 94.6937C98.3113 94.7951 99.1441 95.0678 99.899 95.4957C100.654 95.9237 101.315 96.4983 101.845 97.1858C102.374 97.8732 102.761 98.6596 102.982 99.4987C103.203 100.338 103.254 101.213 103.132 102.072C102.905 103.744 102.058 105.269 100.76 106.347C99.4613 107.425 97.8058 107.976 96.1206 107.892H22.7985C20.7353 108.092 18.6547 108.015 16.612 107.663C15.0948 107.322 13.758 106.43 12.8606 105.16C11.9632 103.89 11.569 102.333 11.7544 100.789C11.9238 99.2445 12.6326 97.8097 13.7558 96.7367C14.8791 95.6637 16.3448 95.0214 17.8951 94.9228C19.6823 94.9228 21.4695 94.9228 23.2568 94.9228C23.8067 94.9228 23.99 94.9228 23.9442 94.2354C23.8983 93.548 23.9442 91.8983 23.9442 90.7526C23.9221 90.292 23.7616 89.8488 23.4836 89.4809C23.2057 89.113 22.8231 88.8375 22.3861 88.6905C20.3108 87.9824 18.4406 86.7768 16.9387 85.1791C15.4369 83.5814 14.3492 81.6402 13.7707 79.5252C13.7244 79.3242 13.6225 79.1402 13.4767 78.9944C13.3308 78.8485 13.1469 78.7466 12.9458 78.7003C12.0097 78.457 11.0911 78.1508 10.1963 77.7838C9.2922 77.4892 8.50214 76.9208 7.93559 76.1571C7.36903 75.3935 7.05403 74.4726 7.03425 73.5219C6.98858 72.6365 6.98858 71.7494 7.03425 70.864C7.03425 65.6856 7.03425 60.5073 7.03425 55.3747C6.91288 53.9983 7.3185 52.6272 8.16914 51.5384C9.01979 50.4495 10.252 49.7242 11.6169 49.5089C12.2694 49.3457 12.8727 49.0271 13.3755 48.5802C13.8782 48.1334 14.2653 47.5715 14.5039 46.9427C15.1403 45.3585 16.0832 43.9156 17.2786 42.6966C18.4739 41.4777 19.8981 40.5068 21.4695 39.8396C23.8265 38.8264 26.4514 38.6171 28.9392 39.2438C30.5105 39.8472 32.0412 40.5514 33.5219 41.3519C34.0461 41.6354 34.6235 41.807 35.2174 41.8559H48.4612L48.6445 41.9018ZM77.6984 82.4581V45.797H66.5626C66.1827 45.807 65.8134 45.9242 65.4972 46.135C65.181 46.3458 64.9307 46.6417 64.7754 46.9885C64.4105 47.7007 63.8505 48.2944 63.1607 48.7001C62.471 49.1059 61.68 49.3069 60.8802 49.2798H57.764C56.1142 49.2798 54.5103 49.2798 52.8606 49.2798C52.0773 49.2851 51.3102 49.0569 50.6572 48.6243C50.0043 48.1917 49.495 47.5743 49.1945 46.851C49.0658 46.5142 48.8304 46.2288 48.5242 46.0384C48.218 45.8481 47.8579 45.7633 47.4989 45.797H34.3926V82.4581H77.6984ZM81.4562 64.1275V82.4581C81.4644 83.2423 81.5411 84.0243 81.6853 84.7952C81.6955 85.2748 81.8844 85.7332 82.215 86.0808C82.5456 86.4283 82.9941 86.6399 83.4725 86.6741C85.7639 86.6741 88.0552 86.6741 90.2548 86.6741C91.1714 86.6741 91.6296 86.0325 91.7671 85.0243C91.9046 84.0162 91.7671 83.8787 91.7671 83.2829V67.1521C91.7671 61.5154 91.7671 55.8788 91.7671 50.2422V45.6595C91.9243 41.9249 91.0185 38.2223 89.155 34.982C88.8342 34.4321 88.5134 33.8363 88.2385 33.2406C87.8894 32.6186 87.6726 31.9312 87.6016 31.2215C87.5306 30.5118 87.607 29.795 87.826 29.1162C87.826 28.658 87.826 28.2455 87.5053 28.0622C87.2289 27.9248 86.9112 27.8956 86.6145 27.9804C86.3177 28.0652 86.0634 28.2578 85.9013 28.5205C85.4889 29.6661 85.0765 30.8118 84.7099 32.0033C83.7017 35.257 82.6935 38.5106 81.777 41.8101C81.3189 44.3183 81.1803 46.8743 81.3645 49.4173C81.4104 54.3665 81.4562 59.1783 81.4562 63.9901V64.1275ZM57.3515 98.4973H21.0113C20.6155 98.544 20.2156 98.544 19.8198 98.4973C19.0205 98.3981 18.2105 98.5583 17.5092 98.9543C16.8079 99.3504 16.2524 99.9613 15.9246 100.697C15.8227 100.912 15.7698 101.147 15.7698 101.384C15.7698 101.622 15.8227 101.857 15.9246 102.072C16.2364 102.899 16.8172 103.597 17.5735 104.054C18.3297 104.511 19.2177 104.7 20.0948 104.592H93.4169C94.0126 104.592 94.6083 104.592 95.2041 104.592C95.7998 104.592 96.3497 104.592 96.7164 104.592C97.4982 104.026 98.2199 103.381 98.8702 102.667C99.0924 102.423 99.2155 102.104 99.2155 101.774C99.2155 101.443 99.0924 101.125 98.8702 100.88C98.4119 100.33 97.862 99.7804 97.3579 99.2763C97.1289 99.0399 96.8487 98.8592 96.5388 98.748C96.229 98.6367 95.8978 98.598 95.5707 98.6348H57.3515V98.4973ZM87.047 94.6479V91.4858C87.047 90.5693 87.047 90.4777 85.9472 90.4318C84.8473 90.386 84.0683 90.4318 83.1518 90.4318C82.1968 90.3691 81.274 90.0622 80.4716 89.5407C79.6693 89.0191 79.0142 88.3003 78.5691 87.4531C78.4447 87.1993 78.2571 86.9817 78.0244 86.8212C77.7917 86.6607 77.5216 86.5627 77.2402 86.5366C76.8434 86.5115 76.4454 86.5115 76.0487 86.5366H35.7215C34.8911 86.543 34.0742 86.7472 33.3386 87.1324C31.5513 88.0489 29.8558 89.1029 28.1602 90.1111C28.1602 90.1111 27.7936 90.3402 27.7936 90.4777V94.8312L87.047 94.6479ZM22.4319 43.7807C20.9855 44.2705 19.7025 45.1501 18.7241 46.3225C17.7457 47.495 17.1099 48.9148 16.8869 50.4255C16.8869 52.7626 16.8869 55.0081 16.8869 57.4369C16.8869 63.5318 16.8869 69.5809 16.8869 75.7674C16.8419 77.1629 17.0967 78.5519 17.6343 79.8405C18.1719 81.1291 18.9797 82.2873 20.0031 83.2371C22.0824 85.0275 24.7803 85.9323 27.5186 85.7576C29.7641 85.7576 30.6806 84.841 30.7265 82.6414V81.9998C30.7265 78.6545 30.7265 75.355 30.7265 72.0097V46.0261C30.794 45.3864 30.794 44.7412 30.7265 44.1014C30.7095 43.8922 30.6504 43.6886 30.5528 43.5028C30.4552 43.317 30.321 43.1528 30.1584 43.0202C29.9957 42.8875 29.808 42.789 29.6064 42.7307C29.4047 42.6724 29.1934 42.6554 28.9851 42.6808C28.3893 42.6808 27.8394 42.6808 27.2437 42.6808C26.6479 42.6808 26.373 43.0474 26.373 43.7807V74.9426C26.4186 75.3997 26.4186 75.8602 26.373 76.3173C26.3097 76.6838 26.1486 77.0264 25.9065 77.3087C25.6645 77.5911 25.3507 77.8027 24.9982 77.9213C24.6943 77.979 24.38 77.9391 24.1002 77.8074C23.8203 77.6757 23.5893 77.4589 23.4401 77.188C23.1167 76.7548 22.8972 76.2531 22.7985 75.7216C22.7527 75.2186 22.7527 74.7124 22.7985 74.2093V43.7807H22.4319ZM102.399 64.3567V76.684C102.399 77.6921 102.399 78.7003 102.399 79.7085C102.423 80.3689 102.705 80.9936 103.185 81.4479C103.665 81.9021 104.304 82.1497 104.965 82.1373C105.322 82.2167 105.691 82.2204 106.05 82.1481C106.408 82.0757 106.747 81.929 107.045 81.7173C107.343 81.5057 107.594 81.2338 107.78 80.9194C107.966 80.6049 108.085 80.2548 108.127 79.8918C108.197 79.4055 108.197 78.9117 108.127 78.4254V50.288C108.11 49.6196 108.002 48.9567 107.806 48.3175C107.628 47.749 107.254 47.2623 106.75 46.9435C106.247 46.6247 105.647 46.4945 105.057 46.5761C104.474 46.5106 103.886 46.6543 103.4 46.9817C102.913 47.309 102.558 47.7987 102.399 48.3633C102.195 49.1718 102.103 50.0044 102.124 50.8379C102.399 55.3289 102.399 59.8657 102.399 64.3567ZM96.6705 22.6547C96.3083 22.0352 95.7721 21.5356 95.1286 21.2179C94.485 20.9002 93.7624 20.7783 93.0503 20.8675C88.7426 20.8675 84.4349 20.8675 80.1272 20.8675C79.4419 20.8628 78.7667 21.0329 78.1653 21.3616C77.5639 21.6904 77.0563 22.1669 76.6902 22.7464C78.2942 24.2586 78.3858 24.3503 80.448 24.3503C84.5724 24.3503 88.6967 24.3503 92.8211 24.3503C93.5515 24.3956 94.2821 24.2652 94.9519 23.9703C95.6216 23.6753 96.2109 23.2242 96.6705 22.6547ZM61.3384 38.2815H52.8147V45.2471H61.3384V38.2815ZM65.9211 31.1784H48.1863V34.3404H65.9669L65.9211 31.1784ZM12.3043 75.2633C12.4418 75.2469 12.5744 75.2024 12.6939 75.1325C12.8134 75.0626 12.9172 74.9689 12.9989 74.8571C13.0806 74.7453 13.1384 74.6179 13.1687 74.4828C13.199 74.3477 13.2011 74.2078 13.175 74.0718C13.175 67.427 13.175 60.828 13.175 54.1832C13.205 53.9064 13.1332 53.6281 12.9729 53.4004C12.8127 53.1727 12.575 53.0111 12.3043 52.9459C11.846 53.4958 11.3419 54.0457 10.9295 54.6415C10.6936 54.9772 10.5657 55.3769 10.5629 55.7872C10.5629 57.7424 10.5629 59.7129 10.5629 61.6987V72.3763C10.5756 72.8558 10.7356 73.3198 11.0211 73.7052C11.3877 74.2552 11.846 74.7592 12.3043 75.2633ZM95.7082 72.1471H98.5494V56.612H95.7082V72.1471ZM92.8669 16.2849C92.6562 16.1152 92.4572 15.9315 92.2712 15.7349C92.0342 15.3989 91.727 15.1184 91.371 14.9127C91.0149 14.707 90.6185 14.581 90.209 14.5435H82.4185C82.1014 14.4753 81.7734 14.4753 81.4562 14.5435C81.137 14.7348 80.8969 15.0341 80.7792 15.3871C80.6615 15.7401 80.6741 16.1236 80.8146 16.4682C80.8146 17.2014 81.5479 16.8806 81.9145 16.8806H91.7213C91.9518 16.9311 92.1927 16.8991 92.402 16.7902C92.6114 16.6814 92.7759 16.5025 92.8669 16.2849Z" fill="white" stroke="white" stroke-width="1.83305"/>
<path d="M67.857 75.4827C67.3534 76.202 66.6538 76.7615 65.8414 77.0945C65.029 77.4276 64.138 77.5203 63.2744 77.3616H47.4643C46.7777 77.4072 46.0888 77.4072 45.4021 77.3616C44.9364 77.2581 44.4986 77.0548 44.119 76.7658C43.6534 76.3622 43.2098 75.9339 42.79 75.4827C43.1914 74.9857 43.6923 74.5781 44.2605 74.2861C44.8288 73.9941 45.4518 73.8241 46.0895 73.7871C50.3972 73.7871 54.6591 73.7871 58.9667 73.7871C61.0747 73.7871 63.1827 73.7871 65.2908 73.7871C65.6902 73.8124 66.073 73.956 66.3906 74.1995C66.9405 74.5662 67.3988 75.0702 67.857 75.4827Z" fill="white"/>
<path d="M67.9446 66.3159L67.578 66.6367C67.1162 67.2224 66.5102 67.6781 65.8194 67.9592C65.1285 68.2404 64.3765 68.3373 63.637 68.2406C60.2458 68.2406 56.9005 68.2406 53.5093 68.2406H45.3981C45.0161 68.2373 44.6457 68.1085 44.3441 67.874L42.6943 66.6367C43.1515 66.143 43.6583 65.6977 44.2066 65.3077C44.6354 64.9928 45.1429 64.8025 45.673 64.7578H53.3719H61.9872C63.1329 64.7578 64.2327 64.7578 65.3784 64.7578C65.79 64.8218 66.1818 64.9785 66.524 65.2161C67.0183 65.5551 67.4926 65.9223 67.9446 66.3159Z" fill="white"/>
<path d="M42.6943 55.8157C44.2066 53.9368 46.2688 54.1201 48.331 54.1201H62.0789C63.0412 54.1201 64.0036 54.1201 64.9659 54.1201C65.4063 54.1828 65.8282 54.3391 66.2032 54.5784C66.7073 54.945 67.1656 55.4033 67.6697 55.8157C67.2171 56.3793 66.6456 56.8359 65.996 57.1528C65.3463 57.4697 64.6347 57.6391 63.9119 57.6487C60.2916 57.6487 56.6714 57.6487 53.0511 57.6487C50.7139 57.6487 48.4685 57.6487 45.9938 57.6487C45.5178 57.6504 45.0461 57.5582 44.6057 57.3773C44.1654 57.1965 43.765 56.9305 43.4276 56.5947L42.6943 55.8157Z" fill="white"/>
<path d="M89.4818 76.4972C88.8861 77.0012 88.3361 77.4595 87.8321 77.9636C87.7299 78.0661 87.6085 78.1475 87.4748 78.203C87.3411 78.2585 87.1978 78.2871 87.053 78.2871C86.9083 78.2871 86.7649 78.2585 86.6312 78.203C86.4976 78.1475 86.3761 78.0661 86.274 77.9636L85.9532 77.6886C85.686 77.5388 85.4706 77.3113 85.3356 77.0364C85.2005 76.7614 85.1521 76.452 85.1969 76.1489C85.2416 75.8459 85.3773 75.5636 85.586 75.3393C85.7947 75.1151 86.0665 74.9595 86.3656 74.8932C86.5305 74.8156 86.7104 74.7754 86.8926 74.7754C87.0748 74.7754 87.2548 74.8156 87.4196 74.8932C88.1528 75.5806 88.7944 75.9931 89.4818 76.4972Z" fill="white"/>
<path d="M86.6402 54.0409C86.1819 53.2618 85.7236 52.5744 85.357 51.887C85.2648 51.7634 85.1996 51.6217 85.1656 51.4713C85.1317 51.3208 85.1298 51.1648 85.16 51.0136C85.1903 50.8623 85.252 50.7191 85.3412 50.5933C85.4304 50.4674 85.5451 50.3617 85.6778 50.2831L86.686 49.5957C89.069 51.9328 88.4732 51.7495 86.686 53.5826L86.6402 54.0409Z" fill="white"/>
<path d="M86.9533 66.4169L85.6243 64.813C85.4564 64.6417 85.3623 64.4113 85.3623 64.1714C85.3623 63.9315 85.4564 63.7012 85.6243 63.5298C86.0367 63.0258 86.5408 62.5675 86.9991 62.0176C87.549 62.5217 88.0531 62.9341 88.4655 63.3924C88.5557 63.478 88.6274 63.581 88.6765 63.6953C88.7255 63.8095 88.7508 63.9325 88.7508 64.0568C88.7508 64.1812 88.7255 64.3042 88.6765 64.4184C88.6274 64.5326 88.5557 64.6357 88.4655 64.7213L86.9533 66.4169Z" fill="white"/>
</g>
<defs>
<clipPath id="clip0_490_1480">
<rect width="120" height="120" fill="white"/>
</clipPath>
</defs>
</svg>
