<svg width="120" height="120" viewBox="0 0 120 120" fill="none" xmlns="http://www.w3.org/2000/svg">
<path d="M45.1145 36.2291H107.139C109.489 36.2291 111.743 37.1626 113.405 38.8243C115.066 40.486 116 42.7397 116 45.0897V72.0705C116 74.4205 115.066 76.6743 113.405 78.336C111.743 79.9977 109.489 80.9312 107.139 80.9312H45.0259C42.6759 80.9312 40.4222 79.9977 38.7605 78.336C37.0988 76.6743 36.1653 74.4205 36.1653 72.0705V45.4885C36.1109 44.2843 36.3029 43.0816 36.7294 41.9542C37.1559 40.8267 37.808 39.7981 38.6457 38.9314C39.4834 38.0646 40.4892 37.3779 41.6015 36.9132C42.7138 36.4486 43.9092 36.2158 45.1145 36.2291Z" stroke="white" stroke-width="4.58393" stroke-miterlimit="10"/>
<path d="M28.0554 51.3368C28.0554 47.2751 24.7628 43.9824 20.701 43.9824C16.6393 43.9824 13.3467 47.2751 13.3467 51.3368V65.9126C13.3467 69.9743 16.6393 73.267 20.701 73.267C24.7628 73.267 28.0554 69.9743 28.0554 65.9126V51.3368Z" stroke="white" stroke-width="4.58393" stroke-miterlimit="10"/>
<path d="M28.2334 52.7077V66.8848H36.208V52.7077H28.2334Z" stroke="white" stroke-width="2.21517" stroke-miterlimit="10"/>
<path d="M52.9121 37.0762V80.715" stroke="white" stroke-width="4.22" stroke-miterlimit="10"/>
<path d="M99.4736 37.0762V80.715" stroke="white" stroke-width="4.22" stroke-miterlimit="10"/>
<path d="M52.9121 44.6895H99.475" stroke="white" stroke-width="4.58393" stroke-miterlimit="10"/>
<path d="M52.9121 55.2383H99.475" stroke="white" stroke-width="4.58393" stroke-miterlimit="10"/>
<path d="M52.9121 63.7031H99.475" stroke="white" stroke-width="4.58393" stroke-miterlimit="10"/>
<path d="M52.9121 74.2422H99.475" stroke="white" stroke-width="4.58393" stroke-miterlimit="10"/>
<path d="M57.4757 90.4453H98.7664C101.539 90.4453 104.199 91.5469 106.16 93.5077C108.12 95.4685 109.222 98.1279 109.222 100.901H47.1973C47.1969 98.1584 48.2741 95.5254 50.1967 93.5696C52.1194 91.6139 54.7335 90.4918 57.4757 90.4453Z" stroke="white" stroke-width="4.58393" stroke-miterlimit="10"/>
<path d="M65.8035 80.7129H58.0947V87.3584H65.8035V80.7129Z" stroke="white" stroke-width="2.58" stroke-miterlimit="10"/>
<path d="M97.5682 80.7129H89.8594V87.3584H97.5682V80.7129Z" stroke="white" stroke-width="2.21517" stroke-miterlimit="10"/>
<path d="M7 57.0001V63.0254H12.1392V57.0001H7Z" stroke="white" stroke-width="1.58" stroke-miterlimit="10"/>
<path d="M3.00035 65.0117H6.94336L6.94336 54.9991H3.00035L3.00035 65.0117Z" stroke="white" stroke-width="1.58" stroke-miterlimit="10"/>
<path d="M69.4781 24H86.5219C87.8979 24 89.2604 24.3104 90.5317 24.9134C91.803 25.5165 92.9581 26.4004 93.931 27.5147C94.904 28.629 95.6758 29.9519 96.2024 31.4078C96.729 32.8637 97 34.4241 97 36H59C59 34.4241 59.271 32.8637 59.7976 31.4078C60.3242 29.9519 61.096 28.629 62.069 27.5147C63.0419 26.4004 64.197 25.5165 65.4683 24.9134C66.7396 24.3104 68.1021 24 69.4781 24Z" stroke="white" stroke-width="4.58393" stroke-miterlimit="10"/>
<path d="M23.9354 37.0254H17.5557V44.1139H23.9354V37.0254Z" stroke="white" stroke-width="2.58" stroke-miterlimit="10"/>
<path d="M14 29V36H27V29H14Z" stroke="white" stroke-width="2.58" stroke-miterlimit="10"/>
</svg>
