<svg width="120" height="120" viewBox="0 0 120 120" fill="none" xmlns="http://www.w3.org/2000/svg">
<g clip-path="url(#clip0_490_1548)">
<path opacity="0.963" fill-rule="evenodd" clip-rule="evenodd" d="M56.1347 -0.115234C58.6348 -0.115234 61.1346 -0.115234 63.6347 -0.115234C75.6213 1.98665 83.8634 8.7054 88.3613 20.041C91.9575 32.3363 89.2622 43.0004 80.2753 52.0332C76.0193 55.7042 71.1366 58.1652 65.6269 59.416C65.4706 61.291 65.4706 63.166 65.6269 65.041C66.4798 65.8871 67.0266 66.9029 67.2675 68.0879C67.4238 75.1972 67.4238 82.3067 67.2675 89.416C66.4824 92.1931 64.6465 93.5994 61.7597 93.6348C61.7984 94.4977 61.7595 95.357 61.6425 96.2129C61.0718 97.3201 60.1732 97.6716 58.9472 97.2676C58.752 97.0723 58.5565 96.8769 58.3613 96.6816C58.0409 95.6973 57.9237 94.6817 58.0097 93.6348C55.1229 93.5994 53.287 92.1931 52.5019 89.416C52.3456 82.3067 52.3456 75.1972 52.5019 68.0879C52.7428 66.9029 53.2896 65.8871 54.1425 65.041C54.2988 63.166 54.2988 61.291 54.1425 59.416C40.3153 55.9796 32.2685 47.2295 30.0019 33.166C29.1431 24.0521 31.7604 16.1224 37.8535 9.37695C38.6475 9.22255 39.4287 9.26159 40.1972 9.49414C40.5715 10.1548 40.6887 10.8579 40.5488 11.6035C31.815 22.3351 31.1119 33.5851 38.4394 45.3535C40.6502 48.1569 43.2673 50.5006 46.291 52.3848C51.6042 55.6287 57.3853 56.8398 63.6347 56.0176C76.6533 53.3023 84.1924 45.3727 86.2519 32.2285C86.7748 26.7535 85.6418 21.6755 82.8535 16.9941C77.7483 8.26569 70.092 3.73445 59.8847 3.40039C54.7278 3.41375 49.9622 4.78093 45.5878 7.50195C44.6688 7.76884 43.8877 7.57353 43.2441 6.91602C42.9195 6.20218 42.9584 5.49905 43.3613 4.80664C47.2467 2.17084 51.5044 0.530218 56.1347 -0.115234Z" fill="white" stroke="white"/>
<path fill-rule="evenodd" clip-rule="evenodd" d="M70.4258 19.1035C65.7934 14.9656 60.4808 13.8328 54.4883 15.7051C52.6388 16.5886 50.9202 17.6433 49.332 18.8691C49.5793 18.2661 49.6184 17.6411 49.4492 16.9941C48.8984 16.4825 48.3905 15.9356 47.9258 15.3535C50.7711 12.7632 54.1304 11.3569 58.0039 11.1348C57.8851 12.2178 58.0803 13.2334 58.5898 14.1816C59.9727 15.0072 60.9884 14.6947 61.6367 13.2441C61.7534 12.5453 61.7926 11.8422 61.7539 11.1348C65.5941 11.4497 68.9537 12.8559 71.832 15.3535C71.3673 15.9356 70.8594 16.4825 70.3086 16.9941C70.16 17.7101 70.1989 18.4132 70.4258 19.1035Z" fill="white"/>
<path fill-rule="evenodd" clip-rule="evenodd" d="M64.8059 16.7692C66.1676 16.6259 66.9488 17.2118 67.1496 18.527C66.1882 20.9975 65.0946 23.4193 63.8684 25.7926C65.3063 27.6571 65.6578 29.7273 64.923 32.0035C63.6766 34.4054 61.6845 35.5773 58.9465 35.5192C58.4295 36.5924 57.8827 37.6471 57.3059 38.6832C55.7627 39.4342 54.8252 39.0046 54.4934 37.3942C54.7938 36.1271 55.2626 34.9163 55.8996 33.7613C54.5845 32.0663 54.1547 30.1522 54.6105 28.0192C55.8441 25.4274 57.9143 24.0995 60.8215 24.0348C61.9739 21.4938 63.3021 19.0719 64.8059 16.7692Z" fill="white"/>
<path fill-rule="evenodd" clip-rule="evenodd" d="M59.1871 27.7759C61.3314 27.6953 62.1517 28.7111 61.648 30.8228C60.4761 32.0727 59.3042 32.0727 58.1324 30.8228C57.7524 29.5157 58.104 28.4999 59.1871 27.7759Z" fill="white"/>
<path fill-rule="evenodd" clip-rule="evenodd" d="M48.8711 19.334C47.7236 20.765 46.7472 22.3275 45.9414 24.0215C43.8637 29.991 44.8403 35.3816 48.8711 40.1934C48.4129 40.0005 47.9441 39.9613 47.4648 40.0762C46.7704 40.5358 46.1455 41.0826 45.5898 41.7168C45.3948 41.878 45.2387 41.8389 45.1211 41.5996C42.8186 38.6338 41.4904 35.2743 41.1367 31.5215C41.9997 31.5602 42.8589 31.5212 43.7148 31.4043C44.5848 30.8153 44.8581 29.995 44.5352 28.9434C44.3399 28.7481 44.1445 28.5527 43.9492 28.3574C43.0438 28.0401 42.1063 27.9229 41.1367 28.0059C41.4555 24.168 42.8617 20.8087 45.3555 17.9277C45.9466 18.4799 46.5714 18.9877 47.2305 19.4512C47.7998 19.616 48.3466 19.5769 48.8711 19.334Z" fill="white"/>
<path fill-rule="evenodd" clip-rule="evenodd" d="M71.1289 40.1934C72.0812 38.6819 72.9795 37.1195 73.8242 35.5059C75.9069 29.5366 74.9302 24.1459 70.8945 19.334C71.4191 19.5769 71.9659 19.616 72.5352 19.4512C73.1942 18.9877 73.8191 18.4799 74.4102 17.9277C76.9039 20.8087 78.3102 24.168 78.6289 28.0059C77.8438 27.9672 77.0626 28.0063 76.2852 28.123C75.0158 28.8737 74.7814 29.8893 75.582 31.1699C76.5664 31.4903 77.582 31.6075 78.6289 31.5215C78.2752 35.2743 76.947 38.6338 74.6445 41.5996C74.5269 41.8389 74.3708 41.878 74.1758 41.7168C73.6201 41.0826 72.9952 40.5358 72.3008 40.0762C71.8871 39.9262 71.4964 39.9653 71.1289 40.1934Z" fill="white"/>
<path fill-rule="evenodd" clip-rule="evenodd" d="M49.3288 40.666C52.1457 43.283 55.505 44.6893 59.4069 44.8848C58.1202 45.7801 57.6514 47.03 58.0007 48.6348C54.3397 48.2223 51.0585 46.8941 48.1569 44.6504C47.9176 44.5327 47.8785 44.3766 48.0397 44.1816C49.4068 43.3273 49.8364 42.1555 49.3288 40.666Z" fill="white"/>
<path fill-rule="evenodd" clip-rule="evenodd" d="M70.1992 40.8965C70.0077 42.3107 70.5156 43.4043 71.7227 44.1777C71.8839 44.3727 71.8448 44.5288 71.6055 44.6465C68.7032 46.8777 65.422 48.2059 61.7617 48.6309C62.1109 47.0261 61.6422 45.7762 60.3555 44.8809C64.0975 44.65 67.3787 43.322 70.1992 40.8965Z" fill="white"/>
<path opacity="0.93" fill-rule="evenodd" clip-rule="evenodd" d="M36.682 59.8863C37.9263 59.6672 38.7466 60.136 39.143 61.2926C39.221 68.2458 39.2993 75.1988 39.3773 82.152C40.1923 80.869 41.1689 79.7363 42.307 78.7535C43.7899 78.5187 44.6491 79.1435 44.8851 80.6285C44.7696 81.2892 44.4961 81.8752 44.0648 82.3863C42.2573 84.7903 40.4212 87.1732 38.557 89.5348C37.2576 90.1866 36.203 89.9131 35.393 88.7145C33.8426 86.4607 32.2019 84.2731 30.4711 82.152C29.6665 81.0661 29.7054 80.0114 30.5883 78.9879C31.5274 78.4802 32.3869 78.5974 33.1664 79.3395C33.9539 80.3222 34.6962 81.3377 35.393 82.3863C35.471 75.277 35.5493 68.1675 35.6273 61.0582C35.8676 60.5456 36.2191 60.1549 36.682 59.8863Z" fill="white"/>
<path opacity="0.929" fill-rule="evenodd" clip-rule="evenodd" d="M81.6784 59.8806C82.6869 59.7156 83.5072 60.0283 84.1393 60.8181C84.2174 68.0057 84.2957 75.1931 84.3737 82.3806C85.2418 80.9878 86.2965 79.7767 87.5378 78.7478C89.0089 78.4996 89.7901 79.1245 89.8815 80.6228C89.9087 81.2191 89.7135 81.727 89.2956 82.1463C87.3927 84.7525 85.4005 87.2917 83.319 89.7635C82.2369 90.0674 81.3385 89.7939 80.6237 88.9431C79.0733 86.6894 77.4327 84.5017 75.7018 82.3806C74.6816 81.3103 74.6427 80.2164 75.5846 79.0994C76.6982 78.3923 77.6746 78.5486 78.5143 79.5681C79.082 80.4691 79.7071 81.3283 80.3893 82.1463C80.4674 75.1931 80.5457 68.2401 80.6237 61.2869C80.7641 60.6414 81.1157 60.1727 81.6784 59.8806Z" fill="white"/>
<path fill-rule="evenodd" clip-rule="evenodd" d="M57.7695 59.6465C59.1758 59.6465 60.582 59.6465 61.9883 59.6465C61.9883 61.0527 61.9883 62.459 61.9883 63.8652C60.582 63.8652 59.1758 63.8652 57.7695 63.8652C57.7695 62.459 57.7695 61.0527 57.7695 59.6465Z" fill="white"/>
<path fill-rule="evenodd" clip-rule="evenodd" d="M58.0117 59.8848C59.2616 59.8848 60.5118 59.8848 61.7617 59.8848C61.7617 61.1347 61.7617 62.3848 61.7617 63.6348C60.5118 63.6348 59.2616 63.6348 58.0117 63.6348C58.0117 62.3848 58.0117 61.1347 58.0117 59.8848Z" fill="white"/>
<path fill-rule="evenodd" clip-rule="evenodd" d="M56.1382 68.791C56.1382 73.3222 56.1382 77.8536 56.1382 82.3848C57.3882 82.3848 58.6383 82.3848 59.8882 82.3848C61.1382 82.3848 62.3883 82.3848 63.6382 82.3848C63.6382 77.8536 63.6382 73.3222 63.6382 68.791C63.8719 73.3597 63.95 77.9691 63.8726 82.6191C61.2164 82.6191 58.56 82.6191 55.9039 82.6191C55.8265 77.9691 55.9046 73.3597 56.1382 68.791Z" fill="white"/>
<path opacity="0.927" fill-rule="evenodd" clip-rule="evenodd" d="M14.1794 88.0118C14.5776 87.9743 14.9682 88.0132 15.3512 88.129C39.4689 102.822 64.7033 105.087 91.0543 94.9259C95.6755 92.967 100.129 90.7013 104.414 88.129C106.772 88.1703 107.397 89.2641 106.289 91.4103C79.6389 107.414 52.0607 109.211 23.5544 96.8009C20.0832 95.183 16.7239 93.3861 13.4762 91.4103C12.6756 90.023 12.91 88.89 14.1794 88.0118Z" fill="white" stroke="white"/>
<path opacity="0.933" fill-rule="evenodd" clip-rule="evenodd" d="M14.4191 103.01C39.9887 109.411 65.7699 110.388 91.7628 105.939C96.2169 105.142 100.631 104.166 105.005 103.01C106.773 103.501 107.241 104.595 106.411 106.291C98.7198 108.609 90.8682 110.21 82.8566 111.096C59.8573 113.874 37.123 112.468 14.6534 106.877C13.1385 106.465 12.6307 105.489 13.13 103.947C13.4815 103.486 13.9112 103.173 14.4191 103.01Z" fill="white" stroke="white"/>
<path opacity="0.997" fill-rule="evenodd" clip-rule="evenodd" d="M105.823 119.881C75.1983 119.881 44.5734 119.881 13.9483 119.881C12.964 119.056 12.7687 118.041 13.3624 116.834C13.5383 116.687 13.7336 116.57 13.9483 116.482C44.5734 116.326 75.1983 116.326 105.823 116.482C106.495 116.809 106.807 117.356 106.761 118.123C106.777 118.912 106.465 119.498 105.823 119.881Z" fill="white" stroke="white"/>
</g>
<defs>
<clipPath id="clip0_490_1548">
<rect width="120" height="120" fill="white"/>
</clipPath>
</defs>
</svg>
