<svg width="120" height="121" viewBox="0 0 120 121" fill="none" xmlns="http://www.w3.org/2000/svg">
<path d="M55.7475 76.4L48.6475 69.35L55.7475 62.25L62.7975 69.35L69.8475 62.25L62.7975 55.2L69.8475 48.15L76.9475 55.2L83.9975 48.15L69.8475 34L34.4975 69.35L48.6475 83.5L55.7475 76.4ZM15.3975 95.5L30.9975 79.95L20.3975 69.35L69.8475 19.85L80.4975 30.5L87.4975 23.4L80.4975 16.3L87.4975 9.25L108.747 30.5L101.697 37.5L94.5975 30.5L87.4975 37.5L98.1475 48.15L48.6475 97.6L38.0475 87L15.3975 109.7V95.5Z" fill="white"/>
</svg>
