<svg width="120" height="120" viewBox="0 0 120 120" fill="none" xmlns="http://www.w3.org/2000/svg">
<g clip-path="url(#clip0_490_1502)">
<path opacity="0.945" fill-rule="evenodd" clip-rule="evenodd" d="M119.883 115.43C119.883 116.68 119.883 117.93 119.883 119.18C115.195 119.18 110.508 119.18 105.82 119.18C105.82 117.93 105.82 116.68 105.82 115.43C108.164 115.43 110.508 115.43 112.852 115.43C112.852 114.336 112.852 113.242 112.852 112.148C77.539 112.148 42.2266 112.148 6.91406 112.148C6.91406 113.242 6.91406 114.336 6.91406 115.43C36.3673 115.43 65.8202 115.43 95.2734 115.43C95.2734 116.68 95.2734 117.93 95.2734 119.18C63.4765 119.18 31.6798 119.18 -0.117188 119.18C-0.117188 117.93 -0.117188 116.68 -0.117188 115.43C1.05469 115.43 2.22656 115.43 3.39844 115.43C3.39844 113.086 3.39844 110.742 3.39844 108.398C4.57031 108.398 5.74219 108.398 6.91406 108.398C6.91406 86.6016 6.91406 64.8047 6.91406 43.0078C8.08594 43.0078 9.25781 43.0078 10.4297 43.0078C10.4297 64.8047 10.4297 86.6016 10.4297 108.398C15.7422 108.398 21.0547 108.398 26.3672 108.398C26.3672 104.336 26.3672 100.273 26.3672 96.2109C20.4274 95.1539 16.9509 91.6383 15.9375 85.6641C15.8204 83.3217 15.7813 80.978 15.8203 78.6328C19.8455 78.2426 23.322 79.4145 26.25 82.1484C26.3672 80.4314 26.4061 78.7127 26.3672 76.9922C20.4917 75.8777 17.0151 72.3621 15.9375 66.4453C15.8204 64.103 15.7813 61.7592 15.8203 59.4141C22.7585 59.0318 27.4069 62.0787 29.7656 68.5547C32.7436 65.4912 36.3764 64.1632 40.6641 64.5703C40.703 66.9155 40.6641 69.2592 40.5469 71.6016C39.5334 77.5758 36.057 81.0914 30.1172 82.1484C30.0783 83.869 30.1172 85.5877 30.2344 87.3047C33.1934 84.6647 36.6698 83.4928 40.6641 83.7891C40.703 86.1342 40.6641 88.478 40.5469 90.8203C39.5088 96.7022 36.0713 100.296 30.2344 101.602C30.1172 103.866 30.0783 106.132 30.1172 108.398C39.4141 108.398 48.7109 108.398 58.0078 108.398C58.0078 104.336 58.0078 100.273 58.0078 96.2109C52.068 95.1539 48.5916 91.6383 47.5781 85.6641C47.4609 83.3217 47.422 80.978 47.4609 78.6328C51.4861 78.2426 54.9626 79.4145 57.8906 82.1484C58.0078 80.4314 58.0467 78.7127 58.0078 76.9922C52.1323 75.8777 48.6558 72.3621 47.5781 66.4453C47.4609 64.103 47.422 61.7592 47.4609 59.4141C54.3991 59.0318 59.0475 62.0787 61.4062 68.5547C64.3842 65.4912 68.017 64.1632 72.3047 64.5703C72.3436 66.9155 72.3047 69.2592 72.1875 71.6016C71.1741 77.5758 67.6976 81.0914 61.7578 82.1484C61.7189 83.869 61.7578 85.5877 61.875 87.3047C64.834 84.6647 68.3105 83.4928 72.3047 83.7891C72.3436 86.1342 72.3047 88.478 72.1875 90.8203C71.1495 96.7022 67.7119 100.296 61.875 101.602C61.7578 103.866 61.7189 106.132 61.7578 108.398C71.0548 108.398 80.3515 108.398 89.6484 108.398C89.6484 104.336 89.6484 100.273 89.6484 96.2109C83.7087 95.1539 80.2322 91.6383 79.2188 85.6641C79.1016 83.3217 79.0627 80.978 79.1016 78.6328C83.1267 78.2426 86.6032 79.4145 89.5312 82.1484C89.6484 80.4314 89.6873 78.7127 89.6484 76.9922C83.7729 75.8777 80.2964 72.3621 79.2188 66.4453C79.1016 64.103 79.0627 61.7592 79.1016 59.4141C86.0398 59.0318 90.6881 62.0787 93.0469 68.5547C96.0248 65.4912 99.6577 64.1632 103.945 64.5703C103.984 66.9155 103.945 69.2592 103.828 71.6016C102.815 77.5758 99.3382 81.0914 93.3984 82.1484C93.3595 83.869 93.3984 85.5877 93.5156 87.3047C96.4746 84.6647 99.9511 83.4928 103.945 83.7891C103.984 86.1342 103.945 88.478 103.828 90.8203C102.79 96.7022 99.3525 100.296 93.5156 101.602C93.3984 103.866 93.3595 106.132 93.3984 108.398C98.711 108.398 104.023 108.398 109.336 108.398C109.336 83.164 109.336 57.9298 109.336 32.6953C93.4765 32.6953 77.6173 32.6953 61.7578 32.6953C61.7578 33.7891 61.7578 34.8827 61.7578 35.9766C72.3047 35.9766 82.8516 35.9766 93.3984 35.9766C93.3984 38.3203 93.3984 40.6641 93.3984 43.0078C95.5849 43.1048 97.1866 44.1204 98.2031 46.0547C98.5385 48.6145 98.6557 51.1927 98.5547 53.7891C93.8672 53.7891 89.1797 53.7891 84.4922 53.7891C84.3912 51.1927 84.5084 48.6145 84.8438 46.0547C85.863 44.1195 87.4645 43.1037 89.6484 43.0078C89.6484 41.914 89.6484 40.8204 89.6484 39.7266C80.3515 39.7266 71.0548 39.7266 61.7578 39.7266C61.7578 40.8204 61.7578 41.914 61.7578 43.0078C63.9443 43.1048 65.546 44.1204 66.5625 46.0547C66.8979 48.6145 67.0151 51.1927 66.9141 53.7891C62.2266 53.7891 57.5391 53.7891 52.8516 53.7891C52.7505 51.1927 52.8677 48.6145 53.2031 46.0547C54.2224 44.1195 55.8239 43.1037 58.0078 43.0078C58.0078 41.914 58.0078 40.8204 58.0078 39.7266C48.7109 39.7266 39.4141 39.7266 30.1172 39.7266C30.1172 40.8204 30.1172 41.914 30.1172 43.0078C32.3037 43.1048 33.9054 44.1204 34.9219 46.0547C35.2573 48.6145 35.3745 51.1927 35.2734 53.7891C30.5859 53.7891 25.8984 53.7891 21.2109 53.7891C21.1099 51.1927 21.2271 48.6145 21.5625 46.0547C22.5818 44.1195 24.1833 43.1037 26.3672 43.0078C26.3672 40.6641 26.3672 38.3203 26.3672 35.9766C36.9141 35.9766 47.4609 35.9766 58.0078 35.9766C58.0078 34.8827 58.0078 33.7891 58.0078 32.6953C42.1484 32.6953 26.2891 32.6953 10.4297 32.6953C10.4297 35.0391 10.4297 37.3828 10.4297 39.7266C9.25781 39.7266 8.08594 39.7266 6.91406 39.7266C6.83611 36.2855 6.91423 32.8481 7.14844 29.4141C24.6977 19.7412 42.2759 10.1318 59.8828 0.585938C77.4898 10.1318 95.0679 19.7412 112.617 29.4141C112.852 55.7416 112.93 82.0699 112.852 108.398C114.023 108.398 115.195 108.398 116.367 108.398C116.367 110.742 116.367 113.086 116.367 115.43C117.539 115.43 118.711 115.43 119.883 115.43ZM57.5391 5.97656C58.0062 13.5507 58.1625 21.2069 58.0078 28.9453C44.0231 28.9845 30.0389 28.9453 16.0547 28.8281C29.9726 21.3233 43.8007 13.7062 57.5391 5.97656ZM61.7578 5.97656C75.7296 13.588 89.7138 21.2051 103.711 28.8281C89.7267 28.9453 75.7425 28.9845 61.7578 28.9453C61.7578 21.2891 61.7578 13.6328 61.7578 5.97656ZM25.8984 46.7578C27.6438 46.6573 29.3627 46.7745 31.0547 47.1094C31.6233 48.0002 31.8577 48.9769 31.7578 50.0391C29.4141 50.0391 27.0703 50.0391 24.7266 50.0391C24.57 48.7095 24.9605 47.6156 25.8984 46.7578ZM57.5391 46.7578C59.2845 46.6573 61.0034 46.7745 62.6953 47.1094C63.2639 48.0002 63.4983 48.9769 63.3984 50.0391C61.0547 50.0391 58.7109 50.0391 56.3672 50.0391C56.2106 48.7095 56.6011 47.6156 57.5391 46.7578ZM89.1797 46.7578C90.9251 46.6573 92.644 46.7745 94.3359 47.1094C94.9045 48.0002 95.1389 48.9769 95.0391 50.0391C92.6953 50.0391 90.3516 50.0391 88.0078 50.0391C87.8512 48.7095 88.2417 47.6156 89.1797 46.7578ZM19.5703 63.3984C24.4493 64.8731 26.6367 68.1544 26.1328 73.2422C21.4871 71.6088 19.2997 68.3276 19.5703 63.3984ZM51.2109 63.3984C56.0899 64.8731 58.2773 68.1544 57.7734 73.2422C53.1277 71.6088 50.9402 68.3276 51.2109 63.3984ZM82.8516 63.3984C87.7305 64.8731 89.918 68.1544 89.4141 73.2422C84.7683 71.6088 82.5809 68.3276 82.8516 63.3984ZM36.4453 68.5547C37.2949 72.4317 35.967 75.4395 32.4609 77.5781C31.6978 77.9236 30.9166 78.1969 30.1172 78.3984C29.8725 73.5698 31.9819 70.2886 36.4453 68.5547ZM68.0859 68.5547C68.9355 72.4317 67.6076 75.4395 64.1016 77.5781C63.3384 77.9236 62.5573 78.1969 61.7578 78.3984C61.5131 73.5698 63.6225 70.2886 68.0859 68.5547ZM99.7266 68.5547C100.576 72.4317 99.2482 75.4395 95.7422 77.5781C94.9791 77.9236 94.1979 78.1969 93.3984 78.3984C93.1537 73.5698 95.2631 70.2886 99.7266 68.5547ZM19.5703 82.6172C24.457 84.1113 26.6445 87.3926 26.1328 92.4609C21.4945 90.8466 19.307 87.5653 19.5703 82.6172ZM51.2109 82.6172C56.0977 84.1113 58.2851 87.3926 57.7734 92.4609C53.1352 90.8466 50.9477 87.5653 51.2109 82.6172ZM82.8516 82.6172C87.7383 84.1113 89.9257 87.3926 89.4141 92.4609C84.7758 90.8466 82.5884 87.5653 82.8516 82.6172ZM36.6797 87.7734C37.2384 91.4421 35.9885 94.3718 32.9297 96.5625C32.0618 97.1142 31.1243 97.4658 30.1172 97.6172C29.973 92.7417 32.1605 89.4605 36.6797 87.7734ZM68.3203 87.7734C68.8791 91.4421 67.6291 94.3718 64.5703 96.5625C63.7024 97.1142 62.7649 97.4658 61.7578 97.6172C61.6137 92.7417 63.8011 89.4605 68.3203 87.7734ZM99.9609 87.7734C100.52 91.4421 99.2698 94.3718 96.2109 96.5625C95.343 97.1142 94.4055 97.4658 93.3984 97.6172C93.2543 92.7417 95.4417 89.4605 99.9609 87.7734Z" fill="white"/>
<path opacity="0.938" fill-rule="evenodd" clip-rule="evenodd" d="M102.305 35.9766C103.477 35.9766 104.648 35.9766 105.82 35.9766C105.82 37.2265 105.82 38.4766 105.82 39.7266C104.648 39.7266 103.477 39.7266 102.305 39.7266C102.305 38.4766 102.305 37.2265 102.305 35.9766Z" fill="white"/>
<path opacity="0.938" fill-rule="evenodd" clip-rule="evenodd" d="M102.305 43.0078C103.477 43.0078 104.648 43.0078 105.82 43.0078C105.82 44.2577 105.82 45.5079 105.82 46.7578C104.648 46.7578 103.477 46.7578 102.305 46.7578C102.305 45.5079 102.305 44.2577 102.305 43.0078Z" fill="white"/>
<path opacity="0.938" fill-rule="evenodd" clip-rule="evenodd" d="M98.7891 115.43C99.9609 115.43 101.133 115.43 102.305 115.43C102.305 116.68 102.305 117.93 102.305 119.18C101.133 119.18 99.9609 119.18 98.7891 119.18C98.7891 117.93 98.7891 116.68 98.7891 115.43Z" fill="white"/>
</g>
<defs>
<clipPath id="clip0_490_1502">
<rect width="120" height="120" fill="white"/>
</clipPath>
</defs>
</svg>
