<svg width="120" height="120" viewBox="0 0 120 120" fill="none" xmlns="http://www.w3.org/2000/svg">
<path opacity="0.979" fill-rule="evenodd" clip-rule="evenodd" d="M55.4715 12C58.1963 12 60.9209 12 63.6457 12C81.6923 14.2279 94.7895 23.4548 102.937 39.6806C105.155 44.7495 106.548 50.0132 107.117 55.4715C107.117 58.1963 107.117 60.9209 107.117 63.6457C105.057 80.6843 96.5729 93.4099 81.6659 101.823C75.9658 104.704 69.9591 106.469 63.6457 107.117C60.9209 107.117 58.1963 107.117 55.4715 107.117C38.7394 105.148 26.1377 96.9122 17.6662 82.409C14.5884 76.4906 12.6996 70.2361 12 63.6457C12 60.9209 12 58.1963 12 55.4715C14.0604 38.4329 22.5442 25.7074 37.4513 17.2946C43.1514 14.4133 49.1581 12.6485 55.4715 12ZM53.9853 20.3599C54.4808 20.3599 54.9761 20.3599 55.4715 20.3599C55.4715 22.8989 55.4715 25.4378 55.4715 27.9767C58.1963 27.9767 60.9209 27.9767 63.6457 27.9767C63.6457 25.4378 63.6457 22.8989 63.6457 20.3599C74.9163 21.6278 84.0193 26.7056 90.9547 35.5935C70.0239 35.8412 49.0933 35.8412 28.1625 35.5935C34.8082 27.2225 43.4158 22.1447 53.9853 20.3599ZM23.3323 43.7677C47.4832 43.7366 71.634 43.7677 95.7849 43.8605C97.4589 47.553 98.4496 51.4233 98.7573 55.4715C72.6248 55.4715 46.4924 55.4715 20.3599 55.4715C20.6822 51.3958 21.673 47.4945 23.3323 43.7677ZM20.3599 63.6457C46.4924 63.6457 72.6248 63.6457 98.7573 63.6457C98.4496 67.6939 97.4589 71.5642 95.7849 75.2566C71.634 75.3806 47.4832 75.3806 23.3323 75.2566C21.6584 71.5642 20.6676 67.6939 20.3599 63.6457ZM28.1625 83.3379C49.0937 83.276 70.0243 83.3379 90.9547 83.5237C84.0193 92.4116 74.9163 97.4894 63.6457 98.7573C63.6457 96.2183 63.6457 93.6795 63.6457 91.1405C60.9209 91.1405 58.1963 91.1405 55.4715 91.1405C55.4715 93.6795 55.4715 96.2183 55.4715 98.7573C44.1067 97.5055 35.0037 92.3657 28.1625 83.3379Z" fill="white"/>
</svg>
