<svg width="120" height="120" viewBox="0 0 120 120" fill="none" xmlns="http://www.w3.org/2000/svg">
<g clip-path="url(#clip0_490_1560)">
<path d="M66.35 116H54.6875L52.8875 115.625C44.2081 114.369 35.9817 110.958 28.9595 105.704C21.9373 100.451 16.343 93.5217 12.6875 85.55C10.3859 80.4442 8.80814 75.042 8 69.5V57.6875C8 56.9375 8.3375 56.1875 8.4875 55.4C9.85347 46.6038 13.4336 38.2994 18.8914 31.2672C24.3492 24.235 31.5054 18.7061 39.6875 15.2C44.5031 13.2098 49.5386 11.7999 54.6875 11H60.5188H66.35L68.375 11.45C76.1141 12.6159 83.4946 15.4973 89.9764 19.8835C96.4583 24.2696 101.877 30.0494 105.838 36.8C109.568 43.1868 112.002 50.2465 113 57.575V69.2375L112.55 71.525C111.241 80.0304 107.861 88.0837 102.709 94.976C97.5558 101.868 90.7876 107.388 83 111.05C77.7195 113.499 72.1107 115.166 66.35 116ZM10.8875 63.5C10.8805 73.3421 13.7989 82.9642 19.2718 91.1443C24.7448 99.3244 32.5254 105.693 41.6256 109.442C50.7257 113.191 60.7347 114.151 70.3814 112.199C80.0282 110.248 88.8773 105.474 95.8049 98.4827C102.733 91.4916 107.426 82.5993 109.29 72.9353C111.153 63.2712 110.102 53.2713 106.27 44.2057C102.439 35.1401 95.9991 27.4178 87.7695 22.0196C79.5399 16.6214 69.8916 13.7909 60.05 13.8875C46.9481 13.957 34.41 19.2258 25.1912 28.5359C15.9725 37.846 10.8277 50.4356 10.8875 63.5375V63.5Z" fill="white" stroke="white" stroke-width="5"/>
<path d="M35.3234 60.5211C35.7707 50.4246 40.0011 40.8662 47.1734 33.7461C50.5091 30.1226 54.289 26.9349 58.4234 24.2586C58.9069 23.7711 59.543 23.4642 60.2254 23.3891C60.9079 23.314 61.5955 23.4753 62.1734 23.8461C72.8234 31.1211 81.4859 40.0836 84.6734 53.0211C86.3054 58.6792 86.0746 64.7121 84.0151 70.229C81.9555 75.7458 78.1765 80.4541 73.2359 83.6586C70.6772 85.5675 67.8781 87.131 64.9109 88.3086C64.0163 88.5555 63.245 89.1255 62.7463 89.9082C62.2475 90.691 62.0568 91.6308 62.2109 92.5461C62.2109 94.5711 62.2109 96.5961 62.2109 98.6211C62.2109 99.7836 61.9109 100.946 60.5234 100.984C59.1359 101.021 58.7984 99.8586 58.7984 98.6961C58.7984 96.5211 58.7984 94.3086 58.7984 92.1336C58.9135 91.3247 58.7346 90.5014 58.2942 89.8133C57.8538 89.1251 57.1811 88.6178 56.3984 88.3836C49.6369 85.7057 43.8 81.1195 39.5984 75.1836C36.7327 70.8365 35.243 65.7271 35.3234 60.5211ZM62.2109 51.1086C63.7109 49.8336 64.6109 49.0086 65.5484 48.1836C66.4859 47.3586 67.4984 46.9461 68.4359 48.1836C69.3734 49.4211 68.6609 50.0961 67.8359 50.8086C66.4859 52.0836 65.0609 53.3211 63.6734 54.5586C63.2324 54.8745 62.8731 55.2911 62.6253 55.7737C62.3774 56.2563 62.2482 56.791 62.2484 57.3336C62.2484 62.0211 62.2484 66.6711 62.2484 71.3211C62.2484 71.8461 62.0609 72.5586 62.7359 72.7461C63.4109 72.9336 63.7109 72.3711 64.0859 71.9961L69.8609 66.8961C70.7234 66.1461 71.7359 65.4336 72.7484 66.4836C73.7609 67.5336 72.9359 68.6211 72.0359 69.4086C70.3092 71.1943 68.4406 72.8372 66.4484 74.3211C64.7943 75.3493 63.4967 76.8618 62.7318 78.6531C61.967 80.4444 61.7721 82.4276 62.1734 84.3336C62.3609 85.9086 62.8484 86.2461 64.1984 85.5711C66.8165 84.3495 69.3257 82.9068 71.6984 81.2586C76.0011 78.4141 79.2729 74.2592 81.029 69.4095C82.7852 64.5598 82.9322 59.2734 81.4484 54.3336C78.5234 43.0836 70.7984 35.0586 61.7609 28.0836C61.3874 27.741 60.899 27.5509 60.3922 27.5509C59.8853 27.5509 59.3969 27.741 59.0234 28.0836C51.2057 33.3138 45.0401 40.6632 41.2484 49.2711C34.6109 65.9211 41.2484 78.3336 56.9984 85.4961C57.5609 85.7211 58.1609 86.0586 58.6484 85.3086C59.2141 82.4536 58.749 79.4905 57.3359 76.9461C54.8609 74.6961 52.3109 72.5211 49.8359 70.2711C48.7859 69.2961 46.6484 68.2836 48.1109 66.5211C49.5734 64.7586 50.8484 66.9336 51.8609 67.8336C54.0734 69.6336 56.1359 71.5836 58.6484 73.7586V56.7711C58.6484 55.7961 57.9359 55.2336 57.2984 54.6711C55.7984 53.3211 54.2609 52.0086 52.7984 50.6211C52.0859 49.9461 51.5984 49.0461 52.3859 48.1461C53.1734 47.2461 54.0734 47.5086 54.8984 48.1461C55.7234 48.7836 56.1734 49.2711 56.8484 49.7961C57.5234 50.3211 57.7109 50.9211 58.4234 50.4711C59.1359 50.0211 58.6859 49.4586 58.6859 48.9336C58.6859 46.1586 58.6859 43.3461 58.6859 40.5336C58.6859 39.4461 59.2109 38.4711 60.4484 38.5086C61.6859 38.5461 61.9859 39.4461 62.0609 40.4586C62.1359 41.4711 62.0609 42.0336 62.0609 42.8211L62.2109 51.1086Z" fill="white" stroke="white" stroke-width="3"/>
<path fill-rule="evenodd" clip-rule="evenodd" d="M95.5269 42.0055C95.66 41.9903 95.7903 42.0065 95.9156 42.0541C97.3248 43.4143 98.1665 45.0665 98.4425 47.0107C98.3511 48.8159 97.3958 49.7391 95.5755 49.7805C93.9106 49.6057 93.0515 48.6824 93 47.0107C93.2877 45.0578 94.1303 43.3894 95.5269 42.0055Z" fill="white"/>
<path fill-rule="evenodd" clip-rule="evenodd" d="M95.5269 54.0055C95.66 53.9903 95.7903 54.0065 95.9156 54.0541C97.3248 55.4143 98.1665 57.0665 98.4425 59.0107C98.3511 60.8159 97.3958 61.7391 95.5755 61.7805C93.9106 61.6057 93.0515 60.6824 93 59.0107C93.2877 57.0578 94.1303 55.3894 95.5269 54.0055Z" fill="white"/>
<path fill-rule="evenodd" clip-rule="evenodd" d="M95.5269 67.0055C95.66 66.9903 95.7903 67.0065 95.9156 67.0541C97.3248 68.4143 98.1665 70.0665 98.4425 72.0107C98.3511 73.8159 97.3958 74.7391 95.5755 74.7805C93.9106 74.6057 93.0515 73.6824 93 72.0107C93.2877 70.0578 94.1303 68.3894 95.5269 67.0055Z" fill="white"/>
<path fill-rule="evenodd" clip-rule="evenodd" d="M26.5269 42.0055C26.66 41.9903 26.7903 42.0065 26.9156 42.0541C28.3248 43.4143 29.1665 45.0665 29.4425 47.0107C29.3511 48.8159 28.3958 49.7391 26.5755 49.7805C24.9106 49.6057 24.0515 48.6824 24 47.0107C24.2877 45.0578 25.1303 43.3894 26.5269 42.0055Z" fill="white"/>
<path fill-rule="evenodd" clip-rule="evenodd" d="M28.5269 27.0055C28.66 26.9903 28.7903 27.0065 28.9156 27.0541C30.3248 28.4143 31.1665 30.0665 31.4425 32.0107C31.3511 33.8159 30.3958 34.7391 28.5755 34.7805C26.9106 34.6057 26.0515 33.6824 26 32.0107C26.2877 30.0578 27.1303 28.3894 28.5269 27.0055Z" fill="white"/>
<path fill-rule="evenodd" clip-rule="evenodd" d="M93.5269 27.0055C93.66 26.9903 93.7903 27.0065 93.9156 27.0541C95.3248 28.4143 96.1665 30.0665 96.4425 32.0107C96.3511 33.8159 95.3958 34.7391 93.5755 34.7805C91.9106 34.6057 91.0515 33.6824 91 32.0107C91.2877 30.0578 92.1303 28.3894 93.5269 27.0055Z" fill="white"/>
<path fill-rule="evenodd" clip-rule="evenodd" d="M26.5269 56.0055C26.66 55.9903 26.7903 56.0065 26.9156 56.0541C28.3248 57.4143 29.1665 59.0665 29.4425 61.0107C29.3511 62.8159 28.3958 63.7391 26.5755 63.7805C24.9106 63.6057 24.0515 62.6824 24 61.0107C24.2877 59.0578 25.1303 57.3894 26.5269 56.0055Z" fill="white"/>
<path fill-rule="evenodd" clip-rule="evenodd" d="M26.5269 71.0055C26.66 70.9903 26.7903 71.0065 26.9156 71.0541C28.3248 72.4143 29.1665 74.0665 29.4425 76.0107C29.3511 77.8159 28.3958 78.7391 26.5755 78.7805C24.9106 78.6057 24.0515 77.6824 24 76.0107C24.2877 74.0578 25.1303 72.3894 26.5269 71.0055Z" fill="white"/>
</g>
<defs>
<clipPath id="clip0_490_1560">
<rect width="120" height="120" fill="white"/>
</clipPath>
</defs>
</svg>
