<svg width="120" height="120" viewBox="0 0 120 120" fill="none" xmlns="http://www.w3.org/2000/svg">
<g clip-path="url(#clip0_490_1499)">
<path d="M52.3514 52.9333C51.2528 50.8425 50.3669 48.9642 49.5518 47.0151C47.2277 41.6569 46.0218 35.8806 46.0079 30.0401C46.0242 27.0839 46.5271 24.1505 47.4964 21.3577C48.2981 18.9971 49.746 16.9087 51.6756 15.3301C53.6051 13.7514 55.9388 12.7456 58.4114 12.4272C66.0834 11.1174 73.9639 12.846 80.3832 17.2468C83.8834 19.3728 86.9204 22.1808 89.3137 25.504C89.8448 26.129 90.2009 26.8835 90.3456 27.6909C90.4904 28.4982 90.4187 29.3294 90.1378 30.1C89.857 30.8706 89.3769 31.5531 88.7466 32.0779C88.1163 32.6027 87.3582 32.9512 86.5495 33.0878L81.092 34.399C77.3632 35.3765 74.1607 37.7656 72.1615 41.0615C70.2206 44.1515 68.5942 47.4282 67.3064 50.8424C67.0776 51.2393 66.9784 51.6977 67.0229 52.1537C68.9012 51.1614 70.7794 50.2754 72.6931 49.4958C78.193 47.1075 84.1329 45.9002 90.1288 45.952C93.0583 46.0137 95.957 46.5647 98.7049 47.5821C101.197 48.5298 103.354 50.1923 104.905 52.361C106.456 54.5298 107.332 57.1082 107.423 59.7729C107.925 64.3691 107.415 69.0196 105.927 73.3972C104.439 77.7749 102.01 81.7734 98.8112 85.1114C97.4555 86.7148 95.8946 88.1327 94.1688 89.3286C93.5386 89.8424 92.7845 90.1817 91.982 90.3125C91.1796 90.4433 90.3568 90.3611 89.5961 90.074C88.8354 89.7869 88.1634 89.3051 87.6474 88.6767C87.1314 88.0484 86.7894 87.2955 86.6558 86.4935C86.1242 84.4026 85.6635 82.2763 85.0257 80.1855C84.0608 76.9957 82.0031 74.2479 79.2137 72.4244C75.8829 70.2457 72.3164 68.4506 68.5822 67.0732C68.202 66.9254 67.8111 66.8069 67.4128 66.7189C68.1215 68.1718 68.7949 69.4831 69.3619 70.7943C72.2296 76.7622 73.6847 83.3102 73.6145 89.931C73.6352 93.5218 72.8096 97.0669 71.2047 100.279C70.0927 102.299 68.4909 104.006 66.5464 105.245C64.6019 106.483 62.3773 107.213 60.077 107.367C52.1873 108.296 44.2426 106.151 37.8926 101.378C34.9837 99.3719 32.4321 96.8922 30.3442 94.0419C29.8317 93.4212 29.4894 92.678 29.3508 91.8851C29.2122 91.0923 29.2822 90.277 29.5538 89.5193C29.8254 88.7616 30.2894 88.0876 30.9001 87.5633C31.5109 87.0391 32.2474 86.6826 33.0375 86.5289C35.022 86.0328 37.042 85.6075 39.0266 85.0405C42.2535 84.1963 45.0704 82.222 46.9648 79.4767C49.2702 76.1116 51.1397 72.4678 52.5286 68.6325C52.5286 68.349 52.9893 67.9592 52.5286 67.6757C52.0679 67.3922 51.9616 67.6757 51.6781 67.9238C46.6557 70.5665 41.2316 72.3625 35.6245 73.2395C31.3445 73.8759 26.9797 73.6348 22.7958 72.5308C20.1241 71.9191 17.701 70.5108 15.8469 68.4922C13.9929 66.4737 12.7952 63.9399 12.4123 61.2259C11.1249 53.5335 12.8786 45.6418 17.3028 39.2186C19.4582 35.7519 22.2474 32.7222 25.5245 30.2882C26.1519 29.7566 26.9092 29.4012 27.719 29.2583C28.5288 29.1154 29.362 29.1902 30.1334 29.475C30.9048 29.7597 31.5868 30.2443 32.1095 30.8791C32.6322 31.5139 32.9769 32.2761 33.1084 33.0878C33.4982 34.6471 33.888 36.1709 34.2424 37.7302C34.6865 39.844 35.573 41.8399 36.8434 43.5867C38.1138 45.3336 39.7395 46.7918 41.6136 47.8656C44.5093 49.6118 47.5436 51.1171 50.6858 52.3663L52.3514 52.9333ZM56.2851 103.362C57.5785 103.345 58.8692 103.239 60.1479 103.043C61.9068 102.897 63.5878 102.253 64.9937 101.186C66.3997 100.119 67.4724 98.6736 68.0861 97.0187C68.8468 94.9367 69.2772 92.7485 69.3619 90.5335C69.5168 83.3592 67.7813 76.2705 64.3296 69.9792C64.2897 69.8283 64.2159 69.6885 64.1139 69.5704C64.0119 69.4522 63.8844 69.3589 63.7409 69.2974C63.5975 69.2359 63.4419 69.2079 63.286 69.2155C63.1301 69.2231 62.978 69.2662 62.8412 69.3413C61.2321 69.9534 59.4705 70.0402 57.8089 69.5894C56.9584 69.3413 56.6749 69.5894 56.3914 70.4045C55.2543 73.3344 53.9041 76.1771 52.3514 78.9097C50.935 81.671 48.8993 84.0674 46.4034 85.9117C43.9075 87.756 41.0189 88.9982 37.9634 89.5412C36.9003 89.7538 35.8371 90.0373 34.774 90.3208C33.7108 90.6044 33.321 90.8879 34.207 91.9865C36.838 95.3745 40.1766 98.1476 43.9898 100.112C47.803 102.077 51.9991 103.186 56.2851 103.362ZM50.3314 30.7134C50.5358 37.3328 52.2832 43.8129 55.4346 49.6375C55.4736 49.7803 55.5451 49.912 55.6436 50.0224C55.7421 50.1328 55.8649 50.2189 56.0022 50.2738C56.1396 50.3288 56.2878 50.3511 56.4353 50.3391C56.5828 50.3271 56.7254 50.281 56.8521 50.2046C58.4651 49.6111 60.2208 49.5245 61.8844 49.9565C62.7349 50.2046 63.0538 49.9565 63.3373 49.1768C64.7974 45.1994 66.7372 41.415 69.1138 37.9074C71.6489 34.124 75.5023 31.4203 79.9225 30.3236L84.813 29.1187C86.3369 28.7289 86.4077 28.5871 85.4155 27.2759C84.0539 25.5188 82.4695 23.9463 80.7022 22.598C77.7775 20.1578 74.3756 18.3552 70.7141 17.3056C67.0527 16.256 63.2124 15.9825 59.4391 16.5026C57.4246 16.6737 55.5191 17.4904 54.0059 18.8312C52.4927 20.1721 51.4526 21.9654 51.0402 23.9447C50.5053 26.1596 50.2669 28.4358 50.3314 30.7134ZM103.489 63.3168C103.46 62.0225 103.342 60.7318 103.135 59.454C102.978 57.7026 102.33 56.0311 101.263 54.6327C100.197 53.2343 98.7576 52.166 97.1101 51.5512C95.0938 50.824 92.979 50.4058 90.8375 50.3109C83.5802 50.1171 76.4015 51.8536 70.0352 55.3431C69.8905 55.3911 69.7582 55.4707 69.6481 55.5762C69.5379 55.6816 69.4526 55.8102 69.3983 55.9527C69.3441 56.0952 69.3222 56.248 69.3342 56.4C69.3463 56.552 69.3921 56.6994 69.4682 56.8315C70.069 58.4566 70.1434 60.2295 69.6808 61.8992C69.4327 62.7143 69.6808 62.9624 70.4605 63.2459C73.906 64.5395 77.2174 66.1656 80.3478 68.101C84.4481 70.4507 87.5297 74.2395 88.9948 78.7325C89.6681 80.7879 90.0579 82.8788 90.554 84.9342C90.873 86.2454 91.1211 86.3517 92.1488 85.5367C95.5453 82.8868 98.3183 79.5232 100.272 75.6836C102.225 71.8441 103.311 67.6223 103.454 63.3168H103.489ZM16.2397 56.2291C16.2682 57.5233 16.3867 58.814 16.5941 60.0919C16.7393 61.8418 17.3796 63.5142 18.4401 64.9136C19.5007 66.3131 20.9377 67.3817 22.5832 67.9946C24.6663 68.7515 26.8538 69.1818 29.0684 69.2704C36.2563 69.4468 43.3619 67.7102 49.6581 64.2382C49.8049 64.1987 49.9406 64.126 50.0549 64.0258C50.1691 63.9255 50.2588 63.8004 50.317 63.66C50.3752 63.5196 50.4004 63.3677 50.3906 63.216C50.3808 63.0644 50.3363 62.917 50.2606 62.7852C49.6665 61.2092 49.5798 59.487 50.0125 57.8593C50.296 56.867 50.0125 56.5835 49.0911 56.2645C45.6841 54.9745 42.4088 53.3606 39.3101 51.4449C36.9844 50.0904 34.9669 48.2656 33.3865 46.0872C31.8061 43.9087 30.6975 41.4246 30.1315 38.7934C29.848 37.4467 29.4937 36.0646 29.1393 34.718C28.7849 33.3713 28.5723 33.265 27.5091 34.151C24.137 36.7891 21.3816 40.1316 19.4351 43.9449C17.4886 47.7583 16.3981 51.9506 16.2397 56.2291ZM65.6408 59.7729C65.6478 58.622 65.313 57.4948 64.6786 56.5344C64.0443 55.574 63.1391 54.8236 62.0777 54.3782C61.0164 53.9329 59.8467 53.8127 58.717 54.033C57.5872 54.2532 56.5484 54.8039 55.732 55.6153C54.9156 56.4267 54.3586 57.4622 54.1314 58.5906C53.9043 59.7189 54.0173 60.8893 54.4561 61.9533C54.895 63.0174 55.6398 63.9272 56.5964 64.5674C57.5529 65.2076 58.6779 65.5494 59.8289 65.5494C60.5931 65.5637 61.3524 65.4243 62.0616 65.1395C62.7709 64.8548 63.4157 64.4304 63.9578 63.8916C64.4999 63.3528 64.9282 62.7106 65.2173 62.0031C65.5064 61.2956 65.6505 60.5372 65.6408 59.7729Z" fill="white" stroke="white" stroke-width="2.36256"/>
</g>
<defs>
<clipPath id="clip0_490_1499">
<rect width="120" height="120" fill="white"/>
</clipPath>
</defs>
</svg>
