<svg width="120" height="120" viewBox="0 0 120 120" fill="none" xmlns="http://www.w3.org/2000/svg">
<g clip-path="url(#clip0_490_1559)">
<path d="M47.3886 68.125C47.3886 71.5189 47.3886 74.9129 47.3886 78.3068C46.9089 82.9836 48.0795 87.6808 50.6977 91.5856C52.6864 94.7982 53.41 98.6353 52.7279 102.351C52.0458 106.068 50.0067 109.398 47.0068 111.695C43.9944 114.058 40.2442 115.282 36.4176 115.15C32.5911 115.018 28.9341 113.539 26.0916 110.973C23.2948 108.362 21.5388 104.826 21.1489 101.02C20.7589 97.2133 21.7612 93.3946 23.9704 90.2704C25.9064 87.657 26.8398 84.4353 26.6007 81.1917C26.6007 71.6038 26.6007 61.9735 26.6007 52.3432C26.6007 50.9782 26.8696 49.6266 27.3919 48.3656C27.9143 47.1045 28.6799 45.9587 29.645 44.9935C30.6102 44.0284 31.756 43.2628 33.0171 42.7404C34.2781 42.2181 35.6297 41.9492 36.9947 41.9492C38.3596 41.9492 39.7112 42.2181 40.9723 42.7404C42.2333 43.2628 43.3791 44.0284 44.3443 44.9935C45.3095 45.9587 46.0751 47.1045 46.5974 48.3656C47.1198 49.6266 47.3886 50.9782 47.3886 52.3432C47.3886 57.6886 47.3886 62.9068 47.3886 68.125ZM44.1644 53.6583C44.3256 52.191 44.1013 50.7069 43.5136 49.3528C42.9258 47.9987 41.9949 46.8214 40.8128 45.9371C39.7984 45.1912 38.59 44.7543 37.3331 44.679C36.0761 44.6037 34.8242 44.8933 33.728 45.5129C32.4432 46.2188 31.3858 47.2758 30.6796 48.5605C29.9735 49.8452 29.6476 51.3043 29.7401 52.7674C29.7401 63.0765 29.7401 73.3432 29.7401 83.6523C29.9261 86.5654 28.9497 89.4334 27.025 91.628C25.0845 93.9522 24.0973 96.9256 24.2627 99.9489C24.428 102.972 25.7335 105.82 27.9159 107.919C30.0914 110.101 32.9845 111.419 36.0584 111.63C39.1323 111.841 42.1782 110.929 44.631 109.064C47.0511 107.235 48.7013 104.569 49.2584 101.587C49.8156 98.6051 49.2395 95.5226 47.6431 92.9432C46.4094 91.5821 45.4619 89.9869 44.857 88.2523C44.2521 86.5178 44.0021 84.6793 44.1219 82.8462C44.1791 82.5106 44.1225 82.1654 43.9611 81.8657C43.7997 81.5659 43.5427 81.3287 43.231 81.1917C41.2371 80.1735 40.9825 79.1553 43.231 77.8401C45.4795 76.525 44.8856 75.3795 43.231 74.3613C41.5765 73.3432 41.3219 72.2401 43.231 71.0098C45.1401 69.7795 44.7583 68.5492 43.231 67.531C41.7038 66.5129 41.3219 65.5371 43.231 64.3492C45.1401 63.1613 44.9704 61.8462 43.231 60.7007C41.4916 59.5553 41.2371 58.7068 42.8068 57.9007C44.3765 57.0947 44.0795 55.2704 44.1644 53.6583Z" fill="white"/>
<path d="M64.483 5.25516C65.9254 5.76425 68.3012 6.52788 70.5496 7.50364C82.0873 12.5427 91.4141 21.5832 96.8103 32.9582C97.1921 33.8067 97.489 34.6552 97.786 35.5036C98.083 36.3521 98.0406 37.3279 96.98 37.7521C95.9193 38.1764 95.283 37.7521 94.7739 36.7339C94.2648 35.7158 94.0527 35.3339 93.7133 34.6127C90.862 28.582 86.7929 23.2071 81.7622 18.8262C76.7315 14.4454 70.8483 11.1536 64.483 9.15819C63.8466 8.94607 63.1678 8.77637 62.5315 8.52182C61.8951 8.26728 60.7496 7.41879 61.2163 6.18849C61.683 4.95819 62.5739 4.83091 64.483 5.25516Z" fill="white"/>
<path d="M60.4531 14.591L62.2774 15.1001C67.8899 16.9658 73.0658 19.9504 77.4919 23.8735C81.9181 27.7965 85.5027 32.5765 88.0289 37.9243C88.6228 39.1971 89.7259 40.8092 87.7743 41.7425C85.8228 42.6758 85.5259 40.7243 84.9743 39.5789C82.6532 34.4828 79.2912 29.9288 75.1046 26.2098C70.918 22.4909 65.9995 19.6892 60.6653 17.9849C59.4774 17.6031 58.1198 17.2213 58.4592 15.5243C58.6289 14.591 59.435 14.3365 60.4531 14.591Z" fill="white"/>
<path d="M78.2312 44.6674C78.3265 45.0299 78.2992 45.4139 78.1534 45.7592C78.0075 46.1046 77.7515 46.392 77.4251 46.5764C77.1397 46.7664 76.793 46.8414 76.4546 46.7863C76.1162 46.7312 75.8112 46.5502 75.6008 46.2795C75.1561 45.7678 74.7849 45.1967 74.4978 44.5825C70.852 37.45 64.6816 31.9299 57.1887 29.0977L56.2554 28.7583C55.2796 28.2916 54.2615 27.6977 54.7281 26.4674C55.1948 25.237 56.3827 25.237 57.5705 25.6189C62.9557 27.435 67.8086 30.5537 71.6978 34.6977C73.976 37.0611 75.8917 39.7489 77.3827 42.6734C77.7221 43.3946 78.019 44.2855 78.2312 44.6674Z" fill="white"/>
<path d="M66.8194 60.9165C66.7882 62.2198 66.2622 63.4625 65.3483 64.3922C64.4343 65.3219 63.2008 65.869 61.8982 65.9225C61.2216 65.8963 60.5573 65.7331 59.9455 65.4427C59.3338 65.1524 58.7873 64.7409 58.3391 64.2333C57.891 63.7257 57.5505 63.1324 57.3382 62.4893C57.126 61.8463 57.0464 61.1669 57.1043 60.4922C57.1043 57.9468 60.1588 53.1953 61.7285 53.1104C63.2982 53.0256 66.8194 58.2013 66.8194 60.9165Z" fill="white"/>
<path d="M77.6778 75.807C77.6572 77.1177 77.136 78.3709 76.2209 79.3096C75.3059 80.2484 74.0664 80.8014 72.7566 80.8554C71.4475 80.8111 70.2089 80.2511 69.3109 79.2975C68.4129 78.3439 67.9283 77.074 67.9626 75.7645C67.9626 73.1767 70.8899 68.1706 72.5869 68.0433C74.2839 67.916 77.7202 73.0918 77.6778 75.807Z" fill="white"/>
<path d="M64.1442 82.4685C64.1117 83.1132 63.9516 83.7451 63.6732 84.3276C63.3948 84.91 63.0035 85.4314 62.5221 85.8616C62.0406 86.2917 61.4786 86.622 60.8686 86.8333C60.2586 87.0447 59.6127 87.1328 58.9684 87.0927C58.3195 87.0784 57.6805 86.93 57.0916 86.657C56.5027 86.384 55.9766 85.9922 55.5464 85.5061C55.1161 85.0201 54.791 84.4504 54.5914 83.8327C54.3918 83.2151 54.3221 82.5628 54.3866 81.917C54.3866 79.2018 57.3987 74.62 59.0532 74.6624C60.7078 74.7048 64.229 80.0927 64.1442 82.4685Z" fill="white"/>
<path d="M40.602 70.4595C40.602 76.2292 40.602 81.9989 40.602 87.7686C40.558 88.5811 40.7127 89.3921 41.0528 90.1313C41.3928 90.8705 41.9079 91.5157 42.5535 92.011C44.0351 93.1792 45.1159 94.78 45.6458 96.5908C46.1756 98.4016 46.1281 100.333 45.5099 102.115C44.8917 103.898 43.7334 105.443 42.1962 106.537C40.6589 107.631 38.819 108.219 36.9323 108.219C35.0456 108.219 33.2057 107.631 31.6684 106.537C30.1312 105.443 28.973 103.898 28.3547 102.115C27.7365 100.333 27.689 98.4016 28.2188 96.5908C28.7487 94.78 29.8295 93.1792 31.3111 92.011C32.0083 91.4585 32.5614 90.7455 32.9234 89.9329C33.2854 89.1203 33.4454 88.2322 33.3899 87.3444C33.3899 76.0312 33.3899 64.605 33.3899 53.0656C33.2576 52.2978 33.3161 51.5094 33.5602 50.7696C33.8043 50.0298 34.2266 49.3613 34.7899 48.8232C35.3089 48.375 35.9516 48.0945 36.6332 48.0188C37.3147 47.9431 38.0033 48.0756 38.6081 48.3989C39.2769 48.7179 39.8311 49.2352 40.1955 49.8805C40.5599 50.5257 40.7166 51.2675 40.6444 52.005V70.3322L40.602 70.4595Z" fill="white"/>
</g>
<defs>
<clipPath id="clip0_490_1559">
<rect width="77" height="110.176" fill="white" transform="translate(21 5)"/>
</clipPath>
</defs>
</svg>
