<svg width="120" height="120" viewBox="0 0 120 120" fill="none" xmlns="http://www.w3.org/2000/svg">
<path d="M59.6606 8.05299H98.5556C101.947 8.05299 102 8.05299 102 11.3914C102 32.5876 102 53.9427 102 75.4568C101.859 86.7281 97.2472 97.4819 89.1778 105.353C81.1085 113.223 70.243 117.566 58.9717 117.425C47.7005 117.285 36.9467 112.672 29.0761 104.603C21.2055 96.5337 16.8628 85.6683 17.0033 74.397C17.0033 53.5718 17.0033 32.6936 17.0033 11.8683C17.0033 8 17.0033 8 20.9776 8L59.6606 8.05299ZM59.6606 38.8404C52.5468 38.7987 45.5803 40.8668 39.6414 44.7832C33.7026 48.6996 29.058 54.2886 26.2946 60.8439C23.5312 67.3992 22.7731 74.6266 24.1161 81.6126C25.459 88.5987 28.8427 95.0298 33.8396 100.093C38.8365 105.157 45.2223 108.626 52.19 110.061C59.1576 111.496 66.3944 110.834 72.9857 108.158C79.577 105.481 85.2271 100.911 89.2218 95.0247C93.2166 89.1382 95.3767 82.1997 95.4292 75.0859C95.4852 70.3551 94.6035 65.6601 92.835 61.2719C91.0666 56.8837 88.4463 52.8893 85.1256 49.5194C81.8049 46.1494 77.8496 43.4707 73.4879 41.6378C69.1263 39.8048 64.4447 38.8541 59.7136 38.8404H59.6606ZM35.656 27.8184C35.7146 27.0877 35.621 26.3528 35.3811 25.6602C35.1412 24.9675 34.7602 24.3321 34.2621 23.7943C33.7641 23.2564 33.1599 22.8277 32.4877 22.5353C31.8155 22.2429 31.0899 22.0931 30.3569 22.0955C28.8934 22.0517 27.4707 22.5811 26.3918 23.5709C25.3129 24.5607 24.6632 25.9327 24.5809 27.3945C24.5809 28.8491 25.1588 30.2441 26.1873 31.2726C27.2159 32.3012 28.6109 32.879 30.0655 32.879C31.52 32.879 32.915 32.3012 33.9436 31.2726C34.9721 30.2441 35.55 28.8491 35.55 27.3945L35.656 27.8184ZM94.5283 27.8184C94.5496 27.0745 94.4214 26.3338 94.1513 25.6403C93.8812 24.9468 93.4748 24.3145 92.956 23.7809C92.4372 23.2473 91.8166 22.8232 91.131 22.5337C90.4453 22.2442 89.7086 22.0952 88.9643 22.0955C87.8558 22.0852 86.7689 22.4032 85.8408 23.0095C84.9126 23.6157 84.1846 24.4831 83.7484 25.5023C83.3122 26.5215 83.1874 27.647 83.3896 28.737C83.5919 29.827 84.1122 30.8328 84.885 31.6277C85.6578 32.4226 86.6486 32.971 87.7324 33.2039C88.8163 33.4368 89.9449 33.3437 90.976 32.9364C92.0071 32.5291 92.8946 31.8258 93.5267 30.915C94.1589 30.0043 94.5074 28.9269 94.5283 27.8184ZM65.0657 27.8184C65.0657 26.7704 64.7549 25.7459 64.1726 24.8744C63.5903 24.003 62.7627 23.3238 61.7945 22.9228C60.8262 22.5217 59.7607 22.4167 58.7328 22.6212C57.7049 22.8257 56.7607 23.3304 56.0196 24.0714C55.2785 24.8125 54.7738 25.7567 54.5694 26.7846C54.3649 27.8126 54.4699 28.878 54.8709 29.8463C55.272 30.8146 55.9512 31.6422 56.8226 32.2244C57.694 32.8067 58.7186 33.1175 59.7666 33.1175C61.1629 33.1175 62.5027 32.5665 63.495 31.5842C64.4872 30.6019 65.0517 29.2676 65.0657 27.8714V27.8184Z" fill="white"/>
<path d="M44.8774 52.2441C45.2483 52.5621 45.7252 52.88 46.1492 53.3039L80.593 88.0127C81.8647 89.2845 81.8118 90.1323 80.593 91.2981C79.0131 92.719 77.5096 94.2225 76.0888 95.8023C74.711 97.445 73.6512 97.233 72.2205 95.8023C63.742 87.1649 55.1576 78.6334 46.6261 70.0489L38.9955 62.2063C36.6109 59.7688 36.6109 59.7688 38.9955 57.2782L43.4997 53.198C43.8318 52.7272 44.3199 52.3893 44.8774 52.2441Z" fill="white"/>
<path d="M89.0201 32.0549C87.9707 31.9378 87.0014 31.4379 86.2973 30.6509C85.5933 29.864 85.2041 28.8451 85.2041 27.7892C85.2041 26.7333 85.5933 25.7144 86.2973 24.9274C87.0014 24.1404 87.9707 23.6406 89.0201 23.5234C90.1325 23.5878 91.1815 24.0622 91.9645 24.855C92.7475 25.6478 93.2088 26.7026 93.2594 27.8157C93.2078 28.9234 92.7446 29.9719 91.9605 30.756C91.1764 31.5401 90.1278 32.0033 89.0201 32.0549Z" fill="white"/>
<path d="M63.7953 27.7097C63.7953 28.8199 63.3543 29.8847 62.5692 30.6698C61.7841 31.4549 60.7194 31.8959 59.6091 31.8959C58.4988 31.8959 57.434 31.4549 56.649 30.6698C55.8639 29.8847 55.4229 28.8199 55.4229 27.7097C55.4229 26.5994 55.8639 25.5346 56.649 24.7496C57.434 23.9645 58.4988 23.5234 59.6091 23.5234C60.7194 23.5234 61.7841 23.9645 62.5692 24.7496C63.3543 25.5346 63.7953 26.5994 63.7953 27.7097Z" fill="white"/>
</svg>
