<svg width="150" height="150" viewBox="0 0 150 150" fill="none" xmlns="http://www.w3.org/2000/svg">
<path d="M74.875 61.1812L70.7687 67.3063C68.5979 70.6396 67.1979 73.0562 66.5688 74.5562C65.9396 76.0646 65.625 77.7104 65.625 79.4937C65.625 82.0604 66.5292 84.2562 68.3375 86.0812C70.1417 87.9104 72.3625 88.825 75 88.825C77.6375 88.825 79.8583 87.9208 81.6625 86.1125C83.4667 84.3042 84.3708 82.0833 84.375 79.45C84.375 77.7833 84.0417 76.1375 83.375 74.5125C82.7042 72.8833 81.2833 70.4813 79.1125 67.3063L74.875 61.1812ZM74.9875 111.419C64.8833 111.419 56.2896 107.873 49.2063 100.781C42.1229 93.6896 38.5812 85.0917 38.5812 74.9875C38.5812 64.8833 42.1271 56.2896 49.2188 49.2063C56.3104 42.1229 64.9083 38.5812 75.0125 38.5812C85.1167 38.5812 93.7104 42.1271 100.794 49.2187C107.877 56.3104 111.419 64.9083 111.419 75.0125C111.419 85.1167 107.873 93.7104 100.781 100.794C93.6896 107.877 85.0917 111.419 74.9875 111.419ZM128.125 70.4313V65.625H115.756C114.369 59.375 111.754 53.8229 107.913 48.9688C104.071 44.1229 99.3854 40.3 93.8563 37.5H128.125V32.6875H134.375V70.4375L128.125 70.4313ZM15.625 117.306V79.5687H21.875V84.375H34.2438C35.6271 90.625 38.2417 96.1771 42.0875 101.031C45.9292 105.881 50.6146 109.704 56.1437 112.5H21.875V117.313L15.625 117.306Z" fill="white"/>
</svg>
