<svg width="26" height="26" viewBox="0 0 26 26" fill="none" xmlns="http://www.w3.org/2000/svg">
<path fill-rule="evenodd" clip-rule="evenodd" d="M16.2493 14.0827V15.166H17.3327V17.3327H16.2493V23.8327H15.166V17.3327H14.0827V15.166H15.166V14.0827H16.2493ZM19.4993 14.0827V19.4993H20.5827V21.666H19.4993V23.8327H18.416V21.666H17.3327V19.4993H18.416V14.0827H19.4993ZM22.7493 14.0827V16.2493H23.8327V18.416H22.7493V23.8327H21.666V18.416H20.5827V16.2493H21.666V14.0827H22.7493ZM10.8327 2.16602L19.4993 7.04102V12.9993H17.3326V9.21176L11.916 12.3391V18.5693L12.9993 17.9599V18.416H14.0827L14.0826 19.8379L10.8326 21.666L2.16602 16.791V7.04102L10.8327 2.16602ZM4.33265 9.27097V15.5235L9.74933 18.5695V12.3983L4.33265 9.27097ZM10.8326 4.65227L5.68241 7.54837L10.7814 10.4923L15.9302 7.51958L10.8326 4.65227Z" fill="white"/>
</svg>
