<svg width="137" height="135" viewBox="0 0 137 135" fill="none" xmlns="http://www.w3.org/2000/svg">
<g filter="url(#filter0_d_2953_9454)">
<g filter="url(#filter1_d_2953_9454)">
<circle cx="66.7134" cy="62.4204" r="49.6353" fill="#F3F8FF"/>
</g>
<g filter="url(#filter2_dii_2953_9454)">
<circle cx="66.7157" cy="63.0526" r="32.0125" fill="#F3F9FF"/>
</g>
<g filter="url(#filter3_f_2953_9454)">
<ellipse cx="61.29" cy="56.6809" rx="18.7256" ry="18.6389" fill="white" fill-opacity="0.84"/>
</g>
<g filter="url(#filter4_dii_2953_9454)">
<circle cx="66.714" cy="63.0812" r="21.6164" fill="#F3F9FF"/>
<circle cx="66.714" cy="63.0812" r="20.6655" stroke="#E0EDFF" stroke-width="1.90173"/>
</g>
<path d="M66.1293 26.736C65.8903 26.735 65.6861 26.672 65.5166 26.5469C65.3472 26.4219 65.2176 26.2398 65.1279 26.0008C65.0381 25.7618 64.9932 25.4739 64.9932 25.137C64.9932 24.8012 65.0381 24.5143 65.1279 24.2763C65.2186 24.0383 65.3487 23.8567 65.5181 23.7317C65.6886 23.6066 65.8923 23.5441 66.1293 23.5441C66.3663 23.5441 66.5695 23.6071 66.7389 23.7332C66.9084 23.8583 67.0379 24.0398 67.1277 24.2778C67.2185 24.5148 67.2638 24.8012 67.2638 25.137C67.2638 25.4749 67.219 25.7633 67.1292 26.0023C67.0395 26.2403 66.9099 26.4224 66.7404 26.5484C66.571 26.6735 66.3673 26.736 66.1293 26.736ZM66.1293 26.3321C66.3391 26.3321 66.5029 26.2297 66.6209 26.025C66.7399 25.8203 66.7994 25.5243 66.7994 25.137C66.7994 24.8799 66.7722 24.6625 66.7177 24.485C66.6643 24.3065 66.5871 24.1714 66.4863 24.0796C66.3865 23.9868 66.2675 23.9405 66.1293 23.9405C65.9205 23.9405 65.7566 24.0433 65.6376 24.2491C65.5186 24.4548 65.4586 24.7508 65.4576 25.137C65.4576 25.3952 65.4844 25.6135 65.5378 25.7921C65.5923 25.9695 65.6694 26.1042 65.7693 26.196C65.8691 26.2867 65.9891 26.3321 66.1293 26.3321ZM68.5482 25.6324C68.6732 25.6324 68.7868 25.6636 68.889 25.7261C68.9912 25.7857 69.0722 25.8667 69.1318 25.9689C69.1943 26.0711 69.2255 26.1847 69.2255 26.3097C69.2255 26.4347 69.1943 26.5483 69.1318 26.6505C69.0722 26.7527 68.9912 26.8337 68.889 26.8933C68.7868 26.9558 68.6732 26.987 68.5482 26.987C68.4233 26.987 68.3097 26.9558 68.2074 26.8933C68.1052 26.8337 68.0228 26.7527 67.9604 26.6505C67.9007 26.5483 67.8709 26.4347 67.8709 26.3097C67.8709 26.1847 67.9007 26.0711 67.9604 25.9689C68.0228 25.8667 68.1052 25.7857 68.2074 25.7261C68.3097 25.6636 68.4233 25.6324 68.5482 25.6324ZM68.5482 26.7059C68.659 26.7059 68.7527 26.6675 68.8294 26.5909C68.906 26.5142 68.9444 26.4205 68.9444 26.3097C68.9444 26.2387 68.9259 26.1734 68.889 26.1137C68.8549 26.0513 68.8081 26.003 68.7484 25.9689C68.6888 25.932 68.6221 25.9135 68.5482 25.9135C68.4772 25.9135 68.4105 25.932 68.348 25.9689C68.2884 26.003 68.2401 26.0513 68.2032 26.1137C68.1691 26.1734 68.152 26.2387 68.152 26.3097C68.152 26.3835 68.1691 26.4517 68.2032 26.5142C68.2401 26.5738 68.2884 26.6207 68.348 26.6548C68.4076 26.6888 68.4744 26.7059 68.5482 26.7059Z" fill="#333333"/>
<path opacity="0.5" d="M45.7415 32.2359C45.5937 32.3212 45.447 32.3719 45.3013 32.3881C45.1564 32.4039 45.0241 32.386 44.9045 32.3345C44.7852 32.2819 44.6884 32.1972 44.6142 32.0803L44.9521 31.8852C44.9941 31.948 45.0487 31.992 45.116 32.0173C45.1835 32.0415 45.257 32.0478 45.3364 32.0364C45.4159 32.0249 45.4951 31.9964 45.574 31.9509C45.6608 31.9007 45.7289 31.8414 45.7782 31.7727C45.8283 31.7036 45.8568 31.6312 45.8637 31.5555C45.8703 31.479 45.853 31.4052 45.812 31.3342C45.7694 31.2603 45.7129 31.2064 45.6426 31.1724C45.5725 31.1372 45.492 31.1244 45.4009 31.134C45.3105 31.1431 45.2144 31.1771 45.1125 31.2359L44.9263 31.3434L44.7697 31.0722L44.9559 30.9647C45.0377 30.9175 45.1009 30.8614 45.1457 30.7963C45.1911 30.7309 45.2163 30.6618 45.2212 30.5892C45.2257 30.5158 45.2074 30.4436 45.1664 30.3725C45.1271 30.3044 45.0775 30.2541 45.0176 30.2217C44.9581 30.1882 44.8921 30.1732 44.8195 30.1768C44.7477 30.18 44.6742 30.2033 44.5988 30.2468C44.5271 30.2883 44.4677 30.3403 44.4206 30.4028C44.3738 30.4643 44.3451 30.5306 44.3345 30.6017C44.3236 30.6722 44.3361 30.7419 44.3722 30.811L44.0504 30.9968C43.9852 30.8756 43.9599 30.7506 43.9744 30.6217C43.9897 30.4924 44.0378 30.3703 44.1189 30.2556C44.2 30.1409 44.308 30.0446 44.4428 29.9667C44.5842 29.8851 44.7221 29.8423 44.8566 29.8383C44.9914 29.8332 45.113 29.8601 45.2216 29.9189C45.3309 29.9772 45.4164 30.0608 45.4783 30.1696C45.5502 30.2925 45.5763 30.4172 45.5564 30.5434C45.5372 30.6693 45.4787 30.7801 45.3809 30.8757L45.3908 30.893C45.55 30.8307 45.6969 30.8234 45.8316 30.871C45.9669 30.9181 46.0744 31.0115 46.154 31.1511C46.2247 31.272 46.2538 31.4001 46.2411 31.5356C46.2292 31.6707 46.1807 31.7996 46.0956 31.9223C46.0102 32.0444 45.8921 32.1489 45.7415 32.2359ZM47.7856 31.0557C47.6378 31.141 47.4911 31.1918 47.3454 31.2079C47.2005 31.2237 47.0682 31.2058 46.9486 31.1544C46.8293 31.1018 46.7325 31.017 46.6583 30.9001L46.9962 30.705C47.0382 30.7678 47.0928 30.8119 47.16 30.8372C47.2276 30.8613 47.3011 30.8677 47.3805 30.8562C47.46 30.8448 47.5392 30.8163 47.6181 30.7707C47.7049 30.7206 47.773 30.6612 47.8223 30.5925C47.8724 30.5235 47.9009 30.4511 47.9078 30.3753C47.9144 30.2988 47.8971 30.2251 47.8561 30.1541C47.8135 30.0802 47.757 30.0262 47.6866 29.9922C47.6166 29.9571 47.5361 29.9443 47.445 29.9538C47.3546 29.963 47.2584 29.9969 47.1566 30.0558L46.9704 30.1632L46.8138 29.8921L47 29.7846C47.0818 29.7373 47.145 29.6812 47.1898 29.6162C47.2352 29.5507 47.2604 29.4817 47.2653 29.409C47.2698 29.3356 47.2515 29.2634 47.2105 29.1924C47.1712 29.1242 47.1216 29.074 47.0617 29.0415C47.0022 29.008 46.9362 28.993 46.8636 28.9967C46.7918 28.9998 46.7183 29.0232 46.6429 29.0667C46.5712 29.1081 46.5118 29.1601 46.4647 29.2227C46.4179 29.2841 46.3892 29.3504 46.3786 29.4216C46.3676 29.492 46.3802 29.5618 46.4162 29.6309L46.0945 29.8166C46.0293 29.6955 46.004 29.5704 46.0185 29.4415C46.0338 29.3122 46.0819 29.1902 46.163 29.0754C46.2441 28.9607 46.3521 28.8644 46.4869 28.7866C46.6283 28.705 46.7662 28.6622 46.9007 28.6582C47.0354 28.6531 47.1571 28.6799 47.2657 28.7387C47.375 28.7971 47.4605 28.8807 47.5223 28.9894C47.5943 29.1124 47.6203 29.237 47.6005 29.3633C47.5813 29.4891 47.5228 29.5999 47.425 29.6956L47.4349 29.7128C47.5941 29.6506 47.741 29.6432 47.8756 29.6908C48.011 29.738 48.1185 29.8314 48.1981 29.971C48.2688 30.0918 48.2979 30.22 48.2852 30.3554C48.2733 30.4905 48.2248 30.6194 48.1397 30.7422C48.0543 30.8642 47.9362 30.9687 47.7856 31.0557ZM49.8334 29.882C49.6629 29.9795 49.4918 30.0185 49.3199 29.9991C49.148 29.9797 48.981 29.9035 48.819 29.7703C48.657 29.6371 48.5068 29.4508 48.3685 29.2111C48.2305 28.9722 48.1446 28.7497 48.1107 28.5435C48.0775 28.3369 48.0955 28.1544 48.1647 27.9958C48.2346 27.8369 48.3538 27.7087 48.5224 27.6114C48.691 27.514 48.8615 27.4754 49.0338 27.4955C49.2056 27.5149 49.3724 27.5908 49.534 27.7232C49.6959 27.8545 49.8458 28.0397 49.9837 28.2786C50.1225 28.5189 50.209 28.7425 50.2434 28.9494C50.2773 29.1556 50.2598 29.3383 50.1911 29.4976C50.1219 29.6561 50.0027 29.7843 49.8334 29.882ZM49.6675 29.5947C49.8167 29.5085 49.8912 29.3684 49.8911 29.1743C49.8917 28.9798 49.8124 28.7448 49.6534 28.4693C49.5478 28.2864 49.4391 28.1429 49.3275 28.039C49.2161 27.934 49.1058 27.8696 48.9963 27.8457C48.8872 27.8207 48.7835 27.8366 48.6852 27.8933C48.5367 27.9791 48.4624 28.1195 48.4622 28.3148C48.462 28.51 48.5409 28.7452 48.6988 29.0204C48.8049 29.2041 48.9136 29.3484 49.0249 29.4534C49.1365 29.5573 49.2467 29.6214 49.3554 29.6457C49.4637 29.6693 49.5678 29.6523 49.6675 29.5947ZM51.0375 28.144C51.1264 28.0927 51.219 28.0689 51.3154 28.0725C51.4106 28.0741 51.4998 28.098 51.5831 28.1442C51.6663 28.1904 51.7336 28.258 51.7849 28.3469C51.8351 28.4338 51.86 28.5258 51.8595 28.623C51.8579 28.7182 51.834 28.8075 51.7878 28.8907C51.7416 28.974 51.674 29.0412 51.5851 29.0926C51.4983 29.1427 51.4062 29.1676 51.309 29.1671C51.2138 29.1655 51.1236 29.1422 51.0383 29.0972C50.9539 29.0489 50.8866 28.9814 50.8364 28.8945C50.7851 28.8056 50.7602 28.7136 50.7618 28.6184C50.7655 28.522 50.7904 28.4322 50.8366 28.3489C50.8837 28.2625 50.9506 28.1942 51.0375 28.144ZM51.4802 28.9107C51.561 28.8641 51.6133 28.7961 51.6372 28.7069C51.6611 28.6177 51.6498 28.5327 51.6031 28.4519C51.5716 28.3973 51.5305 28.3564 51.4797 28.3291C51.4298 28.2987 51.3751 28.2832 51.3155 28.2826C51.2559 28.282 51.1988 28.2974 51.1442 28.3289C51.0917 28.3592 51.0508 28.4004 51.0215 28.4523C50.9922 28.5042 50.9773 28.56 50.9767 28.6196C50.9749 28.6772 50.9898 28.7332 51.0213 28.7878C51.0516 28.8403 51.0933 28.8822 51.1464 28.9135C51.1983 28.9428 51.2541 28.9577 51.3137 28.9583C51.3721 28.9569 51.4276 28.9411 51.4802 28.9107Z" fill="#333333"/>
<path opacity="0.5" d="M84.8412 30.2392C84.6934 30.1538 84.5761 30.0522 84.4893 29.9341C84.4032 29.8165 84.3525 29.693 84.3373 29.5637C84.3232 29.4341 84.3482 29.3079 84.4123 29.1852L84.7502 29.3803C84.7168 29.448 84.706 29.5173 84.7177 29.5882C84.7306 29.6587 84.7618 29.7256 84.8115 29.7887C84.8611 29.8518 84.9254 29.9061 85.0043 29.9517C85.0911 30.0018 85.1766 30.031 85.2607 30.0394C85.3455 30.0482 85.4225 30.0367 85.4916 30.0049C85.5611 29.9723 85.6163 29.9205 85.6574 29.8495C85.7 29.7756 85.7185 29.6997 85.7128 29.6218C85.7082 29.5435 85.679 29.4674 85.6252 29.3933C85.5721 29.3195 85.4946 29.2533 85.3927 29.1945L85.2065 29.087L85.3631 28.8158L85.5493 28.9233C85.6311 28.9705 85.7113 28.9972 85.79 29.0034C85.8694 29.01 85.9418 28.9973 86.0072 28.9652C86.073 28.9325 86.1264 28.8805 86.1674 28.8095C86.2067 28.7414 86.2255 28.6733 86.2236 28.6052C86.2229 28.5369 86.2028 28.4722 86.1634 28.4112C86.1248 28.3506 86.0678 28.2986 85.9924 28.2551C85.9207 28.2137 85.846 28.1882 85.7682 28.1787C85.6916 28.1689 85.6198 28.1773 85.5529 28.2037C85.4864 28.2294 85.4323 28.2751 85.3905 28.3409L85.0687 28.1551C85.1411 28.0381 85.2367 27.9537 85.3556 27.9018C85.4752 27.8503 85.605 27.831 85.7449 27.8439C85.8848 27.8567 86.0222 27.9021 86.157 27.98C86.2984 28.0616 86.4044 28.1596 86.4751 28.2741C86.5469 28.3882 86.5845 28.507 86.5879 28.6304C86.5919 28.7543 86.5623 28.8702 86.4991 28.9781C86.4285 29.1019 86.3336 29.1867 86.2143 29.2327C86.0958 29.279 85.9706 29.2837 85.8388 29.2469L85.8289 29.2641C85.9624 29.3708 86.0422 29.4944 86.0683 29.6347C86.0951 29.7755 86.068 29.9153 85.9869 30.0541C85.9176 30.1757 85.8211 30.265 85.6975 30.3217C85.5745 30.3789 85.4387 30.4014 85.2898 30.3891C85.1414 30.3761 84.9919 30.3261 84.8412 30.2392ZM86.8816 31.4258C86.712 31.3269 86.5926 31.1982 86.5234 31.0396C86.4542 30.8811 86.4368 30.6984 86.4711 30.4915C86.5054 30.2846 86.5918 30.0613 86.7301 29.8217C86.868 29.5828 87.0178 29.3971 87.1794 29.2647C87.3417 29.1326 87.5088 29.0569 87.6807 29.0376C87.8533 29.0186 88.0239 29.0578 88.1925 29.1551C88.3611 29.2525 88.4798 29.3808 88.5485 29.54C88.6177 29.6986 88.6353 29.8809 88.6014 30.0871C88.5687 30.293 88.4833 30.5154 88.3454 30.7543C88.2066 30.9946 88.0562 31.1814 87.8942 31.3145C87.7326 31.447 87.5657 31.5233 87.3934 31.5433C87.2215 31.5627 87.0509 31.5235 86.8816 31.4258ZM87.0475 31.1384C87.1967 31.2246 87.3553 31.2191 87.5233 31.1219C87.6921 31.0252 87.856 30.839 88.015 30.5635C88.1206 30.3806 88.1905 30.2148 88.2247 30.0662C88.26 29.9172 88.2606 29.7894 88.2265 29.6827C88.1936 29.5757 88.128 29.4938 88.0297 29.4371C87.8812 29.3513 87.7224 29.3572 87.5532 29.4547C87.3841 29.5522 87.2198 29.7381 87.0605 30.0124C86.9544 30.1961 86.8838 30.3624 86.8485 30.5113C86.8143 30.66 86.8139 30.7874 86.8473 30.8937C86.881 30.9993 86.9477 31.0809 87.0475 31.1384ZM88.9888 31.5996C89.0776 31.6509 89.1446 31.7192 89.1897 31.8045C89.2359 31.8877 89.2598 31.977 89.2614 32.0722C89.263 32.1674 89.2381 32.2594 89.1868 32.3483C89.1367 32.4352 89.0694 32.5027 88.985 32.551C88.9017 32.5972 88.8125 32.6211 88.7173 32.6227C88.6221 32.6243 88.53 32.5994 88.4411 32.5481C88.3543 32.498 88.2867 32.4307 88.2385 32.3463C88.1923 32.263 88.1673 32.1732 88.1637 32.0768C88.1633 31.9796 88.1881 31.8876 88.2383 31.8007C88.2896 31.7118 88.3569 31.6443 88.4402 31.598C88.5254 31.553 88.6157 31.5297 88.7109 31.5281C88.8093 31.5256 88.9019 31.5495 88.9888 31.5996ZM88.5461 32.3663C88.6269 32.413 88.7119 32.4243 88.8012 32.4004C88.8904 32.3765 88.9583 32.3242 89.005 32.2433C89.0365 32.1888 89.0513 32.1327 89.0496 32.0751C89.051 32.0167 89.0371 31.9615 89.0078 31.9096C88.9785 31.8577 88.9366 31.816 88.882 31.7845C88.8295 31.7541 88.7734 31.7393 88.7138 31.7399C88.6542 31.7405 88.5985 31.7554 88.5465 31.7847C88.4958 31.812 88.4546 31.8529 88.4232 31.9074C88.3928 31.9599 88.3774 32.017 88.3768 32.0787C88.3774 32.1383 88.3924 32.194 88.4216 32.246C88.4521 32.2959 88.4936 32.336 88.5461 32.3663Z" fill="#333333"/>
<path opacity="0.5" d="M97.9657 43.1532C97.9104 43.0541 97.8724 42.9469 97.8517 42.8316C97.8315 42.717 97.8392 42.5978 97.8748 42.4739C97.9104 42.35 97.9826 42.2256 98.0912 42.1007C98.2003 41.9765 98.3564 41.8558 98.5594 41.7386C98.7517 41.6276 98.9334 41.548 99.1046 41.4999C99.2762 41.4524 99.4342 41.4354 99.5786 41.4486C99.7237 41.4614 99.8528 41.5036 99.9659 41.5751C100.079 41.6466 100.172 41.7462 100.246 41.8739C100.322 42.0052 100.363 42.1367 100.37 42.2684C100.378 42.4001 100.354 42.5238 100.299 42.6396C100.245 42.756 100.165 42.8564 100.058 42.9407L99.8689 42.6125C99.9479 42.5372 99.9974 42.4498 100.017 42.3503C100.037 42.2507 100.017 42.1479 99.9555 42.0417C99.8623 41.8803 99.7193 41.795 99.5265 41.7857C99.3341 41.7772 99.1125 41.8449 98.8617 41.9888L98.871 42.0049C98.9554 42.0069 99.0354 42.0229 99.111 42.0528C99.1878 42.0831 99.2579 42.1259 99.3214 42.1811C99.386 42.2366 99.4404 42.3027 99.4847 42.3795C99.5584 42.5072 99.5939 42.6407 99.5912 42.78C99.5895 42.9197 99.552 43.0518 99.4786 43.1765C99.4051 43.3012 99.2981 43.4041 99.1575 43.4853C99.0169 43.5664 98.8711 43.608 98.7202 43.6101C98.5697 43.6128 98.4279 43.576 98.2949 43.4997C98.1626 43.4231 98.0529 43.3075 97.9657 43.1532ZM98.2449 42.9906C98.2937 43.0752 98.3582 43.1389 98.4384 43.1816C98.5185 43.2243 98.6049 43.2447 98.6976 43.2429C98.7903 43.241 98.88 43.215 98.9668 43.1649C99.0515 43.116 99.1176 43.0525 99.1652 42.9743C99.2133 42.8968 99.2387 42.8133 99.2415 42.7236C99.2447 42.6348 99.2221 42.5483 99.1736 42.4644C99.1367 42.4005 99.0904 42.3484 99.0345 42.308C98.979 42.2682 98.918 42.2404 98.8513 42.2243C98.7847 42.2083 98.7165 42.2046 98.6469 42.2132C98.5784 42.2221 98.5133 42.2444 98.4516 42.28C98.3691 42.3277 98.3037 42.3908 98.2553 42.4694C98.2074 42.5487 98.1812 42.6342 98.1766 42.7258C98.1732 42.8176 98.196 42.9059 98.2449 42.9906ZM99.1228 45.1722C99.0253 45.0018 98.9863 44.8306 99.0057 44.6587C99.025 44.4868 99.1013 44.3199 99.2345 44.1579C99.3676 43.9958 99.554 43.8457 99.7936 43.7073C100.033 43.5694 100.255 43.4835 100.461 43.4496C100.668 43.4164 100.85 43.4344 101.009 43.5035C101.168 43.5734 101.296 43.6927 101.393 43.8613C101.491 44.0299 101.529 44.2003 101.509 44.3726C101.49 44.5445 101.414 44.7112 101.282 44.8728C101.15 45.0347 100.965 45.1847 100.726 45.3226C100.486 45.4614 100.262 45.5479 100.055 45.5822C99.8492 45.6161 99.6665 45.5987 99.5072 45.5299C99.3487 45.4608 99.2205 45.3415 99.1228 45.1722ZM99.4101 45.0063C99.4962 45.1556 99.6364 45.2301 99.8305 45.2299C100.025 45.2305 100.26 45.1513 100.535 44.9922C100.718 44.8866 100.862 44.778 100.966 44.6663C101.071 44.555 101.135 44.4446 101.159 44.3352C101.184 44.226 101.168 44.1223 101.111 44.024C101.026 43.8755 100.885 43.8012 100.69 43.801C100.495 43.8009 100.26 43.8798 99.9844 44.0377C99.8007 44.1437 99.6564 44.2524 99.5513 44.3638C99.4474 44.4754 99.3834 44.5856 99.3591 44.6943C99.3355 44.8026 99.3525 44.9066 99.4101 45.0063ZM100.861 46.3764C100.912 46.4652 100.936 46.5579 100.932 46.6542C100.931 46.7495 100.907 46.8387 100.861 46.9219C100.814 47.0052 100.747 47.0725 100.658 47.1238C100.571 47.1739 100.479 47.1988 100.382 47.1984C100.287 47.1968 100.197 47.1729 100.114 47.1266C100.031 47.0804 99.9635 47.0129 99.9122 46.924C99.8621 46.8371 99.8372 46.7451 99.8376 46.6478C99.8392 46.5526 99.8626 46.4624 99.9076 46.3771C99.9558 46.2927 100.023 46.2254 100.11 46.1753C100.199 46.124 100.291 46.0991 100.386 46.1007C100.483 46.1043 100.573 46.1292 100.656 46.1754C100.742 46.2225 100.811 46.2895 100.861 46.3764ZM100.094 46.819C100.141 46.8998 100.209 46.9522 100.298 46.9761C100.387 47 100.472 46.9886 100.553 46.942C100.607 46.9105 100.648 46.8693 100.676 46.8186C100.706 46.7687 100.722 46.7139 100.722 46.6543C100.723 46.5947 100.707 46.5376 100.676 46.4831C100.646 46.4306 100.604 46.3897 100.552 46.3604C100.501 46.3311 100.445 46.3161 100.385 46.3155C100.328 46.3138 100.272 46.3286 100.217 46.3601C100.164 46.3905 100.123 46.4322 100.091 46.4853C100.062 46.5372 100.047 46.5929 100.046 46.6526C100.048 46.711 100.064 46.7665 100.094 46.819Z" fill="#333333"/>
<path opacity="0.5" d="M33.2859 46.3388C33.2006 46.4865 33.0989 46.6038 32.9809 46.6907C32.8633 46.7768 32.7398 46.8274 32.6104 46.8427C32.4808 46.8568 32.3546 46.8318 32.2319 46.7676L32.427 46.4297C32.4948 46.4631 32.5641 46.474 32.635 46.4622C32.7055 46.4494 32.7723 46.4182 32.8354 46.3685C32.8985 46.3188 32.9529 46.2546 32.9984 46.1756C33.0486 46.0888 33.0778 46.0034 33.0862 45.9193C33.095 45.8344 33.0835 45.7575 33.0516 45.6884C33.019 45.6189 32.9672 45.5636 32.8962 45.5226C32.8223 45.4799 32.7464 45.4615 32.6685 45.4672C32.5903 45.4718 32.5141 45.501 32.44 45.5548C32.3663 45.6079 32.3001 45.6854 32.2412 45.7873L32.1337 45.9734L31.8626 45.8169L31.97 45.6307C32.0173 45.5489 32.044 45.4687 32.0502 45.39C32.0568 45.3106 32.0441 45.2382 32.012 45.1728C31.9792 45.107 31.9273 45.0536 31.8563 45.0126C31.7881 44.9732 31.72 44.9545 31.652 44.9564C31.5837 44.9571 31.519 44.9771 31.458 45.0165C31.3974 45.0552 31.3454 45.1122 31.3019 45.1875C31.2605 45.2593 31.235 45.334 31.2255 45.4118C31.2157 45.4884 31.224 45.5601 31.2504 45.627C31.2761 45.6935 31.3219 45.7477 31.3877 45.7895L31.2019 46.1112C31.0849 46.0389 31.0004 45.9433 30.9485 45.8244C30.8971 45.7047 30.8778 45.575 30.8906 45.4351C30.9035 45.2952 30.9488 45.1578 31.0267 45.0229C31.1083 44.8816 31.2063 44.7756 31.3208 44.7049C31.435 44.6331 31.5538 44.5955 31.6772 44.5921C31.801 44.588 31.9169 44.6176 32.0248 44.6809C32.1486 44.7514 32.2335 44.8463 32.2794 44.9656C32.3257 45.0842 32.3305 45.2094 32.2936 45.3411L32.3108 45.3511C32.4176 45.2176 32.5411 45.1378 32.6815 45.1117C32.8223 45.0849 32.9621 45.112 33.1008 45.1931C33.2225 45.2624 33.3117 45.3588 33.3685 45.4825C33.4257 45.6054 33.4482 45.7413 33.4359 45.8901C33.4229 46.0386 33.3729 46.1881 33.2859 46.3388ZM34.4725 44.2984C34.3737 44.468 34.2449 44.5874 34.0864 44.6566C33.9278 44.7257 33.7451 44.7432 33.5382 44.7088C33.3313 44.6745 33.1081 44.5882 32.8685 44.4499C32.6296 44.3119 32.4439 44.1622 32.3114 44.0006C32.1794 43.8382 32.1037 43.6711 32.0843 43.4992C32.0654 43.3266 32.1046 43.156 32.2019 42.9874C32.2992 42.8188 32.4275 42.7002 32.5868 42.6314C32.7454 42.5623 32.9277 42.5446 33.1339 42.5785C33.3398 42.6113 33.5621 42.6966 33.801 42.8346C34.0414 42.9733 34.2281 43.1237 34.3613 43.2857C34.4937 43.4473 34.57 43.6143 34.5901 43.7866C34.6095 43.9585 34.5703 44.1291 34.4725 44.2984ZM34.1852 44.1325C34.2714 43.9833 34.2659 43.8247 34.1687 43.6566C34.0719 43.4879 33.8858 43.324 33.6103 43.1649C33.4274 43.0593 33.2616 42.9894 33.1129 42.9553C32.964 42.92 32.8362 42.9194 32.7295 42.9534C32.6225 42.9863 32.5406 43.0519 32.4838 43.1502C32.3981 43.2987 32.404 43.4576 32.5015 43.6267C32.5989 43.7959 32.7849 43.9601 33.0592 44.1195C33.2429 44.2255 33.4092 44.2962 33.5581 44.3315C33.7067 44.3656 33.8342 44.366 33.9405 44.3327C34.0461 44.299 34.1276 44.2322 34.1852 44.1325ZM35.6544 42.2513C35.5555 42.421 35.4268 42.5403 35.2683 42.6095C35.1097 42.6787 34.927 42.6961 34.7201 42.6618C34.5132 42.6275 34.29 42.5411 34.0503 42.4028C33.8114 42.2649 33.6258 42.1151 33.4933 41.9535C33.3613 41.7912 33.2856 41.6241 33.2662 41.4522C33.2472 41.2796 33.2864 41.109 33.3838 40.9404C33.4811 40.7718 33.6094 40.6531 33.7687 40.5844C33.9272 40.5152 34.1096 40.4976 34.3158 40.5315C34.5216 40.5642 34.744 40.6496 34.9829 40.7875C35.2232 40.9263 35.41 41.0767 35.5432 41.2387C35.6756 41.4003 35.7519 41.5672 35.772 41.7395C35.7913 41.9114 35.7522 42.082 35.6544 42.2513ZM35.3671 42.0855C35.4532 41.9362 35.4477 41.7776 35.3505 41.6096C35.2538 41.4408 35.0677 41.277 34.7922 41.1179C34.6092 41.0123 34.4434 40.9424 34.2948 40.9082C34.1459 40.8729 34.0181 40.8723 33.9113 40.9064C33.8043 40.9393 33.7225 41.0049 33.6657 41.1032C33.58 41.2517 33.5858 41.4105 33.6833 41.5797C33.7808 41.7488 33.9667 41.9131 34.2411 42.0724C34.4247 42.1785 34.591 42.2491 34.74 42.2844C34.8886 42.3186 35.0161 42.319 35.1224 42.2857C35.2279 42.2519 35.3095 42.1852 35.3671 42.0855ZM35.8282 40.1442C35.8796 40.0553 35.9479 39.9883 36.0331 39.9432C36.1164 39.897 36.2056 39.8731 36.3008 39.8715C36.396 39.8699 36.4881 39.8948 36.5769 39.9461C36.6638 39.9963 36.7314 40.0635 36.7796 40.148C36.8258 40.2312 36.8497 40.3204 36.8513 40.4156C36.8529 40.5108 36.8281 40.6029 36.7768 40.6918C36.7266 40.7786 36.6593 40.8462 36.5749 40.8944C36.4916 40.9407 36.4018 40.9656 36.3055 40.9692C36.2082 40.9696 36.1162 40.9448 36.0293 40.8946C35.9404 40.8433 35.8729 40.776 35.8267 40.6928C35.7816 40.6075 35.7583 40.5172 35.7567 40.422C35.7542 40.3237 35.7781 40.231 35.8282 40.1442ZM36.5949 40.5868C36.6416 40.506 36.653 40.421 36.6291 40.3317C36.6051 40.2425 36.5528 40.1746 36.472 40.1279C36.4174 40.0964 36.3614 40.0816 36.3038 40.0833C36.2453 40.0819 36.1901 40.0959 36.1382 40.1251C36.0863 40.1544 36.0446 40.1963 36.0131 40.2509C35.9828 40.3034 35.9679 40.3595 35.9685 40.4191C35.9691 40.4787 35.9841 40.5345 36.0133 40.5864C36.0406 40.6371 36.0815 40.6783 36.1361 40.7098C36.1886 40.7401 36.2457 40.7555 36.3073 40.7561C36.3669 40.7555 36.4227 40.7405 36.4746 40.7113C36.5245 40.6808 36.5646 40.6393 36.5949 40.5868Z" fill="#333333"/>
<path opacity="0.5" d="M36.1973 83.5036L35.9563 83.6428L34.753 83.3431C34.6231 83.3119 34.5117 83.2887 34.4187 83.2735C34.3246 83.258 34.2414 83.2539 34.1691 83.2612C34.0968 83.2686 34.0284 83.2908 33.9638 83.3281C33.8907 83.3704 33.8375 83.424 33.8043 83.4891C33.7703 83.5546 33.7562 83.6254 33.7619 83.7015C33.7669 83.7781 33.7909 83.8536 33.834 83.9283C33.8795 84.0072 33.9354 84.0667 34.0017 84.1069C34.0679 84.1471 34.1396 84.166 34.2166 84.1636C34.2937 84.1612 34.3717 84.1372 34.4506 84.0917L34.6339 84.4091C34.4997 84.4866 34.3646 84.5235 34.2285 84.5197C34.0925 84.516 33.9658 84.4763 33.8484 84.4006C33.7303 84.3253 33.6317 84.2191 33.5526 84.0821C33.4726 83.9436 33.4298 83.8057 33.4242 83.6684C33.4174 83.5307 33.4442 83.4048 33.5045 83.2906C33.5641 83.1768 33.6531 83.0857 33.7715 83.0173C33.8533 82.9701 33.9422 82.9394 34.0382 82.9251C34.1338 82.91 34.2514 82.9124 34.391 82.9323C34.5299 82.9525 34.7063 82.9904 34.92 83.0458L35.6313 83.2191L35.6475 83.2098L35.0746 82.2176L35.3598 82.053L36.1973 83.5036ZM34.6954 81.8963L34.4264 82.0517L32.3721 81.9679L32.2497 81.7559L32.6457 81.5272L32.7234 81.6618L34.195 81.7204L34.2122 81.7105L33.4585 80.4051L33.7405 80.2423L34.6954 81.8963ZM34.5226 80.6029L34.0104 80.8986L33.8864 80.9673L32.3174 81.8732L32.1354 81.5579L34.3393 80.2854L34.5226 80.6029ZM33.4955 78.7395C33.593 78.9099 33.632 79.0811 33.6126 79.253C33.5933 79.4248 33.517 79.5918 33.3838 79.7538C33.2507 79.9158 33.0643 80.066 32.8247 80.2044C32.5858 80.3423 32.3632 80.4282 32.157 80.4621C31.9504 80.4953 31.7679 80.4773 31.6093 80.4081C31.4504 80.3382 31.3222 80.219 31.2249 80.0504C31.1275 79.8818 31.0889 79.7114 31.109 79.5391C31.1284 79.3672 31.2043 79.2004 31.3368 79.0388C31.4681 78.8769 31.6532 78.727 31.8921 78.5891C32.1324 78.4503 32.356 78.3638 32.5629 78.3295C32.7691 78.2956 32.9518 78.313 33.1111 78.3817C33.2696 78.4509 33.3978 78.5701 33.4955 78.7395ZM33.2082 78.9053C33.122 78.7561 32.9819 78.6816 32.7878 78.6817C32.5933 78.6812 32.3583 78.7604 32.0828 78.9195C31.8999 79.0251 31.7565 79.1337 31.6526 79.2453C31.5475 79.3567 31.4831 79.4671 31.4592 79.5765C31.4342 79.6856 31.4501 79.7893 31.5068 79.8876C31.5926 80.0361 31.7331 80.1105 31.9283 80.1106C32.1235 80.1108 32.3587 80.0319 32.6339 79.874C32.8176 79.7679 32.9619 79.6593 33.067 79.5479C33.1708 79.4363 33.2349 79.3261 33.2592 79.2174C33.2828 79.1091 33.2658 79.0051 33.2082 78.9053ZM31.7576 77.5353C31.7062 77.4464 31.6824 77.3538 31.686 77.2574C31.6876 77.1622 31.7115 77.073 31.7577 76.9897C31.804 76.9065 31.8715 76.8392 31.9604 76.7879C32.0473 76.7377 32.1393 76.7129 32.2365 76.7133C32.3317 76.7149 32.421 76.7388 32.5042 76.785C32.5875 76.8313 32.6548 76.8988 32.7061 76.9877C32.7562 77.0746 32.7811 77.1666 32.7807 77.2638C32.7791 77.359 32.7557 77.4493 32.7107 77.5345C32.6624 77.619 32.5949 77.6862 32.508 77.7364C32.4191 77.7877 32.3271 77.8126 32.2319 77.811C32.1355 77.8074 32.0457 77.7824 31.9625 77.7362C31.876 77.6892 31.8077 77.6222 31.7576 77.5353ZM32.5243 77.0927C32.4776 77.0119 32.4097 76.9595 32.3204 76.9356C32.2312 76.9117 32.1462 76.9231 32.0654 76.9697C32.0108 77.0012 31.9699 77.0423 31.9427 77.0931C31.9122 77.143 31.8967 77.1978 31.8961 77.2574C31.8955 77.317 31.9109 77.374 31.9424 77.4286C31.9727 77.4811 32.0139 77.522 32.0658 77.5513C32.1177 77.5806 32.1735 77.5955 32.2331 77.5961C32.2907 77.5979 32.3467 77.583 32.4013 77.5516C32.4538 77.5212 32.4957 77.4795 32.527 77.4264C32.5563 77.3745 32.5713 77.3187 32.5719 77.2591C32.5705 77.2007 32.5546 77.1452 32.5243 77.0927Z" fill="#333333"/>
<path opacity="0.5" d="M101.964 79.8415L99.7603 78.5691L99.9529 78.2355L101.823 79.3153L101.831 79.3024L101.791 78.5763L102.109 78.7602L102.151 79.5176L101.964 79.8415ZM99.3636 79.2562L99.6046 79.3953L99.9467 80.5872C99.9847 80.7153 100.02 80.8234 100.054 80.9115C100.087 81.0007 100.125 81.0748 100.168 81.1338C100.21 81.1927 100.264 81.2409 100.328 81.2781C100.402 81.3204 100.475 81.3396 100.548 81.3358C100.621 81.3325 100.69 81.3093 100.753 81.2663C100.817 81.2238 100.87 81.1652 100.913 81.0906C100.959 81.0116 100.982 80.9334 100.984 80.856C100.986 80.7785 100.966 80.707 100.926 80.6415C100.885 80.5759 100.825 80.5204 100.746 80.4748L100.93 80.1574C101.064 80.2348 101.163 80.3334 101.228 80.4531C101.293 80.5728 101.322 80.7024 101.315 80.8419C101.309 80.9818 101.266 81.1203 101.187 81.2573C101.107 81.3958 101.009 81.5018 100.893 81.5753C100.777 81.65 100.655 81.6898 100.525 81.6947C100.397 81.7 100.274 81.6685 100.155 81.6001C100.074 81.5529 100.003 81.4913 99.9421 81.4153C99.8813 81.34 99.8246 81.237 99.7719 81.1061C99.72 80.9757 99.6646 80.8041 99.6058 80.5912L99.4002 79.8885L99.3841 79.8792L98.8112 80.8714L98.5261 80.7068L99.3636 79.2562ZM97.7585 81.9517C97.8574 81.7821 97.9861 81.6627 98.1447 81.5935C98.3032 81.5244 98.4859 81.5069 98.6928 81.5413C98.8997 81.5756 99.123 81.6619 99.3626 81.8002C99.6015 81.9382 99.7872 82.0879 99.9196 82.2495C100.052 82.4119 100.127 82.579 100.147 82.7509C100.166 82.9235 100.126 83.0941 100.029 83.2627C99.9318 83.4312 99.8035 83.5499 99.6443 83.6187C99.4857 83.6878 99.3033 83.7055 99.0972 83.6716C98.8913 83.6388 98.6689 83.5534 98.43 83.4155C98.1897 83.2768 98.0029 83.1264 97.8698 82.9644C97.7373 82.8028 97.661 82.6358 97.641 82.4635C97.6216 82.2916 97.6608 82.121 97.7585 81.9517ZM98.0458 82.1176C97.9597 82.2668 97.9652 82.4254 98.0624 82.5935C98.1591 82.7622 98.3453 82.9261 98.6208 83.0851C98.8037 83.1908 98.9695 83.2607 99.1181 83.2948C99.2671 83.3301 99.3949 83.3307 99.5016 83.2967C99.6086 83.2638 99.6905 83.1982 99.7472 83.0999C99.8329 82.9514 99.8271 82.7925 99.7296 82.6234C99.6321 82.4542 99.4462 82.29 99.1718 82.1306C98.9882 82.0246 98.8219 81.9539 98.673 81.9186C98.5243 81.8845 98.3969 81.8841 98.2906 81.9174C98.185 81.9511 98.1034 82.0179 98.0458 82.1176ZM97.5847 84.0589C97.5334 84.1478 97.4651 84.2148 97.3798 84.2598C97.2965 84.306 97.2073 84.3299 97.1121 84.3315C97.0169 84.3331 96.9249 84.3083 96.836 84.2569C96.7491 84.2068 96.6816 84.1395 96.6333 84.0551C96.5871 83.9718 96.5632 83.8826 96.5616 83.7874C96.56 83.6922 96.5848 83.6002 96.6362 83.5113C96.6863 83.4244 96.7536 83.3568 96.838 83.3086C96.9213 83.2624 97.0111 83.2375 97.1075 83.2339C97.2047 83.2334 97.2967 83.2583 97.3836 83.3084C97.4725 83.3598 97.54 83.427 97.5863 83.5103C97.6313 83.5956 97.6546 83.6858 97.6562 83.781C97.6587 83.8794 97.6348 83.972 97.5847 84.0589ZM96.818 83.6162C96.7713 83.6971 96.76 83.7821 96.7839 83.8713C96.8078 83.9605 96.8601 84.0285 96.941 84.0751C96.9955 84.1066 97.0516 84.1215 97.1092 84.1197C97.1676 84.1211 97.2228 84.1072 97.2747 84.0779C97.3266 84.0486 97.3683 84.0067 97.3998 83.9522C97.4302 83.8996 97.445 83.8436 97.4444 83.784C97.4438 83.7244 97.4289 83.6686 97.3996 83.6167C97.3723 83.5659 97.3314 83.5248 97.2769 83.4933C97.2243 83.463 97.1673 83.4475 97.1056 83.447C97.046 83.4476 96.9903 83.4625 96.9383 83.4918C96.8884 83.5222 96.8483 83.5637 96.818 83.6162Z" fill="#333333"/>
<path opacity="0.5" d="M51.1803 96.2818L51.0207 96.5099L49.8036 96.7468C49.6726 96.7734 49.5618 96.7995 49.4712 96.825C49.3793 96.8507 49.3022 96.8822 49.2398 96.9193C49.1773 96.9565 49.1247 97.0057 49.082 97.0667C49.0335 97.1359 49.008 97.2071 49.0054 97.2801C49.0023 97.3538 49.0194 97.4239 49.0568 97.4905C49.0936 97.5578 49.1473 97.6161 49.2179 97.6655C49.2925 97.7178 49.3684 97.7481 49.4454 97.7566C49.5224 97.765 49.5953 97.7518 49.6642 97.7171C49.733 97.6824 49.7935 97.6277 49.8458 97.553L50.1461 97.7633C50.0572 97.8902 49.9503 97.9807 49.8255 98.0348C49.7006 98.089 49.569 98.1065 49.4306 98.0875C49.2917 98.0692 49.1575 98.0146 49.0279 97.9239C48.8969 97.8322 48.7999 97.7253 48.7367 97.6032C48.6724 97.4813 48.6434 97.3558 48.6498 97.2268C48.6557 97.0985 48.6979 96.9783 48.7763 96.8663C48.8305 96.789 48.898 96.7235 48.979 96.67C49.0593 96.616 49.1669 96.5685 49.3018 96.5274C49.4363 96.4871 49.6121 96.4468 49.8293 96.4068L50.5472 96.2632L50.5579 96.248L49.6194 95.5908L49.8082 95.3211L51.1803 96.2818ZM47.0859 96.5216L48.5456 94.437L48.8611 94.6579L47.6224 96.427L47.6346 96.4355L48.3614 96.4591L48.1505 96.7604L47.3923 96.7361L47.0859 96.5216ZM47.1941 93.4391C47.3545 93.5524 47.4622 93.691 47.5173 93.855C47.5724 94.019 47.5738 94.2025 47.5216 94.4056C47.4694 94.6087 47.3639 94.8236 47.2052 95.0503C47.047 95.2762 46.8816 95.4482 46.7091 95.566C46.5359 95.6834 46.3628 95.7443 46.1899 95.7486C46.0163 95.7524 45.8497 95.6985 45.6903 95.5868C45.5308 95.4752 45.4238 95.337 45.3692 95.1724C45.3141 95.0084 45.3124 94.8252 45.3642 94.6228C45.4147 94.4205 45.5191 94.2064 45.6774 93.9805C45.8365 93.7531 46.0026 93.5802 46.1756 93.4617C46.3482 93.3438 46.5211 93.2824 46.6945 93.2774C46.8675 93.2731 47.034 93.327 47.1941 93.4391ZM47.0038 93.7109C46.8627 93.612 46.7042 93.6037 46.5283 93.6859C46.3518 93.7676 46.1723 93.9387 45.9899 94.1993C45.8687 94.3723 45.7846 94.5314 45.7376 94.6765C45.6895 94.8218 45.6777 94.949 45.7024 95.0583C45.7258 95.1678 45.784 95.2551 45.877 95.3202C46.0175 95.4185 46.1762 95.4265 46.3532 95.3441C46.5302 95.2618 46.7101 95.0909 46.8927 94.8315C47.0144 94.6577 47.0993 94.4982 47.1474 94.3529C47.1944 94.2079 47.2059 94.0809 47.182 93.9721C47.1575 93.864 47.0982 93.7769 47.0038 93.7109ZM45.1101 93.0823C45.026 93.0234 44.9653 92.9495 44.9278 92.8607C44.8891 92.7737 44.873 92.6827 44.8797 92.5877C44.8864 92.4928 44.9192 92.4032 44.9781 92.3192C45.0356 92.237 45.1085 92.1756 45.1968 92.1349C45.2838 92.0961 45.3748 92.08 45.4697 92.0867C45.5647 92.0934 45.6543 92.1262 45.7383 92.1851C45.8205 92.2426 45.8819 92.3156 45.9226 92.4039C45.9614 92.4908 45.9784 92.5825 45.9736 92.6788C45.9656 92.7757 45.9328 92.8652 45.8753 92.9474C45.8164 93.0314 45.7435 93.0929 45.6565 93.1317C45.5676 93.1691 45.4757 93.1845 45.3807 93.1778C45.2825 93.1716 45.1923 93.1398 45.1101 93.0823ZM45.6179 92.3571C45.5415 92.3036 45.4578 92.2848 45.3668 92.3009C45.2758 92.3169 45.2036 92.3631 45.1501 92.4396C45.1139 92.4912 45.0942 92.5457 45.091 92.6033C45.0845 92.6614 45.0935 92.7175 45.1182 92.7718C45.1428 92.8261 45.181 92.8713 45.2326 92.9074C45.2822 92.9422 45.3368 92.9619 45.3962 92.9665C45.4557 92.9711 45.5125 92.9611 45.5668 92.9364C45.6197 92.9137 45.6643 92.8765 45.7004 92.8249C45.7352 92.7753 45.7556 92.7197 45.7615 92.6584C45.7661 92.599 45.7561 92.5421 45.7314 92.4878C45.7054 92.4355 45.6676 92.3919 45.6179 92.3571Z" fill="#333333"/>
<path opacity="0.5" d="M87.9617 95.2438L86.502 93.1591L86.8176 92.9382L88.0563 94.7073L88.0685 94.6987L88.3392 94.0238L88.5502 94.3251L88.2681 95.0292L87.9617 95.2438ZM85.1441 94.0675C85.2717 93.9782 85.4035 93.9223 85.5395 93.8999C85.6753 93.8786 85.8035 93.8899 85.9243 93.9338C86.045 93.9777 86.1461 94.0536 86.2276 94.1613L85.9223 94.3751C85.8521 94.2908 85.7608 94.245 85.6485 94.2376C85.5362 94.2303 85.4298 94.2618 85.3294 94.3322C85.2493 94.3882 85.1912 94.4562 85.1552 94.5361C85.1189 94.6171 85.1059 94.7026 85.1162 94.7924C85.1258 94.8827 85.1599 94.9696 85.2183 95.0531C85.2777 95.1379 85.349 95.2008 85.4322 95.2416C85.5155 95.2825 85.6026 95.2993 85.6937 95.2922C85.7841 95.2855 85.8709 95.2535 85.9542 95.1962C86.0173 95.152 86.0731 95.0968 86.1217 95.0304C86.1703 94.964 86.2019 94.8994 86.2165 94.8365L86.5345 94.6776L87.153 95.81L86.0069 96.6126L85.818 96.3428L86.7026 95.7234L86.3603 95.0939L86.3481 95.1024C86.3349 95.1703 86.304 95.241 86.2554 95.3145C86.2061 95.3885 86.1427 95.4525 86.0654 95.5067C85.9385 95.5956 85.8043 95.6445 85.663 95.6535C85.5209 95.6629 85.3848 95.6353 85.2547 95.5707C85.1243 95.5073 85.0121 95.4078 84.9183 95.2723C84.823 95.1378 84.7692 94.9959 84.7569 94.8468C84.7438 94.6982 84.7702 94.5553 84.836 94.4182C84.9016 94.2823 85.0043 94.1654 85.1441 94.0675ZM83.2387 95.3926C83.4 95.2807 83.5671 95.2268 83.74 95.2312C83.9129 95.2355 84.0859 95.2969 84.2589 95.4155C84.4319 95.534 84.5978 95.7066 84.7565 95.9332C84.9147 96.1592 85.0197 96.3734 85.0714 96.5758C85.1225 96.7788 85.1205 96.9622 85.0654 97.1262C85.0096 97.2906 84.902 97.4287 84.7425 97.5403C84.5831 97.652 84.4166 97.7053 84.2432 97.7003C84.0703 97.696 83.8976 97.6349 83.7251 97.5171C83.5523 97.4004 83.3868 97.229 83.2286 97.003C83.0694 96.7757 82.9637 96.5605 82.9115 96.3574C82.8598 96.1549 82.8612 95.9714 82.9158 95.8067C82.9709 95.6428 83.0785 95.5047 83.2387 95.3926ZM83.429 95.6644C83.2878 95.7632 83.2258 95.9093 83.2428 96.1026C83.2592 96.2965 83.3587 96.5237 83.5411 96.7842C83.6623 96.9573 83.783 97.0907 83.9033 97.1845C84.0233 97.2794 84.1389 97.334 84.25 97.3482C84.3609 97.3636 84.4628 97.3387 84.5558 97.2736C84.6963 97.1753 84.7581 97.0289 84.7412 96.8344C84.7244 96.6399 84.6253 96.4124 84.444 96.152C84.3223 95.9783 84.2015 95.844 84.0814 95.7491C83.9611 95.6553 83.8458 95.6011 83.7354 95.5863C83.6254 95.5723 83.5233 95.5983 83.429 95.6644ZM82.1906 97.2289C82.1065 97.2878 82.0163 97.3196 81.92 97.3244C81.825 97.3311 81.734 97.315 81.6471 97.2763C81.5601 97.2375 81.4872 97.176 81.4283 97.092C81.3708 97.0098 81.338 96.9203 81.33 96.8234C81.3233 96.7284 81.3393 96.6374 81.3781 96.5505C81.4169 96.4635 81.4783 96.3906 81.5624 96.3317C81.6446 96.2742 81.7341 96.2414 81.831 96.2333C81.926 96.2266 82.0179 96.242 82.1068 96.2795C82.1951 96.3202 82.268 96.3816 82.3255 96.4638C82.3844 96.5478 82.4172 96.6374 82.4239 96.7323C82.4287 96.8287 82.4117 96.9203 82.3729 97.0073C82.3335 97.0975 82.2728 97.1714 82.1906 97.2289ZM81.6828 96.5037C81.6064 96.5572 81.5601 96.6295 81.5441 96.7204C81.5281 96.8114 81.5468 96.8951 81.6003 96.9715C81.6364 97.0231 81.681 97.0603 81.7339 97.083C81.7863 97.109 81.8422 97.1197 81.9016 97.1151C81.9611 97.1105 82.0166 97.0902 82.0682 97.054C82.1178 97.0192 82.155 96.9747 82.1797 96.9204C82.2043 96.8662 82.2143 96.8093 82.2097 96.7499C82.2065 96.6923 82.1868 96.6378 82.1507 96.5862C82.1159 96.5365 82.0707 96.4984 82.015 96.4718C81.9608 96.4472 81.9039 96.4372 81.8445 96.4418C81.7864 96.4483 81.7325 96.4689 81.6828 96.5037Z" fill="#333333"/>
<path d="M68.3114 5.99959V11.1631H67.5953L64.9707 7.37619H64.9228V11.1631H64.1438V5.99959H64.8648L67.492 9.79153H67.5399V5.99959H68.3114Z" fill="#F70000"/>
<path d="M119.561 64.3125V59.149H122.798V59.8197H120.34V61.3929H122.629V62.061H120.34V63.6419H122.829V64.3125H119.561Z" fill="#47515C"/>
<path d="M67.0853 116.135C67.0584 115.897 66.9474 115.712 66.7525 115.581C66.5575 115.448 66.3121 115.381 66.0163 115.381C65.8045 115.381 65.6213 115.415 65.4666 115.482C65.312 115.548 65.1918 115.639 65.1061 115.755C65.0221 115.869 64.98 115.999 64.98 116.145C64.98 116.268 65.0086 116.374 65.0658 116.463C65.1246 116.552 65.2011 116.627 65.2952 116.687C65.391 116.746 65.4935 116.796 65.6028 116.836C65.712 116.875 65.8171 116.907 65.9179 116.932L66.4222 117.063C66.5869 117.103 66.7558 117.158 66.929 117.227C67.1021 117.296 67.2626 117.387 67.4105 117.499C67.5584 117.612 67.6778 117.751 67.7685 117.918C67.861 118.084 67.9072 118.283 67.9072 118.515C67.9072 118.808 67.8316 119.068 67.6803 119.294C67.5307 119.521 67.313 119.7 67.0273 119.831C66.7432 119.963 66.3995 120.028 65.9961 120.028C65.6095 120.028 65.275 119.967 64.9926 119.844C64.7103 119.721 64.4892 119.547 64.3296 119.322C64.1699 119.095 64.0816 118.826 64.0648 118.515H64.8464C64.8615 118.702 64.9221 118.857 65.0279 118.982C65.1355 119.104 65.2725 119.196 65.4389 119.257C65.607 119.315 65.791 119.345 65.9911 119.345C66.2112 119.345 66.4071 119.31 66.5785 119.241C66.7516 119.171 66.8878 119.073 66.9869 118.949C67.0861 118.823 67.1357 118.676 67.1357 118.508C67.1357 118.355 67.092 118.23 67.0046 118.132C66.9189 118.035 66.8021 117.954 66.6541 117.89C66.5079 117.826 66.3423 117.77 66.1575 117.721L65.5473 117.555C65.1338 117.442 64.8061 117.277 64.564 117.058C64.3237 116.84 64.2035 116.55 64.2035 116.191C64.2035 115.893 64.2842 115.634 64.4455 115.412C64.6069 115.19 64.8254 115.018 65.1011 114.895C65.3767 114.77 65.6877 114.708 66.0339 114.708C66.3835 114.708 66.692 114.77 66.9592 114.892C67.2281 115.015 67.4399 115.184 67.5946 115.399C67.7492 115.613 67.8299 115.858 67.8366 116.135H67.0853Z" fill="#47515C"/>
<path d="M9.43234 65.2002L8.00028 60.0367H8.81968L9.82566 64.0354H9.87356L10.9199 60.0367H11.7317L12.778 64.0379H12.8259L13.8294 60.0367H14.6513L13.2167 65.2002H12.4326L11.346 61.3326H11.3056L10.219 65.2002H9.43234Z" fill="#47515C"/>
<path d="M67.6754 101.813V98.7148H68.2367V101.267H68.2548L68.9794 100.804V101.318L68.2094 101.813H67.6754ZM65.6597 98.6725C65.8846 98.6725 66.0843 98.7103 66.2588 98.7859C66.4322 98.8616 66.5684 98.965 66.6672 99.0961C66.765 99.2282 66.8135 99.3779 66.8124 99.5453C66.8135 99.6754 66.7852 99.7949 66.7277 99.9039C66.6702 100.013 66.5926 100.104 66.4948 100.176C66.3959 100.25 66.286 100.297 66.165 100.317V100.338C66.3243 100.373 66.4534 100.454 66.5523 100.582C66.6501 100.71 66.6985 100.857 66.6975 101.025C66.6985 101.184 66.6541 101.326 66.5644 101.451C66.4746 101.576 66.3516 101.675 66.1952 101.746C66.0389 101.819 65.8604 101.855 65.6597 101.855C65.4611 101.855 65.2841 101.819 65.1288 101.746C64.9724 101.675 64.8494 101.576 64.7597 101.451C64.6689 101.326 64.6235 101.184 64.6235 101.025C64.6235 100.857 64.6734 100.71 64.7733 100.582C64.8721 100.454 64.9997 100.373 65.156 100.338V100.317C65.035 100.297 64.9261 100.25 64.8292 100.176C64.7314 100.104 64.6538 100.013 64.5963 99.9039C64.5378 99.7949 64.5085 99.6754 64.5085 99.5453C64.5085 99.3779 64.558 99.2282 64.6568 99.0961C64.7556 98.965 64.8918 98.8616 65.0652 98.7859C65.2377 98.7103 65.4358 98.6725 65.6597 98.6725ZM65.6597 99.1051C65.5438 99.1051 65.4429 99.1248 65.3572 99.1641C65.2715 99.2045 65.2049 99.2609 65.1575 99.3336C65.1101 99.4062 65.0859 99.4899 65.0849 99.5847C65.0859 99.6835 65.1116 99.7707 65.162 99.8464C65.2115 99.923 65.2795 99.983 65.3663 100.026C65.452 100.07 65.5498 100.091 65.6597 100.091C65.7707 100.091 65.8695 100.07 65.9562 100.026C66.043 99.983 66.1115 99.923 66.162 99.8464C66.2114 99.7707 66.2356 99.6835 66.2346 99.5847C66.2356 99.4899 66.2124 99.4062 66.165 99.3336C66.1176 99.262 66.051 99.206 65.9653 99.1656C65.8786 99.1253 65.7767 99.1051 65.6597 99.1051ZM65.6597 100.517C65.5649 100.517 65.4812 100.536 65.4086 100.574C65.335 100.612 65.277 100.666 65.2347 100.734C65.1923 100.803 65.1706 100.882 65.1696 100.972C65.1706 101.061 65.1918 101.138 65.2331 101.205C65.2745 101.272 65.332 101.324 65.4056 101.361C65.4792 101.398 65.5639 101.417 65.6597 101.417C65.7576 101.417 65.8438 101.398 65.9184 101.361C65.992 101.324 66.0495 101.272 66.0909 101.205C66.1312 101.138 66.1509 101.061 66.1499 100.972C66.1509 100.882 66.1307 100.803 66.0894 100.734C66.047 100.667 65.989 100.613 65.9154 100.574C65.8408 100.536 65.7555 100.517 65.6597 100.517ZM62.7822 98.6634C63.0212 98.6644 63.2254 98.7274 63.3948 98.8525C63.5642 98.9776 63.6938 99.1596 63.7836 99.3986C63.8733 99.6376 63.9182 99.9255 63.9182 100.262C63.9182 100.598 63.8733 100.885 63.7836 101.123C63.6928 101.361 63.5627 101.543 63.3933 101.668C63.2229 101.793 63.0191 101.855 62.7822 101.855C62.5452 101.855 62.3419 101.792 62.1725 101.666C62.0031 101.541 61.8735 101.36 61.7837 101.122C61.693 100.885 61.6476 100.598 61.6476 100.262C61.6476 99.9245 61.6925 99.6361 61.7822 99.3971C61.872 99.1591 62.0016 98.9771 62.171 98.851C62.3404 98.7259 62.5441 98.6634 62.7822 98.6634ZM62.7822 99.0673C62.5724 99.0673 62.4085 99.1697 62.2905 99.3744C62.1715 99.5791 62.112 99.8751 62.112 100.262C62.112 100.52 62.1392 100.737 62.1937 100.914C62.2471 101.093 62.3243 101.228 62.4251 101.32C62.525 101.413 62.644 101.459 62.7822 101.459C62.9909 101.459 63.1548 101.356 63.2738 101.15C63.3928 100.945 63.4528 100.649 63.4538 100.262C63.4538 100.004 63.4271 99.7859 63.3736 99.6074C63.3192 99.4299 63.242 99.2952 63.1422 99.2035C63.0423 99.1127 62.9223 99.0673 62.7822 99.0673ZM60.3632 99.767C60.2383 99.767 60.1247 99.7358 60.0224 99.6733C59.9202 99.6137 59.8393 99.5327 59.7796 99.4305C59.7171 99.3283 59.6859 99.2147 59.6859 99.0897C59.6859 98.9648 59.7171 98.8512 59.7796 98.7489C59.8393 98.6467 59.9202 98.5657 60.0224 98.5061C60.1247 98.4436 60.2383 98.4124 60.3632 98.4124C60.4882 98.4124 60.6018 98.4436 60.704 98.5061C60.8063 98.5657 60.8886 98.6467 60.9511 98.7489C61.0107 98.8512 61.0405 98.9648 61.0405 99.0897C61.0405 99.2147 61.0107 99.3283 60.9511 99.4305C60.8886 99.5327 60.8063 99.6137 60.704 99.6733C60.6018 99.7358 60.4882 99.767 60.3632 99.767ZM60.3632 98.6935C60.2525 98.6935 60.1587 98.7319 60.0821 98.8086C60.0054 98.8852 59.9671 98.979 59.9671 99.0897C59.9671 99.1607 59.9855 99.226 60.0224 99.2857C60.0565 99.3481 60.1034 99.3964 60.163 99.4305C60.2226 99.4674 60.2894 99.4859 60.3632 99.4859C60.4342 99.4859 60.501 99.4674 60.5634 99.4305C60.6231 99.3964 60.6714 99.3481 60.7083 99.2857C60.7424 99.226 60.7594 99.1607 60.7594 99.0897C60.7594 99.0159 60.7424 98.9477 60.7083 98.8852C60.6714 98.8256 60.6231 98.7787 60.5634 98.7447C60.5038 98.7106 60.4371 98.6935 60.3632 98.6935Z" fill="#333333"/>
<path d="M31.207 65.9471L30.8016 65.9471L29.7472 64.8715C29.6434 64.7687 29.5511 64.683 29.4704 64.6144C29.3897 64.5458 29.3116 64.4944 29.2359 64.4601C29.1603 64.4258 29.0796 64.4086 28.9939 64.4086C28.8961 64.4086 28.8124 64.4308 28.7428 64.4752C28.6722 64.5196 28.6177 64.5806 28.5794 64.6583C28.5411 64.7359 28.5219 64.8241 28.5219 64.923C28.5219 65.0248 28.5431 65.1141 28.5854 65.1907C28.6268 65.2674 28.6858 65.3269 28.7624 65.3692C28.8391 65.4106 28.9304 65.4313 29.0362 65.4313L29.0362 65.9653C28.8396 65.9653 28.6686 65.9204 28.5234 65.8306C28.3782 65.7409 28.2658 65.6173 28.1861 65.46C28.1064 65.3017 28.0666 65.1201 28.0666 64.9154C28.0666 64.7077 28.1054 64.5251 28.1831 64.3678C28.2607 64.2105 28.3671 64.0885 28.5022 64.0017C28.6374 63.914 28.7917 63.8701 28.9651 63.8701C29.0811 63.8701 29.1951 63.8923 29.307 63.9367C29.419 63.981 29.543 64.0592 29.6792 64.1711C29.8153 64.2821 29.9802 64.4379 30.1738 64.6386L30.7169 65.1726L30.7381 65.1726L30.7381 63.8232L31.207 63.8232L31.207 65.9471ZM31.207 63.0601L28.5991 61.7425L28.5779 61.7425L28.5779 63.2719L28.1089 63.2719L28.1089 61.1616L28.5885 61.1616L31.207 62.4777L31.207 63.0601ZM31.2585 59.5108C31.2575 59.7498 31.1944 59.9541 31.0694 60.1235C30.9443 60.2929 30.7623 60.4225 30.5233 60.5123C30.2843 60.602 29.9963 60.6469 29.6595 60.6469C29.3237 60.6469 29.0367 60.602 28.7987 60.5123C28.5607 60.4215 28.3792 60.2914 28.2542 60.122C28.1291 59.9515 28.0666 59.7478 28.0666 59.5108C28.0666 59.2738 28.1296 59.0706 28.2557 58.9012C28.3807 58.7318 28.5623 58.6022 28.8003 58.5124C29.0373 58.4217 29.3237 58.3763 29.6595 58.3763C29.9973 58.3763 30.2858 58.4211 30.5248 58.5109C30.7628 58.6007 30.9448 58.7303 31.0709 58.8997C31.1959 59.0691 31.2585 59.2728 31.2585 59.5108ZM30.8546 59.5108C30.8546 59.3011 30.7522 59.1372 30.5475 59.0192C30.3428 58.9002 30.0468 58.8407 29.6595 58.8407C29.4023 58.8407 29.185 58.8679 29.0075 58.9224C28.829 58.9758 28.6939 59.053 28.6021 59.1538C28.5093 59.2537 28.4629 59.3727 28.4629 59.5108C28.4629 59.7196 28.5658 59.8835 28.7715 60.0025C28.9772 60.1215 29.2732 60.1815 29.6595 60.1825C29.9177 60.1825 30.136 60.1558 30.3145 60.1023C30.492 60.0478 30.6266 59.9707 30.7184 59.8709C30.8092 59.771 30.8546 59.651 30.8546 59.5108ZM30.1548 57.0919C30.1548 56.9669 30.1861 56.8533 30.2486 56.7511C30.3082 56.6489 30.3891 56.5679 30.4914 56.5083C30.5936 56.4458 30.7072 56.4146 30.8322 56.4146C30.9571 56.4146 31.0707 56.4458 31.173 56.5083C31.2752 56.5679 31.3561 56.6489 31.4158 56.7511C31.4782 56.8533 31.5095 56.9669 31.5095 57.0919C31.5095 57.2169 31.4782 57.3305 31.4158 57.4327C31.3561 57.5349 31.2752 57.6173 31.173 57.6798C31.0707 57.7394 30.9571 57.7692 30.8322 57.7692C30.7072 57.7692 30.5936 57.7394 30.4914 57.6798C30.3891 57.6173 30.3082 57.5349 30.2486 57.4327C30.1861 57.3305 30.1548 57.2169 30.1548 57.0919ZM31.2283 57.0919C31.2283 56.9811 31.19 56.8874 31.1133 56.8107C31.0366 56.7341 30.9429 56.6957 30.8322 56.6957C30.7612 56.6957 30.6958 56.7142 30.6362 56.7511C30.5737 56.7852 30.5254 56.832 30.4914 56.8917C30.4545 56.9513 30.436 57.0181 30.436 57.0919C30.436 57.1629 30.4545 57.2296 30.4914 57.2921C30.5254 57.3518 30.5737 57.4 30.6362 57.4369C30.6958 57.471 30.7612 57.4881 30.8322 57.4881C30.906 57.4881 30.9742 57.471 31.0366 57.4369C31.0963 57.4 31.1431 57.3518 31.1772 57.2921C31.2113 57.2325 31.2283 57.1657 31.2283 57.0919Z" fill="#333333"/>
<path d="M105.488 60.8792C105.487 61.0275 105.461 61.1717 105.409 61.3119C105.359 61.4531 105.276 61.5801 105.161 61.6931C105.047 61.806 104.895 61.8958 104.703 61.9624C104.511 62.0289 104.274 62.0622 103.992 62.0622C103.726 62.0632 103.488 62.035 103.278 61.9775C103.069 61.921 102.893 61.8398 102.749 61.7339C102.604 61.6281 102.494 61.5005 102.419 61.3512C102.343 61.202 102.305 61.034 102.305 60.8475C102.305 60.6518 102.344 60.4784 102.42 60.3271C102.497 60.1768 102.602 60.0553 102.735 59.9625C102.868 59.8697 103.02 59.8128 103.192 59.7916L103.192 60.3437C103.069 60.372 102.971 60.4295 102.898 60.5162C102.827 60.6039 102.791 60.7144 102.791 60.8475C102.791 61.0623 102.884 61.2277 103.071 61.3437C103.257 61.4596 103.517 61.5176 103.848 61.5176L103.848 61.4964C103.76 61.447 103.683 61.383 103.618 61.3043C103.555 61.2257 103.506 61.1364 103.472 61.0366C103.437 60.9377 103.42 60.8329 103.42 60.7219C103.42 60.5404 103.464 60.377 103.55 60.2318C103.637 60.0876 103.756 59.9731 103.907 59.8884C104.059 59.8047 104.232 59.7623 104.426 59.7613C104.628 59.7613 104.809 59.8077 104.969 59.9005C105.131 59.9943 105.258 60.1249 105.35 60.2923C105.444 60.4597 105.49 60.6554 105.488 60.8792ZM105.034 60.8808C105.034 60.7718 105.008 60.6735 104.954 60.5858C104.902 60.499 104.83 60.4305 104.739 60.38C104.65 60.3306 104.549 60.3059 104.438 60.3059C104.328 60.3069 104.229 60.3316 104.139 60.38C104.049 60.4295 103.978 60.4965 103.925 60.5812C103.873 60.667 103.847 60.7648 103.847 60.8747C103.847 60.9564 103.862 61.0325 103.894 61.1031C103.925 61.1737 103.968 61.2352 104.024 61.2877C104.08 61.3411 104.144 61.3825 104.216 61.4117C104.287 61.442 104.363 61.4566 104.443 61.4556C104.549 61.4556 104.647 61.4304 104.736 61.38C104.826 61.3305 104.898 61.2625 104.953 61.1757C105.007 61.09 105.034 60.9917 105.034 60.8808ZM102.296 63.795C102.297 63.556 102.36 63.3518 102.485 63.1824C102.61 63.0129 102.792 62.8833 103.031 62.7936C103.27 62.7038 103.558 62.659 103.895 62.659C104.231 62.659 104.518 62.7038 104.756 62.7936C104.994 62.8844 105.175 63.0144 105.301 63.1839C105.426 63.3543 105.488 63.558 105.488 63.795C105.488 64.032 105.425 64.2352 105.299 64.4047C105.174 64.5741 104.992 64.7037 104.754 64.7934C104.517 64.8842 104.231 64.9296 103.895 64.9296C103.557 64.9296 103.269 64.8847 103.03 64.7949C102.792 64.7052 102.61 64.5756 102.484 64.4062C102.359 64.2367 102.296 64.033 102.296 63.795ZM102.7 63.795C102.7 64.0048 102.802 64.1687 103.007 64.2867C103.212 64.4057 103.508 64.4652 103.895 64.4652C104.152 64.4652 104.37 64.4379 104.547 64.3835C104.726 64.33 104.861 64.2529 104.953 64.152C105.045 64.0522 105.092 63.9332 105.092 63.795C105.092 63.5863 104.989 63.4224 104.783 63.3034C104.577 63.1844 104.281 63.1244 103.895 63.1234C103.637 63.1234 103.419 63.1501 103.24 63.2035C103.063 63.258 102.928 63.3352 102.836 63.435C102.746 63.5348 102.7 63.6548 102.7 63.795ZM103.4 66.214C103.4 66.3389 103.369 66.4525 103.306 66.5547C103.246 66.657 103.166 66.7379 103.063 66.7976C102.961 66.86 102.847 66.8913 102.723 66.8913C102.598 66.8913 102.484 66.86 102.382 66.7976C102.279 66.7379 102.199 66.657 102.139 66.5547C102.076 66.4525 102.045 66.3389 102.045 66.214C102.045 66.089 102.076 65.9754 102.139 65.8732C102.199 65.7709 102.279 65.6886 102.382 65.6261C102.484 65.5664 102.598 65.5366 102.723 65.5366C102.847 65.5366 102.961 65.5664 103.063 65.6261C103.166 65.6886 103.246 65.7709 103.306 65.8732C103.369 65.9754 103.4 66.089 103.4 66.214ZM102.326 66.214C102.326 66.3247 102.365 66.4184 102.441 66.4951C102.518 66.5718 102.612 66.6101 102.723 66.6101C102.794 66.6101 102.859 66.5917 102.918 66.5547C102.981 66.5207 103.029 66.4738 103.063 66.4142C103.1 66.3545 103.119 66.2878 103.119 66.214C103.119 66.143 103.1 66.0762 103.063 66.0137C103.029 65.9541 102.981 65.9058 102.918 65.8689C102.859 65.8348 102.794 65.8178 102.723 65.8178C102.649 65.8178 102.581 65.8348 102.518 65.8689C102.458 65.9058 102.412 65.9541 102.377 66.0137C102.343 66.0734 102.326 66.1401 102.326 66.214Z" fill="#333333"/>
<path d="M65.8906 110.283H65.3828V103.944H65.8906V110.283ZM65.8906 21.0264H65.3828V14.6875H65.8906V21.0264Z" fill="#FF5C32"/>
<path d="M114.569 61.9775V62.4844H108.229V61.9775H114.569ZM25.1885 61.9775V62.4844H18.8496V61.9775H25.1885Z" fill="#FF5C32"/>
<path d="M108.035 38.0811L108.288 38.52L102.799 41.6894L102.545 41.2505L108.035 38.0811ZM30.6288 82.7715L30.8822 83.2104L25.3926 86.3799L25.1392 85.941L30.6288 82.7715Z" fill="#47515C" fill-opacity="0.5"/>
<path d="M90.4264 20.6562L90.8654 20.9096L87.6959 26.3992L87.257 26.1458L90.4264 20.6562ZM45.7368 98.0628L46.1758 98.3162L43.0059 103.807L42.5669 103.553L45.7368 98.0628Z" fill="#47515C" fill-opacity="0.5"/>
<path d="M42.5656 20.909L43.0045 20.6556L46.174 26.1452L45.735 26.3986L42.5656 20.909ZM87.2564 98.3137L87.6953 98.0603L90.8652 103.551L90.4263 103.804L87.2564 98.3137Z" fill="#47515C" fill-opacity="0.5"/>
<path d="M25.1384 38.5217L25.3923 38.0819L30.8827 41.2518L30.6288 41.6916L25.1384 38.5217ZM102.548 83.2119L102.801 82.7729L108.291 85.9424L108.038 86.3813L102.548 83.2119Z" fill="#47515C" fill-opacity="0.5"/>
<path d="M112.668 49.6404L112.799 50.129L110.598 50.7187L110.467 50.23L112.668 49.6404ZM22.7031 73.7443L22.834 74.2329L20.6343 74.8223L20.5033 74.3337L22.7031 73.7443Z" fill="#47515C" fill-opacity="0.2"/>
<path d="M100.272 28.2542L100.63 28.6125L98.8378 30.4052L98.4794 30.0468L100.272 28.2542ZM34.3529 94.1787L34.7106 94.5364L33.0996 96.1475L32.7419 95.7898L34.3529 94.1787Z" fill="#47515C" fill-opacity="0.2"/>
<path d="M78.7553 16.0805L79.2439 16.2115L78.6545 18.4112L78.1659 18.2803L78.7553 16.0805ZM54.6518 106.047L55.1405 106.178L54.5508 108.379L54.0622 108.248L54.6518 106.047Z" fill="#47515C" fill-opacity="0.2"/>
<path d="M54.0637 16.2132L54.5523 16.0823L55.1417 18.2821L54.6531 18.413L54.0637 16.2132ZM78.1679 106.179L78.6565 106.048L79.2462 108.249L78.7575 108.379L78.1679 106.179Z" fill="#47515C" fill-opacity="0.2"/>
<path d="M32.7359 28.6744L33.0936 28.3167L34.7047 29.9277L34.347 30.2854L32.7359 28.6744ZM98.5984 94.5355L98.9561 94.1778L100.566 95.7881L100.209 96.1458L98.5984 94.5355Z" fill="#47515C" fill-opacity="0.2"/>
<path d="M20.4993 50.1232L20.6303 49.6346L22.8309 50.2242L22.7 50.7129L20.4993 50.1232ZM110.467 74.2309L110.598 73.7423L112.799 74.332L112.668 74.8206L110.467 74.2309Z" fill="#47515C" fill-opacity="0.2"/>
</g>
<defs>
<filter id="filter0_d_2953_9454" x="-0.175781" y="-1.83691" width="131.809" height="133.779" filterUnits="userSpaceOnUse" color-interpolation-filters="sRGB">
<feFlood flood-opacity="0" result="BackgroundImageFix"/>
<feColorMatrix in="SourceAlpha" type="matrix" values="0 0 0 0 0 0 0 0 0 0 0 0 0 0 0 0 0 0 127 0" result="hardAlpha"/>
<feOffset dy="2"/>
<feGaussianBlur stdDeviation="4"/>
<feColorMatrix type="matrix" values="0 0 0 0 0.388235 0 0 0 0 0.388235 0 0 0 0 0.388235 0 0 0 0.2 0"/>
<feBlend mode="normal" in2="BackgroundImageFix" result="effect1_dropShadow_2953_9454"/>
<feBlend mode="normal" in="SourceGraphic" in2="effect1_dropShadow_2953_9454" result="shape"/>
</filter>
<filter id="filter1_d_2953_9454" x="6.93554" y="5.17822" width="129.699" height="129.698" filterUnits="userSpaceOnUse" color-interpolation-filters="sRGB">
<feFlood flood-opacity="0" result="BackgroundImageFix"/>
<feColorMatrix in="SourceAlpha" type="matrix" values="0 0 0 0 0 0 0 0 0 0 0 0 0 0 0 0 0 0 127 0" result="hardAlpha"/>
<feOffset dx="5.07129" dy="7.60694"/>
<feGaussianBlur stdDeviation="7.60694"/>
<feComposite in2="hardAlpha" operator="out"/>
<feColorMatrix type="matrix" values="0 0 0 0 0.373077 0 0 0 0 0.373077 0 0 0 0 0.373077 0 0 0 0.2 0"/>
<feBlend mode="normal" in2="BackgroundImageFix" result="effect1_dropShadow_2953_9454"/>
<feBlend mode="normal" in="SourceGraphic" in2="effect1_dropShadow_2953_9454" result="shape"/>
</filter>
<filter id="filter2_dii_2953_9454" x="24.5605" y="23.4331" width="89.3818" height="89.3818" filterUnits="userSpaceOnUse" color-interpolation-filters="sRGB">
<feFlood flood-opacity="0" result="BackgroundImageFix"/>
<feColorMatrix in="SourceAlpha" type="matrix" values="0 0 0 0 0 0 0 0 0 0 0 0 0 0 0 0 0 0 127 0" result="hardAlpha"/>
<feOffset dx="2.53565" dy="5.07129"/>
<feGaussianBlur stdDeviation="6.33911"/>
<feComposite in2="hardAlpha" operator="out"/>
<feColorMatrix type="matrix" values="0 0 0 0 0.101961 0 0 0 0 0.45098 0 0 0 0 0.909804 0 0 0 0.2 0"/>
<feBlend mode="normal" in2="BackgroundImageFix" result="effect1_dropShadow_2953_9454"/>
<feBlend mode="normal" in="SourceGraphic" in2="effect1_dropShadow_2953_9454" result="shape"/>
<feColorMatrix in="SourceAlpha" type="matrix" values="0 0 0 0 0 0 0 0 0 0 0 0 0 0 0 0 0 0 127 0" result="hardAlpha"/>
<feOffset dx="2.53565" dy="2.53565"/>
<feGaussianBlur stdDeviation="3.16956"/>
<feComposite in2="hardAlpha" operator="arithmetic" k2="-1" k3="1"/>
<feColorMatrix type="matrix" values="0 0 0 0 0.798056 0 0 0 0 0.847597 0 0 0 0 0.920833 0 0 0 1 0"/>
<feBlend mode="normal" in2="shape" result="effect2_innerShadow_2953_9454"/>
<feColorMatrix in="SourceAlpha" type="matrix" values="0 0 0 0 0 0 0 0 0 0 0 0 0 0 0 0 0 0 127 0" result="hardAlpha"/>
<feOffset dx="-2.53565" dy="-2.53565"/>
<feGaussianBlur stdDeviation="1.90173"/>
<feComposite in2="hardAlpha" operator="arithmetic" k2="-1" k3="1"/>
<feColorMatrix type="matrix" values="0 0 0 0 1 0 0 0 0 1 0 0 0 0 1 0 0 0 0.7 0"/>
<feBlend mode="normal" in2="effect2_innerShadow_2953_9454" result="effect3_innerShadow_2953_9454"/>
</filter>
<filter id="filter3_f_2953_9454" x="34.9575" y="30.4351" width="52.665" height="52.4912" filterUnits="userSpaceOnUse" color-interpolation-filters="sRGB">
<feFlood flood-opacity="0" result="BackgroundImageFix"/>
<feBlend mode="normal" in="SourceGraphic" in2="BackgroundImageFix" result="shape"/>
<feGaussianBlur stdDeviation="3.80347" result="effect1_foregroundBlur_2953_9454"/>
</filter>
<filter id="filter4_dii_2953_9454" x="37.4907" y="36.3936" width="63.5176" height="63.5176" filterUnits="userSpaceOnUse" color-interpolation-filters="sRGB">
<feFlood flood-opacity="0" result="BackgroundImageFix"/>
<feColorMatrix in="SourceAlpha" type="matrix" values="0 0 0 0 0 0 0 0 0 0 0 0 0 0 0 0 0 0 127 0" result="hardAlpha"/>
<feOffset dx="2.53565" dy="5.07129"/>
<feGaussianBlur stdDeviation="5.07129"/>
<feComposite in2="hardAlpha" operator="out"/>
<feColorMatrix type="matrix" values="0 0 0 0 0.101961 0 0 0 0 0.45098 0 0 0 0 0.909804 0 0 0 0.22 0"/>
<feBlend mode="normal" in2="BackgroundImageFix" result="effect1_dropShadow_2953_9454"/>
<feBlend mode="normal" in="SourceGraphic" in2="effect1_dropShadow_2953_9454" result="shape"/>
<feColorMatrix in="SourceAlpha" type="matrix" values="0 0 0 0 0 0 0 0 0 0 0 0 0 0 0 0 0 0 127 0" result="hardAlpha"/>
<feOffset dx="2.53565" dy="2.53565"/>
<feGaussianBlur stdDeviation="0.950867"/>
<feComposite in2="hardAlpha" operator="arithmetic" k2="-1" k3="1"/>
<feColorMatrix type="matrix" values="0 0 0 0 0.0544444 0 0 0 0 0.196 0 0 0 0 0.408333 0 0 0 0.1 0"/>
<feBlend mode="normal" in2="shape" result="effect2_innerShadow_2953_9454"/>
<feColorMatrix in="SourceAlpha" type="matrix" values="0 0 0 0 0 0 0 0 0 0 0 0 0 0 0 0 0 0 127 0" result="hardAlpha"/>
<feOffset dx="-3.80347" dy="-3.80347"/>
<feGaussianBlur stdDeviation="2.53565"/>
<feComposite in2="hardAlpha" operator="arithmetic" k2="-1" k3="1"/>
<feColorMatrix type="matrix" values="0 0 0 0 0.9875 0 0 0 0 0.9925 0 0 0 0 1 0 0 0 1 0"/>
<feBlend mode="normal" in2="effect2_innerShadow_2953_9454" result="effect3_innerShadow_2953_9454"/>
</filter>
</defs>
</svg>
