<svg width="363" height="346" viewBox="0 0 363 346" fill="none" xmlns="http://www.w3.org/2000/svg">
<path d="M361.479 117.33C370.695 214.325 338.849 243.505 243.515 281.867C148.18 320.229 80.3827 375.268 16.2475 256.256C-29.9759 170.487 27.6692 61.4992 123.003 23.1288C218.337 -15.2331 349.734 -6.25588 361.479 117.33Z" fill="#005C8E"/>
<path d="M361.479 117.33C370.695 214.325 338.849 243.505 243.515 281.867C148.18 320.229 80.3827 375.268 16.2475 256.256C-29.9759 170.487 27.6692 61.4992 123.003 23.1288C218.337 -15.2331 349.734 -6.25588 361.479 117.33Z" fill="#D2EBFF"/>
<path d="M184.838 282.118C184.838 285.355 182.215 287.987 178.97 287.987C175.733 287.987 173.102 285.364 173.102 282.118C173.102 278.882 175.725 276.25 178.97 276.25C182.215 276.25 184.838 278.882 184.838 282.118Z" fill="white"/>
<path d="M296.569 176.513C296.569 179.75 293.946 182.381 290.7 182.381C287.464 182.381 284.832 179.758 284.832 176.513C284.832 173.276 287.455 170.645 290.7 170.645C293.946 170.653 296.569 173.276 296.569 176.513Z" fill="white"/>
<path d="M351.532 110.368C351.532 113.605 348.908 116.237 345.663 116.237C342.427 116.237 339.795 113.614 339.795 110.368C339.795 107.123 342.418 104.5 345.663 104.5C348.908 104.5 351.532 107.123 351.532 110.368Z" fill="white"/>
<path d="M287.778 116.466C287.778 119.703 285.155 122.334 281.909 122.334C278.673 122.334 276.041 119.711 276.041 116.466C276.041 113.221 278.664 110.598 281.909 110.598C285.146 110.598 287.778 113.221 287.778 116.466Z" fill="white"/>
<path d="M238.26 36.9407C238.26 40.1773 235.637 42.8091 232.392 42.8091C229.155 42.8091 226.523 40.1858 226.523 36.9407C226.523 33.7041 229.147 31.0723 232.392 31.0723C235.637 31.0808 238.26 33.7041 238.26 36.9407Z" fill="white"/>
<path d="M198.672 5.86842C198.672 9.10499 196.049 11.7368 192.804 11.7368C189.567 11.7368 186.936 9.11351 186.936 5.86842C186.936 2.63184 189.559 0 192.804 0C196.049 0.0085173 198.672 2.63184 198.672 5.86842Z" fill="white"/>
<path d="M89.2486 82.9407C89.2486 86.1773 86.6252 88.8091 83.3801 88.8091C80.135 88.8091 77.5117 86.1858 77.5117 82.9407C77.5117 79.7041 80.135 77.0723 83.3801 77.0723C86.6252 77.0723 89.2486 79.6956 89.2486 82.9407Z" fill="white"/>
<path d="M79.3189 159.452C79.3189 162.689 76.6955 165.321 73.4504 165.321C70.2139 165.321 67.582 162.697 67.582 159.452C67.582 156.216 70.2054 153.584 73.4504 153.584C76.6955 153.593 79.3189 156.216 79.3189 159.452Z" fill="white"/>
<path d="M91.2173 205.239C91.2173 208.476 88.594 211.108 85.3489 211.108C82.1123 211.108 79.4805 208.485 79.4805 205.239C79.4805 202.003 82.1038 199.371 85.3489 199.371C88.594 199.371 91.2173 201.994 91.2173 205.239Z" fill="white"/>
<path d="M49.0813 267.135C52.3223 267.135 54.9497 264.508 54.9497 261.267C54.9497 258.026 52.3223 255.398 49.0813 255.398C45.8403 255.398 43.2129 258.026 43.2129 261.267C43.2129 264.508 45.8403 267.135 49.0813 267.135Z" fill="white"/>
<path d="M85.3572 205.243L49.082 261.27L178.979 282.12L290.709 176.514L281.911 116.467L345.663 110.369L232.391 36.9414L83.3897 82.9433L73.4585 159.454L85.3572 205.243Z" stroke="white" stroke-width="0.85173" stroke-miterlimit="10" stroke-linecap="round" stroke-linejoin="round"/>
<path d="M192.803 5.86914L232.391 36.9402" stroke="white" stroke-width="0.85173" stroke-miterlimit="10" stroke-linecap="round" stroke-linejoin="round"/>
<path d="M178.979 282.12L168.92 220.318" stroke="white" stroke-width="0.85173" stroke-miterlimit="10" stroke-linecap="round" stroke-linejoin="round"/>
<path d="M83.3906 82.9414L117.588 113.876" stroke="white" stroke-width="0.85173" stroke-miterlimit="10" stroke-linecap="round" stroke-linejoin="round"/>
<path d="M268.554 345.744C292.916 345.744 312.666 342.548 312.666 338.606C312.666 334.664 292.916 331.469 268.554 331.469C244.193 331.469 224.443 334.664 224.443 338.606C224.443 342.548 244.193 345.744 268.554 345.744Z" fill="#005C8E"/>
<path d="M246.663 208.526C282.652 172.536 282.652 114.186 246.663 78.197C210.674 42.2078 152.324 42.2077 116.334 78.197C80.345 114.186 80.345 172.536 116.334 208.526C152.324 244.515 210.674 244.515 246.663 208.526Z" fill="#1E77BC"/>
<path d="M246.663 208.526C282.652 172.536 282.652 114.186 246.663 78.197C210.674 42.2078 152.324 42.2077 116.334 78.197C80.345 114.186 80.345 172.536 116.334 208.526C152.324 244.515 210.674 244.515 246.663 208.526Z" stroke="#263238" stroke-width="0.851721" stroke-miterlimit="10" stroke-linecap="round" stroke-linejoin="round"/>
<path d="M134.553 89.0389C133.488 88.2383 128.386 89.9758 128.369 88.4597C128.361 87.4547 131.802 84.6269 132.449 83.3664C133.403 81.5011 132.909 78.8948 133.795 77.1402C134.28 76.1778 135.6 73.9548 136.682 73.0349C141.869 68.657 149.773 63.9129 156.357 63.5807C158.725 63.4614 161.978 67.5327 162.506 70.7097C162.822 72.592 162.506 78.1879 160.846 80.1468C158.342 83.1023 152.839 83.1364 149.909 85.4361C146.511 88.1105 144.859 94.4218 140.941 96.5256C139.85 97.1133 137.772 95.9635 137.074 95.3672C135.762 94.26 135.779 89.9673 134.553 89.0389Z" fill="#005C8E" stroke="#263238" stroke-width="0.85173" stroke-miterlimit="10" stroke-linecap="round" stroke-linejoin="round"/>
<path d="M241.402 183.884C240.985 183.781 240.022 183.73 239.562 183.994C238.038 184.872 235.815 188.193 235.031 189.829C234.137 191.694 233.046 195.74 233.132 197.486C233.183 198.465 233.745 200.407 234.554 200.509C235.167 200.586 236.786 199.377 237.356 198.695C240.295 195.169 243.829 189.684 243.565 185.315C243.531 184.659 242.066 184.046 241.402 183.884Z" fill="#005C8E" stroke="#263238" stroke-width="0.85173" stroke-miterlimit="10" stroke-linecap="round" stroke-linejoin="round"/>
<path d="M185.528 99.5563C186.636 99.4455 189.089 98.8493 189.753 97.8528C190.843 96.2345 191.26 91.3967 190.119 90.0254C189.642 89.4462 187.854 89.574 187.24 90.0765C186.44 90.7323 186.653 93.5175 185.869 94.2074C185.111 94.8803 182.837 93.9178 182.147 94.7014C181.466 95.4765 181.27 98.0232 181.806 98.8067C182.351 99.6074 184.557 99.65 185.528 99.5563Z" fill="#005C8E" stroke="#263238" stroke-width="0.85173" stroke-miterlimit="10" stroke-linecap="round" stroke-linejoin="round"/>
<path d="M240.498 72.5738C239.655 73.3148 238.888 74.3624 238.837 75.3589C238.794 76.1169 240.319 78.2718 240.132 78.9447C239.663 80.563 235.839 81.7213 233.923 80.6993C233.335 80.3841 232.824 78.5955 232.253 78.2037C229.885 76.5513 225.363 77.6756 223.063 77.5308C222.245 77.4797 220.567 77.5819 219.784 77.3434C215.891 76.151 211.846 72.1138 207.894 71.9605C205.926 71.8839 201.472 74.7031 200.083 76.7898C198.252 79.5324 196.983 83.3992 197.009 86.6869C197.017 88.1519 198.346 91.2607 199.504 92.0443C200.68 92.8364 203.908 92.9897 204.964 92.0699C205.705 91.4311 205.279 88.7311 205.884 87.9645C206.557 87.0957 208.95 85.6989 209.682 86.3803C211.888 88.4415 212.408 94.1821 211.088 96.6777C209.665 99.3606 203.746 102.137 200.68 100.698C199.547 100.17 200.484 95.9367 199.521 94.9231C198.635 93.9948 195.671 93.2197 194.726 94.114C193.585 95.1957 195.527 99.3862 194.598 100.706C193.559 102.171 189.445 101.711 188.04 102.819C187.009 103.636 185.255 106.038 185.118 107.375C185.008 108.525 187.529 110.484 186.907 111.472C186.021 112.878 181.66 110.271 180.579 111.549C179.139 113.261 180.178 118.772 181.788 120.151C182.998 121.19 186.95 121.114 188.261 120.109C189.19 119.393 188.628 116.259 189.573 115.569C190.817 114.666 194.104 116.327 195.569 115.961C196.711 115.68 198.423 113.278 199.572 113.482C201.105 113.755 203.32 116.847 203.61 118.439C203.822 119.632 201.148 122.153 202.025 122.971C203.099 123.967 206.727 121.872 207.272 120.509C207.953 118.806 204.104 115.211 204.742 113.491C204.981 112.852 206.446 112.111 207.102 112.264C209.316 112.801 210.67 119.087 212.91 119.717C214.495 120.16 217.254 116.932 218.855 117.315C220.746 117.767 223.796 121.216 224.383 123.107C224.792 124.427 224.281 127.587 223.353 128.413C220.167 131.249 214.231 131.905 209.87 131.641C207.8 131.513 203.575 129.81 202.051 128.328C200.995 127.297 200.765 123.652 199.589 122.962C196.506 121.173 191.6 121.455 188.21 122.579C182.206 124.555 174.932 130.227 171.576 135.789C170.367 137.791 171.593 143.174 170.367 145.175C169.983 145.797 168.263 146.146 167.931 146.793C166.908 148.761 167.181 153.846 168.28 155.754C170.324 159.314 174.753 162.806 178.407 164.067C182.597 165.506 188.347 163.189 192.784 164.194C194.189 164.509 197.213 166.153 197.98 167.508C198.993 169.288 197.434 173.964 198.388 175.752C199.181 177.234 203.482 177.192 204.086 178.623C206.267 183.818 201.063 190.819 201.863 196.364C202.136 198.238 205.032 201.151 205.296 202.914C205.798 206.202 203.976 210.665 205.253 213.612C206.097 215.554 211.028 216.329 212.885 215.349C216.871 213.262 221.257 208.22 223.131 204.2C224.843 200.529 223.378 194.797 225.235 191.594C226.743 189.005 231.572 187.762 233.173 185.155C235.549 181.297 233.718 174.202 235.958 170.182C237.713 167.031 242.815 165.199 244.493 161.895C245.157 160.591 244.816 156.674 243.879 155.907C241.563 154.016 236.103 155.336 233.889 153.25C232.926 152.338 234.34 148.258 233.735 146.759C233.182 145.371 230.192 143.736 229.698 142.305C229.161 140.763 228.914 136.905 230.098 135.789C230.618 135.304 232.381 135.465 232.986 135.798C236.188 137.595 238.88 141.547 239.953 145.099C240.319 146.308 238.667 149.263 239.348 150.345C239.851 151.137 242.031 151.648 242.968 151.504C247.073 150.865 254.117 147.79 254.781 144.587C255.599 140.661 244.91 136.215 246.051 131.837C246.417 130.449 251.851 130.491 253.427 131.513C254.534 132.229 254.441 135.338 255.241 136.283C257.422 138.838 260.837 140.593 263.903 142.177C265.351 142.927 269.201 143.14 270.01 144.46C271.067 146.18 267.975 150.78 268.571 152.577C269.159 154.357 270.564 157.006 272.319 159.127C273.204 153.999 273.664 148.735 273.664 143.352C273.656 114.913 260.761 89.4721 240.498 72.5738Z" fill="#005C8E" stroke="#263238" stroke-width="0.85173" stroke-miterlimit="10" stroke-linecap="round" stroke-linejoin="round"/>
<path d="M133.276 202.925C129.826 199.654 125.84 194.484 125.466 190.353C125.031 185.584 134.332 183.42 134.835 178.089C135.013 176.164 130.389 171.121 130.755 169.103C131.13 167.025 136.3 165.04 136.07 162.86C135.61 158.414 130.874 153.388 127.161 150.995C125.159 149.7 119.367 151.31 117.63 149.632C116.804 148.832 118.132 146.225 117.289 145.484C116.216 144.539 112.886 145.944 111.531 145.399C109.956 144.769 108.303 141.422 106.813 140.919C101.745 139.224 94.3434 143.398 89.3693 141.413C89.3523 142.06 89.3438 142.708 89.3438 143.355C89.3438 143.508 89.3523 143.662 89.3523 143.806C90.1955 144.207 91.2176 145.178 91.439 145.765C91.8393 146.856 91.175 149.206 90.3488 149.922C90.204 150.05 89.9229 150.109 89.5993 150.143C89.7867 152.775 90.0933 155.373 90.5021 157.937C93.0403 159.555 96.379 160.62 98.0399 162.834C99.0535 164.188 96.8901 167.306 98.057 168.626C100.348 171.224 105.51 171.437 108.048 173.736C113.976 179.119 114.955 189.987 121.633 196.12C122.8 197.193 125.593 198.232 126.735 199.339C128.344 200.906 129.009 203.819 130.738 205.327C133.702 207.891 138.719 212.132 141.461 211.902C141.964 211.86 140.073 207.627 138.48 205.949C137.305 204.697 134.528 204.1 133.276 202.925Z" fill="#005C8E" stroke="#263238" stroke-width="0.85173" stroke-miterlimit="10" stroke-linecap="round" stroke-linejoin="round"/>
<path d="M92.767 126.79C93.2695 127.003 94.7089 127.08 95.2115 126.688C96.3869 125.768 95.3563 122.77 96.3272 121.731C100.433 117.319 108.728 117.626 112.578 112.865C113.66 111.527 112.008 108.069 113.464 107.064C118.072 103.887 125.388 110.531 129.425 107.618C131.802 105.897 133.931 99.9524 132.824 97.2609C132.619 96.7584 130.039 97.9678 129.511 97.5846C128.463 96.835 130.218 92.1676 129.255 91.8439C126.504 90.907 121.922 93.3344 119.034 94.9187C118.242 95.353 116.845 97.1161 116.07 97.3631C114.426 97.8827 111.198 96.7584 112.067 95.5745C113.992 92.9512 118.975 92.2527 121.717 90.1405C124.136 88.2752 128.378 84.4083 128.327 82.4153C128.25 79.7068 116.752 82.756 113.873 84.2039C112.178 85.0556 108.507 88.5903 106.769 89.4335C99.3509 99.6883 93.9935 111.536 91.3105 124.363C91.7194 125.342 92.0601 126.492 92.767 126.79Z" fill="#005C8E" stroke="#263238" stroke-width="0.85173" stroke-miterlimit="10" stroke-linecap="round" stroke-linejoin="round"/>
<path d="M123.48 244.264L134.902 227.332" stroke="#263238" stroke-width="0.85173" stroke-miterlimit="10" stroke-linecap="round" stroke-linejoin="round"/>
<path d="M68.4922 139.4L86.3615 139.664" stroke="#263238" stroke-width="0.85173" stroke-miterlimit="10" stroke-linecap="round" stroke-linejoin="round"/>
<path d="M121.555 43.0508L132.576 60.7242" stroke="#263238" stroke-width="0.85173" stroke-miterlimit="10" stroke-linecap="round" stroke-linejoin="round"/>
<path d="M299.491 141.76L277.158 142.032" stroke="#263238" stroke-width="0.85173" stroke-miterlimit="10" stroke-linecap="round" stroke-linejoin="round"/>
<path d="M62.998 204.871L81.7276 230.414L91.8802 244.255" stroke="#263238" stroke-width="0.85173" stroke-miterlimit="10" stroke-linecap="round" stroke-linejoin="round"/>
<path d="M95.169 44.3047L51.4668 99.7438" stroke="#263238" stroke-width="0.85173" stroke-miterlimit="10" stroke-linecap="round" stroke-linejoin="round"/>
<path d="M243.337 256.17L136.479 260.846" stroke="#263238" stroke-width="0.85173" stroke-miterlimit="10" stroke-linecap="round" stroke-linejoin="round"/>
<path d="M287.777 232.614L321.787 168.496" stroke="#263238" stroke-width="0.85173" stroke-miterlimit="10" stroke-linecap="round" stroke-linejoin="round"/>
<path d="M324.438 116.769L323.305 95.9863" stroke="#263238" stroke-width="0.85173" stroke-miterlimit="10" stroke-linecap="round" stroke-linejoin="round"/>
<path d="M249.119 75.0607L259.919 67.1992" stroke="#263238" stroke-width="0.85173" stroke-miterlimit="10" stroke-linecap="round" stroke-linejoin="round"/>
<path d="M136.299 20.5566L259.476 22.686" stroke="#263238" stroke-width="0.85173" stroke-miterlimit="10" stroke-linecap="round" stroke-linejoin="round"/>
<path d="M279.465 232.123L251.801 232.114C250.515 232.114 249.459 231.092 249.407 229.806L247.5 178.77C247.449 177.348 248.641 176.207 250.055 176.3L282.438 178.583C283.741 178.677 284.729 179.792 284.661 181.096L281.85 229.857C281.79 231.126 280.734 232.123 279.465 232.123Z" fill="#005C8E" stroke="#263238" stroke-width="0.85173" stroke-miterlimit="10" stroke-linecap="round" stroke-linejoin="round"/>
<path d="M259.841 201.667C259.926 201.139 260.293 200.092 260.25 199.555C260.216 199.095 259.994 198.073 259.603 197.818C259.092 197.485 257.184 197.962 257.184 197.962C257.184 197.962 257.661 196.387 257.337 196.029C257.039 195.705 255.983 195.825 255.582 196.003C254.927 196.302 254.135 197.613 253.7 198.184C253.164 198.882 252.227 200.364 251.724 201.088C251.477 201.446 250.736 202.494 250.736 202.494L244.578 204.691L244.91 210.926L251.843 206.727C251.843 206.727 258.078 206.718 259.39 205.321C260.028 204.666 259.696 202.587 259.841 201.667Z" fill="white" stroke="#263238" stroke-width="0.85173" stroke-miterlimit="10" stroke-linecap="round" stroke-linejoin="round"/>
<path d="M249.825 189.046C249.476 193.994 248.744 199.173 247.236 202.154H249.825C249.825 202.154 247.509 206.302 248.982 210.22C248.982 210.22 241.947 214.947 240.38 211.932C238.813 208.916 240.627 196.686 242.237 190.809C243.846 184.932 244.34 175.903 250.081 176.312" fill="#005C8E"/>
<path d="M249.825 189.046C249.476 193.994 248.744 199.173 247.236 202.154H249.825C249.825 202.154 247.509 206.302 248.982 210.22C248.982 210.22 241.947 214.947 240.38 211.932C238.813 208.916 240.627 196.686 242.237 190.809C243.846 184.932 244.34 175.903 250.081 176.312" stroke="#263238" stroke-width="0.85173" stroke-miterlimit="10" stroke-linecap="round" stroke-linejoin="round"/>
<path d="M246.198 202.562C246.198 202.562 244.707 202.997 243.336 204.862" stroke="#263238" stroke-width="0.85173" stroke-miterlimit="10" stroke-linecap="round" stroke-linejoin="round"/>
<path d="M259.908 186.514L261.067 186.352C261.859 186.241 262.6 186.803 262.702 187.595L264.005 197.169C264.116 197.961 263.554 198.693 262.762 198.804L261.603 198.966L259.908 186.514Z" fill="white" stroke="#263238" stroke-width="0.85173" stroke-miterlimit="10" stroke-linecap="round" stroke-linejoin="round"/>
<path d="M257.935 199.467L261.767 198.947C262.679 198.819 263.309 197.985 263.19 197.082L261.938 187.917C261.81 187.006 260.975 186.376 260.072 186.495L256.24 187.015C255.328 187.142 254.698 187.977 254.817 188.88L256.069 198.044C256.188 198.956 257.023 199.586 257.935 199.467Z" fill="#BFBFBF"/>
<path d="M257.935 199.467L261.767 198.947C262.679 198.819 263.309 197.985 263.19 197.082L261.938 187.917C261.81 187.006 260.975 186.376 260.072 186.495L256.24 187.015C255.328 187.142 254.698 187.977 254.817 188.88L256.069 198.044C256.188 198.956 257.023 199.586 257.935 199.467Z" stroke="#263238" stroke-width="0.85173" stroke-miterlimit="10" stroke-linecap="round" stroke-linejoin="round"/>
<path d="M255.703 188.584C255.745 188.874 256.01 189.078 256.299 189.036C256.589 188.993 256.793 188.729 256.751 188.439C256.708 188.15 256.444 187.945 256.154 187.988C255.865 188.031 255.66 188.295 255.703 188.584Z" fill="white" stroke="#263238" stroke-width="0.85173" stroke-miterlimit="10" stroke-linecap="round" stroke-linejoin="round"/>
<path d="M256.671 198.012C256.646 197.475 256.399 196.393 256.501 195.865C256.586 195.414 256.918 194.417 257.336 194.213C257.872 193.94 259.72 194.63 259.72 194.63C259.72 194.63 259.422 193.012 259.789 192.688C260.121 192.399 261.16 192.637 261.535 192.859C262.156 193.225 262.795 194.622 263.17 195.235C263.621 195.985 264.396 197.569 264.814 198.344C265.018 198.727 265.64 199.851 265.64 199.851L271.142 202.339L268.604 206.955L264.064 203.94C264.064 203.94 257.872 203.241 256.722 201.7C256.152 200.959 256.714 198.932 256.671 198.012Z" fill="white" stroke="#263238" stroke-width="0.85173" stroke-miterlimit="10" stroke-linecap="round" stroke-linejoin="round"/>
<path d="M281.959 181.217C282.095 180.604 282.24 179.999 282.402 179.394C282.581 178.738 283.407 178.517 283.875 179.019L284.088 179.241C285.212 180.442 286.022 181.89 286.447 183.482C287.955 189.155 291.192 203.438 288.9 213.906C288.628 215.133 287.529 215.984 286.277 215.908C282.061 215.644 274.685 214.596 266.619 206.607C266.619 206.607 268.34 202.612 270.333 201.241L281.473 205.772C281.473 205.772 280.681 200.483 280.724 193.729" fill="#005C8E"/>
<path d="M281.959 181.217C282.095 180.604 282.24 179.999 282.402 179.394C282.581 178.738 283.407 178.517 283.875 179.019L284.088 179.241C285.212 180.442 286.022 181.89 286.447 183.482C287.955 189.155 291.192 203.438 288.9 213.906C288.628 215.133 287.529 215.984 286.277 215.908C282.061 215.644 274.685 214.596 266.619 206.607C266.619 206.607 268.34 202.612 270.333 201.241L281.473 205.772C281.473 205.772 280.681 200.483 280.724 193.729" stroke="#263238" stroke-width="0.85173" stroke-miterlimit="10" stroke-linecap="round" stroke-linejoin="round"/>
<path d="M282.42 206.496C282.42 206.496 283.757 207.084 284.336 208.881" stroke="#263238" stroke-width="0.85173" stroke-miterlimit="10" stroke-linecap="round" stroke-linejoin="round"/>
<path d="M267.404 169.835L274.653 158.209C274.653 158.209 278.409 156.659 276.399 154.649C276.399 154.649 279.627 149.062 275.436 149.062C275.436 149.062 274.9 144.522 270.845 146.353C270.845 146.353 267.319 142.163 264.96 145.22C264.96 145.22 260.122 142.861 258.87 145.834C258.87 145.834 255.335 145.834 255.472 148.448C255.472 148.448 253.249 151.412 256.179 151.762C256.179 151.762 255.404 154.121 258.87 154.121C262.337 154.121 266.612 158.362 266.612 158.362L267.481 162.723L267.404 169.835Z" fill="#263238" stroke="#263238" stroke-width="0.85173" stroke-miterlimit="10" stroke-linecap="round" stroke-linejoin="round"/>
<path d="M272.122 178.01C272.122 178.01 264.252 182.337 258.512 176.792C258.512 176.792 259.96 174.075 260.462 167.295L268.818 165.805C268.818 165.805 268.392 169.416 269.073 172.712C269.61 175.293 271.117 177.678 272.122 178.01Z" fill="white"/>
<mask id="mask0_6303_3565" style="mask-type:luminance" maskUnits="userSpaceOnUse" x="258" y="165" width="15" height="15">
<path d="M272.122 178.006C272.122 178.006 264.252 182.333 258.512 176.788C258.512 176.788 259.96 174.071 260.462 167.291L268.818 165.801C268.818 165.801 268.392 169.412 269.073 172.708C269.61 175.289 271.117 177.674 272.122 178.006Z" fill="white"/>
</mask>
<g mask="url(#mask0_6303_3565)">
<path d="M269.397 166.006L269.15 166.875C269.005 167.386 268.775 167.854 268.46 168.28C267.182 169.966 263.588 174.208 260.096 173.859C256.842 173.535 255.948 168.518 255.701 166.014H269.397V166.006Z" fill="#263238" stroke="#263238" stroke-width="0.85173" stroke-miterlimit="10" stroke-linecap="round" stroke-linejoin="round"/>
</g>
<path d="M272.122 178.01C272.122 178.01 264.252 182.337 258.512 176.792C258.512 176.792 259.96 174.075 260.462 167.295L268.818 165.805C268.818 165.805 268.392 169.416 269.073 172.712C269.61 175.293 271.117 177.678 272.122 178.01Z" stroke="#263238" stroke-width="0.85173" stroke-miterlimit="10" stroke-linecap="round" stroke-linejoin="round"/>
<path d="M256.86 152.896L255.506 157.103C255.361 157.546 255.327 158.014 255.395 158.483L255.574 159.726L254.884 162.503C254.85 162.648 254.825 162.793 254.808 162.937C254.663 164.394 254.101 172.162 258.206 173.167C261.843 174.053 266.272 170.101 267.873 168.508C268.274 168.107 268.589 167.648 268.819 167.128L269.739 165.033C269.739 165.033 271.527 165.365 272.379 163.687C273.231 162.009 274.346 161.021 272.703 159.846C271.059 158.67 270.011 161.055 270.011 161.055C270.011 161.055 270.062 158.057 269.679 157.154C269.338 156.362 267.933 155.204 267.584 154.412C267.396 153.977 267.243 152.555 267.243 152.555C267.243 152.555 261.622 152.708 257.627 151.184L256.86 152.896Z" fill="white" stroke="#263238" stroke-width="0.85173" stroke-miterlimit="10" stroke-linecap="round" stroke-linejoin="round"/>
<path d="M256.86 152.896L255.506 157.103C255.361 157.546 255.327 158.014 255.395 158.483L255.574 159.726L254.884 162.503C254.85 162.648 254.825 162.793 254.808 162.937C254.663 164.394 254.101 172.162 258.206 173.167C261.843 174.053 266.272 170.101 267.873 168.508C268.274 168.107 268.589 167.648 268.819 167.128L269.739 165.033C269.739 165.033 271.527 165.365 272.379 163.687C273.231 162.009 274.346 161.021 272.703 159.846C271.059 158.67 270.011 161.055 270.011 161.055C270.011 161.055 270.062 158.057 269.679 157.154C269.338 156.362 267.933 155.204 267.584 154.412C267.396 153.977 267.243 152.555 267.243 152.555C267.243 152.555 261.622 152.708 257.627 151.184L256.86 152.896Z" fill="white" stroke="#263238" stroke-width="0.85173" stroke-miterlimit="10" stroke-linecap="round" stroke-linejoin="round"/>
<path d="M259.475 161.209L257.414 164.522C257.124 164.991 257.38 165.604 257.916 165.732L259.731 166.158" stroke="#263238" stroke-width="0.85173" stroke-miterlimit="10" stroke-linecap="round" stroke-linejoin="round"/>
<path d="M262.474 168.057C261.204 169.062 259.612 169.198 258.828 168.5" stroke="#263238" stroke-width="0.85173" stroke-miterlimit="10" stroke-linecap="round" stroke-linejoin="round"/>
<path d="M262.251 162.349C262.174 162.834 261.919 163.2 261.68 163.166C261.45 163.124 261.323 162.698 261.399 162.212C261.476 161.727 261.731 161.361 261.97 161.395C262.208 161.437 262.336 161.863 262.251 162.349Z" fill="#263238"/>
<path d="M257.661 161.593C257.584 162.078 257.329 162.445 257.09 162.411C256.861 162.368 256.733 161.942 256.809 161.457C256.886 160.971 257.142 160.605 257.38 160.639C257.619 160.682 257.738 161.107 257.661 161.593Z" fill="#263238"/>
<path d="M255.734 158.619C255.734 158.619 256.169 157.078 257.838 157.725" stroke="#263238" stroke-width="0.85173" stroke-miterlimit="10" stroke-linecap="round" stroke-linejoin="round"/>
<path d="M261.264 158.098C261.264 158.098 263.189 158.123 263.683 159.776" stroke="#263238" stroke-width="0.85173" stroke-miterlimit="10" stroke-linecap="round" stroke-linejoin="round"/>
<path d="M268.945 152.477C268.945 152.477 264.338 155.833 263.801 153.414C263.801 153.414 259.968 154.334 259.713 153.039C259.713 153.039 255.88 154.572 255.463 153.388C255.045 152.204 258.52 149.027 258.52 149.027L266.62 150.058L268.945 152.477Z" fill="#263238" stroke="#263238" stroke-width="0.85173" stroke-miterlimit="10" stroke-linecap="round" stroke-linejoin="round"/>
<path d="M259.534 148.346C259.074 149.07 258.691 150.075 257.609 151.182" stroke="#7F7F7F" stroke-width="0.85173" stroke-linecap="round" stroke-linejoin="round"/>
<path d="M261.961 147.248C261.016 147.206 260.454 147.385 260.045 147.725" stroke="#7F7F7F" stroke-width="0.85173" stroke-linecap="round" stroke-linejoin="round"/>
<path d="M271.341 150.068C269.101 149.855 268.811 151.806 265.319 151.661C262.048 151.525 263.564 148.995 263.045 147.828" stroke="#7F7F7F" stroke-width="0.85173" stroke-linecap="round" stroke-linejoin="round"/>
<path d="M272.949 157.573C272.949 157.573 276.808 151.985 272.949 150.486" stroke="#7F7F7F" stroke-width="0.85173" stroke-linecap="round" stroke-linejoin="round"/>
<path d="M245.081 333.901C243.966 334.387 242.322 335.085 241.53 337.197C241.317 337.777 241.726 338.398 242.347 338.398H254.876C255.37 338.398 255.805 338.041 255.873 337.547C256.009 336.593 256.052 334.923 255.259 332.913L255.949 325.205H248.625L248.071 332.59C248.071 332.581 245.831 333.578 245.081 333.901Z" fill="white" stroke="#263238" stroke-width="0.85173" stroke-miterlimit="10" stroke-linecap="round" stroke-linejoin="round"/>
<path d="M253.061 333.826C254.364 335.657 254.041 332.914 255.259 332.914C256.051 334.924 256.008 336.594 255.872 337.548C255.804 338.042 255.37 338.399 254.876 338.399H242.347C241.733 338.399 241.316 337.778 241.529 337.198C242.321 335.086 243.965 334.388 245.081 333.902C245.83 333.579 248.07 332.582 248.07 332.582C248.07 332.582 251.758 331.994 253.061 333.826Z" fill="#BFBFBF" stroke="#263238" stroke-width="0.85173" stroke-miterlimit="10" stroke-linecap="round" stroke-linejoin="round"/>
<path d="M255.905 337.284C255.897 337.369 255.888 337.463 255.871 337.539C255.803 338.033 255.369 338.391 254.875 338.391H242.346C241.767 338.391 241.375 337.838 241.503 337.292C242.312 337.284 242.942 337.284 242.942 337.275H255.905V337.284Z" fill="white" stroke="#263238" stroke-width="0.85173" stroke-miterlimit="10" stroke-linecap="round" stroke-linejoin="round"/>
<path d="M250.234 231.047L247.662 329.882H256.69C256.69 329.882 259.484 305.156 259.808 296.869C259.953 293.155 260.711 286.605 260.966 282.9C261.426 276.18 262.474 268.693 265.046 255.653C265.463 253.541 267.993 249.913 268.529 247.826C269.577 243.763 270.02 231.064 270.02 231.064L250.234 231.047Z" fill="#263238" stroke="#263238" stroke-width="0.85173" stroke-miterlimit="10" stroke-linecap="round" stroke-linejoin="round"/>
<path d="M289.097 333.899C290.263 334.41 292.061 335.168 292.742 337.46C292.878 337.928 292.503 338.396 292.018 338.396H279.489C278.876 338.396 278.356 337.936 278.28 337.332C278.169 336.352 278.186 334.777 278.918 332.911L278.229 325.203H285.553L286.107 332.588C286.107 332.579 288.347 333.576 289.097 333.899Z" fill="white" stroke="#263238" stroke-width="0.85173" stroke-miterlimit="10" stroke-linecap="round" stroke-linejoin="round"/>
<path d="M292.743 337.462C292.879 337.931 292.505 338.399 292.019 338.399H279.49C278.877 338.399 278.357 337.939 278.281 337.334C278.17 336.355 278.187 334.779 278.919 332.914C280.095 332.718 279.337 335.265 281.27 333.698C283.204 332.13 286.108 332.59 286.108 332.59C286.108 332.59 288.348 333.587 289.098 333.91C290.264 334.413 292.062 335.171 292.743 337.462Z" fill="#BFBFBF" stroke="#263238" stroke-width="0.85173" stroke-miterlimit="10" stroke-linecap="round" stroke-linejoin="round"/>
<path d="M292.675 337.281C292.693 337.341 292.727 337.392 292.744 337.46C292.88 337.929 292.505 338.397 292.02 338.397H279.491C278.877 338.397 278.358 337.937 278.281 337.332C278.281 337.315 278.281 337.307 278.281 337.29H292.675V337.281Z" fill="white" stroke="#263238" stroke-width="0.85173" stroke-miterlimit="10" stroke-linecap="round" stroke-linejoin="round"/>
<path d="M280.989 231.064C280.989 231.064 282.267 240.885 282.454 244.181C282.565 246.132 282.395 250.05 282.454 252.008C282.693 259.521 283.63 274.528 284.371 282.006C284.763 285.941 286.219 293.735 286.483 297.678C287.02 305.71 286.483 329.891 286.483 329.891H277.412C277.412 329.891 273.733 302.618 272.77 293.488C272.429 290.243 268.673 257.996 266.11 250.969C265.616 249.624 264.517 247.367 264.057 246.012C263.35 243.934 262.26 239.471 262.064 237.274C261.928 235.723 261.834 231.064 261.834 231.064H280.989Z" fill="#263238" stroke="#263238" stroke-width="0.85173" stroke-miterlimit="10" stroke-linecap="round" stroke-linejoin="round"/>
<path d="M116.689 13.369L108.999 6.56896C108.479 6.10896 107.769 5.90896 107.089 6.03896L88.8589 9.33896C87.6189 9.55896 86.7989 10.749 87.0289 11.989L92.8289 44.049C93.0489 45.289 94.2389 46.109 95.4789 45.879L138.349 38.129C139.589 37.909 140.409 36.719 140.179 35.479L136.119 13.049C135.899 11.809 134.709 10.989 133.469 11.219L118.609 13.909C117.909 14.029 117.209 13.829 116.689 13.369Z" fill="#005C8E"/>
<path opacity="0.3" d="M116.689 13.369L108.999 6.56896C108.479 6.10896 107.769 5.90896 107.089 6.03896L88.8589 9.33896C87.6189 9.55896 86.7989 10.749 87.0289 11.989L92.8289 44.049C93.0489 45.289 94.2389 46.109 95.4789 45.879L138.349 38.129C139.589 37.909 140.409 36.719 140.179 35.479L136.119 13.049C135.899 11.809 134.709 10.989 133.469 11.219L118.609 13.909C117.909 14.029 117.209 13.829 116.689 13.369Z" fill="white"/>
<path opacity="0.6" d="M115.699 15.1385L108.009 8.3385C107.489 7.8785 106.779 7.67849 106.099 7.80849L87.8687 11.1085C86.6287 11.3285 85.8087 12.5185 86.0387 13.7585L91.8387 45.8185C92.0587 47.0585 93.2487 47.8785 94.4887 47.6485L137.359 39.8985C138.599 39.6785 139.419 38.4885 139.189 37.2485L135.129 14.8185C134.909 13.5785 133.719 12.7585 132.479 12.9885L117.619 15.6785C116.919 15.7985 116.219 15.5985 115.699 15.1385Z" fill="white"/>
<path d="M318.689 44.369L310.999 37.569C310.479 37.109 309.769 36.909 309.089 37.039L290.859 40.339C289.619 40.559 288.799 41.749 289.029 42.989L294.829 75.049C295.049 76.289 296.239 77.109 297.479 76.879L340.349 69.129C341.589 68.909 342.409 67.719 342.179 66.479L338.119 44.049C337.899 42.809 336.709 41.989 335.469 42.219L320.609 44.909C319.909 45.029 319.209 44.829 318.689 44.369Z" fill="#005C8E"/>
<path opacity="0.3" d="M318.689 44.369L310.999 37.569C310.479 37.109 309.769 36.909 309.089 37.039L290.859 40.339C289.619 40.559 288.799 41.749 289.029 42.989L294.829 75.049C295.049 76.289 296.239 77.109 297.479 76.879L340.349 69.129C341.589 68.909 342.409 67.719 342.179 66.479L338.119 44.049C337.899 42.809 336.709 41.989 335.469 42.219L320.609 44.909C319.909 45.029 319.209 44.829 318.689 44.369Z" fill="white"/>
<path opacity="0.6" d="M317.699 46.1385L310.009 39.3385C309.489 38.8785 308.779 38.6785 308.099 38.8085L289.869 42.1085C288.629 42.3285 287.809 43.5185 288.039 44.7585L293.839 76.8185C294.059 78.0585 295.249 78.8785 296.489 78.6485L339.359 70.8985C340.599 70.6785 341.419 69.4885 341.189 68.2485L337.129 45.8185C336.909 44.5785 335.719 43.7585 334.479 43.9885L319.619 46.6785C318.919 46.7985 318.219 46.5985 317.699 46.1385Z" fill="white"/>
<path d="M42.6889 126.369L34.9989 119.569C34.4789 119.109 33.7689 118.909 33.0889 119.039L14.8589 122.339C13.6189 122.559 12.7989 123.749 13.0289 124.989L18.8289 157.049C19.0489 158.289 20.2389 159.109 21.4789 158.879L64.3489 151.129C65.5889 150.909 66.4089 149.719 66.1789 148.479L62.1189 126.049C61.8989 124.809 60.7089 123.989 59.4689 124.219L44.6089 126.909C43.9089 127.029 43.2089 126.829 42.6889 126.369Z" fill="#005C8E"/>
<path opacity="0.3" d="M42.6889 126.369L34.9989 119.569C34.4789 119.109 33.7689 118.909 33.0889 119.039L14.8589 122.339C13.6189 122.559 12.7989 123.749 13.0289 124.989L18.8289 157.049C19.0489 158.289 20.2389 159.109 21.4789 158.879L64.3489 151.129C65.5889 150.909 66.4089 149.719 66.1789 148.479L62.1189 126.049C61.8989 124.809 60.7089 123.989 59.4689 124.219L44.6089 126.909C43.9089 127.029 43.2089 126.829 42.6889 126.369Z" fill="white"/>
<path opacity="0.6" d="M41.6987 128.138L34.0087 121.338C33.4887 120.878 32.7787 120.678 32.0987 120.808L13.8687 124.108C12.6287 124.328 11.8087 125.518 12.0387 126.758L17.8387 158.818C18.0587 160.058 19.2487 160.878 20.4887 160.648L63.3587 152.898C64.5987 152.678 65.4187 151.488 65.1887 150.248L61.1287 127.818C60.9087 126.578 59.7187 125.758 58.4787 125.988L43.6187 128.678C42.9187 128.798 42.2187 128.598 41.6987 128.138Z" fill="white"/>
<path d="M336.717 142.534L333.029 139.273C332.779 139.052 332.439 138.956 332.113 139.019L323.371 140.601C322.776 140.707 322.383 141.277 322.493 141.872L325.275 157.246C325.38 157.841 325.951 158.234 326.545 158.124L347.104 154.407C347.698 154.302 348.092 153.731 347.981 153.137L346.034 142.38C345.929 141.786 345.358 141.392 344.763 141.503L337.637 142.793C337.302 142.85 336.966 142.754 336.717 142.534Z" fill="#005C8E"/>
<path opacity="0.3" d="M336.717 142.534L333.029 139.273C332.779 139.052 332.439 138.956 332.113 139.019L323.371 140.601C322.776 140.707 322.383 141.277 322.493 141.872L325.275 157.246C325.38 157.841 325.951 158.234 326.545 158.124L347.104 154.407C347.698 154.302 348.092 153.731 347.981 153.137L346.034 142.38C345.929 141.786 345.358 141.392 344.763 141.503L337.637 142.793C337.302 142.85 336.966 142.754 336.717 142.534Z" fill="white"/>
<path opacity="0.6" d="M336.242 143.381L332.554 140.121C332.305 139.9 331.964 139.804 331.638 139.866L322.896 141.449C322.301 141.554 321.908 142.125 322.019 142.72L324.8 158.094C324.905 158.689 325.476 159.082 326.071 158.972L346.629 155.255C347.224 155.15 347.617 154.579 347.507 153.984L345.56 143.228C345.454 142.633 344.883 142.24 344.289 142.35L337.163 143.64C336.827 143.698 336.491 143.602 336.242 143.381Z" fill="white"/>
<path d="M199 155.002C208.941 145.061 208.941 128.943 199 119.002C189.059 109.061 172.941 109.061 163 119.002C153.059 128.943 153.059 145.061 163 155.002C172.941 164.943 189.059 164.943 199 155.002Z" fill="white" stroke="#005C8E" stroke-width="4.12801" stroke-miterlimit="10" stroke-linecap="round" stroke-linejoin="round"/>
<path d="M180.088 150.54V140.082L173.758 146.412L171.832 144.485L179.538 136.78L171.832 129.074L173.758 127.148L180.088 133.477V123.02H181.464L189.307 130.863L183.39 136.78L189.307 142.696L181.464 150.54H180.088ZM182.84 133.477L185.454 130.863L182.84 128.317V133.477ZM182.84 145.242L185.454 142.696L182.84 140.082V145.242Z" fill="#005C8E"/>
</svg>
