<svg width="96" height="153" viewBox="0 0 96 153" fill="none" xmlns="http://www.w3.org/2000/svg">
<g clip-path="url(#clip0_6319_3556)">
<mask id="mask0_6319_3556" style="mask-type:luminance" maskUnits="userSpaceOnUse" x="-9" y="-9" width="114" height="171">
<path d="M104.33 -8.91016H-8.66992V161.09H104.33V-8.91016Z" fill="white"/>
</mask>
<g mask="url(#mask0_6319_3556)">
<path fill-rule="evenodd" clip-rule="evenodd" d="M23.5502 85.7507C23.5502 88.6707 21.1802 91.0307 18.2702 91.0307C15.3602 91.0307 12.9902 88.6607 12.9902 85.7507C12.9902 82.8407 15.3602 80.4707 18.2702 80.4707C21.1802 80.4707 23.5502 82.8307 23.5502 85.7507Z" fill="white"/>
</g>
<mask id="mask1_6319_3556" style="mask-type:luminance" maskUnits="userSpaceOnUse" x="-9" y="-9" width="114" height="171">
<path d="M104.33 -8.91016H-8.66992V161.09H104.33V-8.91016Z" fill="white"/>
</mask>
<g mask="url(#mask1_6319_3556)">
<path d="M23.5502 85.7507C23.5502 88.6707 21.1802 91.0307 18.2702 91.0307C15.3602 91.0307 12.9902 88.6607 12.9902 85.7507C12.9902 82.8407 15.3602 80.4707 18.2702 80.4707C21.1802 80.4707 23.5502 82.8307 23.5502 85.7507Z" stroke="black" stroke-width="0.5" stroke-miterlimit="2.6131"/>
</g>
<mask id="mask2_6319_3556" style="mask-type:luminance" maskUnits="userSpaceOnUse" x="-9" y="-9" width="114" height="171">
<path d="M104.33 -8.91016H-8.66992V161.09H104.33V-8.91016Z" fill="white"/>
</mask>
<g mask="url(#mask2_6319_3556)">
<path fill-rule="evenodd" clip-rule="evenodd" d="M23.5502 85.7507C23.5502 88.6707 21.1802 91.0307 18.2702 91.0307C15.3602 91.0307 12.9902 88.6607 12.9902 85.7507C12.9902 82.8407 15.3602 80.4707 18.2702 80.4707C21.1802 80.4707 23.5502 82.8307 23.5502 85.7507Z" fill="white"/>
</g>
<mask id="mask3_6319_3556" style="mask-type:luminance" maskUnits="userSpaceOnUse" x="-9" y="-9" width="114" height="171">
<path d="M104.33 -8.91016H-8.66992V161.09H104.33V-8.91016Z" fill="white"/>
</mask>
<g mask="url(#mask3_6319_3556)">
<path d="M23.5502 85.7507C23.5502 88.6707 21.1802 91.0307 18.2702 91.0307C15.3602 91.0307 12.9902 88.6607 12.9902 85.7507C12.9902 82.8407 15.3602 80.4707 18.2702 80.4707C21.1802 80.4707 23.5502 82.8307 23.5502 85.7507Z" stroke="black" stroke-width="0.5" stroke-miterlimit="2.6131"/>
</g>
<mask id="mask4_6319_3556" style="mask-type:luminance" maskUnits="userSpaceOnUse" x="-9" y="-9" width="114" height="171">
<path d="M104.33 -8.91016H-8.66992V161.09H104.33V-8.91016Z" fill="white"/>
</mask>
<g mask="url(#mask4_6319_3556)">
<path d="M95.2201 0.378906H0.330078V152.079H95.2201V0.378906Z" fill="#282829"/>
</g>
<mask id="mask5_6319_3556" style="mask-type:luminance" maskUnits="userSpaceOnUse" x="-9" y="-9" width="114" height="171">
<path d="M104.33 -8.91016H-8.66992V161.09H104.33V-8.91016Z" fill="white"/>
</mask>
<g mask="url(#mask5_6319_3556)">
<path fill-rule="evenodd" clip-rule="evenodd" d="M22.5502 121.6C22.5502 124.52 20.1902 126.88 17.2702 126.88C14.3502 126.88 11.9902 124.52 11.9902 121.6C11.9902 118.68 14.3502 116.32 17.2702 116.32C20.1902 116.32 22.5502 118.68 22.5502 121.6Z" fill="white"/>
<path d="M22.7905 121.6C22.7905 124.52 20.4305 126.88 17.5105 126.88C14.5905 126.88 12.2305 124.52 12.2305 121.6C12.2305 118.68 14.5905 116.32 17.5105 116.32C20.4205 116.32 22.7905 118.68 22.7905 121.6Z" stroke="black" stroke-width="0.5" stroke-miterlimit="2.6131"/>
</g>
<mask id="mask6_6319_3556" style="mask-type:luminance" maskUnits="userSpaceOnUse" x="-9" y="-9" width="114" height="171">
<path d="M104.33 -8.91016H-8.66992V161.09H104.33V-8.91016Z" fill="white"/>
</mask>
<g mask="url(#mask6_6319_3556)">
<path fill-rule="evenodd" clip-rule="evenodd" d="M22.81 104.751C22.81 107.671 20.45 110.031 17.53 110.031C14.61 110.031 12.25 107.671 12.25 104.751C12.25 101.831 14.61 99.4707 17.53 99.4707C20.44 99.4707 22.81 101.831 22.81 104.751Z" fill="white"/>
<path d="M23.0405 104.751C23.0405 107.671 20.6805 110.031 17.7605 110.031C14.8405 110.031 12.4805 107.671 12.4805 104.751C12.4805 101.831 14.8405 99.4707 17.7605 99.4707C20.6805 99.4707 23.0405 101.831 23.0405 104.751Z" stroke="black" stroke-width="0.5" stroke-miterlimit="2.6131"/>
</g>
<mask id="mask7_6319_3556" style="mask-type:luminance" maskUnits="userSpaceOnUse" x="-9" y="-9" width="114" height="171">
<path d="M104.33 -8.91016H-8.66992V161.09H104.33V-8.91016Z" fill="white"/>
</mask>
<g mask="url(#mask7_6319_3556)">
<path fill-rule="evenodd" clip-rule="evenodd" d="M94.1197 54.1005C94.1197 57.9705 90.9497 61.1405 87.0797 61.1405H86.9697C83.0997 61.1405 79.9297 57.9705 79.9297 54.1005C79.9297 50.2305 83.0997 47.0605 86.9697 47.0605H87.0797C90.9497 47.0605 94.1197 50.2305 94.1197 54.1005Z" fill="#ED1C24"/>
</g>
<mask id="mask8_6319_3556" style="mask-type:luminance" maskUnits="userSpaceOnUse" x="-9" y="-9" width="114" height="171">
<path d="M104.33 -8.91016H-8.66992V161.09H104.33V-8.91016Z" fill="white"/>
</mask>
<g mask="url(#mask8_6319_3556)">
<path d="M90.5098 55.1105C89.9798 57.0805 87.9498 58.2505 85.9798 57.7305C84.0098 57.2005 82.8398 55.1705 83.3598 53.2005C83.8898 51.2305 85.9198 50.0605 87.8898 50.5805" stroke="white" stroke-width="1.4173" stroke-miterlimit="2.6131"/>
</g>
<mask id="mask9_6319_3556" style="mask-type:luminance" maskUnits="userSpaceOnUse" x="-9" y="-9" width="114" height="171">
<path d="M104.33 -8.91016H-8.66992V161.09H104.33V-8.91016Z" fill="white"/>
</mask>
<g mask="url(#mask9_6319_3556)">
<path fill-rule="evenodd" clip-rule="evenodd" d="M87.6706 48.959L89.5606 50.909L86.8906 51.879L87.6706 48.959Z" fill="white"/>
</g>
<mask id="mask10_6319_3556" style="mask-type:luminance" maskUnits="userSpaceOnUse" x="-9" y="-9" width="114" height="171">
<path d="M104.33 -8.91016H-8.66992V161.09H104.33V-8.91016Z" fill="white"/>
</mask>
<g mask="url(#mask10_6319_3556)">
<path d="M87.6706 48.959L89.5606 50.909L86.8906 51.879L87.6706 48.959Z" stroke="white" stroke-width="0.216" stroke-miterlimit="2.6131"/>
</g>
<mask id="mask11_6319_3556" style="mask-type:luminance" maskUnits="userSpaceOnUse" x="-9" y="-9" width="114" height="171">
<path d="M104.33 -8.91016H-8.66992V161.09H104.33V-8.91016Z" fill="white"/>
</mask>
<g mask="url(#mask11_6319_3556)">
<path fill-rule="evenodd" clip-rule="evenodd" d="M94.1197 54.1005C94.1197 57.9705 90.9497 61.1405 87.0797 61.1405H86.9697C83.0997 61.1405 79.9297 57.9705 79.9297 54.1005C79.9297 50.2305 83.0997 47.0605 86.9697 47.0605H87.0797C90.9497 47.0605 94.1197 50.2305 94.1197 54.1005Z" fill="#ED1C24"/>
</g>
<mask id="mask12_6319_3556" style="mask-type:luminance" maskUnits="userSpaceOnUse" x="-9" y="-9" width="114" height="171">
<path d="M104.33 -8.91016H-8.66992V161.09H104.33V-8.91016Z" fill="white"/>
</mask>
<g mask="url(#mask12_6319_3556)">
<path d="M90.5098 55.1105C89.9798 57.0805 87.9498 58.2505 85.9798 57.7305C84.0098 57.2005 82.8398 55.1705 83.3598 53.2005C83.8898 51.2305 85.9198 50.0605 87.8898 50.5805" stroke="white" stroke-width="1.4173" stroke-miterlimit="2.6131"/>
</g>
<mask id="mask13_6319_3556" style="mask-type:luminance" maskUnits="userSpaceOnUse" x="-9" y="-9" width="114" height="171">
<path d="M104.33 -8.91016H-8.66992V161.09H104.33V-8.91016Z" fill="white"/>
</mask>
<g mask="url(#mask13_6319_3556)">
<path fill-rule="evenodd" clip-rule="evenodd" d="M87.6706 48.959L89.5606 50.909L86.8906 51.879L87.6706 48.959Z" fill="white"/>
</g>
<mask id="mask14_6319_3556" style="mask-type:luminance" maskUnits="userSpaceOnUse" x="-9" y="-9" width="114" height="171">
<path d="M104.33 -8.91016H-8.66992V161.09H104.33V-8.91016Z" fill="white"/>
</mask>
<g mask="url(#mask14_6319_3556)">
<path d="M87.6706 48.959L89.5606 50.909L86.8906 51.879L87.6706 48.959Z" stroke="white" stroke-width="0.216" stroke-miterlimit="2.6131"/>
</g>
<mask id="mask15_6319_3556" style="mask-type:luminance" maskUnits="userSpaceOnUse" x="-9" y="-9" width="114" height="171">
<path d="M104.33 -8.91016H-8.66992V161.09H104.33V-8.91016Z" fill="white"/>
</mask>
<g mask="url(#mask15_6319_3556)">
<path d="M53.5301 144.679L51.9901 143.749C51.9601 143.729 51.9301 143.719 51.8901 143.719C51.8601 143.719 51.8201 143.729 51.7901 143.749C51.7601 143.769 51.7301 143.789 51.7201 143.819C51.7001 143.849 51.6901 143.879 51.6901 143.919V144.569H47.1201L48.1001 143.009C48.1401 142.949 48.1901 142.899 48.2501 142.859C48.3101 142.819 48.3801 142.809 48.4601 142.809H48.9201C48.9701 142.939 49.0501 143.049 49.1601 143.129C49.2701 143.209 49.4101 143.249 49.5501 143.259C49.7301 143.249 49.8901 143.169 50.0101 143.039C50.1301 142.909 50.2001 142.739 50.2001 142.569C50.2001 142.389 50.1301 142.219 50.0101 142.099C49.8901 141.969 49.7201 141.889 49.5501 141.879C49.4301 141.879 49.3001 141.919 49.2001 141.979C49.1001 142.049 49.0101 142.139 48.9601 142.249H48.4701C48.3001 142.249 48.1401 142.289 47.9901 142.369C47.8401 142.449 47.7201 142.569 47.6301 142.709L46.4701 144.569H46.0801C46.0001 144.349 45.8501 144.169 45.6501 144.049C45.4501 143.929 45.2101 143.889 44.9901 143.939C44.7601 143.979 44.5601 144.109 44.4101 144.289C44.2701 144.469 44.1901 144.699 44.2001 144.929C44.2101 145.159 44.3001 145.379 44.4601 145.549C44.6201 145.719 44.8301 145.829 45.0601 145.849C45.2901 145.869 45.5201 145.819 45.7101 145.679C45.9001 145.549 46.0401 145.349 46.1001 145.129H47.6801L48.8401 146.979C48.9301 147.119 49.0501 147.239 49.2001 147.319C49.3501 147.399 49.5101 147.439 49.6801 147.439H50.4001V147.699H51.6301V146.469H50.4001V146.879H49.6801C49.6101 146.879 49.5401 146.859 49.4701 146.829C49.4101 146.789 49.3501 146.739 49.3201 146.679L48.3401 145.129H51.6901V145.769C51.6901 145.799 51.7001 145.839 51.7201 145.869C51.7401 145.899 51.7601 145.919 51.7901 145.939C51.8201 145.959 51.8501 145.959 51.8801 145.969C51.9201 145.969 51.9501 145.959 51.9801 145.939L53.5201 145.009C53.5501 144.989 53.5701 144.969 53.5901 144.939C53.6101 144.909 53.6201 144.879 53.6201 144.839C53.6201 144.809 53.6101 144.769 53.5901 144.739C53.5801 144.729 53.5501 144.699 53.5301 144.679Z" fill="white"/>
</g>
<mask id="mask16_6319_3556" style="mask-type:luminance" maskUnits="userSpaceOnUse" x="-9" y="-9" width="114" height="171">
<path d="M104.33 -8.91016H-8.66992V161.09H104.33V-8.91016Z" fill="white"/>
</mask>
<g mask="url(#mask16_6319_3556)">
<path d="M53.5301 144.679L51.9901 143.749C51.9601 143.729 51.9301 143.719 51.8901 143.719C51.8601 143.719 51.8201 143.729 51.7901 143.749C51.7601 143.769 51.7301 143.789 51.7201 143.819C51.7001 143.849 51.6901 143.879 51.6901 143.919V144.569H47.1201L48.1001 143.009C48.1401 142.949 48.1901 142.899 48.2501 142.859C48.3101 142.819 48.3801 142.809 48.4601 142.809H48.9201C48.9701 142.939 49.0501 143.049 49.1601 143.129C49.2701 143.209 49.4101 143.249 49.5501 143.259C49.7301 143.249 49.8901 143.169 50.0101 143.039C50.1301 142.909 50.2001 142.739 50.2001 142.569C50.2001 142.389 50.1301 142.219 50.0101 142.099C49.8901 141.969 49.7201 141.889 49.5501 141.879C49.4301 141.879 49.3001 141.919 49.2001 141.979C49.1001 142.049 49.0101 142.139 48.9601 142.249H48.4701C48.3001 142.249 48.1401 142.289 47.9901 142.369C47.8401 142.449 47.7201 142.569 47.6301 142.709L46.4701 144.569H46.0801C46.0001 144.349 45.8501 144.169 45.6501 144.049C45.4501 143.929 45.2101 143.889 44.9901 143.939C44.7601 143.979 44.5601 144.109 44.4101 144.289C44.2701 144.469 44.1901 144.699 44.2001 144.929C44.2101 145.159 44.3001 145.379 44.4601 145.549C44.6201 145.719 44.8301 145.829 45.0601 145.849C45.2901 145.869 45.5201 145.819 45.7101 145.679C45.9001 145.549 46.0401 145.349 46.1001 145.129H47.6801L48.8401 146.979C48.9301 147.119 49.0501 147.239 49.2001 147.319C49.3501 147.399 49.5101 147.439 49.6801 147.439H50.4001V147.699H51.6301V146.469H50.4001V146.879H49.6801C49.6101 146.879 49.5401 146.859 49.4701 146.829C49.4101 146.789 49.3501 146.739 49.3201 146.679L48.3401 145.129H51.6901V145.769C51.6901 145.799 51.7001 145.839 51.7201 145.869C51.7401 145.899 51.7601 145.919 51.7901 145.939C51.8201 145.959 51.8501 145.959 51.8801 145.969C51.9201 145.969 51.9501 145.959 51.9801 145.939L53.5201 145.009C53.5501 144.989 53.5701 144.969 53.5901 144.939C53.6101 144.909 53.6201 144.879 53.6201 144.839C53.6201 144.809 53.6101 144.769 53.5901 144.739C53.5801 144.729 53.5501 144.699 53.5301 144.679Z" fill="white"/>
</g>
<mask id="mask17_6319_3556" style="mask-type:luminance" maskUnits="userSpaceOnUse" x="-9" y="-9" width="114" height="171">
<path d="M104.33 -8.91016H-8.66992V161.09H104.33V-8.91016Z" fill="white"/>
</mask>
<g mask="url(#mask17_6319_3556)">
<path d="M55.2793 141.09H42.5293V148.5H55.2793V141.09Z" stroke="white" stroke-width="0.5" stroke-miterlimit="2.6131"/>
</g>
<mask id="mask18_6319_3556" style="mask-type:luminance" maskUnits="userSpaceOnUse" x="-9" y="-9" width="114" height="171">
<path d="M104.33 -8.91016H-8.66992V161.09H104.33V-8.91016Z" fill="white"/>
</mask>
<g mask="url(#mask18_6319_3556)">
<path d="M55.2793 141.09H42.5293V148.5H55.2793V141.09Z" stroke="white" stroke-width="0.5" stroke-miterlimit="2.6131"/>
</g>
<mask id="mask19_6319_3556" style="mask-type:luminance" maskUnits="userSpaceOnUse" x="-9" y="-9" width="114" height="171">
<path d="M104.33 -8.91016H-8.66992V161.09H104.33V-8.91016Z" fill="white"/>
</mask>
<g mask="url(#mask19_6319_3556)">
<path fill-rule="evenodd" clip-rule="evenodd" d="M25.2498 28.5804C18.8998 28.5804 13.7598 23.5004 13.7598 17.2404C13.7598 10.9804 18.9098 5.90039 25.2498 5.90039H70.2998C76.6498 5.90039 81.7898 10.9804 81.7898 17.2404C81.7898 23.5004 76.6498 28.5804 70.2998 28.5804H25.2498Z" fill="#005DA4"/>
</g>
<mask id="mask20_6319_3556" style="mask-type:luminance" maskUnits="userSpaceOnUse" x="-9" y="-9" width="114" height="171">
<path d="M104.33 -8.91016H-8.66992V161.09H104.33V-8.91016Z" fill="white"/>
</mask>
<g mask="url(#mask20_6319_3556)">
<path fill-rule="evenodd" clip-rule="evenodd" d="M70.3007 28.1296C76.3907 28.1296 81.3307 23.2596 81.3307 17.2396C81.3307 11.2296 76.3907 6.34961 70.3007 6.34961H25.2507C19.1607 6.34961 14.2207 11.2196 14.2207 17.2396C14.2207 23.2496 19.1607 28.1296 25.2507 28.1296H70.3007Z" fill="white"/>
</g>
<mask id="mask21_6319_3556" style="mask-type:luminance" maskUnits="userSpaceOnUse" x="-9" y="-9" width="114" height="171">
<path d="M104.33 -8.91016H-8.66992V161.09H104.33V-8.91016Z" fill="white"/>
</mask>
<g mask="url(#mask21_6319_3556)">
<path fill-rule="evenodd" clip-rule="evenodd" d="M25.2506 27.2198C19.6706 27.2198 15.1406 22.7498 15.1406 17.2398C15.1406 11.7298 19.6706 7.25977 25.2506 7.25977H70.3006C75.8806 7.25977 80.4106 11.7298 80.4106 17.2398C80.4106 22.7498 75.8806 27.2198 70.3006 27.2198H25.2506Z" fill="#005DA4"/>
</g>
<mask id="mask22_6319_3556" style="mask-type:luminance" maskUnits="userSpaceOnUse" x="-9" y="-9" width="114" height="171">
<path d="M104.33 -8.91016H-8.66992V161.09H104.33V-8.91016Z" fill="white"/>
</mask>
<g mask="url(#mask22_6319_3556)">
<path d="M34.5998 18.1504H32.3398V25.4104H34.5998V18.1504Z" fill="white"/>
</g>
<mask id="mask23_6319_3556" style="mask-type:luminance" maskUnits="userSpaceOnUse" x="-9" y="-9" width="114" height="171">
<path d="M104.33 -8.91016H-8.66992V161.09H104.33V-8.91016Z" fill="white"/>
</mask>
<g mask="url(#mask23_6319_3556)">
<path fill-rule="evenodd" clip-rule="evenodd" d="M37.6805 21.7604L41.7905 18.1504H39.1105L34.8105 21.7804L38.9205 25.4104H41.7905L37.6805 21.7604Z" fill="white"/>
</g>
<mask id="mask24_6319_3556" style="mask-type:luminance" maskUnits="userSpaceOnUse" x="-9" y="-9" width="114" height="171">
<path d="M104.33 -8.91016H-8.66992V161.09H104.33V-8.91016Z" fill="white"/>
</mask>
<g mask="url(#mask24_6319_3556)">
<path fill-rule="evenodd" clip-rule="evenodd" d="M55.0708 21.7795V22.8095C55.0708 22.8095 54.5508 22.7695 54.1808 22.7695C52.7408 22.7695 52.5508 23.5195 52.5508 23.9795V24.1395C52.5508 25.2695 53.4808 25.3995 54.3808 25.3995C55.0708 25.3995 56.0508 25.3095 56.0508 25.3095V21.7695H55.0708V21.7795ZM55.0708 24.8895C54.9708 24.8895 54.6408 24.9295 54.3808 24.9295C53.9108 24.9295 53.5508 24.7895 53.5508 24.2195V23.9595C53.5508 23.3995 53.9008 23.2495 54.3808 23.2495C54.6508 23.2495 54.9708 23.2795 55.0708 23.2895V24.8895Z" fill="white"/>
</g>
<mask id="mask25_6319_3556" style="mask-type:luminance" maskUnits="userSpaceOnUse" x="-9" y="-9" width="114" height="171">
<path d="M104.33 -8.91016H-8.66992V161.09H104.33V-8.91016Z" fill="white"/>
</mask>
<g mask="url(#mask25_6319_3556)">
<path fill-rule="evenodd" clip-rule="evenodd" d="M65.4808 24.2395V24.2095C65.4808 23.0895 65.2108 22.6895 63.6508 22.6895C62.4308 22.6895 61.8008 22.9395 61.8008 23.8595V24.1295C61.8008 25.0495 62.1808 25.3995 63.9108 25.3995C64.5508 25.3995 65.1608 25.3395 65.2108 25.3295V24.8695C65.1608 24.8795 64.5808 24.9595 63.9208 24.9595C63.4108 24.9595 62.8808 24.9195 62.8808 24.3395V24.2395H65.4808ZM62.8808 23.8095V23.6295C62.8808 23.2895 63.1308 23.0895 63.6608 23.0895C64.2308 23.0895 64.4408 23.2895 64.4408 23.6295V23.8095H62.8808Z" fill="white"/>
</g>
<mask id="mask26_6319_3556" style="mask-type:luminance" maskUnits="userSpaceOnUse" x="-9" y="-9" width="114" height="171">
<path d="M104.33 -8.91016H-8.66992V161.09H104.33V-8.91016Z" fill="white"/>
</mask>
<g mask="url(#mask26_6319_3556)">
<path fill-rule="evenodd" clip-rule="evenodd" d="M58.591 24.3592C59.281 24.4092 59.531 24.4192 59.531 24.6592C59.531 24.9892 58.931 24.9492 58.531 24.9492C58.161 24.9492 57.461 24.8792 57.461 24.8792V25.3392C57.461 25.3392 58.221 25.3992 58.821 25.3992C60.091 25.3992 60.591 25.2192 60.591 24.6092C60.591 24.2792 60.351 23.8192 59.161 23.7792C58.671 23.7692 58.371 23.7192 58.371 23.4692C58.371 23.1892 58.801 23.1592 59.271 23.1592C59.781 23.1592 60.571 23.2592 60.571 23.2592V22.7892C60.571 22.7892 59.561 22.6992 59.031 22.6992C58.401 22.6992 57.291 22.6992 57.291 23.5592C57.291 24.0192 57.621 24.2992 58.591 24.3592Z" fill="white"/>
</g>
<mask id="mask27_6319_3556" style="mask-type:luminance" maskUnits="userSpaceOnUse" x="-9" y="-9" width="114" height="171">
<path d="M104.33 -8.91016H-8.66992V161.09H104.33V-8.91016Z" fill="white"/>
</mask>
<g mask="url(#mask27_6319_3556)">
<path fill-rule="evenodd" clip-rule="evenodd" d="M68.8209 22.6995C68.2609 22.6995 67.6909 22.7195 67.6909 22.7195L66.7109 22.7595V25.4095H67.7609V23.1795C67.7609 23.1795 68.2509 23.1195 68.6909 23.1595C69.2409 23.1995 69.1909 23.5995 69.1909 23.9295V25.4095H70.2509V23.5995C70.2509 22.9595 69.9209 22.6895 68.8209 22.6995Z" fill="white"/>
</g>
<mask id="mask28_6319_3556" style="mask-type:luminance" maskUnits="userSpaceOnUse" x="-9" y="-9" width="114" height="171">
<path d="M104.33 -8.91016H-8.66992V161.09H104.33V-8.91016Z" fill="white"/>
</mask>
<g mask="url(#mask28_6319_3556)">
<path fill-rule="evenodd" clip-rule="evenodd" d="M50.2793 24.9295C50.2793 24.9295 49.7893 24.9895 49.3493 24.9495C48.7893 24.9095 48.8393 24.5195 48.8393 24.1795V22.6895H47.7793V24.5095C47.7793 25.1395 48.1093 25.3995 49.2193 25.3995C49.7793 25.3995 50.3493 25.3795 50.3493 25.3795L51.3393 25.3395V22.6895H50.2793V24.9295Z" fill="white"/>
</g>
<mask id="mask29_6319_3556" style="mask-type:luminance" maskUnits="userSpaceOnUse" x="-9" y="-9" width="114" height="171">
<path d="M104.33 -8.91016H-8.66992V161.09H104.33V-8.91016Z" fill="white"/>
</mask>
<g mask="url(#mask29_6319_3556)">
<path fill-rule="evenodd" clip-rule="evenodd" d="M45.1195 22.6895C44.5595 22.6895 43.9895 22.7195 43.9895 22.7195L43.0195 22.7595V25.3995H44.0695V23.1795C44.0695 23.1795 44.5595 23.1195 44.9995 23.1495C45.5595 23.1995 45.5095 23.5895 45.5095 23.9195V25.4095H46.5595V23.5895C46.5595 22.9595 46.2195 22.6895 45.1195 22.6895Z" fill="white"/>
</g>
<mask id="mask30_6319_3556" style="mask-type:luminance" maskUnits="userSpaceOnUse" x="-9" y="-9" width="114" height="171">
<path d="M104.33 -8.91016H-8.66992V161.09H104.33V-8.91016Z" fill="white"/>
</mask>
<g mask="url(#mask30_6319_3556)">
<path fill-rule="evenodd" clip-rule="evenodd" d="M52.5508 14.1791H54.4408L52.5508 15.7291V16.3391H55.7408V15.7291H53.8408L55.7508 14.1791V13.6191H52.5508V14.1791Z" fill="white"/>
</g>
<mask id="mask31_6319_3556" style="mask-type:luminance" maskUnits="userSpaceOnUse" x="-9" y="-9" width="114" height="171">
<path d="M104.33 -8.91016H-8.66992V161.09H104.33V-8.91016Z" fill="white"/>
</mask>
<g mask="url(#mask31_6319_3556)">
<path d="M48.121 13.6094H47.041V16.3394H48.121V13.6094Z" fill="white"/>
</g>
<mask id="mask32_6319_3556" style="mask-type:luminance" maskUnits="userSpaceOnUse" x="-9" y="-9" width="114" height="171">
<path d="M104.33 -8.91016H-8.66992V161.09H104.33V-8.91016Z" fill="white"/>
</mask>
<g mask="url(#mask32_6319_3556)">
<path fill-rule="evenodd" clip-rule="evenodd" d="M47.041 12.719V13.209H48.121V12.709H47.041V12.719Z" fill="white"/>
</g>
<mask id="mask33_6319_3556" style="mask-type:luminance" maskUnits="userSpaceOnUse" x="-9" y="-9" width="114" height="171">
<path d="M104.33 -8.91016H-8.66992V161.09H104.33V-8.91016Z" fill="white"/>
</mask>
<g mask="url(#mask33_6319_3556)">
<path fill-rule="evenodd" clip-rule="evenodd" d="M43.1602 13.6591V16.3291H44.2502V14.1791C44.4902 14.1591 44.7202 14.1691 45.1402 14.1691L45.8002 14.1991L45.8102 13.6291C45.5702 13.6291 44.6302 13.6191 44.2302 13.6191C43.7302 13.6291 43.1602 13.6691 43.1602 13.6591Z" fill="white"/>
</g>
<mask id="mask34_6319_3556" style="mask-type:luminance" maskUnits="userSpaceOnUse" x="-9" y="-9" width="114" height="171">
<path d="M104.33 -8.91016H-8.66992V161.09H104.33V-8.91016Z" fill="white"/>
</mask>
<g mask="url(#mask34_6319_3556)">
<path fill-rule="evenodd" clip-rule="evenodd" d="M37.0203 13.9994C36.7403 13.6694 36.2603 13.6394 35.6003 13.6294C34.7503 13.6094 33.8203 13.7194 33.8203 13.7194V14.1994C33.8203 14.1994 34.7103 14.0694 35.2003 14.0694C35.6803 14.0694 36.0903 14.1494 36.1003 14.5094V14.7094C36.1003 14.7094 35.6303 14.7094 35.2703 14.7094C34.0903 14.7094 33.5703 14.8894 33.5703 15.4894C33.5703 16.3094 34.5303 16.3394 35.3803 16.3394C35.9603 16.3394 36.5403 16.2994 37.1203 16.2694V15.4494C37.1303 14.7594 37.1703 14.1794 37.0203 13.9994ZM36.1003 15.8594C35.9703 15.8694 35.6203 15.8894 35.3703 15.8894C35.0403 15.8894 34.6003 15.8994 34.6003 15.5194C34.6003 15.1494 34.9503 15.1094 35.2903 15.1094H36.1103V15.8594H36.1003Z" fill="white"/>
</g>
<mask id="mask35_6319_3556" style="mask-type:luminance" maskUnits="userSpaceOnUse" x="-9" y="-9" width="114" height="171">
<path d="M104.33 -8.91016H-8.66992V161.09H104.33V-8.91016Z" fill="white"/>
</mask>
<g mask="url(#mask35_6319_3556)">
<path fill-rule="evenodd" clip-rule="evenodd" d="M50.3798 12.709L49.3398 12.929V15.529C49.3398 16.029 49.4598 16.339 50.1398 16.339H51.3198V15.839H50.7698C50.5098 15.839 50.3798 15.739 50.3798 15.469V14.219H51.3298V13.679H50.3798V12.709Z" fill="white"/>
</g>
<mask id="mask36_6319_3556" style="mask-type:luminance" maskUnits="userSpaceOnUse" x="-9" y="-9" width="114" height="171">
<path d="M104.33 -8.91016H-8.66992V161.09H104.33V-8.91016Z" fill="white"/>
</mask>
<g mask="url(#mask36_6319_3556)">
<path fill-rule="evenodd" clip-rule="evenodd" d="M40.8809 15.8591C40.8809 15.8591 40.3909 15.9191 39.9509 15.8791C39.3909 15.8391 39.4409 15.4491 39.4409 15.1091V13.6191H38.3809V15.4391C38.3809 16.0791 38.7109 16.3291 39.8209 16.3291C40.3809 16.3291 40.9509 16.3091 40.9509 16.3091L41.9409 16.2691V13.6191H40.8809V15.8591Z" fill="white"/>
</g>
<mask id="mask37_6319_3556" style="mask-type:luminance" maskUnits="userSpaceOnUse" x="-9" y="-9" width="114" height="171">
<path d="M104.33 -8.91016H-8.66992V161.09H104.33V-8.91016Z" fill="white"/>
</mask>
<g mask="url(#mask37_6319_3556)">
<path fill-rule="evenodd" clip-rule="evenodd" d="M27.5608 9.08008H25.3008V16.3401H32.3408V14.6201H27.5708L27.5608 9.08008Z" fill="white"/>
</g>
<mask id="mask38_6319_3556" style="mask-type:luminance" maskUnits="userSpaceOnUse" x="-9" y="-9" width="114" height="171">
<path d="M104.33 -8.91016H-8.66992V161.09H104.33V-8.91016Z" fill="white"/>
</mask>
<g mask="url(#mask38_6319_3556)">
<path fill-rule="evenodd" clip-rule="evenodd" d="M25.2498 28.5804C18.8998 28.5804 13.7598 23.5004 13.7598 17.2404C13.7598 10.9804 18.9098 5.90039 25.2498 5.90039H70.2998C76.6498 5.90039 81.7898 10.9804 81.7898 17.2404C81.7898 23.5004 76.6498 28.5804 70.2998 28.5804H25.2498Z" fill="#005DA4"/>
</g>
<mask id="mask39_6319_3556" style="mask-type:luminance" maskUnits="userSpaceOnUse" x="-9" y="-9" width="114" height="171">
<path d="M104.33 -8.91016H-8.66992V161.09H104.33V-8.91016Z" fill="white"/>
</mask>
<g mask="url(#mask39_6319_3556)">
<path fill-rule="evenodd" clip-rule="evenodd" d="M70.3007 28.1296C76.3907 28.1296 81.3307 23.2596 81.3307 17.2396C81.3307 11.2296 76.3907 6.34961 70.3007 6.34961H25.2507C19.1607 6.34961 14.2207 11.2196 14.2207 17.2396C14.2207 23.2496 19.1607 28.1296 25.2507 28.1296H70.3007Z" fill="white"/>
</g>
<mask id="mask40_6319_3556" style="mask-type:luminance" maskUnits="userSpaceOnUse" x="-9" y="-9" width="114" height="171">
<path d="M104.33 -8.91016H-8.66992V161.09H104.33V-8.91016Z" fill="white"/>
</mask>
<g mask="url(#mask40_6319_3556)">
<path fill-rule="evenodd" clip-rule="evenodd" d="M25.2506 27.2198C19.6706 27.2198 15.1406 22.7498 15.1406 17.2398C15.1406 11.7298 19.6706 7.25977 25.2506 7.25977H70.3006C75.8806 7.25977 80.4106 11.7298 80.4106 17.2398C80.4106 22.7498 75.8806 27.2198 70.3006 27.2198H25.2506Z" fill="#005DA4"/>
</g>
<mask id="mask41_6319_3556" style="mask-type:luminance" maskUnits="userSpaceOnUse" x="-9" y="-9" width="114" height="171">
<path d="M104.33 -8.91016H-8.66992V161.09H104.33V-8.91016Z" fill="white"/>
</mask>
<g mask="url(#mask41_6319_3556)">
<path d="M34.5998 18.1504H32.3398V25.4104H34.5998V18.1504Z" fill="white"/>
</g>
<mask id="mask42_6319_3556" style="mask-type:luminance" maskUnits="userSpaceOnUse" x="-9" y="-9" width="114" height="171">
<path d="M104.33 -8.91016H-8.66992V161.09H104.33V-8.91016Z" fill="white"/>
</mask>
<g mask="url(#mask42_6319_3556)">
<path fill-rule="evenodd" clip-rule="evenodd" d="M37.6805 21.7604L41.7905 18.1504H39.1105L34.8105 21.7804L38.9205 25.4104H41.7905L37.6805 21.7604Z" fill="white"/>
</g>
<mask id="mask43_6319_3556" style="mask-type:luminance" maskUnits="userSpaceOnUse" x="-9" y="-9" width="114" height="171">
<path d="M104.33 -8.91016H-8.66992V161.09H104.33V-8.91016Z" fill="white"/>
</mask>
<g mask="url(#mask43_6319_3556)">
<path fill-rule="evenodd" clip-rule="evenodd" d="M55.0708 21.7795V22.8095C55.0708 22.8095 54.5508 22.7695 54.1808 22.7695C52.7408 22.7695 52.5508 23.5195 52.5508 23.9795V24.1395C52.5508 25.2695 53.4808 25.3995 54.3808 25.3995C55.0708 25.3995 56.0508 25.3095 56.0508 25.3095V21.7695H55.0708V21.7795ZM55.0708 24.8895C54.9708 24.8895 54.6408 24.9295 54.3808 24.9295C53.9108 24.9295 53.5508 24.7895 53.5508 24.2195V23.9595C53.5508 23.3995 53.9008 23.2495 54.3808 23.2495C54.6508 23.2495 54.9708 23.2795 55.0708 23.2895V24.8895Z" fill="white"/>
</g>
<mask id="mask44_6319_3556" style="mask-type:luminance" maskUnits="userSpaceOnUse" x="-9" y="-9" width="114" height="171">
<path d="M104.33 -8.91016H-8.66992V161.09H104.33V-8.91016Z" fill="white"/>
</mask>
<g mask="url(#mask44_6319_3556)">
<path fill-rule="evenodd" clip-rule="evenodd" d="M65.4808 24.2395V24.2095C65.4808 23.0895 65.2108 22.6895 63.6508 22.6895C62.4308 22.6895 61.8008 22.9395 61.8008 23.8595V24.1295C61.8008 25.0495 62.1808 25.3995 63.9108 25.3995C64.5508 25.3995 65.1608 25.3395 65.2108 25.3295V24.8695C65.1608 24.8795 64.5808 24.9595 63.9208 24.9595C63.4108 24.9595 62.8808 24.9195 62.8808 24.3395V24.2395H65.4808ZM62.8808 23.8095V23.6295C62.8808 23.2895 63.1308 23.0895 63.6608 23.0895C64.2308 23.0895 64.4408 23.2895 64.4408 23.6295V23.8095H62.8808Z" fill="white"/>
</g>
<mask id="mask45_6319_3556" style="mask-type:luminance" maskUnits="userSpaceOnUse" x="-9" y="-9" width="114" height="171">
<path d="M104.33 -8.91016H-8.66992V161.09H104.33V-8.91016Z" fill="white"/>
</mask>
<g mask="url(#mask45_6319_3556)">
<path fill-rule="evenodd" clip-rule="evenodd" d="M58.591 24.3592C59.281 24.4092 59.531 24.4192 59.531 24.6592C59.531 24.9892 58.931 24.9492 58.531 24.9492C58.161 24.9492 57.461 24.8792 57.461 24.8792V25.3392C57.461 25.3392 58.221 25.3992 58.821 25.3992C60.091 25.3992 60.591 25.2192 60.591 24.6092C60.591 24.2792 60.351 23.8192 59.161 23.7792C58.671 23.7692 58.371 23.7192 58.371 23.4692C58.371 23.1892 58.801 23.1592 59.271 23.1592C59.781 23.1592 60.571 23.2592 60.571 23.2592V22.7892C60.571 22.7892 59.561 22.6992 59.031 22.6992C58.401 22.6992 57.291 22.6992 57.291 23.5592C57.291 24.0192 57.621 24.2992 58.591 24.3592Z" fill="white"/>
</g>
<mask id="mask46_6319_3556" style="mask-type:luminance" maskUnits="userSpaceOnUse" x="-9" y="-9" width="114" height="171">
<path d="M104.33 -8.91016H-8.66992V161.09H104.33V-8.91016Z" fill="white"/>
</mask>
<g mask="url(#mask46_6319_3556)">
<path fill-rule="evenodd" clip-rule="evenodd" d="M68.8209 22.6995C68.2609 22.6995 67.6909 22.7195 67.6909 22.7195L66.7109 22.7595V25.4095H67.7609V23.1795C67.7609 23.1795 68.2509 23.1195 68.6909 23.1595C69.2409 23.1995 69.1909 23.5995 69.1909 23.9295V25.4095H70.2509V23.5995C70.2509 22.9595 69.9209 22.6895 68.8209 22.6995Z" fill="white"/>
</g>
<mask id="mask47_6319_3556" style="mask-type:luminance" maskUnits="userSpaceOnUse" x="-9" y="-9" width="114" height="171">
<path d="M104.33 -8.91016H-8.66992V161.09H104.33V-8.91016Z" fill="white"/>
</mask>
<g mask="url(#mask47_6319_3556)">
<path fill-rule="evenodd" clip-rule="evenodd" d="M50.2793 24.9295C50.2793 24.9295 49.7893 24.9895 49.3493 24.9495C48.7893 24.9095 48.8393 24.5195 48.8393 24.1795V22.6895H47.7793V24.5095C47.7793 25.1395 48.1093 25.3995 49.2193 25.3995C49.7793 25.3995 50.3493 25.3795 50.3493 25.3795L51.3393 25.3395V22.6895H50.2793V24.9295Z" fill="white"/>
</g>
<mask id="mask48_6319_3556" style="mask-type:luminance" maskUnits="userSpaceOnUse" x="-9" y="-9" width="114" height="171">
<path d="M104.33 -8.91016H-8.66992V161.09H104.33V-8.91016Z" fill="white"/>
</mask>
<g mask="url(#mask48_6319_3556)">
<path fill-rule="evenodd" clip-rule="evenodd" d="M45.1195 22.6895C44.5595 22.6895 43.9895 22.7195 43.9895 22.7195L43.0195 22.7595V25.3995H44.0695V23.1795C44.0695 23.1795 44.5595 23.1195 44.9995 23.1495C45.5595 23.1995 45.5095 23.5895 45.5095 23.9195V25.4095H46.5595V23.5895C46.5595 22.9595 46.2195 22.6895 45.1195 22.6895Z" fill="white"/>
</g>
<mask id="mask49_6319_3556" style="mask-type:luminance" maskUnits="userSpaceOnUse" x="-9" y="-9" width="114" height="171">
<path d="M104.33 -8.91016H-8.66992V161.09H104.33V-8.91016Z" fill="white"/>
</mask>
<g mask="url(#mask49_6319_3556)">
<path fill-rule="evenodd" clip-rule="evenodd" d="M52.5508 14.1791H54.4408L52.5508 15.7291V16.3391H55.7408V15.7291H53.8408L55.7508 14.1791V13.6191H52.5508V14.1791Z" fill="white"/>
</g>
<mask id="mask50_6319_3556" style="mask-type:luminance" maskUnits="userSpaceOnUse" x="-9" y="-9" width="114" height="171">
<path d="M104.33 -8.91016H-8.66992V161.09H104.33V-8.91016Z" fill="white"/>
</mask>
<g mask="url(#mask50_6319_3556)">
<path d="M48.121 13.6094H47.041V16.3394H48.121V13.6094Z" fill="white"/>
</g>
<mask id="mask51_6319_3556" style="mask-type:luminance" maskUnits="userSpaceOnUse" x="-9" y="-9" width="114" height="171">
<path d="M104.33 -8.91016H-8.66992V161.09H104.33V-8.91016Z" fill="white"/>
</mask>
<g mask="url(#mask51_6319_3556)">
<path fill-rule="evenodd" clip-rule="evenodd" d="M47.041 12.719V13.209H48.121V12.709H47.041V12.719Z" fill="white"/>
</g>
<mask id="mask52_6319_3556" style="mask-type:luminance" maskUnits="userSpaceOnUse" x="-9" y="-9" width="114" height="171">
<path d="M104.33 -8.91016H-8.66992V161.09H104.33V-8.91016Z" fill="white"/>
</mask>
<g mask="url(#mask52_6319_3556)">
<path fill-rule="evenodd" clip-rule="evenodd" d="M43.1602 13.6591V16.3291H44.2502V14.1791C44.4902 14.1591 44.7202 14.1691 45.1402 14.1691L45.8002 14.1991L45.8102 13.6291C45.5702 13.6291 44.6302 13.6191 44.2302 13.6191C43.7302 13.6291 43.1602 13.6691 43.1602 13.6591Z" fill="white"/>
</g>
<mask id="mask53_6319_3556" style="mask-type:luminance" maskUnits="userSpaceOnUse" x="-9" y="-9" width="114" height="171">
<path d="M104.33 -8.91016H-8.66992V161.09H104.33V-8.91016Z" fill="white"/>
</mask>
<g mask="url(#mask53_6319_3556)">
<path fill-rule="evenodd" clip-rule="evenodd" d="M37.0203 13.9994C36.7403 13.6694 36.2603 13.6394 35.6003 13.6294C34.7503 13.6094 33.8203 13.7194 33.8203 13.7194V14.1994C33.8203 14.1994 34.7103 14.0694 35.2003 14.0694C35.6803 14.0694 36.0903 14.1494 36.1003 14.5094V14.7094C36.1003 14.7094 35.6303 14.7094 35.2703 14.7094C34.0903 14.7094 33.5703 14.8894 33.5703 15.4894C33.5703 16.3094 34.5303 16.3394 35.3803 16.3394C35.9603 16.3394 36.5403 16.2994 37.1203 16.2694V15.4494C37.1303 14.7594 37.1703 14.1794 37.0203 13.9994ZM36.1003 15.8594C35.9703 15.8694 35.6203 15.8894 35.3703 15.8894C35.0403 15.8894 34.6003 15.8994 34.6003 15.5194C34.6003 15.1494 34.9503 15.1094 35.2903 15.1094H36.1103V15.8594H36.1003Z" fill="white"/>
</g>
<mask id="mask54_6319_3556" style="mask-type:luminance" maskUnits="userSpaceOnUse" x="-9" y="-9" width="114" height="171">
<path d="M104.33 -8.91016H-8.66992V161.09H104.33V-8.91016Z" fill="white"/>
</mask>
<g mask="url(#mask54_6319_3556)">
<path fill-rule="evenodd" clip-rule="evenodd" d="M50.3798 12.709L49.3398 12.929V15.529C49.3398 16.029 49.4598 16.339 50.1398 16.339H51.3198V15.839H50.7698C50.5098 15.839 50.3798 15.739 50.3798 15.469V14.219H51.3298V13.679H50.3798V12.709Z" fill="white"/>
</g>
<mask id="mask55_6319_3556" style="mask-type:luminance" maskUnits="userSpaceOnUse" x="-9" y="-9" width="114" height="171">
<path d="M104.33 -8.91016H-8.66992V161.09H104.33V-8.91016Z" fill="white"/>
</mask>
<g mask="url(#mask55_6319_3556)">
<path fill-rule="evenodd" clip-rule="evenodd" d="M40.8809 15.8591C40.8809 15.8591 40.3909 15.9191 39.9509 15.8791C39.3909 15.8391 39.4409 15.4491 39.4409 15.1091V13.6191H38.3809V15.4391C38.3809 16.0791 38.7109 16.3291 39.8209 16.3291C40.3809 16.3291 40.9509 16.3091 40.9509 16.3091L41.9409 16.2691V13.6191H40.8809V15.8591Z" fill="white"/>
</g>
<mask id="mask56_6319_3556" style="mask-type:luminance" maskUnits="userSpaceOnUse" x="-9" y="-9" width="114" height="171">
<path d="M104.33 -8.91016H-8.66992V161.09H104.33V-8.91016Z" fill="white"/>
</mask>
<g mask="url(#mask56_6319_3556)">
<path fill-rule="evenodd" clip-rule="evenodd" d="M27.5608 9.08008H25.3008V16.3401H32.3408V14.6201H27.5708L27.5608 9.08008Z" fill="white"/>
</g>
<mask id="mask57_6319_3556" style="mask-type:luminance" maskUnits="userSpaceOnUse" x="-9" y="-9" width="114" height="171">
<path d="M104.33 -8.91016H-8.66992V161.09H104.33V-8.91016Z" fill="white"/>
</mask>
<g mask="url(#mask57_6319_3556)">
<path fill-rule="evenodd" clip-rule="evenodd" d="M25.3697 85.7499C25.3697 89.6499 22.1797 92.8499 18.2797 92.8499C14.3797 92.8499 11.1797 89.6599 11.1797 85.7599C11.1797 81.8599 14.3697 78.6699 18.2797 78.6699C22.1697 78.6599 25.3697 81.8499 25.3697 85.7499Z" fill="#FEBD11"/>
</g>
<mask id="mask58_6319_3556" style="mask-type:luminance" maskUnits="userSpaceOnUse" x="-9" y="-9" width="114" height="171">
<path d="M104.33 -8.91016H-8.66992V161.09H104.33V-8.91016Z" fill="white"/>
</mask>
<g mask="url(#mask58_6319_3556)">
<path fill-rule="evenodd" clip-rule="evenodd" d="M25.3697 85.7499C25.3697 89.6499 22.1797 92.8499 18.2797 92.8499C14.3797 92.8499 11.1797 89.6599 11.1797 85.7599C11.1797 81.8599 14.3697 78.6699 18.2797 78.6699C22.1697 78.6599 25.3697 81.8499 25.3697 85.7499Z" fill="#FEBD11"/>
</g>
<mask id="mask59_6319_3556" style="mask-type:luminance" maskUnits="userSpaceOnUse" x="-9" y="-9" width="114" height="171">
<path d="M104.33 -8.91016H-8.66992V161.09H104.33V-8.91016Z" fill="white"/>
</mask>
<g mask="url(#mask59_6319_3556)">
<path fill-rule="evenodd" clip-rule="evenodd" d="M21.6402 85.6697L14.9102 89.3197L16.1702 85.6697L14.9102 82.1797L21.6402 85.6697Z" fill="white"/>
</g>
<mask id="mask60_6319_3556" style="mask-type:luminance" maskUnits="userSpaceOnUse" x="-9" y="-9" width="114" height="171">
<path d="M104.33 -8.91016H-8.66992V161.09H104.33V-8.91016Z" fill="white"/>
</mask>
<g mask="url(#mask60_6319_3556)">
<path d="M21.6402 85.6697L14.9102 89.3197L16.1702 85.6697L14.9102 82.1797L21.6402 85.6697Z" stroke="white" stroke-width="0.7087" stroke-miterlimit="10"/>
</g>
<mask id="mask61_6319_3556" style="mask-type:luminance" maskUnits="userSpaceOnUse" x="-9" y="-9" width="114" height="171">
<path d="M104.33 -8.91016H-8.66992V161.09H104.33V-8.91016Z" fill="white"/>
</mask>
<g mask="url(#mask61_6319_3556)">
<path fill-rule="evenodd" clip-rule="evenodd" d="M21.6402 85.6697L14.9102 89.3197L16.1702 85.6697L14.9102 82.1797L21.6402 85.6697Z" fill="white"/>
</g>
<mask id="mask62_6319_3556" style="mask-type:luminance" maskUnits="userSpaceOnUse" x="-9" y="-9" width="114" height="171">
<path d="M104.33 -8.91016H-8.66992V161.09H104.33V-8.91016Z" fill="white"/>
</mask>
<g mask="url(#mask62_6319_3556)">
<path d="M21.6402 85.6697L14.9102 89.3197L16.1702 85.6697L14.9102 82.1797L21.6402 85.6697Z" stroke="white" stroke-width="0.7087" stroke-miterlimit="10"/>
</g>
<path d="M28.6451 121.787H27.4763V121.05H28.6451C28.8257 121.05 28.9727 121.02 29.0861 120.961C29.1996 120.9 29.2825 120.816 29.335 120.709C29.3875 120.602 29.4138 120.481 29.4138 120.347C29.4138 120.211 29.3875 120.083 29.335 119.966C29.2825 119.848 29.1996 119.754 29.0861 119.682C28.9727 119.611 28.8257 119.575 28.6451 119.575H27.8039V123.422H26.8588V118.835H28.6451C29.0042 118.835 29.3119 118.9 29.5682 119.03C29.8265 119.158 30.0239 119.336 30.1604 119.563C30.297 119.789 30.3652 120.049 30.3652 120.341C30.3652 120.637 30.297 120.893 30.1604 121.109C30.0239 121.326 29.8265 121.493 29.5682 121.61C29.3119 121.728 29.0042 121.787 28.6451 121.787ZM34.7853 121.021V121.239C34.7853 121.587 34.738 121.9 34.6435 122.177C34.549 122.455 34.4156 122.691 34.2434 122.886C34.0712 123.08 33.8654 123.228 33.6259 123.331C33.3886 123.433 33.125 123.485 32.8352 123.485C32.5474 123.485 32.2838 123.433 32.0444 123.331C31.8071 123.228 31.6012 123.08 31.4269 122.886C31.2526 122.691 31.1171 122.455 31.0205 122.177C30.926 121.9 30.8787 121.587 30.8787 121.239V121.021C30.8787 120.67 30.926 120.358 31.0205 120.082C31.115 119.805 31.2484 119.569 31.4206 119.374C31.5949 119.178 31.8008 119.029 32.0381 118.926C32.2775 118.823 32.5411 118.772 32.8289 118.772C33.1187 118.772 33.3823 118.823 33.6196 118.926C33.8591 119.029 34.0649 119.178 34.2371 119.374C34.4114 119.569 34.5458 119.805 34.6404 120.082C34.737 120.358 34.7853 120.67 34.7853 121.021ZM33.8307 121.239V121.015C33.8307 120.771 33.8086 120.557 33.7645 120.372C33.7204 120.187 33.6553 120.032 33.5692 119.906C33.4831 119.78 33.3781 119.685 33.2542 119.622C33.1303 119.557 32.9885 119.525 32.8289 119.525C32.6692 119.525 32.5275 119.557 32.4035 119.622C32.2817 119.685 32.1778 119.78 32.0917 119.906C32.0076 120.032 31.9436 120.187 31.8995 120.372C31.8554 120.557 31.8333 120.771 31.8333 121.015V121.239C31.8333 121.48 31.8554 121.694 31.8995 121.881C31.9436 122.066 32.0087 122.223 32.0948 122.351C32.1809 122.477 32.2859 122.572 32.4098 122.637C32.5338 122.703 32.6755 122.735 32.8352 122.735C32.9948 122.735 33.1366 122.703 33.2605 122.637C33.3844 122.572 33.4884 122.477 33.5724 122.351C33.6564 122.223 33.7204 122.066 33.7645 121.881C33.8086 121.694 33.8307 121.48 33.8307 121.239ZM36.5716 122.694L37.4852 118.835H37.9956L38.1121 119.478L37.1387 123.422H36.5905L36.5716 122.694ZM36.1022 118.835L36.8583 122.694L36.7953 123.422H36.1841L35.1665 118.835H36.1022ZM38.9155 122.678L39.6622 118.835H40.5978L39.5834 123.422H38.9722L38.9155 122.678ZM38.2823 118.835L39.2022 122.71L39.177 123.422H38.6288L37.649 119.474L37.775 118.835H38.2823ZM44.1893 122.685V123.422H41.7478V122.685H44.1893ZM42.0565 118.835V123.422H41.1114V118.835H42.0565ZM43.8711 120.703V121.421H41.7478V120.703H43.8711ZM44.1862 118.835V119.575H41.7478V118.835H44.1862ZM44.7407 118.835H46.4514C46.8021 118.835 47.1035 118.887 47.3555 118.992C47.6097 119.097 47.805 119.253 47.9415 119.459C48.078 119.664 48.1463 119.918 48.1463 120.218C48.1463 120.464 48.1043 120.675 48.0203 120.851C47.9384 121.025 47.8218 121.171 47.6706 121.289C47.5215 121.405 47.3461 121.497 47.1445 121.566L46.8452 121.724H45.3582L45.3519 120.987H46.4577C46.6236 120.987 46.7612 120.957 46.8704 120.898C46.9796 120.84 47.0615 120.758 47.1161 120.653C47.1728 120.548 47.2012 120.426 47.2012 120.287C47.2012 120.14 47.1739 120.013 47.1193 119.906C47.0646 119.799 46.9817 119.717 46.8704 119.66C46.7591 119.604 46.6194 119.575 46.4514 119.575H45.6858V123.422H44.7407V118.835ZM47.3051 123.422L46.2592 121.377L47.2579 121.371L48.3164 123.378V123.422H47.3051ZM54.2487 121.021V121.239C54.2487 121.587 54.2014 121.9 54.1069 122.177C54.0124 122.455 53.879 122.691 53.7068 122.886C53.5346 123.08 53.3288 123.228 53.0893 123.331C52.852 123.433 52.5884 123.485 52.2986 123.485C52.0108 123.485 51.7472 123.433 51.5078 123.331C51.2705 123.228 51.0647 123.08 50.8903 122.886C50.716 122.691 50.5805 122.455 50.4839 122.177C50.3894 121.9 50.3422 121.587 50.3422 121.239V121.021C50.3422 120.67 50.3894 120.358 50.4839 120.082C50.5784 119.805 50.7118 119.569 50.884 119.374C51.0584 119.178 51.2642 119.029 51.5015 118.926C51.7409 118.823 52.0045 118.772 52.2923 118.772C52.5821 118.772 52.8457 118.823 53.083 118.926C53.3225 119.029 53.5283 119.178 53.7005 119.374C53.8748 119.569 54.0093 119.805 54.1038 120.082C54.2004 120.358 54.2487 120.67 54.2487 121.021ZM53.2941 121.239V121.015C53.2941 120.771 53.2721 120.557 53.228 120.372C53.1838 120.187 53.1187 120.032 53.0326 119.906C52.9465 119.78 52.8415 119.685 52.7176 119.622C52.5937 119.557 52.4519 119.525 52.2923 119.525C52.1327 119.525 51.9909 119.557 51.867 119.622C51.7451 119.685 51.6412 119.78 51.5551 119.906C51.4711 120.032 51.407 120.187 51.3629 120.372C51.3188 120.557 51.2967 120.771 51.2967 121.015V121.239C51.2967 121.48 51.3188 121.694 51.3629 121.881C51.407 122.066 51.4721 122.223 51.5582 122.351C51.6443 122.477 51.7493 122.572 51.8733 122.637C51.9972 122.703 52.139 122.735 52.2986 122.735C52.4582 122.735 52.6 122.703 52.7239 122.637C52.8478 122.572 52.9518 122.477 53.0358 122.351C53.1198 122.223 53.1838 122.066 53.228 121.881C53.2721 121.694 53.2941 121.48 53.2941 121.239ZM58.6625 118.835V123.422H57.7173L55.8743 120.347V123.422H54.9292V118.835H55.8743L57.7205 121.913V118.835H58.6625Z" fill="white"/>
<path d="M29.655 105.882C29.655 105.8 29.6424 105.726 29.6172 105.661C29.5941 105.594 29.55 105.533 29.4849 105.478C29.4198 105.422 29.3284 105.366 29.2108 105.311C29.0932 105.257 28.9409 105.2 28.754 105.141C28.5461 105.074 28.3486 104.999 28.1617 104.915C27.9769 104.831 27.8131 104.733 27.6702 104.622C27.5295 104.508 27.4182 104.377 27.3363 104.228C27.2565 104.079 27.2166 103.905 27.2166 103.708C27.2166 103.517 27.2586 103.344 27.3426 103.188C27.4266 103.031 27.5442 102.896 27.6954 102.785C27.8467 102.671 28.0252 102.584 28.231 102.523C28.4389 102.462 28.6668 102.432 28.9147 102.432C29.2528 102.432 29.5479 102.493 29.7999 102.615C30.052 102.737 30.2473 102.903 30.3859 103.116C30.5266 103.328 30.597 103.57 30.597 103.843H29.6582C29.6582 103.709 29.6298 103.591 29.5731 103.491C29.5185 103.388 29.4345 103.307 29.3211 103.248C29.2097 103.189 29.069 103.16 28.8989 103.16C28.7351 103.16 28.5986 103.185 28.4893 103.235C28.3801 103.284 28.2982 103.35 28.2436 103.434C28.189 103.516 28.1617 103.608 28.1617 103.711C28.1617 103.789 28.1806 103.859 28.2184 103.922C28.2583 103.985 28.3171 104.044 28.3948 104.099C28.4725 104.153 28.5681 104.205 28.6815 104.253C28.7949 104.301 28.9262 104.349 29.0753 104.395C29.3253 104.47 29.5447 104.555 29.7338 104.65C29.9249 104.744 30.0845 104.85 30.2126 104.968C30.3408 105.086 30.4374 105.219 30.5025 105.368C30.5676 105.517 30.6001 105.686 30.6001 105.875C30.6001 106.075 30.5613 106.253 30.4836 106.411C30.4059 106.569 30.2935 106.702 30.1465 106.811C29.9995 106.92 29.8241 107.003 29.6204 107.06C29.4166 107.117 29.1887 107.145 28.9367 107.145C28.7099 107.145 28.4862 107.116 28.2657 107.057C28.0451 106.996 27.8446 106.905 27.6639 106.783C27.4854 106.661 27.3426 106.506 27.2355 106.316C27.1284 106.127 27.0748 105.904 27.0748 105.645H28.0231C28.0231 105.788 28.0451 105.909 28.0892 106.008C28.1333 106.106 28.1953 106.186 28.2751 106.247C28.357 106.308 28.4536 106.352 28.565 106.379C28.6784 106.407 28.8023 106.42 28.9367 106.42C29.1005 106.42 29.235 106.397 29.34 106.351C29.4471 106.305 29.5258 106.241 29.5763 106.159C29.6288 106.077 29.655 105.985 29.655 105.882ZM33.2938 102.495V107.082H32.3518V102.495H33.2938ZM34.7052 102.495V103.235H30.9624V102.495H34.7052ZM36.7687 103.279L35.5211 107.082H34.5161L36.2205 102.495H36.8601L36.7687 103.279ZM37.8052 107.082L36.5545 103.279L36.4537 102.495H37.0995L38.8133 107.082H37.8052ZM37.7485 105.374V106.115H35.3258V105.374H37.7485ZM40.8989 102.495V107.082H39.9569V102.495H40.8989ZM42.3103 102.495V103.235H38.5676V102.495H42.3103ZM45.382 102.495H46.324V105.526C46.324 105.879 46.2484 106.176 46.0972 106.417C45.948 106.659 45.7412 106.84 45.4765 106.962C45.214 107.084 44.9115 107.145 44.5692 107.145C44.2268 107.145 43.9223 107.084 43.6556 106.962C43.3909 106.84 43.183 106.659 43.0318 106.417C42.8827 106.176 42.8081 105.879 42.8081 105.526V102.495H43.7532V105.526C43.7532 105.732 43.7858 105.9 43.8509 106.03C43.916 106.16 44.0095 106.256 44.1313 106.316C44.2552 106.377 44.4012 106.408 44.5692 106.408C44.7414 106.408 44.8874 106.377 45.0071 106.316C45.1289 106.256 45.2213 106.16 45.2843 106.03C45.3495 105.9 45.382 105.732 45.382 105.526V102.495ZM49.4902 105.882C49.4902 105.8 49.4776 105.726 49.4524 105.661C49.4293 105.594 49.3852 105.533 49.3201 105.478C49.2549 105.422 49.1636 105.366 49.046 105.311C48.9284 105.257 48.7761 105.2 48.5892 105.141C48.3812 105.074 48.1838 104.999 47.9969 104.915C47.812 104.831 47.6482 104.733 47.5054 104.622C47.3647 104.508 47.2534 104.377 47.1715 104.228C47.0916 104.079 47.0517 103.905 47.0517 103.708C47.0517 103.517 47.0937 103.344 47.1778 103.188C47.2618 103.031 47.3794 102.896 47.5306 102.785C47.6818 102.671 47.8604 102.584 48.0662 102.523C48.2741 102.462 48.502 102.432 48.7498 102.432C49.088 102.432 49.3831 102.493 49.6351 102.615C49.8871 102.737 50.0825 102.903 50.2211 103.116C50.3618 103.328 50.4322 103.57 50.4322 103.843H49.4933C49.4933 103.709 49.465 103.591 49.4083 103.491C49.3537 103.388 49.2696 103.307 49.1562 103.248C49.0449 103.189 48.9042 103.16 48.7341 103.16C48.5703 103.16 48.4337 103.185 48.3245 103.235C48.2153 103.284 48.1334 103.35 48.0788 103.434C48.0242 103.516 47.9969 103.608 47.9969 103.711C47.9969 103.789 48.0158 103.859 48.0536 103.922C48.0935 103.985 48.1523 104.044 48.23 104.099C48.3077 104.153 48.4033 104.205 48.5167 104.253C48.6301 104.301 48.7614 104.349 48.9105 104.395C49.1604 104.47 49.3799 104.555 49.5689 104.65C49.7601 104.744 49.9197 104.85 50.0478 104.968C50.1759 105.086 50.2725 105.219 50.3376 105.368C50.4028 105.517 50.4353 105.686 50.4353 105.875C50.4353 106.075 50.3965 106.253 50.3187 106.411C50.241 106.569 50.1287 106.702 49.9816 106.811C49.8346 106.92 49.6593 107.003 49.4555 107.06C49.2518 107.117 49.0239 107.145 48.7719 107.145C48.545 107.145 48.3214 107.116 48.1008 107.057C47.8803 106.996 47.6797 106.905 47.4991 106.783C47.3206 106.661 47.1778 106.506 47.0706 106.316C46.9635 106.127 46.91 105.904 46.91 105.645H47.8583C47.8583 105.788 47.8803 105.909 47.9244 106.008C47.9685 106.106 48.0305 106.186 48.1103 106.247C48.1922 106.308 48.2888 106.352 48.4001 106.379C48.5135 106.407 48.6375 106.42 48.7719 106.42C48.9357 106.42 49.0701 106.397 49.1751 106.351C49.2822 106.305 49.361 106.241 49.4114 106.159C49.4639 106.077 49.4902 105.985 49.4902 105.882Z" fill="white"/>
<path d="M35.656 53.7904L36.2199 54.8269L36.7996 53.7904H37.7668L36.8028 55.457L37.8109 57.1992H36.8406L36.2262 56.1029L35.6119 57.1992H34.6416L35.6497 55.457L34.6857 53.7904H35.656ZM38.6962 52.6122H39.4964L40.6747 55.98L41.8529 52.6122H42.6531L40.996 57.1992H40.3533L38.6962 52.6122ZM38.2646 52.6122H39.0616L39.2066 55.8949V57.1992H38.2646V52.6122ZM42.2877 52.6122H43.0879V57.1992H42.1428V55.8949L42.2877 52.6122ZM43.8598 52.3601H44.7671V56.4179L44.6757 57.1992H43.8598V52.3601ZM46.9251 55.4602V55.5263C46.9251 55.7805 46.8978 56.0136 46.8432 56.2257C46.7907 56.4379 46.7088 56.6216 46.5975 56.7771C46.4862 56.9304 46.3476 57.0501 46.1816 57.1362C46.0178 57.2202 45.8246 57.2622 45.602 57.2622C45.394 57.2622 45.2134 57.2202 45.0601 57.1362C44.9089 57.0522 44.7818 56.9335 44.6789 56.7802C44.576 56.6269 44.493 56.4473 44.43 56.2415C44.367 56.0357 44.3197 55.8109 44.2882 55.5673V55.4224C44.3197 55.1787 44.367 54.954 44.43 54.7482C44.493 54.5423 44.576 54.3628 44.6789 54.2095C44.7818 54.0561 44.9089 53.9375 45.0601 53.8535C45.2113 53.7694 45.3898 53.7274 45.5957 53.7274C45.8204 53.7274 46.0157 53.7705 46.1816 53.8566C46.3497 53.9406 46.4883 54.0603 46.5975 54.2158C46.7088 54.3691 46.7907 54.5518 46.8432 54.7639C46.8978 54.974 46.9251 55.206 46.9251 55.4602ZM46.0178 55.5263V55.4602C46.0178 55.3216 46.0073 55.1913 45.9863 55.0695C45.9674 54.9456 45.9338 54.8374 45.8855 54.745C45.8372 54.6505 45.771 54.576 45.687 54.5213C45.6051 54.4667 45.499 54.4394 45.3688 54.4394C45.2449 54.4394 45.1399 54.4604 45.0538 54.5024C44.9677 54.5444 44.8963 54.6033 44.8395 54.6789C44.7849 54.7545 44.744 54.8448 44.7167 54.9498C44.6894 55.0527 44.6726 55.1661 44.6663 55.2901V55.7028C44.6726 55.8687 44.6999 56.0157 44.7482 56.1438C44.7986 56.2698 44.8742 56.3696 44.975 56.4431C45.0779 56.5145 45.2113 56.5502 45.3751 56.5502C45.5032 56.5502 45.6093 56.525 45.6933 56.4746C45.7773 56.4242 45.8424 56.3528 45.8886 56.2604C45.937 56.168 45.9706 56.0598 45.9895 55.9359C46.0084 55.8099 46.0178 55.6734 46.0178 55.5263ZM51.2696 52.6027V57.1992H50.3623V53.6487L49.2722 53.9952V53.2801L51.1719 52.6027H51.2696ZM55.8503 54.5024V55.2964C55.8503 55.6408 55.8136 55.938 55.7401 56.1879C55.6666 56.4358 55.5605 56.6395 55.4219 56.7991C55.2854 56.9566 55.1226 57.0732 54.9336 57.1488C54.7445 57.2244 54.5345 57.2622 54.3035 57.2622C54.1186 57.2622 53.9464 57.2391 53.7868 57.1929C53.6272 57.1446 53.4833 57.0701 53.3552 56.9692C53.2292 56.8684 53.12 56.7414 53.0275 56.588C52.9372 56.4326 52.8679 56.2478 52.8196 56.0336C52.7713 55.8193 52.7472 55.5736 52.7472 55.2964V54.5024C52.7472 54.158 52.7839 53.8629 52.8574 53.6172C52.933 53.3693 53.0391 53.1667 53.1756 53.0091C53.3142 52.8516 53.4781 52.7361 53.6671 52.6626C53.8561 52.587 54.0661 52.5492 54.2972 52.5492C54.482 52.5492 54.6532 52.5733 54.8107 52.6216C54.9703 52.6678 55.1142 52.7403 55.2423 52.839C55.3704 52.9377 55.4796 53.0648 55.5699 53.2202C55.6603 53.3735 55.7296 53.5573 55.7779 53.7715C55.8262 53.9837 55.8503 54.2273 55.8503 54.5024ZM54.9399 55.4161V54.3796C54.9399 54.2137 54.9304 54.0687 54.9115 53.9448C54.8947 53.8209 54.8684 53.7159 54.8327 53.6298C54.797 53.5416 54.7529 53.4701 54.7004 53.4155C54.6479 53.3609 54.5881 53.321 54.5208 53.2958C54.4536 53.2706 54.3791 53.258 54.2972 53.258C54.1943 53.258 54.1029 53.278 54.0231 53.3179C53.9454 53.3578 53.8792 53.4218 53.8246 53.5101C53.77 53.5962 53.728 53.7117 53.6986 53.8566C53.6713 53.9994 53.6576 54.1737 53.6576 54.3796V55.4161C53.6576 55.582 53.666 55.728 53.6828 55.854C53.7017 55.98 53.729 56.0882 53.7647 56.1785C53.8025 56.2667 53.8467 56.3391 53.8971 56.3959C53.9496 56.4505 54.0094 56.4904 54.0766 56.5156C54.1459 56.5408 54.2216 56.5534 54.3035 56.5534C54.4043 56.5534 54.4935 56.5334 54.5713 56.4935C54.6511 56.4515 54.7183 56.3864 54.7729 56.2982C54.8296 56.2079 54.8716 56.0903 54.8989 55.9453C54.9262 55.8004 54.9399 55.624 54.9399 55.4161ZM59.5552 54.5024V55.2964C59.5552 55.6408 59.5185 55.938 59.445 56.1879C59.3715 56.4358 59.2654 56.6395 59.1268 56.7991C58.9903 56.9566 58.8275 57.0732 58.6385 57.1488C58.4494 57.2244 58.2394 57.2622 58.0084 57.2622C57.8236 57.2622 57.6513 57.2391 57.4917 57.1929C57.3321 57.1446 57.1882 57.0701 57.0601 56.9692C56.9341 56.8684 56.8249 56.7414 56.7325 56.588C56.6421 56.4326 56.5728 56.2478 56.5245 56.0336C56.4762 55.8193 56.4521 55.5736 56.4521 55.2964V54.5024C56.4521 54.158 56.4888 53.8629 56.5623 53.6172C56.6379 53.3693 56.744 53.1667 56.8805 53.0091C57.0191 52.8516 57.183 52.7361 57.372 52.6626C57.561 52.587 57.7711 52.5492 58.0021 52.5492C58.1869 52.5492 58.3581 52.5733 58.5156 52.6216C58.6752 52.6678 58.8191 52.7403 58.9472 52.839C59.0753 52.9377 59.1845 53.0648 59.2749 53.2202C59.3652 53.3735 59.4345 53.5573 59.4828 53.7715C59.5311 53.9837 59.5552 54.2273 59.5552 54.5024ZM58.6448 55.4161V54.3796C58.6448 54.2137 58.6353 54.0687 58.6164 53.9448C58.5996 53.8209 58.5734 53.7159 58.5377 53.6298C58.502 53.5416 58.4578 53.4701 58.4053 53.4155C58.3528 53.3609 58.293 53.321 58.2258 53.2958C58.1586 53.2706 58.084 53.258 58.0021 53.258C57.8992 53.258 57.8078 53.278 57.728 53.3179C57.6503 53.3578 57.5841 53.4218 57.5295 53.5101C57.4749 53.5962 57.4329 53.7117 57.4035 53.8566C57.3762 53.9994 57.3625 54.1737 57.3625 54.3796V55.4161C57.3625 55.582 57.3709 55.728 57.3877 55.854C57.4066 55.98 57.434 56.0882 57.4697 56.1785C57.5075 56.2667 57.5516 56.3391 57.602 56.3959C57.6545 56.4505 57.7143 56.4904 57.7816 56.5156C57.8509 56.5408 57.9265 56.5534 58.0084 56.5534C58.1092 56.5534 58.1985 56.5334 58.2762 56.4935C58.356 56.4515 58.4232 56.3864 58.4778 56.2982C58.5345 56.2079 58.5765 56.0903 58.6038 55.9453C58.6311 55.8004 58.6448 55.624 58.6448 55.4161ZM63.2602 54.5024V55.2964C63.2602 55.6408 63.2234 55.938 63.1499 56.1879C63.0764 56.4358 62.9703 56.6395 62.8317 56.7991C62.6952 56.9566 62.5324 57.0732 62.3434 57.1488C62.1544 57.2244 61.9443 57.2622 61.7133 57.2622C61.5285 57.2622 61.3563 57.2391 61.1966 57.1929C61.037 57.1446 60.8931 57.0701 60.765 56.9692C60.639 56.8684 60.5298 56.7414 60.4374 56.588C60.3471 56.4326 60.2778 56.2478 60.2294 56.0336C60.1811 55.8193 60.157 55.5736 60.157 55.2964V54.5024C60.157 54.158 60.1937 53.8629 60.2672 53.6172C60.3429 53.3693 60.4489 53.1667 60.5854 53.0091C60.7241 52.8516 60.8879 52.7361 61.0769 52.6626C61.2659 52.587 61.476 52.5492 61.707 52.5492C61.8918 52.5492 62.063 52.5733 62.2205 52.6216C62.3801 52.6678 62.524 52.7403 62.6521 52.839C62.7803 52.9377 62.8895 53.0648 62.9798 53.2202C63.0701 53.3735 63.1394 53.5573 63.1877 53.7715C63.236 53.9837 63.2602 54.2273 63.2602 54.5024ZM62.3497 55.4161V54.3796C62.3497 54.2137 62.3402 54.0687 62.3213 53.9448C62.3045 53.8209 62.2783 53.7159 62.2426 53.6298C62.2069 53.5416 62.1628 53.4701 62.1103 53.4155C62.0577 53.3609 61.9979 53.321 61.9307 53.2958C61.8635 53.2706 61.7889 53.258 61.707 53.258C61.6041 53.258 61.5127 53.278 61.4329 53.3179C61.3552 53.3578 61.289 53.4218 61.2344 53.5101C61.1798 53.5962 61.1378 53.7117 61.1084 53.8566C61.0811 53.9994 61.0675 54.1737 61.0675 54.3796V55.4161C61.0675 55.582 61.0759 55.728 61.0927 55.854C61.1116 55.98 61.1389 56.0882 61.1746 56.1785C61.2124 56.2667 61.2565 56.3391 61.3069 56.3959C61.3594 56.4505 61.4193 56.4904 61.4865 56.5156C61.5558 56.5408 61.6314 56.5534 61.7133 56.5534C61.8141 56.5534 61.9034 56.5334 61.9811 56.4935C62.0609 56.4515 62.1281 56.3864 62.1827 56.2982C62.2394 56.2079 62.2814 56.0903 62.3087 55.9453C62.336 55.8004 62.3497 55.624 62.3497 55.4161Z" fill="white"/>
<path d="M39.8686 41.2104H37.0493L37.0342 39.6575H39.4012C39.8183 39.6575 40.16 39.6048 40.4264 39.4992C40.6927 39.3887 40.8912 39.2304 41.0219 39.0243C41.1576 38.8133 41.2254 38.557 41.2254 38.2554C41.2254 37.9137 41.1601 37.6373 41.0294 37.4262C40.9038 37.2151 40.7053 37.0619 40.4339 36.9664C40.1676 36.8709 39.8233 36.8232 39.4012 36.8232H37.8332V46.0273H35.5718V35.0517H39.4012C40.0394 35.0517 40.6098 35.112 41.1124 35.2326C41.6199 35.3532 42.0496 35.5366 42.4014 35.7829C42.7532 36.0291 43.0221 36.3407 43.208 36.7176C43.3939 37.0895 43.4869 37.5318 43.4869 38.0444C43.4869 38.4966 43.3839 38.9138 43.1778 39.2957C42.9768 39.6776 42.6577 39.9892 42.2205 40.2304C41.7883 40.4717 41.2229 40.6048 40.5244 40.63L39.8686 41.2104ZM39.7706 46.0273H36.4311L37.3131 44.2634H39.7706C40.1676 44.2634 40.4917 44.2006 40.743 44.0749C40.9943 43.9443 41.1802 43.7684 41.3008 43.5473C41.4214 43.3261 41.4817 43.0724 41.4817 42.7859C41.4817 42.4643 41.4265 42.1854 41.3159 41.9492C41.2104 41.713 41.0395 41.532 40.8033 41.4064C40.5671 41.2757 40.2555 41.2104 39.8686 41.2104H37.69L37.7051 39.6575H40.4189L40.939 40.2681C41.6074 40.2581 42.1451 40.3762 42.5522 40.6224C42.9643 40.8637 43.2633 41.1777 43.4492 41.5647C43.6402 41.9517 43.7357 42.3663 43.7357 42.8085C43.7357 43.5121 43.5824 44.1051 43.2758 44.5875C42.9693 45.065 42.5195 45.4243 41.9265 45.6655C41.3385 45.9067 40.6199 46.0273 39.7706 46.0273ZM52.4876 44.2634V46.0273H46.962V44.2634H52.4876ZM47.6932 35.0517V46.0273H45.4318V35.0517H47.6932ZM61.149 44.2634V46.0273H55.3069V44.2634H61.149ZM56.0456 35.0517V46.0273H53.7841V35.0517H56.0456ZM60.3876 39.5218V41.2406H55.3069V39.5218H60.3876ZM61.1415 35.0517V36.8232H55.3069V35.0517H61.1415Z" fill="white"/>
<path d="M75.1576 63.1825H76.8683C77.219 63.1825 77.5204 63.235 77.7725 63.34C78.0266 63.445 78.2219 63.6004 78.3585 63.8063C78.495 64.0121 78.5632 64.2652 78.5632 64.5655C78.5632 64.8113 78.5212 65.0223 78.4372 65.1988C78.3553 65.3731 78.2387 65.5191 78.0875 65.6367C77.9384 65.7522 77.763 65.8446 77.5614 65.9139L77.2621 66.0714H75.7751L75.7688 65.3342H76.8746C77.0405 65.3342 77.1781 65.3048 77.2873 65.246C77.3965 65.1872 77.4784 65.1053 77.533 65.0003C77.5897 64.8953 77.6181 64.7735 77.6181 64.6348C77.6181 64.4878 77.5908 64.3608 77.5362 64.2536C77.4816 64.1465 77.3986 64.0646 77.2873 64.0079C77.176 63.9512 77.0363 63.9228 76.8683 63.9228H76.1027V67.7695H75.1576V63.1825ZM77.7221 67.7695L76.6761 65.7249L77.6748 65.7186L78.7334 67.7254V67.7695H77.7221ZM82.369 67.0323V67.7695H79.9274V67.0323H82.369ZM80.2361 63.1825V67.7695H79.291V63.1825H80.2361ZM82.0508 65.0507V65.769H79.9274V65.0507H82.0508ZM82.3658 63.1825V63.9228H79.9274V63.1825H82.3658ZM85.3083 66.5692C85.3083 66.4873 85.2957 66.4138 85.2705 66.3487C85.2474 66.2815 85.2033 66.2206 85.1382 66.166C85.0731 66.1092 84.9817 66.0536 84.8641 65.999C84.7465 65.9444 84.5942 65.8877 84.4073 65.8289C84.1994 65.7617 84.0019 65.686 83.815 65.602C83.6302 65.518 83.4664 65.4204 83.3235 65.309C83.1828 65.1956 83.0715 65.0644 82.9896 64.9152C82.9098 64.7661 82.8699 64.5928 82.8699 64.3954C82.8699 64.2043 82.9119 64.031 82.9959 63.8756C83.0799 63.7181 83.1975 63.5836 83.3487 63.4723C83.5 63.3589 83.6785 63.2718 83.8843 63.2108C84.0923 63.1499 84.3201 63.1195 84.568 63.1195C84.9061 63.1195 85.2012 63.1804 85.4532 63.3022C85.7053 63.424 85.9006 63.591 86.0392 63.8031C86.1799 64.0153 86.2503 64.2578 86.2503 64.5309H85.3115C85.3115 64.3965 85.2831 64.2788 85.2264 64.178C85.1718 64.0751 85.0878 63.9943 84.9744 63.9354C84.8631 63.8766 84.7223 63.8472 84.5522 63.8472C84.3884 63.8472 84.2519 63.8724 84.1427 63.9228C84.0334 63.9712 83.9515 64.0373 83.8969 64.1213C83.8423 64.2032 83.815 64.2956 83.815 64.3986C83.815 64.4763 83.8339 64.5466 83.8717 64.6096C83.9116 64.6726 83.9704 64.7315 84.0481 64.7861C84.1259 64.8407 84.2214 64.8921 84.3348 64.9404C84.4482 64.9887 84.5795 65.036 84.7286 65.0822C84.9786 65.1578 85.1981 65.2429 85.3871 65.3374C85.5782 65.4319 85.7378 65.538 85.8659 65.6556C85.9941 65.7732 86.0907 65.9066 86.1558 66.0557C86.2209 66.2048 86.2535 66.3739 86.2535 66.5629C86.2535 66.7624 86.2146 66.941 86.1369 67.0985C86.0592 67.256 85.9468 67.3894 85.7998 67.4986C85.6528 67.6078 85.4774 67.6908 85.2737 67.7475C85.0699 67.8042 84.8421 67.8325 84.59 67.8325C84.3632 67.8325 84.1395 67.8031 83.919 67.7443C83.6984 67.6834 83.4979 67.5921 83.3172 67.4702C83.1387 67.3484 82.9959 67.193 82.8888 67.004C82.7817 66.8149 82.7281 66.5913 82.7281 66.3329H83.6764C83.6764 66.4758 83.6984 66.5965 83.7426 66.6952C83.7867 66.7939 83.8486 66.8738 83.9284 66.9347C84.0103 66.9956 84.107 67.0397 84.2183 67.067C84.3317 67.0943 84.4556 67.1079 84.59 67.1079C84.7538 67.1079 84.8883 67.0848 84.9933 67.0386C85.1004 66.9924 85.1792 66.9284 85.2296 66.8465C85.2821 66.7645 85.3083 66.6721 85.3083 66.5692ZM89.9741 67.0323V67.7695H87.5325V67.0323H89.9741ZM87.8413 63.1825V67.7695H86.8961V63.1825H87.8413ZM89.6559 65.0507V65.769H87.5325V65.0507H89.6559ZM89.971 63.1825V63.9228H87.5325V63.1825H89.971ZM92.6394 63.1825V67.7695H91.6974V63.1825H92.6394ZM94.0508 63.1825V63.9228H90.3081V63.1825H94.0508Z" fill="white"/>
</g>
<defs>
<clipPath id="clip0_6319_3556">
<rect width="95.2" height="152.06" fill="white"/>
</clipPath>
</defs>
</svg>
