<svg xmlns="http://www.w3.org/2000/svg" viewBox="0 0 500 500"><ellipse cx="250" cy="416.24" rx="193.89" ry="11.32" style="fill:#f5f5f5"/><path d="M404.46 387.44c0-.32-1.08-31.92-6.2-36.9-4.93-4.79-10.62-.17-10.86 0l-.64-.77c.06-.05 6.61-5.4 12.2 0 5.4 5.25 6.46 36.26 6.5 37.58Z" style="fill:#005c8e"/><path d="M404.9 393.67c-.15-1.55-3.52-38 10.24-53.83l.76.66c-13.48 15.47-10 52.7-10 53.07Z" style="fill:#005c8e"/><path d="m404.59 389.69-1-.07c0-.43 2.69-42.71-7.36-51.94l.68-.74c10.39 9.56 7.79 50.99 7.68 52.75" style="fill:#005c8e"/><path d="M405.9 389.66h-1c0-1.17.33-28.65 8.17-33.14a5.61 5.61 0 0 1 5.13-.5c4.75 2 7.1 10.4 7.2 10.75l-1 .27c0-.09-2.31-8.32-6.62-10.09a4.59 4.59 0 0 0-4.24.44c-7.32 4.19-7.64 31.99-7.64 32.27M402.87 389.68l-1-.06c0-.21 1.17-21.63-4.6-29.16q-2.07-2.71-4.45-2.56c-3.74.26-6.9 5.77-6.93 5.83l-.87-.5c.14-.24 3.45-6 7.73-6.32 1.92-.13 3.72.85 5.32 2.94 5.99 7.82 4.85 28.94 4.8 29.83" style="fill:#005c8e"/><path d="M403.94 392.6c-.16-2.08-3.79-51.11 2.62-59.77l.8.59c-6.18 8.37-2.46 58.6-2.42 59.11ZM419.9 361.07s-3.83 1.41-2.7 4.74 13.25 8.82 13.25 8.82 5.07-4.65.42-12.21-10.87-3.74-10.97-1.35" style="fill:#005c8e"/><path d="M419.9 361.07s-3.83 1.41-2.7 4.74 13.25 8.82 13.25 8.82 5.07-4.65.42-12.21-10.87-3.74-10.97-1.35" style="fill:#fff;opacity:.2;isolation:isolate"/><path d="M403.25 354.72s4.08-.17 4.31 3.35-8.83 13.23-8.83 13.23-6.47-2.34-5.08-11.1 8.59-7.64 9.6-5.48" style="fill:#005c8e"/><path d="M403.25 354.72s4.08-.17 4.31 3.35-8.83 13.23-8.83 13.23-6.47-2.34-5.08-11.1 8.59-7.64 9.6-5.48" style="fill:#fff;opacity:.2;isolation:isolate"/><path d="M399.8 337.9s2.72-.29 2.5-1.95-10.57-5.91-16.68 1c0 0 3.91 6.71 9.56 6.8s4.62-5.85 4.62-5.85" style="fill:#005c8e"/><path d="M399.8 337.9s2.72-.29 2.5-1.95-10.57-5.91-16.68 1c0 0 3.91 6.71 9.56 6.8s4.62-5.85 4.62-5.85" style="fill:#fff;opacity:.2;isolation:isolate"/><path d="M404.86 333.88s-2.46 1.19-3.15-.33 5.84-10.61 14.67-8c0 0 .23 7.77-4.52 10.83s-7-2.5-7-2.5" style="fill:#005c8e"/><path d="M404.86 333.88s-2.46 1.19-3.15-.33 5.84-10.61 14.67-8c0 0 .23 7.77-4.52 10.83s-7-2.5-7-2.5" style="fill:#fff;opacity:.2;isolation:isolate"/><path d="M392 359.73s1.88-1.52-.15-2.26-12-.53-12.06 9.32c0 0 11.57 1.92 13-1.83s-.79-5.23-.79-5.23" style="fill:#005c8e"/><path d="M392 359.73s1.88-1.52-.15-2.26-12-.53-12.06 9.32c0 0 11.57 1.92 13-1.83s-.79-5.23-.79-5.23" style="fill:#fff;opacity:.2;isolation:isolate"/><path d="M415.59 337.66s-1.88-1.52.15-2.26 12-.53 12.06 9.31c0 0-11.57 1.93-13-1.82s.79-5.23.79-5.23" style="fill:#005c8e"/><path d="M415.59 337.66s-1.88-1.52.15-2.26 12-.53 12.06 9.31c0 0-11.57 1.93-13-1.82s.79-5.23.79-5.23" style="fill:#fff;opacity:.2;isolation:isolate"/><path d="M409.47 345.58s-.16-1.84 1.32-1.12 6.67 6.31 1.3 11.61c0 0-7.23-5.35-5.93-8.14s3.31-2.35 3.31-2.35" style="fill:#005c8e"/><path d="M409.47 345.58s-.16-1.84 1.32-1.12 6.67 6.31 1.3 11.61c0 0-7.23-5.35-5.93-8.14s3.31-2.35 3.31-2.35" style="fill:#fff;opacity:.2;isolation:isolate"/><path d="M390.31 348.21s1.13-1.47-.52-1.65-9 1.78-7.29 9.13c0 0 9-.68 9.36-3.73s-1.55-3.75-1.55-3.75" style="fill:#005c8e"/><path d="M390.31 348.21s1.13-1.47-.52-1.65-9 1.78-7.29 9.13c0 0 9-.68 9.36-3.73s-1.55-3.75-1.55-3.75" style="fill:#fff;opacity:.2;isolation:isolate"/><path d="M420.61 416.93h-30.77l-3.32-33.69h37.41z" style="fill:#263238"/><path d="M384.88 379.53h40.69v7.43h-40.69z" style="fill:#263238"/><path d="M384.88 379.53h40.69v7.43h-40.69z" style="fill:#fff;opacity:.2;isolation:isolate"/><path d="M399.6 315.92V100.8a3.61 3.61 0 0 0-3.6-3.61H274.48a3.6 3.6 0 0 0-3.61 3.61V144a1.25 1.25 0 0 1-1.26 1.25h-6.76a2.45 2.45 0 0 0-2.45 2.45V181a2.45 2.45 0 0 0 2.45 2.45h6.76a1.25 1.25 0 0 1 1.26 1.26v8.56a1.25 1.25 0 0 1-1.26 1.25h-6.76a2.45 2.45 0 0 0-2.45 2.45v46.83a2.45 2.45 0 0 0 2.45 2.45h6.76a1.25 1.25 0 0 1 1.26 1.25v68.47Z" style="fill:#005c8e"/><path d="M313.66 245.86h8l53.15-53.16v-17.42h18.09V103.5h-42.74v71.78h19.15v15.14l-49.92 49.91h-5.73v-43.06h-33.92v93.94h33.92ZM365 130.05a6.69 6.69 0 1 1 6.69 6.69 6.7 6.7 0 0 1-6.69-6.69m0 17.48a6.69 6.69 0 1 1 6.69 6.69 6.69 6.69 0 0 1-6.69-6.69m-75 63.85a6.7 6.7 0 1 1 6.69 6.69 6.69 6.69 0 0 1-6.69-6.69m0 17.48a6.7 6.7 0 1 1 6.69 6.7 6.7 6.7 0 0 1-6.69-6.7m-7.45 36.84a14.15 14.15 0 1 1 14.14 14.14 14.14 14.14 0 0 1-14.13-14.14Z" style="opacity:.2;isolation:isolate"/><path d="M333.85 166.74h9.2v20.04h-9.2z" style="fill:#263238" transform="rotate(90 338.45 176.76)"/><path d="M291.52 215.02h45.72v7.06h-45.72z" style="fill:#263238" transform="rotate(90 314.38 218.55)"/><path d="M308.96 147.6h5.85v39.23h-5.85z" style="fill:#263238" transform="rotate(90 311.885 167.215)"/><path d="M327.82 243.3h14.86v128.76h-14.86z" style="opacity:.2;isolation:isolate" transform="rotate(90 335.245 307.675)"/><path d="M411.86 313.07h-27.1v-9.03h-24.7v9.03h-33.91v-9.03h-24.7v9.03h-46.01v4.08h156.42z" style="fill:#263238"/><path d="M411.86 313.07h-27.1v-9.03h-24.7v9.03h-33.91v-9.03h-24.7v9.03h-46.01v4.08h156.42z" style="fill:#fff;opacity:.5;isolation:isolate"/><path d="M377.22 130.05a5.54 5.54 0 1 0-5.54 5.53 5.54 5.54 0 0 0 5.54-5.53m-10 0a4.43 4.43 0 1 1 4.43 4.43 4.43 4.43 0 0 1-4.4-4.43Z" style="fill:#fff;opacity:.6000000000000001;isolation:isolate"/><path d="M371.68 133.87a3.83 3.83 0 1 1 3.83-3.82 3.82 3.82 0 0 1-3.83 3.82" style="fill:#263238"/><path d="M371.68 132.62a2.57 2.57 0 1 1 2.57-2.57 2.57 2.57 0 0 1-2.57 2.57" style="fill:#fff;opacity:.2;isolation:isolate"/><path d="M377.22 147.53a5.54 5.54 0 1 0-5.54 5.54 5.54 5.54 0 0 0 5.54-5.54m-10 0a4.43 4.43 0 1 1 4.43 4.43 4.44 4.44 0 0 1-4.4-4.43Z" style="fill:#fff;opacity:.6000000000000001;isolation:isolate"/><path d="M371.68 151.35a3.82 3.82 0 1 1 3.83-3.82 3.82 3.82 0 0 1-3.83 3.82" style="fill:#263238"/><path d="M371.68 150.1a2.57 2.57 0 1 1 2.57-2.57 2.57 2.57 0 0 1-2.57 2.57" style="fill:#fff;opacity:.2;isolation:isolate"/><path d="M302.24 211.38a5.54 5.54 0 1 0-5.54 5.54 5.54 5.54 0 0 0 5.54-5.54m-10 0a4.43 4.43 0 1 1 4.43 4.43 4.44 4.44 0 0 1-4.4-4.43Z" style="fill:#fff;opacity:.6000000000000001;isolation:isolate"/><path d="M296.7 215.2a3.82 3.82 0 1 1 3.83-3.82 3.82 3.82 0 0 1-3.83 3.82" style="fill:#263238"/><path d="M296.7 214a2.57 2.57 0 1 1 2.57-2.57 2.57 2.57 0 0 1-2.57 2.57" style="fill:#fff;opacity:.2;isolation:isolate"/><path d="M302.24 228.86a5.54 5.54 0 1 0-5.54 5.54 5.54 5.54 0 0 0 5.54-5.54m-10 0a4.43 4.43 0 1 1 4.43 4.44 4.44 4.44 0 0 1-4.4-4.44Z" style="fill:#fff;opacity:.6000000000000001;isolation:isolate"/><path d="M296.7 232.69a3.83 3.83 0 1 1 3.83-3.83 3.82 3.82 0 0 1-3.83 3.83" style="fill:#263238"/><path d="M296.7 231.43a2.57 2.57 0 1 1 2.57-2.57 2.57 2.57 0 0 1-2.57 2.57" style="fill:#fff;opacity:.2;isolation:isolate"/><path d="M309.5 265.7a12.8 12.8 0 1 0-12.8 12.8 12.8 12.8 0 0 0 12.8-12.8m-23 0a10.25 10.25 0 1 1 10.24 10.24 10.26 10.26 0 0 1-10.28-10.24Z" style="fill:#fff;opacity:.6000000000000001;isolation:isolate"/><circle cx="296.7" cy="265.7" r="8.84" style="fill:#263238" transform="rotate(-45 296.703 265.692)"/><path d="M296.7 271.63a5.94 5.94 0 1 1 5.94-5.93 5.92 5.92 0 0 1-5.94 5.93" style="fill:#fff;opacity:.2;isolation:isolate"/><path d="M391.26 223a12.8 12.8 0 1 0-12.8 12.8 12.8 12.8 0 0 0 12.8-12.8m-23 0a10.25 10.25 0 1 1 10.24 10.24A10.26 10.26 0 0 1 368.22 223Z" style="fill:#fff;opacity:.6000000000000001;isolation:isolate"/><circle cx="378.46" cy="223.02" r="8.84" style="fill:#263238" transform="rotate(-76.72 378.45 223.02)"/><path d="M378.46 229a5.94 5.94 0 1 1 5.94-6 5.93 5.93 0 0 1-5.94 6" style="fill:#fff;opacity:.2;isolation:isolate"/><path d="M331.4 119.87h-39v39h39ZM294 157.25v-35.73h35.73v35.73Z" style="fill:#fff;isolation:isolate"/><rect width="32.42" height="32.42" x="295.67" y="123.18" rx="2.08" style="fill:#263238" transform="rotate(180 311.875 139.39)"/><rect width="28" height="28" x="297.88" y="125.39" rx=".08" style="fill:#fff;opacity:.2;isolation:isolate" transform="rotate(180 311.875 139.39)"/><path d="M329.03 126.95h1.87v-.48h-1.87v-.39h-1.92v1.27h1.92zM329.03 129.06h1.87v-.47h-1.87v-.4h-1.92v1.27h1.92zM329.03 131.18h1.87v-.48h-1.87v-.4h-1.92v1.28h1.92zM329.03 133.29h1.87v-.48h-1.87v-.4h-1.92v1.28h1.92zM329.03 135.4h1.87v-.48h-1.87v-.39h-1.92v1.27h1.92zM329.03 137.51h1.87v-.47h-1.87v-.4h-1.92v1.27h1.92zM329.03 139.63h1.87v-.48h-1.87v-.4h-1.92v1.28h1.92zM329.03 141.74h1.87v-.48h-1.87v-.4h-1.92v1.28h1.92zM329.03 143.85h1.87v-.48h-1.87v-.39h-1.92v1.27h1.92zM329.03 145.97h1.87v-.48h-1.87v-.4h-1.92v1.27h1.92zM329.03 148.08h1.87v-.48h-1.87v-.4h-1.92v1.28h1.92zM329.03 150.19h1.87v-.48h-1.87v-.4h-1.92v1.28h1.92zM329.03 152.3h1.87v-.48h-1.87v-.39h-1.92v1.27h1.92z" style="fill:#005c8e"/><g style="opacity:.30000000000000004;isolation:isolate"><path d="M329.03 126.95h1.87v-.48h-1.87v-.39h-1.92v1.27h1.92zM329.03 129.06h1.87v-.47h-1.87v-.4h-1.92v1.27h1.92zM329.03 131.18h1.87v-.48h-1.87v-.4h-1.92v1.28h1.92zM329.03 133.29h1.87v-.48h-1.87v-.4h-1.92v1.28h1.92zM329.03 135.4h1.87v-.48h-1.87v-.39h-1.92v1.27h1.92zM329.03 137.51h1.87v-.47h-1.87v-.4h-1.92v1.27h1.92zM329.03 139.63h1.87v-.48h-1.87v-.4h-1.92v1.28h1.92zM329.03 141.74h1.87v-.48h-1.87v-.4h-1.92v1.28h1.92zM329.03 143.85h1.87v-.48h-1.87v-.39h-1.92v1.27h1.92zM329.03 145.97h1.87v-.48h-1.87v-.4h-1.92v1.27h1.92zM329.03 148.08h1.87v-.48h-1.87v-.4h-1.92v1.28h1.92zM329.03 150.19h1.87v-.48h-1.87v-.4h-1.92v1.28h1.92zM329.03 152.3h1.87v-.48h-1.87v-.39h-1.92v1.27h1.92z" style="fill:#fff"/></g><path d="M294.72 151.82h-1.86v.48h1.86v.4h1.93v-1.27h-1.93zM294.72 149.71h-1.86v.48h1.86v.4h1.93v-1.28h-1.93zM294.72 147.6h-1.86v.48h1.86v.4h1.93v-1.28h-1.93zM294.72 145.49h-1.86v.48h1.86v.39h1.93v-1.27h-1.93zM294.72 143.37h-1.86v.48h1.86v.4h1.93v-1.27h-1.93zM294.72 141.26h-1.86v.48h1.86v.4h1.93v-1.28h-1.93zM294.72 139.15h-1.86v.48h1.86v.4h1.93v-1.28h-1.93zM294.72 137.04h-1.86v.47h1.86v.4h1.93v-1.27h-1.93zM294.72 134.92h-1.86v.48h1.86v.4h1.93v-1.27h-1.93zM294.72 132.81h-1.86v.48h1.86v.4h1.93v-1.28h-1.93zM294.72 130.7h-1.86v.48h1.86v.4h1.93v-1.28h-1.93zM294.72 128.59h-1.86v.47h1.86v.4h1.93v-1.27h-1.93zM294.72 126.47h-1.86v.48h1.86v.4h1.93v-1.27h-1.93z" style="fill:#005c8e"/><g style="opacity:.30000000000000004;isolation:isolate"><path d="M294.72 151.82h-1.86v.48h1.86v.4h1.93v-1.27h-1.93zM294.72 149.71h-1.86v.48h1.86v.4h1.93v-1.28h-1.93zM294.72 147.6h-1.86v.48h1.86v.4h1.93v-1.28h-1.93zM294.72 145.49h-1.86v.48h1.86v.39h1.93v-1.27h-1.93zM294.72 143.37h-1.86v.48h1.86v.4h1.93v-1.27h-1.93zM294.72 141.26h-1.86v.48h1.86v.4h1.93v-1.28h-1.93zM294.72 139.15h-1.86v.48h1.86v.4h1.93v-1.28h-1.93zM294.72 137.04h-1.86v.47h1.86v.4h1.93v-1.27h-1.93zM294.72 134.92h-1.86v.48h1.86v.4h1.93v-1.27h-1.93zM294.72 132.81h-1.86v.48h1.86v.4h1.93v-1.28h-1.93zM294.72 130.7h-1.86v.48h1.86v.4h1.93v-1.28h-1.93zM294.72 128.59h-1.86v.47h1.86v.4h1.93v-1.27h-1.93zM294.72 126.47h-1.86v.48h1.86v.4h1.93v-1.27h-1.93z" style="fill:#fff"/></g><path d="M324.31 156.55v1.86h.48v-1.86h.4v-1.93h-1.28v1.93zM322.2 156.55v1.86h.48v-1.86h.4v-1.93h-1.28v1.93zM320.09 156.55v1.86h.48v-1.86h.39v-1.93h-1.27v1.93zM317.98 156.55v1.86h.47v-1.86h.4v-1.93h-1.27v1.93zM315.86 156.55v1.86h.48v-1.86h.4v-1.93h-1.28v1.93zM313.75 156.55v1.86h.48v-1.86h.4v-1.93h-1.28v1.93zM311.64 156.55v1.86h.48v-1.86h.39v-1.93h-1.27v1.93zM309.52 156.55v1.86h.48v-1.86h.4v-1.93h-1.27v1.93zM307.41 156.55v1.86h.48v-1.86h.4v-1.93h-1.28v1.93zM305.3 156.55v1.86h.48v-1.86h.4v-1.93h-1.28v1.93zM303.19 156.55v1.86h.48v-1.86h.39v-1.93h-1.27v1.93zM301.07 156.55v1.86h.48v-1.86h.4v-1.93h-1.27v1.93zM298.96 156.55v1.86h.48v-1.86h.4v-1.93h-1.28v1.93z" style="fill:#005c8e"/><g style="opacity:.30000000000000004;isolation:isolate"><path d="M324.31 156.55v1.86h.48v-1.86h.4v-1.93h-1.28v1.93zM322.2 156.55v1.86h.48v-1.86h.4v-1.93h-1.28v1.93zM320.09 156.55v1.86h.48v-1.86h.39v-1.93h-1.27v1.93zM317.98 156.55v1.86h.47v-1.86h.4v-1.93h-1.27v1.93zM315.86 156.55v1.86h.48v-1.86h.4v-1.93h-1.28v1.93zM313.75 156.55v1.86h.48v-1.86h.4v-1.93h-1.28v1.93zM311.64 156.55v1.86h.48v-1.86h.39v-1.93h-1.27v1.93zM309.52 156.55v1.86h.48v-1.86h.4v-1.93h-1.27v1.93zM307.41 156.55v1.86h.48v-1.86h.4v-1.93h-1.28v1.93zM305.3 156.55v1.86h.48v-1.86h.4v-1.93h-1.28v1.93zM303.19 156.55v1.86h.48v-1.86h.39v-1.93h-1.27v1.93zM301.07 156.55v1.86h.48v-1.86h.4v-1.93h-1.27v1.93zM298.96 156.55v1.86h.48v-1.86h.4v-1.93h-1.28v1.93z" style="fill:#fff"/></g><path d="M299.44 122.23v-1.86h-.48v1.86h-.4v1.93h1.28v-1.93zM301.55 122.23v-1.86h-.48v1.86h-.39v1.93h1.27v-1.93zM303.67 122.23v-1.86h-.48v1.86h-.4v1.93h1.27v-1.93zM305.78 122.23v-1.86h-.48v1.86h-.4v1.93h1.28v-1.93zM307.89 122.23v-1.86h-.48v1.86h-.4v1.93h1.28v-1.93zM310 122.23v-1.86h-.48v1.86h-.39v1.93h1.27v-1.93zM312.12 122.23v-1.86h-.48v1.86h-.4v1.93h1.27v-1.93zM314.23 122.23v-1.86h-.48v1.86h-.4v1.93h1.28v-1.93zM316.34 122.23v-1.86h-.48v1.86h-.4v1.93h1.28v-1.93zM318.45 122.23v-1.86h-.47v1.86h-.4v1.93h1.27v-1.93zM320.57 122.23v-1.86h-.48v1.86h-.4v1.93h1.27v-1.93zM322.68 122.23v-1.86h-.48v1.86h-.4v1.93h1.28v-1.93zM324.79 122.23v-1.86h-.48v1.86h-.4v1.93h1.28v-1.93z" style="fill:#005c8e"/><g style="opacity:.30000000000000004;isolation:isolate"><path d="M299.44 122.23v-1.86h-.48v1.86h-.4v1.93h1.28v-1.93zM301.55 122.23v-1.86h-.48v1.86h-.39v1.93h1.27v-1.93zM303.67 122.23v-1.86h-.48v1.86h-.4v1.93h1.27v-1.93zM305.78 122.23v-1.86h-.48v1.86h-.4v1.93h1.28v-1.93zM307.89 122.23v-1.86h-.48v1.86h-.4v1.93h1.28v-1.93zM310 122.23v-1.86h-.48v1.86h-.39v1.93h1.27v-1.93zM312.12 122.23v-1.86h-.48v1.86h-.4v1.93h1.27v-1.93zM314.23 122.23v-1.86h-.48v1.86h-.4v1.93h1.28v-1.93zM316.34 122.23v-1.86h-.48v1.86h-.4v1.93h1.28v-1.93zM318.45 122.23v-1.86h-.47v1.86h-.4v1.93h1.27v-1.93zM320.57 122.23v-1.86h-.48v1.86h-.4v1.93h1.27v-1.93zM322.68 122.23v-1.86h-.48v1.86h-.4v1.93h1.28v-1.93zM324.79 122.23v-1.86h-.48v1.86h-.4v1.93h1.28v-1.93z" style="fill:#fff"/></g><path d="M384.67 243.86h-39v39.05h39Zm-37.39 37.39v-35.73H383v35.73Z" style="fill:#fff;isolation:isolate"/><rect width="32.42" height="32.42" x="348.94" y="247.18" rx="2.08" style="fill:#263238" transform="rotate(180 365.15 263.385)"/><rect width="28" height="28" x="351.15" y="249.39" rx=".08" style="fill:#fff;opacity:.2;isolation:isolate" transform="rotate(180 365.15 263.385)"/><path d="M382.31 250.95h1.86v-.48h-1.86v-.4h-1.93v1.28h1.93zM382.31 253.06h1.86v-.47h-1.86v-.4h-1.93v1.27h1.93zM382.31 255.18h1.86v-.48h-1.86v-.4h-1.93v1.27h1.93zM382.31 257.29h1.86v-.48h-1.86v-.4h-1.93v1.28h1.93zM382.31 259.4h1.86v-.48h-1.86v-.4h-1.93v1.28h1.93zM382.31 261.51h1.86v-.47h-1.86v-.4h-1.93v1.27h1.93zM382.31 263.63h1.86v-.48h-1.86v-.4h-1.93v1.27h1.93zM382.31 265.74h1.86v-.48h-1.86v-.4h-1.93v1.28h1.93zM382.31 267.85h1.86v-.48h-1.86v-.39h-1.93v1.27h1.93zM382.31 269.96h1.86v-.47h-1.86v-.4h-1.93v1.27h1.93zM382.31 272.08h1.86v-.48h-1.86v-.4h-1.93v1.28h1.93zM382.31 274.19h1.86v-.48h-1.86v-.4h-1.93v1.28h1.93zM382.31 276.3h1.86v-.48h-1.86v-.39h-1.93v1.27h1.93z" style="fill:#005c8e"/><g style="opacity:.30000000000000004;isolation:isolate"><path d="M382.31 250.95h1.86v-.48h-1.86v-.4h-1.93v1.28h1.93zM382.31 253.06h1.86v-.47h-1.86v-.4h-1.93v1.27h1.93zM382.31 255.18h1.86v-.48h-1.86v-.4h-1.93v1.27h1.93zM382.31 257.29h1.86v-.48h-1.86v-.4h-1.93v1.28h1.93zM382.31 259.4h1.86v-.48h-1.86v-.4h-1.93v1.28h1.93zM382.31 261.51h1.86v-.47h-1.86v-.4h-1.93v1.27h1.93zM382.31 263.63h1.86v-.48h-1.86v-.4h-1.93v1.27h1.93zM382.31 265.74h1.86v-.48h-1.86v-.4h-1.93v1.28h1.93zM382.31 267.85h1.86v-.48h-1.86v-.39h-1.93v1.27h1.93zM382.31 269.96h1.86v-.47h-1.86v-.4h-1.93v1.27h1.93zM382.31 272.08h1.86v-.48h-1.86v-.4h-1.93v1.28h1.93zM382.31 274.19h1.86v-.48h-1.86v-.4h-1.93v1.28h1.93zM382.31 276.3h1.86v-.48h-1.86v-.39h-1.93v1.27h1.93z" style="fill:#fff"/></g><path d="M347.99 275.82h-1.86v.48h1.86v.4h1.93v-1.27h-1.93zM347.99 273.71h-1.86v.48h1.86v.4h1.93v-1.28h-1.93zM347.99 271.6h-1.86v.48h1.86v.4h1.93v-1.28h-1.93zM347.99 269.49h-1.86v.47h1.86v.4h1.93v-1.27h-1.93zM347.99 267.37h-1.86v.48h1.86v.4h1.93v-1.27h-1.93zM347.99 265.26h-1.86v.48h1.86v.4h1.93v-1.28h-1.93zM347.99 263.15h-1.86v.48h1.86v.39h1.93v-1.27h-1.93zM347.99 261.04h-1.86v.47h1.86v.4h1.93v-1.27h-1.93zM347.99 258.92h-1.86v.48h1.86v.4h1.93v-1.28h-1.93zM347.99 256.81h-1.86v.48h1.86v.4h1.93v-1.28h-1.93zM347.99 254.7h-1.86v.48h1.86v.39h1.93v-1.27h-1.93zM347.99 252.59h-1.86v.47h1.86v.4h1.93v-1.27h-1.93zM347.99 250.47h-1.86v.48h1.86v.4h1.93v-1.28h-1.93z" style="fill:#005c8e"/><g style="opacity:.30000000000000004;isolation:isolate"><path d="M347.99 275.82h-1.86v.48h1.86v.4h1.93v-1.27h-1.93zM347.99 273.71h-1.86v.48h1.86v.4h1.93v-1.28h-1.93zM347.99 271.6h-1.86v.48h1.86v.4h1.93v-1.28h-1.93zM347.99 269.49h-1.86v.47h1.86v.4h1.93v-1.27h-1.93zM347.99 267.37h-1.86v.48h1.86v.4h1.93v-1.27h-1.93zM347.99 265.26h-1.86v.48h1.86v.4h1.93v-1.28h-1.93zM347.99 263.15h-1.86v.48h1.86v.39h1.93v-1.27h-1.93zM347.99 261.04h-1.86v.47h1.86v.4h1.93v-1.27h-1.93zM347.99 258.92h-1.86v.48h1.86v.4h1.93v-1.28h-1.93zM347.99 256.81h-1.86v.48h1.86v.4h1.93v-1.28h-1.93zM347.99 254.7h-1.86v.48h1.86v.39h1.93v-1.27h-1.93zM347.99 252.59h-1.86v.47h1.86v.4h1.93v-1.27h-1.93zM347.99 250.47h-1.86v.48h1.86v.4h1.93v-1.28h-1.93z" style="fill:#fff"/></g><path d="M377.59 280.54v1.87h.47v-1.87h.4v-1.92h-1.27v1.92zM375.47 280.54v1.87h.48v-1.87h.4v-1.92h-1.28v1.92zM373.36 280.54v1.87h.48v-1.87h.4v-1.92h-1.28v1.92zM371.25 280.54v1.87h.48v-1.87h.4v-1.92h-1.28v1.92zM369.14 280.54v1.87h.47v-1.87h.4v-1.92h-1.27v1.92zM367.02 280.54v1.87h.48v-1.87h.4v-1.92h-1.27v1.92zM364.91 280.54v1.87h.48v-1.87h.4v-1.92h-1.28v1.92zM362.8 280.54v1.87h.48v-1.87h.4v-1.92h-1.28v1.92zM360.69 280.54v1.87h.47v-1.87h.4v-1.92h-1.27v1.92zM358.57 280.54v1.87h.48v-1.87h.4v-1.92h-1.27v1.92zM356.46 280.54v1.87h.48v-1.87h.4v-1.92h-1.28v1.92zM354.35 280.54v1.87h.48v-1.87h.4v-1.92h-1.28v1.92zM352.24 280.54v1.87h.47v-1.87h.4v-1.92h-1.27v1.92z" style="fill:#005c8e"/><g style="opacity:.30000000000000004;isolation:isolate"><path d="M377.59 280.54v1.87h.47v-1.87h.4v-1.92h-1.27v1.92zM375.47 280.54v1.87h.48v-1.87h.4v-1.92h-1.28v1.92zM373.36 280.54v1.87h.48v-1.87h.4v-1.92h-1.28v1.92zM371.25 280.54v1.87h.48v-1.87h.4v-1.92h-1.28v1.92zM369.14 280.54v1.87h.47v-1.87h.4v-1.92h-1.27v1.92zM367.02 280.54v1.87h.48v-1.87h.4v-1.92h-1.27v1.92zM364.91 280.54v1.87h.48v-1.87h.4v-1.92h-1.28v1.92zM362.8 280.54v1.87h.48v-1.87h.4v-1.92h-1.28v1.92zM360.69 280.54v1.87h.47v-1.87h.4v-1.92h-1.27v1.92zM358.57 280.54v1.87h.48v-1.87h.4v-1.92h-1.27v1.92zM356.46 280.54v1.87h.48v-1.87h.4v-1.92h-1.28v1.92zM354.35 280.54v1.87h.48v-1.87h.4v-1.92h-1.28v1.92zM352.24 280.54v1.87h.47v-1.87h.4v-1.92h-1.27v1.92z" style="fill:#fff"/></g><path d="M352.71 246.23v-1.86h-.47v1.86h-.4v1.93h1.27v-1.93zM354.83 246.23v-1.86h-.48v1.86h-.4v1.93h1.28v-1.93zM356.94 246.23v-1.86h-.48v1.86h-.4v1.93h1.28v-1.93zM359.05 246.23v-1.86h-.48v1.86h-.39v1.93h1.27v-1.93zM361.16 246.23v-1.86h-.47v1.86h-.4v1.93h1.27v-1.93zM363.28 246.23v-1.86h-.48v1.86h-.4v1.93h1.28v-1.93zM365.39 246.23v-1.86h-.48v1.86h-.4v1.93h1.28v-1.93zM367.5 246.23v-1.86h-.48v1.86h-.39v1.93h1.27v-1.93zM369.61 246.23v-1.86h-.47v1.86h-.4v1.93h1.27v-1.93zM371.73 246.23v-1.86h-.48v1.86h-.4v1.93h1.28v-1.93zM373.84 246.23v-1.86h-.48v1.86h-.4v1.93h1.28v-1.93zM375.95 246.23v-1.86h-.48v1.86h-.4v1.93h1.28v-1.93zM378.06 246.23v-1.86h-.47v1.86h-.4v1.93h1.27v-1.93z" style="fill:#005c8e"/><g style="opacity:.30000000000000004;isolation:isolate"><path d="M352.71 246.23v-1.86h-.47v1.86h-.4v1.93h1.27v-1.93zM354.83 246.23v-1.86h-.48v1.86h-.4v1.93h1.28v-1.93zM356.94 246.23v-1.86h-.48v1.86h-.4v1.93h1.28v-1.93zM359.05 246.23v-1.86h-.48v1.86h-.39v1.93h1.27v-1.93zM361.16 246.23v-1.86h-.47v1.86h-.4v1.93h1.27v-1.93zM363.28 246.23v-1.86h-.48v1.86h-.4v1.93h1.28v-1.93zM365.39 246.23v-1.86h-.48v1.86h-.4v1.93h1.28v-1.93zM367.5 246.23v-1.86h-.48v1.86h-.39v1.93h1.27v-1.93zM369.61 246.23v-1.86h-.47v1.86h-.4v1.93h1.27v-1.93zM371.73 246.23v-1.86h-.48v1.86h-.4v1.93h1.28v-1.93zM373.84 246.23v-1.86h-.48v1.86h-.4v1.93h1.28v-1.93zM375.95 246.23v-1.86h-.48v1.86h-.4v1.93h1.28v-1.93zM378.06 246.23v-1.86h-.47v1.86h-.4v1.93h1.27v-1.93z" style="fill:#fff"/></g><path d="M257.26 162.69h32.67v3.21h-32.67z" style="opacity:.2;isolation:isolate" transform="rotate(90 273.6 164.29)"/><path d="M250.69 218.58h45.83v3.21h-45.83z" style="opacity:.2;isolation:isolate" transform="rotate(90 273.6 220.18)"/><g style="opacity:.4;isolation:isolate"><path d="M265.75 144.71h1.2v7.69h-1.2z" style="opacity:.6000000000000001;isolation:isolate" transform="rotate(90 266.355 148.555)"/><path d="M265.75 147.34h1.2v7.69h-1.2z" style="opacity:.6000000000000001;isolation:isolate" transform="rotate(90 266.35 151.18)"/><path d="M265.75 149.96h1.2v7.69h-1.2z" style="opacity:.6000000000000001;isolation:isolate" transform="rotate(90 266.35 153.8)"/><path d="M265.75 152.58h1.2v7.69h-1.2z" style="opacity:.6000000000000001;isolation:isolate" transform="rotate(90 266.355 156.425)"/><path d="M265.75 155.2h1.2v7.69h-1.2z" style="opacity:.6000000000000001;isolation:isolate" transform="rotate(90 266.355 159.045)"/><path d="M265.75 157.83h1.2v7.69h-1.2z" style="opacity:.6000000000000001;isolation:isolate" transform="rotate(90 266.35 161.67)"/><path d="M265.75 160.45h1.2v7.69h-1.2z" style="opacity:.6000000000000001;isolation:isolate" transform="rotate(90 266.35 164.29)"/><path d="M265.75 163.07h1.2v7.69h-1.2z" style="opacity:.6000000000000001;isolation:isolate" transform="rotate(90 266.355 166.915)"/><path d="M265.75 165.69h1.2v7.69h-1.2z" style="opacity:.6000000000000001;isolation:isolate" transform="rotate(90 266.355 169.535)"/><path d="M265.75 168.32h1.2v7.69h-1.2z" style="opacity:.6000000000000001;isolation:isolate" transform="rotate(90 266.35 172.16)"/><path d="M265.75 170.94h1.2v7.69h-1.2z" style="opacity:.6000000000000001;isolation:isolate" transform="rotate(90 266.35 174.78)"/><path d="M265.75 173.56h1.2v7.69h-1.2z" style="opacity:.6000000000000001;isolation:isolate" transform="rotate(90 266.355 177.405)"/><path d="M265.75 176.18h1.2v7.69h-1.2z" style="opacity:.6000000000000001;isolation:isolate" transform="rotate(90 266.355 180.025)"/></g><g style="opacity:.4;isolation:isolate"><path d="M265.51 194.27h1.69v7.69h-1.69z" style="opacity:.6000000000000001;isolation:isolate" transform="rotate(90 266.35 198.11)"/><path d="M265.51 197.95h1.69v7.69h-1.69z" style="opacity:.6000000000000001;isolation:isolate" transform="rotate(90 266.35 201.79)"/><path d="M265.51 201.62h1.69v7.69h-1.69z" style="opacity:.6000000000000001;isolation:isolate" transform="rotate(90 266.35 205.47)"/><path d="M265.51 205.3h1.69v7.69h-1.69z" style="opacity:.6000000000000001;isolation:isolate" transform="rotate(90 266.355 209.145)"/><path d="M265.51 208.98h1.69v7.69h-1.69z" style="opacity:.6000000000000001;isolation:isolate" transform="rotate(90 266.355 212.825)"/><path d="M265.51 212.66h1.69v7.69h-1.69z" style="opacity:.6000000000000001;isolation:isolate" transform="rotate(90 266.35 216.5)"/><path d="M265.51 216.34h1.69v7.69h-1.69z" style="opacity:.6000000000000001;isolation:isolate" transform="rotate(90 266.35 220.18)"/><path d="M265.51 220.02h1.69v7.69h-1.69z" style="opacity:.6000000000000001;isolation:isolate" transform="rotate(90 266.35 223.86)"/><path d="M265.51 223.69h1.69v7.69h-1.69z" style="opacity:.6000000000000001;isolation:isolate" transform="rotate(90 266.35 227.54)"/><path d="M265.51 227.37h1.69v7.69h-1.69z" style="opacity:.6000000000000001;isolation:isolate" transform="rotate(90 266.355 231.215)"/><path d="M265.51 231.05h1.69v7.69h-1.69z" style="opacity:.6000000000000001;isolation:isolate" transform="rotate(90 266.355 234.895)"/><path d="M265.51 234.73h1.69v7.69h-1.69z" style="opacity:.6000000000000001;isolation:isolate" transform="rotate(90 266.35 238.57)"/><path d="M265.51 238.41h1.69v7.69h-1.69z" style="opacity:.6000000000000001;isolation:isolate" transform="rotate(90 266.35 242.25)"/></g><path d="M292.88 128.37h-8.53l-9.82-8.27v-17.04h1v16.57l9.19 7.74h8.16z" style="fill:#fff"/><path d="M292.88 123.68h-1.91l-3.92-3.59v-17.03h1v16.59l3.31 3.03h1.52zM275.7 132.06h17.18v1H275.7zM275.7 136.75h17.18v1H275.7zM275.7 141.44h17.18v1H275.7zM277.6 158.18h-3.01v-1h2.51l8.29-11.05h7.49v1h-6.99z" style="fill:#fff"/><path d="M277.6 162.87h-3.01v-1h2.51l8.29-11.05h7.49v1h-6.99z" style="fill:#fff"/><path d="M277.6 167.56h-3.01v-1h2.51l8.29-11.05h7.49v1h-6.99zM273.92 158.61a.92.92 0 1 1 .92-.92.92.92 0 0 1-.92.92m0-1.34a.42.42 0 0 0-.42.42.42.42 0 0 0 .84 0 .42.42 0 0 0-.42-.42M275 142.86a.92.92 0 1 1 .92-.92.92.92 0 0 1-.92.92m0-1.34a.42.42 0 1 0 .42.42.42.42 0 0 0-.42-.42M275 138.17a.92.92 0 1 1 .92-.92.92.92 0 0 1-.92.92m0-1.34a.42.42 0 1 0 .42.42.42.42 0 0 0-.42-.42M275 133.48a.92.92 0 1 1 .92-.92.92.92 0 0 1-.92.92m0-1.34a.42.42 0 1 0 .42.42.42.42 0 0 0-.42-.42M275 103.32a.92.92 0 1 1 .92-.92.92.92 0 0 1-.92.92m0-1.34a.42.42 0 0 0-.42.42.42.42 0 0 0 .84 0 .42.42 0 0 0-.42-.4ZM287.55 103.32a.92.92 0 1 1 .91-.92.92.92 0 0 1-.91.92m0-1.34a.41.41 0 0 0-.42.42.42.42 0 1 0 .83 0 .41.41 0 0 0-.41-.4ZM273.92 163.29a.92.92 0 1 1 .92-.91.92.92 0 0 1-.92.91m0-1.33a.42.42 0 1 0 .42.42.42.42 0 0 0-.42-.38Z" style="fill:#fff"/><path d="M273.92 168a.92.92 0 1 1 0-1.84.92.92 0 0 1 0 1.84m0-1.34a.42.42 0 1 0 .42.42.42.42 0 0 0-.42-.44Z" style="fill:#fff"/><path d="M274.62 108.66h13.7v4.96h-13.7z" style="opacity:.2;isolation:isolate" transform="rotate(90 281.47 111.14)"/><path d="M322.16 137.69h64.69v3.59h-64.69z" style="fill:#263238" transform="rotate(90 354.505 139.485)"/><path d="M354.51 110.61a.92.92 0 1 1 .91-.92.92.92 0 0 1-.91.92m0-1.33a.42.42 0 1 0 .41.41.41.41 0 0 0-.41-.41M354.51 117.22a.92.92 0 1 1 .91-.92.92.92 0 0 1-.91.92m0-1.34a.42.42 0 1 0 .41.42.42.42 0 0 0-.41-.42M354.51 123.82a.92.92 0 1 1 .91-.92.92.92 0 0 1-.91.92m0-1.34a.42.42 0 1 0 .41.42.42.42 0 0 0-.41-.42M354.51 130.42a.92.92 0 1 1 .91-.92.92.92 0 0 1-.91.92m0-1.34a.42.42 0 1 0 .41.42.42.42 0 0 0-.41-.42M354.51 137a.92.92 0 1 1 .91-.92.92.92 0 0 1-.91.92m0-1.34a.42.42 0 1 0 .41.42.42.42 0 0 0-.41-.4ZM354.51 143.62a.92.92 0 1 1 .91-.92.92.92 0 0 1-.91.92m0-1.33a.42.42 0 1 0 .41.41.41.41 0 0 0-.41-.41M354.51 150.23a.92.92 0 1 1 .91-.92.92.92 0 0 1-.91.92m0-1.34a.42.42 0 1 0 .41.42.42.42 0 0 0-.41-.42M354.51 156.83a.92.92 0 1 1 .91-.92.92.92 0 0 1-.91.92m0-1.34a.42.42 0 1 0 .41.42.42.42 0 0 0-.41-.42M354.51 163.43a.92.92 0 1 1 .91-.92.92.92 0 0 1-.91.92m0-1.34a.42.42 0 1 0 .41.42.42.42 0 0 0-.41-.42M354.51 170a.92.92 0 1 1 .91-.92.92.92 0 0 1-.91.92m0-1.34a.42.42 0 1 0 .41.42.42.42 0 0 0-.41-.39Z" style="fill:#fff"/><path d="M343.56 127.21H330.9v-1h12.17l7.94-10.41h2.83v1h-2.34z" style="fill:#fff"/><path d="M343.51 130.75H330.9v-1h12.22l7.94-7.35h2.78v1h-2.39z" style="fill:#fff"/><path d="M343.44 134.28H330.9v-1h12.29l7.94-4.28h2.71v1h-2.46zM330.9 137.81v-1h12.41l7.87-1.2 2.66-.01v1h-2.59l-7.86 1.21zM353.84 143.21l-2.7-.02-7.88-1.85H330.9v-1l12.53.02 7.88 1.85h2.53zM353.84 149.81h-2.73l-7.94-4.93H330.9v-1h12.56l7.94 4.93h2.44z" style="fill:#fff"/><path d="M353.84 156.41h-2.79l-7.94-8H330.9v-1h12.62l7.94 8h2.38z" style="fill:#fff"/><path d="M353.84 163.01H351l-7.94-11.07H330.9v-1h12.67l7.94 11.07h2.33z" style="fill:#fff"/><path d="M353.84 169.61h-2.88l-7.94-14.13H330.9v-1h12.71l7.94 14.13h2.29zM343.6 123.68h-12.7v-1h12.13l7.94-13.49h2.87v1h-2.3zM381.33 282.41h1v17.84h-1zM377.16 282.41h1v17.84h-1zM372.99 282.41h1v17.84h-1zM368.82 282.41h1v17.84h-1zM364.65 282.41h1v17.84h-1zM360.48 282.41h1v17.84h-1zM356.31 282.41h1v17.84h-1zM352.14 282.41h1v17.84h-1zM347.97 282.41h1v17.84h-1zM333.97 300.25h-1v-18.04l6.38-6.81h7.01v1h-6.58l-5.81 6.2z" style="fill:#fff"/><path d="M328.69 300.25h-1v-18.01l.1-.13 8.21-10.88h10.36v1h-9.86l-7.81 10.34z" style="fill:#fff"/><path d="M323.42 300.25h-1v-17.98l9.13-15.21h14.81v1h-14.24l-8.7 14.49z" style="fill:#fff"/><path d="M318.14 300.25h-1v-17.98l11.09-19.38h18.13v1h-17.55l-10.67 18.65zM317.47 258.72h28.89v1h-28.89zM317.47 254.55h28.89v1h-28.89zM317.47 250.38h28.89v1h-28.89zM339.24 300.25h-1v-18.09l3.37-2.59h4.75v1h-4.41l-2.71 2.08z" style="fill:#fff"/><path d="M316.8 251.79a.92.92 0 1 1 .92-.91.92.92 0 0 1-.92.91m0-1.33a.42.42 0 1 0 .42.42.42.42 0 0 0-.42-.42M316.8 256a.92.92 0 1 1 .92-.91.92.92 0 0 1-.92.91m0-1.33a.42.42 0 1 0 .42.42.42.42 0 0 0-.42-.46ZM316.8 260.14a.92.92 0 1 1 .92-.92.92.92 0 0 1-.92.92m0-1.34a.42.42 0 1 0 .42.42.42.42 0 0 0-.42-.42M317.64 301.84a.92.92 0 0 1 0-1.84.92.92 0 0 1 0 1.84m0-1.34a.42.42 0 1 0 .42.42.42.42 0 0 0-.42-.42M322.92 301.84a.92.92 0 1 1 .92-.92.92.92 0 0 1-.92.92m0-1.34a.42.42 0 1 0 .42.42.42.42 0 0 0-.42-.42M328.19 301.84a.92.92 0 1 1 0-1.84.92.92 0 1 1 0 1.84m0-1.34a.42.42 0 1 0 .42.42.42.42 0 0 0-.42-.42M333.47 301.84a.92.92 0 1 1 .92-.92.92.92 0 0 1-.92.92m0-1.34a.42.42 0 1 0 .42.42.42.42 0 0 0-.42-.42M338.74 301.84a.92.92 0 1 1 0-1.84.92.92 0 0 1 0 1.84m0-1.34a.42.42 0 1 0 .42.42.42.42 0 0 0-.42-.42M348.47 301.84a.92.92 0 1 1 .92-.92.92.92 0 0 1-.92.92m0-1.34a.42.42 0 1 0 .42.42.42.42 0 0 0-.42-.42M352.64 301.84a.92.92 0 1 1 .92-.92.92.92 0 0 1-.92.92m0-1.34a.42.42 0 1 0 .42.42.42.42 0 0 0-.42-.42M356.81 301.84a.92.92 0 1 1 .92-.92.92.92 0 0 1-.92.92m0-1.34a.42.42 0 1 0 .42.42.42.42 0 0 0-.42-.42M361 301.84a.92.92 0 1 1 .92-.92.92.92 0 0 1-.92.92m0-1.34a.42.42 0 1 0 .42.42.42.42 0 0 0-.42-.42M365.15 301.84a.92.92 0 1 1 .92-.92.92.92 0 0 1-.92.92m0-1.34a.42.42 0 1 0 .42.42.42.42 0 0 0-.42-.42M369.32 301.84a.92.92 0 1 1 .92-.92.92.92 0 0 1-.92.92m0-1.34a.42.42 0 1 0 .42.42.42.42 0 0 0-.42-.42M373.49 301.84a.92.92 0 1 1 .92-.92.92.92 0 0 1-.92.92m0-1.34a.42.42 0 1 0 .42.42.42.42 0 0 0-.42-.42M377.66 301.84a.92.92 0 1 1 .92-.92.92.92 0 0 1-.92.92m0-1.34a.42.42 0 1 0 .42.42.42.42 0 0 0-.42-.42M381.83 301.84a.92.92 0 1 1 0-1.84.92.92 0 1 1 0 1.84m0-1.34a.42.42 0 1 0 .42.42.42.42 0 0 0-.42-.42M273.6 200.54a.92.92 0 1 1 .92-.92.92.92 0 0 1-.92.92m0-1.34a.42.42 0 1 0 .42.42.42.42 0 0 0-.42-.42M273.6 204.22a.92.92 0 1 1 .92-.92.92.92 0 0 1-.92.92m0-1.34a.42.42 0 1 0 .42.42.42.42 0 0 0-.42-.42M273.6 207.9a.92.92 0 1 1 .92-.92.92.92 0 0 1-.92.92m0-1.34a.42.42 0 1 0 .42.42.42.42 0 0 0-.42-.42M273.6 211.58a.92.92 0 1 1 .92-.92.92.92 0 0 1-.92.92m0-1.34a.42.42 0 1 0 .42.42.42.42 0 0 0-.42-.42M273.6 215.26a.92.92 0 1 1 .92-.92.92.92 0 0 1-.92.92m0-1.34a.42.42 0 0 0-.42.42.42.42 0 1 0 .84 0 .42.42 0 0 0-.42-.42M273.6 218.93a.92.92 0 1 1 .92-.92.92.92 0 0 1-.92.92m0-1.33a.42.42 0 1 0 .42.41.41.41 0 0 0-.42-.41M273.6 222.61a.92.92 0 1 1 .92-.92.92.92 0 0 1-.92.92m0-1.34a.42.42 0 1 0 .42.42.42.42 0 0 0-.42-.42M273.6 226.29a.92.92 0 1 1 .92-.92.92.92 0 0 1-.92.92m0-1.34a.42.42 0 1 0 .42.42.42.42 0 0 0-.42-.37ZM273.6 230a.92.92 0 1 1 .92-.92.92.92 0 0 1-.92.92m0-1.34a.42.42 0 1 0 .42.42.42.42 0 0 0-.42-.45ZM273.6 233.65a.92.92 0 1 1 .92-.92.92.92 0 0 1-.92.92m0-1.34a.42.42 0 1 0 .42.42.42.42 0 0 0-.42-.42M273.6 237.33a.92.92 0 1 1 .92-.92.92.92 0 0 1-.92.92m0-1.34a.42.42 0 0 0-.42.42.42.42 0 1 0 .84 0 .42.42 0 0 0-.42-.41ZM273.6 241a.92.92 0 1 1 .92-.92.92.92 0 0 1-.92.92m0-1.33a.42.42 0 1 0 .42.41.41.41 0 0 0-.42-.41M281.33 200.54a.92.92 0 1 1 .92-.92.92.92 0 0 1-.92.92m0-1.34a.42.42 0 1 0 .42.42.41.41 0 0 0-.42-.42M281.33 204.22a.92.92 0 1 1 .92-.92.92.92 0 0 1-.92.92m0-1.34a.42.42 0 1 0 .42.42.41.41 0 0 0-.42-.42M281.33 207.9a.92.92 0 1 1 .92-.92.92.92 0 0 1-.92.92m0-1.34a.42.42 0 1 0 .42.42.41.41 0 0 0-.42-.42M281.33 211.58a.92.92 0 1 1 .92-.92.92.92 0 0 1-.92.92m0-1.34a.42.42 0 1 0 .42.42.41.41 0 0 0-.42-.42M281.33 215.26a.92.92 0 1 1 .92-.92.92.92 0 0 1-.92.92m0-1.34a.41.41 0 0 0-.41.42.42.42 0 1 0 .41-.42M281.33 218.93a.92.92 0 1 1 .92-.92.92.92 0 0 1-.92.92m0-1.33a.42.42 0 0 0 0 .83.42.42 0 1 0 0-.83M281.33 222.61a.92.92 0 1 1 .92-.92.92.92 0 0 1-.92.92m0-1.34a.42.42 0 1 0 .42.42.41.41 0 0 0-.42-.42M281.33 226.29a.92.92 0 1 1 .92-.92.92.92 0 0 1-.92.92m0-1.34a.42.42 0 1 0 .42.42.41.41 0 0 0-.42-.37ZM281.33 230a.92.92 0 1 1 .92-.92.92.92 0 0 1-.92.92m0-1.34a.42.42 0 1 0 .42.42.41.41 0 0 0-.42-.45ZM281.33 233.65a.92.92 0 1 1 .92-.92.92.92 0 0 1-.92.92m0-1.34a.42.42 0 1 0 .42.42.41.41 0 0 0-.42-.42M281.33 237.33a.92.92 0 1 1 .92-.92.92.92 0 0 1-.92.92m0-1.34a.41.41 0 0 0-.41.42.42.42 0 1 0 .41-.42M281.33 241a.92.92 0 1 1 .92-.92.92.92 0 0 1-.92.92m0-1.33a.42.42 0 0 0 0 .83.42.42 0 1 0 0-.83" style="fill:#fff"/><path d="M274.27 199.12h6.4v1h-6.4zM274.27 239.58h6.4v1h-6.4zM274.27 235.91h6.4v1h-6.4zM274.27 232.23h6.4v1h-6.4zM274.27 228.55h6.4v1h-6.4zM274.27 224.87h6.4v1h-6.4zM274.27 221.19h6.4v1h-6.4zM274.27 217.51h6.4v1h-6.4zM274.27 213.84h6.4v1h-6.4zM274.27 210.16h6.4v1h-6.4zM274.27 206.48h6.4v1h-6.4zM274.27 202.8h6.4v1h-6.4zM378.83 198.11a.92.92 0 1 1 .92-.92.92.92 0 0 1-.92.92m0-1.34a.42.42 0 1 0 .42.42.42.42 0 0 0-.42-.42M378.83 201.79a.92.92 0 1 1 .92-.92.92.92 0 0 1-.92.92m0-1.34a.42.42 0 1 0 .42.42.42.42 0 0 0-.42-.42M378.83 205.47a.92.92 0 1 1 .92-.92.92.92 0 0 1-.92.92m0-1.34a.42.42 0 0 0-.42.42.42.42 0 1 0 .84 0 .42.42 0 0 0-.42-.42M392.09 198.11a.92.92 0 1 1 .91-.92.92.92 0 0 1-.91.92m0-1.34a.42.42 0 1 0 .41.42.42.42 0 0 0-.41-.42M392.09 201.79a.92.92 0 1 1 .91-.92.92.92 0 0 1-.91.92m0-1.34a.42.42 0 1 0 .41.42.42.42 0 0 0-.41-.42M392.09 205.47a.92.92 0 1 1 .91-.92.92.92 0 0 1-.91.92m0-1.34a.41.41 0 0 0-.42.42.42.42 0 1 0 .83 0 .41.41 0 0 0-.41-.42" style="fill:#fff"/><path d="M379.5 196.69h11.92v1H379.5zM379.5 204.05h11.92v1H379.5zM379.5 200.37h11.92v1H379.5zM337.7 113.81a.92.92 0 1 1 .92-.92.92.92 0 0 1-.92.92m0-1.34a.42.42 0 1 0 .42.42.42.42 0 0 0-.42-.42M333.2 113.81a.92.92 0 1 1 .92-.92.92.92 0 0 1-.92.92m0-1.34a.42.42 0 1 0 .42.42.41.41 0 0 0-.42-.42M328.71 113.81a.92.92 0 1 1 .92-.92.92.92 0 0 1-.92.92m0-1.34a.42.42 0 1 0 .42.42.42.42 0 0 0-.42-.42M324.21 113.81a.92.92 0 1 1 .92-.92.92.92 0 0 1-.92.92m0-1.34a.42.42 0 1 0 .42.42.42.42 0 0 0-.42-.42M319.72 113.81a.92.92 0 0 1 0-1.84.92.92 0 1 1 0 1.84m0-1.34a.42.42 0 1 0 .42.42.42.42 0 0 0-.42-.42M315.22 113.81a.92.92 0 1 1 .92-.92.92.92 0 0 1-.92.92m0-1.34a.42.42 0 1 0 .42.42.42.42 0 0 0-.42-.42M310.73 113.81a.92.92 0 1 1 .91-.92.92.92 0 0 1-.91.92m0-1.34a.42.42 0 1 0 .41.42.42.42 0 0 0-.41-.42M306.23 113.81a.92.92 0 1 1 .92-.92.92.92 0 0 1-.92.92m0-1.34a.42.42 0 1 0 .42.42.42.42 0 0 0-.42-.42M301.73 113.81a.92.92 0 1 1 .92-.92.92.92 0 0 1-.92.92m0-1.34a.42.42 0 1 0 .42.42.42.42 0 0 0-.42-.42M297.24 113.81a.92.92 0 0 1 0-1.84.92.92 0 1 1 0 1.84m0-1.34a.42.42 0 1 0 .42.42.42.42 0 0 0-.42-.42M300.55 104.1a.92.92 0 1 1 .92-.92.92.92 0 0 1-.92.92m0-1.34a.42.42 0 1 0 .42.42.42.42 0 0 0-.42-.42M305.05 104.1a.92.92 0 1 1 .92-.92.92.92 0 0 1-.92.92m0-1.34a.42.42 0 1 0 .42.42.42.42 0 0 0-.42-.42M309.54 104.1a.92.92 0 1 1 .92-.92.92.92 0 0 1-.92.92m0-1.34a.42.42 0 0 0 0 .84.42.42 0 1 0 0-.84M314 104.1a.92.92 0 1 1 .92-.92.92.92 0 0 1-.92.92m0-1.34a.42.42 0 1 0 .42.42.42.42 0 0 0-.42-.42M318.54 104.1a.92.92 0 1 1 0-1.84.92.92 0 1 1 0 1.84m0-1.34a.42.42 0 0 0 0 .84.42.42 0 1 0 0-.84M323 104.1a.92.92 0 1 1 .92-.92.92.92 0 0 1-.92.92m0-1.34a.42.42 0 1 0 .42.42.42.42 0 0 0-.42-.42M327.53 104.1a.92.92 0 0 1 0-1.84.92.92 0 1 1 0 1.84m0-1.34a.42.42 0 1 0 .42.42.42.42 0 0 0-.42-.42M332 104.1a.92.92 0 1 1 .92-.92.92.92 0 0 1-.92.92m0-1.34a.42.42 0 1 0 .42.42.42.42 0 0 0-.42-.42M336.52 104.1a.92.92 0 1 1 .92-.92.92.92 0 0 1-.92.92m0-1.34a.42.42 0 1 0 .42.42.42.42 0 0 0-.42-.42M341 104.1a.92.92 0 1 1 .92-.92.92.92 0 0 1-.92.92m0-1.34a.42.42 0 1 0 .42.42.41.41 0 0 0-.42-.42" style="fill:#fff"/><path d="M297.74 112.22h-1v-.99l3.31-6.62v-.76h1v.99l-3.31 6.63zM338.2 112.22h-1v-.99l3.31-6.62v-.76h1v.99l-3.31 6.63zM333.7 112.22h-1v-.99l3.32-6.62v-.76h1v.99l-3.32 6.63zM329.21 112.22h-1v-.99l3.31-6.62v-.76h1v.99l-3.31 6.63zM324.71 112.22h-1v-.99l3.32-6.62v-.76h1v.99l-3.32 6.63zM320.22 112.22h-1v-.99l3.31-6.62v-.76h1v.99l-3.31 6.63zM315.72 112.22h-1v-.99l3.32-6.62v-.76h1v.99l-3.32 6.63zM311.23 112.22h-1v-.99l3.31-6.62v-.76h1v.99l-3.31 6.63zM306.73 112.22h-1v-.99l3.31-6.62v-.76h1v.99l-3.31 6.63zM302.23 112.22h-1v-.99l3.32-6.62v-.76h1v.99l-3.32 6.63zM358.1 239a.92.92 0 1 1 .92-.92.92.92 0 0 1-.92.92m0-1.34a.42.42 0 0 0-.42.42.42.42 0 0 0 .84 0 .42.42 0 0 0-.42-.38ZM353.6 239a.92.92 0 1 1 .92-.92.92.92 0 0 1-.92.92m0-1.34a.42.42 0 0 0-.42.42.42.42 0 0 0 .84 0 .42.42 0 0 0-.42-.38ZM349.11 239a.92.92 0 1 1 .91-.92.92.92 0 0 1-.91.92m0-1.34a.41.41 0 0 0-.42.42.42.42 0 1 0 .83 0 .41.41 0 0 0-.41-.38ZM344.61 239a.92.92 0 1 1 .92-.92.92.92 0 0 1-.92.92m0-1.34a.42.42 0 0 0-.42.42.42.42 0 0 0 .84 0 .42.42 0 0 0-.42-.38ZM340.11 239a.92.92 0 0 1 0-1.84.92.92 0 1 1 0 1.84m0-1.34a.42.42 0 0 0-.42.42.42.42 0 0 0 .42.42.42.42 0 0 0 .42-.42.41.41 0 0 0-.42-.38ZM343.43 229.33a.92.92 0 1 1 .92-.92.92.92 0 0 1-.92.92m0-1.34a.42.42 0 0 0-.42.42.42.42 0 1 0 .84 0 .42.42 0 0 0-.42-.41ZM347.92 229.33a.92.92 0 0 1 0-1.84.92.92 0 0 1 0 1.84m0-1.34a.42.42 0 0 0-.42.42.42.42 0 0 0 .42.42.42.42 0 0 0 .42-.42.41.41 0 0 0-.42-.41ZM352.42 229.33a.92.92 0 1 1 .92-.92.92.92 0 0 1-.92.92m0-1.34a.42.42 0 0 0-.42.42.42.42 0 0 0 .84 0 .42.42 0 0 0-.42-.41ZM356.92 229.33a.92.92 0 1 1 .91-.92.92.92 0 0 1-.91.92m0-1.34a.41.41 0 0 0-.42.42.42.42 0 1 0 .83 0 .41.41 0 0 0-.41-.41ZM361.41 229.33a.92.92 0 1 1 .92-.92.92.92 0 0 1-.92.92m0-1.34a.42.42 0 0 0-.42.42.42.42 0 0 0 .84 0 .42.42 0 0 0-.42-.41Z" style="fill:#fff"/><path d="M358.6 237.45h-1v-.99l3.31-6.63v-.76h1v.99l-3.31 6.63zM354.1 237.45h-1v-.99l3.32-6.63v-.76h1v.99l-3.32 6.63zM349.61 237.45h-1v-.99l3.31-6.63v-.76h1v.99l-3.31 6.63zM345.11 237.45h-1v-.99l3.31-6.63v-.76h1v.99l-3.31 6.63zM340.61 237.45h-1v-.99l3.32-6.63v-.76h1v.99l-3.32 6.63z" style="fill:#fff"/><path d="M380.94 107.14h7.98v7.98h-7.98z" style="opacity:.2;isolation:isolate" transform="rotate(90 384.925 111.135)"/><path d="M370.4 107.14h7.98v7.98h-7.98z" style="fill:#fff;opacity:.6000000000000001;isolation:isolate" transform="rotate(90 374.385 111.135)"/><path d="M361.67 259.4h7.98v7.98h-7.98z" style="fill:#fff;opacity:.6000000000000001;isolation:isolate" transform="rotate(90 365.665 263.385)"/><path d="M379.16 159.96h14.2v7.98h-14.2z" style="fill:#fff;opacity:.6000000000000001;isolation:isolate" transform="rotate(90 386.265 163.945)"/><path d="M384.16 246.72h14.2v7.98h-14.2z" style="fill:#fff;opacity:.6000000000000001;isolation:isolate" transform="rotate(90 391.26 250.71)"/><path d="M379.16 178.2h14.2v14.2h-14.2z" style="opacity:.2;isolation:isolate" transform="rotate(90 386.265 185.305)"/><path d="M381.55 180.71h9.19v9.19h-9.19z" style="opacity:.2;isolation:isolate" transform="rotate(90 386.14 185.3)"/><path d="M384.16 262.99h14.2v7.98h-14.2z" style="fill:#fff;opacity:.6000000000000001;isolation:isolate" transform="rotate(90 391.265 266.975)"/><path d="M384.16 279.25h14.2v7.98h-14.2z" style="opacity:.2;isolation:isolate" transform="rotate(90 391.26 283.24)"/><path d="M375.71 166.66h4.39v4.39h-4.39z" style="opacity:.2;isolation:isolate" transform="rotate(90 377.91 168.85)"/><path d="M382.48 108.94h4.39v4.39h-4.39z" style="opacity:.2;isolation:isolate" transform="rotate(90 384.675 111.135)"/><path d="M365.07 166.66h4.39v4.39h-4.39z" style="opacity:.2;isolation:isolate" transform="rotate(90 367.26 168.85)"/><path d="M300.21 127.85h4.39v4.39h-4.39z" style="fill:#fff;opacity:.6000000000000001;isolation:isolate" transform="rotate(90 302.405 130.045)"/><path d="M294.51 242.17h4.39v4.39h-4.39z" style="fill:#fff;opacity:.6000000000000001;isolation:isolate" transform="rotate(90 296.705 244.365)"/><path d="M288.57 242.17h4.39v4.39h-4.39z" style="fill:#fff;opacity:.6000000000000001;isolation:isolate" transform="rotate(90 290.765 244.365)"/><path d="M358.49 166.66h4.39v4.39h-4.39z" style="opacity:.2;isolation:isolate" transform="rotate(90 360.68 168.85)"/><path d="M328.43 166.48a.92.92 0 1 1 .92-.92.92.92 0 0 1-.92.92m0-1.33a.42.42 0 1 0 .42.41.41.41 0 0 0-.42-.41M324.75 166.48a.92.92 0 1 1 .92-.92.92.92 0 0 1-.92.92m0-1.33a.42.42 0 1 0 .42.41.41.41 0 0 0-.42-.41M321.07 166.48a.92.92 0 1 1 .92-.92.92.92 0 0 1-.92.92m0-1.33a.42.42 0 1 0 .42.41.41.41 0 0 0-.42-.41M317.39 166.48a.92.92 0 1 1 .92-.92.92.92 0 0 1-.92.92m0-1.33a.42.42 0 0 0 0 .83.42.42 0 1 0 0-.83M313.72 166.48a.92.92 0 1 1 .92-.92.92.92 0 0 1-.92.92m0-1.33a.42.42 0 1 0 0 .83.42.42 0 1 0 0-.83M310 166.48a.92.92 0 1 1 .92-.92.92.92 0 0 1-.92.92m0-1.33a.42.42 0 1 0 .42.41.41.41 0 0 0-.42-.41M306.36 166.48a.92.92 0 1 1 .92-.92.92.92 0 0 1-.92.92m0-1.33a.42.42 0 1 0 .42.41.41.41 0 0 0-.42-.41M302.68 166.48a.92.92 0 1 1 .92-.92.92.92 0 0 1-.92.92m0-1.33a.42.42 0 1 0 .42.41.41.41 0 0 0-.42-.41M299 166.48a.92.92 0 1 1 .92-.92.92.92 0 0 1-.92.92m0-1.33a.42.42 0 1 0 .42.41.41.41 0 0 0-.42-.41M295.32 166.48a.92.92 0 1 1 .92-.92.92.92 0 0 1-.92.92m0-1.33a.42.42 0 1 0 .42.41.41.41 0 0 0-.42-.41" style="fill:#fff"/><path d="M327.93 158.5h1v6.4h-1zM294.82 158.5h1v6.4h-1zM298.5 158.5h1v6.4h-1zM302.18 158.5h1v6.4h-1zM305.86 158.5h1v6.4h-1zM309.54 158.5h1v6.4h-1zM313.22 158.5h1v6.4h-1zM316.89 158.5h1v6.4h-1zM320.57 158.5h1v6.4h-1zM324.25 158.5h1v6.4h-1zM357.52 200.13a.92.92 0 0 1-.65-.27.94.94 0 0 1 0-1.3.92.92 0 0 1 1.3 1.3.9.9 0 0 1-.65.27m0-1.34a.4.4 0 0 0-.29.13.41.41 0 0 0 0 .59.42.42 0 0 0 .59-.59.4.4 0 0 0-.3-.13M354.92 202.73a.92.92 0 0 1-.65-1.57.94.94 0 0 1 1.3 0 .92.92 0 0 1 0 1.3.9.9 0 0 1-.65.27m0-1.33a.42.42 0 0 0-.29.12.4.4 0 0 0-.13.29.42.42 0 0 0 .13.3.42.42 0 0 0 .59 0 .4.4 0 0 0 .12-.3.4.4 0 0 0-.12-.29.42.42 0 0 0-.3-.12M352.32 205.33a.9.9 0 0 1-.65-.27.91.91 0 0 1 0-1.29.92.92 0 0 1 1.3 0 .92.92 0 0 1-.65 1.56m0-1.33a.4.4 0 0 0-.29.12.41.41 0 0 0 0 .59.42.42 0 0 0 .59 0 .4.4 0 0 0 .12-.29.4.4 0 0 0-.12-.3.42.42 0 0 0-.3-.12M349.72 207.94a.93.93 0 0 1-.65-.27.92.92 0 1 1 .65.27m0-1.34a.44.44 0 0 0-.3.12.42.42 0 0 0 0 .59.44.44 0 0 0 .6 0 .42.42 0 0 0-.3-.71M347.12 210.54a.9.9 0 0 1-.65-.27.92.92 0 1 1 .65.27m0-1.34a.42.42 0 0 0-.3.71.42.42 0 0 0 .6 0 .42.42 0 0 0 0-.59.44.44 0 0 0-.3-.12M344.52 213.14a.9.9 0 0 1-.65-.27.92.92 0 1 1 .65.27m-.3-.63a.42.42 0 0 0 .6 0 .42.42 0 0 0 0-.59.43.43 0 0 0-.6 0 .42.42 0 0 0 0 .59M341.92 215.74a.9.9 0 0 1-.65-.27.92.92 0 0 1 0-1.3.94.94 0 0 1 1.3 0 .92.92 0 0 1-.65 1.57m-.3-.62a.42.42 0 0 0 .59 0 .42.42 0 0 0 0-.6.42.42 0 0 0-.59 0 .44.44 0 0 0 0 .6M339.32 218.34a.9.9 0 0 1-.65-.27.92.92 0 1 1 .65.27m-.3-.62a.42.42 0 0 0 .59 0 .42.42 0 0 0 0-.6.42.42 0 0 0-.59 0 .44.44 0 0 0 0 .6M336.72 220.94a.9.9 0 0 1-.65-.27.92.92 0 0 1 1.3-1.3.94.94 0 0 1 0 1.3.92.92 0 0 1-.65.27m0-1.34a.42.42 0 1 0 .29.72.42.42 0 0 0-.29-.72M334.11 223.54a.92.92 0 0 1-.65-.27.9.9 0 0 1-.26-.65.94.94 0 0 1 .26-.65.92.92 0 1 1 1.3 1.3.9.9 0 0 1-.65.27m0-1.34a.4.4 0 0 0-.29.13.38.38 0 0 0-.12.29.42.42 0 1 0 .71-.29.4.4 0 0 0-.3-.13" style="fill:#fff"/><path d="m335.97 219.97-13.94-9.24h-6.25v-1h6.55l14.19 9.4z" style="fill:#fff"/><path d="m338.58 217.37-16.54-10.32h-6.26v-1h6.54l16.79 10.47z" style="fill:#fff"/><path d="m341.19 214.78-19.15-11.4h-6.26v-1h6.54l19.38 11.54z" style="fill:#fff"/><path d="m343.8 212.18-21.75-12.48h-6.27v-1h6.53l21.98 12.61zM315.11 214.83a.92.92 0 1 1 .92-.92.92.92 0 0 1-.92.92m0-1.34a.42.42 0 1 0 .42.42.42.42 0 0 0-.42-.42M315.11 211.15a.92.92 0 1 1 .92-.92.92.92 0 0 1-.92.92m0-1.34a.42.42 0 1 0 .42.42.42.42 0 0 0-.42-.42M315.11 207.47a.92.92 0 1 1 .92-.92.92.92 0 0 1-.92.92m0-1.34a.42.42 0 1 0 .42.42.42.42 0 0 0-.42-.42M315.11 203.79a.92.92 0 1 1 .92-.91.92.92 0 0 1-.92.91m0-1.33a.42.42 0 1 0 .42.42.42.42 0 0 0-.42-.42" style="fill:#fff"/><path d="M315.11 200.12a.92.92 0 0 1 0-1.84.92.92 0 0 1 0 1.84m0-1.34a.42.42 0 1 0 .42.42.42.42 0 0 0-.42-.42M331.5 181a.92.92 0 1 1 .92-.92.92.92 0 0 1-.92.92m0-1.33a.42.42 0 1 0 .42.41.41.41 0 0 0-.42-.4ZM335.18 181a.92.92 0 1 1 .92-.92.92.92 0 0 1-.92.92m0-1.33a.42.42 0 1 0 0 .83.42.42 0 1 0 0-.83M338.85 181a.92.92 0 1 1 .92-.92.92.92 0 0 1-.92.92m0-1.33a.42.42 0 1 0 .42.41.41.41 0 0 0-.42-.4ZM342.53 181a.92.92 0 1 1 .92-.92.92.92 0 0 1-.92.92m0-1.33a.42.42 0 1 0 .42.41.41.41 0 0 0-.42-.4ZM346.21 181a.92.92 0 1 1 .92-.92.92.92 0 0 1-.92.92m0-1.33a.42.42 0 1 0 .42.41.41.41 0 0 0-.42-.4ZM333.35 222.56l-11.33-8.15h-6.24v-1h6.56l11.59 8.33z" style="fill:#fff"/><path d="m356.69 199.08-10.98-11.72v-6.6h1v6.2l10.71 11.44z" style="fill:#fff"/><path d="m354.07 201.66-12.04-14.32v-6.58h1v6.22l11.8 14.04z" style="fill:#fff"/><path d="m351.45 204.25-13.1-16.92v-6.57h1v6.23l12.89 16.65z" style="fill:#fff"/><path d="m348.84 206.84-14.16-19.52v-6.56h1V187l13.97 19.25z" style="fill:#fff"/><path d="M346.24 209.43 331 187.31v-6.55h1V187l15.06 21.86z" style="fill:#fff"/><path d="M306.98 176.42h16.97v12.5h-16.97z" style="opacity:.2;isolation:isolate" transform="rotate(90 315.465 182.665)"/><path d="M292.19 176.42h16.97v12.5h-16.97z" style="opacity:.2;isolation:isolate" transform="rotate(90 300.675 182.665)"/><path d="M277.4 176.42h16.97v12.5H277.4z" style="opacity:.2;isolation:isolate" transform="rotate(90 285.885 182.665)"/><path d="M301.89 279.92h4.17v12.13h-4.17z" style="fill:#fff;opacity:.6000000000000001;isolation:isolate" transform="rotate(90 303.97 285.99)"/><path d="M288.13 279.92h4.17v12.13h-4.17z" style="fill:#fff;opacity:.6000000000000001;isolation:isolate" transform="rotate(90 290.21 285.99)"/><path d="M313.77 183.21h3.38v12.5h-3.38z" style="opacity:.2;isolation:isolate" transform="rotate(90 315.465 189.465)"/><path d="M298.99 183.21h3.38v12.5h-3.38z" style="opacity:.2;isolation:isolate" transform="rotate(90 300.675 189.465)"/><path d="M284.2 183.21h3.38v12.5h-3.38z" style="opacity:.2;isolation:isolate" transform="rotate(90 285.89 189.46)"/><path d="M383.9 159.44h4.72v2.65h-4.72z" style="fill:#fff;opacity:.6000000000000001;isolation:isolate" transform="rotate(90 386.265 160.765)"/><path d="M373.15 109.81h4.72v2.65h-4.72z" style="fill:#fff;opacity:.6000000000000001;isolation:isolate" transform="rotate(90 375.505 111.135)"/><path d="M300.45 242.17h4.39v4.39h-4.39z" style="fill:#fff;opacity:.6000000000000001;isolation:isolate" transform="rotate(90 302.64 244.37)"/><path d="M360.68 208.71h4.39v4.39h-4.39z" style="fill:#fff;opacity:.6000000000000001;isolation:isolate" transform="rotate(45 362.874 210.897)"/><path d="M356.49 212.9h4.39v4.39h-4.39z" style="fill:#fff;opacity:.6000000000000001;isolation:isolate" transform="rotate(45 358.674 215.098)"/><path d="M364.88 204.51h4.39v4.39h-4.39z" style="fill:#fff;opacity:.6000000000000001;isolation:isolate" transform="rotate(45 367.078 206.709)"/><path d="M313.59 177.9h4.39v4.39h-4.39z" style="fill:#fff;opacity:.6000000000000001;isolation:isolate" transform="rotate(90 315.785 180.095)"/><path d="M298.64 177.9h4.39v4.39h-4.39z" style="fill:#fff;opacity:.6000000000000001;isolation:isolate" transform="rotate(90 300.835 180.095)"/><path d="M283.69 177.9h4.39v4.39h-4.39z" style="fill:#fff;opacity:.6000000000000001;isolation:isolate" transform="rotate(90 285.885 180.095)"/><path d="m200.89 143-16.83 29.16a4.11 4.11 0 0 0 3.56 6.17h33.67a4.12 4.12 0 0 0 3.56-6.17L208 143a4.12 4.12 0 0 0-7.11 0" style="fill:#005c8e"/><path d="M206.03 160.17h-.99l3.17-9.34-6.6 10.19-1.39 2.15h3.81l-2.75 9.17 6.12-10.06 1.29-2.11z" style="fill:#fff"/><path d="M457 416.74H296.28c-21.36 0-45.1-19.69-46.78-62.91-1.15-29.61-3.84-98.95-15.29-98.95h-6.34a.51.51 0 0 1-.5-.5.5.5 0 0 1 .5-.5h6.34c10.94 0 14.37 50.51 16.29 99.91 1.65 42.56 24.89 61.95 45.78 61.95H457a.5.5 0 0 1 .5.5.51.51 0 0 1-.5.5" style="fill:#263238"/><path d="M66.66 258.69h4.31l12 70.42h-4.31zM82.66 258.69h4.31l12 70.42h-4.31zM98.66 258.69h4.31l12 70.42h-4.31z" style="fill:#005c8e"/><path d="M66.66 258.69h4.31l12 70.42h-4.31zM82.66 258.69h4.31l12 70.42h-4.31zM98.66 258.69h4.31l12 70.42h-4.31z" style="fill:#fff;opacity:.4;isolation:isolate"/><path d="m103.49 330.93.36 15.57 1.64 70.43h5.41l1.63-70.43.36-15.57z" style="fill:#005c8e"/><path d="m103.49 330.93.36 15.57 1.64 70.43h5.41l1.63-70.43.36-15.57z" style="fill:#fff;opacity:.4;isolation:isolate"/><path d="m103.49 330.93.36 16h8.68l.36-16z" style="opacity:.2;isolation:isolate"/><path d="m74.11 416.68 5-84.65h8.17l-7 84.65z" style="fill:#005c8e"/><path d="M80.3 416.68h-6.18l4.54-77.05.45-7.7h8.17l-.63 7.7z" style="fill:#fff;opacity:.4;isolation:isolate"/><path d="m87.28 331.93-.63 8h-7.99l.45-8z" style="opacity:.2;isolation:isolate"/><path d="m136.1 416.68-6.99-84.65h8.17l4.99 84.65z" style="fill:#005c8e"/><path d="m136.09 416.68-6.35-77.05-.63-7.7h8.17l.45 7.7 4.54 77.05z" style="fill:#fff;opacity:.4;isolation:isolate"/><path d="m129.11 331.93.63 8h7.99l-.45-8z" style="opacity:.2;isolation:isolate"/><path d="M74.73 323.27h66.92V330a5 5 0 0 1-5 5H79.73a5 5 0 0 1-5-5v-6.73" style="fill:#263238" transform="rotate(180 108.195 329.11)"/><rect width="73.33" height="5.84" x="71.53" y="329.11" rx="2.01" style="fill:#005c8e" transform="rotate(180 108.195 332.035)"/><rect width="73.33" height="5.84" x="71.53" y="329.11" rx="2.01" style="fill:#fff;opacity:.6000000000000001;isolation:isolate" transform="rotate(180 108.195 332.035)"/><path d="M74.11 266.82c6.93-4.2 16.57-4.2 25.77 0 4.66 2 10.16 2.62 12.6-.32 4.15-4.33-3.14-17.14-17.11-21.19-10-2.87-19.91-2.87-28.37 0-11.78 4.05-12.15 16.86-5.66 21.19 4.02 2.94 9.21 2.36 12.77.32" style="fill:#263238"/><path d="m177.93 254.12 8.06-1.83a7.8 7.8 0 0 1 3.46-1.43c1.48 0 7.62 1.38 8.41 2.67a4.48 4.48 0 0 1 .39 3H189l-8.11 2.17Z" style="fill:#b97964"/><path d="M159.91 226.33c3.53 3.26 9 23.73 10.51 26s13.2-1.24 13.2-1.24l2.37 7.43s-14.71 6.69-21.3 2.37-10.64-21.74-10.64-21.74Z" style="fill:#005c8e"/><path d="M159.91 226.33c3.53 3.26 9 23.73 10.51 26s13.2-1.24 13.2-1.24l2.37 7.43s-14.71 6.69-21.3 2.37-10.64-21.74-10.64-21.74Z" style="fill:#fff;opacity:.7000000000000001;isolation:isolate"/><path d="m127.83 212.55 22.95 6.07-11.47 16.51h-17.66z" style="fill:#005c8e"/><path d="m210.89 407.43 7.75-2.13-1.39-18.92-7.74 2.13z" style="fill:#b97964"/><path d="m219.11 404.27-9 .62a.57.57 0 0 0-.56.58l.06 7.16a1.42 1.42 0 0 0 1.49 1.32c3.14-.27 4.62-.56 8.58-.86 2.43-.18 7.24-.29 10.53-1.05s2.44-4 1-4c-3.45.07-8.3-1.84-10.68-3.46a2.25 2.25 0 0 0-1.42-.31" style="fill:#263238"/><path d="M222.05 405.43a9.2 9.2 0 0 1-2.16-.14.16.16 0 0 1-.15-.13.18.18 0 0 1 .06-.19c.24-.2 2.41-1.91 3.42-1.59a.69.69 0 0 1 .46.5 1 1 0 0 1-.15 1.05 2.12 2.12 0 0 1-1.48.5m1.06-1.66c-.54-.17-1.83.59-2.72 1.25 1.46.18 2.5.06 2.86-.33a.72.72 0 0 0 .09-.68.35.35 0 0 0-.23-.24" style="fill:#005c8e"/><path d="M219.93 405.29a.08.08 0 0 1-.08 0 .26.26 0 0 1-.11-.14c0-.07-.35-2.39.4-3.23a1 1 0 0 1 .78-.31.73.73 0 0 1 .72.52c.23.85-.84 2.62-1.61 3.14a.09.09 0 0 1-.1.02m.88-3.26a.55.55 0 0 0-.39.2 4.18 4.18 0 0 0-.34 2.57 3.9 3.9 0 0 0 1.19-2.52c0-.11-.1-.24-.37-.25Z" style="fill:#005c8e"/><path d="m209.51 388.51 7.74-2.12.8 10.81-7.79 1.74z" style="opacity:.2;isolation:isolate"/><path d="m200.75 407.15-7.32 3.33-1.86-7.86-2.5-10.58 7.3-3.35 2.51 10.58z" style="fill:#b97964"/><path d="m198.88 399.27-7.31 3.35-2.5-10.58 7.3-3.35z" style="opacity:.2;isolation:isolate"/><path d="m201.05 406.06-8.78 2.05a.56.56 0 0 0-.45.66l1.19 7.06a1.42 1.42 0 0 0 1.69 1.06c3.05-.77 4.47-1.28 8.33-2.22 2.37-.56 7.11-1.44 10.23-2.71s1.77-4.33.34-4.06c-3.4.61-8.49-.5-11.1-1.72a2.25 2.25 0 0 0-1.45-.12" style="fill:#263238"/><path d="M204.14 406.74a9.8 9.8 0 0 1-2.14.26.18.18 0 0 1-.17-.11.24.24 0 0 1 0-.2c.21-.23 2.08-2.26 3.12-2.12a.74.74 0 0 1 .55.42 1 1 0 0 1 0 1.07 2.14 2.14 0 0 1-1.36.68m.78-1.81c-.56-.08-1.71.88-2.48 1.67 1.46-.05 2.48-.34 2.76-.78a.66.66 0 0 0 0-.68.31.31 0 0 0-.26-.21Z" style="fill:#005c8e"/><path d="M202 406.94a.1.1 0 0 1-.08 0 .2.2 0 0 1-.13-.12c0-.07-.73-2.3-.13-3.25a1.06 1.06 0 0 1 .73-.44.72.72 0 0 1 .79.4c.37.81-.41 2.72-1.08 3.36a.12.12 0 0 1-.1.05m.34-3.36a.53.53 0 0 0-.35.26 4.2 4.2 0 0 0 .07 2.59 3.9 3.9 0 0 0 .78-2.68c0-.1-.14-.22-.4-.19Z" style="fill:#005c8e"/><path d="m146.48 299.72-2.36-26.14-43.65 1S95.3 311 99.06 317.72c6.7 11.94 50.7 5.16 61 6.18 4.2 2.24 26.69 76.76 26.69 76.76l12.59-5.08s-13.54-62.9-16.62-74.74c-4.3-16.48-21.78-16.19-36.24-21.12" style="fill:#263238"/><path d="m146.48 299.72-2.36-26.14-43.65 1S95.3 311 99.06 317.72c6.7 11.94 50.7 5.16 61 6.18 4.2 2.24 26.69 76.76 26.69 76.76l12.59-5.08s-13.54-62.9-16.62-74.74c-4.3-16.48-21.78-16.19-36.24-21.12" style="fill:#fff;opacity:.2;isolation:isolate"/><path d="m218.81 394.3-11.1 1S194.09 326 193 325.68c-1.89-.54-7.42-1.16-10.38-1.94-20.61-5.36-71.36-15.22-71.36-15.22l18.71-18s84.86 10.19 86.75 30.1c.93 9.55 2.09 73.68 2.09 73.68" style="fill:#263238"/><path d="m218.81 394.3-11.1 1S194.09 326 193 325.68c-1.89-.54-7.42-1.16-10.38-1.94-20.61-5.36-71.36-15.22-71.36-15.22l18.71-18s84.86 10.19 86.75 30.1c.93 9.55 2.09 73.68 2.09 73.68" style="fill:#fff;opacity:.2;isolation:isolate"/><path d="M190 325.73c-1.89-.54-4.42-1.21-7.38-2 .82.44-1.56-10.36-3.94-13.16C174 305 155 302 148.23 300.92c-5.68-.91-24.76-2.59-24.76-2.59s33.68-2.91 59.06 4.05c12.55 3.45 10.31 15.7 7.47 23.35" style="opacity:.2;isolation:isolate"/><path d="M145.11 278.91c2.56-14.64 6.85-34.24 14.8-52.58A93 93 0 0 0 147 222a173 173 0 0 0-19.49-4.09 88 88 0 0 0-13.68-.38S104 235.87 99 278.91Z" style="fill:#263238"/><path d="M138.4 201.44c-1.74 6.29-5.87 17.34-11.79 19.16 0 0 4.36 7.14 10.88 7.74 4.15.38 6.45-4.31 6.45-4.31-4.23-.79-2.61-3.9.73-7.79Z" style="fill:#b97964"/><path d="m141 207.47 3.71 8.77a20 20 0 0 0-2.13 2.88c-4.16.31-7.15-6.28-6.13-9 .31-1.07 3.76-1.75 4.55-2.65" style="opacity:.2;isolation:isolate"/><path d="M152.78 191.4c-4 1.64-3.21 6 3.37 13.87 4-3.49 6.25-11.43 4.13-14s-4.04-1.27-7.5.13" style="fill:#263238"/><path d="M136.47 194.79c-1.38 8.59-2.62 13.54.67 18.85 5 8 16.29 6.45 20.21-1.55 3.51-7.19 5.19-20-2.34-25.25a11.85 11.85 0 0 0-18.54 7.95" style="fill:#b97964"/><path d="M148.59 200c-.15.69.09 1.33.54 1.43s.94-.37 1.09-1.06-.08-1.32-.52-1.43-.91.35-1.11 1.06M156.43 201.72c-.16.69.09 1.33.54 1.43s.94-.36 1.1-1.06-.09-1.33-.54-1.43-.95.34-1.1 1.06" style="fill:#263238"/><path d="M153.8 201.47a25.2 25.2 0 0 0 2 6.64 4.08 4.08 0 0 1-3.44-.13Z" style="fill:#a24e3f"/><path d="M147 197a.47.47 0 0 1-.25-.11.42.42 0 0 1 .05-.59 4.09 4.09 0 0 1 3.67-.93.41.41 0 0 1 .29.49.43.43 0 0 1-.52.27 3.28 3.28 0 0 0-2.89.77.41.41 0 0 1-.35.1M160.59 199.88a.41.41 0 0 1-.32-.31 3.29 3.29 0 0 0-1.87-2.34.44.44 0 0 1-.25-.54.42.42 0 0 1 .53-.25 4.12 4.12 0 0 1 2.39 2.94.41.41 0 0 1-.3.5zM141.53 188c3.65 2.25 2.21 6.41-5.54 13.14-3.45-4.09-4.35-12.29-1.84-14.45s4.19-.6 7.38 1.31" style="fill:#263238"/><path d="M134.79 186.25s-.77-3.36 5.28-6.55 15.82-.5 22.18 4.1-1.38 10.39-4.47 10.52l.87-1.07a23 23 0 0 1-9.7-1.65l2-.65s-12.34-2.25-16.16-4.7" style="fill:#263238"/><path d="M161.73 199.53 160.6 205s-2.26 1.61-3.35.95-1.51-2.48-3.2-2.75-2.26 1.43-5.5 1.43-5.11-4.71-5.11-4.71l-7.23-2.6-1.16 2.58-.55-1s1.41-3.9 3-3.61l6.66 1.17Z" style="fill:#fff;opacity:.4;isolation:isolate"/><path d="m144.19 196.43-.74 3.43-7.23-2.6-1.16 2.58-.55-1s1.41-3.9 3-3.61Z" style="fill:#005c8e"/><path d="M130.92 200.66a8.27 8.27 0 0 0 2.75 5.69c2.18 1.9 4.51.25 5-2.46.39-2.44-.27-6.37-3-7.24s-4.9 1.35-4.75 4.01" style="fill:#b97964"/><path d="M150.78 211.55h-.08a5.49 5.49 0 0 1-3.92-5 .25.25 0 0 1 .25-.25.25.25 0 0 1 .25.25 4.9 4.9 0 0 0 3.57 4.51.24.24 0 0 1 .17.31.26.26 0 0 1-.24.18" style="fill:#263238"/><path d="M147 222c3 6.45-4.95 63.22-4.95 63.22l8.85-1.22s3.69-39.76 9-57.66l-9.12-4.34v-3.34ZM127.84 212.55l4.06 9-5.29 3.45-10.25 59-19.58-3.36s7.07-50.91 17.08-63.14l11.4-1.08Z" style="fill:#005c8e"/><path d="M147 222c3 6.45-4.95 63.22-4.95 63.22l8.85-1.22s3.69-39.76 9-57.66l-9.12-4.34v-3.34ZM127.84 212.55l4.06 9-5.29 3.45-10.25 59-19.58-3.36s7.07-50.91 17.08-63.14l11.4-1.08Z" style="fill:#fff;opacity:.6000000000000001;isolation:isolate"/><path d="m131.9 221.54-8.81 2.3v-7l4.74-4.29zM147.03 221.96l3.06 4.82 2.24-4.82-1.55-3.34z" style="fill:#005c8e"/><path d="m131.9 221.54-8.81 2.3v-7l4.74-4.29zM147.03 221.96l3.06 4.82 2.24-4.82-1.55-3.34z" style="fill:#fff;opacity:.7000000000000001;isolation:isolate"/><path d="M167.7 255.17h1.47v1.92h-1.47zM188.61 255.17h1.47v1.92h-1.47zM205.24 241.41h28.48v15.45h-28.48z" style="fill:#263238"/><path d="M205.24 241.41h17.67v15.45h-17.67z" style="fill:#fff;opacity:.2;isolation:isolate"/><path d="M217.73 247.92a4.16 4.16 0 0 0-8.32 0Z" style="fill:#fff"/><path d="m213.13 247.16 1.67-2.07-.79 2.54a.51.51 0 1 1-1-.3.6.6 0 0 1 .12-.17" style="fill:#005c8e"/><path d="M210 252.51h-3a.67.67 0 0 0-.67.67v1.26a.67.67 0 0 0 .67.67h3a.67.67 0 0 0 .67-.67v-1.26a.67.67 0 0 0-.67-.67" style="fill:#263238"/><rect width="3.34" height="2.6" x="206.3" y="252.51" rx=".67" style="fill:#fff;opacity:.1;isolation:isolate"/><path d="M214.88 252.51h-3a.67.67 0 0 0-.67.67v1.26a.67.67 0 0 0 .67.67h3a.67.67 0 0 0 .67-.67v-1.26a.67.67 0 0 0-.67-.67" style="fill:#263238"/><path d="M212.36 253.29h.47v1.04h-.47zM213.93 253.29h.47v1.04h-.47z" style="opacity:.5;isolation:isolate"/><path d="M217.85 252.48a1.07 1.07 0 0 0-.81.39.9.9 0 0 0-.82 1 .91.91 0 0 0 .82 1 1.07 1.07 0 0 0 .81.39 1.38 1.38 0 0 0 0-2.72ZM221 252.48a1.07 1.07 0 0 0-.8.39.9.9 0 0 0-.83 1 .91.91 0 0 0 .83 1 1.07 1.07 0 0 0 .8.39 1.38 1.38 0 0 0 0-2.72Z" style="fill:#263238"/><ellipse cx="217.02" cy="253.84" rx=".83" ry=".98" style="fill:#fff;opacity:.1;isolation:isolate"/><g style="opacity:.1;isolation:isolate"><ellipse cx="220.19" cy="253.84" rx=".83" ry=".98" style="fill:#fff"/></g><path d="M183.89 280.12a17 17 0 0 1-4.77-.73c-14.62-4.25-29-30.13-28.63-39.57.13-3 1.06-5 2.75-6 2.78-1.72 6.54-.08 6.7 0a.4.4 0 0 1 .15.11l3.9 3.89a.5.5 0 0 1-.71.71l-3.82-3.83c-.54-.21-3.57-1.33-5.7 0-1.39.86-2.15 2.62-2.27 5.24-.39 9 14 34.51 27.91 38.56 4.29 1.25 8 .8 11-1.35 6.78-4.87 7.77-16.47 7.91-19.91.11-2.5 3.82-3.86 5.69-3.86h3.76a.5.5 0 0 1 .5.5.5.5 0 0 1-.5.5H204c-1.39 0-4.61 1.1-4.69 2.9-.15 3.55-1.18 15.55-8.33 20.68a11.74 11.74 0 0 1-7.09 2.16" style="fill:#263238"/><path d="m166.35 240.07-1.31 1.17 9.1 10.1.99.45 3.39 3.77.66-.59-3.39-3.76-.35-1.04z" style="fill:#263238"/><path d="m166.35 240.07-1.31 1.17 9.1 10.1.99.45 3.39 3.77.66-.59-3.39-3.76-.35-1.04z" style="fill:#fff;opacity:.4;isolation:isolate"/><path d="m172 245.48-7.82-8.68a.94.94 0 0 0-1.33-.07l-.75.68a.94.94 0 0 0-.07 1.33l7.82 8.68-.22 1.55.07.08 3.94-3.54-.08-.08Z" style="fill:#005c8e"/><path d="m141.89 248.47 11.05-5s3.59-2.57 4.9-3.45 12.14 1.63 12.53 1.76-1.58 7-2 7.65-10-.63-10.55-.84a3.8 3.8 0 0 1-1.11-1l-10.71 4.7Z" style="fill:#b97964"/><path d="M113.86 217.49s6.23 29.15 9.61 32.3 27.53-6.63 27.53-6.63l3.69 9.6s-20.94 10.52-31.21 9-15.77-18.9-16.07-26.64c-.6-15.12 6.45-17.63 6.45-17.63" style="fill:#005c8e"/><path d="M113.86 217.49s6.23 29.15 9.61 32.3 27.53-6.63 27.53-6.63l3.69 9.6s-20.94 10.52-31.21 9-15.77-18.9-16.07-26.64c-.6-15.12 6.45-17.63 6.45-17.63" style="fill:#fff;opacity:.7000000000000001;isolation:isolate"/><path d="M166.11 254.77h26.31v.79h-26.31zM169.55 416.93h6.13l1-153.24h-8.13z" style="fill:#005c8e"/><path d="m168.55 263.93.16 24.73.84 128.27h6.13l.84-128.27.16-24.73z" style="fill:#fff;opacity:.1;isolation:isolate"/><path d="m168.55 263.93.16 25h7.81l.16-25z" style="opacity:.2;isolation:isolate"/><path d="M104.51 416.93h6.13l11.01-153.24h-8.13z" style="fill:#005c8e"/><path d="M104.51 416.93h6.13l10.47-145.63.54-7.37h-8.13l-.44 7.37z" style="fill:#fff;opacity:.1;isolation:isolate"/><path d="M113.08 270.93h8.03l.54-7h-8.13z" style="opacity:.2;isolation:isolate"/><path d="M234.59 416.93h6.13l-9-153.24h-8.13z" style="fill:#005c8e"/><path d="m223.59 263.93.54 7.37 10.47 145.63h6.12l-8.56-145.63-.44-7.37z" style="fill:#fff;opacity:.1;isolation:isolate"/><path d="M231.72 263.93h-8.13l.54 7h8.03z" style="opacity:.2;isolation:isolate"/><path d="M109.24 259.85H236a2.16 2.16 0 0 1 2.16 2.16v5.51H107.08V262a2.16 2.16 0 0 1 2.16-2.15" style="fill:#005c8e" transform="rotate(180 172.615 263.685)"/><path d="M109.24 259.85H236a2.16 2.16 0 0 1 2.16 2.16v5.51H107.08V262a2.16 2.16 0 0 1 2.16-2.15" style="fill:#fff;opacity:.2;isolation:isolate" transform="rotate(180 172.615 263.685)"/><path d="M107.08 259.85h131.08v3.84H107.08z" style="opacity:.2;isolation:isolate" transform="rotate(180 172.615 261.765)"/><path d="M103.28 260.85H242a2.16 2.16 0 0 0 2.16-2.16 2.17 2.17 0 0 0-2.16-2.17H103.28a2.17 2.17 0 0 0-2.16 2.17 2.16 2.16 0 0 0 2.16 2.16" style="fill:#005c8e"/><path d="M103.28 260.85H242a2.16 2.16 0 0 0 2.16-2.16 2.17 2.17 0 0 0-2.16-2.17H103.28a2.17 2.17 0 0 0-2.16 2.17 2.16 2.16 0 0 0 2.16 2.16" style="fill:#fff;opacity:.2;isolation:isolate"/></svg>