<svg xmlns="http://www.w3.org/2000/svg" viewBox="0 0 462.08 460.55"><path d="M327.45 437c35.72-7.86 68.13-27.12 85.55-57 28-48 1-71 13-114 6.7-24 27.16-35.11 40.88-54.1C525.6 130.64 433.48 3.79 339.8 16.31a88.9 88.9 0 0 0-35 12.07c-12.14 7.44-23.4 18.66-38.29 20-16.09 1.42-32.33-7-46.46-13.58-35.58-16.53-83.87-25.24-121.83-11C69.87 34.36 57.68 59.76 56 88.6s10.41 60.21 5 88.4c-5.54 28.82-27.58 52.29-34.71 81.1A104.7 104.7 0 0 0 61.5 364c34.88 28.59 79.11 20.39 119.17 35.12 23 8.46 38.94 27.8 63.15 35.19 26.91 8.24 56.18 8.69 83.63 2.69" style="fill:#008cd7" transform="translate(-23.24 -15.45)"/><path d="M327.45 437c35.72-7.86 68.13-27.12 85.55-57 28-48 1-71 13-114 6.7-24 27.16-35.11 40.88-54.1C525.6 130.64 433.48 3.79 339.8 16.31a88.9 88.9 0 0 0-35 12.07c-12.14 7.44-23.4 18.66-38.29 20-16.09 1.42-32.33-7-46.46-13.58-35.58-16.53-83.87-25.24-121.83-11C69.87 34.36 57.68 59.76 56 88.6s10.41 60.21 5 88.4c-5.54 28.82-27.58 52.29-34.71 81.1A104.7 104.7 0 0 0 61.5 364c34.88 28.59 79.11 20.39 119.17 35.12 23 8.46 38.94 27.8 63.15 35.19 26.91 8.24 56.18 8.69 83.63 2.69" style="fill:#fff;opacity:.7000000000000001" transform="translate(-23.24 -15.45)"/><ellipse cx="230.26" cy="451.55" rx="137.5" ry="9" style="fill:#263238"/><path d="M117 404.49c1.92.83 6.61.73 6.61.73s-1-3.07-1.09-3.26c-1-2.15-4.28-5.7-6.93-5.34a3.16 3.16 0 0 0-2.54 4c.43 1.79 2.31 3.15 3.95 3.87" style="fill:#263238" transform="translate(-23.24 -15.45)"/><path d="M118.61 418.06c2 .29 6.17-.92 6.51-1a56 56 0 0 0 2.53 7c.58 1.33 1.2 2.66 1.84 4-.38-.55-.73-1-.79-1.12-1.56-1.8-5.63-4.37-8.09-3.32a3.16 3.16 0 0 0-1.4 4.49c.91 1.65 3.08 2.47 4.85 2.72s5.37-.7 6.32-1l.74 1.51c1.22 2.42 2.43 4.82 3.56 7.21.39.84.75 1.69 1.12 2.53-.34-.5-.63-.91-.68-1-1.56-1.8-5.64-4.37-8.1-3.33a3.17 3.17 0 0 0-1.4 4.49c.91 1.66 3.09 2.47 4.85 2.73s5-.61 6.15-.92c.34.87.69 1.75 1 2.61.18.6.41 1.15.56 1.76s.33 1.19.5 1.78c.27 1.14.56 2.32.8 3.43.17.78.32 1.53.48 2.28-.39-.85-1.18-2.48-1.26-2.61-1.27-2-4.91-5.18-7.49-4.52a3.17 3.17 0 0 0-2.07 4.23c.65 1.77 2.67 2.91 4.38 3.43 1.87.57 6 0 6.54 0 .25 1.24.48 2.45.68 3.59.45 2.52.78 4.79 1 6.7h1.75c-.31-2-.71-4.34-1.23-7-.25-1.26-.54-2.6-.85-4a34 34 0 0 0 3.65-1.72c1.37 1.48 4.87 3.22 5.32 3.44-.48 1.17-.95 2.3-1.42 3.37-1 2.23-1.88 4.2-2.7 5.88h1.9c.69-1.55 1.46-3.31 2.26-5.27.49-1.18 1-2.46 1.49-3.78.5.1 4.61.94 6.53.51 1.73-.4 3.84-1.38 4.61-3.1a3.15 3.15 0 0 0-1.74-4.36c-2.53-.85-6.39 2-7.81 3.94-.08.11-.85 1.44-1.32 2.29.2-.54.4-1.06.6-1.62.4-1.1.77-2.21 1.18-3.41.17-.58.35-1.17.53-1.76s.31-1.23.47-1.85c.35-1.45.62-2.93.87-4.43 1 .35 4.41 1.55 6.2 1.43s4-.78 5-2.36a3.16 3.16 0 0 0-1.06-4.58c-2.38-1.23-6.63 1-8.32 2.71-.11.11-1.18 1.45-1.76 2.2.14-.9.29-1.8.4-2.72.33-2.65.58-5.34.84-8 .08-.82.17-1.64.26-2.46.34.13 4.4 1.64 6.4 1.5 1.78-.12 4-.77 5-2.35a3.16 3.16 0 0 0-1.07-4.58c-2.37-1.23-6.62 1-8.31 2.71-.13.13-1.68 2.06-2 2.57.19-1.8.4-3.6.68-5.36a54 54 0 0 1 1.54-7c.15.06 4.39 1.66 6.44 1.52 1.77-.13 4-.78 5-2.36a3.16 3.16 0 0 0-1.06-4.58c-2.38-1.23-6.63 1-8.32 2.71-.13.13-1.8 2.22-2.07 2.62 0-.14.07-.28.11-.42a40.6 40.6 0 0 1 2.79-6.67c.61-1.19 1.25-2.29 1.91-3.35.76.38 4.24 2.07 6.1 2.15s4.06-.33 5.26-1.79a3.16 3.16 0 0 0-.55-4.67c-2.23-1.48-6.71.3-8.57 1.78-.1.08-1 1-1.72 1.71.31-.47.61-1 .91-1.41 1.12-1.68 2.24-3.16 3.25-4.45.58-.73 1.12-1.38 1.63-2 .93 0 4.71-.13 6.36-.9s3.46-2.17 3.85-4a3.17 3.17 0 0 0-2.64-3.89c-2.66-.28-5.81 3.36-6.78 5.53-.09.19-1.06 3.29-1 3.29h.06c-.51.57-1 1.18-1.6 1.87-1 1.28-2.21 2.73-3.36 4.39a55 55 0 0 0-3.48 5.55 40.4 40.4 0 0 0-3 6.69s0 .06 0 .09c0-.78 0-3-.05-3.14-.3-2.37-2.28-6.75-4.91-7.24a3.15 3.15 0 0 0-3.64 3c-.16 1.88 1.2 3.76 2.53 5 1.5 1.34 5.66 2.63 6 2.73a57 57 0 0 0-1.76 7.26c-.25 1.43-.46 2.87-.66 4.33v-1.37c-.31-2.37-2.29-6.75-4.92-7.24a3.15 3.15 0 0 0-3.64 3c-.16 1.88 1.21 3.76 2.53 4.95s4.87 2.38 5.81 2.68l-.21 1.67c-.32 2.68-.63 5.35-1 8-.13.92-.3 1.82-.46 2.73v-1.19c-.3-2.36-2.28-6.75-4.91-7.24a3.17 3.17 0 0 0-3.64 3c-.16 1.87 1.2 3.76 2.53 4.94s4.53 2.27 5.64 2.63c-.19.92-.39 1.84-.62 2.72-.17.6-.29 1.19-.5 1.78s-.38 1.18-.56 1.76c-.4 1.1-.81 2.24-1.23 3.31-.28.74-.57 1.44-.86 2.15.15-.91.39-2.71.4-2.87a12.3 12.3 0 0 0-1.65-6 4 4 0 0 0 0-.7 3.16 3.16 0 0 0-3.87-2.68c-2.58.68-4.21 5.21-4.33 7.59 0 .14.08 1.68.15 2.64-.13-.56-.25-1.1-.39-1.68-.27-1.14-.57-2.27-.89-3.49l-.54-1.77c-.16-.59-.41-1.2-.62-1.8-.51-1.4-1.1-2.79-1.72-4.17 1-.24 4.54-1.14 6-2.23s2.84-3.04 2.84-4.9a3.16 3.16 0 0 0-3.41-3.24c-2.65.29-5 4.52-5.44 6.85 0 .15-.19 1.86-.25 2.81-.38-.83-.76-1.66-1.17-2.49-1.19-2.39-2.46-4.77-3.72-7.15-.39-.73-.77-1.47-1.15-2.2.36-.08 4.58-1.06 6.17-2.28 1.42-1.08 2.92-2.85 2.9-4.74a3.16 3.16 0 0 0-3.41-3.23c-2.65.28-5 4.51-5.44 6.85 0 .17-.26 2.64-.29 3.27-.83-1.61-1.65-3.22-2.39-4.84a56.5 56.5 0 0 1-2.61-6.73c.17 0 4.58-1 6.21-2.29 1.41-1.09 2.91-2.86 2.9-4.74a3.17 3.17 0 0 0-3.42-3.24c-2.65.29-5 4.52-5.43 6.85 0 .19-.28 2.84-.29 3.32 0-.13-.1-.26-.14-.4a40.6 40.6 0 0 1-1.35-7.1c-.15-1.33-.22-2.6-.25-3.85.84-.1 4.68-.61 6.27-1.57s3.2-2.52 3.4-4.4a3.16 3.16 0 0 0-3-3.59c-2.67 0-5.42 3.95-6.16 6.21 0 .13-.31 1.43-.49 2.38v-1.68c0-2 .13-3.87.25-5.51.08-.93.17-1.77.27-2.55.77-.53 3.86-2.71 4.81-4.27s1.68-3.71 1-5.47a3.16 3.16 0 0 0-4.35-1.78c-2.37 1.22-3 6-2.6 8.35 0 .2.93 3.32 1 3.29-.1.75-.2 1.56-.3 2.45-.16 1.63-.33 3.48-.38 5.51a57 57 0 0 0 .16 6.55 41.6 41.6 0 0 0 1.21 7.22v.09c-.42-.66-1.66-2.47-1.77-2.6-1.56-1.8-5.63-4.37-8.09-3.32a3.16 3.16 0 0 0-1.4 4.49c.83 1.63 3 2.43 4.76 2.69" style="fill:#263238" transform="translate(-23.24 -15.45)"/><path d="M164.4 405.52s.85-3.12.88-3.32c.33-2.36-.42-7.12-2.83-8.28a3.16 3.16 0 0 0-4.3 1.9c-.64 1.77.17 3.95 1.14 5.44 1.14 1.74 5.11 4.25 5.11 4.26M349.71 412.63c1.67.73 5.73.63 5.73.63s-.87-2.66-.95-2.82c-.89-1.86-3.71-4.94-6-4.63a2.73 2.73 0 0 0-2.2 3.43c.38 1.59 2.01 2.76 3.42 3.39" style="fill:#263238" transform="translate(-23.24 -15.45)"/><path d="M351.12 424.4c1.72.25 5.35-.8 5.63-.89a50 50 0 0 0 2.2 6.09c.5 1.16 1 2.3 1.6 3.45-.34-.49-.63-.92-.68-1-1.36-1.57-4.89-3.79-7-2.89a2.74 2.74 0 0 0-1.21 3.89c.78 1.44 2.67 2.15 4.2 2.37s4.66-.61 5.48-.84l.65 1.31c1 2.09 2.1 4.17 3.08 6.25.34.73.65 1.46 1 2.19l-.59-.84c-1.36-1.56-4.89-3.79-7-2.89a2.74 2.74 0 0 0-1.21 3.9c.78 1.43 2.67 2.14 4.2 2.36s4.35-.53 5.33-.8c.3.76.6 1.52.85 2.27.17.51.36 1 .5 1.52s.28 1 .43 1.54c.23 1 .48 2 .69 3 .15.68.28 1.32.41 2-.33-.73-1-2.15-1.08-2.26-1.1-1.75-4.26-4.48-6.5-3.91a2.73 2.73 0 0 0-1.79 3.66c.56 1.54 2.31 2.52 3.79 3 1.63.5 5.23.05 5.68 0 .21 1.07.41 2.12.58 3.11.39 2.19.68 4.15.9 5.81h1.52c-.27-1.71-.61-3.76-1.07-6.06-.21-1.09-.46-2.26-.73-3.45a31 31 0 0 0 3.16-1.49 20.2 20.2 0 0 0 4.62 3c-.42 1-.83 2-1.23 2.92-.84 1.93-1.64 3.65-2.34 5.1h1.64c.6-1.34 1.27-2.87 2-4.57.43-1 .86-2.14 1.29-3.28.44.09 4 .82 5.66.44 1.51-.34 3.33-1.19 4-2.68a2.75 2.75 0 0 0-1.52-3.79c-2.19-.73-5.54 1.76-6.77 3.42-.07.1-.74 1.25-1.15 2a67.596 67.596 0 0 0 1.53-4.36c.15-.51.3-1 .46-1.53s.27-1.07.41-1.61c.3-1.25.54-2.53.75-3.83.84.3 3.83 1.34 5.37 1.23s3.48-.67 4.37-2a2.74 2.74 0 0 0-.92-4c-2.06-1.06-5.75.89-7.21 2.35-.1.09-1 1.26-1.53 1.91.12-.79.25-1.57.35-2.36.28-2.3.5-4.63.73-7 .07-.71.14-1.42.22-2.13.3.11 3.82 1.43 5.55 1.3 1.54-.1 3.47-.67 4.37-2a2.74 2.74 0 0 0-.93-4c-2-1.06-5.74.89-7.21 2.35-.11.11-1.45 1.79-1.77 2.23.17-1.56.35-3.12.59-4.64a47 47 0 0 1 1.33-6.12c.14.05 3.81 1.44 5.58 1.31 1.54-.1 3.48-.67 4.37-2a2.74 2.74 0 0 0-.92-4c-2.06-1.06-5.75.89-7.21 2.35-.12.12-1.56 1.92-1.8 2.27 0-.12.06-.24.09-.36a35.6 35.6 0 0 1 2.43-5.78c.52-1 1.08-2 1.65-2.91.66.33 3.68 1.8 5.29 1.86s3.52-.28 4.56-1.55a2.75 2.75 0 0 0-.48-4.05c-1.93-1.28-5.81.26-7.43 1.55-.08.07-.9.88-1.48 1.48.26-.41.52-.84.78-1.22 1-1.46 2-2.74 2.82-3.86.5-.64 1-1.2 1.41-1.72.81 0 4.09-.12 5.52-.79s3-1.88 3.34-3.48a2.75 2.75 0 0 0-2.3-3.37c-2.3-.25-5 2.9-5.87 4.79-.08.17-.92 2.85-.88 2.85h.05c-.43.49-.9 1-1.39 1.62-.9 1.11-1.9 2.37-2.91 3.81a48 48 0 0 0-3 4.81 36.3 36.3 0 0 0-2.58 5.81.3.3 0 0 1 0 .07v-2.72c-.27-2-2-5.86-4.27-6.28a2.74 2.74 0 0 0-3.15 2.58c-.14 1.63 1 3.26 2.19 4.29 1.3 1.16 4.91 2.28 5.2 2.37a48 48 0 0 0-1.53 6.29c-.22 1.24-.4 2.49-.57 3.75v-1.18c-.27-2.05-2-5.86-4.26-6.28a2.74 2.74 0 0 0-3.16 2.58c-.14 1.63 1.05 3.26 2.2 4.28s4.22 2.07 5 2.33l-.18 1.45c-.28 2.32-.55 4.64-.88 6.91-.11.8-.26 1.58-.4 2.36v-1c-.26-2-2-5.86-4.26-6.28a2.74 2.74 0 0 0-3.16 2.58c-.13 1.63 1.05 3.26 2.2 4.28a17.4 17.4 0 0 0 4.89 2.28c-.17.8-.34 1.6-.54 2.36-.14.52-.25 1-.43 1.55s-.33 1-.49 1.52c-.35.95-.7 1.94-1.06 2.87-.25.64-.5 1.25-.75 1.87.13-.8.34-2.36.35-2.49a10.63 10.63 0 0 0-1.43-5.17 4 4 0 0 0 0-.61 2.74 2.74 0 0 0-3.35-2.32c-2.24.59-3.66 4.52-3.76 6.58 0 .12.07 1.45.14 2.29-.12-.49-.22-1-.34-1.46q-.36-1.5-.78-3c-.15-.5-.31-1-.46-1.53s-.36-1-.54-1.56c-.45-1.21-.95-2.42-1.49-3.62.87-.2 3.93-1 5.16-1.93s2.52-2.48 2.51-4.11a2.74 2.74 0 0 0-3-2.81c-2.3.25-4.3 3.92-4.71 5.94 0 .13-.17 1.62-.22 2.43-.33-.71-.66-1.44-1-2.15-1-2.07-2.14-4.14-3.23-6.2-.34-.64-.66-1.27-1-1.9.3-.08 4-.92 5.35-2 1.22-.94 2.52-2.48 2.51-4.11a2.74 2.74 0 0 0-3-2.81c-2.3.25-4.3 3.92-4.72 5.94 0 .15-.22 2.29-.24 2.84-.73-1.4-1.44-2.79-2.08-4.2a48 48 0 0 1-2.26-5.83c.14 0 4-.91 5.38-2 1.23-.94 2.52-2.48 2.51-4.11a2.74 2.74 0 0 0-3-2.81c-2.3.25-4.3 3.92-4.71 5.94 0 .16-.24 2.47-.25 2.88 0-.11-.09-.23-.12-.34a35.4 35.4 0 0 1-1.17-6.16c-.13-1.15-.19-2.26-.22-3.34.73-.09 4.06-.53 5.43-1.36s2.79-2.19 2.95-3.82a2.73 2.73 0 0 0-2.63-3.11c-2.32 0-4.7 3.42-5.34 5.39 0 .11-.27 1.23-.42 2.05v-1.45c0-1.75.12-3.35.23-4.77.06-.81.14-1.54.22-2.22.67-.46 3.35-2.35 4.17-3.7s1.47-3.22.87-4.74a2.75 2.75 0 0 0-3.78-1.55c-2.05 1.06-2.59 5.2-2.25 7.24 0 .18.8 2.88.84 2.86-.09.65-.18 1.35-.26 2.12-.14 1.42-.29 3-.33 4.78a48 48 0 0 0 .13 5.68 35 35 0 0 0 1.06 6.27.3.3 0 0 0 0 .07 89 89 0 0 0-1.53-2.25c-1.36-1.56-4.89-3.79-7-2.89a2.75 2.75 0 0 0-1.21 3.9c.69 1.3 2.58 2.01 4.11 2.23" style="fill:#263238" transform="translate(-23.24 -15.45)"/><path d="M390.82 413.52s.73-2.7.76-2.87c.28-2-.37-6.18-2.45-7.18a2.74 2.74 0 0 0-3.73 1.65c-.56 1.53.15 3.42 1 4.71.97 1.53 4.41 3.69 4.42 3.69M304.19 422.81a14.4 14.4 0 0 0 4.19.46s-.64-1.95-.69-2.06c-.65-1.37-2.72-3.62-4.4-3.4a2 2 0 0 0-1.61 2.52 4.24 4.24 0 0 0 2.51 2.48" style="fill:#263238" transform="translate(-23.24 -15.45)"/><path d="M305.22 431.42a14 14 0 0 0 4.12-.65 36 36 0 0 0 1.61 4.46q.56 1.26 1.17 2.52c-.24-.36-.46-.67-.5-.71-1-1.15-3.57-2.78-5.13-2.11a2 2 0 0 0-.89 2.84 4.16 4.16 0 0 0 3.07 1.73 13.1 13.1 0 0 0 4-.61l.48 1c.77 1.53 1.54 3 2.25 4.57.25.53.48 1.07.71 1.61-.21-.32-.4-.58-.43-.62-1-1.14-3.58-2.77-5.13-2.11a2 2 0 0 0-.89 2.85 4.19 4.19 0 0 0 3.07 1.73 12.6 12.6 0 0 0 3.9-.59c.22.56.44 1.11.63 1.66.12.38.26.73.36 1.12s.21.75.31 1.13c.18.72.36 1.47.51 2.18.11.49.21 1 .3 1.44-.24-.54-.74-1.58-.79-1.66-.81-1.28-3.12-3.28-4.76-2.86a2 2 0 0 0-1.31 2.68 4.2 4.2 0 0 0 2.78 2.17 13.7 13.7 0 0 0 4.15 0c.16.79.31 1.56.43 2.28.28 1.6.5 3 .66 4.26h1.1c-.19-1.26-.45-2.76-.78-4.44-.16-.8-.34-1.65-.54-2.53a22 22 0 0 0 2.32-1.09 14.7 14.7 0 0 0 3.37 2.18c-.3.74-.6 1.47-.89 2.14-.62 1.41-1.2 2.67-1.72 3.74H324c.45-1 .93-2.11 1.44-3.35.31-.75.63-1.56.94-2.4a13.6 13.6 0 0 0 4.15.32 4.21 4.21 0 0 0 2.93-2 2 2 0 0 0-1.11-2.77c-1.61-.54-4.06 1.28-5 2.5-.05.07-.54.91-.84 1.45.13-.34.26-.67.39-1 .25-.69.49-1.4.74-2.16.11-.37.23-.74.34-1.12s.2-.78.3-1.17c.22-.92.4-1.86.55-2.81a13.3 13.3 0 0 0 3.93.9 4.18 4.18 0 0 0 3.2-1.49 2 2 0 0 0-.68-2.91c-1.5-.77-4.2.66-5.27 1.72-.07.07-.75.92-1.12 1.4.09-.57.18-1.14.25-1.73.21-1.68.37-3.38.54-5.08.05-.53.1-1.05.16-1.56a14 14 0 0 0 4.06.95 4.23 4.23 0 0 0 3.2-1.5 2 2 0 0 0-.68-2.9c-1.5-.78-4.2.65-5.27 1.72-.09.08-1.07 1.31-1.3 1.63.12-1.14.25-2.28.43-3.4a36 36 0 0 1 1-4.48 14 14 0 0 0 4.09 1 4.19 4.19 0 0 0 3.19-1.5 2 2 0 0 0-.67-2.91c-1.51-.77-4.21.66-5.28 1.73-.08.08-1.14 1.4-1.31 1.65 0-.08 0-.17.07-.26a25 25 0 0 1 1.77-4.23c.38-.75.79-1.45 1.21-2.12a13.6 13.6 0 0 0 3.87 1.36 4.23 4.23 0 0 0 3.34-1.14 2 2 0 0 0-.35-3c-1.42-.94-4.26.19-5.44 1.13-.06.05-.66.64-1.09 1.08.19-.3.39-.61.58-.89.71-1.07 1.42-2 2.06-2.83l1-1.26a13.4 13.4 0 0 0 4-.57 4.16 4.16 0 0 0 2.44-2.55 2 2 0 0 0-1.67-2.47c-1.69-.18-3.69 2.13-4.31 3.51 0 .12-.67 2.09-.63 2.09-.32.37-.66.76-1 1.19-.65.81-1.39 1.73-2.13 2.79a38 38 0 0 0-2.21 3.52A26.6 26.6 0 0 0 331 430v.05-2c-.2-1.5-1.46-4.28-3.12-4.59a2 2 0 0 0-2.32 1.88 4.21 4.21 0 0 0 1.61 3.14 14.1 14.1 0 0 0 3.8 1.74 35 35 0 0 0-1.11 4.6c-.16.91-.3 1.82-.42 2.75v-.87c-.2-1.5-1.46-4.29-3.12-4.59A2 2 0 0 0 324 434a4.16 4.16 0 0 0 1.61 3.14 13.4 13.4 0 0 0 3.68 1.7c0 .35-.09.71-.13 1.06-.21 1.7-.4 3.4-.65 5.06-.08.58-.19 1.16-.29 1.73v-.75c-.19-1.5-1.45-4.29-3.12-4.6a2 2 0 0 0-2.31 1.89 4.2 4.2 0 0 0 1.61 3.14 12.8 12.8 0 0 0 3.58 1.66c-.13.59-.25 1.17-.4 1.73-.1.38-.18.76-.31 1.13l-.36 1.12c-.26.7-.51 1.42-.78 2.1-.18.47-.36.91-.54 1.36.09-.58.24-1.72.25-1.82a7.8 7.8 0 0 0-1-3.78 1.7 1.7 0 0 0 0-.45 2 2 0 0 0-2.45-1.7c-1.63.44-2.67 3.31-2.75 4.82 0 .09.05 1.06.1 1.68a73.476 73.476 0 0 0-.82-3.29c-.11-.36-.22-.74-.34-1.12s-.26-.76-.39-1.14c-.32-.89-.7-1.77-1.09-2.65a13.2 13.2 0 0 0 3.78-1.41 4.24 4.24 0 0 0 1.84-3 2 2 0 0 0-2.17-2.05c-1.68.18-3.15 2.86-3.45 4.34 0 .1-.12 1.18-.16 1.78-.24-.52-.48-1.05-.74-1.58-.75-1.51-1.56-3-2.36-4.53l-.73-1.39a14.2 14.2 0 0 0 3.91-1.45 4.19 4.19 0 0 0 1.84-3 2 2 0 0 0-2.16-2.05c-1.69.18-3.15 2.86-3.45 4.34 0 .12-.17 1.68-.18 2.08-.53-1-1.05-2-1.52-3.07a34 34 0 0 1-1.66-4.27 14.1 14.1 0 0 0 3.94-1.46 4.16 4.16 0 0 0 1.84-3 2 2 0 0 0-2.17-2.06c-1.68.19-3.14 2.87-3.45 4.35 0 .12-.17 1.8-.18 2.11a3 3 0 0 0-.09-.26 26 26 0 0 1-.85-4.51c-.1-.84-.14-1.65-.17-2.43a13.6 13.6 0 0 0 4-1 4.19 4.19 0 0 0 2.16-2.79 2 2 0 0 0-1.93-2.28c-1.69 0-3.44 2.5-3.9 3.94 0 .08-.2.9-.31 1.51v-1.07a45 45 0 0 1 .33-5.11A13.4 13.4 0 0 0 312 414a4.19 4.19 0 0 0 .63-3.47 2 2 0 0 0-2.76-1.14c-1.5.78-1.9 3.81-1.65 5.3 0 .13.59 2.11.62 2.09-.06.48-.13 1-.19 1.56-.1 1-.21 2.21-.24 3.5a37 37 0 0 0 .1 4.15 26.7 26.7 0 0 0 .77 4.59s0 0 0 .05c-.27-.42-1.05-1.57-1.12-1.65-1-1.14-3.58-2.77-5.14-2.11a2 2 0 0 0-.89 2.85 4.19 4.19 0 0 0 3.09 1.7" style="fill:#263238" transform="translate(-23.24 -15.45)"/><path d="M334.27 423.46s.54-2 .56-2.11c.21-1.49-.27-4.51-1.8-5.25a2 2 0 0 0-2.72 1.21 4.2 4.2 0 0 0 .72 3.45 14.5 14.5 0 0 0 3.24 2.7" style="fill:#263238" transform="translate(-23.24 -15.45)"/><path d="M389.41 73.74a16.35 16.35 0 0 0 25.78 17l6.33 6.06a3.91 3.91 0 0 0 1.06 3.73L436.33 114a3.91 3.91 0 1 0 5.45-5.62L428 94.9a3.92 3.92 0 0 0-3.81-.94L418 88a16.1 16.1 0 0 0 3.14-6.26 16.36 16.36 0 1 0-31.73-8ZM418.3 81a13.43 13.43 0 1 1-9.74-16.3A13.44 13.44 0 0 1 418.3 81ZM87 271.91A12.29 12.29 0 0 0 84.66 295l-1.84 6.33a2.93 2.93 0 0 0-2.12 2l-4.25 13.87a3 3 0 0 0 2 3.67 3 3 0 0 0 3.67-2L86.34 305a2.91 2.91 0 0 0-.7-2.87l1.82-6.22a12.3 12.3 0 1 0-.42-24Zm5.18 21.8a10.1 10.1 0 1 1 7.49-12.16 10.11 10.11 0 0 1-7.45 12.16ZM420.4 179.75h-29a7.1 7.1 0 0 0-7.1 7.1v16.05a7.1 7.1 0 0 0 7.1 7.1h20.2l-1 10 9.4-10h.4a7.1 7.1 0 0 0 7.1-7.1v-16.05a7.1 7.1 0 0 0-7.1-7.1ZM89.1 217.75h19.65a4.81 4.81 0 0 1 4.81 4.81v10.87a4.81 4.81 0 0 1-4.81 4.81H95.07l.71 6.76-6.41-6.76h-.27a4.81 4.81 0 0 1-4.81-4.81v-10.87a4.81 4.81 0 0 1 4.81-4.81ZM234.35 34.51H254a4.81 4.81 0 0 1 4.81 4.81v10.87A4.81 4.81 0 0 1 254 55h-13.68l.71 6.76-6.41-6.76h-.27a4.81 4.81 0 0 1-4.81-4.81V39.32a4.81 4.81 0 0 1 4.81-4.81Z" style="fill:none;stroke:#263238;stroke-miterlimit:10" transform="translate(-23.24 -15.45)"/><path d="m184.41 41.14 48.08 134.36L335.74 43.26M376.75 128.83 232.49 175.5l96.88 108.9M121.47 280.16 232.49 175.5 81.16 150.04" style="fill:none;stroke:#263238;stroke-miterlimit:10"/><circle cx="399.37" cy="144.68" r="14.62" style="fill:#263238;stroke:#263238;stroke-miterlimit:10;stroke-width:.5px" transform="rotate(-62.37 375.01 156.153)"/><path d="M404.22 143.69h-9.53a3.37 3.37 0 0 0-3.37 3.37v8a13.09 13.09 0 0 0 16.27-.13v-7.87a3.37 3.37 0 0 0-3.37-3.37ZM399.29 142.22a4.85 4.85 0 1 0-4.85-4.85 4.85 4.85 0 0 0 4.85 4.85Z" style="fill:#008cd7;stroke:#263238;stroke-miterlimit:10" transform="translate(-23.24 -15.45)"/><circle cx="354.11" cy="294.67" r="14.62" style="fill:#263238;stroke:#263238;stroke-miterlimit:10;stroke-width:.5px" transform="rotate(-67.29 330.865 304.41)"/><path d="M359 293.69h-9.53a3.36 3.36 0 0 0-3.37 3.36v8a13.09 13.09 0 0 0 16.27-.13v-7.87a3.36 3.36 0 0 0-3.37-3.36ZM354 292.21a4.85 4.85 0 1 0-4.85-4.85 4.85 4.85 0 0 0 4.85 4.85Z" style="fill:#008cd7;stroke:#263238;stroke-miterlimit:10" transform="translate(-23.24 -15.45)"/><circle cx="183.78" cy="40.2" r="10.38" style="fill:#263238;stroke:#263238;stroke-miterlimit:10;stroke-width:.5px"/><path d="M210.46 55h-6.76a2.39 2.39 0 0 0-2.39 2.39V63a9.31 9.31 0 0 0 11.54-.09v-5.57a2.39 2.39 0 0 0-2.39-2.34ZM207 53.9a3.44 3.44 0 1 0-3.44-3.44A3.44 3.44 0 0 0 207 53.9Z" style="fill:#008cd7;stroke:#263238;stroke-miterlimit:10" transform="translate(-23.24 -15.45)"/><circle cx="143.12" cy="293.91" r="10.38" style="fill:#263238;stroke:#263238;stroke-miterlimit:10;stroke-width:.5px" transform="rotate(-67.35 119.907 303.628)"/><path d="M146.56 293.21h-6.76a2.39 2.39 0 0 0-2.4 2.4v5.67a9.28 9.28 0 0 0 11.55-.09v-5.58a2.39 2.39 0 0 0-2.39-2.4ZM143.06 292.16a3.44 3.44 0 1 0-3.44-3.44 3.44 3.44 0 0 0 3.44 3.44Z" style="fill:#008cd7;stroke:#263238;stroke-miterlimit:10" transform="translate(-23.24 -15.45)"/><circle cx="358.8" cy="54.89" r="10.38" style="fill:#263238;stroke:#263238;stroke-miterlimit:10;stroke-width:.5px" transform="rotate(-68.64 335.855 64.197)"/><path d="M362.25 54.19h-6.77a2.39 2.39 0 0 0-2.39 2.39v5.68a9.32 9.32 0 0 0 11.55-.09v-5.59a2.39 2.39 0 0 0-2.39-2.39ZM358.75 53.14a3.44 3.44 0 1 0-3.44-3.44 3.44 3.44 0 0 0 3.44 3.44Z" style="fill:#008cd7;stroke:#263238;stroke-miterlimit:10" transform="translate(-23.24 -15.45)"/><circle cx="103.13" cy="163" r="18.95" style="fill:#263238;stroke:#263238;stroke-miterlimit:10;stroke-width:.5px" transform="rotate(-67.12 79.868 172.801)"/><path d="M109.41 161.73H97.06a4.37 4.37 0 0 0-4.37 4.36v10.36a17 17 0 0 0 21.08-.16v-10.2a4.36 4.36 0 0 0-4.36-4.36ZM103 159.81a6.28 6.28 0 1 0-6.28-6.28 6.28 6.28 0 0 0 6.28 6.28Z" style="fill:#008cd7;stroke:#263238;stroke-miterlimit:10" transform="translate(-23.24 -15.45)"/><path d="M164.77 87.64v-.18A13.64 13.64 0 0 0 155.52 76a13.05 13.05 0 0 0-7.78-.19 15.7 15.7 0 0 0 .57-5.92 15.76 15.76 0 0 0-31.44.85h-.69a15.77 15.77 0 0 0-15.77 15.77 15.6 15.6 0 0 0 .56 4.18 8.74 8.74 0 0 0 8.45 6.31H156a8.75 8.75 0 0 0 8.77-9.36ZM404 247.71a.4.4 0 0 1 0-.1 7.37 7.37 0 0 0-5-6.2 7 7 0 0 0-4.2-.1 8.5 8.5 0 0 0 .32-3.2 8.51 8.51 0 0 0-17 .46h-.37a8.52 8.52 0 0 0-8.51 8.52 8.8 8.8 0 0 0 .3 2.25 4.72 4.72 0 0 0 4.56 3.42h25.14a4.72 4.72 0 0 0 4.76-5.05ZM182.9 324.77v-.09a7.36 7.36 0 0 0-5-6.2 7 7 0 0 0-4.2-.1 8.5 8.5 0 0 0 .31-3.2 8.6 8.6 0 0 0-8.27-7.71 8.5 8.5 0 0 0-8.7 8.17h-.37a8.51 8.51 0 0 0-8.52 8.52 8.4 8.4 0 0 0 .31 2.25 4.7 4.7 0 0 0 4.56 3.42h25.13a4.72 4.72 0 0 0 4.75-5.06ZM326 64.29a.3.3 0 0 0 0-.09 7.34 7.34 0 0 0-5-6.2 7 7 0 0 0-4.2-.11 8.2 8.2 0 0 0 .31-3.19 8.51 8.51 0 0 0-17 .46h-.37a8.53 8.53 0 0 0-8.21 10.77 4.72 4.72 0 0 0 4.56 3.42h25.14a4.71 4.71 0 0 0 4.77-5.06Z" style="fill:none;stroke:#263238;stroke-miterlimit:10" transform="translate(-23.24 -15.45)"/><circle cx="255.05" cy="188.21" r="108.67" style="fill:#fff;stroke:#263238;stroke-miterlimit:10" transform="rotate(-45 224.79 208.54)"/><path d="m251.14 137.91 10.32 4.64 2.83 4.64 4.65 1.81.51 4.9-1.8 2.83-3.61.78-7.74-3.1v-1l4.38-1.81-1.54-5.41-7-2.58-3.09-4.13Zm65 119.15-8.25-3.35-10.06-3.61h-8l-7.48-1.55-8.26 1.8-4.64.26h-2.83l-5.42 3.1-5.2 2.06-7-4.38 1.8-7.23-4.38-1.8h-5.16l-.77-2.32.51-4.65-1.8-2.57-3.61.51-1 2.58-4.38.26-3.87-4.64-1.55-6.19 3.87-7.23 7.48.52 2.07 1.81h3.09l3.87-2.33 3.35 1 4.64 8 1.81-.26-.52-5.93-1.45-3.06.51-4.9 9.54-4.13 1.29-9.54 4.13-3.36 3.35-5.93 2.58-.51 5.93-3.87.26-2.06-4.12.25-.78-2.06h-2.83l-4.39 1 2.06-3.35 9-2.58 2.06-2.32 3.61 5.67 2.33 2.32 3.61-1-1.55-3.35-5.42-3.87-6.19-7-6.44-4.39-6.19-1-3.1-3.09-4.13-1-.51 1-.52 7.48 1 2.57-2.32 8.26-5.14-4.1.77-3.61-5.4-2.6-2.34-2.79 1.29-6.44 7.48-5.42.52-6.19-2.84.26-1.81-2.32-.77-3.87-1.81-.26-1 4.13-2.83.51-1.29-9-2.1-1.4-3.61-1.55-4.12 2.06 5.15 4.9 1 4.39-9.29-7-6.45-7-.51-7-6.67-1.92-5.16 3.36a42 42 0 0 1-3.84 2.06 42.5 42.5 0 0 1-6.19 1l-1 4.39-5.93.25.52 2.84 9.54 1.55 4.9 5.41v9l-2.84 8 .52 8.51-7.22 12.63-1.55 18.83L198 209.6l3.35 8.26 3.87.51-1.29-4.12-2.06-3.1-1.29-5.67 2.32-.52 3.61 9.29 2.58 8.25v6.7l4.9 5.94 8.77 6.44 13.41 3.62 4.13 3.86 3.09 4.13 4.65 2.84 5.67 1.54 5.67-.25s-.25 2.58-.25 3.87-3.61 5.67-3.61 5.67l-2.83 5.14 2.06 5.67 5.68 2.32 8 8.26 3.61 1.54v3.87l.45 1.8A108.2 108.2 0 0 0 326.57 270l.14-1.87 7-12.64-3.35-2.32ZM343 155.19l-2.84-4.91-3.61-5.67-1-7.74 4.64.78.26-2.58-3.36-.26 2.84-1.29 3.1-1.8v-2.58l-3.1-4.13-.66-5.55a108.7 108.7 0 0 0-127.53-30.9l5.94 4.21-3.68 4.64-4.9 1-.51 7-2.07.77-2.58 2.82.26 4.64 4.39.52-1.81 4.38h4.39l7.47-9.54.78-4.13 7.22-.51 1.8-3.1 7.48-.77.78-4.39 5.41-.25s3.87-2.07 4.65-2.07a31.5 31.5 0 0 1 4.38 1.29l3.87 3.1h5.42l4.64-2.84 5.93.52a6.4 6.4 0 0 0 2.84 1c1.29 0 5.16-1.81 5.16-1.81l7.47 4.64 3.1 2.33v3.86l3.87.52 1.29-2.32 3.35 1.55-.26 2.06-7.73 2.06 4.38 5.68 9.28 5.16 3.87 5.15 5.68.52 1.29-2.58 2.06-.52-6.71-5.15-4.12-.52 3.35-1-3.09-4.39 4.38-.25 5.67 3.09 1.29 6.19 2.84 3.35 2.32 7.48 5.68 4.13v8.51l5.93 3.87-.26 2.84-.77 3.35 1.54 4.64.52 2.32 4.38.78 2.07-4.39Zm3.35-26v1.48l-1.35 4.14.77 3.61 2.84 1v4.9l-3.09-1.29-.76 13.97-3.09 5.67 2.06 7.23 3.35 3.09v13.93l3.36 10.83 3.61 8.25 5.93 1.55 2.06-5.16.84-.66a109 109 0 0 0 .84-13.51 108.2 108.2 0 0 0-17.41-59.02Zm-59.58-1.61-17-7.48-7.48.26-1.8 4.9-3.1-3.36-5.67 1.29-.52 8.52 4.64 3.35 3.36-4.9L263 134l8 7 1.55 7.48 6.7 8.51 10.84-1.8-.26-3.87-2.32-4.39-.51-10.31 2.58-4.39Zm13.93 5.67-3.87-1-3.35 2.84 1.8 7.48h3.36Zm24 4.9-8.77-4.64-1.81-3.09-2.06.77 1.8 5.16 1.55 6.7 3.87 1.55.77-1-2.32-3.87 6.71 2.58Zm-75.31 93.11-1 1 7.74 2.32 3.1 3.61 4.9.52 1.8-2.84-5.93-1Zm23 4.9-5.42 1.55.78 2.06h6.7l1.29-2.06-2.32.25Z" style="fill:#008cd7;stroke:#263238;stroke-miterlimit:10" transform="translate(-23.24 -15.45)"/><path d="M332 323a27.7 27.7 0 0 0 1 8.33c1.19 3.8 2.37 7.37 3.56 8.8s3.1-.95 1.43-3.81-.71-5.94.24-5.94 8.56 4.75 9.75 6.42 4.76 5.95 4.76 3.09-5.47-8.8-6.42-10.47-6.19-8.8-6.19-8.8Z" style="fill:#fff;stroke:#263238;stroke-linejoin:round" transform="translate(-23.24 -15.45)"/><path d="m312.13 298.74 4.76 6.43-9.04 4.99-4.28-5.23z" style="fill:#008cd7;stroke:#263238;stroke-linejoin:round"/><path d="M284.94 447.41s-3.57 7.85-5 10-2.62 3.09-5 3.57-6.42.95-6.42 2.85a6.56 6.56 0 0 0 1 3.33s11.18 2.38 15 1.43 7.61-6.19 7.61-6.19l2.38 1.43 6.9-6.66a21.8 21.8 0 0 0-2.41-6.67c-2.14-4.28-3.33-7.37-3.33-7.37s-5.26 4.28-10.73 4.28Z" style="fill:#616161;stroke:#263238;stroke-linejoin:round" transform="translate(-23.24 -15.45)"/><path d="M299.89 452.47c-2.5 2.35-8.28 8-9.86 9.39-2 1.77-6.1 5.31-9.24 5.31-2.26 0-8.57-.91-12-1.43a6.2 6.2 0 0 0 .64 1.41s11.18 2.38 15 1.43 7.61-6.19 7.61-6.19l2.38 1.43 6.9-6.66a18.2 18.2 0 0 0-1.43-4.69Z" style="fill:none;stroke:#263238;stroke-linejoin:round" transform="translate(-23.24 -15.45)"/><path d="M266.39 415.77s4.52 9.51 9 15.22 9.51 18.56 9.51 18.56 4.05 1.43 6.9-.72a11.7 11.7 0 0 0 3.81-5.7s-5.71-17.61-7.85-25.22-7.38-24.27-9.76-28.31a92 92 0 0 0-5.9-8.6s-2.62 15.7-3.81 21.64-1.9 13.13-1.9 13.13Z" style="fill:#263238;stroke:#263238;stroke-linejoin:round" transform="translate(-23.24 -15.45)"/><path d="m245.21 306.34.24 15.22s-4 28.08-.71 42.35 8.56 30 8.56 30-2.61 26.17-3.57 32.59-5 18.56-5 18.56 6.9 3.57 8.09 3.57h2.38s7.13-19.27 8.56-22.13 6.42-8.32 8.09-20.22S274 382 274 382s11.89-15.23 14.75-20 7.37-14.52 7.37-14.52 5.24-13.56 4.52-26.64-4.75-19.74-4.75-19.74-23.32 5.47-34.26 5.47-16.42-.23-16.42-.23Z" style="fill:#263238;stroke:#263238;stroke-linejoin:round" transform="translate(-23.24 -15.45)"/><path d="M251.28 220.9s4.62 4.62 3.92 6.23-12.68 2.31-15.22 5.31-13.38 41.06-13.38 41.06-12.92-3.7-14.07-4.62-2.54-.23-3.23 2.54-7.61 9-6.69 10.61 13.61 7.84 19.84 9.46a79 79 0 0 0 11.55 2.07l-.92 11.77s11.76 6.69 34.6 3.69 32.32-7.84 32.32-7.84l-2.76-23.76s15 28.14 17.53 33 5.76 12 8.53 12.92 12.69-5.54 12.92-8.3-8.3-16.15-15-27.68-15.92-44.06-17.3-51-5.08-12.69-9-13.61-14.53-.93-19.15-1.85-11.07-8.53-14.07-18.22Z" style="fill:#008cd7;stroke:#263238;stroke-miterlimit:10" transform="translate(-23.24 -15.45)"/><path d="M243 242.37c1.17-2.48 2.07-4.17 2.07-4.17M234 293.56s2.77-29.75 3.92-36.9a50 50 0 0 1 3.31-10.28M289.57 250.15c-.34-1.64-.66-3.25-.92-4.8M297.19 277.42s-3.83-11.35-6.6-22.81" style="fill:none;stroke:#263238;stroke-miterlimit:10" transform="translate(-23.24 -15.45)"/><path d="M249 229.11c1.11 2.38 4.67 7.19 15.46 7 12.73-.21 18.33-9 20.39-14.35a82 82 0 0 1-9.09-.88c-4.61-.92-11.07-8.53-14.07-18.22l-10.41 18.24s4.62 4.62 3.92 6.23c-.32.75-3.1 1.31-6.2 1.98Z" style="fill:#fff;stroke:#263238;stroke-miterlimit:10" transform="translate(-23.24 -15.45)"/><path d="m259.91 209.25-3.14 2-5.49 9.62a25.5 25.5 0 0 1 3.46 4.33c5.17-6.15 5.17-15.95 5.17-15.95Z" style="fill:#263238;stroke:#263238;stroke-linejoin:round" transform="translate(-23.24 -15.45)"/><path d="M224.53 199s4.38 7.61 5.53 11.07a18.28 18.28 0 0 0 9 9.69c4.15 1.84 6.23 3.46 9.92 3.69 5.29.33 9.22-7.15 11.3-12.92s2.08-6.69 2.08-6.69 3.22-4.84 3.22-9.92-5.76-10.84-12.22-13.84-10.84-7.38-17.53-1.38-11.3 20.3-11.3 20.3Z" style="fill:#fff;stroke:#263238;stroke-miterlimit:10" transform="translate(-23.24 -15.45)"/><path d="M236.06 206.37a16 16 0 0 1 .92 4.15c0 1.62 2.08 2.31 3.92-1.15M241.36 214s5.77.92 6.92-6" style="fill:none;stroke:#263238;stroke-miterlimit:10" transform="translate(-23.24 -15.45)"/><path d="M242.54 198.37c.54.92.56 1.91 0 2.22s-1.38-.2-1.92-1.12-.55-1.92 0-2.22 1.38.2 1.92 1.12M233.23 203c.54.92.56 1.92 0 2.22s-1.38-.2-1.91-1.12-.56-1.92 0-2.22 1.38.18 1.91 1.12" style="fill:#263238" transform="translate(-23.24 -15.45)"/><path d="M235.93 195.29s1-3.62 7.49-3.14M231.09 198.92s-3.62 0-3.38 2.9" style="fill:none;stroke:#263238;stroke-miterlimit:10" transform="translate(-23.24 -15.45)"/><path d="M241.13 182.38s-3 3.46-6.46 6.92-9.22 8.54-9.22 14.76.23 6.92.23 6.92-9.92-5.07-12.69-12 3.46-22.84 11.07-30 16.61-8.53 26.53-7.84 19.84 10.61 22.38 20.53-2.54 20.76-4.16 22.6-6.69 2.08-6.69 2.08a23.35 23.35 0 0 0 .7-10.84c-1.16-5.31-4.39-4.15-4.85-1.85s-.69 3.23-.69 3.23-4.61-3.23-9.46-6.69a20.7 20.7 0 0 1-6.69-7.82Z" style="fill:#263238;stroke:#263238;stroke-linejoin:round" transform="translate(-23.24 -15.45)"/><path d="m174.07 260.13 6.22-9.23 3 3z" style="fill:#008cd7;stroke:#263238;stroke-linejoin:round"/><path d="m196.06 246.52-14.49.06-13.81-26.6 14.49-.06z" style="fill:#263238;stroke:#263238;stroke-linejoin:round"/><path d="M193.39 248.35s3.69 3.46 3.92 5.08 2.07 7.84 3 10.84 4.38 6.23 4.38 6.23l3-3-1.16-5.08a44 44 0 0 1 3.46-2.77c1.39-.92 3-3.46 2.08-3.46a12.4 12.4 0 0 0-2.08.24s2.08-3.23.7-3.46a18.6 18.6 0 0 0-2.77-.24s2.3-2.76.46-3-8.31 3.23-8.31 3.23l-2.76-4.16a5 5 0 0 0-3.92-.45Z" style="fill:#fff;stroke:#263238;stroke-linejoin:round" transform="translate(-23.24 -15.45)"/><path d="M194.15 246.83a1.4 1.4 0 0 0 .63 2.43 2.61 2.61 0 0 0 2.53-.45c1.15-1.38 5.76-5.07 5.76-6.92s-2.07.23-3 .7a47 47 0 0 0-5.92 4.24Z" style="fill:#fff;stroke:#263238;stroke-linejoin:round" transform="translate(-23.24 -15.45)"/><path d="M207.92 252.73s-6.92 3.46-8.08 4.85M210 256.43s-5.53 2.53-7.38 4.61" style="fill:none;stroke:#263238;stroke-linejoin:round" transform="translate(-23.24 -15.45)"/><path d="m210.45 268.65-3.22-2.77-9.92 9.69 6.69 5.08s6.22-6 6.45-12Z" style="fill:#008cd7;stroke:#263238;stroke-linejoin:round" transform="translate(-23.24 -15.45)"/><path d="M274.24 322.28s-10.71 25.21-13.09 35.72-6.9 30.45-6.9 31.64" style="fill:none;stroke:#757575;stroke-linejoin:round" transform="translate(-23.24 -15.45)"/><path d="m235.53 313.97 6.19 7.13" style="fill:none;stroke:#757575;stroke-linejoin:round"/><path d="M244.74 444.32s-1.43 3.09-8.33 4.51-13.32-1.18-14.51-.95-2.38 2.38-2.38 4.29 8.33 7.13 11.66 8.8a28.6 28.6 0 0 0 8.33 2.14h1.18l-.23 2.38a45 45 0 0 0 5.94 1.9 18.8 18.8 0 0 0 5.48 0 44.3 44.3 0 0 0 1.19-9.28 28.5 28.5 0 0 1 2.14-9.51Z" style="fill:#616161;stroke:#263238;stroke-linejoin:round" transform="translate(-23.24 -15.45)"/><path d="M252.6 463.67c-4.69-.61-13.34-2-18.59-4-5.56-2.1-11.79-6.38-14.43-8.28a5 5 0 0 0-.06.75c0 1.9 8.33 7.13 11.66 8.8a28.6 28.6 0 0 0 8.33 2.14h1.18l-.23 2.38a45 45 0 0 0 5.94 1.9 18.8 18.8 0 0 0 5.48 0s.38-1.52.72-3.69Z" style="fill:none;stroke:#263238;stroke-linejoin:round" transform="translate(-23.24 -15.45)"/></svg>