<svg width="487" height="175" viewBox="0 0 487 175" fill="none" xmlns="http://www.w3.org/2000/svg">
<rect x="87" width="106" height="175" fill="#007183"/>
<rect x="237" width="250" height="175" fill="#007183"/>
<rect x="119" y="40" width="42" height="95" fill="#D9D9D9"/>
<rect x="161" y="109" width="42" height="113" transform="rotate(-90 161 109)" fill="#D9D9D9"/>
<rect x="126" y="50" width="28" height="76" fill="#007183"/>
<rect x="161" y="102" width="28" height="113" transform="rotate(-90 161 102)" fill="#007183"/>
<rect x="274" y="40" width="86" height="95" fill="#D9D9D9"/>
<rect x="360" y="65" width="58" height="39" fill="#D9D9D9"/>
<rect x="418" y="40" width="42" height="95" fill="#D9D9D9"/>
<rect x="284" y="49" width="64" height="76" fill="#007183"/>
<rect x="425" y="50" width="28" height="76" fill="#007183"/>
<rect x="348" y="98" width="28" height="77" transform="rotate(-90 348 98)" fill="#007183"/>
<rect y="49" width="37" height="86" fill="#007183"/>
<rect x="61" y="62" width="23" height="60" fill="#007183"/>
</svg>
