<svg width="970" height="715" viewBox="0 0 970 715" fill="none" xmlns="http://www.w3.org/2000/svg">
<path d="M872.319 666.098H808.102V666.582H872.319V666.098Z" fill="#EBEBEB"/>
<path d="M642.209 671.371H625.359V671.856H642.209V671.371Z" fill="#EBEBEB"/>
<path d="M806.165 648.104H768.957V648.588H806.165V648.104Z" fill="#EBEBEB"/>
<path d="M185.459 651.361H101.717V651.846H185.459V651.361Z" fill="#EBEBEB"/>
<path d="M215.01 651.361H202.736V651.846H215.01V651.361Z" fill="#EBEBEB"/>
<path d="M436.551 659.547H254.912V660.032H436.551V659.547Z" fill="#EBEBEB"/>
<path d="M459.548 548.425H85.1611C79.0535 548.425 74.0898 543.461 74.0898 537.354V11.0713C74.0898 4.96365 79.0535 0 85.1611 0H459.567C465.675 0 470.639 4.96365 470.639 11.0713V537.354C470.619 543.461 465.656 548.425 459.548 548.425ZM85.1611 0.484731C79.3249 0.484731 74.5746 5.2351 74.5746 11.0713V537.354C74.5746 543.19 79.3249 547.94 85.1611 547.94H459.567C465.404 547.94 470.154 543.19 470.154 537.354V11.0713C470.154 5.2351 465.404 0.484731 459.567 0.484731H85.1611Z" fill="#EBEBEB"/>
<path d="M878.935 548.425H504.528C498.421 548.425 493.457 543.461 493.457 537.354V11.0713C493.457 4.96365 498.421 0 504.528 0H878.935C885.042 0 890.006 4.96365 890.006 11.0713V537.354C890.006 543.461 885.042 548.425 878.935 548.425ZM504.528 0.484731C498.692 0.484731 493.942 5.2351 493.942 11.0713V537.354C493.942 543.19 498.692 547.94 504.528 547.94H878.935C884.771 547.94 889.521 543.19 889.521 537.354V11.0713C889.521 5.2351 884.771 0.484731 878.935 0.484731H504.528Z" fill="#EBEBEB"/>
<path d="M969.462 634.9H0V635.385H969.462V634.9Z" fill="#EBEBEB"/>
<path d="M187.92 419.447H130.818V480.233H187.92V419.447Z" fill="#E6E6E6"/>
<path d="M130.797 419.447H116.178V480.233H130.797V419.447Z" fill="#F0F0F0"/>
<path d="M202.886 410.064H159.997V480.234H202.886V410.064Z" fill="#E6E6E6"/>
<path d="M160.019 410.064H147.61V480.234H160.019V410.064Z" fill="#F0F0F0"/>
<path d="M208.784 419.447H172.623V480.233H208.784V419.447Z" fill="#F0F0F0"/>
<path d="M172.618 419.447H164.358V480.233H172.618V419.447Z" fill="#F5F5F5"/>
<path d="M96.8897 497.783L447.99 497.783V480.197L96.8897 480.197V497.783Z" fill="#EBEBEB"/>
<path d="M249.675 429.727H202.229V480.236H249.675V429.727Z" fill="#E6E6E6"/>
<path d="M202.229 429.727H190.092V480.236H202.229V429.727Z" fill="#F5F5F5"/>
<path d="M262.104 421.93H226.467V480.214H262.104V421.93Z" fill="#E6E6E6"/>
<path d="M226.482 421.93H216.187V480.214H226.482V421.93Z" fill="#F0F0F0"/>
<path d="M273.541 429.727H238.932V480.236H273.541V429.727Z" fill="#F0F0F0"/>
<path d="M236.954 429.727H230.09V480.236H236.954V429.727Z" fill="#F5F5F5"/>
<path d="M761.047 72.4785H718.158V142.648H761.047V72.4785Z" fill="#E6E6E6"/>
<path d="M718.194 72.4785H705.785V142.648H718.194V72.4785Z" fill="#F0F0F0"/>
<path d="M776.655 81.8633H740.494V142.649H776.655V81.8633Z" fill="#F0F0F0"/>
<path d="M740.492 81.8633H732.232V142.649H740.492V81.8633Z" fill="#F5F5F5"/>
<path d="M515.452 160.197L866.553 160.197V142.611L515.452 142.611V160.197Z" fill="#EBEBEB"/>
<path d="M821.424 92.1387H773.979V142.648H821.424V92.1387Z" fill="#E6E6E6"/>
<path d="M773.96 92.1387H761.822V142.648H773.96V92.1387Z" fill="#F5F5F5"/>
<path d="M833.85 84.3438H798.213V142.628H833.85V84.3438Z" fill="#E6E6E6"/>
<path d="M798.218 84.3438H787.922V142.628H798.218V84.3438Z" fill="#F0F0F0"/>
<path d="M845.295 92.1387H810.686V142.648H845.295V92.1387Z" fill="#F0F0F0"/>
<path d="M808.706 92.1387H801.842V142.648H808.706V92.1387Z" fill="#F5F5F5"/>
<path d="M675.223 233.315L674.73 327.217L783.582 327.788L784.074 233.886L675.223 233.315Z" fill="#E0E0E0"/>
<path d="M675.213 233.306L784.064 233.877L784.157 216.31L675.305 215.739L675.213 233.306Z" fill="#E6E6E6"/>
<path d="M671.568 324.58L780.4 325.142L784.065 233.877L675.233 233.314L671.568 324.58Z" fill="#F5F5F5"/>
<path d="M699.43 255.863L753.312 256.154L753.952 240.08L700.07 239.809L699.43 255.863Z" fill="#EBEBEB"/>
<path d="M761.555 276.942L775.942 277.019L776.523 262.632L762.136 262.555L761.555 276.942Z" fill="#E0E0E0"/>
<path d="M741.139 276.822L755.526 276.9L756.107 262.513L741.72 262.436L741.139 276.822Z" fill="#E0E0E0"/>
<path d="M760.777 296.35L775.164 296.427L775.746 282.04L761.34 281.963L760.777 296.35Z" fill="#E0E0E0"/>
<path d="M759.982 315.756L774.389 315.834L774.951 301.447L760.564 301.369L759.982 315.756Z" fill="#EBEBEB"/>
<path d="M740.361 296.233L754.748 296.31L755.33 281.923L740.943 281.846L740.361 296.233Z" fill="#E0E0E0"/>
<path d="M719.943 296.139L734.33 296.216L734.912 281.83L720.525 281.752L719.943 296.139Z" fill="#E0E0E0"/>
<path d="M699.527 296.02L713.914 296.097L714.496 281.71L700.109 281.633L699.527 296.02Z" fill="#E0E0E0"/>
<path d="M679.111 295.922L693.498 296L694.08 281.613L679.693 281.535L679.111 295.922Z" fill="#E0E0E0"/>
<path d="M739.568 315.643L753.975 315.72L754.537 301.333L740.15 301.256L739.568 315.643Z" fill="#EBEBEB"/>
<path d="M719.17 315.545L733.557 315.623L734.138 301.236L719.732 301.158L719.17 315.545Z" fill="#EBEBEB"/>
<path d="M698.752 315.43L713.139 315.507L713.72 301.121L699.334 301.043L698.752 315.43Z" fill="#E0E0E0"/>
<path d="M720.719 276.729L735.106 276.806L735.687 262.419L721.3 262.342L720.719 276.729Z" fill="#EBEBEB"/>
<path d="M700.303 276.611L714.69 276.689L715.271 262.302L700.884 262.225L700.303 276.611Z" fill="#EBEBEB"/>
<path d="M679.887 276.512L694.293 276.589L694.855 262.203L680.468 262.125L679.887 276.512Z" fill="#EBEBEB"/>
<path d="M678.338 315.332L692.725 315.41L693.306 301.023L678.92 300.945L678.338 315.332Z" fill="#E0E0E0"/>
<path d="M729.407 211.248C725.936 211.248 723.125 214.059 723.125 217.53C723.125 221.001 725.936 223.812 729.407 223.812C732.878 223.812 735.689 221.001 735.689 217.53C735.689 214.059 732.878 211.248 729.407 211.248ZM729.407 222.3C726.77 222.3 724.637 220.167 724.637 217.53C724.637 214.893 726.77 212.76 729.407 212.76C732.044 212.76 734.177 214.893 734.177 217.53C734.177 220.167 732.044 222.3 729.407 222.3Z" fill="#E6E6E6"/>
<path d="M431.936 91.0723H114.282V284.635H431.936V91.0723Z" fill="#EBEBEB"/>
<path d="M434.303 90.998H431.977V284.561H434.303V90.998Z" fill="#E0E0E0"/>
<path d="M125.821 99.4902H123.901V273.664H125.821V99.4902Z" fill="#E0E0E0"/>
<path d="M421.581 99.4902H123.704V273.664H421.581V99.4902Z" fill="white"/>
<path d="M325.351 157.543H300.805V192.793H325.351V157.543Z" fill="#F5F5F5"/>
<path d="M162.601 213.402H138.054V248.652H162.601V213.402Z" fill="#F5F5F5"/>
<path d="M160.213 139.855H135.666V164.402H160.213V139.855Z" fill="#F5F5F5"/>
<path d="M282.309 224.629H257.762V249.176H282.309V224.629Z" fill="#F5F5F5"/>
<path d="M402.874 160.568H340.014V248.906H402.874V160.568Z" fill="#F5F5F5"/>
<path d="M393.777 173.363H348.619V174.333H393.777V173.363Z" fill="#E0E0E0"/>
<path d="M371.675 174.312H370.705V239.732H371.675V174.312Z" fill="#E0E0E0"/>
<path d="M392.421 174.312H391.451V239.732H392.421V174.312Z" fill="#E0E0E0"/>
<path d="M353.257 174.312H352.287V239.732H353.257V174.312Z" fill="#E0E0E0"/>
<path d="M350.036 174.312H349.066V239.732H350.036V174.312Z" fill="#E0E0E0"/>
<path d="M391.472 177.764H349.553V178.733H391.472V177.764Z" fill="#E0E0E0"/>
<path d="M237.732 133.918V142.217H257.083V133.918H237.732Z" fill="#F5F5F5"/>
<path d="M241.527 196.358V202.814H260.878V196.358H241.527Z" fill="#F5F5F5"/>
<path d="M244.656 131.193H181.796V219.531H244.656V131.193Z" fill="#F0F0F0"/>
<path d="M237.178 210.643V217.1H256.528V210.643H237.178Z" fill="#F5F5F5"/>
<path d="M240.412 151.6V158.057H259.763V151.6H240.412Z" fill="#F5F5F5"/>
<path d="M236.152 167.614V174.07H255.503V167.614H236.152Z" fill="#F5F5F5"/>
<path d="M232.052 142.049H189.202V149.649H232.052V142.049Z" fill="#E6E6E6"/>
<path d="M232.75 174.547H189.9L189.202 171.076H232.052L232.75 174.547Z" fill="#E6E6E6"/>
<path d="M204.403 157.252H189.202V164.853H204.403V157.252Z" fill="#E6E6E6"/>
<path d="M475.383 715.001C683.008 715.001 851.322 705.174 851.322 693.052C851.322 680.93 683.008 671.104 475.383 671.104C267.759 671.104 99.4453 680.93 99.4453 693.052C99.4453 705.174 267.759 715.001 475.383 715.001Z" fill="#B8E0FF"/>
<path d="M491.128 223.309L470.769 249.872H387.783L408.161 223.309H466.251H480.658H491.128Z" fill="#005C8E"/>
<g opacity="0.4">
<path d="M491.128 223.309L470.769 249.872H387.783L408.161 223.309H466.251H480.658H491.128Z" fill="white"/>
</g>
<path d="M388.077 249.872H471.043L452.74 199.596H369.773L388.077 249.872Z" fill="#005C8E"/>
<g opacity="0.6">
<path d="M388.077 249.872H471.043L452.74 199.596H369.773L388.077 249.872Z" fill="white"/>
</g>
<path d="M419.428 201.321H441.57L435.191 195.252H421.386L419.428 201.321Z" fill="#005C8E"/>
<path opacity="0.6" d="M419.428 201.321H441.57L435.191 195.252H421.386L419.428 201.321Z" fill="white"/>
<path d="M667.419 419.954H666.759C665.964 419.954 665.402 419.295 665.538 418.5L671.335 381.855C671.471 381.06 672.208 380.4 673.022 380.4H673.681H762.775L756.512 419.954H667.419Z" fill="#263238"/>
<path opacity="0.5" d="M667.419 419.954H666.759C665.964 419.954 665.402 419.295 665.538 418.5L671.335 381.855C671.471 381.06 672.208 380.4 673.022 380.4H673.681H762.775L756.512 419.954H667.419Z" fill="white"/>
<path d="M756.2 419.954C757.189 419.954 758.1 419.159 758.255 418.171L763.956 382.184C764.111 381.195 763.432 380.4 762.463 380.4C761.474 380.4 760.563 381.195 760.408 382.184L754.707 418.171C754.533 419.159 755.211 419.954 756.2 419.954Z" fill="#263238"/>
<path opacity="0.2" d="M756.2 419.954C757.189 419.954 758.1 419.159 758.255 418.171L763.956 382.184C764.111 381.195 763.432 380.4 762.463 380.4C761.474 380.4 760.563 381.195 760.408 382.184L754.707 418.171C754.533 419.159 755.211 419.954 756.2 419.954Z" fill="white"/>
<path d="M632.09 469.032H747.417L740.825 410.729H633.389C629.182 410.729 625.905 414.393 626.37 418.581L632.09 469.032Z" fill="#005C8E"/>
<path opacity="0.2" d="M633.386 410.729H738.941V417.282H626.348C626.6 413.676 629.624 410.729 633.386 410.729Z" fill="white"/>
<path d="M734.928 469.032H766.494V416.623C766.494 413.365 763.857 410.729 760.599 410.729H736.227C732.02 410.729 728.743 414.393 729.208 418.581L734.928 469.032Z" fill="#005C8E"/>
<path opacity="0.4" d="M734.928 469.032H766.494V416.623C766.494 413.365 763.857 410.729 760.599 410.729H736.227C732.02 410.729 728.743 414.393 729.208 418.581L734.928 469.032Z" fill="black"/>
<path d="M639.379 466.994L637.285 448.555H723.936L726.03 466.994H639.379Z" fill="#263238"/>
<path d="M603.042 466.992H690.856V464.025H603.042C602.402 464.025 601.879 464.549 601.879 465.189V465.848C601.879 466.488 602.402 466.992 603.042 466.992Z" fill="#263238"/>
<path opacity="0.1" d="M603.042 466.992H690.856V464.025H603.042C602.402 464.025 601.879 464.549 601.879 465.189V465.848C601.879 466.488 602.402 466.992 603.042 466.992Z" fill="white"/>
<path d="M639.047 464.028H615.354C615.354 460.577 618.165 457.766 621.616 457.766H638.33L639.047 464.028Z" fill="#263238"/>
<path opacity="0.3" d="M639.047 464.028H615.354C615.354 460.577 618.165 457.766 621.616 457.766H638.33L639.047 464.028Z" fill="white"/>
<path opacity="0.1" d="M742.164 410.725H688.301L691.965 380.4H745.809L742.164 410.725Z" fill="black"/>
<path d="M688.009 464.028H694.679C694.679 460.577 697.491 457.766 700.942 457.766H724.985L725.682 464.028L726.012 466.995H687.99C687.369 466.995 686.865 466.491 686.865 465.87V465.153C686.885 464.532 687.389 464.028 688.009 464.028Z" fill="#263238"/>
<path opacity="0.3" d="M688.009 464.028H694.679C694.679 460.577 697.491 457.766 700.942 457.766H724.985L725.682 464.028L726.012 466.995H687.99C687.369 466.995 686.865 466.491 686.865 465.87V465.153C686.885 464.532 687.389 464.028 688.009 464.028Z" fill="white"/>
<path d="M683.414 410.725H737.258L743.734 369.756H689.89L683.414 410.725Z" fill="#005C8E"/>
<path opacity="0.9" d="M683.414 410.725H737.258L743.734 369.756H689.89L683.414 410.725Z" fill="white"/>
<path d="M716.066 414.955H639.148C640.234 412.493 642.697 410.729 645.605 410.729H722.522C719.614 410.729 717.151 412.493 716.066 414.955Z" fill="#005C8E"/>
<path opacity="0.5" d="M716.066 414.955H639.148C640.234 412.493 642.697 410.729 645.605 410.729H722.522C719.614 410.729 717.151 412.493 716.066 414.955Z" fill="white"/>
<path d="M596.822 681.031V527.332H659.256V681.031C659.256 688.146 653.458 693.944 646.342 693.944H609.736C602.62 693.944 596.822 688.146 596.822 681.031Z" fill="#005C8E"/>
<g opacity="0.5">
<path d="M596.822 527.312V681.03C596.822 686.188 599.866 690.667 604.268 692.722C605.916 693.498 607.777 693.944 609.736 693.944H646.342C653.478 693.944 659.256 688.146 659.256 681.03V527.312H596.822Z" fill="white"/>
</g>
<path d="M745.942 693.75C737.721 693.75 731.031 687.08 731.031 678.859V539.625H745.942V693.75Z" fill="#005C8E"/>
<path opacity="0.8" d="M745.942 693.75C737.721 693.75 731.031 687.08 731.031 678.859V539.625H745.942V693.75Z" fill="white"/>
<path d="M604.287 539.586V692.722C599.886 690.667 596.842 686.188 596.842 681.031V539.586H604.287Z" fill="#005C8E"/>
<path opacity="0.8" d="M604.287 539.586V692.722C599.886 690.667 596.842 686.188 596.842 681.031V539.586H604.287Z" fill="white"/>
<path d="M738.885 681.031V527.332H801.318V681.031C801.318 688.146 795.521 693.944 788.405 693.944H751.798C744.682 693.944 738.885 688.146 738.885 681.031Z" fill="#005C8E"/>
<path d="M596.654 539.604H748.84V482.444H596.654V539.604Z" fill="#005C8E"/>
<path opacity="0.8" d="M596.654 539.604H748.84V482.444H596.654V539.604Z" fill="white"/>
<path d="M738.924 539.605H801.299V482.446H738.924V539.605Z" fill="#005C8E"/>
<path opacity="0.7" d="M801.318 527.31V681.028C801.318 688.144 795.54 693.941 788.405 693.941H751.798C744.682 693.941 738.885 688.144 738.885 681.028V527.31H738.904V482.443H801.299V527.31H801.318Z" fill="white"/>
<path d="M588.932 485.996H737.57V469.321H588.932V485.996Z" fill="#005C8E"/>
<path opacity="0.9" d="M588.932 485.996H737.57V469.321H588.932V485.996Z" fill="white"/>
<path d="M735.259 485.996H809.016V469.321H735.259V485.996Z" fill="#005C8E"/>
<path opacity="0.8" d="M735.259 485.996H809.016V469.321H735.259V485.996Z" fill="white"/>
<path d="M608.884 528.404H726.693V495.52H608.884V528.404Z" fill="#005C8E"/>
<path opacity="0.6" d="M608.884 528.404H726.693V495.52H608.884V528.404Z" fill="white"/>
<path d="M659.814 512.539C657.294 512.539 655.258 510.503 655.258 507.982C655.258 505.462 657.294 503.426 659.814 503.426H665.786C668.307 503.426 670.343 505.462 670.343 507.982C670.343 510.503 668.307 512.539 665.786 512.539H659.814Z" fill="#005C8E"/>
<path opacity="0.3" d="M659.814 512.539C657.294 512.539 655.258 510.503 655.258 507.982C655.258 505.462 657.294 503.426 659.814 503.426H665.786C668.307 503.426 670.343 505.462 670.343 507.982C670.343 510.503 668.307 512.539 665.786 512.539H659.814Z" fill="white"/>
<path d="M655.277 507.982C655.277 510.503 657.313 512.539 659.834 512.539C662.354 512.539 664.39 510.503 664.39 507.982C664.39 505.462 662.354 503.426 659.834 503.426C657.313 503.445 655.277 505.481 655.277 507.982Z" fill="#005C8E"/>
<path opacity="0.9" d="M655.277 507.982C655.277 510.503 657.313 512.539 659.834 512.539C662.354 512.539 664.39 510.503 664.39 507.982C664.39 505.462 662.354 503.426 659.834 503.426C657.313 503.445 655.277 505.481 655.277 507.982Z" fill="white"/>
<path d="M596.59 289.152L589.377 373.302C589.28 374.387 588.33 375.26 587.244 375.26L509.435 375.396C508.35 375.396 507.555 374.523 507.632 373.437L517.017 263.985C517.114 262.899 518.064 262.027 519.149 262.027L571.578 261.93L596.59 289.152Z" fill="#005C8E"/>
<g opacity="0.6">
<path d="M596.59 289.152L589.377 373.302C589.28 374.387 588.33 375.26 587.244 375.26L509.435 375.396C508.35 375.396 507.555 374.523 507.632 373.437L517.017 263.985C517.114 262.899 518.064 262.027 519.149 262.027L571.578 261.93L596.59 289.152Z" fill="white"/>
</g>
<path opacity="0.2" d="M580.709 311.199L525.779 311.471C524.926 311.471 524.17 312.169 524.112 313.022L524.073 313.526C523.995 314.379 524.635 315.077 525.488 315.058L580.418 314.786C581.271 314.786 582.027 314.088 582.085 313.235L582.124 312.731C582.202 311.878 581.562 311.199 580.709 311.199Z" fill="black"/>
<path opacity="0.2" d="M579.49 325.895L524.56 326.166C523.707 326.166 522.951 326.864 522.893 327.717L522.854 328.221C522.776 329.074 523.416 329.772 524.269 329.753L579.199 329.482C580.052 329.482 580.808 328.784 580.867 327.93L580.905 327.426C580.983 326.573 580.363 325.895 579.49 325.895Z" fill="black"/>
<path opacity="0.2" d="M578.285 340.592L523.355 340.863C522.502 340.863 521.746 341.561 521.688 342.414L521.649 342.919C521.571 343.772 522.211 344.47 523.064 344.45L577.994 344.179C578.847 344.179 579.603 343.481 579.662 342.628L579.7 342.124C579.778 341.27 579.138 340.592 578.285 340.592Z" fill="black"/>
<path d="M571.636 261.871L569.465 287.252C569.368 288.337 570.182 289.21 571.268 289.21L596.571 289.171L571.636 261.871Z" fill="#005C8E"/>
<path opacity="0.8" d="M571.636 261.871L569.465 287.252C569.368 288.337 570.182 289.21 571.268 289.21L596.571 289.171L571.636 261.871Z" fill="white"/>
<path d="M558.628 380.709H501.236L503.582 353.777H560.975L558.628 380.709Z" fill="#005C8E"/>
<path d="M628.217 123.84L621.004 207.989C620.907 209.075 619.957 209.947 618.871 209.947L541.062 210.083C539.977 210.083 539.182 209.211 539.259 208.125L548.644 98.6724C548.74 97.5866 549.691 96.7141 550.776 96.7141L603.205 96.6172L628.217 123.84Z" fill="#005C8E"/>
<g opacity="0.6">
<path d="M628.217 123.84L621.004 207.989C620.907 209.075 619.957 209.947 618.871 209.947L541.062 210.083C539.977 210.083 539.182 209.211 539.259 208.125L548.644 98.6724C548.74 97.5866 549.691 96.7141 550.776 96.7141L603.205 96.6172L628.217 123.84Z" fill="white"/>
</g>
<path opacity="0.2" d="M612.316 145.907L557.386 146.178C556.533 146.178 555.777 146.876 555.719 147.729L555.68 148.233C555.603 149.086 556.243 149.785 557.096 149.765L612.025 149.494C612.878 149.494 613.635 148.796 613.693 147.943L613.732 147.438C613.809 146.585 613.189 145.887 612.316 145.907Z" fill="black"/>
<path opacity="0.2" d="M611.115 160.582L556.185 160.853C555.332 160.853 554.576 161.551 554.518 162.405L554.479 162.909C554.401 163.762 555.041 164.46 555.894 164.44L610.824 164.169C611.677 164.169 612.434 163.471 612.492 162.618L612.53 162.114C612.608 161.28 611.968 160.582 611.115 160.582Z" fill="black"/>
<path opacity="0.2" d="M609.892 175.279L554.963 175.551C554.11 175.551 553.353 176.249 553.295 177.102L553.256 177.606C553.179 178.459 553.819 179.157 554.672 179.138L609.602 178.866C610.455 178.866 611.211 178.168 611.269 177.315L611.308 176.811C611.385 175.977 610.745 175.279 609.892 175.279Z" fill="black"/>
<path d="M603.242 96.5586L601.07 121.939C600.973 123.025 601.788 123.897 602.874 123.897L628.177 123.859L603.242 96.5586Z" fill="#005C8E"/>
<path opacity="0.8" d="M603.242 96.5586L601.07 121.939C600.973 123.025 601.788 123.897 602.874 123.897L628.177 123.859L603.242 96.5586Z" fill="white"/>
<path d="M590.234 215.416H532.842L535.207 188.465H592.599L590.234 215.416Z" fill="#005C8E"/>
<path d="M487.08 42.3045L479.867 126.454C479.771 127.54 478.82 128.412 477.735 128.412L399.926 128.548C398.84 128.548 398.045 127.675 398.122 126.59L407.507 17.1373C407.604 16.0515 408.554 15.179 409.64 15.179L462.068 15.082L487.08 42.3045Z" fill="#005C8E"/>
<g opacity="0.6">
<path d="M487.08 42.3045L479.867 126.454C479.771 127.54 478.82 128.412 477.735 128.412L399.926 128.548C398.84 128.548 398.045 127.675 398.122 126.59L407.507 17.1373C407.604 16.0515 408.554 15.179 409.64 15.179L462.068 15.082L487.08 42.3045Z" fill="white"/>
</g>
<path opacity="0.2" d="M471.181 64.3516L416.252 64.623C415.399 64.623 414.642 65.321 414.584 66.1742L414.545 66.6783C414.468 67.5314 415.108 68.2294 415.961 68.21L470.891 67.9386C471.744 67.9386 472.5 67.2406 472.558 66.3874L472.597 65.8833C472.674 65.0302 472.054 64.3516 471.181 64.3516Z" fill="black"/>
<path opacity="0.2" d="M469.978 79.0508L415.049 79.3222C414.195 79.3222 413.439 80.0202 413.381 80.8734L413.342 81.3775C413.265 82.2306 413.905 82.9286 414.758 82.9092L469.687 82.6378C470.541 82.6378 471.297 81.9398 471.355 81.0866L471.394 80.5825C471.471 79.7294 470.831 79.0508 469.978 79.0508Z" fill="black"/>
<path opacity="0.2" d="M468.754 93.7465L413.824 94.0179C412.971 94.0179 412.215 94.7159 412.156 95.5691L412.118 96.0732C412.04 96.9263 412.68 97.6243 413.533 97.6049L468.463 97.3335C469.316 97.3335 470.072 96.6355 470.13 95.7824L470.169 95.2782C470.247 94.4251 469.607 93.7271 468.754 93.7465Z" fill="black"/>
<path d="M462.105 15.0273L459.934 40.4079C459.837 41.4937 460.651 42.3662 461.737 42.3662L487.04 42.3274L462.105 15.0273Z" fill="#005C8E"/>
<path opacity="0.8" d="M462.105 15.0273L459.934 40.4079C459.837 41.4937 460.651 42.3662 461.737 42.3662L487.04 42.3274L462.105 15.0273Z" fill="white"/>
<path d="M449.097 132.193H391.705L394.071 105.242H451.463L449.097 132.193Z" fill="#005C8E"/>
<path d="M327.606 108.265L320.393 192.415C320.296 193.501 319.346 194.373 318.26 194.373L240.451 194.509C239.365 194.509 238.57 193.636 238.648 192.551L248.032 83.0982C248.129 82.0124 249.079 81.1399 250.165 81.1399L302.594 81.043L327.606 108.265Z" fill="#005C8E"/>
<g opacity="0.6">
<path d="M327.606 108.265L320.393 192.415C320.296 193.501 319.346 194.373 318.26 194.373L240.451 194.509C239.365 194.509 238.57 193.636 238.648 192.551L248.032 83.0982C248.129 82.0124 249.079 81.1399 250.165 81.1399L302.594 81.043L327.606 108.265Z" fill="white"/>
</g>
<path opacity="0.2" d="M312.017 133.649L257.088 133.92C256.234 133.92 255.478 134.618 255.42 135.471L255.381 135.976C255.304 136.829 255.944 137.527 256.797 137.507L311.727 137.236C312.58 137.236 313.336 136.538 313.394 135.685L313.433 135.181C313.491 134.327 312.87 133.629 312.017 133.649Z" fill="black"/>
<path opacity="0.2" d="M310.799 148.328L255.869 148.6C255.016 148.6 254.26 149.298 254.201 150.151L254.163 150.655C254.085 151.508 254.725 152.206 255.578 152.187L310.508 151.915C311.361 151.915 312.117 151.217 312.175 150.364L312.214 149.86C312.292 149.026 311.652 148.328 310.799 148.328Z" fill="black"/>
<path opacity="0.2" d="M309.574 163.025L254.644 163.297C253.791 163.297 253.035 163.995 252.977 164.848L252.938 165.352C252.86 166.205 253.5 166.903 254.353 166.884L309.283 166.612C310.136 166.612 310.892 165.914 310.951 165.061L310.989 164.557C311.067 163.723 310.427 163.025 309.574 163.025Z" fill="black"/>
<path d="M302.654 81.0078L300.482 106.388C300.385 107.474 301.2 108.347 302.286 108.347L327.589 108.308L302.654 81.0078Z" fill="#005C8E"/>
<path opacity="0.8" d="M302.654 81.0078L300.482 106.388C300.385 107.474 301.2 108.347 302.286 108.347L327.589 108.308L302.654 81.0078Z" fill="white"/>
<path d="M289.371 199.32H231.979L234.325 172.389H291.717L289.371 199.32Z" fill="#005C8E"/>
<path d="M265.461 280.055L258.248 364.204C258.151 365.29 257.201 366.162 256.116 366.162L178.306 366.298C177.221 366.298 176.426 365.425 176.503 364.34L185.888 254.887C185.985 253.801 186.935 252.929 188.02 252.929L240.449 252.832L265.461 280.055Z" fill="#005C8E"/>
<g opacity="0.6">
<path d="M265.461 280.055L258.248 364.204C258.151 365.29 257.201 366.162 256.116 366.162L178.306 366.298C177.221 366.298 176.426 365.425 176.503 364.34L185.888 254.887C185.985 253.801 186.935 252.929 188.02 252.929L240.449 252.832L265.461 280.055Z" fill="white"/>
</g>
<path opacity="0.2" d="M249.853 305.418L194.924 305.689C194.07 305.689 193.314 306.387 193.256 307.241L193.217 307.745C193.14 308.598 193.78 309.296 194.633 309.276L249.562 309.005C250.416 309.005 251.172 308.307 251.23 307.454L251.269 306.95C251.346 306.097 250.706 305.418 249.853 305.418Z" fill="black"/>
<path opacity="0.2" d="M248.654 320.115L193.724 320.387C192.871 320.387 192.115 321.085 192.057 321.938L192.018 322.442C191.941 323.295 192.58 323.993 193.434 323.974L248.363 323.702C249.216 323.702 249.973 323.004 250.031 322.151L250.07 321.647C250.128 320.794 249.507 320.115 248.654 320.115Z" fill="black"/>
<path opacity="0.2" d="M247.429 334.814L192.5 335.086C191.647 335.086 190.89 335.784 190.832 336.637L190.793 337.141C190.716 337.994 191.356 338.692 192.209 338.673L247.139 338.401C247.992 338.401 248.748 337.703 248.806 336.85L248.845 336.346C248.922 335.493 248.283 334.814 247.429 334.814Z" fill="black"/>
<path d="M240.51 252.777L238.338 278.158C238.241 279.244 239.055 280.116 240.141 280.116L265.444 280.077L240.51 252.777Z" fill="#005C8E"/>
<path opacity="0.8" d="M240.51 252.777L238.338 278.158C238.241 279.244 239.055 280.116 240.141 280.116L265.444 280.077L240.51 252.777Z" fill="white"/>
<path d="M227.212 371.109H169.819L172.185 344.158H229.577L227.212 371.109Z" fill="#005C8E"/>
<path d="M457.291 349.923C459.094 349.923 460.781 348.682 461.072 347.131L471.503 290.708C471.794 289.157 470.553 287.916 468.75 287.916C466.947 287.916 465.26 289.157 464.969 290.708L454.538 347.131C454.266 348.682 455.488 349.923 457.291 349.923Z" fill="#263238"/>
<path opacity="0.5" d="M457.291 349.923C459.094 349.923 460.781 348.682 461.072 347.131L471.503 290.708C471.794 289.157 470.553 287.916 468.75 287.916C466.947 287.916 465.26 289.157 464.969 290.708L454.538 347.131C454.266 348.682 455.488 349.923 457.291 349.923Z" fill="white"/>
<path d="M375.138 349.923H373.936C372.462 349.923 371.473 348.895 371.706 347.654L382.331 290.204C382.564 288.944 383.94 287.936 385.414 287.936H386.616H469.912L458.453 349.942H375.138V349.923Z" fill="#263238"/>
<path opacity="0.8" d="M375.138 349.923H373.936C372.462 349.923 371.473 348.895 371.706 347.654L382.331 290.204C382.564 288.944 383.94 287.936 385.414 287.936H386.616H469.912L458.453 349.942H375.138V349.923Z" fill="white"/>
<path d="M324.767 356.361H410.022V349.924H318.33C318.349 353.472 321.219 356.361 324.767 356.361Z" fill="#263238"/>
<path opacity="0.7" d="M324.767 356.361H410.022V349.924H318.33C318.349 353.472 321.219 356.361 324.767 356.361Z" fill="white"/>
<path d="M400.443 356.361H451.631C455.179 356.361 458.068 353.472 458.068 349.924H394.006C394.006 353.472 396.895 356.361 400.443 356.361Z" fill="#263238"/>
<path opacity="0.5" d="M400.443 356.361H451.631C455.179 356.361 458.068 353.472 458.068 349.924H394.006C394.006 353.472 396.895 356.361 400.443 356.361Z" fill="white"/>
<path opacity="0.2" d="M353.443 349.924C353.404 351.029 352.357 351.921 351.039 351.921H341.131C339.832 351.921 338.765 351.029 338.727 349.924H353.443Z" fill="black"/>
<path d="M378.205 345.056H453.843L463.576 292.434H387.919L378.205 345.056Z" fill="#263238"/>
<path d="M440.192 345.058H393.115L400.91 304.98H447.987L440.192 345.058Z" fill="white"/>
<path d="M438.465 342.866H395.615L402.595 306.918H445.446L438.465 342.866Z" fill="#263238"/>
<path opacity="0.9" d="M438.465 342.866H395.615L402.595 306.918H445.446L438.465 342.866Z" fill="white"/>
<path d="M431.89 342.865H402.264L408.274 311.939H437.901L431.89 342.865Z" fill="white"/>
<path d="M444.999 309.264H402.148L402.594 306.918H445.445L444.999 309.264Z" fill="#263238"/>
<path opacity="0.8" d="M444.999 309.264H402.148L402.594 306.918H445.445L444.999 309.264Z" fill="white"/>
<path d="M438.483 342.71H395.652L395.866 341.547H438.716L438.483 342.71Z" fill="#263238"/>
<path opacity="0.8" d="M438.483 342.71H395.652L395.866 341.547H438.716L438.483 342.71Z" fill="white"/>
<path d="M433.467 316.729H417.975L418.168 315.76H433.661L433.467 316.729Z" fill="#263238"/>
<path d="M432.398 322.237H410.701L410.895 321.268H432.592L432.398 322.237Z" fill="#263238"/>
<path d="M431.331 327.741H409.635L409.809 326.771H431.525L431.331 327.741Z" fill="#263238"/>
<path d="M430.265 333.229H408.568L408.743 332.26H430.439L430.265 333.229Z" fill="#263238"/>
<path d="M424.526 338.737H407.482L407.676 337.768H424.719L424.526 338.737Z" fill="#263238"/>
<path d="M413.416 318.28L412.931 319.54H412.291L414.715 313.258H415.723L415.704 319.54H415.005V318.28H413.416ZM413.609 317.679H415.005V314.053L413.609 317.679Z" fill="white"/>
<path d="M423.148 289.757C423.148 290.261 423.633 290.668 424.215 290.668C424.797 290.668 425.281 290.261 425.281 289.757C425.281 289.253 424.797 288.846 424.215 288.846C423.633 288.846 423.148 289.253 423.148 289.757Z" fill="#263238"/>
<path d="M365.991 259.703C366.805 259.878 367.251 260.983 366.96 262.146C366.67 263.31 365.952 264.143 365.138 263.95C364.323 263.775 363.936 262.67 364.168 261.487C364.343 260.324 365.177 259.548 365.991 259.703Z" fill="#263238"/>
<path d="M368.703 259.934L365.775 259.236C366.318 261.195 368.703 259.934 368.703 259.934Z" fill="#263238"/>
<path d="M363.08 271.257C364.457 271.897 366.066 271.897 367.443 271.257C366.066 268.62 365.038 265.809 364.418 262.9L363.08 271.257Z" fill="#A02724"/>
<path d="M367.988 253.67C368.162 253.34 368.027 252.914 367.697 252.739C365.739 251.518 363.315 251.324 361.202 252.196C360.93 252.371 360.814 252.7 360.911 253.011C361.027 253.379 361.434 253.573 361.803 253.457C363.509 252.797 365.428 252.991 366.999 253.961C367.096 254.019 367.212 254.058 367.329 254.058C367.6 254.058 367.871 253.922 367.988 253.67Z" fill="#263238"/>
<path d="M342.569 281.941C340.01 288.475 338.827 295.668 348.366 299.507C348.366 299.507 356.626 309.803 338.652 307.03C322.249 304.51 317.324 294.951 317.324 294.951C324.207 290.065 327.523 275.387 326.903 266.371L342.569 281.941Z" fill="#B55B52"/>
<path d="M328.956 240.1C335.374 231.277 347.744 229.358 356.547 235.776C369.577 244.753 367.269 266.624 361.569 278.859C355.248 292.47 336.828 292.625 328.025 279.033C322.189 269.959 323.353 263.871 325.33 249.251C325.757 245.936 326.998 242.795 328.956 240.1Z" fill="#B55B52"/>
<path d="M362.325 235.659C359.533 235.523 357.73 232.887 355.015 232.208C340.706 228.679 331.477 232.809 328.103 234.632C323.275 237.249 319.707 239.188 316.198 243.415C313.212 247.002 311.486 251.966 312.475 256.425C312.824 258.015 312.456 259.663 311.583 261.04C311.06 261.873 310.556 262.727 310.187 263.386C309.431 264.724 309.043 266.352 309.489 267.826C309.819 268.951 310.575 269.881 311.118 270.909C311.661 271.936 311.971 273.236 311.389 274.244C308.946 275.097 307.027 278.277 307.201 280.875C307.279 282.213 307.802 283.492 308.016 284.811C308.229 286.129 308.035 287.661 306.969 288.495C311.118 290.666 328.006 292.431 332.66 289.93C333.648 289.387 334.812 289.154 335.878 289.542C337.39 290.104 338.457 291.345 339.775 292.237C342.16 293.866 345.359 294.176 347.996 293.032C349.567 293.439 351.37 292.45 352.301 291.132C350.246 289.891 348.791 287.273 349.005 284.869C349.218 282.484 350.905 280.293 353.154 279.44C356.12 278.335 356.198 273.139 355.209 270.133C354.86 269.067 354.298 268.078 354.104 266.973C353.949 266.081 354.337 264.743 354.938 264.064C356.431 262.319 358.544 261.156 359.611 259.081C360.541 257.278 360.231 254.99 358.816 253.555C356.954 251.694 356.722 247.661 361.394 249.29C363.139 249.891 365.427 250.802 364.458 253.808C362.752 259.178 368.549 257.259 362.79 263.735C366.668 263.25 368.2 261.66 368.064 257.744C368.025 256.503 366.494 255.65 368.064 253.808C369.751 251.83 369.344 249.367 368.064 247.894C366.125 245.645 366.862 244.501 367.405 244.132C368.607 243.337 369.189 241.592 368.976 240.157C368.762 238.723 367.773 237.501 366.532 236.764C365.292 236.028 363.818 235.737 362.383 235.659H362.325Z" fill="#263238"/>
<path d="M355.016 257.88C357.827 260.866 357.401 266.198 356.237 268.932C354.958 271.976 351.797 272.364 349.878 268.467C348.482 265.675 347.977 262.534 348.423 259.451C349.083 256.019 352.204 254.875 355.016 257.88Z" fill="#B55B52"/>
<path d="M295.473 298.56L293.631 301.177C292.7 302.05 284.169 352.132 284.033 353.373C283.975 353.78 283.994 355.622 284.053 356.107C284.149 356.689 284.266 357.27 284.421 357.833C284.848 359.112 285.507 360.314 286.36 361.342C287.562 362.699 289.094 363.708 290.8 364.309C292.099 364.813 293.456 365.084 294.852 365.142C296.578 365.201 331.692 365.491 339.622 360.392L338.052 351.764C330.664 351.26 303.461 348.468 303.461 348.468C301.58 348.952 299.661 349.321 297.741 349.534C297.179 349.631 296.597 349.612 296.035 349.515C295.958 349.515 296.113 349.437 296.714 349.65C297.179 349.825 297.606 350.077 297.993 350.387C298.614 350.872 299.118 351.473 299.486 352.171C299.68 352.501 299.835 352.85 299.932 353.218C300.029 353.509 300.107 353.8 300.126 354.11C300.146 354.323 300.126 354.536 300.087 354.73C300.068 354.944 300.068 354.982 300.068 355.118C300.049 355.584 300.049 355.564 300.049 355.428L301.387 352.52C302.24 350.542 307.087 315.215 307.824 314.517L308.91 313.489L309.821 312.656C309.84 312.694 295.996 298.094 295.473 298.56Z" fill="#B55B52"/>
<path d="M334.252 351.376L345.362 347.42C347.126 346.781 349.104 346.974 350.713 347.944L356.026 351.104C358.023 352.307 359.225 354.498 359.109 356.824C358.973 359.927 356.608 362.447 353.525 362.816L345.091 363.785L335.57 359.597L334.252 351.376Z" fill="#B55B52"/>
<path d="M293.787 300.344C287.913 306.219 285.566 331.561 285.566 331.561L312.459 335.904C316.473 328.439 320.719 310.155 317.21 298.773C315.833 294.488 302.687 291.406 293.787 300.344Z" fill="#005C8E"/>
<path opacity="0.4" d="M293.787 300.344C287.913 306.219 285.566 331.561 285.566 331.561L312.459 335.904C316.473 328.439 320.719 310.155 317.21 298.773C315.833 294.488 302.687 291.406 293.787 300.344Z" fill="black"/>
<path d="M368.703 335.903C368.762 338.986 362.867 350.833 359.106 363.765C355.751 375.302 353.328 392.403 351.176 399.073L288.742 395.409C288.742 395.409 291.418 391.628 292.213 386.024C294.811 367.701 296.692 339.451 292.891 307.944C292.853 307.692 292.833 307.44 292.814 307.188C292.329 299.703 297.991 293.227 305.494 292.723C324.302 291.87 336.789 292.723 354.297 299.665C359.687 301.836 368.316 316.727 368.703 335.903Z" fill="#005C8E"/>
<path d="M228.462 625.656L242.054 632.617L221.308 659.917L207.716 652.976L228.462 625.656Z" fill="#B55B52"/>
<path d="M222.43 661.699C222.352 666.76 220.413 669.843 225.939 680.351C227.161 682.698 222.1 686.265 218.067 681.476C214.034 676.687 210.563 671.82 207.655 668.35C202.905 662.707 200.83 660.768 196.991 656.348C196.913 656.251 196.836 656.154 196.778 656.057C196.099 654.971 196.429 653.536 197.514 652.877L209.206 646.168C209.73 645.858 210.389 645.974 210.777 646.459L221.557 659.295C222.139 659.935 222.449 660.807 222.43 661.699Z" fill="#263238"/>
<path opacity="0.2" d="M228.462 625.656L217.739 639.752L230.517 647.799L242.053 632.598L228.462 625.656Z" fill="black"/>
<path d="M215.955 636.357L235.441 644.655C235.441 644.655 279.377 598.451 304.331 555.852C310.924 544.626 315.189 526.788 317.904 507.34C317.904 507.321 317.904 507.321 317.904 507.321C320.851 486.381 322.014 463.579 322.441 445.179C322.906 424.025 322.383 408.669 322.383 408.669C322.383 408.669 307.181 401.475 292.291 395.426C243.662 448.32 300.221 494.466 275.829 540.903C253.454 583.501 215.955 636.357 215.955 636.357Z" fill="#005C8E"/>
<path opacity="0.4" d="M215.955 636.357L235.441 644.655C235.441 644.655 279.377 598.451 304.331 555.852C310.924 544.626 315.189 526.788 317.904 507.34C317.904 507.321 317.904 507.321 317.904 507.321C320.851 486.381 322.014 463.579 322.441 445.179C322.906 424.025 322.383 408.669 322.383 408.669C322.383 408.669 307.181 401.475 292.291 395.426C243.662 448.32 300.221 494.466 275.829 540.903C253.454 583.501 215.955 636.357 215.955 636.357Z" fill="black"/>
<path d="M243.156 638.434L216.98 629.65L213.917 636.281L236.99 646.771L243.156 638.434Z" fill="#005C8E"/>
<path opacity="0.2" d="M312.086 536.348C313.831 525.664 315.887 516.028 317.903 507.341C317.903 507.322 317.903 507.322 317.903 507.322C320.85 486.382 322.014 463.58 322.44 445.18C322.421 445.16 322.401 445.141 322.382 445.121L321.917 444.986C319.784 443.842 317.283 444.695 314.374 448.069C293.143 458.073 306.638 508.97 312.086 536.348Z" fill="black"/>
<path d="M224.349 668.135C223.36 666.894 222.488 665.575 221.751 664.179C221.673 664.044 221.693 663.888 221.79 663.772C221.887 663.656 222.042 663.617 222.197 663.675C222.895 663.966 229.138 666.681 229.468 668.658C229.545 669.046 229.41 669.434 229.119 669.686C228.654 670.151 227.994 670.364 227.354 670.268C226.152 669.899 225.086 669.143 224.349 668.135ZM222.914 664.78C224.601 667.669 226.288 669.453 227.51 669.647C227.936 669.725 228.382 669.569 228.673 669.259C228.789 669.162 228.847 669.007 228.828 668.852C228.595 667.766 225.396 665.963 222.895 664.8L222.914 664.78Z" fill="#005C8E"/>
<path d="M221.77 664.277C221.712 664.219 221.673 664.161 221.673 664.083C221.654 663.967 221.731 663.851 221.828 663.773C222.061 663.637 227.179 660.264 229.332 662.804L229.467 663.056C230.01 663.87 229.816 664.394 229.564 664.684C228.459 665.945 223.631 665.247 221.847 664.374L221.77 664.277ZM228.828 663.25C227.451 661.601 224.174 663.23 222.836 663.967C224.853 664.646 228.401 664.975 229.06 664.141C229.06 664.141 229.254 663.889 228.905 663.366L228.828 663.25Z" fill="#005C8E"/>
<path d="M352.711 641.731L367.35 640.994L362.076 676.476L347.438 677.194L352.711 641.731Z" fill="#B55B52"/>
<path opacity="0.2" d="M352.705 641.922L349.99 660.206L364.435 660.885L367.344 641.186L352.705 641.922Z" fill="black"/>
<path d="M297.022 405.992C285.02 475.716 363.352 497.645 359.416 547.98C355.81 594.165 348.597 655.764 348.597 655.764L370.294 656.404C370.294 656.404 383.982 596.181 390.458 549.55C396.702 504.683 341.481 409.618 341.481 409.618C341.481 409.618 313.619 407.039 297.022 405.992Z" fill="#005C8E"/>
<path opacity="0.4" d="M297.022 405.992C285.02 475.716 363.352 497.645 359.416 547.98C355.81 594.165 348.597 655.764 348.597 655.764L370.294 656.404C370.294 656.404 383.982 596.181 390.458 549.55C396.702 504.683 341.481 409.618 341.481 409.618C341.481 409.618 313.619 407.039 297.022 405.992Z" fill="black"/>
<path d="M352.63 393.585L350.128 403.066C347.918 411.443 348.267 420.284 351.156 428.466L304.971 443.551L299.29 437.793C286.687 425.015 283.391 405.723 291.03 389.475L352.63 393.585Z" fill="#005C8E"/>
<path opacity="0.4" d="M352.63 393.585L350.128 403.066C347.918 411.443 348.267 420.284 351.156 428.466L304.971 443.551L299.29 437.793C286.687 425.015 283.391 405.723 291.03 389.475L352.63 393.585Z" fill="black"/>
<path d="M292.621 394.847L344.371 397.988C344.972 398.027 345.515 398.356 345.534 398.705L345.883 403.902C345.902 404.231 345.515 404.406 344.952 404.445L291.011 401.168C290.313 401.129 289.732 400.664 289.867 400.276L291.632 395.215C291.845 394.905 292.233 394.75 292.621 394.847Z" fill="#263238"/>
<path d="M374.984 647.352L345.59 648.825L346.133 656.038L373.452 657.279L374.984 647.352Z" fill="#005C8E"/>
<path opacity="0.2" d="M357.247 335.183C358.391 337.355 365.701 333.458 365.934 335.901C366.166 338.441 365.371 340.961 364.596 343.404C364.092 344.936 357.306 352.75 355.832 353.409C353.738 354.34 342.996 353.448 340.728 329.366C340.514 327.098 342.958 315.581 347.146 316.686C348.968 317.171 351.217 323.685 352.09 325.372C353.796 328.649 355.522 331.906 357.247 335.183Z" fill="black"/>
<path d="M354.514 306.723L397.965 365.337C394.165 369.835 385.75 372.743 381.659 368.478C369.444 355.758 347.243 332.433 342.958 321.013C337.064 305.269 354.514 306.723 354.514 306.723Z" fill="#B55B52"/>
<path d="M386.794 351.029C393.561 353.647 401.899 349.478 403.896 357.505C405.738 364.893 397.4 368.15 388.559 371.097C385.36 372.164 380.066 368.926 379.136 364.078C378.205 359.231 381.075 351.708 386.794 351.029Z" fill="#B55B52"/>
<path d="M400.119 352.924L411.132 348.697C412.897 348.018 414.855 348.174 416.484 349.085L421.874 352.11C423.91 353.253 425.151 355.425 425.093 357.752C425.034 360.854 422.727 363.433 419.664 363.879L413.323 364.771L402.116 363.685L400.119 352.924Z" fill="#B55B52"/>
<path d="M365.138 307.494L375.763 325.332C377.392 338.846 352.71 339.001 352.71 339.001C352.71 339.001 339.544 327.697 339.641 311.352C339.68 304.702 343.189 301.658 347.339 300.359C354.144 298.226 361.493 301.367 365.138 307.494Z" fill="#005C8E"/>
<path opacity="0.4" d="M365.138 307.494L375.763 325.332C377.392 338.846 352.71 339.001 352.71 339.001C352.71 339.001 339.544 327.697 339.641 311.352C339.68 304.702 343.189 301.658 347.339 300.359C354.144 298.226 361.493 301.367 365.138 307.494Z" fill="black"/>
<path d="M369.172 675.386C367.601 675.347 366.031 675.154 364.499 674.824C364.344 674.805 364.227 674.669 364.208 674.514C364.189 674.359 364.266 674.223 364.402 674.165C365.1 673.816 371.169 670.81 372.933 671.838C373.282 672.032 373.495 672.4 373.495 672.788C373.554 673.428 373.302 674.068 372.797 674.494C371.75 675.192 370.451 675.503 369.172 675.386ZM365.682 674.32C368.978 674.882 371.421 674.766 372.371 674.01C372.701 673.719 372.875 673.292 372.817 672.866C372.817 672.711 372.739 672.575 372.604 672.497C371.615 671.877 368.183 673.157 365.682 674.32Z" fill="#005C8E"/>
<path d="M364.577 674.823C364.5 674.823 364.442 674.785 364.364 674.746C364.267 674.668 364.209 674.552 364.228 674.416C364.209 674.145 364.985 668.076 368.319 668.076L368.61 668.057C369.56 668.154 369.832 668.638 369.909 669.026C370.161 670.713 366.536 673.912 364.713 674.727L364.577 674.823ZM368.339 668.813C366.187 668.793 365.353 672.322 365.023 673.835C366.885 672.729 369.366 670.228 369.192 669.22C369.192 669.22 369.173 668.89 368.533 668.832L368.339 668.813Z" fill="#005C8E"/>
<path d="M366.67 674.203C370.684 677.344 375.337 680.582 387.068 682.56C389.685 683.006 389.491 689.211 383.228 689.501C376.966 689.792 367.601 689.773 363.064 689.986C355.715 690.335 352.904 690.82 347.068 691.188C346.951 691.188 346.815 691.188 346.699 691.188C345.419 691.072 344.489 689.928 344.624 688.668L346.253 675.308C346.331 674.707 346.815 674.261 347.417 674.223L364.169 673.428C365.061 673.369 365.953 673.641 366.67 674.203Z" fill="#263238"/>
</svg>
