<svg width="81" height="53" viewBox="0 0 81 53" fill="none" xmlns="http://www.w3.org/2000/svg">
<path d="M0 16L0 24L28 24L28 16L0 16Z" fill="url(#paint0_radial_5532_1081)"/>
<path d="M37 53L45 53L45 33L37 33L37 53Z" fill="url(#paint1_radial_5532_1081)"/>
<path fill-rule="evenodd" clip-rule="evenodd" d="M44.8062 32.9512L36.5758 32.9512L36.5758 32.5817C36.5664 30.3536 35.6707 28.2195 34.0837 26.644C32.4967 25.0686 30.347 24.1794 28.1027 24.17L27.7305 24.17L27.7305 15.9994L28.1045 15.9994C32.5316 16.0088 36.7747 17.7588 39.9052 20.8666C43.0357 23.9743 44.7985 28.1867 44.8079 32.5817L44.8062 32.9512Z" fill="url(#paint2_radial_5532_1081)"/>
<defs>
<radialGradient id="paint0_radial_5532_1081" cx="0" cy="0" r="1" gradientUnits="userSpaceOnUse" gradientTransform="translate(14 20) scale(14 4)">
<stop stop-color="#64E1DC"/>
<stop offset="1" stop-color="#4B6179"/>
</radialGradient>
<radialGradient id="paint1_radial_5532_1081" cx="0" cy="0" r="1" gradientUnits="userSpaceOnUse" gradientTransform="translate(41 43) rotate(-90) scale(10 4)">
<stop stop-color="#64E1DC"/>
<stop offset="1" stop-color="#4B6179"/>
</radialGradient>
<radialGradient id="paint2_radial_5532_1081" cx="0" cy="0" r="1" gradientUnits="userSpaceOnUse" gradientTransform="translate(36.2692 24.4753) scale(8.53874 8.47589)">
<stop stop-color="#64E1DC"/>
<stop offset="1" stop-color="#4B6179"/>
</radialGradient>
</defs>
</svg>
