<svg width="85" height="255" viewBox="0 0 85 255" fill="none" xmlns="http://www.w3.org/2000/svg">
<path d="M13.1263 0L21.1262 0L20.9838 92.2049H12.9839L13.1263 0Z" fill="url(#paint0_radial_5610_1147)"/>
<path d="M85 109.174L85 101.174L29 101.174L29 109.174L85 109.174Z" fill="url(#paint1_radial_5610_1147)"/>
<path fill-rule="evenodd" clip-rule="evenodd" d="M12.9248 92.0995L21.1549 92.1617L21.1521 92.5333C21.1446 94.7738 22.0241 96.9266 23.599 98.5229C25.174 100.119 27.3169 101.03 29.5611 101.056L29.9333 101.059L29.8712 109.275L29.4973 109.272C25.0703 109.229 20.8406 107.437 17.7338 104.289C14.6271 101.14 12.8962 96.8907 12.9202 92.4711L12.9248 92.0995Z" fill="url(#paint2_radial_5610_1147)"/>
<defs>
<radialGradient id="paint0_radial_5610_1147" cx="0" cy="0" r="1" gradientUnits="userSpaceOnUse" gradientTransform="translate(17.055 46.1024) rotate(90.0885) scale(46.1025 3.99997)">
<stop stop-color="#C0E3EE"/>
<stop offset="1" stop-color="#67B1C1"/>
</radialGradient>
<radialGradient id="paint1_radial_5610_1147" cx="0" cy="0" r="1" gradientUnits="userSpaceOnUse" gradientTransform="translate(57 105.174) rotate(-180) scale(28 4)">
<stop stop-color="#C0E3EE"/>
<stop offset="1" stop-color="#67B1C1"/>
</radialGradient>
<radialGradient id="paint2_radial_5610_1147" cx="0" cy="0" r="1" gradientUnits="userSpaceOnUse" gradientTransform="translate(21.3971 100.687) rotate(-179.567) scale(8.53874 8.52346)">
<stop stop-color="#C0E3EE"/>
<stop offset="1" stop-color="#67B1C1"/>
</radialGradient>
</defs>
</svg>
