<svg width="131" height="16" viewBox="0 0 131 16" fill="none" xmlns="http://www.w3.org/2000/svg">
<path d="M-1.21739e-06 6L0 14L106 14L106 6L-1.21739e-06 6Z" fill="url(#paint0_radial_5484_6484)"/>
<path d="M105.953 4.8L105.953 16L108.741 16L108.741 4.8L105.953 4.8Z" fill="black"/>
<path d="M108.675 6.93333L108.675 13.8667L113.985 13.8667L113.985 6.93333L108.675 6.93333ZM130.475 16L130.475 4.8L127.687 4.8L127.687 16L130.475 16Z" fill="black"/>
<path d="M127.753 13.8672L127.753 6.93385L122.443 6.93385L122.443 13.8672L127.753 13.8672ZM124.304 0.000519538L113.134 0.00051856L113.134 3.20052L124.304 3.20052L124.304 0.000519538ZM121.964 3.20052L115.049 3.20052L115.049 6.93385L121.964 6.93385L121.964 3.20052Z" fill="black"/>
<path d="M118.241 15.9991C114.862 15.9991 112.124 13.2531 112.124 9.86575C112.124 6.47841 114.862 3.73242 118.241 3.73242C121.619 3.73242 124.358 6.47841 124.358 9.86576C124.358 13.2531 121.619 15.9991 118.241 15.9991Z" fill="#575757"/>
<defs>
<radialGradient id="paint0_radial_5484_6484" cx="0" cy="0" r="1" gradientUnits="userSpaceOnUse" gradientTransform="translate(53 10) scale(53 4)">
<stop stop-color="#C3C3C3"/>
<stop offset="1" stop-color="#808080"/>
</radialGradient>
</defs>
</svg>
