<svg width="133" height="143" viewBox="0 0 133 143" fill="none" xmlns="http://www.w3.org/2000/svg">
<path d="M-1.21739e-06 133L0 141L133 141L133 133L-1.21739e-06 133Z" fill="url(#paint0_radial_5504_971)"/>
<path d="M115.287 109.002L123.287 109.002L123.287 133L115.287 133L115.287 109.002Z" fill="url(#paint1_radial_5504_971)"/>
<path d="M15.5903 61.1212L15.6245 69.1211L38.4822 69.0235L38.4481 61.0235L15.5903 61.1212Z" fill="url(#paint2_radial_5504_971)"/>
<path d="M24 92.0977L24.0342 100.098L38.894 100.034L38.8599 92.0343L24 92.0977Z" fill="url(#paint3_radial_5504_971)"/>
<path d="M9.58569 54L17.5857 54L17.5857 0L9.58569 9.22772e-07L9.58569 54Z" fill="url(#paint4_radial_5504_971)"/>
<path d="M84.8868 69.9531C84.3147 65.778 84.3147 63.5007 84.8868 59.7052L94.2304 59.7052C94.2304 59.7052 94.2304 62.8281 94.2304 64.8291C94.2304 66.8302 94.2304 69.9531 94.2304 69.9531L84.8868 69.9531Z" fill="url(#paint5_linear_5504_971)"/>
<rect x="90.6765" y="71.418" width="1.77684" height="13.176" transform="rotate(180 90.6765 71.418)" fill="url(#paint6_linear_5504_971)"/>
<path d="M94.2205 61.1211L94.2205 69.1211L111.22 69.1211L111.22 61.1211L94.2205 61.1211Z" fill="#B3B8BA"/>
<path d="M117.521 51.1211L125.521 51.1211L125.521 34L117.521 34L117.521 51.1211Z" fill="url(#paint7_radial_5504_971)"/>
<path fill-rule="evenodd" clip-rule="evenodd" d="M107.521 60.8876H109.205C111.397 60.8782 113.497 59.9824 115.047 58.3955C116.597 56.8085 117.472 54.6587 117.481 52.4144V51.1211H125.521V52.4162C125.511 56.8434 123.789 61.0865 120.732 64.2169C117.674 67.3474 113.529 69.1103 109.205 69.1197H107.521V60.8876Z" fill="url(#paint8_radial_5504_971)"/>
<path fill-rule="evenodd" clip-rule="evenodd" d="M108.841 69.1187V60.8883H109.205C111.397 60.8789 113.497 59.9832 115.047 58.3962C116.597 56.8092 117.472 54.6595 117.481 52.4152V52.043H125.52V52.417C125.511 56.8441 123.789 61.0872 120.731 64.2177C117.674 67.3482 113.529 69.111 109.205 69.1204L108.841 69.1187Z" fill="url(#paint9_radial_5504_971)"/>
<path fill-rule="evenodd" clip-rule="evenodd" d="M108.493 59.9658C109.498 60.9707 110.183 62.2511 110.46 63.645C110.737 65.0388 110.595 66.4836 110.051 67.7966C109.507 69.1096 108.585 70.2319 107.403 71.0214C106.221 71.811 104.831 72.2324 103.409 72.2324C101.987 72.2324 100.598 71.811 99.4154 71.0214C98.2332 70.2319 97.3118 69.1096 96.7676 67.7966C96.2235 66.4836 96.0812 65.0388 96.3585 63.645C96.6359 62.2511 97.3206 60.9707 98.3259 59.9658C98.9935 59.2985 99.786 58.7692 100.658 58.4081C101.53 58.047 102.465 57.8611 103.409 57.8611C104.353 57.8611 105.288 58.047 106.16 58.4081C107.033 58.7692 107.825 59.2985 108.493 59.9658Z" fill="#273335"/>
<path fill-rule="evenodd" clip-rule="evenodd" d="M107.193 61.265C107.941 62.0131 108.45 62.9661 108.657 64.0035C108.863 65.0409 108.757 66.1162 108.352 67.0934C107.947 68.0705 107.261 68.9057 106.381 69.4933C105.501 70.0809 104.467 70.3945 103.409 70.3945C102.35 70.3945 101.316 70.0809 100.436 69.4933C99.5561 68.9057 98.8703 68.0705 98.4653 67.0934C98.0602 66.1162 97.9541 65.0409 98.1604 64.0035C98.3667 62.9661 98.8761 62.0131 99.6243 61.265C100.121 60.7682 100.711 60.3742 101.36 60.1053C102.01 59.8365 102.706 59.6981 103.409 59.6981C104.111 59.6981 104.807 59.8365 105.457 60.1053C106.106 60.3742 106.696 60.7682 107.193 61.265Z" fill="#455456"/>
<path fill-rule="evenodd" clip-rule="evenodd" d="M104.977 65.0473C104.968 65.4569 104.799 65.8467 104.506 66.1332C104.213 66.4197 103.819 66.5801 103.409 66.5801C103 66.5801 102.606 66.4197 102.313 66.1332C102.02 65.8467 101.851 65.4569 101.842 65.0473V53.6547C101.851 53.2451 102.02 52.8553 102.313 52.5688C102.606 52.2823 103 52.1219 103.409 52.1219C103.819 52.1219 104.213 52.2823 104.506 52.5688C104.799 52.8553 104.968 53.2451 104.977 53.6547V65.0473Z" fill="#E74657"/>
<path fill-rule="evenodd" clip-rule="evenodd" d="M105.238 63.2204C105.6 63.5819 105.846 64.0426 105.946 64.5442C106.046 65.0458 105.995 65.5658 105.799 66.0383C105.604 66.5108 105.272 66.9147 104.847 67.1989C104.421 67.4831 103.921 67.6348 103.409 67.6348C102.898 67.6348 102.397 67.4831 101.972 67.1989C101.547 66.9147 101.215 66.5108 101.019 66.0383C100.824 65.5658 100.772 65.0458 100.872 64.5442C100.972 64.0426 101.219 63.5819 101.581 63.2204C102.066 62.7358 102.724 62.4636 103.409 62.4636C104.095 62.4636 104.753 62.7358 105.238 63.2204Z" fill="#F5AB29"/>
<path fill-rule="evenodd" clip-rule="evenodd" d="M104.172 63.3454C104.331 63.504 104.439 63.706 104.483 63.926C104.526 64.1459 104.504 64.3739 104.418 64.5812C104.332 64.7884 104.187 64.9655 104 65.0901C103.814 65.2147 103.594 65.2812 103.37 65.2812C103.146 65.2812 102.926 65.2147 102.74 65.0901C102.553 64.9655 102.408 64.7884 102.322 64.5812C102.236 64.3739 102.214 64.1459 102.258 63.926C102.301 63.706 102.409 63.504 102.568 63.3454C102.781 63.1329 103.069 63.0135 103.37 63.0135C103.671 63.0135 103.959 63.1329 104.172 63.3454Z" fill="#F4CD72"/>
<path fill-rule="evenodd" clip-rule="evenodd" d="M104.479 59.8968C104.482 60.0032 104.464 60.1093 104.425 60.2086C104.387 60.308 104.329 60.3986 104.255 60.4751C104.18 60.5515 104.092 60.6123 103.993 60.6539C103.895 60.6954 103.79 60.7168 103.683 60.7168C103.577 60.7168 103.471 60.6954 103.373 60.6539C103.275 60.6123 103.186 60.5515 103.112 60.4751C103.038 60.3986 102.98 60.308 102.941 60.2086C102.903 60.1093 102.884 60.0032 102.888 59.8968V54.1172C102.894 53.9106 102.981 53.7146 103.129 53.5707C103.278 53.4268 103.476 53.3463 103.683 53.3463C103.89 53.3463 104.089 53.4268 104.237 53.5707C104.386 53.7146 104.472 53.9106 104.479 54.1172V59.8968Z" fill="#EB7080"/>
<path fill-rule="evenodd" clip-rule="evenodd" d="M106.819 63.8609C106.778 63.7435 106.784 63.6143 106.838 63.502C106.892 63.3896 106.988 63.3031 107.106 63.2617C107.223 63.2203 107.353 63.2272 107.465 63.2809C107.577 63.3347 107.664 63.4309 107.705 63.5484C107.77 63.7373 107.823 63.93 107.863 64.1256C107.903 64.3216 107.931 64.52 107.946 64.7195C107.95 64.8409 107.907 64.9591 107.826 65.0494C107.744 65.1396 107.631 65.1949 107.51 65.2036C107.389 65.2122 107.269 65.1736 107.176 65.0958C107.083 65.018 107.023 64.9071 107.01 64.7864C106.999 64.6281 106.978 64.4706 106.946 64.3149C106.914 64.1602 106.871 64.0078 106.819 63.8587V63.8609ZM106.671 66.5903C106.697 66.5338 106.734 66.4831 106.78 66.4411C106.826 66.399 106.88 66.3664 106.938 66.3452C106.996 66.324 107.058 66.3146 107.121 66.3175C107.183 66.3205 107.243 66.3356 107.3 66.3622C107.356 66.3888 107.406 66.4263 107.448 66.4725C107.489 66.5186 107.521 66.5726 107.542 66.6312C107.563 66.6898 107.571 66.7519 107.568 66.814C107.564 66.876 107.548 66.9367 107.521 66.9926C107.41 67.2274 107.278 67.4521 107.128 67.664C106.977 67.8777 106.809 68.0782 106.624 68.2633C105.819 69.068 104.741 69.5413 103.604 69.5896C103.401 69.5984 103.197 69.5933 102.995 69.5743C102.793 69.5563 102.592 69.5248 102.393 69.48C102.277 69.4479 102.178 69.3722 102.116 69.2688C102.054 69.1654 102.035 69.0421 102.062 68.9247C102.088 68.8072 102.159 68.7046 102.26 68.6381C102.36 68.5715 102.482 68.5463 102.601 68.5675C102.759 68.6036 102.919 68.629 103.08 68.6435C103.242 68.6578 103.404 68.6614 103.566 68.6542C104.118 68.6281 104.656 68.4767 105.141 68.2113C105.625 67.9459 106.043 67.5735 106.362 67.1226C106.48 66.9545 106.584 66.7764 106.671 66.5903Z" fill="#747F81"/>
<path d="M84.6498 90.4004C84.0777 94.5755 84.0777 96.8528 84.6498 100.648L93.9933 100.648C93.9933 100.648 93.9933 97.5254 93.9933 95.5244C93.9933 93.5233 93.9933 90.4004 93.9933 90.4004L84.6498 90.4004Z" fill="url(#paint10_linear_5504_971)"/>
<rect width="1.77684" height="13.176" transform="matrix(-1 -1.73859e-07 -1.71728e-07 1 90.4395 88.9355)" fill="url(#paint11_linear_5504_971)"/>
<path d="M93.9834 99.2324L93.9834 91.2324L110.983 91.2324L110.983 99.2324L93.9834 99.2324Z" fill="#C0E3EE"/>
<path fill-rule="evenodd" clip-rule="evenodd" d="M105.283 99.466L106.968 99.466C109.16 99.4754 111.26 100.371 112.81 101.958C114.36 103.545 115.235 105.695 115.244 107.939L115.244 109.232L123.283 109.232L123.283 107.937C123.274 103.51 121.552 99.267 118.495 96.1366C115.437 93.0061 111.292 91.2432 106.968 91.2338L105.283 91.2338L105.283 99.466Z" fill="url(#paint12_radial_5504_971)"/>
<path fill-rule="evenodd" clip-rule="evenodd" d="M106.604 91.2349L106.604 99.4652L106.968 99.4652C109.16 99.4746 111.26 100.37 112.81 101.957C114.36 103.544 115.235 105.694 115.244 107.938L115.244 108.311L123.283 108.311L123.283 107.937C123.274 103.509 121.552 99.2663 118.494 96.1358C115.437 93.0054 111.292 91.2425 106.968 91.2331L106.604 91.2349Z" fill="url(#paint13_radial_5504_971)"/>
<path fill-rule="evenodd" clip-rule="evenodd" d="M108.384 90.0938C107.379 89.0884 106.098 88.4038 104.704 88.1264C103.311 87.849 101.866 87.9914 100.553 88.5355C99.2397 89.0796 98.1175 90.001 97.3279 91.1832C96.5384 92.3654 96.1169 93.7553 96.1169 95.1771C96.1169 96.599 96.5384 97.9889 97.3279 99.1711C98.1175 100.353 99.2397 101.275 100.553 101.819C101.866 102.363 103.311 102.505 104.704 102.228C106.098 101.951 107.379 101.266 108.384 100.26C109.051 99.5929 109.58 98.8004 109.941 97.9282C110.302 97.056 110.488 96.1212 110.488 95.1771C110.488 94.2331 110.302 93.2983 109.941 92.4261C109.58 91.5539 109.051 90.7614 108.384 90.0938Z" fill="#273335"/>
<path fill-rule="evenodd" clip-rule="evenodd" d="M107.084 91.3946C106.336 90.6465 105.383 90.1371 104.346 89.9308C103.308 89.7245 102.233 89.8306 101.256 90.2356C100.279 90.6407 99.4437 91.3265 98.8561 92.2064C98.2685 93.0863 97.9548 94.1207 97.9548 95.1789C97.9548 96.2371 98.2685 97.2715 98.8561 98.1514C99.4437 99.0313 100.279 99.7171 101.256 100.122C102.233 100.527 103.308 100.633 104.346 100.427C105.383 100.221 106.336 99.7113 107.084 98.9631C107.581 98.4662 107.975 97.8762 108.244 97.2269C108.513 96.5776 108.651 95.8817 108.651 95.1789C108.651 94.4761 108.513 93.7801 108.244 93.1308C107.975 92.4815 107.581 91.8916 107.084 91.3946Z" fill="#455456"/>
<path fill-rule="evenodd" clip-rule="evenodd" d="M103.302 93.6094C102.892 93.6184 102.503 93.7875 102.216 94.0805C101.93 94.3735 101.769 94.7671 101.769 95.177C101.769 95.5869 101.93 95.9805 102.216 96.2735C102.503 96.5665 102.892 96.7356 103.302 96.7447H114.695C115.104 96.7356 115.494 96.5665 115.781 96.2735C116.067 95.9805 116.227 95.5869 116.227 95.177C116.227 94.7671 116.067 94.3735 115.781 94.0805C115.494 93.7875 115.104 93.6184 114.695 93.6094H103.302Z" fill="#E74657"/>
<path fill-rule="evenodd" clip-rule="evenodd" d="M105.129 93.348C104.767 92.9861 104.307 92.7396 103.805 92.6397C103.304 92.5397 102.784 92.5909 102.311 92.7866C101.839 92.9824 101.435 93.3139 101.15 93.7393C100.866 94.1647 100.715 94.6649 100.715 95.1766C100.715 95.6883 100.866 96.1884 101.15 96.6139C101.435 97.0393 101.839 97.3708 102.311 97.5666C102.784 97.7623 103.304 97.8135 103.805 97.7135C104.307 97.6136 104.767 97.3671 105.129 97.0052C105.614 96.5201 105.886 95.8624 105.886 95.1766C105.886 94.4908 105.614 93.8331 105.129 93.348Z" fill="#F5AB29"/>
<path fill-rule="evenodd" clip-rule="evenodd" d="M105.004 94.4145C104.845 94.2558 104.643 94.1477 104.423 94.1039C104.203 94.0601 103.975 94.0825 103.768 94.1683C103.561 94.2542 103.384 94.3996 103.259 94.5861C103.135 94.7727 103.068 94.992 103.068 95.2164C103.068 95.4408 103.135 95.6601 103.259 95.8467C103.384 96.0332 103.561 96.1786 103.768 96.2645C103.975 96.3503 104.203 96.3727 104.423 96.3289C104.643 96.2851 104.845 96.177 105.004 96.0183C105.216 95.8056 105.336 95.5171 105.336 95.2164C105.336 94.9157 105.216 94.6272 105.004 94.4145Z" fill="#F4CD72"/>
<path fill-rule="evenodd" clip-rule="evenodd" d="M108.453 94.1078C108.346 94.1045 108.24 94.1226 108.141 94.1611C108.041 94.1996 107.951 94.2577 107.874 94.3319C107.798 94.4061 107.737 94.4949 107.695 94.593C107.654 94.6912 107.633 94.7966 107.633 94.9032C107.633 95.0098 107.654 95.1153 107.695 95.2134C107.737 95.3116 107.798 95.4004 107.874 95.4746C107.951 95.5488 108.041 95.6068 108.141 95.6453C108.24 95.6838 108.346 95.7019 108.453 95.6986H114.232C114.439 95.6923 114.635 95.6056 114.779 95.4572C114.923 95.3087 115.003 95.11 115.003 94.9032C115.003 94.6964 114.923 94.4977 114.779 94.3493C114.635 94.2008 114.439 94.1142 114.232 94.1078H108.453Z" fill="#EB7080"/>
<path fill-rule="evenodd" clip-rule="evenodd" d="M104.489 91.7677C104.606 91.8091 104.735 91.8022 104.848 91.7484C104.96 91.6946 105.046 91.5984 105.088 91.4808C105.129 91.3633 105.122 91.2341 105.069 91.1217C105.015 91.0092 104.919 90.9228 104.801 90.8813C104.612 90.8166 104.419 90.764 104.224 90.7238C104.028 90.6834 103.83 90.6557 103.63 90.6409C103.509 90.6367 103.39 90.6798 103.3 90.7611C103.21 90.8423 103.155 90.9554 103.146 91.0765C103.137 91.1977 103.176 91.3175 103.254 91.4108C103.331 91.504 103.442 91.5635 103.563 91.5767C103.721 91.5877 103.879 91.6091 104.035 91.6406C104.189 91.6727 104.342 91.7152 104.491 91.7677H104.489ZM101.759 91.9153C101.816 91.8892 101.866 91.8523 101.908 91.8065C101.95 91.7608 101.983 91.7071 102.004 91.6487C102.025 91.5903 102.035 91.5282 102.032 91.4662C102.029 91.4041 102.014 91.3432 101.987 91.287C101.961 91.2308 101.923 91.1805 101.877 91.1389C101.831 91.0973 101.777 91.0653 101.718 91.0446C101.66 91.024 101.598 91.0153 101.536 91.0188C101.474 91.0224 101.413 91.0382 101.357 91.0654C101.122 91.1767 100.897 91.3083 100.685 91.4588C100.472 91.6093 100.271 91.7778 100.086 91.9624C99.2815 92.7675 98.8082 93.8454 98.7599 94.9828C98.7511 95.1858 98.7562 95.3892 98.7751 95.5915C98.7932 95.7939 98.8247 95.995 98.8694 96.1933C98.9016 96.3094 98.9773 96.4087 99.0807 96.4705C99.1841 96.5323 99.3073 96.5518 99.4248 96.5251C99.5423 96.4984 99.6449 96.4274 99.7114 96.3269C99.778 96.2264 99.8032 96.1042 99.782 95.9856C99.7459 95.8277 99.7204 95.6676 99.706 95.5063C99.6917 95.3449 99.6881 95.1827 99.6953 95.0209C99.7213 94.469 99.8728 93.9303 100.138 93.4458C100.404 92.9614 100.776 92.5438 101.227 92.2249C101.395 92.1064 101.573 92.0028 101.759 91.9153Z" fill="#747F81"/>
<path d="M48.0707 100.947C48.6428 96.7722 48.6428 94.4948 48.0707 90.6993L38.7271 90.6993C38.7271 90.6993 38.7271 93.8222 38.7271 95.8233C38.7271 97.8243 38.7271 100.947 38.7271 100.947L48.0707 100.947Z" fill="url(#paint14_linear_5504_971)"/>
<rect width="1.77684" height="13.176" transform="matrix(1 -9.86176e-10 -3.11736e-09 -1 42.281 102.412)" fill="url(#paint15_linear_5504_971)"/>
<path d="M17.5 83H9.5V77H17.5V83Z" fill="url(#paint16_radial_5504_971)"/>
<path fill-rule="evenodd" clip-rule="evenodd" d="M27.437 91.8817L25.7526 91.8817C23.5604 91.8723 21.4606 90.9766 19.9105 89.3896C18.3603 87.8026 17.4854 85.6529 17.4762 83.4086L17.4762 82.1152L9.43701 82.1152L9.43701 83.4104C9.44623 87.8375 11.1682 92.0806 14.2259 95.2111C17.2837 98.3415 21.4283 100.104 25.7526 100.114L27.437 100.114L27.437 91.8817Z" fill="url(#paint17_radial_5504_971)"/>
<path fill-rule="evenodd" clip-rule="evenodd" d="M26.4999 99.9266L26.3563 91.6975L25.9928 91.7039C23.8007 91.7327 21.6856 90.8738 20.108 89.3141C18.5304 87.7544 17.6181 85.6203 17.5698 83.3764L17.5633 83.0043L9.52528 83.1446L9.53181 83.5185C9.61829 87.9448 11.414 92.1573 14.5259 95.2339C17.6379 98.3105 21.8126 100.001 26.1364 99.9347L26.4999 99.9266Z" fill="url(#paint18_radial_5504_971)"/>
<path d="M47.5639 59.4219C48.1359 63.597 48.1359 65.8743 47.5639 69.6698L38.2203 69.6698C38.2203 69.6698 38.2203 66.5469 38.2203 64.5459C38.2203 62.5448 38.2203 59.4219 38.2203 59.4219L47.5639 59.4219Z" fill="url(#paint19_linear_5504_971)"/>
<rect x="41.7742" y="57.959" width="1.77684" height="13.176" fill="url(#paint20_linear_5504_971)"/>
<path d="M64.668 35.6174C65.743 34.9556 66.3293 34.9556 67.3066 35.6174L67.3066 45.9122C67.3066 45.9122 66.5025 46.4261 65.9873 46.4261C65.4721 46.4261 64.668 45.9122 64.668 45.9122L64.668 35.6174Z" fill="url(#paint21_linear_5504_971)"/>
<path d="M61.1514 43.2564C65.093 42.951 67.243 42.951 70.8263 43.2564L70.8263 48.245C70.8263 48.245 67.8779 48.245 65.9888 48.245C64.0997 48.245 61.1514 48.245 61.1514 48.245L61.1514 43.2564Z" fill="url(#paint22_linear_5504_971)"/>
<path d="M87.5347 53.3828C68.6247 53.3828 59.8293 53.3828 45.317 53.3828L45.317 106.595C45.317 106.595 58.1823 106.595 66.4258 106.595C74.6694 106.595 87.5347 106.595 87.5347 106.595L87.5347 53.3828Z" fill="url(#paint23_linear_5504_971)"/>
<path d="M52.0688 123.883C50.3859 123.883 49.8249 123.883 48.0297 123.883L48.0297 112.252C48.0297 112.252 49.2606 112.252 50.0493 112.252C50.838 112.252 52.0688 112.252 52.0688 112.252L52.0688 123.883Z" fill="url(#paint24_linear_5504_971)"/>
<path d="M83.1395 123.82C81.3072 123.82 80.6964 123.82 78.7419 123.82L78.7419 113.385C78.7419 113.385 80.082 113.385 80.9407 113.385C81.7994 113.385 83.1395 113.385 83.1395 113.385L83.1395 123.82Z" fill="url(#paint25_linear_5504_971)"/>
<path d="M61.5761 36.8613C61.0098 36.1528 61.0098 35.7663 61.5761 35.1221L70.3865 35.1221C70.3865 35.1221 70.8262 35.6521 70.8262 35.9917C70.8262 36.3313 70.3865 36.8613 70.3865 36.8613L61.5761 36.8613Z" fill="url(#paint26_linear_5504_971)"/>
<path d="M60.7715 41.209C60.1022 40.5004 60.1022 40.1139 60.7715 39.4698L71.1838 39.4698C71.1838 39.4698 71.7035 39.9998 71.7035 40.3394C71.7035 40.679 71.1838 41.209 71.1838 41.209L60.7715 41.209Z" fill="url(#paint27_linear_5504_971)"/>
<path d="M60.8823 45.5566C44.4681 45.5566 45.2296 49.7068 45.2296 53.6384L87.5341 54.0753C87.5341 47.4351 85.2073 45.5566 72.7275 45.5566H60.8823Z" fill="url(#paint28_linear_5504_971)"/>
<path d="M60.8825 115.127C44.4684 115.127 45.2298 110.977 45.2299 107.045L87.5343 106.608C87.5343 113.248 85.2075 115.127 72.7278 115.127H60.8825Z" fill="url(#paint29_linear_5504_971)"/>
<rect x="44.4395" y="52.5137" width="43.9767" height="2.60884" rx="1.30442" fill="url(#paint30_linear_5504_971)"/>
<rect x="44.4395" y="104.691" width="43.9767" height="2.60884" rx="1.30442" fill="url(#paint31_linear_5504_971)"/>
<path d="M-1.21739e-06 4.76837e-07L0 8L133 8L133 -1.23714e-06L-1.21739e-06 4.76837e-07Z" fill="url(#paint32_radial_5504_971)"/>
<g clip-path="url(#clip0_5504_971)">
<path d="M19.2 77L8 77L8 74.2122L19.2 74.2122L19.2 77Z" fill="black"/>
<path d="M17.0667 74.2773L10.1333 74.2773L10.1333 68.9672L17.0667 68.9672L17.0667 74.2773ZM8 52.4779L19.2 52.4779L19.2 55.2651L8 55.2651L8 52.4779Z" fill="black"/>
<path d="M10.1333 55.1997L17.0666 55.1997L17.0666 60.5098L10.1333 60.5098L10.1333 55.1997ZM24 58.6481L24 69.8184L20.8 69.8184L20.8 58.6481L24 58.6481ZM20.8 60.9886L20.8 67.9035L17.0666 67.9035L17.0666 60.9886L20.8 60.9886Z" fill="black"/>
<path d="M8.00006 64.7127C8.00006 68.0911 10.746 70.8297 14.1334 70.8297C17.5207 70.8297 20.2667 68.0911 20.2667 64.7127C20.2667 61.3344 17.5207 58.5957 14.1334 58.5957C10.746 58.5957 8.00006 61.3344 8.00006 64.7127Z" fill="#575757"/>
<path d="M11.2 63.1699L11.2 52.5316L16 52.5316L16 63.1699L11.2 63.1699Z" fill="#67B1C1"/>
<path d="M11.2 62.1073L24 62.1073L24 66.8945L13.8666 66.8945C13.1594 66.8945 12.4811 66.6143 11.981 66.1156C11.4809 65.6168 11.2 64.9403 11.2 64.235L11.2 62.1073Z" fill="#67B1C1"/>
</g>
<defs>
<radialGradient id="paint0_radial_5504_971" cx="0" cy="0" r="1" gradientUnits="userSpaceOnUse" gradientTransform="translate(66.5 137) scale(66.5 4)">
<stop stop-color="#C0E3EE"/>
<stop offset="1" stop-color="#67B1C1"/>
</radialGradient>
<radialGradient id="paint1_radial_5504_971" cx="0" cy="0" r="1" gradientUnits="userSpaceOnUse" gradientTransform="translate(119.287 121.001) rotate(90) scale(11.999 4)">
<stop stop-color="#C0E3EE"/>
<stop offset="1" stop-color="#67B1C1"/>
</radialGradient>
<radialGradient id="paint2_radial_5504_971" cx="0" cy="0" r="1" gradientUnits="userSpaceOnUse" gradientTransform="translate(27.0363 65.0723) rotate(-0.244694) scale(11.429 4)">
<stop stop-color="#C0E3EE"/>
<stop offset="1" stop-color="#67B1C1"/>
</radialGradient>
<radialGradient id="paint3_radial_5504_971" cx="0" cy="0" r="1" gradientUnits="userSpaceOnUse" gradientTransform="translate(31.447 96.066) rotate(-0.244694) scale(7.43 4)">
<stop stop-color="#C4C4C4"/>
<stop offset="1" stop-color="#808080"/>
</radialGradient>
<radialGradient id="paint4_radial_5504_971" cx="0" cy="0" r="1" gradientUnits="userSpaceOnUse" gradientTransform="translate(13.5857 27) rotate(-90) scale(27 4)">
<stop stop-color="#C0E3EE"/>
<stop offset="1" stop-color="#67B1C1"/>
</radialGradient>
<linearGradient id="paint5_linear_5504_971" x1="89.5586" y1="69.9531" x2="89.5586" y2="59.7052" gradientUnits="userSpaceOnUse">
<stop stop-color="#595454"/>
<stop offset="0.5" stop-color="#BFB3B3"/>
<stop offset="1" stop-color="#595454"/>
</linearGradient>
<linearGradient id="paint6_linear_5504_971" x1="90.6765" y1="78.0059" x2="92.4534" y2="78.0059" gradientUnits="userSpaceOnUse">
<stop stop-color="#BFB3B3"/>
<stop offset="1" stop-color="#595454"/>
</linearGradient>
<radialGradient id="paint7_radial_5504_971" cx="0" cy="0" r="1" gradientUnits="userSpaceOnUse" gradientTransform="translate(121.521 42.5605) rotate(-90) scale(8.56055 4)">
<stop stop-color="#C4C4C4"/>
<stop offset="1" stop-color="#808080"/>
</radialGradient>
<radialGradient id="paint8_radial_5504_971" cx="0" cy="0" r="1" gradientUnits="userSpaceOnUse" gradientTransform="translate(116.521 60.1204) rotate(90) scale(8.9993 9)">
<stop stop-color="#B3B8BA"/>
<stop offset="1" stop-color="#515354"/>
</radialGradient>
<radialGradient id="paint9_radial_5504_971" cx="0" cy="0" r="1" gradientUnits="userSpaceOnUse" gradientTransform="translate(117.181 60.5817) rotate(90) scale(8.53874 8.33958)">
<stop stop-color="#C4C4C4"/>
<stop offset="1" stop-color="#808080"/>
</radialGradient>
<linearGradient id="paint10_linear_5504_971" x1="89.3215" y1="90.4004" x2="89.3215" y2="100.648" gradientUnits="userSpaceOnUse">
<stop stop-color="#595454"/>
<stop offset="0.5" stop-color="#BFB3B3"/>
<stop offset="1" stop-color="#595454"/>
</linearGradient>
<linearGradient id="paint11_linear_5504_971" x1="0" y1="6.58798" x2="1.77684" y2="6.58798" gradientUnits="userSpaceOnUse">
<stop stop-color="#BFB3B3"/>
<stop offset="1" stop-color="#595454"/>
</linearGradient>
<radialGradient id="paint12_radial_5504_971" cx="0" cy="0" r="1" gradientUnits="userSpaceOnUse" gradientTransform="translate(114.283 100.233) rotate(-90) scale(8.9993 9)">
<stop stop-color="#C0E3EE"/>
<stop offset="1" stop-color="#67B1C1"/>
</radialGradient>
<radialGradient id="paint13_radial_5504_971" cx="0" cy="0" r="1" gradientUnits="userSpaceOnUse" gradientTransform="translate(114.944 99.7718) rotate(-90) scale(8.53874 8.33958)">
<stop stop-color="#C0E3EE"/>
<stop offset="1" stop-color="#67B1C1"/>
</radialGradient>
<linearGradient id="paint14_linear_5504_971" x1="43.3989" y1="100.947" x2="43.3989" y2="90.6993" gradientUnits="userSpaceOnUse">
<stop stop-color="#595454"/>
<stop offset="0.5" stop-color="#BFB3B3"/>
<stop offset="1" stop-color="#595454"/>
</linearGradient>
<linearGradient id="paint15_linear_5504_971" x1="0" y1="6.58798" x2="1.77684" y2="6.58798" gradientUnits="userSpaceOnUse">
<stop stop-color="#BFB3B3"/>
<stop offset="1" stop-color="#595454"/>
</linearGradient>
<radialGradient id="paint16_radial_5504_971" cx="0" cy="0" r="1" gradientUnits="userSpaceOnUse" gradientTransform="translate(13.5 80) rotate(-90) scale(3 4)">
<stop stop-color="#C4C4C4"/>
<stop offset="1" stop-color="#808080"/>
</radialGradient>
<radialGradient id="paint17_radial_5504_971" cx="0" cy="0" r="1" gradientUnits="userSpaceOnUse" gradientTransform="translate(18.437 91.1145) rotate(90) scale(8.9993 9)">
<stop stop-color="#B3B8BA"/>
<stop offset="1" stop-color="#515354"/>
</radialGradient>
<radialGradient id="paint18_radial_5504_971" cx="0" cy="0" r="1" gradientUnits="userSpaceOnUse" gradientTransform="translate(18.0126 91.5365) rotate(89) scale(8.53874 8.33958)">
<stop stop-color="#C4C4C4"/>
<stop offset="1" stop-color="#808080"/>
</radialGradient>
<linearGradient id="paint19_linear_5504_971" x1="42.8921" y1="59.4219" x2="42.8921" y2="69.6698" gradientUnits="userSpaceOnUse">
<stop stop-color="#595454"/>
<stop offset="0.5" stop-color="#BFB3B3"/>
<stop offset="1" stop-color="#595454"/>
</linearGradient>
<linearGradient id="paint20_linear_5504_971" x1="41.7742" y1="64.547" x2="43.551" y2="64.547" gradientUnits="userSpaceOnUse">
<stop stop-color="#BFB3B3"/>
<stop offset="1" stop-color="#595454"/>
</linearGradient>
<linearGradient id="paint21_linear_5504_971" x1="64.668" y1="41.0217" x2="67.3066" y2="41.0217" gradientUnits="userSpaceOnUse">
<stop stop-color="#595454"/>
<stop offset="0.5" stop-color="#B9B3B3"/>
<stop offset="1" stop-color="#595454"/>
</linearGradient>
<linearGradient id="paint22_linear_5504_971" x1="61.1514" y1="45.7507" x2="70.8263" y2="45.7507" gradientUnits="userSpaceOnUse">
<stop stop-color="#595454"/>
<stop offset="0.5" stop-color="#BFB3B3"/>
<stop offset="1" stop-color="#595454"/>
</linearGradient>
<linearGradient id="paint23_linear_5504_971" x1="66.4258" y1="106.595" x2="66.4258" y2="50.9394" gradientUnits="userSpaceOnUse">
<stop stop-color="#FAFAFA"/>
<stop offset="1" stop-color="#74B8FD"/>
</linearGradient>
<linearGradient id="paint24_linear_5504_971" x1="52.0688" y1="118.067" x2="48.0297" y2="118.067" gradientUnits="userSpaceOnUse">
<stop stop-color="#595454"/>
<stop offset="0.5" stop-color="#BFB3B3"/>
<stop offset="1" stop-color="#595454"/>
</linearGradient>
<linearGradient id="paint25_linear_5504_971" x1="83.1395" y1="118.603" x2="78.7419" y2="118.603" gradientUnits="userSpaceOnUse">
<stop stop-color="#595454"/>
<stop offset="0.5" stop-color="#BFB3B3"/>
<stop offset="1" stop-color="#595454"/>
</linearGradient>
<linearGradient id="paint26_linear_5504_971" x1="66.2012" y1="36.8613" x2="66.2012" y2="35.1221" gradientUnits="userSpaceOnUse">
<stop stop-color="#595454"/>
<stop offset="0.5" stop-color="#B9B3B3"/>
<stop offset="1" stop-color="#595454"/>
</linearGradient>
<linearGradient id="paint27_linear_5504_971" x1="66.2375" y1="41.209" x2="66.2375" y2="39.4698" gradientUnits="userSpaceOnUse">
<stop stop-color="#595454"/>
<stop offset="0.5" stop-color="#B9B3B3"/>
<stop offset="1" stop-color="#595454"/>
</linearGradient>
<linearGradient id="paint28_linear_5504_971" x1="87.5341" y1="49.816" x2="45.2241" y2="49.816" gradientUnits="userSpaceOnUse">
<stop stop-color="#595454"/>
<stop offset="0.5" stop-color="#BFB3B3"/>
<stop offset="1" stop-color="#595454"/>
</linearGradient>
<linearGradient id="paint29_linear_5504_971" x1="45.2244" y1="110.868" x2="87.5343" y2="110.868" gradientUnits="userSpaceOnUse">
<stop stop-color="#595454"/>
<stop offset="0.5" stop-color="#BFB3B3"/>
<stop offset="1" stop-color="#595454"/>
</linearGradient>
<linearGradient id="paint30_linear_5504_971" x1="44.4395" y1="53.8181" x2="88.4162" y2="53.8181" gradientUnits="userSpaceOnUse">
<stop stop-color="#595454"/>
<stop offset="0.5" stop-color="#BFB3B3"/>
<stop offset="1" stop-color="#595454"/>
</linearGradient>
<linearGradient id="paint31_linear_5504_971" x1="44.4395" y1="105.996" x2="88.4162" y2="105.996" gradientUnits="userSpaceOnUse">
<stop stop-color="#595454"/>
<stop offset="0.5" stop-color="#BFB3B3"/>
<stop offset="1" stop-color="#595454"/>
</linearGradient>
<radialGradient id="paint32_radial_5504_971" cx="0" cy="0" r="1" gradientUnits="userSpaceOnUse" gradientTransform="translate(66.5 4) scale(66.5 4)">
<stop stop-color="#C0E3EE"/>
<stop offset="1" stop-color="#67B1C1"/>
</radialGradient>
<clipPath id="clip0_5504_971">
<rect width="25" height="16" fill="white" transform="translate(8 77) rotate(-90)"/>
</clipPath>
</defs>
</svg>
