<svg width="133" height="143" viewBox="0 0 133 143" fill="none" xmlns="http://www.w3.org/2000/svg">
<path d="M-1.21739e-06 133L0 141L133 141L133 133L-1.21739e-06 133Z" fill="url(#paint0_radial_5484_6493)"/>
<path d="M115.287 109.002L123.287 109.002L123.287 133L115.287 133L115.287 109.002Z" fill="url(#paint1_radial_5484_6493)"/>
<path d="M15.5903 61.1212L15.6245 69.1211L38.4822 69.0235L38.4481 61.0235L15.5903 61.1212Z" fill="url(#paint2_radial_5484_6493)"/>
<path d="M24 92.0977L24.0342 100.098L38.894 100.034L38.8599 92.0343L24 92.0977Z" fill="url(#paint3_radial_5484_6493)"/>
<path d="M9.58569 54L17.5857 54L17.5857 0L9.58569 9.22772e-07L9.58569 54Z" fill="url(#paint4_radial_5484_6493)"/>
<path d="M84.8868 69.9531C84.3147 65.778 84.3147 63.5007 84.8868 59.7052L94.2304 59.7052C94.2304 59.7052 94.2304 62.8281 94.2304 64.8291C94.2304 66.8302 94.2304 69.9531 94.2304 69.9531L84.8868 69.9531Z" fill="url(#paint5_linear_5484_6493)"/>
<rect x="90.6765" y="71.418" width="1.77684" height="13.176" transform="rotate(180 90.6765 71.418)" fill="url(#paint6_linear_5484_6493)"/>
<path d="M94.2205 61.1211L94.2205 69.1211L111.22 69.1211L111.22 61.1211L94.2205 61.1211Z" fill="#B3B8BA"/>
<path d="M117.521 51.1211L125.521 51.1211L125.521 34L117.521 34L117.521 51.1211Z" fill="url(#paint7_radial_5484_6493)"/>
<path fill-rule="evenodd" clip-rule="evenodd" d="M107.521 60.8876H109.205C111.397 60.8782 113.497 59.9824 115.047 58.3955C116.597 56.8085 117.472 54.6587 117.481 52.4144V51.1211H125.521V52.4162C125.511 56.8434 123.789 61.0865 120.732 64.2169C117.674 67.3474 113.529 69.1103 109.205 69.1197H107.521V60.8876Z" fill="url(#paint8_radial_5484_6493)"/>
<path fill-rule="evenodd" clip-rule="evenodd" d="M108.841 69.1187V60.8883H109.205C111.397 60.8789 113.497 59.9832 115.047 58.3962C116.597 56.8092 117.472 54.6595 117.481 52.4152V52.043H125.52V52.417C125.511 56.8441 123.789 61.0872 120.731 64.2177C117.674 67.3482 113.529 69.111 109.205 69.1204L108.841 69.1187Z" fill="url(#paint9_radial_5484_6493)"/>
<path fill-rule="evenodd" clip-rule="evenodd" d="M108.493 59.9658C109.498 60.9707 110.183 62.2511 110.46 63.645C110.737 65.0388 110.595 66.4836 110.051 67.7966C109.507 69.1096 108.585 70.2319 107.403 71.0214C106.221 71.811 104.831 72.2324 103.409 72.2324C101.987 72.2324 100.598 71.811 99.4154 71.0214C98.2332 70.2319 97.3118 69.1096 96.7676 67.7966C96.2235 66.4836 96.0812 65.0388 96.3585 63.645C96.6359 62.2511 97.3206 60.9707 98.3259 59.9658C98.9935 59.2985 99.786 58.7692 100.658 58.4081C101.53 58.047 102.465 57.8611 103.409 57.8611C104.353 57.8611 105.288 58.047 106.16 58.4081C107.033 58.7692 107.825 59.2985 108.493 59.9658Z" fill="#273335"/>
<path fill-rule="evenodd" clip-rule="evenodd" d="M107.193 61.265C107.941 62.0131 108.45 62.9661 108.657 64.0035C108.863 65.0409 108.757 66.1162 108.352 67.0934C107.947 68.0705 107.261 68.9057 106.381 69.4933C105.501 70.0809 104.467 70.3945 103.409 70.3945C102.35 70.3945 101.316 70.0809 100.436 69.4933C99.5561 68.9057 98.8703 68.0705 98.4653 67.0934C98.0602 66.1162 97.9541 65.0409 98.1604 64.0035C98.3667 62.9661 98.8761 62.0131 99.6243 61.265C100.121 60.7682 100.711 60.3742 101.36 60.1053C102.01 59.8365 102.706 59.6981 103.409 59.6981C104.111 59.6981 104.807 59.8365 105.457 60.1053C106.106 60.3742 106.696 60.7682 107.193 61.265Z" fill="#455456"/>
<path fill-rule="evenodd" clip-rule="evenodd" d="M104.977 65.0473C104.968 65.4569 104.799 65.8467 104.506 66.1332C104.213 66.4197 103.819 66.5801 103.409 66.5801C103 66.5801 102.606 66.4197 102.313 66.1332C102.02 65.8467 101.851 65.4569 101.842 65.0473V53.6547C101.851 53.2451 102.02 52.8553 102.313 52.5688C102.606 52.2823 103 52.1219 103.409 52.1219C103.819 52.1219 104.213 52.2823 104.506 52.5688C104.799 52.8553 104.968 53.2451 104.977 53.6547V65.0473Z" fill="#E74657"/>
<path fill-rule="evenodd" clip-rule="evenodd" d="M105.238 63.2204C105.6 63.5819 105.846 64.0426 105.946 64.5442C106.046 65.0458 105.995 65.5658 105.799 66.0383C105.604 66.5108 105.272 66.9147 104.847 67.1989C104.421 67.4831 103.921 67.6348 103.409 67.6348C102.898 67.6348 102.397 67.4831 101.972 67.1989C101.547 66.9147 101.215 66.5108 101.019 66.0383C100.824 65.5658 100.772 65.0458 100.872 64.5442C100.972 64.0426 101.219 63.5819 101.581 63.2204C102.066 62.7358 102.724 62.4636 103.409 62.4636C104.095 62.4636 104.753 62.7358 105.238 63.2204Z" fill="#F5AB29"/>
<path fill-rule="evenodd" clip-rule="evenodd" d="M104.172 63.3454C104.331 63.504 104.439 63.706 104.483 63.926C104.526 64.1459 104.504 64.3739 104.418 64.5812C104.332 64.7884 104.187 64.9655 104 65.0901C103.814 65.2147 103.594 65.2812 103.37 65.2812C103.146 65.2812 102.926 65.2147 102.74 65.0901C102.553 64.9655 102.408 64.7884 102.322 64.5812C102.236 64.3739 102.214 64.1459 102.258 63.926C102.301 63.706 102.409 63.504 102.568 63.3454C102.781 63.1329 103.069 63.0135 103.37 63.0135C103.671 63.0135 103.959 63.1329 104.172 63.3454Z" fill="#F4CD72"/>
<path fill-rule="evenodd" clip-rule="evenodd" d="M104.479 59.8968C104.482 60.0032 104.464 60.1093 104.425 60.2086C104.387 60.308 104.329 60.3986 104.255 60.4751C104.18 60.5515 104.092 60.6123 103.993 60.6539C103.895 60.6954 103.79 60.7168 103.683 60.7168C103.577 60.7168 103.471 60.6954 103.373 60.6539C103.275 60.6123 103.186 60.5515 103.112 60.4751C103.038 60.3986 102.98 60.308 102.941 60.2086C102.903 60.1093 102.884 60.0032 102.888 59.8968V54.1172C102.894 53.9106 102.981 53.7146 103.129 53.5707C103.278 53.4268 103.476 53.3463 103.683 53.3463C103.89 53.3463 104.089 53.4268 104.237 53.5707C104.386 53.7146 104.472 53.9106 104.479 54.1172V59.8968Z" fill="#EB7080"/>
<path fill-rule="evenodd" clip-rule="evenodd" d="M106.819 63.8609C106.778 63.7435 106.784 63.6143 106.838 63.502C106.892 63.3896 106.988 63.3031 107.106 63.2617C107.223 63.2203 107.353 63.2272 107.465 63.2809C107.577 63.3347 107.664 63.4309 107.705 63.5484C107.77 63.7373 107.823 63.93 107.863 64.1256C107.903 64.3216 107.931 64.52 107.946 64.7195C107.95 64.8409 107.907 64.9591 107.826 65.0494C107.744 65.1396 107.631 65.1949 107.51 65.2036C107.389 65.2122 107.269 65.1736 107.176 65.0958C107.083 65.018 107.023 64.9071 107.01 64.7864C106.999 64.6281 106.978 64.4706 106.946 64.3149C106.914 64.1602 106.871 64.0078 106.819 63.8587V63.8609ZM106.671 66.5903C106.697 66.5338 106.734 66.4831 106.78 66.4411C106.826 66.399 106.88 66.3664 106.938 66.3452C106.996 66.324 107.058 66.3146 107.121 66.3175C107.183 66.3205 107.243 66.3356 107.3 66.3622C107.356 66.3888 107.406 66.4263 107.448 66.4725C107.489 66.5186 107.521 66.5726 107.542 66.6312C107.563 66.6898 107.571 66.7519 107.568 66.814C107.564 66.876 107.548 66.9367 107.521 66.9926C107.41 67.2274 107.278 67.4521 107.128 67.664C106.977 67.8777 106.809 68.0782 106.624 68.2633C105.819 69.068 104.741 69.5413 103.604 69.5896C103.401 69.5984 103.197 69.5933 102.995 69.5743C102.793 69.5563 102.592 69.5248 102.393 69.48C102.277 69.4479 102.178 69.3722 102.116 69.2688C102.054 69.1654 102.035 69.0421 102.062 68.9247C102.088 68.8072 102.159 68.7046 102.26 68.6381C102.36 68.5715 102.482 68.5463 102.601 68.5675C102.759 68.6036 102.919 68.629 103.08 68.6435C103.242 68.6578 103.404 68.6614 103.566 68.6542C104.118 68.6281 104.656 68.4767 105.141 68.2113C105.625 67.9459 106.043 67.5735 106.362 67.1226C106.48 66.9545 106.584 66.7764 106.671 66.5903Z" fill="#747F81"/>
<path d="M84.6498 90.4004C84.0777 94.5755 84.0777 96.8528 84.6498 100.648L93.9933 100.648C93.9933 100.648 93.9933 97.5254 93.9933 95.5244C93.9933 93.5233 93.9933 90.4004 93.9933 90.4004L84.6498 90.4004Z" fill="url(#paint10_linear_5484_6493)"/>
<rect width="1.77684" height="13.176" transform="matrix(-1 -1.73859e-07 -1.71728e-07 1 90.4395 88.9355)" fill="url(#paint11_linear_5484_6493)"/>
<path d="M93.9834 99.2324L93.9834 91.2324L110.983 91.2324L110.983 99.2324L93.9834 99.2324Z" fill="#B3B8BA"/>
<path fill-rule="evenodd" clip-rule="evenodd" d="M105.283 99.466L106.968 99.466C109.16 99.4754 111.26 100.371 112.81 101.958C114.36 103.545 115.235 105.695 115.244 107.939L115.244 109.232L123.283 109.232L123.283 107.937C123.274 103.51 121.552 99.2671 118.495 96.1366C115.437 93.0061 111.292 91.2432 106.968 91.2338L105.283 91.2338L105.283 99.466Z" fill="url(#paint12_radial_5484_6493)"/>
<path fill-rule="evenodd" clip-rule="evenodd" d="M106.604 91.2349L106.604 99.4652L106.968 99.4652C109.16 99.4746 111.26 100.37 112.81 101.957C114.36 103.544 115.235 105.694 115.244 107.938L115.244 108.311L123.283 108.311L123.283 107.937C123.274 103.509 121.552 99.2663 118.494 96.1358C115.437 93.0054 111.292 91.2425 106.968 91.2331L106.604 91.2349Z" fill="url(#paint13_radial_5484_6493)"/>
<path fill-rule="evenodd" clip-rule="evenodd" d="M108.256 100.388C109.261 99.3828 109.946 98.1024 110.223 96.7086C110.5 95.3147 110.358 93.8699 109.814 92.5569C109.27 91.2439 108.348 90.1217 107.166 89.3321C105.984 88.5425 104.594 88.1211 103.172 88.1211C101.75 88.1211 100.361 88.5425 99.1783 89.3321C97.9961 90.1217 97.0747 91.2439 96.5306 92.5569C95.9865 93.8699 95.8441 95.3147 96.1215 96.7086C96.3989 98.1024 97.0835 99.3828 98.0889 100.388C98.7564 101.055 99.5489 101.584 100.421 101.945C101.293 102.307 102.228 102.492 103.172 102.492C104.116 102.492 105.051 102.307 105.923 101.945C106.796 101.584 107.588 101.055 108.256 100.388Z" fill="#273335"/>
<path fill-rule="evenodd" clip-rule="evenodd" d="M106.956 99.0885C107.704 98.3405 108.213 97.3875 108.42 96.35C108.626 95.3126 108.52 94.2373 108.115 93.2602C107.71 92.283 107.024 91.4478 106.144 90.8602C105.264 90.2726 104.23 89.959 103.171 89.959C102.113 89.959 101.079 90.2726 100.199 90.8602C99.3191 91.4478 98.6332 92.283 98.2282 93.2602C97.8232 94.2373 97.7171 95.3126 97.9234 96.35C98.1297 97.3875 98.6391 98.3405 99.3872 99.0885C99.8841 99.5853 100.474 99.9793 101.123 100.248C101.773 100.517 102.469 100.655 103.171 100.655C103.874 100.655 104.57 100.517 105.219 100.248C105.869 99.9793 106.459 99.5853 106.956 99.0885Z" fill="#455456"/>
<path fill-rule="evenodd" clip-rule="evenodd" d="M104.74 95.3062C104.731 94.8966 104.562 94.5069 104.269 94.2204C103.976 93.9339 103.582 93.7734 103.172 93.7734C102.762 93.7734 102.369 93.9339 102.076 94.2204C101.783 94.5069 101.614 94.8966 101.605 95.3062L101.605 106.699C101.614 107.108 101.783 107.498 102.076 107.785C102.369 108.071 102.762 108.232 103.172 108.232C103.582 108.232 103.976 108.071 104.269 107.785C104.562 107.498 104.731 107.108 104.74 106.699L104.74 95.3062Z" fill="#E74657"/>
<path fill-rule="evenodd" clip-rule="evenodd" d="M105.001 97.1331C105.363 96.7716 105.609 96.3109 105.709 95.8093C105.809 95.3077 105.758 94.7877 105.562 94.3152C105.367 93.8427 105.035 93.4388 104.61 93.1546C104.184 92.8704 103.684 92.7187 103.172 92.7187C102.661 92.7187 102.16 92.8704 101.735 93.1546C101.31 93.4388 100.978 93.8427 100.782 94.3152C100.587 94.7877 100.535 95.3077 100.635 95.8093C100.735 96.3109 100.982 96.7716 101.344 97.1331C101.829 97.6177 102.486 97.8899 103.172 97.8899C103.858 97.8899 104.516 97.6177 105.001 97.1331Z" fill="#F5AB29"/>
<path fill-rule="evenodd" clip-rule="evenodd" d="M103.935 97.0081C104.094 96.8496 104.202 96.6475 104.245 96.4276C104.289 96.2076 104.267 95.9796 104.181 95.7724C104.095 95.5651 103.95 95.388 103.763 95.2634C103.577 95.1388 103.357 95.0723 103.133 95.0723C102.909 95.0723 102.689 95.1388 102.503 95.2634C102.316 95.388 102.171 95.5651 102.085 95.7724C101.999 95.9796 101.977 96.2076 102.02 96.4276C102.064 96.6475 102.172 96.8496 102.331 97.0081C102.544 97.2206 102.832 97.34 103.133 97.34C103.434 97.34 103.722 97.2206 103.935 97.0081Z" fill="#F4CD72"/>
<path fill-rule="evenodd" clip-rule="evenodd" d="M104.242 100.457C104.245 100.35 104.227 100.244 104.188 100.145C104.15 100.046 104.092 99.9549 104.017 99.8785C103.943 99.802 103.854 99.7412 103.756 99.6996C103.658 99.6581 103.553 99.6367 103.446 99.6367C103.34 99.6367 103.234 99.6581 103.136 99.6996C103.038 99.7412 102.949 99.802 102.875 99.8785C102.801 99.9549 102.743 100.046 102.704 100.145C102.666 100.244 102.647 100.35 102.651 100.457L102.651 106.236C102.657 106.443 102.744 106.639 102.892 106.783C103.041 106.927 103.239 107.007 103.446 107.007C103.653 107.007 103.852 106.927 104 106.783C104.149 106.639 104.235 106.443 104.242 106.236L104.242 100.457Z" fill="#EB7080"/>
<path fill-rule="evenodd" clip-rule="evenodd" d="M106.582 96.4926C106.54 96.6101 106.547 96.7392 106.601 96.8516C106.655 96.9639 106.751 97.0504 106.869 97.0918C106.986 97.1333 107.116 97.1263 107.228 97.0726C107.34 97.0188 107.427 96.9226 107.468 96.8051C107.533 96.6163 107.586 96.4235 107.626 96.2279C107.666 96.0319 107.694 95.8336 107.709 95.634C107.713 95.5127 107.67 95.3944 107.589 95.3042C107.507 95.2139 107.394 95.1586 107.273 95.15C107.152 95.1413 107.032 95.1799 106.939 95.2577C106.846 95.3355 106.786 95.4464 106.773 95.5671C106.762 95.7255 106.741 95.883 106.709 96.0386C106.677 96.1933 106.634 96.3458 106.582 96.4948L106.582 96.4926ZM106.434 93.7632C106.46 93.8197 106.497 93.8704 106.543 93.9124C106.589 93.9545 106.642 93.9871 106.701 94.0083C106.759 94.0295 106.821 94.0389 106.883 94.036C106.946 94.0331 107.006 94.0179 107.063 93.9913C107.119 93.9647 107.169 93.9272 107.211 93.8811C107.252 93.8349 107.284 93.7809 107.305 93.7223C107.326 93.6637 107.334 93.6016 107.331 93.5396C107.327 93.4775 107.311 93.4168 107.284 93.361C107.173 93.1261 107.041 92.9014 106.891 92.6895C106.74 92.4758 106.572 92.2753 106.387 92.0902C105.582 91.2856 104.504 90.8123 103.367 90.764C103.164 90.7551 102.96 90.7602 102.758 90.7792C102.556 90.7973 102.355 90.8288 102.156 90.8735C102.04 90.9056 101.941 90.9813 101.879 91.0847C101.817 91.1881 101.798 91.3114 101.825 91.4288C101.851 91.5463 101.922 91.6489 102.023 91.7155C102.123 91.782 102.245 91.8073 102.364 91.786C102.522 91.7499 102.682 91.7245 102.843 91.71C103.005 91.6957 103.167 91.6921 103.329 91.6993C103.881 91.7254 104.419 91.8768 104.904 92.1422C105.388 92.4076 105.806 92.78 106.125 93.2309C106.243 93.399 106.347 93.5771 106.434 93.7632Z" fill="#747F81"/>
<path d="M48.0707 100.947C48.6428 96.7722 48.6428 94.4948 48.0707 90.6993L38.7271 90.6993C38.7271 90.6993 38.7271 93.8222 38.7271 95.8233C38.7271 97.8243 38.7271 100.947 38.7271 100.947L48.0707 100.947Z" fill="url(#paint14_linear_5484_6493)"/>
<rect width="1.77684" height="13.176" transform="matrix(1 -9.86176e-10 -3.11736e-09 -1 42.281 102.412)" fill="url(#paint15_linear_5484_6493)"/>
<path d="M17.5 83H9.5V77H17.5V83Z" fill="url(#paint16_radial_5484_6493)"/>
<path fill-rule="evenodd" clip-rule="evenodd" d="M27.437 91.8817L25.7526 91.8817C23.5604 91.8723 21.4606 90.9766 19.9105 89.3896C18.3603 87.8026 17.4854 85.6529 17.4762 83.4086L17.4762 82.1152L9.43701 82.1152L9.43701 83.4104C9.44623 87.8375 11.1682 92.0806 14.2259 95.2111C17.2837 98.3415 21.4283 100.104 25.7526 100.114L27.437 100.114L27.437 91.8817Z" fill="url(#paint17_radial_5484_6493)"/>
<path fill-rule="evenodd" clip-rule="evenodd" d="M26.4999 99.9266L26.3563 91.6975L25.9928 91.7039C23.8007 91.7327 21.6856 90.8738 20.108 89.3141C18.5304 87.7544 17.6181 85.6203 17.5698 83.3764L17.5633 83.0043L9.52528 83.1446L9.53181 83.5185C9.61829 87.9448 11.414 92.1573 14.5259 95.2339C17.6379 98.3105 21.8126 100.001 26.1364 99.9347L26.4999 99.9266Z" fill="url(#paint18_radial_5484_6493)"/>
<path d="M47.5639 59.4219C48.1359 63.597 48.1359 65.8743 47.5639 69.6698L38.2203 69.6698C38.2203 69.6698 38.2203 66.5469 38.2203 64.5459C38.2203 62.5448 38.2203 59.4219 38.2203 59.4219L47.5639 59.4219Z" fill="url(#paint19_linear_5484_6493)"/>
<rect x="41.7742" y="57.959" width="1.77684" height="13.176" fill="url(#paint20_linear_5484_6493)"/>
<path d="M64.668 35.6174C65.743 34.9556 66.3293 34.9556 67.3066 35.6174L67.3066 45.9122C67.3066 45.9122 66.5025 46.4261 65.9873 46.4261C65.4721 46.4261 64.668 45.9122 64.668 45.9122L64.668 35.6174Z" fill="url(#paint21_linear_5484_6493)"/>
<path d="M61.1514 43.2564C65.093 42.951 67.243 42.951 70.8263 43.2564L70.8263 48.245C70.8263 48.245 67.8779 48.245 65.9888 48.245C64.0997 48.245 61.1514 48.245 61.1514 48.245L61.1514 43.2564Z" fill="url(#paint22_linear_5484_6493)"/>
<path d="M87.5345 53.3828C68.6245 53.3828 59.8292 53.3828 45.3169 53.3828L45.3169 106.595C45.3169 106.595 58.1822 106.595 66.4257 106.595C74.6692 106.595 87.5346 106.595 87.5346 106.595L87.5345 53.3828Z" fill="url(#paint23_linear_5484_6493)"/>
<path d="M52.0688 123.883C50.3859 123.883 49.8249 123.883 48.0297 123.883L48.0297 112.252C48.0297 112.252 49.2606 112.252 50.0493 112.252C50.838 112.252 52.0688 112.252 52.0688 112.252L52.0688 123.883Z" fill="url(#paint24_linear_5484_6493)"/>
<path d="M83.1395 123.82C81.3072 123.82 80.6964 123.82 78.7419 123.82L78.7419 113.385C78.7419 113.385 80.082 113.385 80.9407 113.385C81.7994 113.385 83.1395 113.385 83.1395 113.385L83.1395 123.82Z" fill="url(#paint25_linear_5484_6493)"/>
<path d="M61.5761 36.8613C61.0098 36.1528 61.0098 35.7663 61.5761 35.1221L70.3865 35.1221C70.3865 35.1221 70.8263 35.6521 70.8263 35.9917C70.8263 36.3313 70.3865 36.8613 70.3865 36.8613L61.5761 36.8613Z" fill="url(#paint26_linear_5484_6493)"/>
<path d="M60.7715 41.209C60.1022 40.5004 60.1022 40.1139 60.7715 39.4698L71.1838 39.4698C71.1838 39.4698 71.7035 39.9998 71.7035 40.3394C71.7035 40.679 71.1838 41.209 71.1838 41.209L60.7715 41.209Z" fill="url(#paint27_linear_5484_6493)"/>
<path d="M60.8823 45.5566C44.4681 45.5566 45.2296 49.7068 45.2296 53.6384L87.5341 54.0753C87.5341 47.4351 85.2073 45.5566 72.7275 45.5566H60.8823Z" fill="url(#paint28_linear_5484_6493)"/>
<path d="M60.8825 115.127C44.4684 115.127 45.2298 110.977 45.2299 107.045L87.5343 106.608C87.5343 113.248 85.2075 115.127 72.7278 115.127H60.8825Z" fill="url(#paint29_linear_5484_6493)"/>
<rect x="44.4395" y="52.5137" width="43.9767" height="2.60884" rx="1.30442" fill="url(#paint30_linear_5484_6493)"/>
<rect x="44.4395" y="104.691" width="43.9767" height="2.60884" rx="1.30442" fill="url(#paint31_linear_5484_6493)"/>
<g clip-path="url(#clip0_5484_6493)">
<path d="M19.2 78L8 78L8 75.2122L19.2 75.2122L19.2 78Z" fill="black"/>
<path d="M17.0667 75.2773L10.1333 75.2773L10.1333 69.9672L17.0667 69.9672L17.0667 75.2773ZM8 53.4779L19.2 53.4779L19.2 56.2651L8 56.2651L8 53.4779Z" fill="black"/>
<path d="M10.1333 56.1997L17.0666 56.1997L17.0666 61.5098L10.1333 61.5098L10.1333 56.1997ZM24 59.6481L24 70.8184L20.8 70.8184L20.8 59.6481L24 59.6481ZM20.8 61.9886L20.8 68.9035L17.0666 68.9035L17.0666 61.9886L20.8 61.9886Z" fill="black"/>
<path d="M7.99993 65.7127C7.99993 69.0911 10.7459 71.8297 14.1333 71.8297C17.5206 71.8297 20.2666 69.0911 20.2666 65.7127C20.2666 62.3344 17.5206 59.5957 14.1333 59.5957C10.7459 59.5957 7.99993 62.3344 7.99993 65.7127Z" fill="#575757"/>
</g>
<path d="M-1.21739e-06 4.76837e-07L0 8L133 8L133 -1.23714e-06L-1.21739e-06 4.76837e-07Z" fill="url(#paint32_radial_5484_6493)"/>
<defs>
<radialGradient id="paint0_radial_5484_6493" cx="0" cy="0" r="1" gradientUnits="userSpaceOnUse" gradientTransform="translate(66.5 137) scale(66.5 4)">
<stop stop-color="#C4C4C4"/>
<stop offset="1" stop-color="#808080"/>
</radialGradient>
<radialGradient id="paint1_radial_5484_6493" cx="0" cy="0" r="1" gradientUnits="userSpaceOnUse" gradientTransform="translate(119.287 121.001) rotate(90) scale(11.999 4)">
<stop stop-color="#C4C4C4"/>
<stop offset="1" stop-color="#808080"/>
</radialGradient>
<radialGradient id="paint2_radial_5484_6493" cx="0" cy="0" r="1" gradientUnits="userSpaceOnUse" gradientTransform="translate(27.0363 65.0723) rotate(-0.244694) scale(11.429 4)">
<stop stop-color="#C4C4C4"/>
<stop offset="1" stop-color="#808080"/>
</radialGradient>
<radialGradient id="paint3_radial_5484_6493" cx="0" cy="0" r="1" gradientUnits="userSpaceOnUse" gradientTransform="translate(31.447 96.066) rotate(-0.244694) scale(7.43 4)">
<stop stop-color="#C4C4C4"/>
<stop offset="1" stop-color="#808080"/>
</radialGradient>
<radialGradient id="paint4_radial_5484_6493" cx="0" cy="0" r="1" gradientUnits="userSpaceOnUse" gradientTransform="translate(13.5857 27) rotate(-90) scale(27 4)">
<stop stop-color="#C4C4C4"/>
<stop offset="1" stop-color="#808080"/>
</radialGradient>
<linearGradient id="paint5_linear_5484_6493" x1="89.5586" y1="69.9531" x2="89.5586" y2="59.7052" gradientUnits="userSpaceOnUse">
<stop stop-color="#595454"/>
<stop offset="0.5" stop-color="#BFB3B3"/>
<stop offset="1" stop-color="#595454"/>
</linearGradient>
<linearGradient id="paint6_linear_5484_6493" x1="90.6765" y1="78.0059" x2="92.4534" y2="78.0059" gradientUnits="userSpaceOnUse">
<stop stop-color="#BFB3B3"/>
<stop offset="1" stop-color="#595454"/>
</linearGradient>
<radialGradient id="paint7_radial_5484_6493" cx="0" cy="0" r="1" gradientUnits="userSpaceOnUse" gradientTransform="translate(121.521 42.5605) rotate(-90) scale(8.56055 4)">
<stop stop-color="#C4C4C4"/>
<stop offset="1" stop-color="#808080"/>
</radialGradient>
<radialGradient id="paint8_radial_5484_6493" cx="0" cy="0" r="1" gradientUnits="userSpaceOnUse" gradientTransform="translate(116.521 60.1204) rotate(90) scale(8.9993 9)">
<stop stop-color="#B3B8BA"/>
<stop offset="1" stop-color="#515354"/>
</radialGradient>
<radialGradient id="paint9_radial_5484_6493" cx="0" cy="0" r="1" gradientUnits="userSpaceOnUse" gradientTransform="translate(117.181 60.5817) rotate(90) scale(8.53874 8.33958)">
<stop stop-color="#C4C4C4"/>
<stop offset="1" stop-color="#808080"/>
</radialGradient>
<linearGradient id="paint10_linear_5484_6493" x1="89.3215" y1="90.4004" x2="89.3215" y2="100.648" gradientUnits="userSpaceOnUse">
<stop stop-color="#595454"/>
<stop offset="0.5" stop-color="#BFB3B3"/>
<stop offset="1" stop-color="#595454"/>
</linearGradient>
<linearGradient id="paint11_linear_5484_6493" x1="0" y1="6.58798" x2="1.77684" y2="6.58798" gradientUnits="userSpaceOnUse">
<stop stop-color="#BFB3B3"/>
<stop offset="1" stop-color="#595454"/>
</linearGradient>
<radialGradient id="paint12_radial_5484_6493" cx="0" cy="0" r="1" gradientUnits="userSpaceOnUse" gradientTransform="translate(114.283 100.233) rotate(-90) scale(8.9993 9)">
<stop stop-color="#B3B8BA"/>
<stop offset="1" stop-color="#515354"/>
</radialGradient>
<radialGradient id="paint13_radial_5484_6493" cx="0" cy="0" r="1" gradientUnits="userSpaceOnUse" gradientTransform="translate(114.944 99.7718) rotate(-90) scale(8.53874 8.33958)">
<stop stop-color="#C4C4C4"/>
<stop offset="1" stop-color="#808080"/>
</radialGradient>
<linearGradient id="paint14_linear_5484_6493" x1="43.3989" y1="100.947" x2="43.3989" y2="90.6993" gradientUnits="userSpaceOnUse">
<stop stop-color="#595454"/>
<stop offset="0.5" stop-color="#BFB3B3"/>
<stop offset="1" stop-color="#595454"/>
</linearGradient>
<linearGradient id="paint15_linear_5484_6493" x1="0" y1="6.58798" x2="1.77684" y2="6.58798" gradientUnits="userSpaceOnUse">
<stop stop-color="#BFB3B3"/>
<stop offset="1" stop-color="#595454"/>
</linearGradient>
<radialGradient id="paint16_radial_5484_6493" cx="0" cy="0" r="1" gradientUnits="userSpaceOnUse" gradientTransform="translate(13.5 80) rotate(-90) scale(3 4)">
<stop stop-color="#C4C4C4"/>
<stop offset="1" stop-color="#808080"/>
</radialGradient>
<radialGradient id="paint17_radial_5484_6493" cx="0" cy="0" r="1" gradientUnits="userSpaceOnUse" gradientTransform="translate(18.437 91.1145) rotate(90) scale(8.9993 9)">
<stop stop-color="#B3B8BA"/>
<stop offset="1" stop-color="#515354"/>
</radialGradient>
<radialGradient id="paint18_radial_5484_6493" cx="0" cy="0" r="1" gradientUnits="userSpaceOnUse" gradientTransform="translate(18.0126 91.5365) rotate(89) scale(8.53874 8.33958)">
<stop stop-color="#C4C4C4"/>
<stop offset="1" stop-color="#808080"/>
</radialGradient>
<linearGradient id="paint19_linear_5484_6493" x1="42.8921" y1="59.4219" x2="42.8921" y2="69.6698" gradientUnits="userSpaceOnUse">
<stop stop-color="#595454"/>
<stop offset="0.5" stop-color="#BFB3B3"/>
<stop offset="1" stop-color="#595454"/>
</linearGradient>
<linearGradient id="paint20_linear_5484_6493" x1="41.7742" y1="64.547" x2="43.551" y2="64.547" gradientUnits="userSpaceOnUse">
<stop stop-color="#BFB3B3"/>
<stop offset="1" stop-color="#595454"/>
</linearGradient>
<linearGradient id="paint21_linear_5484_6493" x1="64.668" y1="41.0217" x2="67.3066" y2="41.0217" gradientUnits="userSpaceOnUse">
<stop stop-color="#595454"/>
<stop offset="0.5" stop-color="#B9B3B3"/>
<stop offset="1" stop-color="#595454"/>
</linearGradient>
<linearGradient id="paint22_linear_5484_6493" x1="61.1514" y1="45.7507" x2="70.8263" y2="45.7507" gradientUnits="userSpaceOnUse">
<stop stop-color="#595454"/>
<stop offset="0.5" stop-color="#BFB3B3"/>
<stop offset="1" stop-color="#595454"/>
</linearGradient>
<linearGradient id="paint23_linear_5484_6493" x1="66.4257" y1="106.595" x2="66.4257" y2="50.9394" gradientUnits="userSpaceOnUse">
<stop stop-color="#FAFAFA"/>
<stop offset="1" stop-color="#74B8FD"/>
</linearGradient>
<linearGradient id="paint24_linear_5484_6493" x1="52.0688" y1="118.067" x2="48.0297" y2="118.067" gradientUnits="userSpaceOnUse">
<stop stop-color="#595454"/>
<stop offset="0.5" stop-color="#BFB3B3"/>
<stop offset="1" stop-color="#595454"/>
</linearGradient>
<linearGradient id="paint25_linear_5484_6493" x1="83.1395" y1="118.603" x2="78.7419" y2="118.603" gradientUnits="userSpaceOnUse">
<stop stop-color="#595454"/>
<stop offset="0.5" stop-color="#BFB3B3"/>
<stop offset="1" stop-color="#595454"/>
</linearGradient>
<linearGradient id="paint26_linear_5484_6493" x1="66.2012" y1="36.8613" x2="66.2012" y2="35.1221" gradientUnits="userSpaceOnUse">
<stop stop-color="#595454"/>
<stop offset="0.5" stop-color="#B9B3B3"/>
<stop offset="1" stop-color="#595454"/>
</linearGradient>
<linearGradient id="paint27_linear_5484_6493" x1="66.2375" y1="41.209" x2="66.2375" y2="39.4698" gradientUnits="userSpaceOnUse">
<stop stop-color="#595454"/>
<stop offset="0.5" stop-color="#B9B3B3"/>
<stop offset="1" stop-color="#595454"/>
</linearGradient>
<linearGradient id="paint28_linear_5484_6493" x1="87.5341" y1="49.816" x2="45.2241" y2="49.816" gradientUnits="userSpaceOnUse">
<stop stop-color="#595454"/>
<stop offset="0.5" stop-color="#BFB3B3"/>
<stop offset="1" stop-color="#595454"/>
</linearGradient>
<linearGradient id="paint29_linear_5484_6493" x1="45.2244" y1="110.868" x2="87.5343" y2="110.868" gradientUnits="userSpaceOnUse">
<stop stop-color="#595454"/>
<stop offset="0.5" stop-color="#BFB3B3"/>
<stop offset="1" stop-color="#595454"/>
</linearGradient>
<linearGradient id="paint30_linear_5484_6493" x1="44.4395" y1="53.8181" x2="88.4162" y2="53.8181" gradientUnits="userSpaceOnUse">
<stop stop-color="#595454"/>
<stop offset="0.5" stop-color="#BFB3B3"/>
<stop offset="1" stop-color="#595454"/>
</linearGradient>
<linearGradient id="paint31_linear_5484_6493" x1="44.4395" y1="105.996" x2="88.4162" y2="105.996" gradientUnits="userSpaceOnUse">
<stop stop-color="#595454"/>
<stop offset="0.5" stop-color="#BFB3B3"/>
<stop offset="1" stop-color="#595454"/>
</linearGradient>
<radialGradient id="paint32_radial_5484_6493" cx="0" cy="0" r="1" gradientUnits="userSpaceOnUse" gradientTransform="translate(66.5 4) scale(66.5 4)">
<stop stop-color="#C4C4C4"/>
<stop offset="1" stop-color="#808080"/>
</radialGradient>
<clipPath id="clip0_5484_6493">
<rect width="25" height="16" fill="white" transform="translate(8 78) rotate(-90)"/>
</clipPath>
</defs>
</svg>
