<svg width="126" height="144" viewBox="0 0 126 144" fill="none" xmlns="http://www.w3.org/2000/svg">
<path d="M-1.21816e-06 4.76837e-07L0 8L125.587 8L125.587 -1.16062e-06L-1.21816e-06 4.76837e-07Z" fill="url(#paint0_radial_5484_6494)"/>
<path d="M8.00441 62.2169L8.03857 70.2168L30.8963 70.1192L30.8621 62.1193L8.00441 62.2169Z" fill="url(#paint1_radial_5484_6494)"/>
<path d="M18.7151 93.0567L18.7493 101.057L31.892 101.001L31.8578 93.0006L18.7151 93.0567Z" fill="url(#paint2_radial_5484_6494)"/>
<path d="M2 55L10 55L10 7.28009L2 7.28009L2 55Z" fill="url(#paint3_radial_5484_6494)"/>
<path fill-rule="evenodd" clip-rule="evenodd" d="M115.869 123.284L115.877 124.968C115.895 127.16 116.8 129.256 118.394 130.8C119.987 132.343 122.141 133.209 124.385 133.208L125.678 133.203L125.713 141.242L124.418 141.248C119.99 141.257 115.74 139.553 112.596 136.509C109.453 133.465 107.672 129.328 107.644 125.003L107.637 123.319L115.869 123.284Z" fill="url(#paint4_radial_5484_6494)"/>
<path fill-rule="evenodd" clip-rule="evenodd" d="M107.642 124.639L115.873 124.604L115.874 124.968C115.893 127.16 116.798 129.256 118.391 130.799C119.985 132.343 122.138 133.208 124.383 133.208L124.755 133.206L124.789 141.245L124.415 141.247C119.988 141.257 115.738 139.553 112.594 136.509C109.451 133.464 107.67 129.327 107.642 125.003L107.642 124.639Z" fill="url(#paint5_radial_5484_6494)"/>
<path d="M111 53L119 53L119 34L111 34L111 53Z" fill="url(#paint6_radial_5484_6494)"/>
<path d="M77.301 71.0488C76.7289 66.8737 76.7289 64.5964 77.301 60.8009L86.6446 60.8009C86.6446 60.8009 86.6446 63.9238 86.6446 65.9248C86.6446 67.9259 86.6446 71.0488 86.6446 71.0488L77.301 71.0488Z" fill="url(#paint7_linear_5484_6494)"/>
<rect x="83.0907" y="72.5137" width="1.77684" height="13.176" transform="rotate(180 83.0907 72.5137)" fill="url(#paint8_linear_5484_6494)"/>
<path d="M86.6346 62.2168L86.6346 70.2168L103.635 70.2168L103.635 62.2168L86.6346 62.2168Z" fill="#B3B8BA"/>
<path fill-rule="evenodd" clip-rule="evenodd" d="M100.935 61.9833H102.619C104.811 61.9739 106.911 61.0781 108.461 59.4912C110.011 57.9042 110.886 55.7544 110.895 53.5101V52.2168H118.935V53.5119C118.925 57.9391 117.204 62.1822 114.146 65.3126C111.088 68.4431 106.943 70.206 102.619 70.2154H100.935V61.9833Z" fill="url(#paint9_radial_5484_6494)"/>
<path fill-rule="evenodd" clip-rule="evenodd" d="M102.255 70.2144V61.984H102.619C104.811 61.9746 106.911 61.0789 108.461 59.4919C110.011 57.9049 110.886 55.7552 110.895 53.5109V53.1387H118.935V53.5127C118.925 57.9398 117.203 62.1829 114.146 65.3134C111.088 68.4439 106.943 70.2067 102.619 70.2162L102.255 70.2144Z" fill="url(#paint10_radial_5484_6494)"/>
<path fill-rule="evenodd" clip-rule="evenodd" d="M100.907 61.0615C101.912 62.0664 102.597 63.3468 102.874 64.7407C103.152 66.1345 103.009 67.5793 102.465 68.8923C101.921 70.2053 101 71.3276 99.8174 72.1171C98.6352 72.9067 97.2453 73.3281 95.8235 73.3281C94.4016 73.3281 93.0118 72.9067 91.8296 72.1171C90.6474 71.3276 89.7259 70.2053 89.1818 68.8923C88.6377 67.5793 88.4953 66.1345 88.7727 64.7407C89.0501 63.3468 89.7348 62.0664 90.7401 61.0615C91.4077 60.3942 92.2002 59.8649 93.0724 59.5038C93.9446 59.1427 94.8794 58.9568 95.8235 58.9568C96.7675 58.9568 97.7023 59.1427 98.5745 59.5038C99.4467 59.8649 100.239 60.3942 100.907 61.0615Z" fill="#273335"/>
<path fill-rule="evenodd" clip-rule="evenodd" d="M99.607 62.3607C100.355 63.1088 100.864 64.0618 101.071 65.0992C101.277 66.1366 101.171 67.2119 100.766 68.1891C100.361 69.1662 99.6751 70.0014 98.7952 70.589C97.9153 71.1766 96.8809 71.4902 95.8227 71.4902C94.7645 71.4902 93.7301 71.1766 92.8502 70.589C91.9703 70.0014 91.2845 69.1662 90.8794 68.1891C90.4744 67.2119 90.3683 66.1366 90.5746 65.0992C90.7809 64.0618 91.2903 63.1088 92.0385 62.3607C92.5354 61.8639 93.1254 61.4699 93.7747 61.201C94.424 60.9322 95.1199 60.7938 95.8227 60.7938C96.5255 60.7938 97.2214 60.9322 97.8707 61.201C98.52 61.4699 99.11 61.8639 99.607 62.3607Z" fill="#455456"/>
<path fill-rule="evenodd" clip-rule="evenodd" d="M97.3912 66.143C97.3822 66.5526 97.2131 66.9424 96.9201 67.2289C96.6271 67.5154 96.2335 67.6758 95.8236 67.6758C95.4137 67.6758 95.0201 67.5154 94.7271 67.2289C94.4341 66.9424 94.265 66.5526 94.256 66.143V54.7504C94.265 54.3408 94.4341 53.951 94.7271 53.6645C95.0201 53.378 95.4137 53.2176 95.8236 53.2176C96.2335 53.2176 96.6271 53.378 96.9201 53.6645C97.2131 53.951 97.3822 54.3408 97.3912 54.7504V66.143Z" fill="#E74657"/>
<path fill-rule="evenodd" clip-rule="evenodd" d="M97.6521 64.3161C98.014 64.6776 98.2605 65.1383 98.3605 65.6399C98.4604 66.1415 98.4093 66.6615 98.2135 67.134C98.0178 67.6066 97.6862 68.0104 97.2608 68.2946C96.8354 68.5788 96.3352 68.7305 95.8235 68.7305C95.3119 68.7305 94.8117 68.5788 94.3863 68.2946C93.9608 68.0104 93.6293 67.6066 93.4336 67.134C93.2378 66.6615 93.1867 66.1415 93.2866 65.6399C93.3865 65.1383 93.633 64.6776 93.9949 64.3161C94.48 63.8315 95.1377 63.5593 95.8235 63.5593C96.5093 63.5593 97.1671 63.8315 97.6521 64.3161Z" fill="#F5AB29"/>
<path fill-rule="evenodd" clip-rule="evenodd" d="M96.5861 64.4411C96.7448 64.5997 96.8529 64.8017 96.8967 65.0217C96.9406 65.2416 96.9181 65.4696 96.8323 65.6769C96.7465 65.8841 96.6011 66.0612 96.4145 66.1858C96.2279 66.3104 96.0086 66.377 95.7842 66.377C95.5598 66.377 95.3405 66.3104 95.1539 66.1858C94.9674 66.0612 94.822 65.8841 94.7361 65.6769C94.6503 65.4696 94.6279 65.2416 94.6717 65.0217C94.7155 64.8017 94.8236 64.5997 94.9823 64.4411C95.195 64.2286 95.4835 64.1092 95.7842 64.1092C96.085 64.1092 96.3734 64.2286 96.5861 64.4411Z" fill="#F4CD72"/>
<path fill-rule="evenodd" clip-rule="evenodd" d="M96.8928 60.9925C96.8961 61.0989 96.878 61.205 96.8395 61.3043C96.801 61.4037 96.7429 61.4943 96.6687 61.5708C96.5945 61.6472 96.5057 61.708 96.4076 61.7496C96.3095 61.7911 96.204 61.8125 96.0974 61.8125C95.9908 61.8125 95.8853 61.7911 95.7872 61.7496C95.689 61.708 95.6002 61.6472 95.526 61.5708C95.4518 61.4943 95.3938 61.4037 95.3553 61.3043C95.3168 61.205 95.2987 61.0989 95.302 60.9925V55.2129C95.3084 55.0063 95.395 54.8103 95.5434 54.6664C95.6919 54.5225 95.8906 54.4421 96.0974 54.4421C96.3042 54.4421 96.5029 54.5225 96.6513 54.6664C96.7998 54.8103 96.8864 55.0063 96.8928 55.2129V60.9925Z" fill="#EB7080"/>
<path fill-rule="evenodd" clip-rule="evenodd" d="M99.2332 64.9567C99.1917 64.8392 99.1987 64.71 99.2524 64.5977C99.3062 64.4853 99.4025 64.3989 99.52 64.3574C99.6376 64.316 99.7668 64.3229 99.8792 64.3766C99.9916 64.4304 100.078 64.5266 100.12 64.6441C100.184 64.833 100.237 65.0257 100.277 65.2213C100.317 65.4173 100.345 65.6157 100.36 65.8152C100.364 65.9366 100.321 66.0548 100.24 66.1451C100.159 66.2353 100.045 66.2906 99.9243 66.2993C99.8032 66.3079 99.6833 66.2693 99.5901 66.1915C99.4968 66.1137 99.4373 66.0028 99.4242 65.8821C99.4131 65.7238 99.3918 65.5663 99.3603 65.4107C99.3281 65.2559 99.2857 65.1035 99.2332 64.9544V64.9567ZM99.0856 67.686C99.1116 67.6295 99.1486 67.5788 99.1943 67.5368C99.2401 67.4947 99.2937 67.4621 99.3521 67.4409C99.4106 67.4197 99.4726 67.4103 99.5347 67.4132C99.5968 67.4162 99.6577 67.4313 99.7139 67.4579C99.77 67.4845 99.8204 67.522 99.862 67.5682C99.9036 67.6143 99.9356 67.6683 99.9562 67.7269C99.9768 67.7855 99.9856 67.8476 99.982 67.9097C99.9784 67.9717 99.9626 68.0324 99.9354 68.0883C99.8241 68.3231 99.6925 68.5478 99.5421 68.7597C99.3915 68.9734 99.223 69.1739 99.0384 69.359C98.2334 70.1637 97.1555 70.637 96.018 70.6853C95.815 70.6941 95.6117 70.689 95.4094 70.67C95.2069 70.652 95.0059 70.6205 94.8076 70.5757C94.6914 70.5436 94.5922 70.4679 94.5304 70.3645C94.4686 70.2611 94.449 70.1379 94.4757 70.0204C94.5025 69.9029 94.5735 69.8003 94.6739 69.7338C94.7744 69.6672 94.8967 69.642 95.0153 69.6632C95.1732 69.6993 95.3333 69.7247 95.4946 69.7392C95.656 69.7535 95.8181 69.7571 95.98 69.7499C96.5319 69.7239 97.0705 69.5724 97.555 69.307C98.0395 69.0416 98.4571 68.6693 98.776 68.2183C98.8945 68.0502 98.9981 67.8721 99.0856 67.686Z" fill="#747F81"/>
<path d="M77.0639 91.4961C76.4919 95.6712 76.4919 97.9485 77.0639 101.744L86.4075 101.744C86.4075 101.744 86.4075 98.6211 86.4075 96.6201C86.4075 94.619 86.4075 91.4961 86.4075 91.4961L77.0639 91.4961Z" fill="url(#paint11_linear_5484_6494)"/>
<rect width="1.77684" height="13.176" transform="matrix(-1 -1.73859e-07 -1.71728e-07 1 82.8536 90.0312)" fill="url(#paint12_linear_5484_6494)"/>
<path d="M86.3976 100.328L86.3976 92.3281L103.398 92.3281L103.398 100.328L86.3976 100.328Z" fill="#B3B8BA"/>
<path d="M107.698 110.328L115.698 110.328L115.698 127.328L107.698 127.328L107.698 110.328Z" fill="url(#paint13_radial_5484_6494)"/>
<path fill-rule="evenodd" clip-rule="evenodd" d="M97.6976 100.562L99.382 100.562C101.574 100.571 103.674 101.467 105.224 103.054C106.774 104.641 107.649 106.79 107.658 109.035L107.658 110.328L115.698 110.328L115.698 109.033C115.688 104.606 113.966 100.363 110.909 97.2323C107.851 94.1018 103.706 92.339 99.382 92.3295L97.6976 92.3295L97.6976 100.562Z" fill="url(#paint14_radial_5484_6494)"/>
<path fill-rule="evenodd" clip-rule="evenodd" d="M99.0183 92.3306L99.0183 100.561L99.3819 100.561C101.574 100.57 103.674 101.466 105.224 103.053C106.774 104.64 107.649 106.79 107.658 109.034L107.658 109.406L115.697 109.406L115.697 109.032C115.688 104.605 113.966 100.362 110.909 97.2315C107.851 94.1011 103.706 92.3382 99.3819 92.3288L99.0183 92.3306Z" fill="url(#paint15_radial_5484_6494)"/>
<path fill-rule="evenodd" clip-rule="evenodd" d="M100.67 101.483C101.675 100.479 102.36 99.1981 102.637 97.8043C102.915 96.4104 102.772 94.9656 102.228 93.6526C101.684 92.3396 100.763 91.2174 99.5803 90.4278C98.3981 89.6382 97.0082 89.2168 95.5864 89.2168C94.1646 89.2168 92.7747 89.6382 91.5925 90.4278C90.4103 91.2174 89.4889 92.3396 88.9448 93.6526C88.4007 94.9656 88.2583 96.4104 88.5357 97.8043C88.813 99.1981 89.4977 100.479 90.5031 101.483C91.1706 102.151 91.9631 102.68 92.8353 103.041C93.7075 103.402 94.6423 103.588 95.5864 103.588C96.5305 103.588 97.4653 103.402 98.3375 103.041C99.2097 102.68 100.002 102.151 100.67 101.483Z" fill="#273335"/>
<path fill-rule="evenodd" clip-rule="evenodd" d="M99.3699 100.184C100.118 99.4362 100.627 98.4832 100.834 97.4457C101.04 96.4083 100.934 95.333 100.529 94.3559C100.124 93.3787 99.438 92.5435 98.5582 91.9559C97.6783 91.3683 96.6438 91.0547 95.5856 91.0547C94.5274 91.0547 93.493 91.3683 92.6131 91.9559C91.7332 92.5435 91.0474 93.3787 90.6424 94.3559C90.2373 95.333 90.1313 96.4083 90.3376 97.4457C90.5439 98.4832 91.0533 99.4362 91.8014 100.184C92.2983 100.681 92.8883 101.075 93.5376 101.344C94.1869 101.613 94.8828 101.751 95.5856 101.751C96.2885 101.751 96.9844 101.613 97.6337 101.344C98.283 101.075 98.873 100.681 99.3699 100.184Z" fill="#455456"/>
<path fill-rule="evenodd" clip-rule="evenodd" d="M97.1542 96.4019C97.1451 95.9923 96.976 95.6026 96.683 95.3161C96.39 95.0296 95.9964 94.8691 95.5865 94.8691C95.1766 94.8691 94.7831 95.0296 94.4901 95.3161C94.197 95.6026 94.0279 95.9923 94.0189 96.4019L94.0189 107.795C94.0279 108.204 94.197 108.594 94.4901 108.88C94.7831 109.167 95.1766 109.327 95.5865 109.327C95.9964 109.327 96.39 109.167 96.683 108.88C96.976 108.594 97.1451 108.204 97.1542 107.795L97.1542 96.4019Z" fill="#E74657"/>
<path fill-rule="evenodd" clip-rule="evenodd" d="M97.4151 98.2288C97.777 97.8673 98.0235 97.4066 98.1234 96.905C98.2233 96.4034 98.1722 95.8834 97.9764 95.4109C97.7807 94.9384 97.4492 94.5345 97.0237 94.2503C96.5983 93.9661 96.0981 93.8145 95.5865 93.8145C95.0748 93.8145 94.5746 93.9661 94.1492 94.2503C93.7238 94.5345 93.3922 94.9384 93.1965 95.4109C93.0008 95.8834 92.9496 96.4034 93.0495 96.905C93.1495 97.4066 93.396 97.8673 93.7579 98.2288C94.2429 98.7134 94.9007 98.9856 95.5865 98.9856C96.2723 98.9856 96.93 98.7134 97.4151 98.2288Z" fill="#F5AB29"/>
<path fill-rule="evenodd" clip-rule="evenodd" d="M96.349 98.1038C96.5078 97.9453 96.6159 97.7432 96.6597 97.5233C96.7035 97.3033 96.6811 97.0753 96.5952 96.8681C96.5094 96.6608 96.364 96.4837 96.1774 96.3591C95.9909 96.2345 95.7715 96.168 95.5472 96.168C95.3228 96.168 95.1034 96.2345 94.9169 96.3591C94.7303 96.4837 94.5849 96.6608 94.4991 96.8681C94.4132 97.0753 94.3908 97.3033 94.4346 97.5233C94.4785 97.7432 94.5866 97.9453 94.7453 98.1038C94.958 98.3163 95.2464 98.4357 95.5472 98.4357C95.8479 98.4357 96.1363 98.3163 96.349 98.1038Z" fill="#F4CD72"/>
<path fill-rule="evenodd" clip-rule="evenodd" d="M96.6557 101.552C96.659 101.446 96.6409 101.34 96.6024 101.241C96.5639 101.141 96.5059 101.051 96.4317 100.974C96.3575 100.898 96.2687 100.837 96.1705 100.795C96.0724 100.754 95.9669 100.732 95.8603 100.732C95.7537 100.732 95.6483 100.754 95.5501 100.795C95.452 100.837 95.3632 100.898 95.289 100.974C95.2148 101.051 95.1567 101.141 95.1182 101.241C95.0797 101.34 95.0616 101.446 95.0649 101.552L95.0649 107.332C95.0713 107.539 95.1579 107.735 95.3064 107.879C95.4548 108.022 95.6535 108.103 95.8603 108.103C96.0671 108.103 96.2658 108.022 96.4143 107.879C96.5627 107.735 96.6494 107.539 96.6557 107.332L96.6557 101.552Z" fill="#EB7080"/>
<path fill-rule="evenodd" clip-rule="evenodd" d="M98.9961 97.5883C98.9547 97.7058 98.9616 97.8349 99.0154 97.9473C99.0692 98.0596 99.1654 98.1461 99.283 98.1875C99.4005 98.229 99.5297 98.222 99.6421 98.1683C99.7546 98.1145 99.841 98.0183 99.8825 97.9008C99.9472 97.712 99.9998 97.5192 100.04 97.3236C100.08 97.1277 100.108 96.9293 100.123 96.7297C100.127 96.6084 100.084 96.4901 100.003 96.3999C99.9215 96.3096 99.8084 96.2543 99.6873 96.2457C99.5661 96.237 99.4463 96.2756 99.353 96.3534C99.2597 96.4312 99.2003 96.5421 99.1871 96.6628C99.1761 96.8212 99.1547 96.9787 99.1232 97.1343C99.0911 97.289 99.0486 97.4415 98.9961 97.5906L98.9961 97.5883ZM98.8485 94.859C98.8746 94.9154 98.9115 94.9661 98.9573 95.0081C99.003 95.0502 99.0567 95.0828 99.1151 95.104C99.1735 95.1252 99.2356 95.1346 99.2976 95.1317C99.3597 95.1288 99.4206 95.1136 99.4768 95.087C99.533 95.0604 99.5833 95.0229 99.6249 94.9768C99.6665 94.9306 99.6985 94.8766 99.7191 94.818C99.7398 94.7594 99.7485 94.6973 99.745 94.6353C99.7414 94.5732 99.7256 94.5125 99.6984 94.4567C99.5871 94.2218 99.4555 93.9971 99.305 93.7852C99.1545 93.5715 98.986 93.371 98.8014 93.1859C97.9963 92.3813 96.9184 91.908 95.781 91.8597C95.578 91.8508 95.3746 91.8559 95.1723 91.8749C94.9699 91.893 94.7688 91.9245 94.5705 91.9692C94.4544 92.0013 94.3551 92.077 94.2933 92.1804C94.2315 92.2838 94.212 92.4071 94.2387 92.5245C94.2654 92.642 94.3364 92.7446 94.4369 92.8112C94.5373 92.8777 94.6596 92.903 94.7782 92.8817C94.9361 92.8456 95.0962 92.8202 95.2575 92.8057C95.4189 92.7914 95.5811 92.7878 95.7429 92.795C96.2948 92.8211 96.8335 92.9725 97.3179 93.2379C97.8024 93.5033 98.22 93.8757 98.5389 94.3266C98.6574 94.4947 98.761 94.6728 98.8485 94.859Z" fill="#747F81"/>
<path d="M40.7055 102.043C41.2775 97.8679 41.2775 95.5905 40.7055 91.795L31.3619 91.795C31.3619 91.795 31.3619 94.9179 31.3619 96.919C31.3619 98.92 31.3619 102.043 31.3619 102.043L40.7055 102.043Z" fill="url(#paint16_linear_5484_6494)"/>
<rect width="1.77684" height="13.176" transform="matrix(1 -9.86176e-10 -3.11736e-09 -1 34.9158 103.508)" fill="url(#paint17_linear_5484_6494)"/>
<path d="M10.0718 83.2109L2.07178 83.2109L2.07178 78L10.0718 78L10.0718 83.2109Z" fill="url(#paint18_radial_5484_6494)"/>
<path fill-rule="evenodd" clip-rule="evenodd" d="M20.0718 92.9774L18.3874 92.9774C16.1952 92.968 14.0954 92.0723 12.5452 90.4853C10.9951 88.8983 10.1202 86.7486 10.111 84.5043L10.111 83.2109L2.07178 83.2109L2.07178 84.5061C2.08099 88.9332 3.80292 93.1763 6.86069 96.3068C9.91846 99.4373 14.063 101.2 18.3874 101.21L20.0718 101.21L20.0718 92.9774Z" fill="url(#paint19_radial_5484_6494)"/>
<path fill-rule="evenodd" clip-rule="evenodd" d="M18.751 101.209L18.751 92.9782L18.3874 92.9782C16.1952 92.9688 14.0954 92.073 12.5453 90.486C10.9951 88.8991 10.1202 86.7493 10.1111 84.505L10.1111 84.1328L2.07182 84.1328L2.07182 84.5068C2.08103 88.9339 3.80295 93.1771 6.86073 96.3075C9.9185 99.438 14.0631 101.201 18.3874 101.21L18.751 101.209Z" fill="url(#paint20_radial_5484_6494)"/>
<path d="M39.9782 60.5176C40.5502 64.6927 40.5502 66.97 39.9782 70.7655L30.6346 70.7655C30.6346 70.7655 30.6346 67.6426 30.6346 65.6416C30.6346 63.6405 30.6346 60.5176 30.6346 60.5176L39.9782 60.5176Z" fill="url(#paint21_linear_5484_6494)"/>
<rect x="34.1885" y="59.0547" width="1.77684" height="13.176" fill="url(#paint22_linear_5484_6494)"/>
<path d="M57.0823 36.7131C58.1573 36.0514 58.7436 36.0514 59.7209 36.7131L59.7209 47.0079C59.7209 47.0079 58.9168 47.5218 58.4016 47.5218C57.8864 47.5218 57.0823 47.0079 57.0823 47.0079L57.0823 36.7131Z" fill="url(#paint23_linear_5484_6494)"/>
<path d="M53.5657 44.3521C57.5073 44.0467 59.6573 44.0467 63.2406 44.3521L63.2406 49.3407C63.2406 49.3407 60.2923 49.3407 58.4031 49.3407C56.514 49.3407 53.5657 49.3407 53.5657 49.3407L53.5657 44.3521Z" fill="url(#paint24_linear_5484_6494)"/>
<path d="M79.9489 54.4785C61.0389 54.4785 52.2435 54.4785 37.7312 54.4785L37.7312 107.69C37.7312 107.69 50.5965 107.69 58.84 107.69C67.0835 107.69 79.9489 107.69 79.9489 107.69L79.9489 54.4785Z" fill="url(#paint25_linear_5484_6494)"/>
<path d="M44.4832 124.979C42.8002 124.979 42.2392 124.978 40.4441 124.979L40.4441 113.348C40.4441 113.348 41.6749 113.348 42.4636 113.348C43.2523 113.348 44.4832 113.348 44.4832 113.348L44.4832 124.979Z" fill="url(#paint26_linear_5484_6494)"/>
<path d="M75.5538 124.916C73.7215 124.916 73.1107 124.916 71.1562 124.916L71.1562 114.481C71.1562 114.481 72.4963 114.481 73.355 114.481C74.2137 114.481 75.5538 114.481 75.5538 114.481L75.5538 124.916Z" fill="url(#paint27_linear_5484_6494)"/>
<path d="M53.9904 37.957C53.4241 37.2485 53.4241 36.862 53.9904 36.2178L62.8008 36.2178C62.8008 36.2178 63.2406 36.7478 63.2406 37.0874C63.2406 37.427 62.8008 37.957 62.8008 37.957L53.9904 37.957Z" fill="url(#paint28_linear_5484_6494)"/>
<path d="M53.1858 42.3047C52.5165 41.5961 52.5165 41.2096 53.1858 40.5655L63.5981 40.5655C63.5981 40.5655 64.1178 41.0955 64.1178 41.4351C64.1178 41.7747 63.5981 42.3047 63.5981 42.3047L53.1858 42.3047Z" fill="url(#paint29_linear_5484_6494)"/>
<path d="M53.2966 46.6523C36.8824 46.6523 37.6439 50.8025 37.6439 54.7341L79.9484 55.171C79.9484 48.5308 77.6216 46.6523 65.1418 46.6523H53.2966Z" fill="url(#paint30_linear_5484_6494)"/>
<path d="M53.2968 116.223C36.8827 116.223 37.6441 112.073 37.6442 108.141L79.9487 107.704C79.9487 114.344 77.6218 116.223 65.1421 116.223H53.2968Z" fill="url(#paint31_linear_5484_6494)"/>
<rect x="36.8538" y="53.6094" width="43.9767" height="2.60884" rx="1.30442" fill="url(#paint32_linear_5484_6494)"/>
<rect x="36.8538" y="105.787" width="43.9767" height="2.60884" rx="1.30442" fill="url(#paint33_linear_5484_6494)"/>
<g clip-path="url(#clip0_5484_6494)">
<path d="M11.2 79L0 79L-1.21857e-07 76.2122L11.2 76.2122L11.2 79Z" fill="black"/>
<path d="M9.06667 76.2773L2.13333 76.2773L2.13333 70.9672L9.06667 70.9672L9.06667 76.2773ZM-9.52885e-07 54.4779L11.2 54.4779L11.2 57.2651L-8.31051e-07 57.2651L-9.52885e-07 54.4779Z" fill="black"/>
<path d="M2.1333 57.1997L9.06663 57.1997L9.06663 62.5098L2.1333 62.5098L2.1333 57.1997ZM16 60.6481L16 71.8184L12.8 71.8184L12.8 60.6481L16 60.6481ZM12.8 62.9886L12.8 69.9035L9.06664 69.9035L9.06663 62.9886L12.8 62.9886Z" fill="black"/>
<path d="M-6.64898e-05 66.7127C-6.63421e-05 70.0911 2.74592 72.8297 6.13327 72.8297C9.52061 72.8297 12.2666 70.0911 12.2666 66.7127C12.2666 63.3344 9.52061 60.5957 6.13327 60.5957C2.74592 60.5957 -6.66375e-05 63.3344 -6.64898e-05 66.7127Z" fill="#575757"/>
</g>
<defs>
<radialGradient id="paint0_radial_5484_6494" cx="0" cy="0" r="1" gradientUnits="userSpaceOnUse" gradientTransform="translate(62.7937 4) scale(62.7937 4)">
<stop stop-color="#C4C4C4"/>
<stop offset="1" stop-color="#808080"/>
</radialGradient>
<radialGradient id="paint1_radial_5484_6494" cx="0" cy="0" r="1" gradientUnits="userSpaceOnUse" gradientTransform="translate(19.4503 66.168) rotate(-0.244694) scale(11.429 4)">
<stop stop-color="#C4C4C4"/>
<stop offset="1" stop-color="#808080"/>
</radialGradient>
<radialGradient id="paint2_radial_5484_6494" cx="0" cy="0" r="1" gradientUnits="userSpaceOnUse" gradientTransform="translate(25.3035 97.0286) rotate(-0.244694) scale(6.57142 4)">
<stop stop-color="#C4C4C4"/>
<stop offset="1" stop-color="#808080"/>
</radialGradient>
<radialGradient id="paint3_radial_5484_6494" cx="0" cy="0" r="1" gradientUnits="userSpaceOnUse" gradientTransform="translate(6 31.14) rotate(-90) scale(23.86 4)">
<stop stop-color="#C4C4C4"/>
<stop offset="1" stop-color="#808080"/>
</radialGradient>
<radialGradient id="paint4_radial_5484_6494" cx="0" cy="0" r="1" gradientUnits="userSpaceOnUse" gradientTransform="translate(116.675 132.281) rotate(179.755) scale(8.9993 9)">
<stop stop-color="#B3B8BA"/>
<stop offset="1" stop-color="#515354"/>
</radialGradient>
<radialGradient id="paint5_radial_5484_6494" cx="0" cy="0" r="1" gradientUnits="userSpaceOnUse" gradientTransform="translate(116.215 132.942) rotate(179.755) scale(8.53874 8.33958)">
<stop stop-color="#C4C4C4"/>
<stop offset="1" stop-color="#808080"/>
</radialGradient>
<radialGradient id="paint6_radial_5484_6494" cx="0" cy="0" r="1" gradientUnits="userSpaceOnUse" gradientTransform="translate(115 43.5) rotate(-90) scale(9.5 4)">
<stop stop-color="#C4C4C4"/>
<stop offset="1" stop-color="#808080"/>
</radialGradient>
<linearGradient id="paint7_linear_5484_6494" x1="81.9728" y1="71.0488" x2="81.9728" y2="60.8009" gradientUnits="userSpaceOnUse">
<stop stop-color="#595454"/>
<stop offset="0.5" stop-color="#BFB3B3"/>
<stop offset="1" stop-color="#595454"/>
</linearGradient>
<linearGradient id="paint8_linear_5484_6494" x1="83.0907" y1="79.1016" x2="84.8675" y2="79.1016" gradientUnits="userSpaceOnUse">
<stop stop-color="#BFB3B3"/>
<stop offset="1" stop-color="#595454"/>
</linearGradient>
<radialGradient id="paint9_radial_5484_6494" cx="0" cy="0" r="1" gradientUnits="userSpaceOnUse" gradientTransform="translate(109.935 61.2161) rotate(90) scale(8.9993 9)">
<stop stop-color="#B3B8BA"/>
<stop offset="1" stop-color="#515354"/>
</radialGradient>
<radialGradient id="paint10_radial_5484_6494" cx="0" cy="0" r="1" gradientUnits="userSpaceOnUse" gradientTransform="translate(110.595 61.6774) rotate(90) scale(8.53874 8.33958)">
<stop stop-color="#C4C4C4"/>
<stop offset="1" stop-color="#808080"/>
</radialGradient>
<linearGradient id="paint11_linear_5484_6494" x1="81.7357" y1="91.4961" x2="81.7357" y2="101.744" gradientUnits="userSpaceOnUse">
<stop stop-color="#595454"/>
<stop offset="0.5" stop-color="#BFB3B3"/>
<stop offset="1" stop-color="#595454"/>
</linearGradient>
<linearGradient id="paint12_linear_5484_6494" x1="0" y1="6.58798" x2="1.77684" y2="6.58798" gradientUnits="userSpaceOnUse">
<stop stop-color="#BFB3B3"/>
<stop offset="1" stop-color="#595454"/>
</linearGradient>
<radialGradient id="paint13_radial_5484_6494" cx="0" cy="0" r="1" gradientUnits="userSpaceOnUse" gradientTransform="translate(111.698 118.828) rotate(90) scale(8.5 4)">
<stop stop-color="#C4C4C4"/>
<stop offset="1" stop-color="#808080"/>
</radialGradient>
<radialGradient id="paint14_radial_5484_6494" cx="0" cy="0" r="1" gradientUnits="userSpaceOnUse" gradientTransform="translate(106.698 101.329) rotate(-90) scale(8.9993 9)">
<stop stop-color="#B3B8BA"/>
<stop offset="1" stop-color="#515354"/>
</radialGradient>
<radialGradient id="paint15_radial_5484_6494" cx="0" cy="0" r="1" gradientUnits="userSpaceOnUse" gradientTransform="translate(107.358 100.868) rotate(-90) scale(8.53874 8.33958)">
<stop stop-color="#C4C4C4"/>
<stop offset="1" stop-color="#808080"/>
</radialGradient>
<linearGradient id="paint16_linear_5484_6494" x1="36.0337" y1="102.043" x2="36.0337" y2="91.795" gradientUnits="userSpaceOnUse">
<stop stop-color="#595454"/>
<stop offset="0.5" stop-color="#BFB3B3"/>
<stop offset="1" stop-color="#595454"/>
</linearGradient>
<linearGradient id="paint17_linear_5484_6494" x1="0" y1="6.58798" x2="1.77684" y2="6.58798" gradientUnits="userSpaceOnUse">
<stop stop-color="#BFB3B3"/>
<stop offset="1" stop-color="#595454"/>
</linearGradient>
<radialGradient id="paint18_radial_5484_6494" cx="0" cy="0" r="1" gradientUnits="userSpaceOnUse" gradientTransform="translate(6.07178 80.6055) rotate(-90) scale(2.60547 4)">
<stop stop-color="#C4C4C4"/>
<stop offset="1" stop-color="#808080"/>
</radialGradient>
<radialGradient id="paint19_radial_5484_6494" cx="0" cy="0" r="1" gradientUnits="userSpaceOnUse" gradientTransform="translate(11.0718 92.2102) rotate(90) scale(8.9993 9)">
<stop stop-color="#B3B8BA"/>
<stop offset="1" stop-color="#515354"/>
</radialGradient>
<radialGradient id="paint20_radial_5484_6494" cx="0" cy="0" r="1" gradientUnits="userSpaceOnUse" gradientTransform="translate(10.4114 92.6716) rotate(90) scale(8.53874 8.33958)">
<stop stop-color="#C4C4C4"/>
<stop offset="1" stop-color="#808080"/>
</radialGradient>
<linearGradient id="paint21_linear_5484_6494" x1="35.3064" y1="60.5176" x2="35.3064" y2="70.7655" gradientUnits="userSpaceOnUse">
<stop stop-color="#595454"/>
<stop offset="0.5" stop-color="#BFB3B3"/>
<stop offset="1" stop-color="#595454"/>
</linearGradient>
<linearGradient id="paint22_linear_5484_6494" x1="34.1885" y1="65.6427" x2="35.9653" y2="65.6427" gradientUnits="userSpaceOnUse">
<stop stop-color="#BFB3B3"/>
<stop offset="1" stop-color="#595454"/>
</linearGradient>
<linearGradient id="paint23_linear_5484_6494" x1="57.0823" y1="42.1174" x2="59.7209" y2="42.1174" gradientUnits="userSpaceOnUse">
<stop stop-color="#595454"/>
<stop offset="0.5" stop-color="#B9B3B3"/>
<stop offset="1" stop-color="#595454"/>
</linearGradient>
<linearGradient id="paint24_linear_5484_6494" x1="53.5657" y1="46.8464" x2="63.2406" y2="46.8464" gradientUnits="userSpaceOnUse">
<stop stop-color="#595454"/>
<stop offset="0.5" stop-color="#BFB3B3"/>
<stop offset="1" stop-color="#595454"/>
</linearGradient>
<linearGradient id="paint25_linear_5484_6494" x1="58.84" y1="107.69" x2="58.84" y2="52.0351" gradientUnits="userSpaceOnUse">
<stop stop-color="#FAFAFA"/>
<stop offset="1" stop-color="#74B8FD"/>
</linearGradient>
<linearGradient id="paint26_linear_5484_6494" x1="44.4832" y1="119.163" x2="40.4441" y2="119.163" gradientUnits="userSpaceOnUse">
<stop stop-color="#595454"/>
<stop offset="0.5" stop-color="#BFB3B3"/>
<stop offset="1" stop-color="#595454"/>
</linearGradient>
<linearGradient id="paint27_linear_5484_6494" x1="75.5538" y1="119.698" x2="71.1562" y2="119.698" gradientUnits="userSpaceOnUse">
<stop stop-color="#595454"/>
<stop offset="0.5" stop-color="#BFB3B3"/>
<stop offset="1" stop-color="#595454"/>
</linearGradient>
<linearGradient id="paint28_linear_5484_6494" x1="58.6155" y1="37.957" x2="58.6155" y2="36.2178" gradientUnits="userSpaceOnUse">
<stop stop-color="#595454"/>
<stop offset="0.5" stop-color="#B9B3B3"/>
<stop offset="1" stop-color="#595454"/>
</linearGradient>
<linearGradient id="paint29_linear_5484_6494" x1="58.6518" y1="42.3047" x2="58.6518" y2="40.5655" gradientUnits="userSpaceOnUse">
<stop stop-color="#595454"/>
<stop offset="0.5" stop-color="#B9B3B3"/>
<stop offset="1" stop-color="#595454"/>
</linearGradient>
<linearGradient id="paint30_linear_5484_6494" x1="79.9484" y1="50.9117" x2="37.6384" y2="50.9117" gradientUnits="userSpaceOnUse">
<stop stop-color="#595454"/>
<stop offset="0.5" stop-color="#BFB3B3"/>
<stop offset="1" stop-color="#595454"/>
</linearGradient>
<linearGradient id="paint31_linear_5484_6494" x1="37.6387" y1="111.963" x2="79.9487" y2="111.963" gradientUnits="userSpaceOnUse">
<stop stop-color="#595454"/>
<stop offset="0.5" stop-color="#BFB3B3"/>
<stop offset="1" stop-color="#595454"/>
</linearGradient>
<linearGradient id="paint32_linear_5484_6494" x1="36.8538" y1="54.9138" x2="80.8305" y2="54.9138" gradientUnits="userSpaceOnUse">
<stop stop-color="#595454"/>
<stop offset="0.5" stop-color="#BFB3B3"/>
<stop offset="1" stop-color="#595454"/>
</linearGradient>
<linearGradient id="paint33_linear_5484_6494" x1="36.8538" y1="107.092" x2="80.8305" y2="107.092" gradientUnits="userSpaceOnUse">
<stop stop-color="#595454"/>
<stop offset="0.5" stop-color="#BFB3B3"/>
<stop offset="1" stop-color="#595454"/>
</linearGradient>
<clipPath id="clip0_5484_6494">
<rect width="25" height="16" fill="white" transform="translate(0 79) rotate(-90)"/>
</clipPath>
</defs>
</svg>
