<svg width="132" height="143" viewBox="0 0 132 143" fill="none" xmlns="http://www.w3.org/2000/svg">
<path d="M115.287 109.002L123.287 109.002L123.287 127.002L115.287 127.002L115.287 109.002Z" fill="url(#paint0_radial_5505_1079)"/>
<path d="M-1.25169e-06 20.6934L0 28.6934L105.309 28.6934L105.309 20.6934L-1.25169e-06 20.6934Z" fill="url(#paint1_radial_5505_1079)"/>
<path d="M23.8195 61.086L23.8536 69.0859L38.4823 69.0235L38.4481 61.0235L23.8195 61.086Z" fill="url(#paint2_radial_5505_1079)"/>
<path d="M24 92.0977L24.0342 100.098L38.894 100.034L38.8599 92.0343L24 92.0977Z" fill="url(#paint3_radial_5505_1079)"/>
<path d="M9.58569 54L17.5857 54L17.5857 18L9.58569 18L9.58569 54Z" fill="url(#paint4_radial_5505_1079)"/>
<path d="M84.8868 69.9531C84.3147 65.778 84.3147 63.5007 84.8868 59.7052L94.2304 59.7052C94.2304 59.7052 94.2304 62.8281 94.2304 64.8291C94.2304 66.8302 94.2304 69.9531 94.2304 69.9531L84.8868 69.9531Z" fill="url(#paint5_linear_5505_1079)"/>
<rect x="90.6765" y="71.418" width="1.77684" height="13.176" transform="rotate(180 90.6765 71.418)" fill="url(#paint6_linear_5505_1079)"/>
<path d="M94.2205 61.1211L94.2205 69.1211L111.22 69.1211L111.22 61.1211L94.2205 61.1211Z" fill="#B3B8BA"/>
<path d="M115.521 51.1211L123.521 51.1211L123.521 34.1211L115.521 34.1211L115.521 51.1211Z" fill="url(#paint7_radial_5505_1079)"/>
<path fill-rule="evenodd" clip-rule="evenodd" d="M105.521 60.8876H107.205C109.397 60.8782 111.497 59.9824 113.047 58.3955C114.597 56.8085 115.472 54.6587 115.481 52.4144V51.1211H123.521V52.4162C123.511 56.8434 121.789 61.0865 118.732 64.2169C115.674 67.3474 111.529 69.1103 107.205 69.1197H105.521V60.8876Z" fill="url(#paint8_radial_5505_1079)"/>
<path fill-rule="evenodd" clip-rule="evenodd" d="M106.841 69.1187V60.8883H107.205C109.397 60.8789 111.497 59.9832 113.047 58.3962C114.597 56.8092 115.472 54.6595 115.481 52.4152V52.043H123.52V52.417C123.511 56.8441 121.789 61.0872 118.731 64.2177C115.674 67.3482 111.529 69.111 107.205 69.1204L106.841 69.1187Z" fill="url(#paint9_radial_5505_1079)"/>
<path fill-rule="evenodd" clip-rule="evenodd" d="M108.493 59.9658C109.498 60.9707 110.183 62.2511 110.46 63.645C110.737 65.0388 110.595 66.4836 110.051 67.7966C109.507 69.1096 108.585 70.2319 107.403 71.0214C106.221 71.811 104.831 72.2324 103.409 72.2324C101.987 72.2324 100.598 71.811 99.4154 71.0214C98.2332 70.2319 97.3118 69.1096 96.7676 67.7966C96.2235 66.4836 96.0812 65.0388 96.3585 63.645C96.6359 62.2511 97.3206 60.9707 98.3259 59.9658C98.9935 59.2985 99.786 58.7692 100.658 58.4081C101.53 58.047 102.465 57.8611 103.409 57.8611C104.353 57.8611 105.288 58.047 106.16 58.4081C107.033 58.7692 107.825 59.2985 108.493 59.9658Z" fill="#273335"/>
<path fill-rule="evenodd" clip-rule="evenodd" d="M107.193 61.265C107.941 62.0131 108.45 62.9661 108.657 64.0035C108.863 65.0409 108.757 66.1162 108.352 67.0934C107.947 68.0705 107.261 68.9057 106.381 69.4933C105.501 70.0809 104.467 70.3945 103.409 70.3945C102.35 70.3945 101.316 70.0809 100.436 69.4933C99.5561 68.9057 98.8703 68.0705 98.4653 67.0934C98.0602 66.1162 97.9541 65.0409 98.1604 64.0035C98.3667 62.9661 98.8761 62.0131 99.6243 61.265C100.121 60.7682 100.711 60.3742 101.36 60.1053C102.01 59.8365 102.706 59.6981 103.409 59.6981C104.111 59.6981 104.807 59.8365 105.457 60.1053C106.106 60.3742 106.696 60.7682 107.193 61.265Z" fill="#455456"/>
<path fill-rule="evenodd" clip-rule="evenodd" d="M104.977 65.0473C104.968 65.4569 104.799 65.8467 104.506 66.1332C104.213 66.4197 103.819 66.5801 103.409 66.5801C103 66.5801 102.606 66.4197 102.313 66.1332C102.02 65.8467 101.851 65.4569 101.842 65.0473V53.6547C101.851 53.2451 102.02 52.8553 102.313 52.5688C102.606 52.2823 103 52.1219 103.409 52.1219C103.819 52.1219 104.213 52.2823 104.506 52.5688C104.799 52.8553 104.968 53.2451 104.977 53.6547V65.0473Z" fill="#E74657"/>
<path fill-rule="evenodd" clip-rule="evenodd" d="M105.238 63.2204C105.6 63.5819 105.846 64.0426 105.946 64.5442C106.046 65.0458 105.995 65.5658 105.799 66.0383C105.604 66.5108 105.272 66.9147 104.847 67.1989C104.421 67.4831 103.921 67.6348 103.409 67.6348C102.898 67.6348 102.397 67.4831 101.972 67.1989C101.547 66.9147 101.215 66.5108 101.019 66.0383C100.824 65.5658 100.772 65.0458 100.872 64.5442C100.972 64.0426 101.219 63.5819 101.581 63.2204C102.066 62.7358 102.724 62.4636 103.409 62.4636C104.095 62.4636 104.753 62.7358 105.238 63.2204Z" fill="#F5AB29"/>
<path fill-rule="evenodd" clip-rule="evenodd" d="M104.172 63.3454C104.331 63.504 104.439 63.706 104.483 63.926C104.526 64.1459 104.504 64.3739 104.418 64.5812C104.332 64.7884 104.187 64.9655 104 65.0901C103.814 65.2147 103.594 65.2812 103.37 65.2812C103.146 65.2812 102.926 65.2147 102.74 65.0901C102.553 64.9655 102.408 64.7884 102.322 64.5812C102.236 64.3739 102.214 64.1459 102.258 63.926C102.301 63.706 102.409 63.504 102.568 63.3454C102.781 63.1329 103.069 63.0135 103.37 63.0135C103.671 63.0135 103.959 63.1329 104.172 63.3454Z" fill="#F4CD72"/>
<path fill-rule="evenodd" clip-rule="evenodd" d="M104.479 59.8968C104.482 60.0032 104.464 60.1093 104.425 60.2086C104.387 60.308 104.329 60.3986 104.255 60.4751C104.18 60.5515 104.092 60.6123 103.993 60.6539C103.895 60.6954 103.79 60.7168 103.683 60.7168C103.577 60.7168 103.471 60.6954 103.373 60.6539C103.275 60.6123 103.186 60.5515 103.112 60.4751C103.038 60.3986 102.98 60.308 102.941 60.2086C102.903 60.1093 102.884 60.0032 102.888 59.8968V54.1172C102.894 53.9106 102.981 53.7146 103.129 53.5707C103.278 53.4268 103.476 53.3463 103.683 53.3463C103.89 53.3463 104.089 53.4268 104.237 53.5707C104.386 53.7146 104.472 53.9106 104.479 54.1172V59.8968Z" fill="#EB7080"/>
<path fill-rule="evenodd" clip-rule="evenodd" d="M106.819 63.8609C106.778 63.7435 106.784 63.6143 106.838 63.502C106.892 63.3896 106.988 63.3031 107.106 63.2617C107.223 63.2203 107.353 63.2272 107.465 63.2809C107.577 63.3347 107.664 63.4309 107.705 63.5484C107.77 63.7373 107.823 63.93 107.863 64.1256C107.903 64.3216 107.931 64.52 107.946 64.7195C107.95 64.8409 107.907 64.9591 107.826 65.0494C107.744 65.1396 107.631 65.1949 107.51 65.2036C107.389 65.2122 107.269 65.1736 107.176 65.0958C107.083 65.018 107.023 64.9071 107.01 64.7864C106.999 64.6281 106.978 64.4706 106.946 64.3149C106.914 64.1602 106.871 64.0078 106.819 63.8587V63.8609ZM106.671 66.5903C106.697 66.5338 106.734 66.4831 106.78 66.4411C106.826 66.399 106.88 66.3664 106.938 66.3452C106.996 66.324 107.058 66.3146 107.121 66.3175C107.183 66.3205 107.243 66.3356 107.3 66.3622C107.356 66.3888 107.406 66.4263 107.448 66.4725C107.489 66.5186 107.521 66.5726 107.542 66.6312C107.563 66.6898 107.571 66.7519 107.568 66.814C107.564 66.876 107.548 66.9367 107.521 66.9926C107.41 67.2274 107.278 67.4521 107.128 67.664C106.977 67.8777 106.809 68.0782 106.624 68.2633C105.819 69.068 104.741 69.5413 103.604 69.5896C103.401 69.5984 103.197 69.5933 102.995 69.5743C102.793 69.5563 102.592 69.5248 102.393 69.48C102.277 69.4479 102.178 69.3722 102.116 69.2688C102.054 69.1654 102.035 69.0421 102.062 68.9247C102.088 68.8072 102.159 68.7046 102.26 68.6381C102.36 68.5715 102.482 68.5463 102.601 68.5675C102.759 68.6036 102.919 68.629 103.08 68.6435C103.242 68.6578 103.404 68.6614 103.566 68.6542C104.118 68.6281 104.656 68.4767 105.141 68.2113C105.625 67.9459 106.043 67.5735 106.362 67.1226C106.48 66.9545 106.584 66.7764 106.671 66.5903Z" fill="#747F81"/>
<path d="M84.6498 90.4004C84.0777 94.5755 84.0777 96.8528 84.6498 100.648L93.9933 100.648C93.9933 100.648 93.9933 97.5254 93.9933 95.5244C93.9933 93.5233 93.9933 90.4004 93.9933 90.4004L84.6498 90.4004Z" fill="url(#paint10_linear_5505_1079)"/>
<rect width="1.77684" height="13.176" transform="matrix(-1 -1.73859e-07 -1.71728e-07 1 90.4395 88.9355)" fill="url(#paint11_linear_5505_1079)"/>
<path d="M93.9834 99.2324L93.9834 91.2324L110.983 91.2324L110.983 99.2324L93.9834 99.2324Z" fill="#C0E3EE"/>
<path fill-rule="evenodd" clip-rule="evenodd" d="M105.283 99.466L106.968 99.466C109.16 99.4754 111.26 100.371 112.81 101.958C114.36 103.545 115.235 105.695 115.244 107.939L115.244 109.232L123.283 109.232L123.283 107.937C123.274 103.51 121.552 99.267 118.495 96.1366C115.437 93.0061 111.292 91.2432 106.968 91.2338L105.283 91.2338L105.283 99.466Z" fill="url(#paint12_radial_5505_1079)"/>
<path fill-rule="evenodd" clip-rule="evenodd" d="M106.604 91.2349L106.604 99.4652L106.968 99.4652C109.16 99.4746 111.26 100.37 112.81 101.957C114.36 103.544 115.235 105.694 115.244 107.938L115.244 108.311L123.283 108.311L123.283 107.937C123.274 103.509 121.552 99.2663 118.494 96.1358C115.437 93.0054 111.292 91.2425 106.968 91.2331L106.604 91.2349Z" fill="url(#paint13_radial_5505_1079)"/>
<path fill-rule="evenodd" clip-rule="evenodd" d="M108.384 89.0938C107.379 88.0884 106.098 87.4038 104.704 87.1264C103.311 86.849 101.866 86.9914 100.553 87.5355C99.2397 88.0796 98.1175 89.001 97.3279 90.1832C96.5384 91.3654 96.1169 92.7553 96.1169 94.1771C96.1169 95.599 96.5384 96.9889 97.3279 98.1711C98.1175 99.3533 99.2397 100.275 100.553 100.819C101.866 101.363 103.311 101.505 104.704 101.228C106.098 100.951 107.379 100.266 108.384 99.2605C109.051 98.5929 109.58 97.8004 109.941 96.9282C110.302 96.056 110.488 95.1212 110.488 94.1771C110.488 93.2331 110.302 92.2983 109.941 91.4261C109.58 90.5539 109.051 89.7614 108.384 89.0938Z" fill="#273335"/>
<path fill-rule="evenodd" clip-rule="evenodd" d="M107.084 90.3946C106.336 89.6465 105.383 89.1371 104.346 88.9308C103.308 88.7245 102.233 88.8306 101.256 89.2356C100.279 89.6407 99.4437 90.3265 98.8561 91.2064C98.2685 92.0863 97.9548 93.1207 97.9548 94.1789C97.9548 95.2371 98.2685 96.2715 98.8561 97.1514C99.4437 98.0313 100.279 98.7171 101.256 99.1221C102.233 99.5272 103.308 99.6333 104.346 99.427C105.383 99.2207 106.336 98.7113 107.084 97.9631C107.581 97.4662 107.975 96.8762 108.244 96.2269C108.513 95.5776 108.651 94.8817 108.651 94.1789C108.651 93.4761 108.513 92.7801 108.244 92.1308C107.975 91.4815 107.581 90.8916 107.084 90.3946Z" fill="#455456"/>
<path fill-rule="evenodd" clip-rule="evenodd" d="M103.302 92.6094C102.892 92.6184 102.503 92.7875 102.216 93.0805C101.93 93.3735 101.769 93.7671 101.769 94.177C101.769 94.5869 101.93 94.9805 102.216 95.2735C102.503 95.5665 102.892 95.7356 103.302 95.7447H114.695C115.104 95.7356 115.494 95.5665 115.781 95.2735C116.067 94.9805 116.227 94.5869 116.227 94.177C116.227 93.7671 116.067 93.3735 115.781 93.0805C115.494 92.7875 115.104 92.6184 114.695 92.6094H103.302Z" fill="#E74657"/>
<path fill-rule="evenodd" clip-rule="evenodd" d="M105.129 92.348C104.767 91.9861 104.307 91.7396 103.805 91.6397C103.304 91.5397 102.784 91.5909 102.311 91.7866C101.839 91.9824 101.435 92.3139 101.15 92.7393C100.866 93.1647 100.715 93.6649 100.715 94.1766C100.715 94.6883 100.866 95.1884 101.15 95.6139C101.435 96.0393 101.839 96.3708 102.311 96.5666C102.784 96.7623 103.304 96.8135 103.805 96.7135C104.307 96.6136 104.767 96.3671 105.129 96.0052C105.614 95.5201 105.886 94.8624 105.886 94.1766C105.886 93.4908 105.614 92.8331 105.129 92.348Z" fill="#F5AB29"/>
<path fill-rule="evenodd" clip-rule="evenodd" d="M105.004 93.4145C104.845 93.2558 104.643 93.1477 104.423 93.1039C104.203 93.0601 103.975 93.0825 103.768 93.1683C103.561 93.2542 103.384 93.3996 103.259 93.5861C103.135 93.7727 103.068 93.992 103.068 94.2164C103.068 94.4408 103.135 94.6601 103.259 94.8467C103.384 95.0332 103.561 95.1786 103.768 95.2645C103.975 95.3503 104.203 95.3727 104.423 95.3289C104.643 95.2851 104.845 95.177 105.004 95.0183C105.216 94.8056 105.336 94.5171 105.336 94.2164C105.336 93.9157 105.216 93.6272 105.004 93.4145Z" fill="#F4CD72"/>
<path fill-rule="evenodd" clip-rule="evenodd" d="M108.453 93.1078C108.346 93.1045 108.24 93.1226 108.141 93.1611C108.041 93.1996 107.951 93.2577 107.874 93.3319C107.798 93.4061 107.737 93.4949 107.695 93.593C107.654 93.6912 107.633 93.7966 107.633 93.9032C107.633 94.0098 107.654 94.1153 107.695 94.2134C107.737 94.3116 107.798 94.4004 107.874 94.4746C107.951 94.5488 108.041 94.6068 108.141 94.6453C108.24 94.6838 108.346 94.7019 108.453 94.6986H114.232C114.439 94.6923 114.635 94.6056 114.779 94.4572C114.923 94.3087 115.003 94.11 115.003 93.9032C115.003 93.6964 114.923 93.4977 114.779 93.3493C114.635 93.2008 114.439 93.1142 114.232 93.1078H108.453Z" fill="#EB7080"/>
<path fill-rule="evenodd" clip-rule="evenodd" d="M104.489 90.7677C104.606 90.8091 104.735 90.8022 104.848 90.7484C104.96 90.6946 105.046 90.5984 105.088 90.4808C105.129 90.3633 105.122 90.2341 105.069 90.1217C105.015 90.0092 104.919 89.9228 104.801 89.8813C104.612 89.8166 104.419 89.764 104.224 89.7238C104.028 89.6834 103.83 89.6557 103.63 89.6409C103.509 89.6367 103.39 89.6798 103.3 89.7611C103.21 89.8423 103.155 89.9554 103.146 90.0765C103.137 90.1977 103.176 90.3175 103.254 90.4108C103.331 90.504 103.442 90.5635 103.563 90.5767C103.721 90.5877 103.879 90.6091 104.035 90.6406C104.189 90.6727 104.342 90.7152 104.491 90.7677H104.489ZM101.759 90.9153C101.816 90.8892 101.866 90.8523 101.908 90.8065C101.95 90.7608 101.983 90.7071 102.004 90.6487C102.025 90.5903 102.035 90.5282 102.032 90.4662C102.029 90.4041 102.014 90.3432 101.987 90.287C101.961 90.2308 101.923 90.1805 101.877 90.1389C101.831 90.0973 101.777 90.0653 101.718 90.0446C101.66 90.024 101.598 90.0153 101.536 90.0188C101.474 90.0224 101.413 90.0382 101.357 90.0654C101.122 90.1767 100.897 90.3083 100.685 90.4588C100.472 90.6093 100.271 90.7778 100.086 90.9624C99.2815 91.7675 98.8082 92.8454 98.7599 93.9828C98.7511 94.1858 98.7562 94.3892 98.7751 94.5915C98.7932 94.7939 98.8247 94.995 98.8694 95.1933C98.9016 95.3094 98.9773 95.4087 99.0807 95.4705C99.1841 95.5323 99.3073 95.5518 99.4248 95.5251C99.5423 95.4984 99.6449 95.4274 99.7114 95.3269C99.778 95.2264 99.8032 95.1042 99.782 94.9856C99.7459 94.8277 99.7204 94.6676 99.706 94.5063C99.6917 94.3449 99.6881 94.1827 99.6953 94.0209C99.7213 93.469 99.8728 92.9303 100.138 92.4458C100.404 91.9614 100.776 91.5438 101.227 91.2249C101.395 91.1064 101.573 91.0028 101.759 90.9153Z" fill="#747F81"/>
<path d="M48.0707 100.947C48.6428 96.7722 48.6428 94.4948 48.0707 90.6993L38.7271 90.6993C38.7271 90.6993 38.7271 93.8222 38.7271 95.8233C38.7271 97.8243 38.7271 100.947 38.7271 100.947L48.0707 100.947Z" fill="url(#paint14_linear_5505_1079)"/>
<rect width="1.77684" height="13.176" transform="matrix(1 -9.86176e-10 -3.11736e-09 -1 42.281 102.412)" fill="url(#paint15_linear_5505_1079)"/>
<path d="M17.5 83H9.5V77H17.5V83Z" fill="url(#paint16_radial_5505_1079)"/>
<path fill-rule="evenodd" clip-rule="evenodd" d="M27.437 91.8817L25.7526 91.8817C23.5604 91.8723 21.4606 90.9766 19.9105 89.3896C18.3603 87.8026 17.4854 85.6529 17.4762 83.4086L17.4762 82.1152L9.43701 82.1152L9.43701 83.4104C9.44623 87.8375 11.1682 92.0806 14.2259 95.2111C17.2837 98.3415 21.4283 100.104 25.7526 100.114L27.437 100.114L27.437 91.8817Z" fill="url(#paint17_radial_5505_1079)"/>
<path fill-rule="evenodd" clip-rule="evenodd" d="M26.4999 99.9266L26.3563 91.6975L25.9928 91.7039C23.8007 91.7327 21.6856 90.8738 20.108 89.3141C18.5304 87.7544 17.6181 85.6203 17.5698 83.3764L17.5633 83.0043L9.52528 83.1446L9.53181 83.5185C9.61829 87.9448 11.414 92.1573 14.5259 95.2339C17.6379 98.3105 21.8126 100.001 26.1364 99.9347L26.4999 99.9266Z" fill="url(#paint18_radial_5505_1079)"/>
<path d="M47.5639 59.4219C48.1359 63.597 48.1359 65.8743 47.5639 69.6698L38.2203 69.6698C38.2203 69.6698 38.2203 66.5469 38.2203 64.5459C38.2203 62.5448 38.2203 59.4219 38.2203 59.4219L47.5639 59.4219Z" fill="url(#paint19_linear_5505_1079)"/>
<rect x="41.7742" y="57.959" width="1.77684" height="13.176" fill="url(#paint20_linear_5505_1079)"/>
<path d="M64.668 35.6174C65.743 34.9556 66.3293 34.9556 67.3066 35.6174L67.3066 45.9122C67.3066 45.9122 66.5025 46.4261 65.9873 46.4261C65.4721 46.4261 64.668 45.9122 64.668 45.9122L64.668 35.6174Z" fill="url(#paint21_linear_5505_1079)"/>
<path d="M61.1514 43.2564C65.093 42.951 67.243 42.951 70.8263 43.2564L70.8263 48.245C70.8263 48.245 67.8779 48.245 65.9888 48.245C64.0997 48.245 61.1514 48.245 61.1514 48.245L61.1514 43.2564Z" fill="url(#paint22_linear_5505_1079)"/>
<path d="M87.5347 53.3828C68.6247 53.3828 59.8293 53.3828 45.317 53.3828L45.317 106.595C45.317 106.595 58.1823 106.595 66.4258 106.595C74.6694 106.595 87.5347 106.595 87.5347 106.595L87.5347 53.3828Z" fill="url(#paint23_linear_5505_1079)"/>
<path d="M52.0688 123.883C50.3859 123.883 49.8249 123.883 48.0297 123.883L48.0297 112.252C48.0297 112.252 49.2606 112.252 50.0493 112.252C50.838 112.252 52.0688 112.252 52.0688 112.252L52.0688 123.883Z" fill="url(#paint24_linear_5505_1079)"/>
<path d="M83.1395 123.82C81.3072 123.82 80.6964 123.82 78.7419 123.82L78.7419 113.385C78.7419 113.385 80.082 113.385 80.9407 113.385C81.7994 113.385 83.1395 113.385 83.1395 113.385L83.1395 123.82Z" fill="url(#paint25_linear_5505_1079)"/>
<path d="M61.5761 36.8613C61.0098 36.1528 61.0098 35.7663 61.5761 35.1221L70.3865 35.1221C70.3865 35.1221 70.8262 35.6521 70.8262 35.9917C70.8262 36.3313 70.3865 36.8613 70.3865 36.8613L61.5761 36.8613Z" fill="url(#paint26_linear_5505_1079)"/>
<path d="M60.7715 41.209C60.1022 40.5004 60.1022 40.1139 60.7715 39.4698L71.1838 39.4698C71.1838 39.4698 71.7035 39.9998 71.7035 40.3394C71.7035 40.679 71.1838 41.209 71.1838 41.209L60.7715 41.209Z" fill="url(#paint27_linear_5505_1079)"/>
<path d="M60.8823 45.5566C44.4681 45.5566 45.2296 49.7068 45.2296 53.6384L87.5341 54.0753C87.5341 47.4351 85.2073 45.5566 72.7275 45.5566H60.8823Z" fill="url(#paint28_linear_5505_1079)"/>
<path d="M60.8825 115.127C44.4684 115.127 45.2298 110.977 45.2299 107.045L87.5343 106.608C87.5343 113.248 85.2075 115.127 72.7278 115.127H60.8825Z" fill="url(#paint29_linear_5505_1079)"/>
<rect x="44.4395" y="52.5137" width="43.9767" height="2.60884" rx="1.30442" fill="url(#paint30_linear_5505_1079)"/>
<rect x="44.4395" y="104.691" width="43.9767" height="2.60884" rx="1.30442" fill="url(#paint31_linear_5505_1079)"/>
<path fill-rule="evenodd" clip-rule="evenodd" d="M114.987 39.1211L114.987 37.4367C114.978 35.2445 114.082 33.1447 112.495 31.5946C110.908 30.0444 108.758 29.1695 106.514 29.1603L105.221 29.1603L105.221 21.1211L106.516 21.1211C110.943 21.1303 115.186 22.8522 118.316 25.91C121.447 28.9678 123.21 33.1124 123.219 37.4367L123.219 39.1211L114.987 39.1211Z" fill="url(#paint32_radial_5505_1079)"/>
<path fill-rule="evenodd" clip-rule="evenodd" d="M123.22 37.8008L114.989 37.8008L114.989 37.4372C114.98 35.245 114.084 33.1452 112.497 31.5951C110.91 30.045 108.76 29.17 106.516 29.1609L106.144 29.1609L106.144 21.1216L106.518 21.1216C110.945 21.1308 115.188 22.8528 118.319 25.9105C121.449 28.9683 123.212 33.1129 123.221 37.4372L123.22 37.8008Z" fill="url(#paint33_radial_5505_1079)"/>
<path fill-rule="evenodd" clip-rule="evenodd" d="M9.76659 18L9.76659 16.3156C9.75719 14.1234 8.86147 12.0236 7.27448 10.4735C5.6875 8.92333 3.53777 8.04842 1.29345 8.03924L0.000121635 8.03924L0.000121284 1.1767e-07L1.29524 6.10591e-08C5.72238 0.00921335 9.96549 1.73114 13.096 4.78891C16.2264 7.84668 17.9893 11.9913 17.9987 16.3156L17.9987 18L9.76659 18Z" fill="url(#paint34_radial_5505_1079)"/>
<path fill-rule="evenodd" clip-rule="evenodd" d="M17.9992 16.6797L9.7688 16.6797L9.7688 16.3161C9.7594 14.1239 8.86369 12.0241 7.2767 10.474C5.68971 8.92386 3.53998 8.04894 1.29566 8.03976L0.923462 8.03976L0.923461 0.000526173L1.29745 0.000526156C5.72459 0.00973945 9.96771 1.73166 13.0982 4.78944C16.2286 7.84721 17.9915 11.9918 18.0009 16.3161L17.9992 16.6797Z" fill="url(#paint35_radial_5505_1079)"/>
<g clip-path="url(#clip0_5505_1079)">
<path d="M19.2 78L8 78L8 75.2122L19.2 75.2122L19.2 78Z" fill="black"/>
<path d="M17.0667 75.2773L10.1333 75.2773L10.1333 69.9672L17.0667 69.9672L17.0667 75.2773ZM8 53.4779L19.2 53.4779L19.2 56.2651L8 56.2651L8 53.4779Z" fill="black"/>
<path d="M10.1333 56.1997L17.0666 56.1997L17.0666 61.5098L10.1333 61.5098L10.1333 56.1997ZM24 59.6481L24 70.8184L20.8 70.8184L20.8 59.6481L24 59.6481ZM20.8 61.9886L20.8 68.9035L17.0666 68.9035L17.0666 61.9886L20.8 61.9886Z" fill="black"/>
<path d="M8.00006 65.7127C8.00005 69.0911 10.746 71.8297 14.1334 71.8297C17.5207 71.8297 20.2667 69.0911 20.2667 65.7127C20.2667 62.3344 17.5207 59.5957 14.1334 59.5957C10.746 59.5957 8.00006 62.3344 8.00006 65.7127Z" fill="#575757"/>
<path d="M11.1992 64.1699L11.1992 53.5316L15.9992 53.5316L15.9992 64.1699L11.1992 64.1699Z" fill="#67B1C1"/>
<path d="M11.1992 63.1073L23.9992 63.1073L23.9992 67.8945L13.8659 67.8945C13.1586 67.8945 12.4804 67.6143 11.9803 67.1156C11.4802 66.6168 11.1992 65.9403 11.1992 65.235L11.1992 63.1073Z" fill="#67B1C1"/>
</g>
<defs>
<radialGradient id="paint0_radial_5505_1079" cx="0" cy="0" r="1" gradientUnits="userSpaceOnUse" gradientTransform="translate(119.287 118.002) rotate(90) scale(9 4)">
<stop stop-color="#C0E3EE"/>
<stop offset="1" stop-color="#67B1C1"/>
</radialGradient>
<radialGradient id="paint1_radial_5505_1079" cx="0" cy="0" r="1" gradientUnits="userSpaceOnUse" gradientTransform="translate(52.6543 24.6934) scale(52.6543 4)">
<stop stop-color="#C4C4C4"/>
<stop offset="1" stop-color="#808080"/>
</radialGradient>
<radialGradient id="paint2_radial_5505_1079" cx="0" cy="0" r="1" gradientUnits="userSpaceOnUse" gradientTransform="translate(31.1509 65.0547) rotate(-0.244694) scale(7.31438 4)">
<stop stop-color="#C0E3EE"/>
<stop offset="1" stop-color="#67B1C1"/>
</radialGradient>
<radialGradient id="paint3_radial_5505_1079" cx="0" cy="0" r="1" gradientUnits="userSpaceOnUse" gradientTransform="translate(31.447 96.066) rotate(-0.244694) scale(7.43 4)">
<stop stop-color="#C4C4C4"/>
<stop offset="1" stop-color="#808080"/>
</radialGradient>
<radialGradient id="paint4_radial_5505_1079" cx="0" cy="0" r="1" gradientUnits="userSpaceOnUse" gradientTransform="translate(13.5857 36) rotate(-90) scale(18 4)">
<stop stop-color="#C0E3EE"/>
<stop offset="1" stop-color="#67B1C1"/>
</radialGradient>
<linearGradient id="paint5_linear_5505_1079" x1="89.5586" y1="69.9531" x2="89.5586" y2="59.7052" gradientUnits="userSpaceOnUse">
<stop stop-color="#595454"/>
<stop offset="0.5" stop-color="#BFB3B3"/>
<stop offset="1" stop-color="#595454"/>
</linearGradient>
<linearGradient id="paint6_linear_5505_1079" x1="90.6765" y1="78.0059" x2="92.4534" y2="78.0059" gradientUnits="userSpaceOnUse">
<stop stop-color="#BFB3B3"/>
<stop offset="1" stop-color="#595454"/>
</linearGradient>
<radialGradient id="paint7_radial_5505_1079" cx="0" cy="0" r="1" gradientUnits="userSpaceOnUse" gradientTransform="translate(119.521 42.6211) rotate(-90) scale(8.5 4)">
<stop stop-color="#C4C4C4"/>
<stop offset="1" stop-color="#808080"/>
</radialGradient>
<radialGradient id="paint8_radial_5505_1079" cx="0" cy="0" r="1" gradientUnits="userSpaceOnUse" gradientTransform="translate(114.521 60.1204) rotate(90) scale(8.9993 9)">
<stop stop-color="#B3B8BA"/>
<stop offset="1" stop-color="#515354"/>
</radialGradient>
<radialGradient id="paint9_radial_5505_1079" cx="0" cy="0" r="1" gradientUnits="userSpaceOnUse" gradientTransform="translate(115.181 60.5817) rotate(90) scale(8.53874 8.33958)">
<stop stop-color="#C4C4C4"/>
<stop offset="1" stop-color="#808080"/>
</radialGradient>
<linearGradient id="paint10_linear_5505_1079" x1="89.3215" y1="90.4004" x2="89.3215" y2="100.648" gradientUnits="userSpaceOnUse">
<stop stop-color="#595454"/>
<stop offset="0.5" stop-color="#BFB3B3"/>
<stop offset="1" stop-color="#595454"/>
</linearGradient>
<linearGradient id="paint11_linear_5505_1079" x1="0" y1="6.58798" x2="1.77684" y2="6.58798" gradientUnits="userSpaceOnUse">
<stop stop-color="#BFB3B3"/>
<stop offset="1" stop-color="#595454"/>
</linearGradient>
<radialGradient id="paint12_radial_5505_1079" cx="0" cy="0" r="1" gradientUnits="userSpaceOnUse" gradientTransform="translate(114.283 100.233) rotate(-90) scale(8.9993 9)">
<stop stop-color="#C0E3EE"/>
<stop offset="1" stop-color="#67B1C1"/>
</radialGradient>
<radialGradient id="paint13_radial_5505_1079" cx="0" cy="0" r="1" gradientUnits="userSpaceOnUse" gradientTransform="translate(114.944 99.7718) rotate(-90) scale(8.53874 8.33958)">
<stop stop-color="#C0E3EE"/>
<stop offset="1" stop-color="#67B1C1"/>
</radialGradient>
<linearGradient id="paint14_linear_5505_1079" x1="43.3989" y1="100.947" x2="43.3989" y2="90.6993" gradientUnits="userSpaceOnUse">
<stop stop-color="#595454"/>
<stop offset="0.5" stop-color="#BFB3B3"/>
<stop offset="1" stop-color="#595454"/>
</linearGradient>
<linearGradient id="paint15_linear_5505_1079" x1="0" y1="6.58798" x2="1.77684" y2="6.58798" gradientUnits="userSpaceOnUse">
<stop stop-color="#BFB3B3"/>
<stop offset="1" stop-color="#595454"/>
</linearGradient>
<radialGradient id="paint16_radial_5505_1079" cx="0" cy="0" r="1" gradientUnits="userSpaceOnUse" gradientTransform="translate(13.5 80) rotate(-90) scale(3 4)">
<stop stop-color="#C4C4C4"/>
<stop offset="1" stop-color="#808080"/>
</radialGradient>
<radialGradient id="paint17_radial_5505_1079" cx="0" cy="0" r="1" gradientUnits="userSpaceOnUse" gradientTransform="translate(18.437 91.1145) rotate(90) scale(8.9993 9)">
<stop stop-color="#B3B8BA"/>
<stop offset="1" stop-color="#515354"/>
</radialGradient>
<radialGradient id="paint18_radial_5505_1079" cx="0" cy="0" r="1" gradientUnits="userSpaceOnUse" gradientTransform="translate(18.0126 91.5365) rotate(89) scale(8.53874 8.33958)">
<stop stop-color="#C4C4C4"/>
<stop offset="1" stop-color="#808080"/>
</radialGradient>
<linearGradient id="paint19_linear_5505_1079" x1="42.8921" y1="59.4219" x2="42.8921" y2="69.6698" gradientUnits="userSpaceOnUse">
<stop stop-color="#595454"/>
<stop offset="0.5" stop-color="#BFB3B3"/>
<stop offset="1" stop-color="#595454"/>
</linearGradient>
<linearGradient id="paint20_linear_5505_1079" x1="41.7742" y1="64.547" x2="43.551" y2="64.547" gradientUnits="userSpaceOnUse">
<stop stop-color="#BFB3B3"/>
<stop offset="1" stop-color="#595454"/>
</linearGradient>
<linearGradient id="paint21_linear_5505_1079" x1="64.668" y1="41.0217" x2="67.3066" y2="41.0217" gradientUnits="userSpaceOnUse">
<stop stop-color="#595454"/>
<stop offset="0.5" stop-color="#B9B3B3"/>
<stop offset="1" stop-color="#595454"/>
</linearGradient>
<linearGradient id="paint22_linear_5505_1079" x1="61.1514" y1="45.7507" x2="70.8263" y2="45.7507" gradientUnits="userSpaceOnUse">
<stop stop-color="#595454"/>
<stop offset="0.5" stop-color="#BFB3B3"/>
<stop offset="1" stop-color="#595454"/>
</linearGradient>
<linearGradient id="paint23_linear_5505_1079" x1="66.4258" y1="106.595" x2="66.4258" y2="50.9394" gradientUnits="userSpaceOnUse">
<stop stop-color="#FAFAFA"/>
<stop offset="1" stop-color="#74B8FD"/>
</linearGradient>
<linearGradient id="paint24_linear_5505_1079" x1="52.0688" y1="118.067" x2="48.0297" y2="118.067" gradientUnits="userSpaceOnUse">
<stop stop-color="#595454"/>
<stop offset="0.5" stop-color="#BFB3B3"/>
<stop offset="1" stop-color="#595454"/>
</linearGradient>
<linearGradient id="paint25_linear_5505_1079" x1="83.1395" y1="118.603" x2="78.7419" y2="118.603" gradientUnits="userSpaceOnUse">
<stop stop-color="#595454"/>
<stop offset="0.5" stop-color="#BFB3B3"/>
<stop offset="1" stop-color="#595454"/>
</linearGradient>
<linearGradient id="paint26_linear_5505_1079" x1="66.2012" y1="36.8613" x2="66.2012" y2="35.1221" gradientUnits="userSpaceOnUse">
<stop stop-color="#595454"/>
<stop offset="0.5" stop-color="#B9B3B3"/>
<stop offset="1" stop-color="#595454"/>
</linearGradient>
<linearGradient id="paint27_linear_5505_1079" x1="66.2375" y1="41.209" x2="66.2375" y2="39.4698" gradientUnits="userSpaceOnUse">
<stop stop-color="#595454"/>
<stop offset="0.5" stop-color="#B9B3B3"/>
<stop offset="1" stop-color="#595454"/>
</linearGradient>
<linearGradient id="paint28_linear_5505_1079" x1="87.5341" y1="49.816" x2="45.2241" y2="49.816" gradientUnits="userSpaceOnUse">
<stop stop-color="#595454"/>
<stop offset="0.5" stop-color="#BFB3B3"/>
<stop offset="1" stop-color="#595454"/>
</linearGradient>
<linearGradient id="paint29_linear_5505_1079" x1="45.2244" y1="110.868" x2="87.5343" y2="110.868" gradientUnits="userSpaceOnUse">
<stop stop-color="#595454"/>
<stop offset="0.5" stop-color="#BFB3B3"/>
<stop offset="1" stop-color="#595454"/>
</linearGradient>
<linearGradient id="paint30_linear_5505_1079" x1="44.4395" y1="53.8181" x2="88.4162" y2="53.8181" gradientUnits="userSpaceOnUse">
<stop stop-color="#595454"/>
<stop offset="0.5" stop-color="#BFB3B3"/>
<stop offset="1" stop-color="#595454"/>
</linearGradient>
<linearGradient id="paint31_linear_5505_1079" x1="44.4395" y1="105.996" x2="88.4162" y2="105.996" gradientUnits="userSpaceOnUse">
<stop stop-color="#595454"/>
<stop offset="0.5" stop-color="#BFB3B3"/>
<stop offset="1" stop-color="#595454"/>
</linearGradient>
<radialGradient id="paint32_radial_5505_1079" cx="0" cy="0" r="1" gradientUnits="userSpaceOnUse" gradientTransform="translate(114.22 30.1211) scale(8.9993 9)">
<stop stop-color="#B3B8BA"/>
<stop offset="1" stop-color="#515354"/>
</radialGradient>
<radialGradient id="paint33_radial_5505_1079" cx="0" cy="0" r="1" gradientUnits="userSpaceOnUse" gradientTransform="translate(114.683 29.4612) scale(8.53874 8.33958)">
<stop stop-color="#C4C4C4"/>
<stop offset="1" stop-color="#808080"/>
</radialGradient>
<radialGradient id="paint34_radial_5505_1079" cx="0" cy="0" r="1" gradientUnits="userSpaceOnUse" gradientTransform="translate(8.99943 9) scale(8.9993 9)">
<stop stop-color="#C0E3EE"/>
<stop offset="1" stop-color="#67B1C1"/>
</radialGradient>
<radialGradient id="paint35_radial_5505_1079" cx="0" cy="0" r="1" gradientUnits="userSpaceOnUse" gradientTransform="translate(9.4622 8.34011) scale(8.53874 8.33958)">
<stop stop-color="#C0E3EE"/>
<stop offset="1" stop-color="#67B1C1"/>
</radialGradient>
<clipPath id="clip0_5505_1079">
<rect width="25" height="16" fill="white" transform="translate(8 78) rotate(-90)"/>
</clipPath>
</defs>
</svg>
