<svg width="126" height="144" viewBox="0 0 126 144" fill="none" xmlns="http://www.w3.org/2000/svg">
<path d="M-1.21816e-06 4.76837e-07L0 8L125.587 8L125.587 -1.16062e-06L-1.21816e-06 4.76837e-07Z" fill="url(#paint0_radial_5503_872)"/>
<path d="M15.1184 62.1856L15.1526 70.1855L30.8964 70.1183L30.8622 62.1184L15.1184 62.1856Z" fill="url(#paint1_radial_5503_872)"/>
<path d="M18.7151 93.0548L18.7493 101.055L31.892 100.999L31.8578 92.9986L18.7151 93.0548Z" fill="url(#paint2_radial_5503_872)"/>
<path d="M2 55L10 55L10 7.28009L2 7.28009L2 55Z" fill="url(#paint3_radial_5503_872)"/>
<path fill-rule="evenodd" clip-rule="evenodd" d="M115.869 123.284L115.877 124.968C115.895 127.16 116.8 129.256 118.394 130.8C119.987 132.343 122.141 133.209 124.385 133.208L125.678 133.203L125.713 141.242L124.418 141.248C119.99 141.257 115.74 139.553 112.596 136.509C109.453 133.465 107.672 129.328 107.644 125.003L107.637 123.319L115.869 123.284Z" fill="url(#paint4_radial_5503_872)"/>
<path fill-rule="evenodd" clip-rule="evenodd" d="M107.642 124.639L115.873 124.604L115.874 124.968C115.893 127.16 116.798 129.256 118.391 130.799C119.985 132.343 122.138 133.208 124.383 133.208L124.755 133.206L124.789 141.245L124.415 141.247C119.988 141.257 115.738 139.553 112.594 136.509C109.451 133.464 107.67 129.327 107.642 125.003L107.642 124.639Z" fill="url(#paint5_radial_5503_872)"/>
<path d="M111 53L119 53L119 34L111 34L111 53Z" fill="url(#paint6_radial_5503_872)"/>
<path d="M77.301 71.0488C76.7289 66.8737 76.7289 64.5964 77.301 60.8009L86.6446 60.8009C86.6446 60.8009 86.6446 63.9238 86.6446 65.9248C86.6446 67.9259 86.6446 71.0488 86.6446 71.0488L77.301 71.0488Z" fill="url(#paint7_linear_5503_872)"/>
<rect x="83.0907" y="72.5137" width="1.77684" height="13.176" transform="rotate(180 83.0907 72.5137)" fill="url(#paint8_linear_5503_872)"/>
<path d="M86.6346 62.2168L86.6346 70.2168L103.635 70.2168L103.635 62.2168L86.6346 62.2168Z" fill="#B3B8BA"/>
<path fill-rule="evenodd" clip-rule="evenodd" d="M100.935 61.9833H102.619C104.811 61.9739 106.911 61.0781 108.461 59.4912C110.011 57.9042 110.886 55.7544 110.895 53.5101V52.2168H118.935V53.5119C118.925 57.9391 117.204 62.1822 114.146 65.3126C111.088 68.4431 106.943 70.206 102.619 70.2154H100.935V61.9833Z" fill="url(#paint9_radial_5503_872)"/>
<path fill-rule="evenodd" clip-rule="evenodd" d="M102.255 70.2144V61.984H102.619C104.811 61.9746 106.911 61.0789 108.461 59.4919C110.011 57.9049 110.886 55.7552 110.895 53.5109V53.1387H118.935V53.5127C118.925 57.9398 117.203 62.1829 114.146 65.3134C111.088 68.4439 106.943 70.2067 102.619 70.2162L102.255 70.2144Z" fill="url(#paint10_radial_5503_872)"/>
<path fill-rule="evenodd" clip-rule="evenodd" d="M100.907 61.0615C101.912 62.0664 102.597 63.3468 102.874 64.7407C103.152 66.1345 103.009 67.5793 102.465 68.8923C101.921 70.2053 101 71.3276 99.8174 72.1171C98.6352 72.9067 97.2453 73.3281 95.8235 73.3281C94.4016 73.3281 93.0118 72.9067 91.8296 72.1171C90.6474 71.3276 89.7259 70.2053 89.1818 68.8923C88.6377 67.5793 88.4953 66.1345 88.7727 64.7407C89.0501 63.3468 89.7348 62.0664 90.7401 61.0615C91.4077 60.3942 92.2002 59.8649 93.0724 59.5038C93.9446 59.1427 94.8794 58.9568 95.8235 58.9568C96.7675 58.9568 97.7023 59.1427 98.5745 59.5038C99.4467 59.8649 100.239 60.3942 100.907 61.0615Z" fill="#273335"/>
<path fill-rule="evenodd" clip-rule="evenodd" d="M99.607 62.3607C100.355 63.1088 100.864 64.0618 101.071 65.0992C101.277 66.1366 101.171 67.2119 100.766 68.1891C100.361 69.1662 99.6751 70.0014 98.7952 70.589C97.9153 71.1766 96.8809 71.4902 95.8227 71.4902C94.7645 71.4902 93.7301 71.1766 92.8502 70.589C91.9703 70.0014 91.2845 69.1662 90.8794 68.1891C90.4744 67.2119 90.3683 66.1366 90.5746 65.0992C90.7809 64.0618 91.2903 63.1088 92.0385 62.3607C92.5354 61.8639 93.1254 61.4699 93.7747 61.201C94.424 60.9322 95.1199 60.7938 95.8227 60.7938C96.5255 60.7938 97.2214 60.9322 97.8707 61.201C98.52 61.4699 99.11 61.8639 99.607 62.3607Z" fill="#455456"/>
<path fill-rule="evenodd" clip-rule="evenodd" d="M97.3912 66.143C97.3822 66.5526 97.2131 66.9424 96.9201 67.2289C96.6271 67.5154 96.2335 67.6758 95.8236 67.6758C95.4137 67.6758 95.0201 67.5154 94.7271 67.2289C94.4341 66.9424 94.265 66.5526 94.256 66.143V54.7504C94.265 54.3408 94.4341 53.951 94.7271 53.6645C95.0201 53.378 95.4137 53.2176 95.8236 53.2176C96.2335 53.2176 96.6271 53.378 96.9201 53.6645C97.2131 53.951 97.3822 54.3408 97.3912 54.7504V66.143Z" fill="#E74657"/>
<path fill-rule="evenodd" clip-rule="evenodd" d="M97.6521 64.3161C98.014 64.6776 98.2605 65.1383 98.3605 65.6399C98.4604 66.1415 98.4093 66.6615 98.2135 67.134C98.0178 67.6066 97.6862 68.0104 97.2608 68.2946C96.8354 68.5788 96.3352 68.7305 95.8235 68.7305C95.3119 68.7305 94.8117 68.5788 94.3863 68.2946C93.9608 68.0104 93.6293 67.6066 93.4336 67.134C93.2378 66.6615 93.1867 66.1415 93.2866 65.6399C93.3865 65.1383 93.633 64.6776 93.9949 64.3161C94.48 63.8315 95.1377 63.5593 95.8235 63.5593C96.5093 63.5593 97.1671 63.8315 97.6521 64.3161Z" fill="#F5AB29"/>
<path fill-rule="evenodd" clip-rule="evenodd" d="M96.5861 64.4411C96.7448 64.5997 96.8529 64.8017 96.8967 65.0217C96.9406 65.2416 96.9181 65.4696 96.8323 65.6769C96.7465 65.8841 96.6011 66.0612 96.4145 66.1858C96.2279 66.3104 96.0086 66.377 95.7842 66.377C95.5598 66.377 95.3405 66.3104 95.1539 66.1858C94.9674 66.0612 94.822 65.8841 94.7361 65.6769C94.6503 65.4696 94.6279 65.2416 94.6717 65.0217C94.7155 64.8017 94.8236 64.5997 94.9823 64.4411C95.195 64.2286 95.4835 64.1092 95.7842 64.1092C96.085 64.1092 96.3734 64.2286 96.5861 64.4411Z" fill="#F4CD72"/>
<path fill-rule="evenodd" clip-rule="evenodd" d="M96.8928 60.9925C96.8961 61.0989 96.878 61.205 96.8395 61.3043C96.801 61.4037 96.7429 61.4943 96.6687 61.5708C96.5945 61.6472 96.5057 61.708 96.4076 61.7496C96.3095 61.7911 96.204 61.8125 96.0974 61.8125C95.9908 61.8125 95.8853 61.7911 95.7872 61.7496C95.689 61.708 95.6002 61.6472 95.526 61.5708C95.4518 61.4943 95.3938 61.4037 95.3553 61.3043C95.3168 61.205 95.2987 61.0989 95.302 60.9925V55.2129C95.3084 55.0063 95.395 54.8103 95.5434 54.6664C95.6919 54.5225 95.8906 54.4421 96.0974 54.4421C96.3042 54.4421 96.5029 54.5225 96.6513 54.6664C96.7998 54.8103 96.8864 55.0063 96.8928 55.2129V60.9925Z" fill="#EB7080"/>
<path fill-rule="evenodd" clip-rule="evenodd" d="M99.2332 64.9567C99.1917 64.8392 99.1987 64.71 99.2524 64.5977C99.3062 64.4853 99.4025 64.3989 99.52 64.3574C99.6376 64.316 99.7668 64.3229 99.8792 64.3766C99.9916 64.4304 100.078 64.5266 100.12 64.6441C100.184 64.833 100.237 65.0257 100.277 65.2213C100.317 65.4173 100.345 65.6157 100.36 65.8152C100.364 65.9366 100.321 66.0548 100.24 66.1451C100.159 66.2353 100.045 66.2906 99.9243 66.2993C99.8032 66.3079 99.6833 66.2693 99.5901 66.1915C99.4968 66.1137 99.4373 66.0028 99.4242 65.8821C99.4131 65.7238 99.3918 65.5663 99.3603 65.4107C99.3281 65.2559 99.2857 65.1035 99.2332 64.9544V64.9567ZM99.0856 67.686C99.1116 67.6295 99.1486 67.5788 99.1943 67.5368C99.2401 67.4947 99.2937 67.4621 99.3521 67.4409C99.4106 67.4197 99.4726 67.4103 99.5347 67.4132C99.5968 67.4162 99.6577 67.4313 99.7139 67.4579C99.77 67.4845 99.8204 67.522 99.862 67.5682C99.9036 67.6143 99.9356 67.6683 99.9562 67.7269C99.9768 67.7855 99.9856 67.8476 99.982 67.9097C99.9784 67.9717 99.9626 68.0324 99.9354 68.0883C99.8241 68.3231 99.6925 68.5478 99.5421 68.7597C99.3915 68.9734 99.223 69.1739 99.0384 69.359C98.2334 70.1637 97.1555 70.637 96.018 70.6853C95.815 70.6941 95.6117 70.689 95.4094 70.67C95.2069 70.652 95.0059 70.6205 94.8076 70.5757C94.6914 70.5436 94.5922 70.4679 94.5304 70.3645C94.4686 70.2611 94.449 70.1379 94.4757 70.0204C94.5025 69.9029 94.5735 69.8003 94.6739 69.7338C94.7744 69.6672 94.8967 69.642 95.0153 69.6632C95.1732 69.6993 95.3333 69.7247 95.4946 69.7392C95.656 69.7535 95.8181 69.7571 95.98 69.7499C96.5319 69.7239 97.0705 69.5724 97.555 69.307C98.0395 69.0416 98.4571 68.6693 98.776 68.2183C98.8945 68.0502 98.9981 67.8721 99.0856 67.686Z" fill="#747F81"/>
<path d="M77.0639 91.4961C76.4919 95.6712 76.4919 97.9485 77.0639 101.744L86.4075 101.744C86.4075 101.744 86.4075 98.6211 86.4075 96.6201C86.4075 94.619 86.4075 91.4961 86.4075 91.4961L77.0639 91.4961Z" fill="url(#paint11_linear_5503_872)"/>
<rect width="1.77684" height="13.176" transform="matrix(-1 -1.73859e-07 -1.71728e-07 1 82.8536 90.0312)" fill="url(#paint12_linear_5503_872)"/>
<path d="M86.3976 100.328L86.3976 92.3281L103.398 92.3281L103.398 100.328L86.3976 100.328Z" fill="#C0E3EE"/>
<path d="M107.698 110.328L115.698 110.328L115.698 127.328L107.698 127.328L107.698 110.328Z" fill="url(#paint13_radial_5503_872)"/>
<path fill-rule="evenodd" clip-rule="evenodd" d="M97.6976 100.562L99.382 100.562C101.574 100.571 103.674 101.467 105.224 103.054C106.774 104.641 107.649 106.79 107.658 109.035L107.658 110.328L115.698 110.328L115.698 109.033C115.688 104.606 113.966 100.363 110.909 97.2323C107.851 94.1018 103.706 92.339 99.382 92.3295L97.6976 92.3295L97.6976 100.562Z" fill="url(#paint14_radial_5503_872)"/>
<path fill-rule="evenodd" clip-rule="evenodd" d="M99.0183 92.3306L99.0183 100.561L99.3819 100.561C101.574 100.57 103.674 101.466 105.224 103.053C106.774 104.64 107.649 106.79 107.658 109.034L107.658 109.406L115.697 109.406L115.697 109.032C115.688 104.605 113.966 100.362 110.909 97.2315C107.851 94.1011 103.706 92.3382 99.3819 92.3288L99.0183 92.3306Z" fill="url(#paint15_radial_5503_872)"/>
<path fill-rule="evenodd" clip-rule="evenodd" d="M100.798 91.1895C99.7928 90.1841 98.5125 89.4995 97.1186 89.2221C95.7247 88.9447 94.2799 89.0871 92.9669 89.6312C91.6539 90.1753 90.5317 91.0967 89.7421 92.2789C88.9526 93.4611 88.5311 94.851 88.5311 96.2729C88.5311 97.6947 88.9526 99.0846 89.7421 100.267C90.5317 101.449 91.6539 102.37 92.9669 102.914C94.2799 103.459 95.7247 103.601 97.1186 103.324C98.5125 103.046 99.7928 102.362 100.798 101.356C101.465 100.689 101.994 99.8961 102.355 99.0239C102.717 98.1517 102.902 97.2169 102.902 96.2729C102.902 95.3288 102.717 94.394 102.355 93.5218C101.994 92.6496 101.465 91.8571 100.798 91.1895Z" fill="#273335"/>
<path fill-rule="evenodd" clip-rule="evenodd" d="M99.4986 92.4884C98.7505 91.7403 97.7975 91.2308 96.7601 91.0245C95.7226 90.8182 94.6474 90.9243 93.6702 91.3294C92.693 91.7344 91.8578 92.4202 91.2702 93.3001C90.6826 94.18 90.369 95.2144 90.369 96.2726C90.369 97.3308 90.6826 98.3653 91.2702 99.2451C91.8578 100.125 92.693 100.811 93.6702 101.216C94.6474 101.621 95.7226 101.727 96.7601 101.521C97.7975 101.314 98.7505 100.805 99.4986 100.057C99.9953 99.5599 100.389 98.97 100.658 98.3207C100.927 97.6714 101.065 96.9754 101.065 96.2726C101.065 95.5698 100.927 94.8739 100.658 94.2246C100.389 93.5753 99.9953 92.9853 99.4986 92.4884Z" fill="#455456"/>
<path fill-rule="evenodd" clip-rule="evenodd" d="M95.7163 94.7051C95.3067 94.7141 94.9169 94.8832 94.6304 95.1762C94.3439 95.4692 94.1835 95.8628 94.1835 96.2727C94.1835 96.6826 94.3439 97.0762 94.6304 97.3692C94.9169 97.6622 95.3067 97.8313 95.7163 97.8404H107.109C107.518 97.8313 107.908 97.6622 108.195 97.3692C108.481 97.0762 108.642 96.6826 108.642 96.2727C108.642 95.8628 108.481 95.4692 108.195 95.1762C107.908 94.8832 107.518 94.7141 107.109 94.7051H95.7163Z" fill="#E74657"/>
<path fill-rule="evenodd" clip-rule="evenodd" d="M97.5432 94.4437C97.1816 94.0818 96.7209 93.8353 96.2193 93.7354C95.7177 93.6354 95.1978 93.6866 94.7252 93.8823C94.2527 94.0781 93.8488 94.4096 93.5646 94.835C93.2805 95.2604 93.1288 95.7606 93.1288 96.2723C93.1288 96.784 93.2805 97.2841 93.5646 97.7096C93.8488 98.135 94.2527 98.4665 94.7252 98.6623C95.1978 98.858 95.7177 98.9092 96.2193 98.8092C96.7209 98.7093 97.1816 98.4628 97.5432 98.1009C98.0277 97.6158 98.3 96.9581 98.3 96.2723C98.3 95.5865 98.0277 94.9288 97.5432 94.4437Z" fill="#F5AB29"/>
<path fill-rule="evenodd" clip-rule="evenodd" d="M97.4181 95.5102C97.2596 95.3515 97.0576 95.2434 96.8376 95.1996C96.6176 95.1558 96.3896 95.1782 96.1824 95.264C95.9752 95.3499 95.7981 95.4953 95.6734 95.6818C95.5488 95.8684 95.4823 96.0877 95.4823 96.3121C95.4823 96.5365 95.5488 96.7558 95.6734 96.9424C95.7981 97.1289 95.9752 97.2743 96.1824 97.3602C96.3896 97.446 96.6176 97.4684 96.8376 97.4246C97.0576 97.3808 97.2596 97.2727 97.4181 97.114C97.6306 96.9013 97.75 96.6128 97.75 96.3121C97.75 96.0114 97.6306 95.7229 97.4181 95.5102Z" fill="#F4CD72"/>
<path fill-rule="evenodd" clip-rule="evenodd" d="M100.867 95.2035C100.76 95.2002 100.654 95.2183 100.555 95.2568C100.456 95.2953 100.365 95.3534 100.288 95.4276C100.212 95.5018 100.151 95.5906 100.11 95.6887C100.068 95.7869 100.047 95.8924 100.047 95.9989C100.047 96.1055 100.068 96.211 100.11 96.3091C100.151 96.4073 100.212 96.4961 100.288 96.5703C100.365 96.6445 100.456 96.7025 100.555 96.741C100.654 96.7795 100.76 96.7976 100.867 96.7944H106.646C106.853 96.788 107.049 96.7014 107.193 96.5529C107.337 96.4044 107.417 96.2057 107.417 95.9989C107.417 95.7921 107.337 95.5935 107.193 95.445C107.049 95.2965 106.853 95.2099 106.646 95.2035H100.867Z" fill="#EB7080"/>
<path fill-rule="evenodd" clip-rule="evenodd" d="M96.9027 92.8634C97.0202 92.9048 97.1493 92.8979 97.2617 92.8441C97.3741 92.7903 97.4605 92.6941 97.502 92.5765C97.5434 92.459 97.5365 92.3298 97.4827 92.2174C97.429 92.1049 97.3328 92.0185 97.2153 91.977C97.0264 91.9123 96.8336 91.8597 96.6381 91.8195C96.4421 91.7791 96.2437 91.7514 96.0442 91.7366C95.9228 91.7325 95.8046 91.7755 95.7143 91.8568C95.624 91.938 95.5688 92.0511 95.5601 92.1722C95.5514 92.2934 95.5901 92.4132 95.6679 92.5065C95.7456 92.5997 95.8565 92.6592 95.9772 92.6724C96.1356 92.6834 96.2931 92.7048 96.4487 92.7363C96.6035 92.7684 96.7559 92.8109 96.905 92.8634H96.9027ZM94.1734 93.011C94.2298 92.9849 94.2805 92.948 94.3226 92.9022C94.3647 92.8565 94.3972 92.8028 94.4184 92.7444C94.4396 92.686 94.4491 92.6239 94.4461 92.5619C94.4432 92.4998 94.428 92.4389 94.4014 92.3827C94.3748 92.3265 94.3374 92.2762 94.2912 92.2346C94.245 92.193 94.1911 92.161 94.1325 92.1404C94.0739 92.1197 94.0117 92.111 93.9497 92.1145C93.8877 92.1181 93.827 92.1339 93.7711 92.1611C93.5363 92.2724 93.3116 92.404 93.0996 92.5545C92.8859 92.705 92.6855 92.8735 92.5004 93.0581C91.6957 93.8632 91.2224 94.9411 91.1741 96.0785C91.1653 96.2815 91.1704 96.4849 91.1893 96.6872C91.2074 96.8896 91.2389 97.0907 91.2836 97.289C91.3158 97.4051 91.3914 97.5044 91.4949 97.5662C91.5983 97.628 91.7215 97.6475 91.839 97.6208C91.9564 97.5941 92.0591 97.5231 92.1256 97.4226C92.1921 97.3222 92.2174 97.1999 92.1962 97.0813C92.16 96.9234 92.1346 96.7633 92.1201 96.602C92.1058 96.4406 92.1023 96.2784 92.1095 96.1166C92.1355 95.5647 92.287 95.026 92.5524 94.5416C92.8178 94.0571 93.1901 93.6395 93.6411 93.3206C93.8092 93.2021 93.9873 93.0985 94.1734 93.011Z" fill="#747F81"/>
<path d="M40.7055 102.043C41.2775 97.8679 41.2775 95.5905 40.7055 91.795L31.3619 91.795C31.3619 91.795 31.3619 94.9179 31.3619 96.919C31.3619 98.92 31.3619 102.043 31.3619 102.043L40.7055 102.043Z" fill="url(#paint16_linear_5503_872)"/>
<rect width="1.77684" height="13.176" transform="matrix(1 -9.86176e-10 -3.11736e-09 -1 34.9158 103.508)" fill="url(#paint17_linear_5503_872)"/>
<path d="M10.0718 83.2109L2.07178 83.2109L2.07178 78L10.0718 78L10.0718 83.2109Z" fill="url(#paint18_radial_5503_872)"/>
<path fill-rule="evenodd" clip-rule="evenodd" d="M20.0718 92.9774L18.3874 92.9774C16.1952 92.968 14.0954 92.0723 12.5452 90.4853C10.9951 88.8983 10.1202 86.7486 10.111 84.5043L10.111 83.2109L2.07178 83.2109L2.07178 84.5061C2.08099 88.9332 3.80292 93.1763 6.86069 96.3068C9.91846 99.4373 14.063 101.2 18.3874 101.21L20.0718 101.21L20.0718 92.9774Z" fill="url(#paint19_radial_5503_872)"/>
<path fill-rule="evenodd" clip-rule="evenodd" d="M18.7511 101.209L18.7511 92.9782L18.3875 92.9782C16.1953 92.9688 14.0955 92.073 12.5454 90.486C10.9953 88.8991 10.1204 86.7493 10.1112 84.505L10.1112 84.1328L2.07194 84.1328L2.07194 84.5068C2.08115 88.9339 3.80308 93.1771 6.86085 96.3075C9.91862 99.438 14.0632 101.201 18.3875 101.21L18.7511 101.209Z" fill="url(#paint20_radial_5503_872)"/>
<path d="M39.9782 60.5176C40.5502 64.6927 40.5502 66.97 39.9782 70.7655L30.6346 70.7655C30.6346 70.7655 30.6346 67.6426 30.6346 65.6416C30.6346 63.6405 30.6346 60.5176 30.6346 60.5176L39.9782 60.5176Z" fill="url(#paint21_linear_5503_872)"/>
<rect x="34.1885" y="59.0547" width="1.77684" height="13.176" fill="url(#paint22_linear_5503_872)"/>
<path d="M57.0823 36.7131C58.1573 36.0514 58.7436 36.0514 59.7209 36.7131L59.7209 47.0079C59.7209 47.0079 58.9168 47.5218 58.4016 47.5218C57.8864 47.5218 57.0823 47.0079 57.0823 47.0079L57.0823 36.7131Z" fill="url(#paint23_linear_5503_872)"/>
<path d="M53.5657 44.3521C57.5073 44.0467 59.6573 44.0467 63.2406 44.3521L63.2406 49.3407C63.2406 49.3407 60.2923 49.3407 58.4031 49.3407C56.514 49.3407 53.5657 49.3407 53.5657 49.3407L53.5657 44.3521Z" fill="url(#paint24_linear_5503_872)"/>
<path d="M79.949 54.4785C61.039 54.4785 52.2436 54.4785 37.7313 54.4785L37.7313 107.69C37.7313 107.69 50.5966 107.69 58.8401 107.69C67.0837 107.69 79.949 107.69 79.949 107.69L79.949 54.4785Z" fill="url(#paint25_linear_5503_872)"/>
<path d="M44.4832 124.979C42.8002 124.979 42.2392 124.978 40.4441 124.979L40.4441 113.348C40.4441 113.348 41.6749 113.348 42.4636 113.348C43.2523 113.348 44.4832 113.348 44.4832 113.348L44.4832 124.979Z" fill="url(#paint26_linear_5503_872)"/>
<path d="M75.5538 124.916C73.7215 124.916 73.1107 124.916 71.1562 124.916L71.1562 114.481C71.1562 114.481 72.4963 114.481 73.355 114.481C74.2137 114.481 75.5538 114.481 75.5538 114.481L75.5538 124.916Z" fill="url(#paint27_linear_5503_872)"/>
<path d="M53.9904 37.957C53.4241 37.2485 53.4241 36.862 53.9904 36.2178L62.8008 36.2178C62.8008 36.2178 63.2406 36.7478 63.2406 37.0874C63.2406 37.427 62.8008 37.957 62.8008 37.957L53.9904 37.957Z" fill="url(#paint28_linear_5503_872)"/>
<path d="M53.1858 42.3047C52.5165 41.5961 52.5165 41.2096 53.1858 40.5655L63.5981 40.5655C63.5981 40.5655 64.1178 41.0955 64.1178 41.4351C64.1178 41.7747 63.5981 42.3047 63.5981 42.3047L53.1858 42.3047Z" fill="url(#paint29_linear_5503_872)"/>
<path d="M53.2966 46.6523C36.8824 46.6523 37.6439 50.8025 37.6439 54.7341L79.9484 55.171C79.9484 48.5308 77.6216 46.6523 65.1418 46.6523H53.2966Z" fill="url(#paint30_linear_5503_872)"/>
<path d="M53.2968 116.223C36.8827 116.223 37.6441 112.073 37.6442 108.141L79.9487 107.704C79.9487 114.344 77.6218 116.223 65.1421 116.223H53.2968Z" fill="url(#paint31_linear_5503_872)"/>
<rect x="36.8538" y="53.6094" width="43.9767" height="2.60884" rx="1.30442" fill="url(#paint32_linear_5503_872)"/>
<rect x="36.8538" y="105.787" width="43.9767" height="2.60884" rx="1.30442" fill="url(#paint33_linear_5503_872)"/>
<g clip-path="url(#clip0_5503_872)">
<path d="M11.2 78L0 78L-1.21857e-07 75.2122L11.2 75.2122L11.2 78Z" fill="black"/>
<path d="M9.06667 75.2773L2.13333 75.2773L2.13333 69.9672L9.06667 69.9672L9.06667 75.2773ZM-9.52885e-07 53.4779L11.2 53.4779L11.2 56.2651L-8.31051e-07 56.2651L-9.52885e-07 53.4779Z" fill="black"/>
<path d="M2.1333 56.1997L9.06663 56.1997L9.06663 61.5098L2.1333 61.5098L2.1333 56.1997ZM16 59.6481L16 70.8184L12.8 70.8184L12.8 59.6481L16 59.6481ZM12.8 61.9886L12.8 68.9035L9.06664 68.9035L9.06663 61.9886L12.8 61.9886Z" fill="black"/>
<path d="M5.55805e-05 65.7127C5.57282e-05 69.0911 2.74604 71.8297 6.13339 71.8297C9.52074 71.8297 12.2667 69.0911 12.2667 65.7127C12.2667 62.3344 9.52074 59.5957 6.13339 59.5957C2.74604 59.5957 5.54328e-05 62.3344 5.55805e-05 65.7127Z" fill="#575757"/>
<path d="M3.19995 64.1699L3.19995 53.5316L7.99995 53.5316L7.99995 64.1699L3.19995 64.1699Z" fill="#67B1C1"/>
<path d="M3.19995 63.1073L16 63.1073L16 67.8945L5.86662 67.8945C5.15937 67.8945 4.4811 67.6143 3.981 67.1156C3.4809 66.6168 3.19995 65.9403 3.19995 65.235L3.19995 63.1073Z" fill="#67B1C1"/>
</g>
<defs>
<radialGradient id="paint0_radial_5503_872" cx="0" cy="0" r="1" gradientUnits="userSpaceOnUse" gradientTransform="translate(62.7937 4) scale(62.7937 4)">
<stop stop-color="#C0E3EE"/>
<stop offset="1" stop-color="#67B1C1"/>
</radialGradient>
<radialGradient id="paint1_radial_5503_872" cx="0" cy="0" r="1" gradientUnits="userSpaceOnUse" gradientTransform="translate(23.0074 66.152) rotate(-0.244694) scale(7.87198 4)">
<stop stop-color="#C4C4C4"/>
<stop offset="1" stop-color="#808080"/>
</radialGradient>
<radialGradient id="paint2_radial_5503_872" cx="0" cy="0" r="1" gradientUnits="userSpaceOnUse" gradientTransform="translate(25.3035 97.0267) rotate(-0.244694) scale(6.57142 4)">
<stop stop-color="#C4C4C4"/>
<stop offset="1" stop-color="#808080"/>
</radialGradient>
<radialGradient id="paint3_radial_5503_872" cx="0" cy="0" r="1" gradientUnits="userSpaceOnUse" gradientTransform="translate(6 31.14) rotate(-90) scale(23.86 4)">
<stop stop-color="#C0E3EE"/>
<stop offset="1" stop-color="#67B1C1"/>
</radialGradient>
<radialGradient id="paint4_radial_5503_872" cx="0" cy="0" r="1" gradientUnits="userSpaceOnUse" gradientTransform="translate(116.675 132.281) rotate(179.755) scale(8.9993 9)">
<stop stop-color="#B3B8BA"/>
<stop offset="1" stop-color="#515354"/>
</radialGradient>
<radialGradient id="paint5_radial_5503_872" cx="0" cy="0" r="1" gradientUnits="userSpaceOnUse" gradientTransform="translate(116.215 132.942) rotate(179.755) scale(8.53874 8.33958)">
<stop stop-color="#C0E3EE"/>
<stop offset="1" stop-color="#67B1C1"/>
</radialGradient>
<radialGradient id="paint6_radial_5503_872" cx="0" cy="0" r="1" gradientUnits="userSpaceOnUse" gradientTransform="translate(115 43.5) rotate(-90) scale(9.5 4)">
<stop stop-color="#C4C4C4"/>
<stop offset="1" stop-color="#808080"/>
</radialGradient>
<linearGradient id="paint7_linear_5503_872" x1="81.9728" y1="71.0488" x2="81.9728" y2="60.8009" gradientUnits="userSpaceOnUse">
<stop stop-color="#595454"/>
<stop offset="0.5" stop-color="#BFB3B3"/>
<stop offset="1" stop-color="#595454"/>
</linearGradient>
<linearGradient id="paint8_linear_5503_872" x1="83.0907" y1="79.1016" x2="84.8675" y2="79.1016" gradientUnits="userSpaceOnUse">
<stop stop-color="#BFB3B3"/>
<stop offset="1" stop-color="#595454"/>
</linearGradient>
<radialGradient id="paint9_radial_5503_872" cx="0" cy="0" r="1" gradientUnits="userSpaceOnUse" gradientTransform="translate(109.935 61.2161) rotate(90) scale(8.9993 9)">
<stop stop-color="#B3B8BA"/>
<stop offset="1" stop-color="#515354"/>
</radialGradient>
<radialGradient id="paint10_radial_5503_872" cx="0" cy="0" r="1" gradientUnits="userSpaceOnUse" gradientTransform="translate(110.595 61.6774) rotate(90) scale(8.53874 8.33958)">
<stop stop-color="#C4C4C4"/>
<stop offset="1" stop-color="#808080"/>
</radialGradient>
<linearGradient id="paint11_linear_5503_872" x1="81.7357" y1="91.4961" x2="81.7357" y2="101.744" gradientUnits="userSpaceOnUse">
<stop stop-color="#595454"/>
<stop offset="0.5" stop-color="#BFB3B3"/>
<stop offset="1" stop-color="#595454"/>
</linearGradient>
<linearGradient id="paint12_linear_5503_872" x1="0" y1="6.58798" x2="1.77684" y2="6.58798" gradientUnits="userSpaceOnUse">
<stop stop-color="#BFB3B3"/>
<stop offset="1" stop-color="#595454"/>
</linearGradient>
<radialGradient id="paint13_radial_5503_872" cx="0" cy="0" r="1" gradientUnits="userSpaceOnUse" gradientTransform="translate(111.698 118.828) rotate(90) scale(8.5 4)">
<stop stop-color="#C0E3EE"/>
<stop offset="1" stop-color="#67B1C1"/>
</radialGradient>
<radialGradient id="paint14_radial_5503_872" cx="0" cy="0" r="1" gradientUnits="userSpaceOnUse" gradientTransform="translate(106.698 101.329) rotate(-90) scale(8.9993 9)">
<stop stop-color="#B3B8BA"/>
<stop offset="1" stop-color="#515354"/>
</radialGradient>
<radialGradient id="paint15_radial_5503_872" cx="0" cy="0" r="1" gradientUnits="userSpaceOnUse" gradientTransform="translate(107.358 100.868) rotate(-90) scale(8.53874 8.33958)">
<stop stop-color="#C0E3EE"/>
<stop offset="1" stop-color="#67B1C1"/>
</radialGradient>
<linearGradient id="paint16_linear_5503_872" x1="36.0337" y1="102.043" x2="36.0337" y2="91.795" gradientUnits="userSpaceOnUse">
<stop stop-color="#595454"/>
<stop offset="0.5" stop-color="#BFB3B3"/>
<stop offset="1" stop-color="#595454"/>
</linearGradient>
<linearGradient id="paint17_linear_5503_872" x1="0" y1="6.58798" x2="1.77684" y2="6.58798" gradientUnits="userSpaceOnUse">
<stop stop-color="#BFB3B3"/>
<stop offset="1" stop-color="#595454"/>
</linearGradient>
<radialGradient id="paint18_radial_5503_872" cx="0" cy="0" r="1" gradientUnits="userSpaceOnUse" gradientTransform="translate(6.07178 80.6055) rotate(-90) scale(2.60547 4)">
<stop stop-color="#C4C4C4"/>
<stop offset="1" stop-color="#808080"/>
</radialGradient>
<radialGradient id="paint19_radial_5503_872" cx="0" cy="0" r="1" gradientUnits="userSpaceOnUse" gradientTransform="translate(11.0718 92.2102) rotate(90) scale(8.9993 9)">
<stop stop-color="#B3B8BA"/>
<stop offset="1" stop-color="#515354"/>
</radialGradient>
<radialGradient id="paint20_radial_5503_872" cx="0" cy="0" r="1" gradientUnits="userSpaceOnUse" gradientTransform="translate(10.4115 92.6716) rotate(90) scale(8.53874 8.33958)">
<stop stop-color="#C4C4C4"/>
<stop offset="1" stop-color="#808080"/>
</radialGradient>
<linearGradient id="paint21_linear_5503_872" x1="35.3064" y1="60.5176" x2="35.3064" y2="70.7655" gradientUnits="userSpaceOnUse">
<stop stop-color="#595454"/>
<stop offset="0.5" stop-color="#BFB3B3"/>
<stop offset="1" stop-color="#595454"/>
</linearGradient>
<linearGradient id="paint22_linear_5503_872" x1="34.1885" y1="65.6427" x2="35.9653" y2="65.6427" gradientUnits="userSpaceOnUse">
<stop stop-color="#BFB3B3"/>
<stop offset="1" stop-color="#595454"/>
</linearGradient>
<linearGradient id="paint23_linear_5503_872" x1="57.0823" y1="42.1174" x2="59.7209" y2="42.1174" gradientUnits="userSpaceOnUse">
<stop stop-color="#595454"/>
<stop offset="0.5" stop-color="#B9B3B3"/>
<stop offset="1" stop-color="#595454"/>
</linearGradient>
<linearGradient id="paint24_linear_5503_872" x1="53.5657" y1="46.8464" x2="63.2406" y2="46.8464" gradientUnits="userSpaceOnUse">
<stop stop-color="#595454"/>
<stop offset="0.5" stop-color="#BFB3B3"/>
<stop offset="1" stop-color="#595454"/>
</linearGradient>
<linearGradient id="paint25_linear_5503_872" x1="58.8401" y1="107.69" x2="58.8401" y2="52.0351" gradientUnits="userSpaceOnUse">
<stop stop-color="#FAFAFA"/>
<stop offset="1" stop-color="#74B8FD"/>
</linearGradient>
<linearGradient id="paint26_linear_5503_872" x1="44.4832" y1="119.163" x2="40.4441" y2="119.163" gradientUnits="userSpaceOnUse">
<stop stop-color="#595454"/>
<stop offset="0.5" stop-color="#BFB3B3"/>
<stop offset="1" stop-color="#595454"/>
</linearGradient>
<linearGradient id="paint27_linear_5503_872" x1="75.5538" y1="119.698" x2="71.1562" y2="119.698" gradientUnits="userSpaceOnUse">
<stop stop-color="#595454"/>
<stop offset="0.5" stop-color="#BFB3B3"/>
<stop offset="1" stop-color="#595454"/>
</linearGradient>
<linearGradient id="paint28_linear_5503_872" x1="58.6155" y1="37.957" x2="58.6155" y2="36.2178" gradientUnits="userSpaceOnUse">
<stop stop-color="#595454"/>
<stop offset="0.5" stop-color="#B9B3B3"/>
<stop offset="1" stop-color="#595454"/>
</linearGradient>
<linearGradient id="paint29_linear_5503_872" x1="58.6518" y1="42.3047" x2="58.6518" y2="40.5655" gradientUnits="userSpaceOnUse">
<stop stop-color="#595454"/>
<stop offset="0.5" stop-color="#B9B3B3"/>
<stop offset="1" stop-color="#595454"/>
</linearGradient>
<linearGradient id="paint30_linear_5503_872" x1="79.9484" y1="50.9117" x2="37.6384" y2="50.9117" gradientUnits="userSpaceOnUse">
<stop stop-color="#595454"/>
<stop offset="0.5" stop-color="#BFB3B3"/>
<stop offset="1" stop-color="#595454"/>
</linearGradient>
<linearGradient id="paint31_linear_5503_872" x1="37.6387" y1="111.963" x2="79.9487" y2="111.963" gradientUnits="userSpaceOnUse">
<stop stop-color="#595454"/>
<stop offset="0.5" stop-color="#BFB3B3"/>
<stop offset="1" stop-color="#595454"/>
</linearGradient>
<linearGradient id="paint32_linear_5503_872" x1="36.8538" y1="54.9138" x2="80.8305" y2="54.9138" gradientUnits="userSpaceOnUse">
<stop stop-color="#595454"/>
<stop offset="0.5" stop-color="#BFB3B3"/>
<stop offset="1" stop-color="#595454"/>
</linearGradient>
<linearGradient id="paint33_linear_5503_872" x1="36.8538" y1="107.092" x2="80.8305" y2="107.092" gradientUnits="userSpaceOnUse">
<stop stop-color="#595454"/>
<stop offset="0.5" stop-color="#BFB3B3"/>
<stop offset="1" stop-color="#595454"/>
</linearGradient>
<clipPath id="clip0_5503_872">
<rect width="25" height="16" fill="white" transform="translate(0 78) rotate(-90)"/>
</clipPath>
</defs>
</svg>
