<svg width="132" height="16" viewBox="0 0 132 16" fill="none" xmlns="http://www.w3.org/2000/svg">
<path d="M-1.25169e-06 1.69336L0 9.69336L108 9.69336L108 1.69336L-1.25169e-06 1.69336Z" fill="url(#paint0_radial_5479_5710)"/>
<g clip-path="url(#clip0_5479_5710)">
<path d="M132 11.2L132 0L129.212 -2.43714e-07L129.212 11.2L132 11.2Z" fill="black"/>
<path d="M129.278 9.06667L129.278 2.13333L123.968 2.13333L123.968 9.06667L129.278 9.06667ZM107.479 -1.90577e-06L107.479 11.2L110.266 11.2L110.266 -1.6621e-06L107.479 -1.90577e-06Z" fill="black"/>
<path d="M110.2 2.13281L110.2 9.06615L115.511 9.06615L115.511 2.13281L110.2 2.13281ZM113.649 15.9995L124.819 15.9995L124.819 12.7995L113.649 12.7995L113.649 15.9995ZM115.989 12.7995L122.904 12.7995L122.904 9.06615L115.989 9.06615L115.989 12.7995Z" fill="black"/>
<path d="M119.713 -0.00104278C123.091 -0.00104249 125.83 2.74494 125.83 6.13229C125.83 9.51964 123.091 12.2656 119.713 12.2656C116.334 12.2656 113.596 9.51964 113.596 6.13229C113.596 2.74494 116.334 -0.00104308 119.713 -0.00104278Z" fill="#575757"/>
</g>
<defs>
<radialGradient id="paint0_radial_5479_5710" cx="0" cy="0" r="1" gradientUnits="userSpaceOnUse" gradientTransform="translate(54 5.69336) scale(54 4)">
<stop stop-color="#C4C4C4"/>
<stop offset="1" stop-color="#808080"/>
</radialGradient>
<clipPath id="clip0_5479_5710">
<rect width="25" height="16" fill="white" transform="matrix(-1 -8.74228e-08 -8.74228e-08 1 132 0)"/>
</clipPath>
</defs>
</svg>
