<svg width="136" height="142" viewBox="0 0 136 142" fill="none" xmlns="http://www.w3.org/2000/svg">
<path fill-rule="evenodd" clip-rule="evenodd" d="M125.522 123.063L125.529 124.748C125.548 126.94 126.453 129.036 128.046 130.579C129.64 132.122 131.793 132.988 134.038 132.988L135.331 132.982L135.365 141.021L134.07 141.027C129.643 141.037 125.393 139.333 122.249 136.288C119.106 133.244 117.325 129.107 117.297 124.783L117.29 123.098L125.522 123.063Z" fill="url(#paint0_radial_5509_1225)"/>
<path fill-rule="evenodd" clip-rule="evenodd" d="M117.295 124.419L125.525 124.383L125.527 124.747C125.546 126.939 126.45 129.035 128.044 130.578C129.638 132.122 131.791 132.988 134.035 132.987L134.408 132.986L134.442 141.025L134.068 141.026C129.641 141.036 125.39 139.332 122.247 136.288C119.103 133.243 117.323 129.106 117.295 124.782L117.295 124.419Z" fill="url(#paint1_radial_5509_1225)"/>
<path d="M84.7168 91.2754C84.1447 95.4505 84.1447 97.7278 84.7168 101.523L94.0603 101.523C94.0603 101.523 94.0603 98.4004 94.0603 96.3994C94.0603 94.3983 94.0603 91.2754 94.0603 91.2754L84.7168 91.2754Z" fill="url(#paint2_linear_5509_1225)"/>
<rect width="1.77684" height="13.176" transform="matrix(-1 -1.73859e-07 -1.71728e-07 1 90.5065 89.8105)" fill="url(#paint3_linear_5509_1225)"/>
<path d="M94.0504 100.107L94.0504 92.1074L111.05 92.1074L111.05 100.107L94.0504 100.107Z" fill="#B3B8BA"/>
<path d="M117.35 110.107L125.35 110.107L125.35 127.107L117.35 127.107L117.35 110.107Z" fill="url(#paint4_radial_5509_1225)"/>
<path fill-rule="evenodd" clip-rule="evenodd" d="M107.35 100.341L109.035 100.341C111.227 100.35 113.327 101.246 114.877 102.833C116.427 104.42 117.302 106.57 117.311 108.814L117.311 110.107L125.35 110.107L125.35 108.812C125.341 104.385 123.619 100.142 120.562 97.0116C117.504 93.8811 113.359 92.1182 109.035 92.1088L107.35 92.1088L107.35 100.341Z" fill="url(#paint5_radial_5509_1225)"/>
<path fill-rule="evenodd" clip-rule="evenodd" d="M108.671 92.1099L108.671 100.34L109.035 100.34C111.227 100.35 113.327 101.245 114.877 102.832C116.427 104.419 117.302 106.569 117.311 108.813L117.311 109.186L125.35 109.186L125.35 108.812C125.341 104.384 123.619 100.141 120.561 97.0108C117.504 93.8804 113.359 92.1175 109.035 92.1081L108.671 92.1099Z" fill="url(#paint6_radial_5509_1225)"/>
<path fill-rule="evenodd" clip-rule="evenodd" d="M108.323 89.8408C109.328 90.8457 110.013 92.1261 110.29 93.52C110.567 94.9138 110.425 96.3586 109.881 97.6716C109.337 98.9846 108.415 100.107 107.233 100.896C106.051 101.686 104.661 102.107 103.239 102.107C101.818 102.107 100.428 101.686 99.2454 100.896C98.0632 100.107 97.1418 98.9846 96.5977 97.6716C96.0536 96.3586 95.9112 94.9138 96.1886 93.52C96.466 92.1261 97.1507 90.8457 98.156 89.8408C98.8236 89.1735 99.6161 88.6442 100.488 88.2831C101.36 87.922 102.295 87.7361 103.239 87.7361C104.183 87.7361 105.118 87.922 105.99 88.2831C106.863 88.6442 107.655 89.1735 108.323 89.8408Z" fill="#273335"/>
<path fill-rule="evenodd" clip-rule="evenodd" d="M107.023 91.14C107.771 91.8881 108.28 92.8411 108.487 93.8785C108.693 94.9159 108.587 95.9912 108.182 96.9684C107.777 97.9455 107.091 98.7807 106.211 99.3683C105.331 99.9559 104.297 100.27 103.239 100.27C102.18 100.27 101.146 99.9559 100.266 99.3683C99.3862 98.7807 98.7004 97.9455 98.2953 96.9684C97.8903 95.9912 97.7842 94.9159 97.9905 93.8785C98.1968 92.8411 98.7062 91.8881 99.4543 91.14C99.9513 90.6432 100.541 90.2492 101.191 89.9803C101.84 89.7115 102.536 89.5731 103.239 89.5731C103.941 89.5731 104.637 89.7115 105.287 89.9803C105.936 90.2492 106.526 90.6432 107.023 91.14Z" fill="#455456"/>
<path fill-rule="evenodd" clip-rule="evenodd" d="M104.807 94.9223C104.798 95.3319 104.629 95.7217 104.336 96.0082C104.043 96.2947 103.649 96.4551 103.239 96.4551C102.83 96.4551 102.436 96.2947 102.143 96.0082C101.85 95.7217 101.681 95.3319 101.672 94.9223L101.672 83.5297C101.681 83.1201 101.85 82.7303 102.143 82.4438C102.436 82.1573 102.83 81.9969 103.239 81.9969C103.649 81.9969 104.043 82.1573 104.336 82.4438C104.629 82.7303 104.798 83.1201 104.807 83.5297L104.807 94.9223Z" fill="#E74657"/>
<path fill-rule="evenodd" clip-rule="evenodd" d="M105.068 93.0954C105.43 93.4569 105.676 93.9176 105.776 94.4192C105.876 94.9208 105.825 95.4408 105.629 95.9133C105.434 96.3858 105.102 96.7897 104.677 97.0739C104.251 97.3581 103.751 97.5098 103.239 97.5098C102.728 97.5098 102.228 97.3581 101.802 97.0739C101.377 96.7897 101.045 96.3858 100.849 95.9133C100.654 95.4408 100.603 94.9208 100.702 94.4192C100.802 93.9176 101.049 93.4569 101.411 93.0954C101.896 92.6108 102.554 92.3386 103.239 92.3386C103.925 92.3386 104.583 92.6108 105.068 93.0954Z" fill="#F5AB29"/>
<path fill-rule="evenodd" clip-rule="evenodd" d="M104.002 93.2204C104.161 93.379 104.269 93.581 104.313 93.801C104.356 94.0209 104.334 94.2489 104.248 94.4562C104.162 94.6634 104.017 94.8405 103.83 94.9651C103.644 95.0897 103.424 95.1563 103.2 95.1563C102.976 95.1563 102.756 95.0897 102.57 94.9651C102.383 94.8405 102.238 94.6634 102.152 94.4562C102.066 94.2489 102.044 94.0209 102.088 93.801C102.131 93.581 102.24 93.379 102.398 93.2204C102.611 93.0079 102.899 92.8885 103.2 92.8885C103.501 92.8885 103.789 93.0079 104.002 93.2204Z" fill="#F4CD72"/>
<path fill-rule="evenodd" clip-rule="evenodd" d="M104.309 89.7718C104.312 89.8782 104.294 89.9843 104.255 90.0836C104.217 90.183 104.159 90.2736 104.085 90.3501C104.01 90.4265 103.922 90.4873 103.823 90.5289C103.725 90.5704 103.62 90.5918 103.513 90.5918C103.407 90.5918 103.301 90.5704 103.203 90.5289C103.105 90.4873 103.016 90.4265 102.942 90.3501C102.868 90.2736 102.81 90.183 102.771 90.0836C102.733 89.9843 102.715 89.8782 102.718 89.7718L102.718 83.9922C102.724 83.7856 102.811 83.5896 102.959 83.4457C103.108 83.3018 103.306 83.2213 103.513 83.2213C103.72 83.2213 103.919 83.3018 104.067 83.4457C104.216 83.5896 104.302 83.7856 104.309 83.9922L104.309 89.7718Z" fill="#EB7080"/>
<path fill-rule="evenodd" clip-rule="evenodd" d="M106.649 93.7359C106.608 93.6185 106.615 93.4893 106.668 93.377C106.722 93.2646 106.818 93.1781 106.936 93.1367C107.053 93.0953 107.183 93.1022 107.295 93.1559C107.408 93.2097 107.494 93.3059 107.535 93.4234C107.6 93.6123 107.653 93.805 107.693 94.0006C107.733 94.1966 107.761 94.395 107.776 94.5945C107.78 94.7159 107.737 94.8341 107.656 94.9244C107.574 95.0146 107.461 95.0699 107.34 95.0786C107.219 95.0872 107.099 95.0486 107.006 94.9708C106.913 94.893 106.853 94.7821 106.84 94.6614C106.829 94.5031 106.808 94.3456 106.776 94.1899C106.744 94.0352 106.702 93.8828 106.649 93.7337L106.649 93.7359ZM106.501 96.4653C106.528 96.4088 106.564 96.3581 106.61 96.3161C106.656 96.274 106.71 96.2414 106.768 96.2202C106.826 96.199 106.889 96.1896 106.951 96.1925C107.013 96.1955 107.074 96.2106 107.13 96.2372C107.186 96.2638 107.236 96.3013 107.278 96.3475C107.319 96.3936 107.351 96.4476 107.372 96.5062C107.393 96.5648 107.401 96.6269 107.398 96.689C107.394 96.751 107.379 96.8117 107.351 96.8676C107.24 97.1024 107.108 97.3271 106.958 97.539C106.807 97.7527 106.639 97.9532 106.454 98.1383C105.649 98.943 104.571 99.4163 103.434 99.4646C103.231 99.4734 103.028 99.4683 102.825 99.4493C102.623 99.4313 102.422 99.3998 102.223 99.355C102.107 99.3229 102.008 99.2472 101.946 99.1438C101.884 99.0404 101.865 98.9171 101.892 98.7997C101.918 98.6822 101.989 98.5796 102.09 98.5131C102.19 98.4465 102.313 98.4213 102.431 98.4425C102.589 98.4786 102.749 98.504 102.91 98.5185C103.072 98.5328 103.234 98.5364 103.396 98.5292C103.948 98.5031 104.486 98.3517 104.971 98.0863C105.455 97.8209 105.873 97.4485 106.192 96.9976C106.31 96.8295 106.414 96.6514 106.501 96.4653Z" fill="#747F81"/>
<path d="M-1.25169e-06 20.6934L0 28.6934L105.309 28.6934L105.309 20.6934L-1.25169e-06 20.6934Z" fill="url(#paint7_radial_5509_1225)"/>
<path d="M23.6565 61.086L23.6907 69.0859L38.4823 69.0228L38.4481 61.0228L23.6565 61.086Z" fill="url(#paint8_radial_5509_1225)"/>
<path d="M24 92.0626L24.0342 100.062L38.8258 99.9993L38.7916 91.9994L24 92.0626Z" fill="url(#paint9_radial_5509_1225)"/>
<path d="M10 55L18 55L18 18L10 18L10 55Z" fill="url(#paint10_radial_5509_1225)"/>
<path d="M84.8868 69.9531C84.3147 65.778 84.3147 63.5007 84.8868 59.7052L94.2304 59.7052C94.2304 59.7052 94.2304 62.8281 94.2304 64.8291C94.2304 66.8302 94.2304 69.9531 94.2304 69.9531L84.8868 69.9531Z" fill="url(#paint11_linear_5509_1225)"/>
<rect x="90.6765" y="71.418" width="1.77684" height="13.176" transform="rotate(180 90.6765 71.418)" fill="url(#paint12_linear_5509_1225)"/>
<path d="M94.2205 61.1211L94.2205 69.1211L111.22 69.1211L111.22 61.1211L94.2205 61.1211Z" fill="#B3B8BA"/>
<path d="M115.521 51.1211L123.521 51.1211L123.521 34.1211L115.521 34.1211L115.521 51.1211Z" fill="url(#paint13_radial_5509_1225)"/>
<path fill-rule="evenodd" clip-rule="evenodd" d="M105.521 60.8876H107.205C109.397 60.8782 111.497 59.9824 113.047 58.3955C114.597 56.8085 115.472 54.6587 115.481 52.4144V51.1211H123.521V52.4162C123.511 56.8434 121.789 61.0865 118.732 64.2169C115.674 67.3474 111.529 69.1103 107.205 69.1197H105.521V60.8876Z" fill="url(#paint14_radial_5509_1225)"/>
<path fill-rule="evenodd" clip-rule="evenodd" d="M106.841 69.1187V60.8883H107.205C109.397 60.8789 111.497 59.9832 113.047 58.3962C114.597 56.8092 115.472 54.6595 115.481 52.4152V52.043H123.52V52.417C123.511 56.8441 121.789 61.0872 118.731 64.2177C115.674 67.3482 111.529 69.111 107.205 69.1204L106.841 69.1187Z" fill="url(#paint15_radial_5509_1225)"/>
<path fill-rule="evenodd" clip-rule="evenodd" d="M108.493 59.9658C109.498 60.9707 110.183 62.2511 110.46 63.645C110.737 65.0388 110.595 66.4836 110.051 67.7966C109.507 69.1096 108.585 70.2319 107.403 71.0214C106.221 71.811 104.831 72.2324 103.409 72.2324C101.987 72.2324 100.598 71.811 99.4154 71.0214C98.2332 70.2319 97.3118 69.1096 96.7676 67.7966C96.2235 66.4836 96.0812 65.0388 96.3585 63.645C96.6359 62.2511 97.3206 60.9707 98.3259 59.9658C98.9935 59.2985 99.786 58.7692 100.658 58.4081C101.53 58.047 102.465 57.8611 103.409 57.8611C104.353 57.8611 105.288 58.047 106.16 58.4081C107.033 58.7692 107.825 59.2985 108.493 59.9658Z" fill="#273335"/>
<path fill-rule="evenodd" clip-rule="evenodd" d="M107.193 61.265C107.941 62.0131 108.45 62.9661 108.657 64.0035C108.863 65.0409 108.757 66.1162 108.352 67.0934C107.947 68.0705 107.261 68.9057 106.381 69.4933C105.501 70.0809 104.467 70.3945 103.409 70.3945C102.35 70.3945 101.316 70.0809 100.436 69.4933C99.5561 68.9057 98.8703 68.0705 98.4653 67.0934C98.0602 66.1162 97.9541 65.0409 98.1604 64.0035C98.3667 62.9661 98.8761 62.0131 99.6243 61.265C100.121 60.7682 100.711 60.3742 101.36 60.1053C102.01 59.8365 102.706 59.6981 103.409 59.6981C104.111 59.6981 104.807 59.8365 105.457 60.1053C106.106 60.3742 106.696 60.7682 107.193 61.265Z" fill="#455456"/>
<path fill-rule="evenodd" clip-rule="evenodd" d="M104.977 65.0473C104.968 65.4569 104.799 65.8467 104.506 66.1332C104.213 66.4197 103.819 66.5801 103.409 66.5801C103 66.5801 102.606 66.4197 102.313 66.1332C102.02 65.8467 101.851 65.4569 101.842 65.0473V53.6547C101.851 53.2451 102.02 52.8553 102.313 52.5688C102.606 52.2823 103 52.1219 103.409 52.1219C103.819 52.1219 104.213 52.2823 104.506 52.5688C104.799 52.8553 104.968 53.2451 104.977 53.6547V65.0473Z" fill="#E74657"/>
<path fill-rule="evenodd" clip-rule="evenodd" d="M105.238 63.2204C105.6 63.5819 105.846 64.0426 105.946 64.5442C106.046 65.0458 105.995 65.5658 105.799 66.0383C105.604 66.5108 105.272 66.9147 104.847 67.1989C104.421 67.4831 103.921 67.6348 103.409 67.6348C102.898 67.6348 102.397 67.4831 101.972 67.1989C101.547 66.9147 101.215 66.5108 101.019 66.0383C100.824 65.5658 100.772 65.0458 100.872 64.5442C100.972 64.0426 101.219 63.5819 101.581 63.2204C102.066 62.7358 102.724 62.4636 103.409 62.4636C104.095 62.4636 104.753 62.7358 105.238 63.2204Z" fill="#F5AB29"/>
<path fill-rule="evenodd" clip-rule="evenodd" d="M104.172 63.3454C104.331 63.504 104.439 63.706 104.483 63.926C104.526 64.1459 104.504 64.3739 104.418 64.5812C104.332 64.7884 104.187 64.9655 104 65.0901C103.814 65.2147 103.594 65.2812 103.37 65.2812C103.146 65.2812 102.926 65.2147 102.74 65.0901C102.553 64.9655 102.408 64.7884 102.322 64.5812C102.236 64.3739 102.214 64.1459 102.258 63.926C102.301 63.706 102.409 63.504 102.568 63.3454C102.781 63.1329 103.069 63.0135 103.37 63.0135C103.671 63.0135 103.959 63.1329 104.172 63.3454Z" fill="#F4CD72"/>
<path fill-rule="evenodd" clip-rule="evenodd" d="M104.479 59.8968C104.482 60.0032 104.464 60.1093 104.425 60.2086C104.387 60.308 104.329 60.3986 104.255 60.4751C104.18 60.5515 104.092 60.6123 103.993 60.6539C103.895 60.6954 103.79 60.7168 103.683 60.7168C103.577 60.7168 103.471 60.6954 103.373 60.6539C103.275 60.6123 103.186 60.5515 103.112 60.4751C103.038 60.3986 102.98 60.308 102.941 60.2086C102.903 60.1093 102.884 60.0032 102.888 59.8968V54.1172C102.894 53.9106 102.981 53.7146 103.129 53.5707C103.278 53.4268 103.476 53.3463 103.683 53.3463C103.89 53.3463 104.089 53.4268 104.237 53.5707C104.386 53.7146 104.472 53.9106 104.479 54.1172V59.8968Z" fill="#EB7080"/>
<path fill-rule="evenodd" clip-rule="evenodd" d="M106.819 63.8609C106.778 63.7435 106.784 63.6143 106.838 63.502C106.892 63.3896 106.988 63.3031 107.106 63.2617C107.223 63.2203 107.353 63.2272 107.465 63.2809C107.577 63.3347 107.664 63.4309 107.705 63.5484C107.77 63.7373 107.823 63.93 107.863 64.1256C107.903 64.3216 107.931 64.52 107.946 64.7195C107.95 64.8409 107.907 64.9591 107.826 65.0494C107.744 65.1396 107.631 65.1949 107.51 65.2036C107.389 65.2122 107.269 65.1736 107.176 65.0958C107.083 65.018 107.023 64.9071 107.01 64.7864C106.999 64.6281 106.978 64.4706 106.946 64.3149C106.914 64.1602 106.871 64.0078 106.819 63.8587V63.8609ZM106.671 66.5903C106.697 66.5338 106.734 66.4831 106.78 66.4411C106.826 66.399 106.88 66.3664 106.938 66.3452C106.996 66.324 107.058 66.3146 107.121 66.3175C107.183 66.3205 107.243 66.3356 107.3 66.3622C107.356 66.3888 107.406 66.4263 107.448 66.4725C107.489 66.5186 107.521 66.5726 107.542 66.6312C107.563 66.6898 107.571 66.7519 107.568 66.814C107.564 66.876 107.548 66.9367 107.521 66.9926C107.41 67.2274 107.278 67.4521 107.128 67.664C106.977 67.8777 106.809 68.0782 106.624 68.2633C105.819 69.068 104.741 69.5413 103.604 69.5896C103.401 69.5984 103.197 69.5933 102.995 69.5743C102.793 69.5563 102.592 69.5248 102.393 69.48C102.277 69.4479 102.178 69.3722 102.116 69.2688C102.054 69.1654 102.035 69.0421 102.062 68.9247C102.088 68.8072 102.159 68.7046 102.26 68.6381C102.36 68.5715 102.482 68.5463 102.601 68.5675C102.759 68.6036 102.919 68.629 103.08 68.6435C103.242 68.6578 103.404 68.6614 103.566 68.6542C104.118 68.6281 104.656 68.4767 105.141 68.2113C105.625 67.9459 106.043 67.5735 106.362 67.1226C106.48 66.9545 106.584 66.7764 106.671 66.5903Z" fill="#747F81"/>
<path d="M48.0708 100.947C48.6429 96.7722 48.6429 94.4948 48.0708 90.6993L38.7273 90.6993C38.7273 90.6993 38.7273 93.8222 38.7273 95.8233C38.7273 97.8243 38.7273 100.947 38.7273 100.947L48.0708 100.947Z" fill="url(#paint16_linear_5509_1225)"/>
<rect width="1.77684" height="13.176" transform="matrix(1 -9.86176e-10 -3.11736e-09 -1 42.2811 102.412)" fill="url(#paint17_linear_5509_1225)"/>
<path d="M17.5 83H9.5V76H17.5V83Z" fill="url(#paint18_radial_5509_1225)"/>
<path fill-rule="evenodd" clip-rule="evenodd" d="M27.4371 91.8817L25.7527 91.8817C23.5605 91.8723 21.4607 90.9766 19.9106 89.3896C18.3605 87.8026 17.4856 85.6529 17.4764 83.4086L17.4764 82.1152L9.43713 82.1152L9.43713 83.4104C9.44635 87.8375 11.1683 92.0806 14.226 95.2111C17.2838 98.3415 21.4284 100.104 25.7527 100.114L27.4371 100.114L27.4371 91.8817Z" fill="url(#paint19_radial_5509_1225)"/>
<path fill-rule="evenodd" clip-rule="evenodd" d="M26.1165 100.113L26.1165 91.8824L25.7529 91.8824C23.5607 91.8731 21.4609 90.9773 19.9108 89.3903C18.3606 87.8034 17.4857 85.6536 17.4765 83.4093L17.4765 83.0371L9.43729 83.0371L9.43729 83.4111C9.44651 87.8382 11.1684 92.0814 14.2262 95.2118C17.284 98.3423 21.4286 100.105 25.7529 100.115L26.1165 100.113Z" fill="url(#paint20_radial_5509_1225)"/>
<path d="M47.5639 59.4219C48.1359 63.597 48.1359 65.8743 47.5639 69.6698L38.2203 69.6698C38.2203 69.6698 38.2203 66.5469 38.2203 64.5459C38.2203 62.5448 38.2203 59.4219 38.2203 59.4219L47.5639 59.4219Z" fill="url(#paint21_linear_5509_1225)"/>
<rect x="41.7742" y="57.959" width="1.77684" height="13.176" fill="url(#paint22_linear_5509_1225)"/>
<path d="M64.668 35.6174C65.743 34.9556 66.3293 34.9556 67.3066 35.6174L67.3066 45.9122C67.3066 45.9122 66.5025 46.4261 65.9873 46.4261C65.4721 46.4261 64.668 45.9122 64.668 45.9122L64.668 35.6174Z" fill="url(#paint23_linear_5509_1225)"/>
<path d="M61.1514 43.2564C65.093 42.951 67.243 42.951 70.8263 43.2564L70.8263 48.245C70.8263 48.245 67.8779 48.245 65.9888 48.245C64.0997 48.245 61.1514 48.245 61.1514 48.245L61.1514 43.2564Z" fill="url(#paint24_linear_5509_1225)"/>
<path d="M87.5347 53.3828C68.6247 53.3828 59.8293 53.3828 45.317 53.3828L45.317 106.595C45.317 106.595 58.1823 106.595 66.4258 106.595C74.6694 106.595 87.5347 106.595 87.5347 106.595L87.5347 53.3828Z" fill="url(#paint25_linear_5509_1225)"/>
<path d="M52.0688 123.883C50.3859 123.883 49.8249 123.883 48.0297 123.883L48.0297 112.252C48.0297 112.252 49.2606 112.252 50.0493 112.252C50.838 112.252 52.0688 112.252 52.0688 112.252L52.0688 123.883Z" fill="url(#paint26_linear_5509_1225)"/>
<path d="M83.1395 123.82C81.3072 123.82 80.6964 123.82 78.7419 123.82L78.7419 113.385C78.7419 113.385 80.082 113.385 80.9407 113.385C81.7994 113.385 83.1395 113.385 83.1395 113.385L83.1395 123.82Z" fill="url(#paint27_linear_5509_1225)"/>
<path d="M61.5761 36.8613C61.0098 36.1528 61.0098 35.7663 61.5761 35.1221L70.3865 35.1221C70.3865 35.1221 70.8262 35.6521 70.8262 35.9917C70.8262 36.3313 70.3865 36.8613 70.3865 36.8613L61.5761 36.8613Z" fill="url(#paint28_linear_5509_1225)"/>
<path d="M60.7715 41.209C60.1022 40.5004 60.1022 40.1139 60.7715 39.4698L71.1838 39.4698C71.1838 39.4698 71.7035 39.9998 71.7035 40.3394C71.7035 40.679 71.1838 41.209 71.1838 41.209L60.7715 41.209Z" fill="url(#paint29_linear_5509_1225)"/>
<path d="M60.8823 45.5566C44.4681 45.5566 45.2296 49.7068 45.2296 53.6384L87.5341 54.0753C87.5341 47.4351 85.2073 45.5566 72.7275 45.5566H60.8823Z" fill="url(#paint30_linear_5509_1225)"/>
<path d="M60.8825 115.127C44.4684 115.127 45.2298 110.977 45.2299 107.045L87.5343 106.608C87.5343 113.248 85.2075 115.127 72.7278 115.127H60.8825Z" fill="url(#paint31_linear_5509_1225)"/>
<rect x="44.4395" y="52.5137" width="43.9767" height="2.60884" rx="1.30442" fill="url(#paint32_linear_5509_1225)"/>
<rect x="44.4395" y="104.691" width="43.9767" height="2.60884" rx="1.30442" fill="url(#paint33_linear_5509_1225)"/>
<path fill-rule="evenodd" clip-rule="evenodd" d="M114.987 39.1211L114.987 37.4367C114.978 35.2445 114.082 33.1447 112.495 31.5946C110.908 30.0444 108.758 29.1695 106.514 29.1603L105.221 29.1603L105.221 21.1211L106.516 21.1211C110.943 21.1303 115.186 22.8522 118.316 25.91C121.447 28.9678 123.21 33.1124 123.219 37.4367L123.219 39.1211L114.987 39.1211Z" fill="url(#paint34_radial_5509_1225)"/>
<path fill-rule="evenodd" clip-rule="evenodd" d="M123.22 37.8008L114.989 37.8008L114.989 37.4372C114.98 35.245 114.084 33.1452 112.497 31.5951C110.91 30.045 108.76 29.17 106.516 29.1609L106.144 29.1609L106.144 21.1216L106.518 21.1216C110.945 21.1308 115.188 22.8528 118.319 25.9105C121.449 28.9683 123.212 33.1129 123.221 37.4372L123.22 37.8008Z" fill="url(#paint35_radial_5509_1225)"/>
<path fill-rule="evenodd" clip-rule="evenodd" d="M9.76659 18L9.76659 16.3156C9.75719 14.1234 8.86147 12.0236 7.27448 10.4735C5.6875 8.92333 3.53777 8.04842 1.29345 8.03924L0.000121635 8.03924L0.000121284 1.1767e-07L1.29524 6.10591e-08C5.72238 0.00921335 9.96549 1.73114 13.096 4.78891C16.2264 7.84668 17.9893 11.9913 17.9987 16.3156L17.9987 18L9.76659 18Z" fill="url(#paint36_radial_5509_1225)"/>
<path fill-rule="evenodd" clip-rule="evenodd" d="M17.9992 16.6797L9.7688 16.6797L9.7688 16.3161C9.7594 14.1239 8.86369 12.0241 7.2767 10.474C5.68971 8.92386 3.53998 8.04894 1.29566 8.03976L0.923462 8.03976L0.923461 0.000526173L1.29745 0.000526156C5.72459 0.00973945 9.96771 1.73166 13.0982 4.78944C16.2286 7.84721 17.9915 11.9918 18.0009 16.3161L17.9992 16.6797Z" fill="url(#paint37_radial_5509_1225)"/>
<g clip-path="url(#clip0_5509_1225)">
<path d="M19.2 78L8 78L8 75.2122L19.2 75.2122L19.2 78Z" fill="black"/>
<path d="M17.0667 75.2773L10.1333 75.2773L10.1333 69.9672L17.0667 69.9672L17.0667 75.2773ZM8 53.4779L19.2 53.4779L19.2 56.2651L8 56.2651L8 53.4779Z" fill="black"/>
<path d="M10.1333 56.1997L17.0666 56.1997L17.0666 61.5098L10.1333 61.5098L10.1333 56.1997ZM24 59.6481L24 70.8184L20.8 70.8184L20.8 59.6481L24 59.6481ZM20.8 61.9886L20.8 68.9035L17.0666 68.9035L17.0666 61.9886L20.8 61.9886Z" fill="black"/>
<path d="M8.00006 65.7127C8.00006 69.0911 10.746 71.8297 14.1334 71.8297C17.5207 71.8297 20.2667 69.0911 20.2667 65.7127C20.2667 62.3344 17.5207 59.5957 14.1334 59.5957C10.746 59.5957 8.00006 62.3344 8.00006 65.7127Z" fill="#575757"/>
<path d="M11.2 64.1699L11.2 53.5316L16 53.5316L16 64.1699L11.2 64.1699Z" fill="#67B1C1"/>
<path d="M11.2 63.1073L24 63.1073L24 67.8945L13.8666 67.8945C13.1594 67.8945 12.4811 67.6143 11.981 67.1156C11.4809 66.6168 11.2 65.9403 11.2 65.235L11.2 63.1073Z" fill="#67B1C1"/>
</g>
<defs>
<radialGradient id="paint0_radial_5509_1225" cx="0" cy="0" r="1" gradientUnits="userSpaceOnUse" gradientTransform="translate(126.328 132.06) rotate(179.755) scale(8.9993 9)">
<stop stop-color="#B3B8BA"/>
<stop offset="1" stop-color="#515354"/>
</radialGradient>
<radialGradient id="paint1_radial_5509_1225" cx="0" cy="0" r="1" gradientUnits="userSpaceOnUse" gradientTransform="translate(125.868 132.722) rotate(179.755) scale(8.53874 8.33958)">
<stop stop-color="#C0E3EE"/>
<stop offset="1" stop-color="#67B1C1"/>
</radialGradient>
<linearGradient id="paint2_linear_5509_1225" x1="89.3885" y1="91.2754" x2="89.3885" y2="101.523" gradientUnits="userSpaceOnUse">
<stop stop-color="#595454"/>
<stop offset="0.5" stop-color="#BFB3B3"/>
<stop offset="1" stop-color="#595454"/>
</linearGradient>
<linearGradient id="paint3_linear_5509_1225" x1="0" y1="6.58798" x2="1.77684" y2="6.58798" gradientUnits="userSpaceOnUse">
<stop stop-color="#BFB3B3"/>
<stop offset="1" stop-color="#595454"/>
</linearGradient>
<radialGradient id="paint4_radial_5509_1225" cx="0" cy="0" r="1" gradientUnits="userSpaceOnUse" gradientTransform="translate(121.35 118.607) rotate(90) scale(8.5 4)">
<stop stop-color="#C0E3EE"/>
<stop offset="1" stop-color="#67B1C1"/>
</radialGradient>
<radialGradient id="paint5_radial_5509_1225" cx="0" cy="0" r="1" gradientUnits="userSpaceOnUse" gradientTransform="translate(116.35 101.108) rotate(-90) scale(8.9993 9)">
<stop stop-color="#B3B8BA"/>
<stop offset="1" stop-color="#515354"/>
</radialGradient>
<radialGradient id="paint6_radial_5509_1225" cx="0" cy="0" r="1" gradientUnits="userSpaceOnUse" gradientTransform="translate(117.011 100.647) rotate(-90) scale(8.53874 8.33958)">
<stop stop-color="#C0E3EE"/>
<stop offset="1" stop-color="#67B1C1"/>
</radialGradient>
<radialGradient id="paint7_radial_5509_1225" cx="0" cy="0" r="1" gradientUnits="userSpaceOnUse" gradientTransform="translate(52.6543 24.6934) scale(52.6543 4)">
<stop stop-color="#C4C4C4"/>
<stop offset="1" stop-color="#808080"/>
</radialGradient>
<radialGradient id="paint8_radial_5509_1225" cx="0" cy="0" r="1" gradientUnits="userSpaceOnUse" gradientTransform="translate(31.0694 65.0544) rotate(-0.244694) scale(7.39588 4)">
<stop stop-color="#C0E3EE"/>
<stop offset="1" stop-color="#67B1C1"/>
</radialGradient>
<radialGradient id="paint9_radial_5509_1225" cx="0" cy="0" r="1" gradientUnits="userSpaceOnUse" gradientTransform="translate(31.4129 96.031) rotate(-0.244694) scale(7.39588 4)">
<stop stop-color="#C4C4C4"/>
<stop offset="1" stop-color="#808080"/>
</radialGradient>
<radialGradient id="paint10_radial_5509_1225" cx="0" cy="0" r="1" gradientUnits="userSpaceOnUse" gradientTransform="translate(14 36.5) rotate(-90) scale(18.5 4)">
<stop stop-color="#C0E3EE"/>
<stop offset="1" stop-color="#67B1C1"/>
</radialGradient>
<linearGradient id="paint11_linear_5509_1225" x1="89.5586" y1="69.9531" x2="89.5586" y2="59.7052" gradientUnits="userSpaceOnUse">
<stop stop-color="#595454"/>
<stop offset="0.5" stop-color="#BFB3B3"/>
<stop offset="1" stop-color="#595454"/>
</linearGradient>
<linearGradient id="paint12_linear_5509_1225" x1="90.6765" y1="78.0059" x2="92.4534" y2="78.0059" gradientUnits="userSpaceOnUse">
<stop stop-color="#BFB3B3"/>
<stop offset="1" stop-color="#595454"/>
</linearGradient>
<radialGradient id="paint13_radial_5509_1225" cx="0" cy="0" r="1" gradientUnits="userSpaceOnUse" gradientTransform="translate(119.521 42.6211) rotate(-90) scale(8.5 4)">
<stop stop-color="#C4C4C4"/>
<stop offset="1" stop-color="#808080"/>
</radialGradient>
<radialGradient id="paint14_radial_5509_1225" cx="0" cy="0" r="1" gradientUnits="userSpaceOnUse" gradientTransform="translate(114.521 60.1204) rotate(90) scale(8.9993 9)">
<stop stop-color="#B3B8BA"/>
<stop offset="1" stop-color="#515354"/>
</radialGradient>
<radialGradient id="paint15_radial_5509_1225" cx="0" cy="0" r="1" gradientUnits="userSpaceOnUse" gradientTransform="translate(115.181 60.5817) rotate(90) scale(8.53874 8.33958)">
<stop stop-color="#C4C4C4"/>
<stop offset="1" stop-color="#808080"/>
</radialGradient>
<linearGradient id="paint16_linear_5509_1225" x1="43.3991" y1="100.947" x2="43.3991" y2="90.6993" gradientUnits="userSpaceOnUse">
<stop stop-color="#595454"/>
<stop offset="0.5" stop-color="#BFB3B3"/>
<stop offset="1" stop-color="#595454"/>
</linearGradient>
<linearGradient id="paint17_linear_5509_1225" x1="0" y1="6.58798" x2="1.77684" y2="6.58798" gradientUnits="userSpaceOnUse">
<stop stop-color="#BFB3B3"/>
<stop offset="1" stop-color="#595454"/>
</linearGradient>
<radialGradient id="paint18_radial_5509_1225" cx="0" cy="0" r="1" gradientUnits="userSpaceOnUse" gradientTransform="translate(13.5 79.5) rotate(-90) scale(3.5 4)">
<stop stop-color="#C4C4C4"/>
<stop offset="1" stop-color="#808080"/>
</radialGradient>
<radialGradient id="paint19_radial_5509_1225" cx="0" cy="0" r="1" gradientUnits="userSpaceOnUse" gradientTransform="translate(18.4371 91.1145) rotate(90) scale(8.9993 9)">
<stop stop-color="#B3B8BA"/>
<stop offset="1" stop-color="#515354"/>
</radialGradient>
<radialGradient id="paint20_radial_5509_1225" cx="0" cy="0" r="1" gradientUnits="userSpaceOnUse" gradientTransform="translate(17.7769 91.5759) rotate(90) scale(8.53874 8.33958)">
<stop stop-color="#C4C4C4"/>
<stop offset="1" stop-color="#808080"/>
</radialGradient>
<linearGradient id="paint21_linear_5509_1225" x1="42.8921" y1="59.4219" x2="42.8921" y2="69.6698" gradientUnits="userSpaceOnUse">
<stop stop-color="#595454"/>
<stop offset="0.5" stop-color="#BFB3B3"/>
<stop offset="1" stop-color="#595454"/>
</linearGradient>
<linearGradient id="paint22_linear_5509_1225" x1="41.7742" y1="64.547" x2="43.551" y2="64.547" gradientUnits="userSpaceOnUse">
<stop stop-color="#BFB3B3"/>
<stop offset="1" stop-color="#595454"/>
</linearGradient>
<linearGradient id="paint23_linear_5509_1225" x1="64.668" y1="41.0217" x2="67.3066" y2="41.0217" gradientUnits="userSpaceOnUse">
<stop stop-color="#595454"/>
<stop offset="0.5" stop-color="#B9B3B3"/>
<stop offset="1" stop-color="#595454"/>
</linearGradient>
<linearGradient id="paint24_linear_5509_1225" x1="61.1514" y1="45.7507" x2="70.8263" y2="45.7507" gradientUnits="userSpaceOnUse">
<stop stop-color="#595454"/>
<stop offset="0.5" stop-color="#BFB3B3"/>
<stop offset="1" stop-color="#595454"/>
</linearGradient>
<linearGradient id="paint25_linear_5509_1225" x1="66.4258" y1="106.595" x2="66.4258" y2="50.9394" gradientUnits="userSpaceOnUse">
<stop stop-color="#FAFAFA"/>
<stop offset="1" stop-color="#74B8FD"/>
</linearGradient>
<linearGradient id="paint26_linear_5509_1225" x1="52.0688" y1="118.067" x2="48.0297" y2="118.067" gradientUnits="userSpaceOnUse">
<stop stop-color="#595454"/>
<stop offset="0.5" stop-color="#BFB3B3"/>
<stop offset="1" stop-color="#595454"/>
</linearGradient>
<linearGradient id="paint27_linear_5509_1225" x1="83.1395" y1="118.603" x2="78.7419" y2="118.603" gradientUnits="userSpaceOnUse">
<stop stop-color="#595454"/>
<stop offset="0.5" stop-color="#BFB3B3"/>
<stop offset="1" stop-color="#595454"/>
</linearGradient>
<linearGradient id="paint28_linear_5509_1225" x1="66.2012" y1="36.8613" x2="66.2012" y2="35.1221" gradientUnits="userSpaceOnUse">
<stop stop-color="#595454"/>
<stop offset="0.5" stop-color="#B9B3B3"/>
<stop offset="1" stop-color="#595454"/>
</linearGradient>
<linearGradient id="paint29_linear_5509_1225" x1="66.2375" y1="41.209" x2="66.2375" y2="39.4698" gradientUnits="userSpaceOnUse">
<stop stop-color="#595454"/>
<stop offset="0.5" stop-color="#B9B3B3"/>
<stop offset="1" stop-color="#595454"/>
</linearGradient>
<linearGradient id="paint30_linear_5509_1225" x1="87.5341" y1="49.816" x2="45.2241" y2="49.816" gradientUnits="userSpaceOnUse">
<stop stop-color="#595454"/>
<stop offset="0.5" stop-color="#BFB3B3"/>
<stop offset="1" stop-color="#595454"/>
</linearGradient>
<linearGradient id="paint31_linear_5509_1225" x1="45.2244" y1="110.868" x2="87.5343" y2="110.868" gradientUnits="userSpaceOnUse">
<stop stop-color="#595454"/>
<stop offset="0.5" stop-color="#BFB3B3"/>
<stop offset="1" stop-color="#595454"/>
</linearGradient>
<linearGradient id="paint32_linear_5509_1225" x1="44.4395" y1="53.8181" x2="88.4162" y2="53.8181" gradientUnits="userSpaceOnUse">
<stop stop-color="#595454"/>
<stop offset="0.5" stop-color="#BFB3B3"/>
<stop offset="1" stop-color="#595454"/>
</linearGradient>
<linearGradient id="paint33_linear_5509_1225" x1="44.4395" y1="105.996" x2="88.4162" y2="105.996" gradientUnits="userSpaceOnUse">
<stop stop-color="#595454"/>
<stop offset="0.5" stop-color="#BFB3B3"/>
<stop offset="1" stop-color="#595454"/>
</linearGradient>
<radialGradient id="paint34_radial_5509_1225" cx="0" cy="0" r="1" gradientUnits="userSpaceOnUse" gradientTransform="translate(114.22 30.1211) scale(8.9993 9)">
<stop stop-color="#B3B8BA"/>
<stop offset="1" stop-color="#515354"/>
</radialGradient>
<radialGradient id="paint35_radial_5509_1225" cx="0" cy="0" r="1" gradientUnits="userSpaceOnUse" gradientTransform="translate(114.683 29.4612) scale(8.53874 8.33958)">
<stop stop-color="#C4C4C4"/>
<stop offset="1" stop-color="#808080"/>
</radialGradient>
<radialGradient id="paint36_radial_5509_1225" cx="0" cy="0" r="1" gradientUnits="userSpaceOnUse" gradientTransform="translate(8.99943 9) scale(8.9993 9)">
<stop stop-color="#B3B8BA"/>
<stop offset="1" stop-color="#515354"/>
</radialGradient>
<radialGradient id="paint37_radial_5509_1225" cx="0" cy="0" r="1" gradientUnits="userSpaceOnUse" gradientTransform="translate(9.4622 8.34011) scale(8.53874 8.33958)">
<stop stop-color="#C0E3EE"/>
<stop offset="1" stop-color="#67B1C1"/>
</radialGradient>
<clipPath id="clip0_5509_1225">
<rect width="25" height="16" fill="white" transform="translate(8 78) rotate(-90)"/>
</clipPath>
</defs>
</svg>
