<svg width="148" height="119" viewBox="0 0 148 119" fill="none" xmlns="http://www.w3.org/2000/svg">
<path d="M30 61H108V82H30V61Z" fill="#6E3E00"/>
<rect x="30" y="91" width="78" height="28" fill="#513505"/>
<path d="M33.8956 76.0463C34.0171 75.809 34.2236 75.2868 34.0778 75.097C33.932 74.7172 32.6806 73.3565 32.0732 72.7235C32.0124 72.5653 31.7087 72.4387 30.9797 73.1982C30.2507 73.9577 31.2834 75.4134 31.8909 76.0463C33.2031 76.6159 33.7741 76.2837 33.8956 76.0463Z" fill="#D9D9D9"/>
<path d="M36.9937 67.5012C33.7863 66.362 32.6199 67.9759 32.4377 68.9253C32.4377 70.8237 35.232 71.1405 36.6292 71.0617C38.8162 70.6819 38.7554 69.0047 38.4517 68.2136C38.3909 68.1345 38.0143 67.8812 36.9937 67.5012Z" fill="#D9D9D9"/>
<path d="M38.9984 71.0625C38.7068 71.0625 38.7554 72.803 38.8162 73.6732C38.6704 74.8125 39.3021 75.7302 39.5451 76.0466C42.2788 76.5213 42.8862 75.5719 43.3722 75.0973C43.919 73.4359 43.518 72.5815 43.3722 72.0118C43.19 71.2998 42.0965 70.5878 41.732 70.5878C38.8162 70.5878 39.3629 71.0625 38.9984 71.0625Z" fill="#D9D9D9"/>
<path d="M39.9096 68.9264C40.7844 70.4454 42.8255 69.5593 43.7367 68.9264C43.7367 68.689 43.7367 68.2145 43.5545 68.2145C43.3722 68.2145 42.8255 68.2144 42.2788 67.265C41.8414 66.5055 41.1246 66.4739 40.8208 66.553C39.6545 66.9327 39.7274 68.2935 39.9096 68.9264Z" fill="#D9D9D9"/>
<path d="M46.4703 65.6032C44.8666 65.9829 44.7087 67.9766 44.8302 68.9259C47.3087 71.2041 48.5358 69.4005 48.8395 68.2139C48.5479 65.7456 47.1386 65.4449 46.4703 65.6032Z" fill="#D9D9D9"/>
<path d="M47.0171 72.0108C46.5797 72.7702 47.0778 74.2259 47.3816 74.8588C48.5479 75.9978 49.933 75.3334 50.4797 74.8588C51.2087 73.5294 51.0264 71.6151 50.8442 70.824C48.5115 70.2544 47.3208 71.3778 47.0171 72.0108Z" fill="#D9D9D9"/>
<path d="M54.6713 73.4352C54.6713 75.144 56.0078 75.7295 56.676 75.8086C57.6965 75.8086 59.4096 74.2263 60.1386 73.4352C60.3208 72.3276 60.4302 70.3023 59.4096 71.0618C58.3891 71.8212 57.7694 72.0109 57.5872 72.0108C56.6152 71.7735 54.6713 71.7263 54.6713 73.4352Z" fill="#D9D9D9"/>
<path d="M60.1386 69.875C61.5358 69.2421 63.5283 67.4067 60.3208 65.1282C56.3115 62.2802 57.0405 68.9261 60.1386 69.875Z" fill="#D9D9D9"/>
<path d="M63.0545 72.0108L63.2367 74.1474C66.59 75.8567 67.5498 74.3848 67.6106 73.4352C67.3676 72.9604 66.5171 71.8685 65.0592 71.2993C63.6012 70.7301 63.1152 71.5364 63.0545 72.0108Z" fill="#D9D9D9"/>
<path d="M36.1666 117.622C36.2881 117.385 36.4947 116.863 36.3489 116.673C36.2031 116.293 34.9517 114.933 34.3442 114.3C34.2834 114.141 33.9797 114.015 33.2507 114.774C32.5218 115.534 33.5545 116.99 34.1619 117.622C35.4741 118.192 36.0451 117.86 36.1666 117.622Z" fill="#D9D9D9"/>
<path d="M39.2648 109.077C36.0573 107.938 34.8909 109.552 34.7087 110.501C34.7087 112.4 37.5031 112.717 38.9003 112.638C41.0872 112.258 41.0264 110.581 40.7227 109.79C40.6619 109.711 40.2853 109.457 39.2648 109.077Z" fill="#D9D9D9"/>
<path d="M41.2694 112.639C40.9778 112.639 41.0264 114.379 41.0872 115.249C40.9414 116.389 41.5732 117.306 41.8162 117.623C44.5498 118.097 45.1573 117.148 45.6433 116.673C46.19 115.012 45.789 114.158 45.6433 113.588C45.461 112.876 44.3676 112.164 44.0031 112.164C41.0872 112.164 41.6339 112.639 41.2694 112.639Z" fill="#D9D9D9"/>
<path d="M42.1806 110.503C43.0554 112.022 45.0965 111.135 46.0077 110.503C46.0077 110.265 46.0077 109.791 45.8255 109.791C45.6433 109.791 45.0965 109.791 44.5498 108.841C44.1124 108.082 43.3956 108.05 43.0919 108.129C41.9255 108.509 41.9984 109.87 42.1806 110.503Z" fill="#D9D9D9"/>
<path d="M48.7414 107.179C47.1376 107.559 46.9797 109.553 47.1012 110.502C49.5797 112.78 50.8068 110.977 51.1105 109.79C50.8189 107.322 49.4096 107.021 48.7414 107.179Z" fill="#D9D9D9"/>
<path d="M49.2881 113.587C48.8507 114.346 49.3489 115.802 49.6526 116.435C50.8189 117.574 52.204 116.91 52.7507 116.435C53.4797 115.106 53.2975 113.191 53.1152 112.4C50.7825 111.831 49.5919 112.954 49.2881 113.587Z" fill="#D9D9D9"/>
<path d="M56.9423 115.011C56.9423 116.72 58.2788 117.306 58.947 117.385C59.9676 117.385 61.6806 115.802 62.4096 115.011C62.5919 113.904 62.7012 111.878 61.6806 112.638C60.6601 113.397 60.0405 113.587 59.8582 113.587C58.8863 113.35 56.9423 113.302 56.9423 115.011Z" fill="#D9D9D9"/>
<path d="M62.4096 111.451C63.8068 110.818 65.7993 108.983 62.5919 106.704C58.5825 103.856 59.3115 110.502 62.4096 111.451Z" fill="#D9D9D9"/>
<path d="M65.3255 113.587L65.5077 115.724C68.861 117.433 69.8208 115.961 69.8816 115.011C69.6386 114.537 68.7881 113.445 67.3302 112.875C65.8722 112.306 65.3863 113.113 65.3255 113.587Z" fill="#D9D9D9"/>
<path d="M103.808 76.0463C103.687 75.809 103.48 75.2868 103.626 75.097C103.772 74.7172 105.023 73.3565 105.631 72.7235C105.692 72.5653 105.995 72.4387 106.724 73.1982C107.453 73.9577 106.421 75.4134 105.813 76.0463C104.501 76.6159 103.93 76.2837 103.808 76.0463Z" fill="#D9D9D9"/>
<path d="M100.71 67.5012C103.918 66.362 105.084 67.9759 105.266 68.9253C105.266 70.8237 102.472 71.1405 101.075 71.0617C98.8879 70.6819 98.9486 69.0047 99.2523 68.2136C99.3131 68.1345 99.6897 67.8812 100.71 67.5012Z" fill="#D9D9D9"/>
<path d="M98.7056 71.0625C98.9972 71.0625 98.9486 72.803 98.8879 73.6732C99.0337 74.8125 98.4019 75.7302 98.1589 76.0466C95.4253 76.5213 94.8178 75.5719 94.3318 75.0973C93.7851 73.4359 94.186 72.5815 94.3318 72.0118C94.5141 71.2998 95.6075 70.5878 95.972 70.5878C98.8879 70.5878 98.3411 71.0625 98.7056 71.0625Z" fill="#D9D9D9"/>
<path d="M97.7944 68.9264C96.9197 70.4454 94.8785 69.5593 93.9673 68.9264C93.9673 68.689 93.9673 68.2145 94.1496 68.2145C94.3318 68.2145 94.8785 68.2144 95.4253 67.265C95.8627 66.5055 96.5795 66.4739 96.8832 66.553C98.0496 66.9327 97.9767 68.2935 97.7944 68.9264Z" fill="#D9D9D9"/>
<path d="M91.2336 65.6032C92.8374 65.9829 92.9953 67.9766 92.8738 68.9259C90.3953 71.2041 89.1682 69.4005 88.8645 68.2139C89.1561 65.7456 90.5654 65.4449 91.2336 65.6032Z" fill="#D9D9D9"/>
<path d="M90.6869 72.0108C91.1243 72.7702 90.6262 74.2259 90.3224 74.8588C89.1561 75.9978 87.771 75.3334 87.2243 74.8588C86.4953 73.5294 86.6776 71.6151 86.8598 70.824C89.1925 70.2544 90.3832 71.3778 90.6869 72.0108Z" fill="#D9D9D9"/>
<path d="M83.0327 73.4352C83.0327 75.144 81.6963 75.7295 81.028 75.8086C80.0075 75.8086 78.2944 74.2263 77.5654 73.4352C77.3832 72.3276 77.2738 70.3023 78.2944 71.0618C79.3149 71.8212 79.9346 72.0109 80.1168 72.0108C81.0888 71.7735 83.0327 71.7263 83.0327 73.4352Z" fill="#D9D9D9"/>
<path d="M77.5654 69.875C76.1682 69.2421 74.1757 67.4067 77.3832 65.1282C81.3925 62.2802 80.6635 68.9261 77.5654 69.875Z" fill="#D9D9D9"/>
<path d="M74.6495 72.0108L74.4673 74.1474C71.114 75.8567 70.1542 74.3848 70.0935 73.4352C70.3364 72.9604 71.1869 71.8685 72.6449 71.2993C74.1028 70.7301 74.5888 71.5364 74.6495 72.0108Z" fill="#D9D9D9"/>
<path d="M104.079 117.622C103.958 117.385 103.751 116.863 103.897 116.673C104.043 116.293 105.294 114.933 105.902 114.3C105.963 114.141 106.266 114.015 106.995 114.774C107.724 115.534 106.692 116.99 106.084 117.622C104.772 118.192 104.201 117.86 104.079 117.622Z" fill="#D9D9D9"/>
<path d="M100.981 109.077C104.189 107.938 105.355 109.552 105.537 110.501C105.537 112.4 102.743 112.717 101.346 112.638C99.1589 112.258 99.2196 110.581 99.5234 109.79C99.5841 109.711 99.9607 109.457 100.981 109.077Z" fill="#D9D9D9"/>
<path d="M98.9767 112.639C99.2683 112.639 99.2197 114.379 99.1589 115.249C99.3047 116.389 98.6729 117.306 98.4299 117.623C95.6963 118.097 95.0888 117.148 94.6028 116.673C94.0561 115.012 94.457 114.158 94.6028 113.588C94.7851 112.876 95.8785 112.164 96.243 112.164C99.1589 112.164 98.6122 112.639 98.9767 112.639Z" fill="#D9D9D9"/>
<path d="M98.0655 110.503C97.1907 112.022 95.1496 111.135 94.2384 110.503C94.2384 110.265 94.2384 109.791 94.4206 109.791C94.6028 109.791 95.1496 109.791 95.6963 108.841C96.1337 108.082 96.8505 108.05 97.1542 108.129C98.3206 108.509 98.2477 109.87 98.0655 110.503Z" fill="#D9D9D9"/>
<path d="M91.5047 107.179C93.1084 107.559 93.2663 109.553 93.1449 110.502C90.6663 112.78 89.4392 110.977 89.1355 109.79C89.4271 107.322 90.8364 107.021 91.5047 107.179Z" fill="#D9D9D9"/>
<path d="M90.9579 113.587C91.3953 114.346 90.8972 115.802 90.5935 116.435C89.4271 117.574 88.0421 116.91 87.4953 116.435C86.7664 115.106 86.9486 113.191 87.1308 112.4C89.4635 111.831 90.6542 112.954 90.9579 113.587Z" fill="#D9D9D9"/>
<path d="M83.3037 115.011C83.3037 116.72 81.9673 117.306 81.2991 117.385C80.2785 117.385 78.5654 115.802 77.8364 115.011C77.6542 113.904 77.5449 111.878 78.5654 112.638C79.586 113.397 80.2056 113.587 80.3878 113.587C81.3598 113.35 83.3037 113.302 83.3037 115.011Z" fill="#D9D9D9"/>
<path d="M77.8364 111.451C76.4392 110.818 74.4467 108.983 77.6542 106.704C81.6635 103.856 80.9346 110.502 77.8364 111.451Z" fill="#D9D9D9"/>
<path d="M74.9206 113.587L74.7383 115.724C71.385 117.433 70.4252 115.961 70.3645 115.011C70.6075 114.537 71.4579 113.445 72.9159 112.875C74.3738 112.306 74.8598 113.113 74.9206 113.587Z" fill="#D9D9D9"/>
<rect x="30" y="79" width="78" height="12" fill="#4ED8FF"/>
<path d="M74.9644 103.362C75.6245 103.018 77.8798 103.506 78.9249 103.792L82.7204 102.718C82.5884 100.999 83.3255 99.5658 83.7105 99.0643C83.1605 98.2763 81.4333 96.5282 78.9249 95.8405C76.4166 95.1528 74.5794 99.1358 73.9743 101.213C74.0293 102.073 74.3043 103.706 74.9644 103.362Z" fill="#A8A9AE"/>
<path d="M83.7105 99.4919L81.8953 97.7726C81.7632 97.6475 81.7302 96.7176 81.7303 96.2682C82.3903 95.6235 84.1726 94.334 86.0208 94.334C87.869 94.334 88.8812 94.6205 89.1562 94.7638C91.2685 94.7638 90.2563 98.4889 89.4862 100.352C88.034 98.8042 85.0307 99.1337 83.7105 99.4919Z" fill="#A8A9AE"/>
<path d="M66.5483 105.082C66.4163 104.222 67.5934 102.575 68.1985 101.858C68.7266 99.6231 67.6484 98.4912 67.0433 98.2047C65.3931 99.924 61.4326 97.1301 61.2676 97.1301C61.1356 97.1301 60.5525 97.7032 60.2775 97.9898C59.2213 98.1617 59.3974 99.6374 59.6174 100.354C59.6724 101.213 59.6834 103.019 59.2873 103.363C58.8913 103.706 59.1223 104.795 59.2873 105.297C61.9277 107.36 65.2281 106.013 66.5483 105.082Z" fill="#656668"/>
<path d="M69.0236 104.437C68.2315 104.781 67.8134 105.583 67.7034 105.942C66.9883 106.443 65.7892 106.887 66.7133 104.652C67.8684 101.858 68.5285 102.073 70.1787 100.569C71.8289 99.0643 75.4594 101.213 76.6146 102.073C77.7697 102.933 75.7894 105.082 75.1294 105.082C74.4693 105.082 70.0137 104.007 69.0236 104.437Z" fill="#656668"/>
<path d="M69.0236 93.4766C65.7232 99.6661 70.6188 99.924 73.4792 99.2793C75.2394 98.8494 78.0007 97.1301 74.9643 93.6916C71.928 90.253 69.7387 92.1155 69.0236 93.4766Z" fill="#656668"/>
<path d="M58.6273 103.575C57.9673 103.231 55.712 103.718 54.6668 104.005L50.8714 102.931C51.0034 101.211 50.2663 99.7787 49.8812 99.2772C50.4313 98.4892 52.1585 96.7411 54.6668 96.0534C57.1752 95.3657 59.0124 99.3487 59.6175 101.426C59.5625 102.286 59.2874 103.919 58.6273 103.575Z" fill="#A8A9AE"/>
<path d="M39.3199 105.511C38.8248 105.511 33.3791 102.718 34.5343 98.4194C35.4584 94.9808 38.7698 95.2674 40.31 95.8405C41.0251 96.1986 42.4883 97.3447 42.6203 99.064C42.8074 99.5756 43.0123 100.276 43.1389 100.998C44.6712 99.852 48.132 97.9035 49.7162 99.2789C51.3004 100.654 50.9264 102.431 50.5413 103.147L49.7162 105.082C48.5061 105.153 45.9867 105.34 45.5907 105.511C44.6006 105.082 42.6203 104.308 42.6203 104.652C42.6203 104.776 42.6104 104.505 42.6118 104.061C42.517 104.129 42.4102 104.183 42.2903 104.222C41.9602 104.652 40.9041 105.511 39.3199 105.511Z" fill="#656668"/>
<path d="M49.8812 99.279L51.6965 97.5597C51.8285 97.4346 51.8615 96.5047 51.8615 96.0553C51.2014 95.4106 49.4192 94.1211 47.5709 94.1211C45.7227 94.1211 44.7106 94.4076 44.4355 94.5509C42.3233 94.5509 43.3354 98.2761 44.1055 100.139C45.5577 98.5913 48.5611 98.9208 49.8812 99.279Z" fill="#A8A9AE"/>
<path d="M58.6274 95.8411L61.2677 97.1305C61.2677 97.2739 61.8948 97.7325 64.4031 98.4203C66.9114 99.108 67.5385 97.847 67.5385 97.1305C67.9345 95.9268 66.4933 94.3366 65.7232 93.6919C64.5681 92.1876 62.5879 92.6174 60.1125 92.6174C58.1323 92.6174 58.2973 94.7665 58.6274 95.8411Z" fill="#A8A9AE"/>
<path d="M96.5381 99.2864L99.1785 100.576C99.1785 100.719 99.8056 101.178 102.314 101.866C104.822 102.553 105.449 101.292 105.449 100.576C105.845 99.3721 104.404 97.7819 103.634 97.1373C102.479 95.6329 100.499 96.0627 98.0233 96.0627C96.0431 96.0627 96.2081 98.2118 96.5381 99.2864Z" fill="#A8A9AE"/>
<path d="M93.9418 105.295C94.4369 105.295 99.8826 102.501 98.7274 98.2026C97.8033 94.764 94.4919 95.0506 92.9517 95.6237C92.2366 95.9818 90.7734 97.1279 90.6414 98.8472C90.4543 99.3588 90.2495 100.059 90.1228 100.781C88.5905 99.6352 85.1297 97.6867 83.5455 99.0621C81.9613 100.438 82.3354 102.214 82.7204 102.931L83.5455 104.865C84.7557 104.936 87.275 105.123 87.671 105.295C88.6612 104.865 90.6414 104.091 90.6414 104.435C90.6414 104.559 90.6513 104.288 90.6499 103.845C90.7447 103.912 90.8515 103.966 90.9715 104.005C91.3015 104.435 92.3576 105.295 93.9418 105.295Z" fill="#656668"/>
<path d="M108 30L108 38L70 38L70 30L108 30Z" fill="url(#paint0_radial_5625_852)"/>
<path d="M148 79L148 87L134 87L134 79L148 79Z" fill="url(#paint1_radial_5625_852)"/>
<path fill-rule="evenodd" clip-rule="evenodd" d="M70.9518 30.0024L70.9518 38.2328L70.5823 38.2328C68.3542 38.2422 66.2201 39.1379 64.6447 40.7249C63.0692 42.3119 62.18 44.4616 62.1706 46.7059L62.1706 47.0781L54 47.0781L54 46.7041C54.0094 42.277 55.7594 38.0339 58.8672 34.9034C61.9749 31.7729 66.1873 30.0101 70.5823 30.0006L70.9518 30.0024Z" fill="url(#paint2_radial_5625_852)"/>
<path fill-rule="evenodd" clip-rule="evenodd" d="M108 30.0024L108 38.2328L108.37 38.2328C110.598 38.2422 112.732 39.1379 114.307 40.7249C115.883 42.3119 116.772 44.4616 116.781 46.7059L116.781 47.0781L124.952 47.0781L124.952 46.7041C124.942 42.277 123.192 38.0339 120.085 34.9034C116.977 31.7729 112.765 30.0101 108.37 30.0006L108 30.0024Z" fill="url(#paint3_radial_5625_852)"/>
<path fill-rule="evenodd" clip-rule="evenodd" d="M133.952 87.0757L133.952 78.8453L133.582 78.8453C131.354 78.8359 129.22 77.9402 127.645 76.3532C126.069 74.7662 125.18 72.6165 125.171 70.3722L125.171 70L117 70L117 70.374C117.009 74.8011 118.759 79.0442 121.867 82.1747C124.975 85.3052 129.187 87.068 133.582 87.0775L133.952 87.0757Z" fill="url(#paint4_radial_5625_852)"/>
<path d="M54 86L62 86L62 47L54 47L54 86Z" fill="url(#paint5_radial_5625_852)"/>
<path d="M117 70L125 70L125 47L117 47L117 70Z" fill="url(#paint6_radial_5625_852)"/>
<defs>
<radialGradient id="paint0_radial_5625_852" cx="0" cy="0" r="1" gradientUnits="userSpaceOnUse" gradientTransform="translate(89 34) rotate(-180) scale(19 4)">
<stop stop-color="#C0E3EE"/>
<stop offset="1" stop-color="#67B1C1"/>
</radialGradient>
<radialGradient id="paint1_radial_5625_852" cx="0" cy="0" r="1" gradientUnits="userSpaceOnUse" gradientTransform="translate(141 83) rotate(-180) scale(7 4)">
<stop stop-color="#C0E3EE"/>
<stop offset="1" stop-color="#67B1C1"/>
</radialGradient>
<radialGradient id="paint2_radial_5625_852" cx="0" cy="0" r="1" gradientUnits="userSpaceOnUse" gradientTransform="translate(62.4759 38.5394) rotate(-90) scale(8.53874 8.47589)">
<stop stop-color="#C0E3EE"/>
<stop offset="1" stop-color="#67B1C1"/>
</radialGradient>
<radialGradient id="paint3_radial_5625_852" cx="0" cy="0" r="1" gradientUnits="userSpaceOnUse" gradientTransform="translate(116.476 38.5394) rotate(-90) scale(8.53874 8.47589)">
<stop stop-color="#C0E3EE"/>
<stop offset="1" stop-color="#67B1C1"/>
</radialGradient>
<radialGradient id="paint4_radial_5625_852" cx="0" cy="0" r="1" gradientUnits="userSpaceOnUse" gradientTransform="translate(125.476 78.5387) rotate(90) scale(8.53874 8.47589)">
<stop stop-color="#C0E3EE"/>
<stop offset="1" stop-color="#67B1C1"/>
</radialGradient>
<radialGradient id="paint5_radial_5625_852" cx="0" cy="0" r="1" gradientUnits="userSpaceOnUse" gradientTransform="translate(58 66.5) rotate(-90) scale(19.5 4)">
<stop stop-color="#C0E3EE"/>
<stop offset="1" stop-color="#67B1C1"/>
</radialGradient>
<radialGradient id="paint6_radial_5625_852" cx="0" cy="0" r="1" gradientUnits="userSpaceOnUse" gradientTransform="translate(121 58.5) rotate(-90) scale(11.5 4)">
<stop stop-color="#C0E3EE"/>
<stop offset="1" stop-color="#67B1C1"/>
</radialGradient>
</defs>
</svg>
