<svg width="93" height="119" viewBox="0 0 93 119" fill="none" xmlns="http://www.w3.org/2000/svg">
<rect x="32.25" y="82.25" width="26.5" height="2.5" fill="url(#paint0_linear_5654_936)" stroke="#405D1E" stroke-width="0.5"/>
<rect x="32" y="108" width="27" height="6" fill="#34414D"/>
<rect x="33" y="114" width="25" height="4" fill="#A1ACAF"/>
<path d="M55.6181 102.5L58.3454 112.5H32.6546L35.3819 102.5H55.6181Z" fill="url(#paint1_linear_5654_936)" stroke="black"/>
<rect x="36.2115" y="85" width="18.5769" height="23" fill="url(#paint2_linear_5654_936)"/>
<circle cx="45.5" cy="98" r="8" fill="#34414D"/>
<path d="M36.9053 19.25H54.1474C58.4043 19.25 61.8553 22.7009 61.8553 26.9579V35.9921H29.1974V26.9579C29.1974 22.7009 32.6483 19.25 36.9053 19.25Z" fill="url(#paint3_linear_5654_936)" stroke="#405D1E" stroke-width="0.5"/>
<path d="M29.1974 36.4922H61.8553V78.6843C61.8553 80.3775 60.4827 81.7501 58.7895 81.7501H32.2632C30.57 81.7501 29.1974 80.3775 29.1974 78.6843V36.4922Z" fill="url(#paint4_linear_5654_936)" stroke="#405D1E" stroke-width="0.5"/>
<path d="M36.4079 36.408H37.4026V73.379C37.4026 73.6537 37.1799 73.8764 36.9053 73.8764C36.6306 73.8764 36.4079 73.6537 36.4079 73.379V36.408Z" fill="#426120" stroke="black" stroke-width="0.331579"/>
<path d="M32.429 36.408H33.0921V73.5448C33.0921 73.728 32.9437 73.8764 32.7605 73.8764C32.5774 73.8764 32.429 73.7279 32.429 73.5448V36.408Z" fill="#426120" stroke="black" stroke-width="0.331579"/>
<path d="M30.4395 36.408H31.1026V73.5448C31.1026 73.728 30.9542 73.8764 30.771 73.8764C30.5879 73.8764 30.4395 73.7279 30.4395 73.5448V36.408Z" fill="#426120" stroke="black" stroke-width="0.331579"/>
<path d="M39.7237 36.408H40.7184V73.379C40.7184 73.6537 40.4957 73.8764 40.221 73.8764C39.9464 73.8764 39.7237 73.6537 39.7237 73.379V36.408Z" fill="#426120" stroke="black" stroke-width="0.331579"/>
<path d="M43.0395 36.408H44.0342V73.379C44.0342 73.6537 43.8115 73.8764 43.5368 73.8764C43.2622 73.8764 43.0395 73.6537 43.0395 73.379V36.408Z" fill="#426120" stroke="black" stroke-width="0.331579"/>
<path d="M46.3553 36.408H47.35V73.379C47.35 73.6537 47.1273 73.8764 46.8526 73.8764C46.5779 73.8764 46.3553 73.6537 46.3553 73.379V36.408Z" fill="#426120" stroke="black" stroke-width="0.331579"/>
<path d="M49.671 36.408H50.6658V73.379C50.6658 73.6537 50.4431 73.8764 50.1684 73.8764C49.8937 73.8764 49.671 73.6537 49.671 73.379V36.408Z" fill="#426120" stroke="black" stroke-width="0.331579"/>
<path d="M52.9868 36.408H53.9816V73.379C53.9816 73.6537 53.7589 73.8764 53.4842 73.8764C53.2095 73.8764 52.9868 73.6537 52.9868 73.379V36.408Z" fill="#426120" stroke="black" stroke-width="0.331579"/>
<path d="M56.3026 36.408H57.2974V73.379C57.2974 73.6537 57.0747 73.8764 56.8 73.8764C56.5253 73.8764 56.3026 73.6537 56.3026 73.379V36.408Z" fill="#426120" stroke="black" stroke-width="0.331579"/>
<rect x="53.3184" y="72.2185" width="3.64737" height="4.97368" fill="url(#paint5_linear_5654_936)" stroke="#426120" stroke-width="0.331579"/>
<path d="M53.9816 77.5252H56.3026V78.0225C56.3026 78.2972 56.08 78.5199 55.8053 78.5199H54.479C54.2043 78.5199 53.9816 78.2972 53.9816 78.0225V77.5252Z" fill="url(#paint6_linear_5654_936)" stroke="#426120" stroke-width="0.331579"/>
<rect x="25.1342" y="72.8806" width="3.64737" height="4.97368" fill="url(#paint7_linear_5654_936)" stroke="#426120" stroke-width="0.331579"/>
<path d="M25.7974 78.1873H28.1185V78.6846C28.1185 78.9593 27.8958 79.182 27.6211 79.182H26.2948C26.0201 79.182 25.7974 78.9593 25.7974 78.6846V78.1873Z" fill="url(#paint8_linear_5654_936)" stroke="#426120" stroke-width="0.331579"/>
<rect x="19.1658" y="51.6599" width="16.2474" height="22.2158" fill="url(#paint9_linear_5654_936)" stroke="#3D591D" stroke-width="0.331579"/>
<path d="M28.6158 56.4688L25.9632 58.1266V61.1109L28.9474 62.7688L31.6 61.1109V58.1266L28.6158 56.4688Z" stroke="black" stroke-width="0.331579"/>
<circle cx="28.7484" cy="59.5852" r="1.82368" fill="#245200" stroke="black" stroke-width="0.331579"/>
<circle cx="28.8147" cy="59.584" r="4.14474" stroke="black" stroke-width="0.331579"/>
<line x1="22.15" y1="74.041" x2="22.15" y2="51.4936" stroke="black" stroke-width="0.331579"/>
<rect x="57.629" y="40.3865" width="8.28947" height="31.5" fill="url(#paint10_linear_5654_936)" stroke="#466520" stroke-width="0.331579"/>
<line x1="64.5921" y1="72.0527" x2="64.5921" y2="40.2212" stroke="black" stroke-width="0.331579"/>
<line x1="57.4632" y1="44.6975" x2="64.7579" y2="44.6975" stroke="black" stroke-width="0.331579"/>
<line x1="57.4632" y1="68.5705" x2="64.7579" y2="68.5705" stroke="black" stroke-width="0.331579"/>
<path d="M25.3 75.6992L62.1053 75.6992" stroke="#415D1E" stroke-width="0.663158"/>
<defs>
<linearGradient id="paint0_linear_5654_936" x1="32" y1="83.5" x2="59" y2="83.5" gradientUnits="userSpaceOnUse">
<stop stop-color="#82BC34"/>
<stop offset="0.465" stop-color="#BDEB7E"/>
<stop offset="1" stop-color="#82BC34"/>
</linearGradient>
<linearGradient id="paint1_linear_5654_936" x1="45.5" y1="102" x2="45.5" y2="113" gradientUnits="userSpaceOnUse">
<stop stop-color="#74A939"/>
<stop offset="1" stop-color="#2E4317"/>
</linearGradient>
<linearGradient id="paint2_linear_5654_936" x1="36.2115" y1="95.9524" x2="54.7885" y2="95.9524" gradientUnits="userSpaceOnUse">
<stop stop-color="#9CA7AA"/>
<stop offset="0.485" stop-color="#D0DAE7"/>
<stop offset="1" stop-color="#9CA7AA"/>
</linearGradient>
<linearGradient id="paint3_linear_5654_936" x1="62.1053" y1="27.621" x2="28.9474" y2="27.6211" gradientUnits="userSpaceOnUse">
<stop stop-color="#82BC34"/>
<stop offset="0.464" stop-color="#BDEB7E"/>
<stop offset="1" stop-color="#82BC34"/>
</linearGradient>
<linearGradient id="paint4_linear_5654_936" x1="29.2789" y1="59.1211" x2="62.1053" y2="59.1211" gradientUnits="userSpaceOnUse">
<stop stop-color="#82BC34"/>
<stop offset="0.479" stop-color="#BDEB7E"/>
<stop offset="1" stop-color="#82BC34"/>
</linearGradient>
<linearGradient id="paint5_linear_5654_936" x1="56.8" y1="74.1748" x2="53.1526" y2="74.1748" gradientUnits="userSpaceOnUse">
<stop stop-color="#82BC34"/>
<stop offset="0.49" stop-color="#BDEB7E"/>
<stop offset="1" stop-color="#82BC34"/>
</linearGradient>
<linearGradient id="paint6_linear_5654_936" x1="56.2474" y1="77.8899" x2="53.8158" y2="77.8899" gradientUnits="userSpaceOnUse">
<stop stop-color="#82BC34"/>
<stop offset="0.49" stop-color="#BDEB7E"/>
<stop offset="1" stop-color="#82BC34"/>
</linearGradient>
<linearGradient id="paint7_linear_5654_936" x1="28.6158" y1="74.8369" x2="24.9685" y2="74.8369" gradientUnits="userSpaceOnUse">
<stop stop-color="#82BC34"/>
<stop offset="0.49" stop-color="#BDEB7E"/>
<stop offset="1" stop-color="#82BC34"/>
</linearGradient>
<linearGradient id="paint8_linear_5654_936" x1="28.0632" y1="78.552" x2="25.6316" y2="78.552" gradientUnits="userSpaceOnUse">
<stop stop-color="#82BC34"/>
<stop offset="0.49" stop-color="#BDEB7E"/>
<stop offset="1" stop-color="#82BC34"/>
</linearGradient>
<linearGradient id="paint9_linear_5654_936" x1="34.9158" y1="51.8257" x2="19.3316" y2="74.0415" gradientUnits="userSpaceOnUse">
<stop stop-color="#82BC34"/>
<stop offset="0.515" stop-color="#BDEB7E"/>
<stop offset="1" stop-color="#82BC34"/>
</linearGradient>
<linearGradient id="paint10_linear_5654_936" x1="61.7737" y1="40.2207" x2="61.7737" y2="72.0523" gradientUnits="userSpaceOnUse">
<stop stop-color="#82BC34"/>
<stop offset="0.475" stop-color="#BDEB7E"/>
<stop offset="1" stop-color="#82BC34"/>
</linearGradient>
</defs>
</svg>
