<svg width="148" height="119" viewBox="0 0 148 119" fill="none" xmlns="http://www.w3.org/2000/svg">
<rect x="47" y="42" width="48" height="47" fill="#7ADAED"/>
<path d="M36 38H48V89H95V38H107V100H36V38Z" fill="#D9D9D9" stroke="black"/>
<rect x="37" y="40" width="3" height="2" fill="#FF0505"/>
<rect x="37" y="49" width="3" height="2" fill="#FF0505"/>
<rect x="37" y="58" width="3" height="2" fill="#FF0505"/>
<rect x="37" y="67" width="3" height="2" fill="#FF0505"/>
<rect x="37" y="76" width="3" height="2" fill="#FF0505"/>
<rect x="37" y="85" width="3" height="2" fill="#FF0505"/>
<rect x="96" y="85" width="3" height="2" fill="#FF0505"/>
<rect x="96" y="76" width="3" height="2" fill="#FF0505"/>
<rect x="96" y="67" width="3" height="2" fill="#FF0505"/>
<rect x="96" y="58" width="3" height="2" fill="#FF0505"/>
<rect x="96" y="49" width="3" height="2" fill="#FF0505"/>
<rect x="96" y="40" width="3" height="2" fill="#FF0505"/>
<rect x="48" y="91" width="3" height="2" fill="#FF0505"/>
<rect x="59" y="91" width="3" height="2" fill="#FF0505"/>
<rect x="70" y="91" width="3" height="2" fill="#FF0505"/>
<rect x="81" y="91" width="3" height="2" fill="#FF0505"/>
<rect x="37" y="43" width="3" height="2" fill="#FF0505"/>
<rect x="37" y="52" width="3" height="2" fill="#FF0505"/>
<rect x="37" y="61" width="3" height="2" fill="#FF0505"/>
<rect x="37" y="70" width="3" height="2" fill="#FF0505"/>
<rect x="37" y="79" width="3" height="2" fill="#FF0505"/>
<rect x="37" y="88" width="3" height="2" fill="#FF0505"/>
<rect x="96" y="88" width="3" height="2" fill="#FF0505"/>
<rect x="96" y="79" width="3" height="2" fill="#FF0505"/>
<rect x="96" y="70" width="3" height="2" fill="#FF0505"/>
<rect x="96" y="61" width="3" height="2" fill="#FF0505"/>
<rect x="96" y="52" width="3" height="2" fill="#FF0505"/>
<rect x="96" y="43" width="3" height="2" fill="#FF0505"/>
<rect x="48" y="94" width="3" height="2" fill="#FF0505"/>
<rect x="59" y="94" width="3" height="2" fill="#FF0505"/>
<rect x="70" y="94" width="3" height="2" fill="#FF0505"/>
<rect x="81" y="94" width="3" height="2" fill="#FF0505"/>
<rect x="96" y="94" width="3" height="2" fill="#FF0505"/>
<rect x="37" y="94" width="3" height="2" fill="#FF0505"/>
<rect x="40" y="46" width="3" height="2" fill="#FF0505"/>
<rect x="40" y="55" width="3" height="2" fill="#FF0505"/>
<rect x="40" y="64" width="3" height="2" fill="#FF0505"/>
<rect x="40" y="73" width="3" height="2" fill="#FF0505"/>
<rect x="40" y="82" width="3" height="2" fill="#FF0505"/>
<rect x="40" y="91" width="3" height="2" fill="#FF0505"/>
<rect x="99" y="91" width="3" height="2" fill="#FF0505"/>
<rect x="99" y="82" width="3" height="2" fill="#FF0505"/>
<rect x="99" y="73" width="3" height="2" fill="#FF0505"/>
<rect x="99" y="64" width="3" height="2" fill="#FF0505"/>
<rect x="99" y="55" width="3" height="2" fill="#FF0505"/>
<rect x="99" y="46" width="3" height="2" fill="#FF0505"/>
<rect x="51" y="97" width="3" height="2" fill="#FF0505"/>
<rect x="62" y="97" width="3" height="2" fill="#FF0505"/>
<rect x="73" y="97" width="3" height="2" fill="#FF0505"/>
<rect x="84" y="97" width="3" height="2" fill="#FF0505"/>
<rect x="99" y="97" width="3" height="2" fill="#FF0505"/>
<rect x="40" y="97" width="3" height="2" fill="#FF0505"/>
<rect x="44" y="46" width="3" height="2" fill="#FF0505"/>
<rect x="44" y="55" width="3" height="2" fill="#FF0505"/>
<rect x="44" y="64" width="3" height="2" fill="#FF0505"/>
<rect x="44" y="73" width="3" height="2" fill="#FF0505"/>
<rect x="44" y="82" width="3" height="2" fill="#FF0505"/>
<rect x="44" y="91" width="3" height="2" fill="#FF0505"/>
<rect x="103" y="91" width="3" height="2" fill="#FF0505"/>
<rect x="103" y="82" width="3" height="2" fill="#FF0505"/>
<rect x="103" y="73" width="3" height="2" fill="#FF0505"/>
<rect x="103" y="64" width="3" height="2" fill="#FF0505"/>
<rect x="103" y="55" width="3" height="2" fill="#FF0505"/>
<rect x="103" y="46" width="3" height="2" fill="#FF0505"/>
<rect x="55" y="97" width="3" height="2" fill="#FF0505"/>
<rect x="66" y="97" width="3" height="2" fill="#FF0505"/>
<rect x="77" y="97" width="3" height="2" fill="#FF0505"/>
<rect x="88" y="97" width="3" height="2" fill="#FF0505"/>
<rect x="92" y="97" width="3" height="2" fill="#FF0505"/>
<rect x="103" y="97" width="3" height="2" fill="#FF0505"/>
<rect x="44" y="97" width="3" height="2" fill="#FF0505"/>
<rect x="41" y="43" width="3" height="2" fill="#FF0505"/>
<rect x="41" y="52" width="3" height="2" fill="#FF0505"/>
<rect x="41" y="61" width="3" height="2" fill="#FF0505"/>
<rect x="41" y="70" width="3" height="2" fill="#FF0505"/>
<rect x="41" y="79" width="3" height="2" fill="#FF0505"/>
<rect x="41" y="88" width="3" height="2" fill="#FF0505"/>
<rect x="100" y="88" width="3" height="2" fill="#FF0505"/>
<rect x="100" y="79" width="3" height="2" fill="#FF0505"/>
<rect x="100" y="70" width="3" height="2" fill="#FF0505"/>
<rect x="100" y="61" width="3" height="2" fill="#FF0505"/>
<rect x="100" y="52" width="3" height="2" fill="#FF0505"/>
<rect x="100" y="43" width="3" height="2" fill="#FF0505"/>
<rect x="52" y="94" width="3" height="2" fill="#FF0505"/>
<rect x="63" y="94" width="3" height="2" fill="#FF0505"/>
<rect x="74" y="94" width="3" height="2" fill="#FF0505"/>
<rect x="85" y="94" width="3" height="2" fill="#FF0505"/>
<rect x="100" y="94" width="3" height="2" fill="#FF0505"/>
<rect x="41" y="94" width="3" height="2" fill="#FF0505"/>
<rect x="44" y="40" width="3" height="2" fill="#FF0505"/>
<rect x="44" y="49" width="3" height="2" fill="#FF0505"/>
<rect x="44" y="58" width="3" height="2" fill="#FF0505"/>
<rect x="44" y="67" width="3" height="2" fill="#FF0505"/>
<rect x="44" y="76" width="3" height="2" fill="#FF0505"/>
<rect x="44" y="85" width="3" height="2" fill="#FF0505"/>
<rect x="103" y="85" width="3" height="2" fill="#FF0505"/>
<rect x="103" y="76" width="3" height="2" fill="#FF0505"/>
<rect x="103" y="67" width="3" height="2" fill="#FF0505"/>
<rect x="103" y="58" width="3" height="2" fill="#FF0505"/>
<rect x="103" y="49" width="3" height="2" fill="#FF0505"/>
<rect x="103" y="40" width="3" height="2" fill="#FF0505"/>
<rect x="55" y="91" width="3" height="2" fill="#FF0505"/>
<rect x="66" y="91" width="3" height="2" fill="#FF0505"/>
<rect x="77" y="91" width="3" height="2" fill="#FF0505"/>
<rect x="88" y="91" width="3" height="2" fill="#FF0505"/>
<rect x="92" y="91" width="3" height="2" fill="#FF0505"/>
<rect x="41" y="40" width="2" height="2" fill="#FF0505"/>
<rect x="41" y="49" width="2" height="2" fill="#FF0505"/>
<rect x="41" y="58" width="2" height="2" fill="#FF0505"/>
<rect x="41" y="67" width="2" height="2" fill="#FF0505"/>
<rect x="41" y="76" width="2" height="2" fill="#FF0505"/>
<rect x="41" y="85" width="2" height="2" fill="#FF0505"/>
<rect x="100" y="85" width="2" height="2" fill="#FF0505"/>
<rect x="100" y="76" width="2" height="2" fill="#FF0505"/>
<rect x="100" y="67" width="2" height="2" fill="#FF0505"/>
<rect x="100" y="58" width="2" height="2" fill="#FF0505"/>
<rect x="100" y="49" width="2" height="2" fill="#FF0505"/>
<rect x="100" y="40" width="2" height="2" fill="#FF0505"/>
<rect x="52" y="91" width="2" height="2" fill="#FF0505"/>
<rect x="63" y="91" width="2" height="2" fill="#FF0505"/>
<rect x="74" y="91" width="2" height="2" fill="#FF0505"/>
<rect x="85" y="91" width="2" height="2" fill="#FF0505"/>
<rect x="45" y="43" width="2" height="2" fill="#FF0505"/>
<rect x="45" y="52" width="2" height="2" fill="#FF0505"/>
<rect x="45" y="61" width="2" height="2" fill="#FF0505"/>
<rect x="45" y="70" width="2" height="2" fill="#FF0505"/>
<rect x="45" y="79" width="2" height="2" fill="#FF0505"/>
<rect x="45" y="88" width="2" height="2" fill="#FF0505"/>
<rect x="104" y="88" width="2" height="2" fill="#FF0505"/>
<rect x="104" y="79" width="2" height="2" fill="#FF0505"/>
<rect x="104" y="70" width="2" height="2" fill="#FF0505"/>
<rect x="104" y="61" width="2" height="2" fill="#FF0505"/>
<rect x="104" y="52" width="2" height="2" fill="#FF0505"/>
<rect x="104" y="43" width="2" height="2" fill="#FF0505"/>
<rect x="56" y="94" width="2" height="2" fill="#FF0505"/>
<rect x="67" y="94" width="2" height="2" fill="#FF0505"/>
<rect x="78" y="94" width="2" height="2" fill="#FF0505"/>
<rect x="89" y="94" width="2" height="2" fill="#FF0505"/>
<rect x="92" y="94" width="3" height="2" fill="#FF0505"/>
<rect x="104" y="94" width="2" height="2" fill="#FF0505"/>
<rect x="45" y="94" width="2" height="2" fill="#FF0505"/>
<rect x="37" y="46" width="2" height="2" fill="#FF0505"/>
<rect x="37" y="55" width="2" height="2" fill="#FF0505"/>
<rect x="37" y="64" width="2" height="2" fill="#FF0505"/>
<rect x="37" y="73" width="2" height="2" fill="#FF0505"/>
<rect x="37" y="82" width="2" height="2" fill="#FF0505"/>
<rect x="37" y="91" width="2" height="2" fill="#FF0505"/>
<rect x="96" y="91" width="2" height="2" fill="#FF0505"/>
<rect x="96" y="82" width="2" height="2" fill="#FF0505"/>
<rect x="96" y="73" width="2" height="2" fill="#FF0505"/>
<rect x="96" y="64" width="2" height="2" fill="#FF0505"/>
<rect x="96" y="55" width="2" height="2" fill="#FF0505"/>
<rect x="96" y="46" width="2" height="2" fill="#FF0505"/>
<rect x="48" y="97" width="2" height="2" fill="#FF0505"/>
<rect x="59" y="97" width="2" height="2" fill="#FF0505"/>
<rect x="70" y="97" width="2" height="2" fill="#FF0505"/>
<rect x="81" y="97" width="2" height="2" fill="#FF0505"/>
<rect x="96" y="97" width="2" height="2" fill="#FF0505"/>
<rect x="37" y="97" width="2" height="2" fill="#FF0505"/>
<path d="M107 87.0781L107 79.0781L148 79.0781L148 87.0781L107 87.0781Z" fill="url(#paint0_radial_5635_853)"/>
<defs>
<radialGradient id="paint0_radial_5635_853" cx="0" cy="0" r="1" gradientUnits="userSpaceOnUse" gradientTransform="translate(127.5 83.0781) scale(20.5 4)">
<stop stop-color="#C0E3EE"/>
<stop offset="1" stop-color="#67B1C1"/>
</radialGradient>
</defs>
</svg>
