<svg width="148" height="119" viewBox="0 0 148 119" fill="none" xmlns="http://www.w3.org/2000/svg">
<rect x="47" y="42" width="48" height="47" fill="#7ADAED"/>
<path d="M36 38H48V89H95V38H107V100H36V38Z" fill="#D9D9D9" stroke="black"/>
<rect x="37" y="40" width="3" height="2" fill="#FF0505"/>
<rect x="37" y="49" width="3" height="2" fill="#FF0505"/>
<rect x="37" y="58" width="3" height="2" fill="#FF0505"/>
<rect x="37" y="67" width="3" height="2" fill="#FF0505"/>
<rect x="37" y="76" width="3" height="2" fill="#FF0505"/>
<rect x="37" y="85" width="3" height="2" fill="#FF0505"/>
<rect x="96" y="85" width="3" height="2" fill="#FF0505"/>
<rect x="96" y="76" width="3" height="2" fill="#FF0505"/>
<rect x="96" y="67" width="3" height="2" fill="#FF0505"/>
<rect x="96" y="58" width="3" height="2" fill="#FF0505"/>
<rect x="96" y="49" width="3" height="2" fill="#FF0505"/>
<rect x="96" y="40" width="3" height="2" fill="#FF0505"/>
<rect x="48" y="91" width="3" height="2" fill="#FF0505"/>
<rect x="59" y="91" width="3" height="2" fill="#FF0505"/>
<rect x="70" y="91" width="3" height="2" fill="#FF0505"/>
<rect x="81" y="91" width="3" height="2" fill="#FF0505"/>
<rect x="37" y="43" width="3" height="2" fill="#FF0505"/>
<rect x="37" y="52" width="3" height="2" fill="#FF0505"/>
<rect x="37" y="61" width="3" height="2" fill="#FF0505"/>
<rect x="37" y="70" width="3" height="2" fill="#FF0505"/>
<rect x="37" y="79" width="3" height="2" fill="#FF0505"/>
<rect x="37" y="88" width="3" height="2" fill="#FF0505"/>
<rect x="96" y="88" width="3" height="2" fill="#FF0505"/>
<rect x="96" y="79" width="3" height="2" fill="#FF0505"/>
<rect x="96" y="70" width="3" height="2" fill="#FF0505"/>
<rect x="96" y="61" width="3" height="2" fill="#FF0505"/>
<rect x="96" y="52" width="3" height="2" fill="#FF0505"/>
<rect x="96" y="43" width="3" height="2" fill="#FF0505"/>
<rect x="48" y="94" width="3" height="2" fill="#FF0505"/>
<rect x="59" y="94" width="3" height="2" fill="#FF0505"/>
<rect x="70" y="94" width="3" height="2" fill="#FF0505"/>
<rect x="81" y="94" width="3" height="2" fill="#FF0505"/>
<rect x="96" y="94" width="3" height="2" fill="#FF0505"/>
<rect x="37" y="94" width="3" height="2" fill="#FF0505"/>
<rect x="40" y="46" width="3" height="2" fill="#FF0505"/>
<rect x="40" y="55" width="3" height="2" fill="#FF0505"/>
<rect x="40" y="64" width="3" height="2" fill="#FF0505"/>
<rect x="40" y="73" width="3" height="2" fill="#FF0505"/>
<rect x="40" y="82" width="3" height="2" fill="#FF0505"/>
<rect x="40" y="91" width="3" height="2" fill="#FF0505"/>
<rect x="99" y="91" width="3" height="2" fill="#FF0505"/>
<rect x="99" y="82" width="3" height="2" fill="#FF0505"/>
<rect x="99" y="73" width="3" height="2" fill="#FF0505"/>
<rect x="99" y="64" width="3" height="2" fill="#FF0505"/>
<rect x="99" y="55" width="3" height="2" fill="#FF0505"/>
<rect x="99" y="46" width="3" height="2" fill="#FF0505"/>
<rect x="51" y="97" width="3" height="2" fill="#FF0505"/>
<rect x="62" y="97" width="3" height="2" fill="#FF0505"/>
<rect x="73" y="97" width="3" height="2" fill="#FF0505"/>
<rect x="84" y="97" width="3" height="2" fill="#FF0505"/>
<rect x="99" y="97" width="3" height="2" fill="#FF0505"/>
<rect x="40" y="97" width="3" height="2" fill="#FF0505"/>
<rect x="44" y="46" width="3" height="2" fill="#FF0505"/>
<rect x="44" y="55" width="3" height="2" fill="#FF0505"/>
<rect x="44" y="64" width="3" height="2" fill="#FF0505"/>
<rect x="44" y="73" width="3" height="2" fill="#FF0505"/>
<rect x="44" y="82" width="3" height="2" fill="#FF0505"/>
<rect x="44" y="91" width="3" height="2" fill="#FF0505"/>
<rect x="103" y="91" width="3" height="2" fill="#FF0505"/>
<rect x="103" y="82" width="3" height="2" fill="#FF0505"/>
<rect x="103" y="73" width="3" height="2" fill="#FF0505"/>
<rect x="103" y="64" width="3" height="2" fill="#FF0505"/>
<rect x="103" y="55" width="3" height="2" fill="#FF0505"/>
<rect x="103" y="46" width="3" height="2" fill="#FF0505"/>
<rect x="55" y="97" width="3" height="2" fill="#FF0505"/>
<rect x="66" y="97" width="3" height="2" fill="#FF0505"/>
<rect x="77" y="97" width="3" height="2" fill="#FF0505"/>
<rect x="88" y="97" width="3" height="2" fill="#FF0505"/>
<rect x="92" y="97" width="3" height="2" fill="#FF0505"/>
<rect x="103" y="97" width="3" height="2" fill="#FF0505"/>
<rect x="44" y="97" width="3" height="2" fill="#FF0505"/>
<rect x="41" y="43" width="3" height="2" fill="#FF0505"/>
<rect x="41" y="52" width="3" height="2" fill="#FF0505"/>
<rect x="41" y="61" width="3" height="2" fill="#FF0505"/>
<rect x="41" y="70" width="3" height="2" fill="#FF0505"/>
<rect x="41" y="79" width="3" height="2" fill="#FF0505"/>
<rect x="41" y="88" width="3" height="2" fill="#FF0505"/>
<rect x="100" y="88" width="3" height="2" fill="#FF0505"/>
<rect x="100" y="79" width="3" height="2" fill="#FF0505"/>
<rect x="100" y="70" width="3" height="2" fill="#FF0505"/>
<rect x="100" y="61" width="3" height="2" fill="#FF0505"/>
<rect x="100" y="52" width="3" height="2" fill="#FF0505"/>
<rect x="100" y="43" width="3" height="2" fill="#FF0505"/>
<rect x="52" y="94" width="3" height="2" fill="#FF0505"/>
<rect x="63" y="94" width="3" height="2" fill="#FF0505"/>
<rect x="74" y="94" width="3" height="2" fill="#FF0505"/>
<rect x="85" y="94" width="3" height="2" fill="#FF0505"/>
<rect x="100" y="94" width="3" height="2" fill="#FF0505"/>
<rect x="41" y="94" width="3" height="2" fill="#FF0505"/>
<rect x="44" y="40" width="3" height="2" fill="#FF0505"/>
<rect x="44" y="49" width="3" height="2" fill="#FF0505"/>
<rect x="44" y="58" width="3" height="2" fill="#FF0505"/>
<rect x="44" y="67" width="3" height="2" fill="#FF0505"/>
<rect x="44" y="76" width="3" height="2" fill="#FF0505"/>
<rect x="44" y="85" width="3" height="2" fill="#FF0505"/>
<rect x="103" y="85" width="3" height="2" fill="#FF0505"/>
<rect x="103" y="76" width="3" height="2" fill="#FF0505"/>
<rect x="103" y="67" width="3" height="2" fill="#FF0505"/>
<rect x="103" y="58" width="3" height="2" fill="#FF0505"/>
<rect x="103" y="49" width="3" height="2" fill="#FF0505"/>
<rect x="103" y="40" width="3" height="2" fill="#FF0505"/>
<rect x="55" y="91" width="3" height="2" fill="#FF0505"/>
<rect x="66" y="91" width="3" height="2" fill="#FF0505"/>
<rect x="77" y="91" width="3" height="2" fill="#FF0505"/>
<rect x="88" y="91" width="3" height="2" fill="#FF0505"/>
<rect x="92" y="91" width="3" height="2" fill="#FF0505"/>
<rect x="41" y="40" width="2" height="2" fill="#FF0505"/>
<rect x="41" y="49" width="2" height="2" fill="#FF0505"/>
<rect x="41" y="58" width="2" height="2" fill="#FF0505"/>
<rect x="41" y="67" width="2" height="2" fill="#FF0505"/>
<rect x="41" y="76" width="2" height="2" fill="#FF0505"/>
<rect x="41" y="85" width="2" height="2" fill="#FF0505"/>
<rect x="100" y="85" width="2" height="2" fill="#FF0505"/>
<rect x="100" y="76" width="2" height="2" fill="#FF0505"/>
<rect x="100" y="67" width="2" height="2" fill="#FF0505"/>
<rect x="100" y="58" width="2" height="2" fill="#FF0505"/>
<rect x="100" y="49" width="2" height="2" fill="#FF0505"/>
<rect x="100" y="40" width="2" height="2" fill="#FF0505"/>
<rect x="52" y="91" width="2" height="2" fill="#FF0505"/>
<rect x="63" y="91" width="2" height="2" fill="#FF0505"/>
<rect x="74" y="91" width="2" height="2" fill="#FF0505"/>
<rect x="85" y="91" width="2" height="2" fill="#FF0505"/>
<rect x="45" y="43" width="2" height="2" fill="#FF0505"/>
<rect x="45" y="52" width="2" height="2" fill="#FF0505"/>
<rect x="45" y="61" width="2" height="2" fill="#FF0505"/>
<rect x="45" y="70" width="2" height="2" fill="#FF0505"/>
<rect x="45" y="79" width="2" height="2" fill="#FF0505"/>
<rect x="45" y="88" width="2" height="2" fill="#FF0505"/>
<rect x="104" y="88" width="2" height="2" fill="#FF0505"/>
<rect x="104" y="79" width="2" height="2" fill="#FF0505"/>
<rect x="104" y="70" width="2" height="2" fill="#FF0505"/>
<rect x="104" y="61" width="2" height="2" fill="#FF0505"/>
<rect x="104" y="52" width="2" height="2" fill="#FF0505"/>
<rect x="104" y="43" width="2" height="2" fill="#FF0505"/>
<rect x="56" y="94" width="2" height="2" fill="#FF0505"/>
<rect x="67" y="94" width="2" height="2" fill="#FF0505"/>
<rect x="78" y="94" width="2" height="2" fill="#FF0505"/>
<rect x="89" y="94" width="2" height="2" fill="#FF0505"/>
<rect x="92" y="94" width="3" height="2" fill="#FF0505"/>
<rect x="104" y="94" width="2" height="2" fill="#FF0505"/>
<rect x="45" y="94" width="2" height="2" fill="#FF0505"/>
<rect x="37" y="46" width="2" height="2" fill="#FF0505"/>
<rect x="37" y="55" width="2" height="2" fill="#FF0505"/>
<rect x="37" y="64" width="2" height="2" fill="#FF0505"/>
<rect x="37" y="73" width="2" height="2" fill="#FF0505"/>
<rect x="37" y="82" width="2" height="2" fill="#FF0505"/>
<rect x="37" y="91" width="2" height="2" fill="#FF0505"/>
<rect x="96" y="91" width="2" height="2" fill="#FF0505"/>
<rect x="96" y="82" width="2" height="2" fill="#FF0505"/>
<rect x="96" y="73" width="2" height="2" fill="#FF0505"/>
<rect x="96" y="64" width="2" height="2" fill="#FF0505"/>
<rect x="96" y="55" width="2" height="2" fill="#FF0505"/>
<rect x="96" y="46" width="2" height="2" fill="#FF0505"/>
<rect x="48" y="97" width="2" height="2" fill="#FF0505"/>
<rect x="59" y="97" width="2" height="2" fill="#FF0505"/>
<rect x="70" y="97" width="2" height="2" fill="#FF0505"/>
<rect x="81" y="97" width="2" height="2" fill="#FF0505"/>
<rect x="96" y="97" width="2" height="2" fill="#FF0505"/>
<rect x="37" y="97" width="2" height="2" fill="#FF0505"/>
<path d="M9 70L17 70L17 54L9 54L9 70Z" fill="url(#paint0_radial_5551_2025)"/>
<path fill-rule="evenodd" clip-rule="evenodd" d="M25.9518 38.0024L25.9518 46.2328L25.5823 46.2328C23.3542 46.2422 21.2201 47.1379 19.6447 48.7249C18.0692 50.3119 17.18 52.4616 17.1706 54.7059L17.1706 55.0781L9 55.0781L9 54.7041C9.00936 50.277 10.7594 46.0339 13.8672 42.9034C16.9749 39.7729 21.1873 38.0101 25.5823 38.0006L25.9518 38.0024Z" fill="url(#paint1_radial_5551_2025)"/>
<path d="M36 38L36 46L26 46L26 38L36 38Z" fill="url(#paint2_radial_5551_2025)"/>
<path fill-rule="evenodd" clip-rule="evenodd" d="M7.70802e-07 87.0757L3.99281e-07 78.8453L0.369504 78.8453C2.59754 78.8359 4.73165 77.9402 6.30713 76.3532C7.8826 74.7662 8.77182 72.6165 8.78114 70.3722L8.78114 70L16.9518 70L16.9518 70.374C16.9424 74.8011 15.1924 79.0442 12.0846 82.1747C8.97684 85.3052 4.76452 87.068 0.369504 87.0775L7.70802e-07 87.0757Z" fill="url(#paint3_radial_5551_2025)"/>
<path d="M107 87.0781L107 79.0781L148 79.0781L148 87.0781L107 87.0781Z" fill="url(#paint4_radial_5551_2025)"/>
<defs>
<radialGradient id="paint0_radial_5551_2025" cx="0" cy="0" r="1" gradientUnits="userSpaceOnUse" gradientTransform="translate(13 62) rotate(-90) scale(8 4)">
<stop stop-color="#C0E3EE"/>
<stop offset="1" stop-color="#67B1C1"/>
</radialGradient>
<radialGradient id="paint1_radial_5551_2025" cx="0" cy="0" r="1" gradientUnits="userSpaceOnUse" gradientTransform="translate(17.4759 46.5394) rotate(-90) scale(8.53874 8.47589)">
<stop stop-color="#C0E3EE"/>
<stop offset="1" stop-color="#67B1C1"/>
</radialGradient>
<radialGradient id="paint2_radial_5551_2025" cx="0" cy="0" r="1" gradientUnits="userSpaceOnUse" gradientTransform="translate(31 42) rotate(-180) scale(5 4)">
<stop stop-color="#C0E3EE"/>
<stop offset="1" stop-color="#67B1C1"/>
</radialGradient>
<radialGradient id="paint3_radial_5551_2025" cx="0" cy="0" r="1" gradientUnits="userSpaceOnUse" gradientTransform="translate(8.47589 78.5387) rotate(90) scale(8.53874 8.47589)">
<stop stop-color="#C0E3EE"/>
<stop offset="1" stop-color="#67B1C1"/>
</radialGradient>
<radialGradient id="paint4_radial_5551_2025" cx="0" cy="0" r="1" gradientUnits="userSpaceOnUse" gradientTransform="translate(127.5 83.0781) scale(20.5 4)">
<stop stop-color="#C0E3EE"/>
<stop offset="1" stop-color="#67B1C1"/>
</radialGradient>
</defs>
</svg>
