<svg width="148" height="119" viewBox="0 0 148 119" fill="none" xmlns="http://www.w3.org/2000/svg">
<path d="M41 37L41 45L26 45L26 37L41 37Z" fill="url(#paint0_radial_5591_981)"/>
<path d="M9 70L17 70L17 54L9 54L9 70Z" fill="url(#paint1_radial_5591_981)"/>
<path fill-rule="evenodd" clip-rule="evenodd" d="M25.9518 37.0024L25.9518 45.2328L25.5823 45.2328C23.3542 45.2422 21.2201 46.1379 19.6447 47.7249C18.0692 49.3119 17.18 51.4616 17.1706 53.7059L17.1706 54.0781L9 54.0781L9 53.7041C9.00936 49.277 10.7594 45.0339 13.8672 41.9034C16.9749 38.7729 21.1873 37.0101 25.5823 37.0006L25.9518 37.0024Z" fill="url(#paint2_radial_5591_981)"/>
<path fill-rule="evenodd" clip-rule="evenodd" d="M7.70802e-07 87.0757L3.99281e-07 78.8453L0.369504 78.8453C2.59754 78.8359 4.73165 77.9402 6.30713 76.3532C7.8826 74.7662 8.77182 72.6165 8.78114 70.3722L8.78114 70L16.9518 70L16.9518 70.374C16.9424 74.8011 15.1924 79.0442 12.0846 82.1747C8.97684 85.3052 4.76452 87.068 0.369504 87.0775L7.70802e-07 87.0757Z" fill="url(#paint3_radial_5591_981)"/>
<path d="M107 87.0781L107 79.0781L148 79.0781L148 87.0781L107 87.0781Z" fill="url(#paint4_radial_5591_981)"/>
<path d="M106.997 36.7617C78.2716 50.4239 50.9473 42.4543 40.8758 36.7617V89.7464C69.2511 104.46 96.7797 95.8769 106.997 89.7464V36.7617Z" fill="url(#paint5_linear_5591_981)" stroke="#666666" stroke-width="1.0525"/>
<path d="M105.856 36.3246C105.856 36.7582 105.514 37.5555 103.93 38.5771C102.416 39.5532 100.121 40.4919 97.144 41.3038C91.2126 42.9215 82.9295 43.9415 73.7175 43.9415C64.5055 43.9415 56.2224 42.9215 50.291 41.3038C47.314 40.4919 45.019 39.5532 43.5052 38.5771C41.9208 37.5555 41.5787 36.7582 41.5787 36.3246C41.5787 35.891 41.9208 35.0937 43.5052 34.0721C45.019 33.096 47.314 32.1573 50.291 31.3454C56.2224 29.7277 64.5055 28.7077 73.7175 28.7077C82.9295 28.7077 91.2126 29.7277 97.144 31.3454C100.121 32.1573 102.416 33.096 103.93 34.0721C105.514 35.0937 105.856 35.891 105.856 36.3246Z" fill="#A7A7A7" stroke="#666666" stroke-width="3.15749"/>
<path d="M106.383 30.1957C106.383 30.908 105.84 31.8427 104.215 32.8905C102.637 33.9079 100.284 34.864 97.2825 35.6826C91.2943 37.3157 82.9625 38.3389 73.7175 38.3389C64.4726 38.3389 56.1407 37.3157 50.1526 35.6826C47.1509 34.864 44.798 33.9079 43.2201 32.8905C41.595 31.8427 41.0525 30.908 41.0525 30.1957C41.0525 29.4834 41.595 28.5487 43.2201 27.5009C44.798 26.4834 47.1509 25.5274 50.1526 24.7088C56.1407 23.0756 64.4726 22.0525 73.7175 22.0525C82.9625 22.0525 91.2943 23.0756 97.2825 24.7088C100.284 25.5274 102.637 26.4834 104.215 27.5009C105.84 28.5487 106.383 29.4834 106.383 30.1957Z" stroke="#404040" stroke-width="2.10499"/>
<line x1="50.1599" y1="35.8867" x2="50.1599" y2="41.1414" stroke="#404040" stroke-width="1.0525"/>
<line y1="-0.526249" x2="5.25468" y2="-0.526249" transform="matrix(0 1 1 0 97.8015 35.8867)" stroke="#404040" stroke-width="1.0525"/>
<line x1="61.545" y1="38.5156" x2="61.545" y2="43.7703" stroke="#404040" stroke-width="1.0525"/>
<line y1="-0.526249" x2="5.25468" y2="-0.526249" transform="matrix(0 1 1 0 86.4164 38.5156)" stroke="#404040" stroke-width="1.0525"/>
<line x1="51.0356" y1="24.502" x2="51.0356" y2="30.6324" stroke="#404040" stroke-width="1.0525"/>
<line y1="-0.526249" x2="6.13046" y2="-0.526249" transform="matrix(0 1 1 0 96.9257 24.502)" stroke="#404040" stroke-width="1.0525"/>
<line x1="62.4207" y1="22.752" x2="62.4207" y2="28.8824" stroke="#404040" stroke-width="1.0525"/>
<line y1="-0.526249" x2="6.13046" y2="-0.526249" transform="matrix(0 1 1 0 85.5406 22.752)" stroke="#404040" stroke-width="1.0525"/>
<line y1="-0.526249" x2="6.13046" y2="-0.526249" transform="matrix(0 1 1 0 74.1554 21.8789)" stroke="#404040" stroke-width="1.0525"/>
<line y1="-0.526249" x2="6.13046" y2="-0.526249" transform="matrix(0 1 1 0 74.1554 38.5156)" stroke="#404040" stroke-width="1.0525"/>
<defs>
<radialGradient id="paint0_radial_5591_981" cx="0" cy="0" r="1" gradientUnits="userSpaceOnUse" gradientTransform="translate(33.5 41) rotate(-180) scale(7.5 4)">
<stop stop-color="#C0E3EE"/>
<stop offset="1" stop-color="#67B1C1"/>
</radialGradient>
<radialGradient id="paint1_radial_5591_981" cx="0" cy="0" r="1" gradientUnits="userSpaceOnUse" gradientTransform="translate(13 62) rotate(-90) scale(8 4)">
<stop stop-color="#C0E3EE"/>
<stop offset="1" stop-color="#67B1C1"/>
</radialGradient>
<radialGradient id="paint2_radial_5591_981" cx="0" cy="0" r="1" gradientUnits="userSpaceOnUse" gradientTransform="translate(17.4759 45.5394) rotate(-90) scale(8.53874 8.47589)">
<stop stop-color="#C0E3EE"/>
<stop offset="1" stop-color="#67B1C1"/>
</radialGradient>
<radialGradient id="paint3_radial_5591_981" cx="0" cy="0" r="1" gradientUnits="userSpaceOnUse" gradientTransform="translate(8.47589 78.5387) rotate(90) scale(8.53874 8.47589)">
<stop stop-color="#C0E3EE"/>
<stop offset="1" stop-color="#67B1C1"/>
</radialGradient>
<radialGradient id="paint4_radial_5591_981" cx="0" cy="0" r="1" gradientUnits="userSpaceOnUse" gradientTransform="translate(127.5 83.0781) scale(20.5 4)">
<stop stop-color="#C0E3EE"/>
<stop offset="1" stop-color="#67B1C1"/>
</radialGradient>
<linearGradient id="paint5_linear_5591_981" x1="40.8758" y1="62.5972" x2="107.435" y2="63.0351" gradientUnits="userSpaceOnUse">
<stop stop-color="#656565"/>
<stop offset="0.179" stop-color="#888888"/>
<stop offset="0.364" stop-color="#CDCDCD"/>
<stop offset="0.614" stop-color="#CDCDCD"/>
<stop offset="0.819" stop-color="#888888"/>
<stop offset="1" stop-color="#656565"/>
</linearGradient>
</defs>
</svg>
