<svg width="593" height="162" viewBox="0 0 593 162" fill="none" xmlns="http://www.w3.org/2000/svg">
<path d="M0 81C0 36.2649 36.2649 0 81 0H593V162H81C36.2649 162 0 125.735 0 81V81Z" fill="#005DA4"/>
<path fill-rule="evenodd" clip-rule="evenodd" d="M87.33 141.66C71.3295 141.66 55.9843 135.304 44.6702 123.99C33.3562 112.676 27 97.3305 27 81.33C27 65.3295 33.3562 49.9843 44.6702 38.6702C55.9843 27.3562 71.3295 21 87.33 21H322.49C338.491 21 353.836 27.3562 365.15 38.6702C376.464 49.9843 382.82 65.3295 382.82 81.33C382.82 97.3305 376.464 112.676 365.15 123.99C353.836 135.304 338.491 141.66 322.49 141.66H87.33Z" fill="#005DA4"/>
<path fill-rule="evenodd" clip-rule="evenodd" d="M322.49 139.25C337.851 139.25 352.584 133.148 363.446 122.286C374.308 111.424 380.41 96.6913 380.41 81.33C380.41 65.9687 374.308 51.2365 363.446 40.3744C352.584 29.5123 337.851 23.41 322.49 23.41H87.33C71.9686 23.41 57.2365 29.5123 46.3743 40.3744C35.5122 51.2365 29.41 65.9687 29.41 81.33C29.41 96.6913 35.5122 111.424 46.3743 122.286C57.2365 133.148 71.9686 139.25 87.33 139.25H322.49Z" fill="white"/>
<path fill-rule="evenodd" clip-rule="evenodd" d="M87.33 134.42C73.2496 134.42 59.746 128.827 49.7897 118.87C39.8334 108.914 34.24 95.4103 34.24 81.33C34.24 67.2496 39.8334 53.746 49.7897 43.7897C59.746 33.8334 73.2496 28.24 87.33 28.24H322.49C336.57 28.24 350.074 33.8334 360.03 43.7897C369.987 53.746 375.58 67.2496 375.58 81.33C375.58 95.4103 369.987 108.914 360.03 118.87C350.074 128.827 336.57 134.42 322.49 134.42H87.33Z" fill="#005DA4"/>
<path d="M136.15 86.16H124.34V124.77H136.15V86.16Z" fill="white"/>
<path fill-rule="evenodd" clip-rule="evenodd" d="M152.23 105.38L173.68 86.16H159.69L137.2 105.45L158.67 124.77H173.68L152.23 105.38Z" fill="white"/>
<path fill-rule="evenodd" clip-rule="evenodd" d="M243.01 105.46V110.96C243.01 110.96 240.31 110.75 238.36 110.75C230.85 110.75 229.86 114.75 229.86 117.19V118.06C229.86 124.06 234.74 124.77 239.44 124.77C243.01 124.77 248.16 124.29 248.16 124.29V105.46H243.01ZM243.01 122C242.48 122 240.79 122.21 239.39 122.21C236.92 122.21 235.06 121.45 235.06 118.45V117.12C235.06 114.12 236.92 113.37 239.39 113.37C240.79 113.37 242.48 113.53 243.01 113.58V122Z" fill="white"/>
<path fill-rule="evenodd" clip-rule="evenodd" d="M297.35 118.58V118.41C297.35 112.41 295.92 110.33 287.79 110.33C281.41 110.33 278.14 111.66 278.14 116.57V118.02C278.14 122.91 280.14 124.77 289.14 124.77C291.405 124.77 293.668 124.65 295.92 124.41V121.96C293.684 122.282 291.429 122.446 289.17 122.45C286.48 122.45 283.73 122.25 283.75 119.13V118.6H297.3L297.35 118.58ZM283.78 116.26V115.26C283.78 113.42 285.06 112.38 287.87 112.38C290.68 112.38 291.96 113.38 291.96 115.26V116.26H283.78Z" fill="white"/>
<path fill-rule="evenodd" clip-rule="evenodd" d="M261.36 119.22C264.97 119.51 266.29 119.53 266.29 120.83C266.29 122.61 263.14 122.34 261.05 122.34C259.13 122.34 255.45 121.98 255.45 121.98V124.46C255.45 124.46 259.39 124.77 262.54 124.77C269.19 124.77 271.77 123.83 271.77 120.57C271.77 118.79 270.49 116.36 264.32 116.14C261.75 116.07 260.21 115.81 260.21 114.49C260.21 112.97 262.44 112.83 264.89 112.83C267.56 112.83 271.67 113.33 271.67 113.33V110.84C271.67 110.84 266.41 110.33 263.67 110.33C260.4 110.33 254.59 110.33 254.59 114.89C254.59 117.37 256.34 118.89 261.41 119.24L261.36 119.22Z" fill="white"/>
<path fill-rule="evenodd" clip-rule="evenodd" d="M314.75 110.36C311.83 110.36 308.86 110.48 308.86 110.48L303.73 110.7V124.77H309.23V112.91C310.844 112.735 312.469 112.695 314.09 112.79C316.94 113.01 316.72 115.12 316.72 116.86V124.72H322.24V115.12C322.24 111.75 320.5 110.35 314.75 110.35V110.36Z" fill="white"/>
<path fill-rule="evenodd" clip-rule="evenodd" d="M217.96 122.23C216.35 122.417 214.727 122.46 213.11 122.36C210.2 122.13 210.45 120.06 210.45 118.27V110.33H204.93V120.04C204.93 123.41 206.66 124.77 212.44 124.77C215.38 124.77 218.33 124.65 218.33 124.65L223.48 124.45V110.33H217.96V122.23Z" fill="white"/>
<path fill-rule="evenodd" clip-rule="evenodd" d="M191.04 110.33C188.12 110.33 185.14 110.48 185.14 110.48L180.06 110.67V124.75H185.56V112.91C187.166 112.723 188.785 112.673 190.4 112.76C193.3 113.01 193.05 115.07 193.05 116.86V124.77H198.55V115.12C198.55 111.75 196.81 110.35 191.06 110.35L191.04 110.33Z" fill="white"/>
<path fill-rule="evenodd" clip-rule="evenodd" d="M229.83 65.04H239.72L229.83 73.27V76.5H246.49V73.3H236.57L246.52 65.04V62.07H229.83V65.04Z" fill="white"/>
<path d="M206.71 61.99H201.08V76.5H206.71V61.99Z" fill="white"/>
<path fill-rule="evenodd" clip-rule="evenodd" d="M201.08 57.25V59.86H206.71V57.2H201.08V57.25Z" fill="white"/>
<path fill-rule="evenodd" clip-rule="evenodd" d="M180.82 62.3V76.5H186.51V65.06C187.79 64.93 188.96 64.98 191.16 64.98L194.62 65.14L194.7 62.14C193.47 62.14 188.55 62.14 186.48 62.14C183.77 62.14 180.82 62.39 180.82 62.39V62.3Z" fill="white"/>
<path fill-rule="evenodd" clip-rule="evenodd" d="M148.74 64.12C147.27 62.38 144.74 62.21 141.34 62.12C138.233 62.0793 135.127 62.2363 132.04 62.59V65.12C134.416 64.7612 136.809 64.5309 139.21 64.43C141.74 64.43 143.84 64.85 143.91 66.76V67.84H139.58C133.44 67.84 130.72 68.77 130.72 71.98C130.72 76.36 135.72 76.48 140.19 76.48C143.19 76.48 146.27 76.29 149.3 76.09V71.75C149.3 68.13 149.52 65.02 148.71 64.04L148.74 64.12ZM143.94 74.01C143.25 74.01 141.42 74.18 140.14 74.18C138.43 74.18 136.14 74.18 136.14 72.18C136.14 70.18 137.96 70.02 139.72 70.02H143.98V74.02L143.94 74.01Z" fill="white"/>
<path fill-rule="evenodd" clip-rule="evenodd" d="M218.49 57.2L213.14 58.35V72.21C213.14 74.84 213.77 76.5 217.34 76.5H223.47V73.86H220.58C219.2 73.86 218.58 73.34 218.58 71.86V65.24H223.58V62.38H218.58V57.2H218.49Z" fill="white"/>
<path fill-rule="evenodd" clip-rule="evenodd" d="M168.92 73.97C167.31 74.1564 165.687 74.1965 164.07 74.09C161.16 73.87 161.41 71.8 161.41 70V62.12H155.89V71.82C155.89 75.2 157.61 76.55 163.4 76.55C166.34 76.55 169.29 76.43 169.29 76.43L174.44 76.23V62.12H168.92V73.97Z" fill="white"/>
<path fill-rule="evenodd" clip-rule="evenodd" d="M99.39 37.89H87.58V76.5H124.32L124.34 67.39H99.41L99.39 37.89Z" fill="white"/>
</svg>
