<svg width="143" height="151" viewBox="0 0 143 151" fill="none" xmlns="http://www.w3.org/2000/svg">
<path d="M1.60029 -6.93908C-2.59742 -24.8623 8.53127 -42.7973 26.454 -46.9949C44.3786 -51.193 62.3123 -40.064 66.5099 -22.1412C70.7079 -4.2166 59.5808 13.7166 41.6561 17.9146C23.7329 22.1123 5.79832 10.9856 1.60029 -6.93908ZM60.2216 60.6418C56.5482 44.9573 66.2845 29.2655 81.9695 25.5921C97.6544 21.9186 113.346 31.655 117.019 47.34C120.692 63.023 110.957 78.7161 95.2718 82.3896C79.5868 86.0631 63.8946 76.3248 60.2216 60.6418ZM102.767 -13.5139C96.4704 -40.4006 113.162 -67.3024 140.049 -73.5995C166.934 -79.896 193.836 -63.2041 200.133 -36.3169C206.43 -9.43019 189.737 17.4698 162.853 23.7663C135.965 30.0634 109.064 13.3734 102.767 -13.5133L102.767 -13.5139ZM143.696 88.1639C138.448 65.758 152.358 43.3396 174.764 38.092C197.17 32.8445 219.589 46.7545 224.836 69.1604C230.084 91.5664 216.174 113.985 193.768 119.232C171.362 124.48 148.943 110.57 143.696 88.1639ZM33.9055 130.996C30.757 117.553 39.1042 104.103 52.5481 100.955C65.9914 97.8062 79.441 106.151 82.5897 119.595C85.7377 133.038 77.3929 146.488 63.9486 149.637C50.5052 152.785 37.0536 144.44 33.905 130.996L33.9055 130.996ZM23.0188 47.9596C21.9693 43.4783 24.7507 38.995 29.232 37.9454C33.7132 36.8959 38.1966 39.6773 39.2462 44.1591C40.2953 48.6384 37.5133 53.1214 33.0321 54.1709C28.5508 55.2205 24.0679 52.439 23.0188 47.9596ZM101.922 110.787C100.348 104.064 104.52 97.3391 111.243 95.7645C117.964 94.1905 124.689 98.3631 126.263 105.086C127.837 111.806 123.665 118.531 116.944 120.105C110.221 121.68 103.497 117.508 101.922 110.787Z" fill="url(#paint0_linear_747_10729)"/>
<defs>
<linearGradient id="paint0_linear_747_10729" x1="234.338" y1="109.731" x2="39.6058" y2="155.338" gradientUnits="userSpaceOnUse">
<stop stop-color="#DFE9F3"/>
<stop offset="1" stop-color="#1D808D"/>
</linearGradient>
</defs>
</svg>
