<svg width="39" height="39" viewBox="0 0 39 39" fill="none" xmlns="http://www.w3.org/2000/svg">
<rect x="7" y="10" width="4.5" height="8.5" fill="#FDFDFD"/>
<rect x="11.5" y="10" width="4.5" height="8.5" fill="#D9D9D9"/>
<rect x="10" y="24" width="1.5" height="3" fill="#FDFDFD"/>
<rect x="11.5" y="24" width="1.5" height="3" fill="#D9D9D9"/>
<path d="M11.5 18.5V21H14L16 18.5H11.5Z" fill="#D9D9D9"/>
<path d="M11.5 18.5V21H9L7 18.5H11.5Z" fill="#FDFDFD"/>
<rect x="9" y="12" width="5" height="4" fill="#5E5E5E"/>
<rect x="9" y="21" width="5" height="3" fill="#5E5E5E"/>
<rect x="9" y="21" width="2.5" height="3" fill="#858585"/>
<rect x="9" y="12" width="2.5" height="4" fill="#858585"/>
<rect x="9" y="17" width="1" height="1" fill="#F2F2F2"/>
<rect x="11" y="17" width="1" height="1" fill="#F2F2F2"/>
<rect x="13" y="17" width="1" height="1" fill="#F2F2F2"/>
<path d="M21 22.5L28 11L36 22.5H21Z" fill="url(#paint0_linear_5284_8672)"/>
<defs>
<linearGradient id="paint0_linear_5284_8672" x1="28.5" y1="11" x2="28.5" y2="22.5" gradientUnits="userSpaceOnUse">
<stop stop-color="#FDFDFD"/>
<stop offset="1" stop-color="#EFEBEB"/>
</linearGradient>
</defs>
</svg>
