<svg width="39" height="39" viewBox="0 0 39 39" fill="none" xmlns="http://www.w3.org/2000/svg">
<path d="M20.2457 13.3265C20.2324 13.7923 20.0328 14.3579 19.5604 14.8103C19.4473 14.9168 19.434 15.0033 19.4939 15.143C20.5784 17.8111 21.663 20.4858 22.7408 23.1606C23.6657 25.4428 24.5905 27.725 25.5154 30.0138C25.5487 30.0937 25.5819 30.1735 25.6086 30.2534C25.715 30.5528 25.6019 30.8256 25.3158 30.9453C25.0297 31.0651 24.7436 30.952 24.6172 30.6526C24.3843 30.087 24.1448 29.5215 23.9385 28.9426C23.8453 28.6831 23.6923 28.5301 23.4528 28.397C21.643 27.4389 19.8465 26.4741 18.0434 25.5027C17.9103 25.4295 17.8105 25.4295 17.6774 25.5027C15.8078 26.4874 13.9381 27.4721 12.0684 28.4569C11.962 28.5101 11.9021 28.59 11.8555 28.6964C11.6027 29.3352 11.3432 29.9806 11.0904 30.6193C10.9706 30.9121 10.7111 31.0318 10.425 30.9254C10.1256 30.8189 9.99916 30.5528 10.1123 30.2534C10.2187 29.9539 10.3451 29.6612 10.4649 29.3684C11.3099 27.2725 12.1616 25.1766 13.0066 23.0808C14.0712 20.4459 15.1424 17.8044 16.2136 15.1696C16.2802 15.0166 16.2602 14.9168 16.1471 14.7903C15.4884 14.0784 15.2821 13.24 15.6215 12.3218C15.9675 11.3903 16.6661 10.8514 17.6508 10.7449C19.0281 10.6052 20.2457 11.7496 20.2457 13.3265ZM17.8571 20.3395C17.8105 20.3461 17.7772 20.3727 17.744 20.3927C16.7792 21.0847 15.8211 21.77 14.8563 22.462C14.7565 22.5352 14.7565 22.5618 14.8696 22.6217C15.8277 23.134 16.7859 23.6463 17.7506 24.1586C17.8305 24.1986 17.897 24.1986 17.9769 24.152C18.9283 23.6397 19.8798 23.134 20.8313 22.6283C20.9577 22.5618 20.9577 22.5352 20.8446 22.4553C19.8798 21.7633 18.9217 21.0714 17.9569 20.386C17.9303 20.3661 17.897 20.3395 17.8571 20.3395ZM16.2735 17.7978C16.2536 17.8843 16.3134 17.9109 16.36 17.9442C16.8191 18.2702 17.2782 18.5962 17.7373 18.9222C17.8238 18.9821 17.8904 18.9821 17.9769 18.9222C18.4293 18.5829 18.8751 18.2502 19.3342 17.9175C19.4406 17.8444 19.4606 17.7712 19.4074 17.6514C19.1146 16.9528 18.8219 16.2541 18.5424 15.5489C18.4958 15.4424 18.4426 15.4224 18.3361 15.4491C18.0301 15.5355 17.7174 15.5422 17.4113 15.4557C17.2849 15.4224 17.2183 15.4491 17.1718 15.5755C16.8857 16.2941 16.5996 17.006 16.3068 17.7179C16.2935 17.7512 16.2802 17.7778 16.2735 17.7978ZM12.5874 27.0264C12.614 27.013 12.6406 26.9997 12.6739 26.9864C13.9647 26.3011 15.2489 25.6158 16.5397 24.9305C16.5796 24.9105 16.6528 24.8972 16.6528 24.8373C16.6528 24.7774 16.5862 24.7708 16.5397 24.7442C15.7612 24.325 14.9761 23.8991 14.1909 23.48C14.0046 23.3802 14.0046 23.3802 13.9248 23.5798C13.479 24.6776 13.0266 25.7688 12.5808 26.8667C12.5675 26.8999 12.5541 26.9399 12.5408 26.9731C12.5342 27.0064 12.5475 27.0264 12.5874 27.0264ZM21.6097 23.3602C21.5765 23.3735 21.5432 23.3935 21.5033 23.4134C21.0042 23.6796 20.5119 23.9457 20.0129 24.2119C19.7068 24.3782 19.4007 24.5379 19.0947 24.7042C19.0614 24.7242 19.0082 24.7309 19.0082 24.7841C19.0082 24.8307 19.068 24.8373 19.1013 24.8639C19.1146 24.8706 19.1279 24.8772 19.1479 24.8905C20.1925 25.4428 21.2371 26.0017 22.2751 26.5539C22.5279 26.687 22.7741 26.8201 23.0269 26.9532C23.0536 26.9665 23.0802 26.9931 23.1068 26.9665C23.1334 26.9399 23.1134 26.9132 23.1001 26.8866C23.0935 26.86 23.0802 26.84 23.0735 26.8134C22.8074 26.168 22.5479 25.5226 22.2817 24.8706C22.0954 24.4048 21.9025 23.9457 21.7162 23.48C21.6962 23.4334 21.6896 23.3735 21.6097 23.3602ZM17.8371 14.4776C18.569 14.4843 19.1945 13.8788 19.2011 13.1536C19.2078 12.4217 18.6023 11.7896 17.8837 11.7829C17.1385 11.7763 16.5131 12.3817 16.5064 13.107C16.4997 13.8522 17.1052 14.471 17.8371 14.4776ZM20.7248 21.078C20.7181 21.0447 20.7181 21.0181 20.7048 20.9982C20.432 20.3262 20.1592 19.6608 19.8864 18.9888C19.8399 18.8823 19.7866 18.8823 19.7068 18.9422C19.434 19.1418 19.1545 19.3348 18.8817 19.5344C18.7487 19.6342 18.742 19.6342 18.8751 19.734C19.4473 20.1598 20.0262 20.5856 20.5984 21.0115C20.6316 21.0447 20.6583 21.078 20.7248 21.078ZM14.996 21.0314C15.0293 21.0314 15.0559 21.0115 15.0825 20.9915C15.6747 20.5657 16.2669 20.1399 16.8657 19.714C16.9455 19.6608 16.9455 19.6209 16.8657 19.561C16.5862 19.3614 16.3068 19.1618 16.0273 18.9622C15.881 18.8624 15.8677 18.8624 15.8011 19.022C15.535 19.6541 15.2688 20.2862 15.0093 20.9183C15.0027 20.9516 14.9694 20.9849 14.996 21.0314Z" fill="white"/>
<path d="M11.2432 6.06789C11.4628 6.06789 11.6225 6.17434 11.7156 6.37395C11.8088 6.56691 11.7622 6.77982 11.6025 6.94616C11.2565 7.30546 10.9305 7.68472 10.6377 8.09059C9.77276 9.32151 9.24713 10.6855 9.08744 12.1759C8.82795 14.6111 9.46004 16.8068 10.9837 18.7297C11.17 18.9693 11.3829 19.1888 11.5959 19.4084C11.7822 19.6014 11.8088 19.8608 11.6757 20.0605C11.536 20.2734 11.2499 20.3665 11.017 20.28C10.9505 20.2534 10.8972 20.2201 10.8507 20.1736C9.25378 18.5368 8.30231 16.5873 8.06278 14.3117C7.76337 11.4773 8.53519 8.9489 10.3716 6.75986C10.5313 6.56691 10.7043 6.38726 10.8839 6.21427C10.9837 6.12112 11.1035 6.06123 11.2432 6.06789Z" fill="white"/>
<path d="M27.7377 13.1403C27.7178 15.489 26.9792 17.5849 25.4822 19.4013C25.2759 19.6542 25.0497 19.887 24.8101 20.1132C24.5972 20.3195 24.3045 20.3129 24.0916 20.0999C23.8919 19.9003 23.8853 19.6009 24.0849 19.388C24.3444 19.1219 24.5906 18.8424 24.8234 18.5496C25.8548 17.2256 26.4802 15.7285 26.6465 14.0518C26.8994 11.5168 26.1675 9.28781 24.5307 7.34495C24.3976 7.18527 24.2512 7.03889 24.1049 6.88585C23.8919 6.65963 23.8986 6.35356 24.1115 6.1473C24.3244 5.94769 24.6172 5.94769 24.8368 6.16726C26.4802 7.82401 27.4516 9.81345 27.6912 12.1422C27.7244 12.4749 27.7444 12.8076 27.7377 13.1403Z" fill="white"/>
<path d="M25.2021 13.1398C25.1688 15.1426 24.4835 16.8725 23.0796 18.3097C22.86 18.5359 22.5672 18.5492 22.3543 18.3496C22.1281 18.1434 22.1214 17.824 22.341 17.5911C22.687 17.2318 23.0064 16.8459 23.2592 16.4068C24.3903 14.424 24.4635 12.3946 23.5054 10.3254C23.2193 9.69993 22.8068 9.15433 22.341 8.65531C22.1148 8.41578 22.1214 8.12302 22.341 7.9101C22.5539 7.70384 22.8533 7.71049 23.0729 7.94337C24.2439 9.12771 24.9226 10.5516 25.1422 12.2017C25.1888 12.5211 25.2087 12.8271 25.2021 13.1398Z" fill="white"/>
<path d="M10.5049 13.1533C10.5315 11.1639 11.2301 9.44728 12.6207 8.01675C12.9002 7.73064 13.2861 7.77722 13.4657 8.09659C13.5789 8.2962 13.5522 8.51577 13.3859 8.69542C13.0665 9.04141 12.7605 9.39405 12.5143 9.79992C11.8955 10.8046 11.5695 11.8892 11.5562 13.0735C11.5362 14.5573 11.9886 15.888 12.8935 17.059C13.0399 17.2453 13.1996 17.4183 13.3659 17.5913C13.5922 17.8242 13.5988 18.1236 13.3792 18.3365C13.1663 18.5494 12.8669 18.5428 12.634 18.3099C11.4031 17.0524 10.7045 15.5486 10.5382 13.7987C10.5115 13.5858 10.5182 13.3663 10.5049 13.1533Z" fill="white"/>
<path d="M22.6409 13.3332C22.6276 14.4643 22.1818 15.5888 21.2836 16.5269C21.0573 16.7664 20.7579 16.7864 20.5384 16.5868C20.3121 16.3805 20.2922 16.0412 20.5051 15.8017C20.6648 15.622 20.8245 15.4424 20.9642 15.2428C21.9489 13.7923 21.7826 11.8162 20.5716 10.5453C20.5251 10.4987 20.4851 10.4522 20.4519 10.3989C20.2988 10.1727 20.3388 9.91987 20.5384 9.73357C20.7247 9.56057 20.9975 9.55392 21.2037 9.71361C21.3434 9.82672 21.4566 9.96644 21.563 10.1062C22.275 10.9978 22.6343 12.0158 22.6409 13.3332Z" fill="white"/>
<path d="M13.0728 13.16C13.0795 11.8626 13.5319 10.7448 14.4169 9.8066C14.5699 9.64026 14.7496 9.56042 14.9758 9.62696C15.182 9.68684 15.3018 9.83322 15.3484 10.0395C15.3883 10.2324 15.3018 10.3855 15.1687 10.5185C14.9758 10.7115 14.8028 10.9178 14.6564 11.1506C13.7382 12.5545 13.9179 14.5041 15.0822 15.7217C15.1288 15.7749 15.182 15.8215 15.2286 15.8814C15.4149 16.1209 15.395 16.4003 15.1754 16.5999C14.9691 16.7863 14.6697 16.7796 14.4634 16.5733C13.8846 15.9945 13.4854 15.3091 13.2591 14.5307C13.1327 14.0716 13.0595 13.6191 13.0728 13.16Z" fill="white"/>
<path d="M30.1463 29.0426C32.0204 29.0426 33.5396 27.5233 33.5396 25.6492C33.5396 23.7751 32.0204 22.2559 30.1463 22.2559C28.2722 22.2559 26.7529 23.7751 26.7529 25.6492C26.7529 27.5233 28.2722 29.0426 30.1463 29.0426Z" stroke="white" stroke-miterlimit="10"/>
<path d="M31.9358 27.5517L28.3096 23.7725" stroke="white" stroke-miterlimit="10"/>
<path d="M28.3096 27.5517L31.9358 23.7725" stroke="white" stroke-miterlimit="10"/>
</svg>
