<svg width="39" height="39" viewBox="0 0 39 39" fill="none" xmlns="http://www.w3.org/2000/svg">
<path fill-rule="evenodd" clip-rule="evenodd" d="M33 20H35C35 11.7157 28.2843 5 20 5C11.7157 5 5 11.7157 5 20H7C7 12.8203 12.8203 7 20 7C27.1797 7 33 12.8203 33 20Z" fill="white"/>
<path d="M13.5504 36.0455V28.5455H15.2692V29.4794H15.3224C15.3935 29.3137 15.4941 29.1539 15.6243 29C15.7569 28.8461 15.925 28.7206 16.1286 28.6236C16.3345 28.5241 16.5807 28.4744 16.8672 28.4744C17.246 28.4744 17.5999 28.5739 17.929 28.7727C18.2604 28.9716 18.5279 29.2782 18.7315 29.6925C18.9351 30.1068 19.0369 30.6347 19.0369 31.2763C19.0369 31.8942 18.9387 32.4115 18.7422 32.8281C18.5481 33.2448 18.2853 33.5573 17.9538 33.7656C17.6248 33.974 17.259 34.0781 16.8565 34.0781C16.5819 34.0781 16.344 34.0331 16.1428 33.9432C15.9415 33.8532 15.7723 33.7348 15.6349 33.5881C15.5 33.4413 15.3958 33.2839 15.3224 33.1158H15.2869V36.0455H13.5504ZM15.2514 31.2727C15.2514 31.5663 15.2905 31.822 15.3686 32.0398C15.4491 32.2576 15.5639 32.4268 15.7131 32.5476C15.8646 32.666 16.0457 32.7251 16.2564 32.7251C16.4695 32.7251 16.6506 32.666 16.7997 32.5476C16.9489 32.4268 17.0613 32.2576 17.1371 32.0398C17.2152 31.822 17.2543 31.5663 17.2543 31.2727C17.2543 30.9792 17.2152 30.7247 17.1371 30.5092C17.0613 30.2938 16.9489 30.1269 16.7997 30.0085C16.6529 29.8902 16.4718 29.831 16.2564 29.831C16.0433 29.831 15.8622 29.889 15.7131 30.005C15.5639 30.121 15.4491 30.2867 15.3686 30.5021C15.2905 30.7176 15.2514 30.9744 15.2514 31.2727ZM19.9469 34V26.7273H21.7047V29.6463H24.5705V26.7273H26.3248V34H24.5705V31.0774H21.7047V34H19.9469Z" fill="white"/>
<circle cx="20" cy="20" r="3" fill="white"/>
<path d="M22.5144 20.7264L22.5287 20.78L22.5806 20.7601L33.8474 16.4441L33.8217 16.348L21.9063 18.2437L21.8515 18.2524L21.8658 18.306L22.5144 20.7264Z" fill="white" stroke="white" stroke-width="0.1"/>
</svg>
