<svg width="39" height="39" viewBox="0 0 39 39" fill="none" xmlns="http://www.w3.org/2000/svg">
<path d="M16.0265 26.8885C15.2455 27.6696 13.9791 27.6696 13.1981 26.8885L5.49965 19.1901L10.6894 14.0003L18.3879 21.6987C19.1689 22.4798 19.1689 23.7461 18.3879 24.5272L16.0265 26.8885Z" fill="#8E8E8E"/>
<path d="M6.2754 12.4144C7.05636 11.6332 8.32269 11.6331 9.10383 12.414L16.5559 19.8644L11.3667 25.0548L3.91464 17.6044C3.1335 16.8235 3.13335 15.5572 3.91431 14.776L6.2754 12.4144Z" fill="#D9D9D9"/>
<rect x="14.5" y="25.1211" width="3" height="0.35" transform="rotate(-45 14.5 25.1211)" fill="#757575"/>
<path d="M7.32805 13.7071C7.71857 13.3166 8.35174 13.3166 8.74226 13.7071L11.1127 16.0776C11.5032 16.4681 11.5032 17.1013 11.1127 17.4918L8.9914 19.6131C8.60087 20.0036 7.96771 20.0036 7.57718 19.6131L5.20673 17.2426C4.81621 16.8521 4.8162 16.219 5.20673 15.8284L7.32805 13.7071Z" fill="#D9D9D9"/>
<path fill-rule="evenodd" clip-rule="evenodd" d="M16.5 20L11.5 25L10.2984 23.5579C10.2592 23.4937 10.2184 23.4271 10.1761 23.3581C9.66027 22.5166 8.92879 21.3233 8.36091 19.9059C8.62001 19.9084 8.87987 19.8108 9.07756 19.6131L11.1989 17.4918C11.5894 17.1013 11.5894 16.4681 11.1989 16.0776L8.82843 13.7071C8.55756 13.4362 8.16997 13.3532 7.82758 13.4581C7.96532 12.9803 8.15044 12.4985 8.39022 12.0152C8.48645 11.8211 10.1324 13.5051 12.7889 16.223C13.8705 17.3296 15.1197 18.6076 16.5 20ZM7.82758 13.4581C7.67632 13.5045 7.53387 13.5874 7.41421 13.7071L5.29289 15.8284C4.90237 16.219 4.90237 16.8521 5.29289 17.2426L7.66335 19.6131C7.85618 19.8059 8.10818 19.9035 8.36091 19.9059C7.61572 18.0461 7.15227 15.8005 7.82758 13.4581Z" fill="#E4E4E4"/>
<path d="M12.5 14C12.5 13.4477 12.9477 13 13.5 13H17.5C18.0523 13 18.5 13.4477 18.5 14V17C18.5 17.5523 18.0523 18 17.5 18H13.5C12.9477 18 12.5 17.5523 12.5 17V14Z" fill="#8E8E8E"/>
<circle cx="11" cy="21.5" r="0.5" fill="#8E8E8E"/>
<circle cx="13" cy="19.5" r="0.5" fill="#8E8E8E"/>
<path d="M32.0265 26.8885C31.2455 27.6696 29.9791 27.6696 29.1981 26.8885L21.4996 19.1901L26.6894 14.0003L34.3879 21.6987C35.1689 22.4798 35.1689 23.7461 34.3879 24.5272L32.0265 26.8885Z" fill="#8E8E8E"/>
<path d="M22.2754 12.4144C23.0564 11.6332 24.3227 11.6331 25.1038 12.414L32.5559 19.8644L27.3667 25.0548L19.9146 17.6044C19.1335 16.8235 19.1334 15.5572 19.9143 14.776L22.2754 12.4144Z" fill="#D9D9D9"/>
<rect x="30.5" y="25.1211" width="3" height="0.35" transform="rotate(-45 30.5 25.1211)" fill="#757575"/>
<path d="M23.328 13.7071C23.7186 13.3166 24.3517 13.3166 24.7423 13.7071L27.1127 16.0776C27.5032 16.4681 27.5032 17.1013 27.1127 17.4918L24.9914 19.6131C24.6009 20.0036 23.9677 20.0036 23.5772 19.6131L21.2067 17.2426C20.8162 16.8521 20.8162 16.219 21.2067 15.8284L23.328 13.7071Z" fill="#D9D9D9"/>
<path fill-rule="evenodd" clip-rule="evenodd" d="M32.5 20L27.5 25L26.2984 23.5579C26.2592 23.4937 26.2184 23.4271 26.1761 23.3581C25.6603 22.5166 24.9288 21.3233 24.3609 19.9059C24.62 19.9084 24.8799 19.8108 25.0776 19.6131L27.1989 17.4918C27.5894 17.1013 27.5894 16.4681 27.1989 16.0776L24.8284 13.7071C24.5576 13.4362 24.17 13.3532 23.8276 13.4581C23.9653 12.9803 24.1504 12.4985 24.3902 12.0152C24.4865 11.8211 26.1324 13.5051 28.7889 16.223C29.8705 17.3296 31.1197 18.6076 32.5 20ZM23.8276 13.4581C23.6763 13.5045 23.5339 13.5874 23.4142 13.7071L21.2929 15.8284C20.9024 16.219 20.9024 16.8521 21.2929 17.2426L23.6633 19.6131C23.8562 19.8059 24.1082 19.9035 24.3609 19.9059C23.6157 18.0461 23.1523 15.8005 23.8276 13.4581Z" fill="#E4E4E4"/>
<path d="M28.5 14C28.5 13.4477 28.9477 13 29.5 13H33.5C34.0523 13 34.5 13.4477 34.5 14V17C34.5 17.5523 34.0523 18 33.5 18H29.5C28.9477 18 28.5 17.5523 28.5 17V14Z" fill="#8E8E8E"/>
<circle cx="27" cy="21.5" r="0.5" fill="#8E8E8E"/>
<circle cx="29" cy="19.5" r="0.5" fill="#8E8E8E"/>
</svg>
