<svg width="100" height="100" viewBox="0 0 100 100" fill="none" xmlns="http://www.w3.org/2000/svg">
<g clip-path="url(#clip0_399_2980)">
<path d="M80.8418 73.7707L80.8418 80.4336L26.3276 80.4336L26.3276 73.7707L80.8418 73.7707Z" fill="url(#paint0_radial_399_2980)"/>
<rect x="40.7375" y="62.7541" width="22.7957" height="2.15054" fill="url(#paint1_linear_399_2980)" stroke="#51544E" stroke-width="0.430108"/>
<rect x="40.5225" y="84.8984" width="23.2258" height="5.16129" fill="#34414D"/>
<rect x="41.3855" y="90.0664" width="21.5054" height="3.44086" fill="#A1ACAF"/>
<path d="M60.8391 80.1742L63.1852 88.7764H41.0856L43.4316 80.1742H60.8391Z" fill="url(#paint2_linear_399_2980)" stroke="black" stroke-width="0.860215"/>
<rect x="44.1516" y="65.1172" width="15.9802" height="19.7849" fill="url(#paint3_linear_399_2980)"/>
<circle cx="52.1361" cy="76.3016" r="6.88172" fill="#34414D"/>
<path d="M44.7532 8.56076H59.5851C63.247 8.56076 66.2156 11.5293 66.2156 15.1912V22.9626H38.1228V15.1912C38.1228 11.5293 41.0913 8.56076 44.7532 8.56076Z" fill="url(#paint4_linear_399_2980)" stroke="#51544E" stroke-width="0.430108"/>
<path d="M38.1228 23.3889H66.2156V59.6832C66.2156 61.1397 65.0349 62.3204 63.5783 62.3204H40.76C39.3035 62.3204 38.1228 61.1397 38.1228 59.6832V23.3889Z" fill="url(#paint5_linear_399_2980)" stroke="#51544E" stroke-width="0.430108"/>
<path d="M44.3196 23.3164H45.1753V55.1195C45.1753 55.3558 44.9838 55.5474 44.7475 55.5474C44.5112 55.5474 44.3196 55.3558 44.3196 55.1195V23.3164Z" fill="#51544E" stroke="black" stroke-width="0.285229"/>
<path d="M40.8919 23.3164H41.4623V55.2621C41.4623 55.4197 41.3346 55.5474 41.1771 55.5474C41.0196 55.5474 40.8919 55.4197 40.8919 55.2621V23.3164Z" fill="#51544E" stroke="black" stroke-width="0.285229"/>
<path d="M39.1844 23.3164H39.7548V55.2621C39.7548 55.4197 39.6271 55.5474 39.4696 55.5474C39.3121 55.5474 39.1844 55.4197 39.1844 55.2621V23.3164Z" fill="#51544E" stroke="black" stroke-width="0.285229"/>
<path d="M47.1675 23.3164H48.0232V55.1195C48.0232 55.3558 47.8317 55.5474 47.5954 55.5474C47.3591 55.5474 47.1675 55.3558 47.1675 55.1195V23.3164Z" fill="#51544E" stroke="black" stroke-width="0.285229"/>
<path d="M50.0281 23.3164H50.8838V55.1195C50.8838 55.3558 50.6922 55.5474 50.456 55.5474C50.2197 55.5474 50.0281 55.3558 50.0281 55.1195V23.3164Z" fill="#51544E" stroke="black" stroke-width="0.285229"/>
<path d="M52.8697 23.3164H53.7254V55.1195C53.7254 55.3558 53.5338 55.5474 53.2975 55.5474C53.0612 55.5474 52.8697 55.3558 52.8697 55.1195V23.3164Z" fill="#51544E" stroke="black" stroke-width="0.285229"/>
<path d="M55.7242 23.3164H56.5798V55.1195C56.5798 55.3558 56.3883 55.5474 56.152 55.5474C55.9157 55.5474 55.7242 55.3558 55.7242 55.1195V23.3164Z" fill="#51544E" stroke="black" stroke-width="0.285229"/>
<path d="M58.5784 23.3164H59.4341V55.1195C59.4341 55.3558 59.2425 55.5474 59.0062 55.5474C58.77 55.5474 58.5784 55.3558 58.5784 55.1195V23.3164Z" fill="#51544E" stroke="black" stroke-width="0.285229"/>
<path d="M61.4263 23.3164H62.282V55.1195C62.282 55.3558 62.0904 55.5474 61.8541 55.5474C61.6179 55.5474 61.4263 55.3558 61.4263 55.1195V23.3164Z" fill="#51544E" stroke="black" stroke-width="0.285229"/>
<rect x="58.8621" y="54.1231" width="3.13752" height="4.27844" fill="url(#paint6_linear_399_2980)" stroke="#51544E" stroke-width="0.285229"/>
<path d="M59.4417 58.6875H61.4383V59.1154C61.4383 59.3517 61.2467 59.5432 61.0104 59.5432H59.8695C59.6332 59.5432 59.4417 59.3517 59.4417 59.1154V58.6875Z" fill="url(#paint7_linear_399_2980)" stroke="#51544E" stroke-width="0.285229"/>
<rect x="34.6285" y="54.6953" width="3.13752" height="4.27844" fill="url(#paint8_linear_399_2980)" stroke="#51544E" stroke-width="0.285229"/>
<path d="M35.1895 59.2618H37.1861V59.6896C37.1861 59.9259 36.9945 60.1174 36.7582 60.1174H35.6173C35.381 60.1174 35.1895 59.9259 35.1895 59.6896V59.2618Z" fill="url(#paint9_linear_399_2980)" stroke="#51544E" stroke-width="0.285229"/>
<rect x="29.4871" y="36.4414" width="13.9762" height="19.1104" fill="url(#paint10_linear_399_2980)" stroke="#51544E" stroke-width="0.285229"/>
<path d="M37.6249 40.5742L35.343 42.0004V44.5674L37.9101 45.9936L40.1919 44.5674V42.0004L37.6249 40.5742Z" stroke="black" stroke-width="0.285229"/>
<circle cx="37.7285" cy="43.2602" r="1.56876" fill="#51544E" stroke="black" stroke-width="0.285229"/>
<circle cx="37.7846" cy="43.2568" r="3.56537" stroke="black" stroke-width="0.285229"/>
<line x1="32.0564" y1="55.6934" x2="32.0564" y2="36.2978" stroke="black" stroke-width="0.285229"/>
<rect x="62.5796" y="26.7442" width="7.13073" height="27.0968" fill="url(#paint11_linear_399_2980)" stroke="#51544E" stroke-width="0.285229"/>
<line x1="68.5637" y1="53.9805" x2="68.5637" y2="26.5985" stroke="black" stroke-width="0.285229"/>
<line x1="62.437" y1="30.4492" x2="68.7121" y2="30.4492" stroke="black" stroke-width="0.285229"/>
<line x1="62.437" y1="50.9863" x2="68.7121" y2="50.9863" stroke="black" stroke-width="0.285229"/>
<path d="M34.7632 57.1152L66.4236 57.1152" stroke="#51544E" stroke-width="0.570459"/>
<path d="M51.7581 76.3349C51.6669 76.1615 51.5934 76.0057 51.5258 75.844C51.333 75.3995 51.233 74.9204 51.2319 74.4359C51.2332 74.1907 51.2749 73.9473 51.3553 73.7157C51.4218 73.5199 51.5419 73.3466 51.702 73.2157C51.8621 73.0847 52.0556 73.0013 52.2607 72.9749C52.8971 72.8662 53.5508 73.0096 54.0833 73.3747C54.3737 73.551 54.6256 73.784 54.8241 74.0596C54.8682 74.1115 54.8977 74.1741 54.9097 74.241C54.9217 74.308 54.9158 74.3769 54.8925 74.4409C54.8692 74.5048 54.8293 74.5614 54.7771 74.6049C54.7248 74.6485 54.6619 74.6774 54.5948 74.6887L54.1421 74.7975C53.8328 74.8785 53.5672 75.0767 53.4013 75.3501C53.2403 75.6064 53.1054 75.8782 52.9986 76.1615C52.9796 76.1944 52.9714 76.2324 52.9751 76.2702C53.1309 76.1879 53.2867 76.1144 53.4454 76.0497C53.9016 75.8516 54.3944 75.7515 54.8917 75.7558C55.1347 75.7609 55.3752 75.8066 55.6031 75.891C55.8098 75.9696 55.9887 76.1075 56.1174 76.2874C56.246 76.4673 56.3187 76.6812 56.3263 76.9022C56.368 77.2835 56.3256 77.6693 56.2022 78.0324C56.0788 78.3955 55.8773 78.7272 55.6119 79.0041C55.4995 79.1371 55.37 79.2547 55.2268 79.3539C55.1746 79.3965 55.112 79.4247 55.0454 79.4355C54.9789 79.4464 54.9106 79.4395 54.8475 79.4157C54.7844 79.3919 54.7287 79.352 54.6859 79.2998C54.6431 79.2477 54.6147 79.1853 54.6036 79.1187C54.5595 78.9453 54.5213 78.7689 54.4684 78.5955C54.3884 78.3309 54.2177 78.1029 53.9863 77.9517C53.71 77.771 53.4142 77.6221 53.1044 77.5078C53.0729 77.4955 53.0404 77.4857 53.0074 77.4784C53.0662 77.5989 53.1221 77.7077 53.1691 77.8165C53.407 78.3115 53.5277 78.8547 53.5218 79.4039C53.5236 79.7017 53.4551 79.9958 53.3219 80.2622C53.2297 80.4298 53.0968 80.5714 52.9355 80.6741C52.7742 80.7769 52.5897 80.8374 52.3989 80.8502C51.7444 80.9273 51.0854 80.7494 50.5587 80.3534C50.3174 80.187 50.1057 79.9813 49.9325 79.7449C49.89 79.6934 49.8616 79.6317 49.8501 79.566C49.8387 79.5002 49.8445 79.4326 49.867 79.3697C49.8895 79.3069 49.928 79.251 49.9787 79.2075C50.0293 79.164 50.0904 79.1344 50.156 79.1217C50.3206 79.0805 50.4881 79.0452 50.6528 78.9982C50.9204 78.9282 51.1541 78.7644 51.3112 78.5367C51.5025 78.2575 51.6575 77.9553 51.7728 77.6372C51.7728 77.6136 51.811 77.5813 51.7728 77.5578C51.7345 77.5343 51.7257 77.5578 51.7022 77.5784C51.2856 77.7976 50.8357 77.9466 50.3706 78.0193C50.0155 78.0721 49.6535 78.0521 49.3064 77.9605C49.0848 77.9098 48.8838 77.793 48.73 77.6255C48.5762 77.4581 48.4769 77.2479 48.4451 77.0228C48.3383 76.3847 48.4838 75.7301 48.8508 75.1973C49.0295 74.9097 49.2609 74.6584 49.5328 74.4565C49.5848 74.4124 49.6476 74.3829 49.7148 74.371C49.782 74.3592 49.8511 74.3654 49.9151 74.389C49.9791 74.4126 50.0356 74.4528 50.079 74.5055C50.1223 74.5581 50.1509 74.6214 50.1618 74.6887C50.1942 74.818 50.2265 74.9444 50.2559 75.0738C50.2927 75.2491 50.3663 75.4147 50.4717 75.5596C50.577 75.7045 50.7119 75.8255 50.8674 75.9145C51.1076 76.0594 51.3592 76.1842 51.6199 76.2879L51.7581 76.3349ZM52.0844 80.518C52.1917 80.5166 52.2987 80.5078 52.4048 80.4915C52.5507 80.4794 52.6901 80.426 52.8067 80.3375C52.9234 80.249 53.0123 80.1291 53.0633 79.9918C53.1264 79.8191 53.1621 79.6376 53.1691 79.4538C53.1819 78.8587 53.038 78.2707 52.7517 77.7489C52.7483 77.7363 52.7422 77.7247 52.7338 77.7149C52.7253 77.7051 52.7147 77.6974 52.7028 77.6923C52.6909 77.6872 52.678 77.6849 52.6651 77.6855C52.6522 77.6861 52.6395 77.6897 52.6282 77.6959C52.4947 77.7467 52.3486 77.7539 52.2108 77.7165C52.1402 77.6959 52.1167 77.7165 52.0932 77.7841C51.9989 78.0272 51.8869 78.263 51.7581 78.4896C51.6406 78.7187 51.4717 78.9175 51.2647 79.0705C51.0576 79.2234 50.818 79.3265 50.5646 79.3715C50.4764 79.3892 50.3882 79.4127 50.3 79.4362C50.2118 79.4597 50.1795 79.4832 50.253 79.5744C50.4712 79.8554 50.7482 80.0854 51.0645 80.2484C51.3808 80.4114 51.7288 80.5034 52.0844 80.518ZM51.5905 74.4917C51.6075 75.0408 51.7524 75.5784 52.0138 76.0615C52.017 76.0733 52.023 76.0843 52.0311 76.0934C52.0393 76.1026 52.0495 76.1097 52.0609 76.1143C52.0723 76.1188 52.0846 76.1207 52.0968 76.1197C52.1091 76.1187 52.1209 76.1149 52.1314 76.1085C52.2652 76.0593 52.4108 76.0521 52.5488 76.088C52.6194 76.1085 52.6458 76.088 52.6693 76.0233C52.7905 75.6934 52.9514 75.3794 53.1485 75.0885C53.3588 74.7746 53.6784 74.5504 54.0451 74.4594L54.4508 74.3595C54.5772 74.3271 54.5831 74.3154 54.5007 74.2066C54.3878 74.0608 54.2564 73.9304 54.1098 73.8186C53.8672 73.6162 53.585 73.4666 53.2813 73.3796C52.9775 73.2925 52.659 73.2698 52.346 73.3129C52.1789 73.3271 52.0208 73.3949 51.8953 73.5061C51.7698 73.6173 51.6835 73.7661 51.6493 73.9303C51.6049 74.114 51.5851 74.3028 51.5905 74.4917ZM56 77.1962C55.9976 77.0888 55.9878 76.9818 55.9706 76.8758C55.9576 76.7305 55.9038 76.5919 55.8153 76.4759C55.7269 76.3599 55.6075 76.2712 55.4708 76.2202C55.3036 76.1599 55.1281 76.1252 54.9505 76.1174C54.3485 76.1013 53.753 76.2453 53.2249 76.5348C53.2129 76.5388 53.202 76.5454 53.1928 76.5541C53.1837 76.5629 53.1766 76.5735 53.1721 76.5854C53.1676 76.5972 53.1658 76.6098 53.1668 76.6225C53.1678 76.6351 53.1716 76.6473 53.1779 76.6583C53.2277 76.7931 53.2339 76.9401 53.1955 77.0786C53.175 77.1462 53.1955 77.1668 53.2602 77.1903C53.546 77.2976 53.8207 77.4325 54.0804 77.5931C54.4205 77.788 54.6761 78.1022 54.7976 78.4749C54.8535 78.6454 54.8858 78.8189 54.927 78.9894C54.9534 79.0982 54.974 79.107 55.0593 79.0394C55.341 78.8195 55.571 78.5405 55.7331 78.222C55.8951 77.9036 55.9852 77.5534 55.997 77.1962H56ZM48.7626 76.6083C48.7649 76.7156 48.7748 76.8227 48.792 76.9287C48.804 77.0739 48.8571 77.2126 48.9451 77.3287C49.0331 77.4448 49.1523 77.5334 49.2888 77.5842C49.4616 77.647 49.643 77.6827 49.8267 77.6901C50.423 77.7047 51.0124 77.5606 51.5346 77.2726C51.5468 77.2694 51.5581 77.2633 51.5676 77.255C51.577 77.2467 51.5845 77.2363 51.5893 77.2247C51.5941 77.213 51.5962 77.2004 51.5954 77.1878C51.5946 77.1753 51.5909 77.163 51.5846 77.1521C51.5353 77.0214 51.5281 76.8785 51.564 76.7435C51.5876 76.6612 51.564 76.6377 51.4876 76.6112C51.205 76.5042 50.9333 76.3703 50.6763 76.2114C50.4834 76.0991 50.316 75.9477 50.1849 75.767C50.0538 75.5863 49.9619 75.3802 49.9149 75.162C49.8914 75.0503 49.862 74.9356 49.8326 74.8239C49.8032 74.7122 49.7856 74.7034 49.6974 74.7769C49.4177 74.9957 49.1891 75.273 49.0276 75.5893C48.8662 75.9056 48.7757 76.2534 48.7626 76.6083ZM52.8604 76.9022C52.861 76.8068 52.8332 76.7133 52.7806 76.6336C52.728 76.5539 52.6529 76.4917 52.5649 76.4548C52.4768 76.4178 52.3798 76.4078 52.2861 76.4261C52.1924 76.4444 52.1062 76.4901 52.0385 76.5574C51.9708 76.6247 51.9246 76.7106 51.9057 76.8042C51.8869 76.8978 51.8962 76.9948 51.9326 77.0831C51.969 77.1714 52.0308 77.2468 52.1102 77.2999C52.1895 77.3531 52.2828 77.3814 52.3783 77.3814C52.4417 77.3826 52.5047 77.371 52.5635 77.3474C52.6224 77.3238 52.6758 77.2886 52.7208 77.2439C52.7658 77.1992 52.8013 77.1459 52.8253 77.0872C52.8493 77.0285 52.8612 76.9656 52.8604 76.9022Z" fill="white" stroke="white" stroke-width="0.195976"/>
</g>
<defs>
<radialGradient id="paint0_radial_399_2980" cx="0" cy="0" r="1" gradientUnits="userSpaceOnUse" gradientTransform="translate(53.5847 77.1022) rotate(180) scale(27.2571 3.33143)">
<stop stop-color="#D0D0D0"/>
<stop offset="1" stop-color="#7A7A7A"/>
</radialGradient>
<linearGradient id="paint1_linear_399_2980" x1="40.5225" y1="63.8294" x2="63.7483" y2="63.8294" gradientUnits="userSpaceOnUse">
<stop stop-color="#8C8D8C"/>
<stop offset="0.465" stop-color="white"/>
<stop offset="1" stop-color="#8C8D8C"/>
</linearGradient>
<linearGradient id="paint2_linear_399_2980" x1="52.1354" y1="79.7441" x2="52.1354" y2="89.2065" gradientUnits="userSpaceOnUse">
<stop stop-color="#8C8D8C"/>
<stop offset="1" stop-color="#636362"/>
</linearGradient>
<linearGradient id="paint3_linear_399_2980" x1="44.1516" y1="74.5386" x2="60.1318" y2="74.5386" gradientUnits="userSpaceOnUse">
<stop stop-color="#9CA7AA"/>
<stop offset="0.485" stop-color="#D0DAE7"/>
<stop offset="1" stop-color="#9CA7AA"/>
</linearGradient>
<linearGradient id="paint4_linear_399_2980" x1="66.4306" y1="15.7617" x2="37.9077" y2="15.7617" gradientUnits="userSpaceOnUse">
<stop stop-color="#8C8D8C"/>
<stop offset="0.464" stop-color="white"/>
<stop offset="1" stop-color="#8C8D8C"/>
</linearGradient>
<linearGradient id="paint5_linear_399_2980" x1="38.1929" y1="42.8546" x2="66.4306" y2="42.8546" gradientUnits="userSpaceOnUse">
<stop stop-color="#8C8D8C"/>
<stop offset="0.479" stop-color="white"/>
<stop offset="1" stop-color="#8C8D8C"/>
</linearGradient>
<linearGradient id="paint6_linear_399_2980" x1="61.857" y1="55.8059" x2="58.7195" y2="55.8059" gradientUnits="userSpaceOnUse">
<stop stop-color="#8C8D8C"/>
<stop offset="0.49" stop-color="white"/>
<stop offset="1" stop-color="#8C8D8C"/>
</linearGradient>
<linearGradient id="paint7_linear_399_2980" x1="61.3908" y1="59.0013" x2="59.2991" y2="59.0013" gradientUnits="userSpaceOnUse">
<stop stop-color="#8C8D8C"/>
<stop offset="0.49" stop-color="white"/>
<stop offset="1" stop-color="#8C8D8C"/>
</linearGradient>
<linearGradient id="paint8_linear_399_2980" x1="37.6234" y1="56.3782" x2="34.4858" y2="56.3782" gradientUnits="userSpaceOnUse">
<stop stop-color="#8C8D8C"/>
<stop offset="0.49" stop-color="white"/>
<stop offset="1" stop-color="#8C8D8C"/>
</linearGradient>
<linearGradient id="paint9_linear_399_2980" x1="37.1386" y1="59.5755" x2="35.0469" y2="59.5755" gradientUnits="userSpaceOnUse">
<stop stop-color="#8C8D8C"/>
<stop offset="0.49" stop-color="white"/>
<stop offset="1" stop-color="#8C8D8C"/>
</linearGradient>
<linearGradient id="paint10_linear_399_2980" x1="43.0355" y1="36.5841" x2="29.6297" y2="55.6944" gradientUnits="userSpaceOnUse">
<stop stop-color="#8C8D8C"/>
<stop offset="0.515" stop-color="white"/>
<stop offset="1" stop-color="#8C8D8C"/>
</linearGradient>
<linearGradient id="paint11_linear_399_2980" x1="66.145" y1="26.6016" x2="66.145" y2="53.9836" gradientUnits="userSpaceOnUse">
<stop stop-color="#8C8D8C"/>
<stop offset="0.475" stop-color="white"/>
<stop offset="1" stop-color="#8C8D8C"/>
</linearGradient>
<clipPath id="clip0_399_2980">
<rect width="100" height="100" fill="white"/>
</clipPath>
</defs>
</svg>
