<svg width="39" height="39" viewBox="0 0 39 39" fill="none" xmlns="http://www.w3.org/2000/svg">
<rect x="13" y="26" width="15" height="1" fill="#C2C2C2"/>
<path d="M9 10H12.8873V26.5211H28.1127V10H32V30.0845H9V10Z" fill="#E4E4E4" stroke="white"/>
<rect x="9.48619" y="10.8094" width="0.647887" height="0.323944" fill="#1A1A1A" stroke="white" stroke-width="0.323944"/>
<rect x="9.48619" y="13.7254" width="0.647887" height="0.323944" fill="#1A1A1A" stroke="white" stroke-width="0.323944"/>
<rect x="9.48619" y="16.6415" width="0.647887" height="0.323944" fill="#1A1A1A" stroke="white" stroke-width="0.323944"/>
<rect x="9.48619" y="19.5565" width="0.647887" height="0.323944" fill="#1A1A1A" stroke="white" stroke-width="0.323944"/>
<rect x="9.48619" y="22.4715" width="0.647887" height="0.323944" fill="#1A1A1A" stroke="white" stroke-width="0.323944"/>
<rect x="9.48619" y="25.3866" width="0.647887" height="0.323944" fill="#1A1A1A" stroke="white" stroke-width="0.323944"/>
<rect x="28.5985" y="25.3866" width="0.647887" height="0.323944" fill="#1A1A1A" stroke="white" stroke-width="0.323944"/>
<rect x="28.5985" y="22.4715" width="0.647887" height="0.323944" fill="#1A1A1A" stroke="white" stroke-width="0.323944"/>
<rect x="28.5985" y="19.5565" width="0.647887" height="0.323944" fill="#1A1A1A" stroke="white" stroke-width="0.323944"/>
<rect x="28.5985" y="16.6415" width="0.647887" height="0.323944" fill="#1A1A1A" stroke="white" stroke-width="0.323944"/>
<rect x="28.5985" y="13.7254" width="0.647887" height="0.323944" fill="#1A1A1A" stroke="white" stroke-width="0.323944"/>
<rect x="28.5985" y="10.8094" width="0.647887" height="0.323944" fill="#1A1A1A" stroke="white" stroke-width="0.323944"/>
<rect x="13.0487" y="27.3299" width="0.647887" height="0.323944" fill="#1A1A1A" stroke="white" stroke-width="0.323944"/>
<rect x="16.6131" y="27.3299" width="0.647887" height="0.323944" fill="#1A1A1A" stroke="white" stroke-width="0.323944"/>
<rect x="20.1756" y="27.3299" width="0.647887" height="0.323944" fill="#1A1A1A" stroke="white" stroke-width="0.323944"/>
<rect x="23.7391" y="27.3299" width="0.647887" height="0.323944" fill="#1A1A1A" stroke="white" stroke-width="0.323944"/>
<rect x="9.48619" y="11.7811" width="0.647887" height="0.323944" fill="#1A1A1A" stroke="white" stroke-width="0.323944"/>
<rect x="9.48619" y="14.6971" width="0.647887" height="0.323944" fill="#1A1A1A" stroke="white" stroke-width="0.323944"/>
<rect x="9.48619" y="17.6131" width="0.647887" height="0.323944" fill="#1A1A1A" stroke="white" stroke-width="0.323944"/>
<rect x="9.48619" y="20.5282" width="0.647887" height="0.323944" fill="#1A1A1A" stroke="white" stroke-width="0.323944"/>
<rect x="9.48619" y="23.4432" width="0.647887" height="0.323944" fill="#1A1A1A" stroke="white" stroke-width="0.323944"/>
<rect x="9.48619" y="26.3583" width="0.647887" height="0.323944" fill="#1A1A1A" stroke="white" stroke-width="0.323944"/>
<rect x="28.5985" y="26.3583" width="0.647887" height="0.323944" fill="#1A1A1A" stroke="white" stroke-width="0.323944"/>
<rect x="28.5985" y="23.4432" width="0.647887" height="0.323944" fill="#1A1A1A" stroke="white" stroke-width="0.323944"/>
<rect x="28.5985" y="20.5282" width="0.647887" height="0.323944" fill="#1A1A1A" stroke="white" stroke-width="0.323944"/>
<rect x="28.5985" y="17.6131" width="0.647887" height="0.323944" fill="#1A1A1A" stroke="white" stroke-width="0.323944"/>
<rect x="28.5985" y="14.6971" width="0.647887" height="0.323944" fill="#1A1A1A" stroke="white" stroke-width="0.323944"/>
<rect x="28.5985" y="11.7811" width="0.647887" height="0.323944" fill="#1A1A1A" stroke="white" stroke-width="0.323944"/>
<rect x="13.0487" y="28.3036" width="0.647887" height="0.323944" fill="#1A1A1A" stroke="white" stroke-width="0.323944"/>
<rect x="16.6131" y="28.3036" width="0.647887" height="0.323944" fill="#1A1A1A" stroke="white" stroke-width="0.323944"/>
<rect x="20.1756" y="28.3036" width="0.647887" height="0.323944" fill="#1A1A1A" stroke="white" stroke-width="0.323944"/>
<rect x="23.7391" y="28.3036" width="0.647887" height="0.323944" fill="#1A1A1A" stroke="white" stroke-width="0.323944"/>
<rect x="28.5985" y="28.3036" width="0.647887" height="0.323944" fill="#1A1A1A" stroke="white" stroke-width="0.323944"/>
<rect x="9.48619" y="28.3036" width="0.647887" height="0.323944" fill="#1A1A1A" stroke="white" stroke-width="0.323944"/>
<rect x="10.4579" y="12.7528" width="0.647887" height="0.323944" fill="#1A1A1A" stroke="white" stroke-width="0.323944"/>
<rect x="10.4579" y="15.6688" width="0.647887" height="0.323944" fill="#1A1A1A" stroke="white" stroke-width="0.323944"/>
<rect x="10.4579" y="18.5848" width="0.647887" height="0.323944" fill="#1A1A1A" stroke="white" stroke-width="0.323944"/>
<rect x="10.4579" y="21.4999" width="0.647887" height="0.323944" fill="#1A1A1A" stroke="white" stroke-width="0.323944"/>
<rect x="10.4579" y="24.4149" width="0.647887" height="0.323944" fill="#1A1A1A" stroke="white" stroke-width="0.323944"/>
<rect x="10.4579" y="27.3299" width="0.647887" height="0.323944" fill="#1A1A1A" stroke="white" stroke-width="0.323944"/>
<rect x="29.5712" y="27.3299" width="0.647887" height="0.323944" fill="#1A1A1A" stroke="white" stroke-width="0.323944"/>
<rect x="29.5712" y="24.4149" width="0.647887" height="0.323944" fill="#1A1A1A" stroke="white" stroke-width="0.323944"/>
<rect x="29.5712" y="21.4999" width="0.647887" height="0.323944" fill="#1A1A1A" stroke="white" stroke-width="0.323944"/>
<rect x="29.5712" y="18.5848" width="0.647887" height="0.323944" fill="#1A1A1A" stroke="white" stroke-width="0.323944"/>
<rect x="29.5712" y="15.6688" width="0.647887" height="0.323944" fill="#1A1A1A" stroke="white" stroke-width="0.323944"/>
<rect x="29.5712" y="12.7528" width="0.647887" height="0.323944" fill="#1A1A1A" stroke="white" stroke-width="0.323944"/>
<rect x="14.0204" y="29.2753" width="0.647887" height="0.323944" fill="#1A1A1A" stroke="white" stroke-width="0.323944"/>
<rect x="17.5848" y="29.2753" width="0.647887" height="0.323944" fill="#1A1A1A" stroke="white" stroke-width="0.323944"/>
<rect x="21.1483" y="29.2753" width="0.647887" height="0.323944" fill="#1A1A1A" stroke="white" stroke-width="0.323944"/>
<rect x="24.7108" y="29.2753" width="0.647887" height="0.323944" fill="#1A1A1A" stroke="white" stroke-width="0.323944"/>
<rect x="29.5712" y="29.2753" width="0.647887" height="0.323944" fill="#1A1A1A" stroke="white" stroke-width="0.323944"/>
<rect x="10.4579" y="29.2753" width="0.647887" height="0.323944" fill="#1A1A1A" stroke="white" stroke-width="0.323944"/>
<rect x="11.7528" y="12.7528" width="0.647887" height="0.323944" fill="#1A1A1A" stroke="white" stroke-width="0.323944"/>
<rect x="11.7528" y="15.6688" width="0.647887" height="0.323944" fill="#1A1A1A" stroke="white" stroke-width="0.323944"/>
<rect x="11.7528" y="18.5848" width="0.647887" height="0.323944" fill="#1A1A1A" stroke="white" stroke-width="0.323944"/>
<rect x="11.7528" y="21.4999" width="0.647887" height="0.323944" fill="#1A1A1A" stroke="white" stroke-width="0.323944"/>
<rect x="11.7528" y="24.4149" width="0.647887" height="0.323944" fill="#1A1A1A" stroke="white" stroke-width="0.323944"/>
<rect x="11.7528" y="27.3299" width="0.647887" height="0.323944" fill="#1A1A1A" stroke="white" stroke-width="0.323944"/>
<rect x="30.8661" y="27.3299" width="0.647887" height="0.323944" fill="#1A1A1A" stroke="white" stroke-width="0.323944"/>
<rect x="30.8661" y="24.4149" width="0.647887" height="0.323944" fill="#1A1A1A" stroke="white" stroke-width="0.323944"/>
<rect x="30.8661" y="21.4999" width="0.647887" height="0.323944" fill="#1A1A1A" stroke="white" stroke-width="0.323944"/>
<rect x="30.8661" y="18.5848" width="0.647887" height="0.323944" fill="#1A1A1A" stroke="white" stroke-width="0.323944"/>
<rect x="30.8661" y="15.6688" width="0.647887" height="0.323944" fill="#1A1A1A" stroke="white" stroke-width="0.323944"/>
<rect x="30.8661" y="12.7528" width="0.647887" height="0.323944" fill="#1A1A1A" stroke="white" stroke-width="0.323944"/>
<rect x="15.3172" y="29.2753" width="0.647887" height="0.323944" fill="#1A1A1A" stroke="white" stroke-width="0.323944"/>
<rect x="18.8807" y="29.2753" width="0.647887" height="0.323944" fill="#1A1A1A" stroke="white" stroke-width="0.323944"/>
<rect x="22.4432" y="29.2753" width="0.647887" height="0.323944" fill="#1A1A1A" stroke="white" stroke-width="0.323944"/>
<rect x="26.0067" y="29.2753" width="0.647887" height="0.323944" fill="#1A1A1A" stroke="white" stroke-width="0.323944"/>
<rect x="27.3036" y="29.2753" width="0.647887" height="0.323944" fill="#1A1A1A" stroke="white" stroke-width="0.323944"/>
<rect x="30.8661" y="29.2753" width="0.647887" height="0.323944" fill="#1A1A1A" stroke="white" stroke-width="0.323944"/>
<rect x="11.7528" y="29.2753" width="0.647887" height="0.323944" fill="#1A1A1A" stroke="white" stroke-width="0.323944"/>
<rect x="10.7811" y="11.7811" width="0.647887" height="0.323944" fill="#1A1A1A" stroke="white" stroke-width="0.323944"/>
<rect x="10.7811" y="14.6971" width="0.647887" height="0.323944" fill="#1A1A1A" stroke="white" stroke-width="0.323944"/>
<rect x="10.7811" y="17.6131" width="0.647887" height="0.323944" fill="#1A1A1A" stroke="white" stroke-width="0.323944"/>
<rect x="10.7811" y="20.5282" width="0.647887" height="0.323944" fill="#1A1A1A" stroke="white" stroke-width="0.323944"/>
<rect x="10.7811" y="23.4432" width="0.647887" height="0.323944" fill="#1A1A1A" stroke="white" stroke-width="0.323944"/>
<rect x="10.7811" y="26.3583" width="0.647887" height="0.323944" fill="#1A1A1A" stroke="white" stroke-width="0.323944"/>
<rect x="29.8944" y="26.3583" width="0.647887" height="0.323944" fill="#1A1A1A" stroke="white" stroke-width="0.323944"/>
<rect x="29.8944" y="23.4432" width="0.647887" height="0.323944" fill="#1A1A1A" stroke="white" stroke-width="0.323944"/>
<rect x="29.8944" y="20.5282" width="0.647887" height="0.323944" fill="#1A1A1A" stroke="white" stroke-width="0.323944"/>
<rect x="29.8944" y="17.6131" width="0.647887" height="0.323944" fill="#1A1A1A" stroke="white" stroke-width="0.323944"/>
<rect x="29.8944" y="14.6971" width="0.647887" height="0.323944" fill="#1A1A1A" stroke="white" stroke-width="0.323944"/>
<rect x="29.8944" y="11.7811" width="0.647887" height="0.323944" fill="#1A1A1A" stroke="white" stroke-width="0.323944"/>
<rect x="14.3446" y="28.3036" width="0.647887" height="0.323944" fill="#1A1A1A" stroke="white" stroke-width="0.323944"/>
<rect x="17.909" y="28.3036" width="0.647887" height="0.323944" fill="#1A1A1A" stroke="white" stroke-width="0.323944"/>
<rect x="21.4715" y="28.3036" width="0.647887" height="0.323944" fill="#1A1A1A" stroke="white" stroke-width="0.323944"/>
<rect x="25.035" y="28.3036" width="0.647887" height="0.323944" fill="#1A1A1A" stroke="white" stroke-width="0.323944"/>
<rect x="29.8944" y="28.3036" width="0.647887" height="0.323944" fill="#1A1A1A" stroke="white" stroke-width="0.323944"/>
<rect x="10.7811" y="28.3036" width="0.647887" height="0.323944" fill="#1A1A1A" stroke="white" stroke-width="0.323944"/>
<rect x="11.7528" y="10.8094" width="0.647887" height="0.323944" fill="#1A1A1A" stroke="white" stroke-width="0.323944"/>
<rect x="11.7528" y="13.7254" width="0.647887" height="0.323944" fill="#1A1A1A" stroke="white" stroke-width="0.323944"/>
<rect x="11.7528" y="16.6415" width="0.647887" height="0.323944" fill="#1A1A1A" stroke="white" stroke-width="0.323944"/>
<rect x="11.7528" y="19.5565" width="0.647887" height="0.323944" fill="#1A1A1A" stroke="white" stroke-width="0.323944"/>
<rect x="11.7528" y="22.4715" width="0.647887" height="0.323944" fill="#1A1A1A" stroke="white" stroke-width="0.323944"/>
<rect x="11.7528" y="25.3866" width="0.647887" height="0.323944" fill="#1A1A1A" stroke="white" stroke-width="0.323944"/>
<rect x="30.8661" y="25.3866" width="0.647887" height="0.323944" fill="#1A1A1A" stroke="white" stroke-width="0.323944"/>
<rect x="30.8661" y="22.4715" width="0.647887" height="0.323944" fill="#1A1A1A" stroke="white" stroke-width="0.323944"/>
<rect x="30.8661" y="19.5565" width="0.647887" height="0.323944" fill="#1A1A1A" stroke="white" stroke-width="0.323944"/>
<rect x="30.8661" y="16.6415" width="0.647887" height="0.323944" fill="#1A1A1A" stroke="white" stroke-width="0.323944"/>
<rect x="30.8661" y="13.7254" width="0.647887" height="0.323944" fill="#1A1A1A" stroke="white" stroke-width="0.323944"/>
<rect x="30.8661" y="10.8094" width="0.647887" height="0.323944" fill="#1A1A1A" stroke="white" stroke-width="0.323944"/>
<rect x="15.3172" y="27.3299" width="0.647887" height="0.323944" fill="#1A1A1A" stroke="white" stroke-width="0.323944"/>
<rect x="18.8807" y="27.3299" width="0.647887" height="0.323944" fill="#1A1A1A" stroke="white" stroke-width="0.323944"/>
<rect x="22.4432" y="27.3299" width="0.647887" height="0.323944" fill="#1A1A1A" stroke="white" stroke-width="0.323944"/>
<rect x="26.0067" y="27.3299" width="0.647887" height="0.323944" fill="#1A1A1A" stroke="white" stroke-width="0.323944"/>
<rect x="27.3036" y="27.3299" width="0.647887" height="0.323944" fill="#1A1A1A" stroke="white" stroke-width="0.323944"/>
<rect x="10.7811" y="10.8094" width="0.323944" height="0.323944" fill="#1A1A1A" stroke="white" stroke-width="0.323944"/>
<rect x="10.7811" y="13.7254" width="0.323944" height="0.323944" fill="#1A1A1A" stroke="white" stroke-width="0.323944"/>
<rect x="10.7811" y="16.6415" width="0.323944" height="0.323944" fill="#1A1A1A" stroke="white" stroke-width="0.323944"/>
<rect x="10.7811" y="19.5565" width="0.323944" height="0.323944" fill="#1A1A1A" stroke="white" stroke-width="0.323944"/>
<rect x="10.7811" y="22.4715" width="0.323944" height="0.323944" fill="#1A1A1A" stroke="white" stroke-width="0.323944"/>
<rect x="10.7811" y="25.3866" width="0.323944" height="0.323944" fill="#1A1A1A" stroke="white" stroke-width="0.323944"/>
<rect x="29.8944" y="25.3866" width="0.323944" height="0.323944" fill="#1A1A1A" stroke="white" stroke-width="0.323944"/>
<rect x="29.8944" y="22.4715" width="0.323944" height="0.323944" fill="#1A1A1A" stroke="white" stroke-width="0.323944"/>
<rect x="29.8944" y="19.5565" width="0.323944" height="0.323944" fill="#1A1A1A" stroke="white" stroke-width="0.323944"/>
<rect x="29.8944" y="16.6415" width="0.323944" height="0.323944" fill="#1A1A1A" stroke="white" stroke-width="0.323944"/>
<rect x="29.8944" y="13.7254" width="0.323944" height="0.323944" fill="#1A1A1A" stroke="white" stroke-width="0.323944"/>
<rect x="29.8944" y="10.8094" width="0.323944" height="0.323944" fill="#1A1A1A" stroke="white" stroke-width="0.323944"/>
<rect x="14.3446" y="27.3299" width="0.323944" height="0.323944" fill="#1A1A1A" stroke="white" stroke-width="0.323944"/>
<rect x="17.909" y="27.3299" width="0.323944" height="0.323944" fill="#1A1A1A" stroke="white" stroke-width="0.323944"/>
<rect x="21.4715" y="27.3299" width="0.323944" height="0.323944" fill="#1A1A1A" stroke="white" stroke-width="0.323944"/>
<rect x="25.035" y="27.3299" width="0.323944" height="0.323944" fill="#1A1A1A" stroke="white" stroke-width="0.323944"/>
<rect x="12.077" y="11.7811" width="0.323944" height="0.323944" fill="#1A1A1A" stroke="white" stroke-width="0.323944"/>
<rect x="12.077" y="14.6971" width="0.323944" height="0.323944" fill="#1A1A1A" stroke="white" stroke-width="0.323944"/>
<rect x="12.077" y="17.6131" width="0.323944" height="0.323944" fill="#1A1A1A" stroke="white" stroke-width="0.323944"/>
<rect x="12.077" y="20.5282" width="0.323944" height="0.323944" fill="#1A1A1A" stroke="white" stroke-width="0.323944"/>
<rect x="12.077" y="23.4432" width="0.323944" height="0.323944" fill="#1A1A1A" stroke="white" stroke-width="0.323944"/>
<rect x="12.077" y="26.3583" width="0.323944" height="0.323944" fill="#1A1A1A" stroke="white" stroke-width="0.323944"/>
<rect x="31.1903" y="26.3583" width="0.323944" height="0.323944" fill="#1A1A1A" stroke="white" stroke-width="0.323944"/>
<rect x="31.1903" y="23.4432" width="0.323944" height="0.323944" fill="#1A1A1A" stroke="white" stroke-width="0.323944"/>
<rect x="31.1903" y="20.5282" width="0.323944" height="0.323944" fill="#1A1A1A" stroke="white" stroke-width="0.323944"/>
<rect x="31.1903" y="17.6131" width="0.323944" height="0.323944" fill="#1A1A1A" stroke="white" stroke-width="0.323944"/>
<rect x="31.1903" y="14.6971" width="0.323944" height="0.323944" fill="#1A1A1A" stroke="white" stroke-width="0.323944"/>
<rect x="31.1903" y="11.7811" width="0.323944" height="0.323944" fill="#1A1A1A" stroke="white" stroke-width="0.323944"/>
<rect x="15.6415" y="28.3036" width="0.323944" height="0.323944" fill="#1A1A1A" stroke="white" stroke-width="0.323944"/>
<rect x="19.204" y="28.3036" width="0.323944" height="0.323944" fill="#1A1A1A" stroke="white" stroke-width="0.323944"/>
<rect x="22.7674" y="28.3036" width="0.323944" height="0.323944" fill="#1A1A1A" stroke="white" stroke-width="0.323944"/>
<rect x="26.3299" y="28.3036" width="0.323944" height="0.323944" fill="#1A1A1A" stroke="white" stroke-width="0.323944"/>
<rect x="27.3036" y="28.3036" width="0.647887" height="0.323944" fill="#1A1A1A" stroke="white" stroke-width="0.323944"/>
<rect x="31.1903" y="28.3036" width="0.323944" height="0.323944" fill="#1A1A1A" stroke="white" stroke-width="0.323944"/>
<rect x="12.077" y="28.3036" width="0.323944" height="0.323944" fill="#1A1A1A" stroke="white" stroke-width="0.323944"/>
<rect x="9.48619" y="12.7528" width="0.323944" height="0.323944" fill="#1A1A1A" stroke="white" stroke-width="0.323944"/>
<rect x="9.48619" y="15.6688" width="0.323944" height="0.323944" fill="#1A1A1A" stroke="white" stroke-width="0.323944"/>
<rect x="9.48619" y="18.5848" width="0.323944" height="0.323944" fill="#1A1A1A" stroke="white" stroke-width="0.323944"/>
<rect x="9.48619" y="21.4999" width="0.323944" height="0.323944" fill="#1A1A1A" stroke="white" stroke-width="0.323944"/>
<rect x="9.48619" y="24.4149" width="0.323944" height="0.323944" fill="#1A1A1A" stroke="white" stroke-width="0.323944"/>
<rect x="9.48619" y="27.3299" width="0.323944" height="0.323944" fill="#1A1A1A" stroke="white" stroke-width="0.323944"/>
<rect x="28.5985" y="27.3299" width="0.323944" height="0.323944" fill="#1A1A1A" stroke="white" stroke-width="0.323944"/>
<rect x="28.5985" y="24.4149" width="0.323944" height="0.323944" fill="#1A1A1A" stroke="white" stroke-width="0.323944"/>
<rect x="28.5985" y="21.4999" width="0.323944" height="0.323944" fill="#1A1A1A" stroke="white" stroke-width="0.323944"/>
<rect x="28.5985" y="18.5848" width="0.323944" height="0.323944" fill="#1A1A1A" stroke="white" stroke-width="0.323944"/>
<rect x="28.5985" y="15.6688" width="0.323944" height="0.323944" fill="#1A1A1A" stroke="white" stroke-width="0.323944"/>
<rect x="28.5985" y="12.7528" width="0.323944" height="0.323944" fill="#1A1A1A" stroke="white" stroke-width="0.323944"/>
<rect x="13.0487" y="29.2753" width="0.323944" height="0.323944" fill="#1A1A1A" stroke="white" stroke-width="0.323944"/>
<rect x="16.6131" y="29.2753" width="0.323944" height="0.323944" fill="#1A1A1A" stroke="white" stroke-width="0.323944"/>
<rect x="20.1756" y="29.2753" width="0.323944" height="0.323944" fill="#1A1A1A" stroke="white" stroke-width="0.323944"/>
<rect x="23.7391" y="29.2753" width="0.323944" height="0.323944" fill="#1A1A1A" stroke="white" stroke-width="0.323944"/>
<rect x="28.5985" y="29.2753" width="0.323944" height="0.323944" fill="#1A1A1A" stroke="white" stroke-width="0.323944"/>
<rect x="9.48619" y="29.2753" width="0.323944" height="0.323944" fill="#1A1A1A" stroke="white" stroke-width="0.323944"/>
<rect x="16.4512" y="10.3242" width="1.29577" height="13.2817" fill="white"/>
<rect x="15.8037" y="22.3105" width="2.59155" height="3.23944" fill="#EDF1FD"/>
<line x1="12.8867" y1="11.4434" x2="13.8586" y2="11.4434" stroke="#9D9D9D"/>
<line x1="12.8867" y1="13.3867" x2="13.8586" y2="13.3867" stroke="#9D9D9D"/>
<line x1="12.8867" y1="15.3301" x2="13.8586" y2="15.3301" stroke="#9D9D9D"/>
<line x1="12.8867" y1="17.2754" x2="13.8586" y2="17.2754" stroke="#9D9D9D"/>
<line x1="12.8867" y1="19.2188" x2="13.8586" y2="19.2188" stroke="#9D9D9D"/>
<line x1="12.8867" y1="21.1621" x2="13.8586" y2="21.1621" stroke="#9D9D9D"/>
<line x1="12.8867" y1="23.1055" x2="13.8586" y2="23.1055" stroke="#9D9D9D"/>
<line x1="12.8867" y1="25.0488" x2="13.8586" y2="25.0488" stroke="#9D9D9D"/>
<line x1="12.8867" y1="12.415" x2="14.5064" y2="12.415" stroke="#9D9D9D"/>
<line x1="12.8867" y1="14.3584" x2="14.5064" y2="14.3584" stroke="#9D9D9D"/>
<line x1="12.8867" y1="16.3018" x2="14.5064" y2="16.3018" stroke="#9D9D9D"/>
<line x1="12.8867" y1="18.2471" x2="14.5064" y2="18.2471" stroke="#9D9D9D"/>
<line x1="12.8867" y1="20.1904" x2="14.5064" y2="20.1904" stroke="#9D9D9D"/>
<line x1="12.8867" y1="22.1338" x2="14.5064" y2="22.1338" stroke="#9D9D9D"/>
<line x1="12.8867" y1="24.0771" x2="14.5064" y2="24.0771" stroke="#9D9D9D"/>
<line x1="12.8867" y1="26.0205" x2="14.5064" y2="26.0205" stroke="#9D9D9D"/>
</svg>
