<svg width="100" height="100" viewBox="0 0 100 100" fill="none" xmlns="http://www.w3.org/2000/svg">
<path d="M30.2658 63.4809H32.2658V61.4809H30.2658V63.4809ZM30.2658 82.2021H28.2658V88.9042L31.9387 83.2982L30.2658 82.2021ZM42.5315 63.4809V61.4809H41.4508L40.8585 62.3848L42.5315 63.4809ZM20 23C20 20.7909 21.7909 19 24 19V15C19.5817 15 16 18.5817 16 23H20ZM20 57.4809V23H16V57.4809H20ZM24 61.4809C21.7909 61.4809 20 59.69 20 57.4809H16C16 61.8991 19.5817 65.4809 24 65.4809V61.4809ZM30.2658 61.4809H24V65.4809H30.2658V61.4809ZM32.2658 82.2021V63.4809H28.2658V82.2021H32.2658ZM40.8585 62.3848L28.5929 81.1061L31.9387 83.2982L44.2044 64.5769L40.8585 62.3848ZM75.2656 61.4809H42.5315V65.4809H75.2656V61.4809ZM79.2656 57.4809C79.2656 59.69 77.4748 61.4809 75.2656 61.4809V65.4809C79.6839 65.4809 83.2656 61.8991 83.2656 57.4809H79.2656ZM79.2656 23V57.4809H83.2656V23H79.2656ZM75.2656 19C77.4748 19 79.2656 20.7909 79.2656 23H83.2656C83.2656 18.5817 79.6839 15 75.2656 15V19ZM24 19H75.2656V15H24V19Z" fill="white"/>
<line x1="64.5348" y1="26.227" x2="36.1298" y2="52.0497" stroke="white" stroke-width="4"/>
<line y1="-2" x2="38.3882" y2="-2" transform="matrix(0.73994 0.672673 0.672673 -0.73994 37.3672 24.7471)" stroke="white" stroke-width="4"/>
</svg>
